<svg xmlns="http://www.w3.org/2000/svg" viewBox="0 0 781.97 830.96" id="boy-playing-dog">
  <path fill="#fdf2e0" d="M187.46,735.52c-25.75,1.17-55.71,4.28-73.18-14.66-5.67-6.14-9.19-14-14.4-20.51-6-7.52-14-13.12-21.22-19.45-27.53-24-43.86-58.33-56.36-92.69C.53,528.35-11.38,460,15.48,402.21c5.59-12,12.77-23.33,17.24-35.81,15.6-43.51-4-91.16-3.87-137.39C29,172.09,62.4,116.11,113.12,90.29S229.66,70.81,273.59,107c12.79,10.55,24.38,23.68,40.2,28.62,28.53,8.91,56.72-11.7,84.31-23.22,26.61-11.11,57-13.92,84.63-5.52s51.89,28.47,63.26,55c8.17,19,9.53,40.16,12.85,60.61a310.57,310.57,0,0,0,44.09,116.08c28.65,45.18,68.48,82.17,99.82,125.53s54.49,97.59,42.36,149.7c-2.27,9.73-5.82,19.34-12,27.23-18,23.13-52.2,25.3-81,20s-57.75-15.88-86.62-10.92c-45,7.73-74.9,50-114.5,72.83-38.69,22.28-85.55,25.09-130.09,22S232.05,733.51,187.46,735.52Z"></path>
  <path fill="#a5a653" d="M724.4,391.05A50.69,50.69,0,0,1,745,383.83c4.23-.51,9.11-.79,11.63-4.22a9.74,9.74,0,0,0,1.41-7c-1.37-11.06-14.33-18.18-25.18-15.62s-18.81,12.54-21.69,23.3c-1.22,4.53-1.71,9.3-3.65,13.56-2.59,5.68-7.35,9.71-12.82,12.89.75-60.32,2.12-111.06,4.5-115.56a9.52,9.52,0,0,1,2.77-3.5,10.46,10.46,0,0,1,5.07-1.35,148.92,148.92,0,0,1,16.9-.48c4.43.13,8.88.44,13.26-.23s8.76-2.45,11.61-5.83c4.1-4.86,4.17-12.4.88-17.84s-9.42-8.79-15.73-9.59-12.73.76-18.5,3.43a49.56,49.56,0,0,0-21.53,19.36c-5.51-4.48-4.55-13.48-.66-19.43s9.91-10.2,14.23-15.84c4-5.19,6.44-11.74,5.78-18.23s-4.78-12.78-10.91-15c-8.11-3-17.49,1.73-22.35,8.87s-6.14,16.08-6.68,24.7a185,185,0,0,0,2.57,44.33,32.44,32.44,0,0,0-20.66-22,32.91,32.91,0,0,0-29.78,4.87,17.92,17.92,0,0,0-6.22,7.59c-2.15,5.69.38,12.42,5,16.36s10.89,5.48,17,5.61,12.1-1,18.13-1.74a18.93,18.93,0,0,1,8,.25c5.9,1.89,8.75,8.69,9.27,14.87.23,2.82.14,65.76.12,134.12a58.69,58.69,0,0,0-6.8-2.59c-14.85-7.82-11.72-20.32-25.79-15.63s-5.47,37.51,25.79,31.26a67,67,0,0,0,6.8-1.7c0,78.71.08,160.57.88,163.69l16.48-.13c-.19-4.67-.37-48.28-.23-102.29l1,.21c31.25,6.25,39.85-26.57,25.78-31.26s-10.94,7.82-25.78,15.63l-1,.3c.1-27.08.28-56,.59-83.49,4.74-4.34,10.62-7.58,17-8.29,6.77-.76,14,1.63,18.3,6.95,2,2.48,3.28,5.5,5.45,7.82a12.92,12.92,0,0,0,12.37,3.75,11.47,11.47,0,0,0,8.43-9.57c.67-6.48-4.67-12.08-10.4-15.16a38.31,38.31,0,0,0-26.26-3.59C717.64,397,721.08,393.11,724.4,391.05Z"></path>
  <path fill="#313131" d="M677.63,621a1.56,1.56,0,0,1-1.6-1.12c-.68-2.67-.95-49.55-.94-161.84-1.45.39-3.07.8-4.82,1.15a40.94,40.94,0,0,1-7.92.83c-15.71,0-24.56-10.43-26.14-20.14-1.18-7.28,1.73-13.21,7.43-15.11a18.45,18.45,0,0,1,5.83-1.11c5,0,7.35,3.1,10.06,6.69,2.48,3.29,5.29,7,11.05,10.08.54.17,2.35.75,4.52,1.62V406.17c0-50.13,0-93.43-.13-95.63-.45-5.38-2.82-11.74-8.13-13.44a11.34,11.34,0,0,0-3.47-.47,33.09,33.09,0,0,0-3.86.29c-1.4.17-2.8.37-4.21.56a89.66,89.66,0,0,1-14.15,1.19c-5.15-.11-12.45-1.24-18-6s-7.75-12.19-5.47-18.2a19.34,19.34,0,0,1,6.77-8.33,34.55,34.55,0,0,1,20.71-6.83A33.23,33.23,0,0,1,655.74,261a33.84,33.84,0,0,1,16.84,12.67,186.54,186.54,0,0,1-.93-33.58c.53-8.34,1.76-17.89,7-25.53,4.34-6.38,11.62-10.51,18.52-10.51a16.4,16.4,0,0,1,5.76,1c6.42,2.36,11.24,9,12,16.41.65,6.51-1.52,13.39-6.12,19.4a71.92,71.92,0,0,1-6.62,7.18,54.24,54.24,0,0,0-7.54,8.56c-3.11,4.76-4.13,11.73-1,15.88a51.31,51.31,0,0,1,21.12-18.21,37.73,37.73,0,0,1,15.82-3.79,28.2,28.2,0,0,1,3.58.23c7.23.91,13.57,4.79,16.94,10.37,3.78,6.26,3.35,14.56-1,19.75-3.58,4.24-8.85,5.83-12.63,6.41a42.82,42.82,0,0,1-6.49.43c-1.64,0-3.3-.06-4.91-.12l-2.16-.07a150.28,150.28,0,0,0-16.71.47,9.11,9.11,0,0,0-4.28,1.08,7.88,7.88,0,0,0-2.24,2.91c-1.09,2.06-3.08,19.38-4.28,111.78,4.66-3.12,7.82-6.6,9.64-10.58a41.29,41.29,0,0,0,2.48-8.65c.32-1.52.66-3.1,1.07-4.64,3.32-12.38,12.31-22,22.91-24.49a21.26,21.26,0,0,1,4.94-.56c9.87,0,20.9,6.58,22.26,17.59a11.45,11.45,0,0,1-1.72,8.16c-2.74,3.73-7.51,4.28-11.73,4.76l-1,.12a49,49,0,0,0-19.89,7c-1.81,1.13-4.76,3.65-4.69,6.05a39.31,39.31,0,0,1,7-.64,40,40,0,0,1,18.82,4.69c5.95,3.2,12,9.28,11.26,16.79a13,13,0,0,1-13,11.42,14.86,14.86,0,0,1-10.66-4.64,27.51,27.51,0,0,1-3.3-4.61,34.76,34.76,0,0,0-2.24-3.31c-3.24-4-8.68-6.47-14.54-6.47a21.63,21.63,0,0,0-2.28.13c-6.69.75-12.06,4.33-15.54,7.4-.26,24.23-.46,51.18-.57,80.15,4.87-2.91,7.42-6.3,9.7-9.32,2.71-3.59,5.05-6.69,10.06-6.69a18.8,18.8,0,0,1,5.84,1.1c5.69,1.9,8.61,7.84,7.42,15.13-1.57,9.7-10.42,20.14-26.14,20.14a39.13,39.13,0,0,1-6.94-.64c-.14,53.76.05,95.81.23,100.21a1.63,1.63,0,0,1-.45,1.21,1.51,1.51,0,0,1-1.18.39h-16.5Zm-.88-166.75a1.66,1.66,0,0,1,1,.32,1.63,1.63,0,0,1,.68,1.33c0,41.46,0,148.48.72,162l13.3-.1c-.18-9.44-.33-49.32-.19-100.66a1.65,1.65,0,0,1,2-1.61l1,.2a37.44,37.44,0,0,0,7.27.76c13.78,0,21.52-9,22.88-17.37.91-5.61-1.13-10.1-5.21-11.46a15.49,15.49,0,0,0-4.79-.94c-3.22,0-4.68,1.75-7.42,5.38-2.57,3.41-5.78,7.66-12.28,11.08l-.3.12-.9.29a1.65,1.65,0,0,1-2.17-1.57c.11-30.26.31-58.35.59-83.51a1.59,1.59,0,0,1,.53-1.19c3.81-3.49,10-7.84,17.93-8.72a23.28,23.28,0,0,1,2.65-.15c6.86,0,13.26,2.88,17.12,7.7a35.81,35.81,0,0,1,2.46,3.64,25.33,25.33,0,0,0,2.91,4.09,11.49,11.49,0,0,0,8.25,3.59,9.72,9.72,0,0,0,9.7-8.45c.6-5.89-4.76-11-9.54-13.54a36.63,36.63,0,0,0-17.26-4.29,36.19,36.19,0,0,0-7.86.86,1.64,1.64,0,0,1-1.83-.86c-2.14-4.23,1.27-8.84,5.6-11.53a52.37,52.37,0,0,1,21.24-7.46l1.05-.12c3.71-.43,7.55-.87,9.44-3.43a8.17,8.17,0,0,0,1.1-5.8c-1.12-9.08-10.73-14.7-19-14.7a18.75,18.75,0,0,0-4.19.47c-9.42,2.23-17.46,10.91-20.47,22.13-.39,1.46-.71,3-1,4.47a44.25,44.25,0,0,1-2.72,9.35c-2.42,5.3-6.83,9.76-13.5,13.62a1.64,1.64,0,0,1-1.66,0,1.67,1.67,0,0,1-.82-1.44c1.38-110,3.88-114.76,4.7-116.31a11,11,0,0,1,3.3-4.09,11.88,11.88,0,0,1,5.86-1.64,152.22,152.22,0,0,1,17.09-.48l2.18.07c1.58.06,3.2.11,4.79.11a39,39,0,0,0,6-.39c3.23-.49,7.68-1.81,10.6-5.27,3.49-4.14,3.8-10.83.73-15.91-2.85-4.73-8.28-8-14.52-8.81-5.45-.69-11.46.44-17.6,3.28A48,48,0,0,0,695.31,276a1.64,1.64,0,0,1-1.13.78,1.67,1.67,0,0,1-1.33-.34c-6.18-5-5.37-14.95-1-21.62a56.83,56.83,0,0,1,8-9.11,69.1,69.1,0,0,0,6.32-6.84c4-5.26,6-11.47,5.45-17.06-.62-6.22-4.58-11.71-9.84-13.64a13.25,13.25,0,0,0-4.62-.81c-5.84,0-12,3.55-15.79,9.06-4.76,7-5.91,16-6.4,23.87a183.7,183.7,0,0,0,2.54,43.93,1.65,1.65,0,0,1-3.22.72,31,31,0,0,0-19.58-20.81,29.83,29.83,0,0,0-9.54-1.53,31.22,31.22,0,0,0-18.72,6.16,16.15,16.15,0,0,0-5.67,6.86c-1.77,4.66.13,10.76,4.53,14.52,4.83,4.12,11.33,5.11,15.94,5.21a86.67,86.67,0,0,0,13.63-1.16l4.26-.57a36.61,36.61,0,0,1,4.26-.32,14.47,14.47,0,0,1,4.48.64c6.86,2.19,9.88,9.86,10.41,16.31.2,2.34.18,41.58.15,95.9l0,38.35a1.65,1.65,0,0,1-.76,1.39,1.62,1.62,0,0,1-1.58.11,56.43,56.43,0,0,0-6.59-2.51,1.48,1.48,0,0,1-.29-.12c-6.51-3.43-9.71-7.67-12.29-11.09-2.74-3.63-4.19-5.37-7.42-5.37a15.26,15.26,0,0,0-4.79.94c-4.07,1.35-6.11,5.85-5.21,11.45,1.36,8.37,9.1,17.37,22.88,17.37a37.33,37.33,0,0,0,7.27-.75,65.36,65.36,0,0,0,6.63-1.65A1.42,1.42,0,0,1,676.75,454.21Z"></path>
  <path fill="#333" d="M698 283.51a1.65 1.65 0 0 1-1.28-2.7c16.46-20.27 42.52-15.84 43.62-15.64a1.65 1.65 0 1 1-.59 3.25c-.25 0-25.26-4.26-40.46 14.48A1.67 1.67 0 0 1 698 283.51ZM683.09 252.81h-.17a1.66 1.66 0 0 1-1.47-1.81c1.48-14.54 10.93-32.14 11.34-32.89a1.65 1.65 0 0 1 2.9 1.57c-.09.18-9.54 17.78-11 31.65A1.67 1.67 0 0 1 683.09 252.81ZM669.3 285.36a1.64 1.64 0 0 1-1-.31c-19.75-14.18-38.93-5.79-39.12-5.7a1.65 1.65 0 0 1-1.37-3c.85-.38 21.06-9.31 42.42 6a1.66 1.66 0 0 1 .38 2.31A1.64 1.64 0 0 1 669.3 285.36ZM662.91 661.8c14.87-6.61 31.39-.82 45.43-9.08 8.26-5 12.39-14.05 13.21-22.31 1-9.23 2.23-18.46 1.92-27.52-32.16 5.05-74.11 6.24-115.32-7.5 0 0-85.29-37.4-40.4 53.87 19.41 39.47 45.26 62.42 70 74.2C636.64 699.27 638.54 672.46 662.91 661.8Z"></path>
  <path fill="#fff" d="M757.78,595.39a289,289,0,0,1-34.31,7.5c.31,9.06-1,18.29-1.92,27.52-.82,8.26-4.95,17.35-13.21,22.31-14,8.26-30.56,2.47-45.43,9.08-24.37,10.66-26.27,37.47-25.12,61.66,32.52,15.46,63.21,11.66,75.1.61,21-19.45-4.49-26.93,35.91-40.4S789.2,586.42,757.78,595.39Z"></path>
  <path fill="#333" d="M680.7,735h0a102.47,102.47,0,0,1-43.62-10.23,1.47,1.47,0,0,1-.94-1.3c-1.19-25.11,1-52.2,26.11-63.2,7.23-3.21,14.8-3.57,22.12-4,8.23-.43,16-.81,23.13-5,6.86-4.12,11.5-12,12.41-21,.15-1.44.31-2.87.47-4.3.83-7.6,1.7-15.46,1.44-23a1.65,1.65,0,0,1,1.4-1.68,291.11,291.11,0,0,0,34.11-7.46,18.42,18.42,0,0,1,5-.73c9.44,0,16.48,8.66,18.84,23.18,3.76,23.22-5.2,60.12-31.82,69-23,7.66-23.7,12.85-24.71,20-.73,5.21-1.64,11.47-10.6,19.8C707.1,731.49,695,735,680.7,735Zm-41.31-12.64c13.66,6.35,27.92,9.64,41.31,9.64h0c13.24,0,24.85-3.38,31.07-9.16,8.1-7.53,8.89-13.09,9.58-18,1.25-8.93,3.23-14.79,26.93-22.69,10.82-3.6,19.75-13.15,25.15-26.9,4.74-12.06,6.4-26.42,4.45-38.42-2.07-12.77-7.89-20.4-15.57-20.4a15,15,0,0,0-4.07.61,293.55,293.55,0,0,1-33.08,7.31,175.88,175.88,0,0,1-1.5,22c-.16,1.43-.31,2.86-.46,4.29-1,10.08-6.25,18.89-14,23.54s-16.38,5-24.65,5.48c-7,.36-14.28.7-21,3.67C640.6,673.33,638.36,698.62,639.39,722.32Z"></path>
  <path fill="#f0c7c0" d="M520.3,266.21l.71-48.13a9.06,9.06,0,0,0-1.61-7.56c-3.94-5.21-10.95-16.17-11-28.37-.07-17,6.23-40.57,5.18-51.38S500.14,91.62,510.07,86C529.8,74.7,537,119.45,544.84,127.6s11.25,9.89,20.57.85,16.34-16.46,20-23.3c11.19-21,14.58-46.55,26.52-44.38,17.42,3.15.46,43,.46,43L602.3,128.48s11.25-8.55,16.8-17.68,8.37-26,18.19-35.77,20.38-3,23.59,2.79c0,0,19.26,1.39,10.73,31.43,0,0,6.49-.2,7,10.85.47,10.4-10.77,33.86-13,39.15S607.81,219.47,603,226.74s4.2,203.44,4.2,203.44-43-9.95-72.82-17S520.3,266.21,520.3,266.21Z"></path>
  <path fill="#313131" d="M607.23,431.83a1.5,1.5,0,0,1-.37,0c-.43-.1-43.34-10-72.83-17-13.22-3.11-19.79-29.27-19.52-77.76.2-34.72,3.93-69.06,4.14-71l.71-48a1.34,1.34,0,0,1,0-.35,7.45,7.45,0,0,0-1.32-6.19c-4.22-5.56-11.29-16.77-11.34-29.37,0-8.59,1.5-18.53,3-28.15,1.41-9.18,2.73-17.85,2.23-23.07-.29-3-1.56-7.62-2.9-12.52-3.73-13.7-8-29.22.21-33.89a14,14,0,0,1,6.92-2c11.13,0,17.61,16.34,22.83,29.48,2.49,6.29,4.85,12.23,7,14.48,4,4.15,6.67,6.4,9.23,6.4,2.26,0,5-1.67,9-5.59,9.28-9,16.17-16.32,19.69-22.9a185.51,185.51,0,0,0,9.11-21.11C598.24,69.7,602.33,59,610.55,59a9.71,9.71,0,0,1,1.68.15,9.93,9.93,0,0,1,7.3,5.24c6.32,11.7-5.13,38.93-5.62,40.09l-7.54,18.41c3.62-3.28,8.35-8,11.32-12.94,2-3.23,3.62-7.61,5.38-12.23,3.09-8.16,6.6-17.41,13-23.85,3.61-3.6,7.6-5.43,11.86-5.43,6.2,0,11.41,3.95,13.91,7.87a15.81,15.81,0,0,1,10.05,6.46c4,5.71,4.58,14.2,1.72,25.25,2.45.87,6.21,3.59,6.59,12,.43,9.37-7.81,27.88-11.77,36.78-.58,1.31-1.05,2.36-1.35,3.08-1.22,2.88-13.45,15.67-33.45,36.39-13.33,13.81-27.11,28.09-29.27,31.37-3.22,6.39.9,124.35,4.46,202.22a1.55,1.55,0,0,1,0,.31,1.65,1.65,0,0,1-1.65,1.65ZM522.66,218.28l-.71,48a.86.86,0,0,1,0,.16c-4.32,38.53-10.46,139.74,12.84,145.22,25.73,6.05,61.67,14.38,70.7,16.47-.45-10.06-2.36-53.35-3.8-96.84-3.31-100.42-.93-104,0-105.4,2.32-3.54,15.6-17.29,29.66-31.86S663,161.13,664.08,158.6c.31-.73.79-1.8,1.38-3.13,3.55-8,11.88-26.7,11.49-35.29-.42-9.15-5.12-9.28-5.32-9.28a1.68,1.68,0,0,1-1.33-.66,1.66,1.66,0,0,1-.28-1.44c3-10.69,2.77-19-.75-24.1a12.33,12.33,0,0,0-8.52-5.23,1.7,1.7,0,0,1-1.32-.85A14,14,0,0,0,648,71.73c-3.35,0-6.56,1.51-9.53,4.47-5.94,5.93-9.32,14.83-12.29,22.68-1.82,4.77-3.53,9.28-5.65,12.78-5.64,9.29-16.74,17.78-17.21,18.13a1.65,1.65,0,0,1-2.53-1.94l10.09-24.65c.12-.29,11.33-26.94,5.76-37.25a6.67,6.67,0,0,0-5-3.56,5.89,5.89,0,0,0-1.09-.1c-5.94,0-9.86,10.27-14.41,22.15a184.83,184.83,0,0,1-9.28,21.48c-3.71,7-10.8,14.52-20.3,23.72-4.78,4.63-8,6.53-11.3,6.53-4.12,0-7.55-3.22-11.6-7.42-2.63-2.72-5-8.67-7.72-15.55-4.85-12.21-10.88-27.4-19.76-27.4a10.83,10.83,0,0,0-5.29,1.59c-5.95,3.4-1.73,18.86,1.35,30.15,1.44,5.26,2.68,9.8,3,13.07.55,5.63-.81,14.5-2.24,23.89s-3,19.31-2.93,27.64c0,11.64,6.7,22.15,10.66,27.38A10.73,10.73,0,0,1,522.66,218.28Z"></path>
  <path fill="#333" d="M623.94 138.67a1.65 1.65 0 0 1-.94-3c13.83-9.49 21-27.38 22.5-37.08.72-4.77 3-16.34 9.12-20.76a8.45 8.45 0 0 1 6.52-1.62 1.67 1.67 0 0 1 1.37 1.9 1.65 1.65 0 0 1-1.9 1.36 5.17 5.17 0 0 0-4.05 1c-3.51 2.56-6.42 9.51-7.79 18.58-1.92 12.71-10.74 30.29-23.9 39.32A1.7 1.7 0 0 1 623.94 138.67ZM633.44 156.51a1.65 1.65 0 0 1-1-3c15.91-11.51 17.12-15.07 20.71-25.64l.29-.85c4-11.61 9.1-17.22 17.74-19.39a1.65 1.65 0 0 1 .8 3.21c-7.5 1.88-11.82 6.71-15.41 17.25l-.29.85c-3.64 10.69-5.15 15.12-21.9 27.25A1.65 1.65 0 0 1 633.44 156.51Z"></path>
  <path fill="#333" d="M639.3 170.3a1.64 1.64 0 0 1-1.37-.73c-18.11-26.67-53.24-42-53.59-42.13a1.65 1.65 0 1 1 1.3-3c1.48.63 36.37 15.85 55 43.31a1.65 1.65 0 0 1-.44 2.29A1.62 1.62 0 0 1 639.3 170.3ZM567.36 204.48a1.54 1.54 0 0 1-.43-.06 1.65 1.65 0 0 1-1.17-2c8.11-30.38-8.24-46.15-8.4-46.3a1.65 1.65 0 0 1 2.25-2.42c.74.69 18 17.18 9.34 49.57A1.65 1.65 0 0 1 567.36 204.48Z"></path>
  <path fill="#eeb857" d="M128.91,620.88s-20,18.64-29.95,18-10.32-46.06-24.91-60.29S18,469.78,38.58,424.6,83,354.38,126.12,354.94s119.94-5.55,142.78-16.26,55-28.57,91-20.71,169,92.83,169,92.83l54.33,170.71L437.86,723.84l-90.28,26.29Z"></path>
  <path fill="#313131" d="M347.58,751.79a1.69,1.69,0,0,1-.85-.23L129.12,622.92c-4.05,3.65-20.22,17.63-29.65,17.63l-.62,0c-6-.39-8.48-10.7-11.89-25-3.22-13.48-6.86-28.76-14.06-35.78-7.51-7.33-21.64-34.67-31.37-66.08-6.86-22.15-16.56-63.27-4.46-89.78,22.91-50.17,48.3-70.63,87.62-70.63h1.45c1.83,0,3.73,0,5.68,0,41.67,0,114.21-5.75,136.38-16.15q3-1.43,6.27-3c18.42-8.82,41.35-19.81,67.28-19.81a86.63,86.63,0,0,1,18.53,2c35.91,7.83,164.07,89.57,169.51,93.05a1.59,1.59,0,0,1,.68.89L584.8,581a1.66,1.66,0,0,1-.41,1.68L439,725a1.67,1.67,0,0,1-.69.41L348,751.72A1.83,1.83,0,0,1,347.58,751.79ZM128.91,619.23a1.59,1.59,0,0,1,.84.23L347.8,748.35l89.2-26L581.35,581,527.51,411.87c-9-5.72-133.71-84.82-167.93-92.29a84,84,0,0,0-17.83-1.9c-25.18,0-47.73,10.81-65.85,19.49q-3.25,1.57-6.3,3c-22.6,10.6-95.81,16.46-137.78,16.46q-3,0-5.73,0c-38.64-.52-63.45,19.29-86,68.69C28.43,450.8,38,491,44.69,512.71,54,542.65,68,570.33,75.2,577.41c7.89,7.68,11.65,23.46,15,37.37,2.48,10.42,5.3,22.08,8.88,22.31.13,0,.27-.13.4-.13h0c7.73,0,23.06-12.54,28.31-17.43A1.55,1.55,0,0,1,128.91,619.23Z"></path>
  <path fill="#fff" d="M408,397.47s-64.2-34.59-82.28-29.11.68,58.18,63.29,83.25S408,397.47,408,397.47Z"></path>
  <path fill="#333" d="M409.06,458h0c-5.42,0-12.39-1.59-20.71-4.92-49.68-19.9-71.65-56.29-70.86-74.66.27-6.09,3-10.2,7.71-11.63a18.23,18.23,0,0,1,5.16-.64c22.62,0,76.11,28.68,78.38,29.9a1.61,1.61,0,0,1,.66.66c.89,1.62,21.74,39.74,12.69,55.06C419.61,455.93,415.22,458,409.06,458Zm-78.7-88.54a14.92,14.92,0,0,0-4.21.52c-4.17,1.27-5.22,5.4-5.36,8.64-.78,18.11,22.69,53.08,68.79,71.55,7.93,3.17,14.48,4.83,19.48,4.83h0c5,0,8.3-1.59,10.18-4.76,7.63-12.92-10.25-47.26-12.51-51.48C401.52,396,351.12,369.42,330.36,369.42Z"></path>
  <path fill="#333" d="M397.66,394s-9,53.68-9.11,55.33-82-50.68-101.34-42.52-16.1,69.28,118.35,139.4c0,0-61.89,32.55,29.64,107.11,0,0,13,13.57,8.86,17.18s-37.25-40.61-58.55-36.44S337,656.44,357.6,680.47s45.2,46.1,89.91,39.56,149.4-50.16,165.4-161-3.23-199-79.55-260.36Z"></path>
  <path fill="#ce5044" d="M287.19,342.8c-7.68,4.86-13.46,12.24-6.13,19.69,3.31,3.36,8.44,4.37,13.11,3.76s9-2.65,13.29-4.66l27-12.68c.66-.31,1.41-.74,1.5-1.46s-.61-1.38-1.25-1.82c-9.74-6.71-22.46-10.49-34.44-8.27A40.72,40.72,0,0,0,287.19,342.8Z"></path>
  <path fill="#313131" d="M291.59,368.07h0a16.18,16.18,0,0,1-11.71-4.42c-2.89-2.94-4.17-6.11-3.79-9.43.65-5.66,5.92-10.09,10.22-12.82a42.21,42.21,0,0,1,13.62-5.66,40.62,40.62,0,0,1,7.36-.67,50.73,50.73,0,0,1,28.32,9.2c.54.37,2.18,1.5,1.95,3.38a3.8,3.8,0,0,1-2.44,2.76l-26.95,12.67c-4.33,2-8.81,4.15-13.78,4.8A20.27,20.27,0,0,1,291.59,368.07Zm15.7-29.7a36.79,36.79,0,0,0-6.76.62,39,39,0,0,0-12.45,5.21c-5.22,3.3-8.31,7-8.7,10.4-.27,2.27.7,4.54,2.86,6.73s5.49,3.43,9.35,3.43h0a19,19,0,0,0,2.37-.15c4.46-.59,8.7-2.59,12.8-4.52l26.95-12.67.35-.18-.32-.25A47.45,47.45,0,0,0,307.29,338.37Z"></path>
  <path fill="#e296a7" d="M340.65,51S380.71-.86,401.4,32.86s-78.58,112.19-78.58,112.19S269.19,14.6,298,1.75,340.65,51,340.65,51Z"></path>
  <path fill="#333" d="M399.24,378.08s-20.38-10.17-29.46-24c0,0-40,1.85-43.75-8.36,0,0-33.47-13.23-33.62-45.35,0,0,2.7-7.58,15.12-11.21s20.35-6.44,20.35-6.44,3.19-49.62,24-63.78,73.74-27.36,73.74-27.36,14.33-67.73,25.57-70.32,15.58,33.11,22.38,47.94,61.4,78.15,39.67,123.26Z"></path>
  <path fill="#fff" d="M480.66,227.2c-16.86,21.06-54.69-1.86-63.57-5.76s-5.18-48.5-18.26-51.83-18.46,3-21.23-5.53,34.68-22.68,42.79-19.66S499.63,203.51,480.66,227.2Z"></path>
  <path fill="#333" d="M460.66,237.64c-14.74,0-31.14-8.2-40-12.61-1.81-.91-3.25-1.63-4.28-2.08-4.82-2.11-6.21-11.63-8-23.67-1.73-11.81-3.88-26.51-10-28.07a32.43,32.43,0,0,0-8.22-1c-1.39,0-2.67.08-3.79.15-1,0-1.86.11-2.7.11-3.47,0-6.11-1-7.69-5.84a5.72,5.72,0,0,1,1.19-5.25c5.59-7.72,29.44-17,40.19-17a10.22,10.22,0,0,1,3.56.52c7.49,2.79,56,40.91,63.55,68,1.93,7,1.06,12.82-2.57,17.35C477,234.47,469.79,237.64,460.66,237.64Zm-70.45-70.76a36.44,36.44,0,0,1,9,1.12c8.28,2.12,10.41,16.7,12.48,30.8,1.35,9.26,2.88,19.75,6,21.13,1.1.48,2.57,1.22,4.43,2.15,8.57,4.28,24.52,12.25,38.48,12.25,8.08,0,14.37-2.74,18.71-8.16,2.93-3.66,3.59-8.51,2-14.4-7.08-25.59-54.48-63.19-61.52-65.8a7.08,7.08,0,0,0-2.4-.31c-9.72,0-32.63,8.88-37.52,15.63a2.71,2.71,0,0,0-.72,2.28c1.05,3.21,2.25,3.56,4.55,3.56.74,0,1.55,0,2.5-.1C387.39,167,388.72,166.88,390.21,166.88Z"></path>
  <path fill="#fff" d="M343.37,254.12c3.67-6.43,8.07-12.62,14.08-17s13.83-6.6,21-4.62c8.15,2.25,14.07,9.64,16.82,17.64s2.82,16.63,2.82,25.08-.29,17.9-5.66,24.6c-7.48,9.34-21.83,9.66-33.19,5.86-8.74-2.93-17.26-8.25-21.13-16.61C332.92,278,337.28,264.77,343.37,254.12Z"></path>
  <path fill="#333" d="M372.8,309.65a45,45,0,0,1-14.11-2.37c-10.69-3.57-18.54-9.78-22.11-17.48-5.74-12.38-.26-26.69,5.35-36.5,2.91-5.1,7.58-12.45,14.55-17.48A28.71,28.71,0,0,1,373,230.16a22.25,22.25,0,0,1,5.85.78c8,2.21,14.68,9.2,17.94,18.7,2.91,8.47,2.91,17.59,2.91,25.62,0,9.55-.46,18.69-6,25.63C387.89,308.13,379.13,309.65,372.8,309.65Zm.21-76.18a25.41,25.41,0,0,0-14.6,5c-4.9,3.54-9.23,8.77-13.61,16.44-5.22,9.14-10.37,22.37-5.22,33.47,3.18,6.87,10.34,12.46,20.16,15.74a41.53,41.53,0,0,0,13.06,2.2c5.6,0,13.33-1.31,18.32-7.53s5.29-14.62,5.29-23.56c0-7.78,0-16.59-2.73-24.55-2.91-8.47-8.78-14.67-15.7-16.58A18.62,18.62,0,0,0,373,233.47Z"></path>
  <path fill="#fff" d="M373.34,277.31s-3.15-24-14.14-21.12S341.16,291.29,373.34,277.31Z"></path>
  <path fill="#333" d="M359.75,282.46h0c-6.43,0-10.55-3.36-11.31-9.21-1-7.63,4.23-17.05,10.34-18.66a9,9,0,0,1,2.22-.29c10.67,0,13.68,20.46,14,22.79a1.65,1.65,0,0,1-1,1.74C368.45,281.24,363.65,282.46,359.75,282.46ZM361,257.6a5.26,5.26,0,0,0-1.38.19c-4.54,1.19-8.67,9.06-7.9,15,.37,2.89,2.07,6.34,8,6.34h0c3.18,0,7.14-1,11.77-2.87C370.51,270.1,367.17,257.6,361,257.6Z"></path>
  <path fill="#fff" d="M326.58,346.22h-.79a1.65,1.65,0,0,1-1.62-1.68,1.68,1.68,0,0,1,1.69-1.62c10.42.23,22-4.71,22.7-16a1.65,1.65,0,1,1,3.3.21C351.13,338.45,340.78,346.22,326.58,346.22Z"></path>
  <path fill="#ce5044" d="M391.22,373.69,397.66,394s64.2.26,140-92.85l-18.08-28.85S487.05,330,391.22,373.69Z"></path>
  <path fill="#313131" d="M397.66,396h0a1.78,1.78,0,0,1-1.57-1.29l-6.44-20.41a1.7,1.7,0,0,1,.89-2c49.21-22.41,81.27-48.6,99.51-66.62,19.76-19.51,28-33.92,28.08-34.06a1.65,1.65,0,0,1,1.4-.85,1.61,1.61,0,0,1,1.43.77L539,300.31a1.67,1.67,0,0,1-.12,1.92c-39.16,48.13-75.22,71.08-98.56,81.74C414.69,395.69,398.35,396,397.66,396Zm-4.43-21.37,5.62,17.76c4.15-.23,18.7-1.73,40.13-11.52,22.87-10.45,58.15-32.76,96.62-79.77l-16-25.58c-3.11,4.87-11.5,16.92-27.09,32.34C474.21,325.89,442.2,352.07,393.23,374.59Z"></path>
  <path fill="#fff" d="M294.93,318.81a1.65,1.65,0,0,1-.89-3c15-9.63,13.31-27.79,13.29-28a1.65,1.65,0,0,1,3.28-.35c.09.83,2,20.35-14.79,31.1A1.7,1.7,0,0,1,294.93,318.81Z"></path>
  <circle cx="359.98" cy="266.36" r="9.29" fill="#333"></circle>
  <path fill="#f0c7c0" d="M663.82,520.51c-1.47-4.88,1.4-12.45-2.66-23.47s-12.36-12.14-14.72-21.85-10.5-13.22-16.52-12.41-22,35-22,35,6-18.72,12.91-42.77-6.3-32.06-18.08-16.09-36,49.64-44,71.82c-6.73,18.66-12.44,41.2-19.1,54L369.23,671.8l-135.64-146c-80.82,16.94-131.14,85.32-131.14,85.32s130.48,201.21,249.4,212.16c69.09,6.35,264-190,266.74-194,19.72-28,44.26-65.83,48.42-84.08S665.3,525.38,663.82,520.51Z"></path>
  <path fill="#313131" d="M355.26,825c-1.24,0-2.42,0-3.56-.16-27.42-2.52-57.68-15.33-89.94-38.06C236,768.69,209,744.25,181.34,714.16A874.51,874.51,0,0,1,101.07,612a1.66,1.66,0,0,1,.05-1.88c.13-.17,13-17.47,35.53-36.59,20.84-17.65,54.51-40.54,96.6-49.36a1.64,1.64,0,0,1,1.55.49l134.71,145L538.37,563.55c4.14-8.07,7.9-19.93,11.88-32.46,2.22-7,4.52-14.21,6.93-20.9,5.73-15.89,20.63-40.2,44.28-72.24,4.26-5.78,9-9,13.41-9a8.19,8.19,0,0,1,6.71,3.45c3.45,4.59,3.77,13,.87,23.05-2.6,9-5.08,17.34-7.16,24.2,8.71-15.89,12.27-18.26,14.41-18.54,6.88-.93,15.8,3.18,18.34,13.66,1.09,4.47,3.55,6.93,6.4,9.78s6.13,6.12,8.27,11.89c2.64,7.15,2.48,12.81,2.35,17.36a21.38,21.38,0,0,0,.34,6.2,12.61,12.61,0,0,0,1.45,2.82c2.27,3.65,5.08,8.19,1.77,22.72-4.57,20-32.46,61.64-48.68,84.66-1.39,2-48.82,50.17-106,98.81C439,792.73,385.61,825,355.26,825ZM104.48,611.14A878.19,878.19,0,0,0,183.8,712C226.92,758.88,291.1,815.59,352,821.2c1,.09,2.13-.24,3.24-.24h0c29.06,0,83-32.4,156-94.42,56-47.58,104.15-96.07,106-98.42,12.93-18.36,43.54-63.18,48.15-83.38,3-13.2.59-17.06-1.36-20.19a15.08,15.08,0,0,1-1.8-3.59,23.3,23.3,0,0,1-.49-7.23c.13-4.27.28-9.57-2.14-16.12-1.88-5.09-4.74-7.94-7.5-10.7-2.94-2.93-6-6-7.28-11.33-2-8.32-8.38-11.26-13.21-11.26a11.88,11.88,0,0,0-1.48.09c-3.17.43-13.21,18-20.69,34.08a1.65,1.65,0,0,1-3.07-1.2c.06-.19,6-19,12.89-42.72,2.57-8.93,2.45-16.46-.33-20.15a4.94,4.94,0,0,0-4.07-2.13c-3.26,0-7.18,2.78-10.76,7.62-23.45,31.79-38.2,55.81-43.82,71.4-2.39,6.63-4.68,13.82-6.89,20.78-4.09,12.88-8,25-12.31,33.38a1.62,1.62,0,0,1-.58.64L370.11,673.2a1.66,1.66,0,0,1-2.09-.27L233,527.56c-41,8.81-73.78,31.15-94.17,48.41A248.22,248.22,0,0,0,104.48,611.14Z"></path>
  <polygon fill="#333" points="297 173.52 251 180.81 238.14 143.56 288.82 155.4 297 173.52"></polygon>
  <path fill="#333" d="M91.06,210.77c1.08,21.59,6.77,82.89,62.09,80.4s60.24-108.72,60.24-108.72Z"></path>
  <path fill="#f0c7c0" d="M91.2,268.87c3.55-16.81,18.19-17.87,26.69-17l2.87,1.26a22.36,22.36,0,0,1,8.84,7c3,3.89,7.17,8.59,9,6.48,3-3.42.23-26.85-3-58.49s12.36-40,12.36-40l19.45-12,9-5.55,53.72-15,.21.1A73,73,0,0,1,263.56,169c8.4,17.21,10.56,38.32,15.17,56.78C282,238.89,286,252,286.85,265.46a66.74,66.74,0,0,1-.08,10.3c-1.64,19.15-11.66,36.25-29.7,45.34A69.6,69.6,0,0,1,239.94,327l4.82,17.06,2.65,9.39s56.33,15.1-2.3,33.84-87.29-34.41-87.29-34.41l-14-51.38C113,319.59,86.16,292.79,91.2,268.87Z"></path>
  <path fill="#313131" d="M220.77,392.93c-22.35,0-38.68-10.68-48.43-19.64a83.63,83.63,0,0,1-16-19.64,2.13,2.13,0,0,1-.14-.35L142.81,304a40.67,40.67,0,0,1-19.24,5.12,34.46,34.46,0,0,1-26.83-12.93c-6.45-8-9.13-18.28-7.16-27.63C92.1,256.59,100.67,250,113.71,250a40.65,40.65,0,0,1,4.36.24,1.43,1.43,0,0,1,.49.13l2.86,1.25a24.16,24.16,0,0,1,9.5,7.5c4.31,5.69,6.13,6.28,6.49,6.34,2.15-2.81-.1-24.89-2.48-48.27q-.45-4.34-.91-8.91c-3.2-31.76,12-40.9,13.17-41.57l28.42-17.53A1.66,1.66,0,0,1,176,149l53.72-15a1.66,1.66,0,0,1,1.16.1l.21.1a74.78,74.78,0,0,1,33.92,34.05c6,12.27,8.84,26.44,11.6,40.14,1.2,5.91,2.32,11.5,3.68,17,.58,2.31,1.18,4.63,1.78,6.95,2.77,10.7,5.63,21.76,6.39,33a70.15,70.15,0,0,1-.08,10.56c-1.78,20.76-12.94,37.77-30.6,46.67A71,71,0,0,1,242,328.23l6.74,23.87c5,1.43,24.44,7.65,24.68,17.5.16,6.92-8.94,13.22-27.82,19.26A81.92,81.92,0,0,1,220.77,392.93Zm-61.41-40.69c1.5,2.64,22,37.39,61.41,37.39a78.51,78.51,0,0,0,23.83-3.92c22.37-7.15,25.59-13.11,25.53-16C270,362.75,252.94,356.63,247,355a1.66,1.66,0,0,1-1.16-1.15l-7.47-26.45a1.65,1.65,0,0,1,1.25-2.06,68.49,68.49,0,0,0,16.73-5.76c16.62-8.37,27.12-24.41,28.79-44a66,66,0,0,0,.09-10.05c-.74-11-3.57-21.87-6.3-32.42-.6-2.33-1.2-4.66-1.78-7-1.38-5.54-2.57-11.42-3.71-17.1-2.73-13.5-5.54-27.46-11.34-39.36a71.43,71.43,0,0,0-32-32.34l-52.9,14.76-28.26,17.44-.08.05c-.14.07-14.53,8.38-11.5,38.34q.47,4.59.91,8.92c3.33,32.73,4.68,47.34,1.64,50.83a3.09,3.09,0,0,1-2.38,1.09c-1.45,0-4-.8-9.19-7.66a20.88,20.88,0,0,0-8.2-6.47l-2.62-1.15a37.34,37.34,0,0,0-3.76-.2c-8,0-18.12,2.76-20.89,15.89-1.77,8.39.65,17.68,6.48,24.87a31.19,31.19,0,0,0,24.27,11.7A38.37,38.37,0,0,0,143,300.07a1.67,1.67,0,0,1,1.46-.11,1.69,1.69,0,0,1,1,1.1Z"></path>
  <path fill="#333" d="M130.67,286.27a1.65,1.65,0,0,1-1.6-1.22c-2.73-10.13-11.12-14.7-17.85-14.7H111c-3.73,0-6.49,1.53-7,3.77a1.64,1.64,0,0,1-2,1.22,1.66,1.66,0,0,1-1.22-2c.93-3.82,4.84-6.23,10.21-6.3h.22c8,0,17.86,5.34,21,17.15a1.66,1.66,0,0,1-1.59,2.08Z"></path>
  <path fill="#333" d="M113.27,286.19a1.6,1.6,0,0,1-1-.36,1.65,1.65,0,0,1-.26-2.32l8.14-10.14a1.65,1.65,0,0,1,2.57,2.07l-8.13,10.14A1.67,1.67,0,0,1,113.27,286.19Z"></path>
  <path fill="#cc3b3b" d="M147.42,200,90.93,212.53s-18.42-82.89,55.73-102.66,101.81,1,115.75,35.52l-61.85,11.52Z"></path>
  <path fill="#333" d="M90.93,214.18a1.65,1.65,0,0,1-1.61-1.29,118.62,118.62,0,0,1,.05-44.6c4.35-21.62,17.74-49.58,56.86-60,19.23-5.13,36.24-7.73,50.55-7.73,18.32,0,32.76,4.07,44.15,12.44,9.73,7.14,17.25,17.54,23,31.79a1.7,1.7,0,0,1-.08,1.41,1.67,1.67,0,0,1-1.15.83l-61.44,11.44-52.81,42.86a1.72,1.72,0,0,1-.68.33L91.29,214.14A1.47,1.47,0,0,1,90.93,214.18ZM196.78,103.86c-14,0-30.74,2.56-49.7,7.61-30.09,8-48.42,27.36-54.47,57.47a118.34,118.34,0,0,0-.37,41.61l54.44-12,52.84-42.88a1.64,1.64,0,0,1,.73-.34l59.85-11.15C248.24,116.3,228.63,103.86,196.78,103.86Z"></path>
  <path fill="#cc3b3b" d="M147.42,200l39.72-8.21s11.42-35.52,54.37-41.45S297,173.52,297,173.52s5.81-1.94-2.06-14.78-34.08-16.86-49.25-17.11-76.54,18.29-76.54,18.29S138.81,174.56,147.42,200Z"></path>
  <path fill="#333" d="M147.42,201.69a1.65,1.65,0,0,1-1.57-1.12c-9-26.55,22.26-42,22.58-42.14l.24-.09c2.48-.75,61-18.36,76.72-18.36h.33c14.88.24,42.28,4.28,50.63,17.9,3.8,6.2,5.13,11,3.95,14.22a4.83,4.83,0,0,1-2.78,3,1.66,1.66,0,0,1-2-.92c-.41-.93-10.36-22.93-42.81-22.93a80.19,80.19,0,0,0-10.93.78c-41.36,5.71-52.91,40-53,40.31a1.63,1.63,0,0,1-1.23,1.11l-39.73,8.21A1.24,1.24,0,0,1,147.42,201.69Zm22.33-40.23c-2.21,1.1-27.58,14.24-21.2,36.66l37.35-7.72A63.83,63.83,0,0,1,197,172.25c7.69-9,21.62-20.37,44.32-23.5a83.59,83.59,0,0,1,11.38-.81c28.41,0,41,16.54,44.63,22.67.33-1.41.16-4.59-3.76-11-7.6-12.39-33.67-16.09-47.88-16.31h-.27C230.49,143.28,172.88,160.52,169.75,161.46Z"></path>
  <path fill="#333" d="M133.73 204.69a1.66 1.66 0 0 1-1.63-1.36c-7.41-40.67 1.22-65.18 9.76-78.59 9.35-14.68 20.41-19.55 20.88-19.75a1.65 1.65 0 0 1 1.3 3c-.12 0-10.74 4.78-19.52 18.69-8 12.71-16.12 35.88-9.46 74.35l50.86-10.67a67.66 67.66 0 0 1 13.23-20.17c9.06-9.68 25.34-21.46 51.45-22.56a1.65 1.65 0 0 1 .14 3.3c-47.8 2-61.9 41-62 41.4a1.64 1.64 0 0 1-1.22 1.07l-53.41 11.21A1.32 1.32 0 0 1 133.73 204.69ZM239.53 226a1.6 1.6 0 0 1-.93-.29 1.64 1.64 0 0 1-.44-2.29c4.8-7.08 10.26-11 16.24-11.69 8-.9 13.86 4.45 14.11 4.68a1.65 1.65 0 0 1-2.25 2.42c-.07-.06-5-4.56-11.52-3.81-5 .57-9.62 4-13.85 10.25A1.63 1.63 0 0 1 239.53 226ZM172.72 237.38a1.63 1.63 0 0 1-.92-.28 1.66 1.66 0 0 1-.45-2.3c4.8-7.08 10.27-11 16.25-11.69 8-.9 13.86 4.45 14.11 4.68a1.66 1.66 0 0 1-2.26 2.42c-.06-.06-5-4.56-11.51-3.81-5 .57-9.63 4-13.85 10.26A1.65 1.65 0 0 1 172.72 237.38ZM237 249.36a1.73 1.73 0 0 1-.38-.05c-12.39-2.88-13.33-19.42-13.37-20.12a1.66 1.66 0 0 1 1.57-1.73 1.64 1.64 0 0 1 1.73 1.57c0 .22.89 14.76 10.82 17.06a1.66 1.66 0 0 1-.37 3.27ZM185.17 202.49c-3.24.56-10 4.3-8 8.61.84 1.84 3.22 2.32 5.24 2.27a15.54 15.54 0 0 0 9.76-3.39 6.82 6.82 0 0 0 2.45-3.87c.93-5.48-5.82-5-9-3.7M245.09 193.55c3.24-.55 10.87.73 10.44 5.45-.18 2-2.27 3.26-4.19 3.88a15.49 15.49 0 0 1-10.32.05 6.87 6.87 0 0 1-3.61-2.84c-2.69-4.86 3.83-6.64 7.28-6.49"></path>
  <path fill="#fff" d="M207.07,260.87c5.78-1.86,13.19.69,18.75,1.4a35.05,35.05,0,0,0,11.91-.51c2.74-.59,5.67-1.5,8.25-.41,5.47,2.31,4.72,10.22,2.28,14.48A18.67,18.67,0,0,1,238,283.88a32.33,32.33,0,0,1-26-2.79c-5.2-2.95-15.68-10.35-9.65-17.17A10.33,10.33,0,0,1,207.07,260.87Z"></path>
  <path fill="#333" d="M228.39 287.09a35 35 0 0 1-17.19-4.56c-3.34-1.89-11.2-6.93-12.2-12.94a7.91 7.91 0 0 1 2.13-6.77 12.11 12.11 0 0 1 5.43-3.53 17 17 0 0 1 5.24-.74 50.34 50.34 0 0 1 9.6 1.27c1.65.32 3.21.63 4.63.82a33.81 33.81 0 0 0 11.35-.49l1-.23a21.86 21.86 0 0 1 4.86-.73 8.56 8.56 0 0 1 3.38.64 8 8 0 0 1 4.54 5c1.36 4 .24 8.82-1.47 11.82a20.17 20.17 0 0 1-11.2 8.79A31.19 31.19 0 0 1 228.39 287.09ZM211.8 261.86a13.82 13.82 0 0 0-4.23.58 8.7 8.7 0 0 0-4 2.57 4.7 4.7 0 0 0-1.34 4c.79 4.73 8.29 9.31 10.56 10.6a32.08 32.08 0 0 0 15.57 4.13 27.9 27.9 0 0 0 9-1.46 16.94 16.94 0 0 0 9.4-7.31c1.34-2.35 2.19-6.24 1.21-9.12a4.77 4.77 0 0 0-2.7-3 5.23 5.23 0 0 0-2.09-.38 19.34 19.34 0 0 0-4.12.65l-1 .24a37.06 37.06 0 0 1-12.47.53c-1.53-.19-3.14-.51-4.85-.85A47.76 47.76 0 0 0 211.8 261.86ZM240.59 324.57c-9.05 1.87-38.92.85-51.66-3.76 0 0 7.19 28.8 58.09 28.17Z"></path>
  <path fill="#313131" d="M246.11,540.57a1.65,1.65,0,0,1-.69-3.16c.42-.19,9.77-4.63,8-14.16-1.56-8.57-16.75-24.37-30.15-38.31-2.94-3.06-5.72-5.95-8.34-8.74-14.9-15.9-30-39.92-30.12-40.16a1.65,1.65,0,0,1,2.8-1.75c.15.24,15,24,29.73,39.65,2.6,2.78,5.38,5.66,8.31,8.71,14.4,15,29.28,30.46,31,40s-5.72,15.85-9.92,17.76A1.67,1.67,0,0,1,246.11,540.57Z"></path>
  <path fill="#a5a653" d="M226.21,748.75c2.86-2,6.48-2.37,9.93-2.66a296,296,0,0,1,33.16-.94c8.68.25,17.42.87,26-.44s17.17-4.81,22.77-11.45c8-9.52,8.18-24.31,1.73-35S301.32,681,289,679.48s-25,1.47-36.29,6.71a97,97,0,0,0-42.22,38c-10.82-8.8-8.94-26.45-1.31-38.12s19.44-20,27.91-31.08c7.78-10.16,12.63-23,11.35-35.74S239,594.17,227,589.75c-15.9-5.85-34.29,3.4-43.83,17.4s-12,31.54-13.1,48.45a362.89,362.89,0,0,0,5,86.94,63.66,63.66,0,0,0-40.51-43.06,64.55,64.55,0,0,0-58.41,9.57C71,713,66.28,717.86,64,723.94c-4.23,11.14.75,24.35,9.81,32.09s21.38,10.73,33.3,11,23.73-1.95,35.56-3.41c5.26-.64,10.71-1.12,15.76.49,11.58,3.7,17.17,17,18.18,29.18s-1,24.56,2,36.35l32.33-.26c-1.07-25.09-1.85-51.55,9.9-73.75C222.16,753,223.78,750.41,226.21,748.75Z"></path>
  <path fill="#313131" d="M178.55,831a1.51,1.51,0,0,1-1.6-1.08c-1.93-7.56-1.84-15.34-1.75-22.93.05-4.49.1-9.09-.27-13.58-.92-11.07-5.88-24.15-17-27.72a23.82,23.82,0,0,0-7.3-1,64,64,0,0,0-7.75.6c-2.75.34-5.56.73-8.28,1.1-9,1.24-18.26,2.52-27.52,2.32-9.83-.21-23.76-2.36-34.33-11.39-10.3-8.79-14.53-22.75-10.28-33.93,2.12-5.58,6.41-10.83,12.75-15.62a66.12,66.12,0,0,1,39.66-13.07,63.34,63.34,0,0,1,20.27,3.26,65,65,0,0,1,36,30.38,364.68,364.68,0,0,1-2.74-72.8c1-16.14,3.39-34.61,13.39-49.28,8.23-12.09,22-19.91,35-19.91a31,31,0,0,1,10.74,1.89c12,4.43,21.07,16.84,22.48,30.87,1.24,12.35-2.91,25.46-11.67,36.92a138.31,138.31,0,0,1-12.85,13.92c-5.35,5.28-10.88,10.74-15,17.05-7,10.72-8.84,26.17-.44,34.66A99.06,99.06,0,0,1,252,684.69c10.42-4.83,20.63-7.27,30.36-7.27a55.06,55.06,0,0,1,6.83.42c13.7,1.73,25.69,9,32.06,19.59,7.07,11.71,6.28,27.22-1.89,36.9-6.7,7.94-16.63,10.92-23.78,12a80.88,80.88,0,0,1-12.5.83c-3.19,0-6.43-.11-9.56-.22l-4.25-.14a292.53,292.53,0,0,0-33,.93c-3.4.28-6.66.68-9.14,2.37-2.17,1.49-3.64,3.9-4.9,6.28-11.87,22.41-10.67,50.41-9.71,72.91a1.67,1.67,0,0,1-.45,1.21,1.55,1.55,0,0,1-1.19.36l-32.33.09Zm-28-69.6a26.91,26.91,0,0,1,8.31,1.17c12.71,4.06,18.32,18.47,19.32,30.61.39,4.64.33,9.36.28,13.93-.09,7.27-.17,14.16,1.35,20.89l29.31-.22c-1-22.6-1.82-50.27,10.16-72.9,1.39-2.62,3.19-5.56,6-7.45,3.13-2.15,6.86-2.62,10.72-2.95a299.3,299.3,0,0,1,33.35-.94l4.27.14c3.1.11,6.31.23,9.44.23a78.21,78.21,0,0,0,12-.79c6.59-1,15.71-3.72,21.76-10.88,7.28-8.63,7.94-22.53,1.58-33.06-5.85-9.68-16.93-16.42-29.65-18a50.15,50.15,0,0,0-6.41-.4c-9.24,0-19,2.34-29,7A95.76,95.76,0,0,0,211.86,725a1.61,1.61,0,0,1-1.13.78,1.64,1.64,0,0,1-1.33-.34c-11.43-9.3-9.81-27.8-1.64-40.31,4.31-6.6,10-12.19,15.44-17.6A134.2,134.2,0,0,0,235.74,654c8.14-10.63,12.15-23.24,11-34.58-1.28-12.8-9.45-24.1-20.33-28.1a27.59,27.59,0,0,0-9.6-1.68c-12,0-24.65,7.24-32.29,18.46-9.55,14-11.84,31.94-12.82,47.62a360.68,360.68,0,0,0,5,86.55,1.66,1.66,0,0,1-3.23.71c-5.11-19.12-20.59-35.57-39.44-41.91A60.16,60.16,0,0,0,114.84,698a62.82,62.82,0,0,0-37.67,12.41c-5.84,4.4-9.76,9.17-11.65,14.16-3.7,9.74.22,22.46,9.34,30.24,9.82,8.4,23,10.4,32.25,10.6,9,.21,18.15-1.07,27-2.29,2.73-.37,5.55-.76,8.33-1.11A69.72,69.72,0,0,1,150.59,761.36Z"></path>
  <path fill="#333" d="M218.41 738.93a1.62 1.62 0 0 1-1-.37 1.64 1.64 0 0 1-.24-2.32c16.57-20.42 38.54-27.53 54.05-29.89a99.68 99.68 0 0 1 30-.23 1.65 1.65 0 0 1-.58 3.25c-.51-.09-50.44-8.55-80.89 29A1.64 1.64 0 0 1 218.41 738.93ZM189.26 678.72h-.17a1.66 1.66 0 0 1-1.47-1.81c2.87-28.2 21.27-62.46 22-63.9a1.65 1.65 0 0 1 2.91 1.57c-.19.34-18.87 35.13-21.68 62.66A1.65 1.65 0 0 1 189.26 678.72ZM162.22 742.57a1.64 1.64 0 0 1-1-.31c-39.55-28.4-77.94-11.52-78.32-11.34a1.65 1.65 0 1 1-1.37-3c.41-.19 10.24-4.6 25.26-5.39 13.85-.74 34.87 1.62 56.36 17.06a1.65 1.65 0 0 1-1 3Z"></path>
  <line x1="320.4" x2="332.51" y1="386.2" y2="393.91" fill="#f0c7c0"></line>
  <path fill="#313131" d="M332.51,395.56a1.73,1.73,0,0,1-.89-.26l-12.11-7.71a1.65,1.65,0,0,1,1.77-2.79l12.12,7.71a1.65,1.65,0,0,1,.5,2.28A1.62,1.62,0,0,1,332.51,395.56Z"></path>
  <line x1="321.36" x2="335.82" y1="371.26" y2="379.52" fill="#f0c7c0"></line>
  <path fill="#313131" d="M335.81,381.17A1.59,1.59,0,0,1,335,381l-14.46-8.26a1.65,1.65,0,0,1,1.64-2.86l14.45,8.26a1.64,1.64,0,0,1,.62,2.25A1.66,1.66,0,0,1,335.81,381.17Z"></path>
  <path fill="#fff" d="M295.14 438.37a1.65 1.65 0 0 1-1.53-1C291 431 281.13 426.5 281 426.45a1.65 1.65 0 0 1 1.36-3c.46.21 11.17 5.11 14.27 12.65a1.64 1.64 0 0 1-1.52 2.28ZM303.4 422.88a1.66 1.66 0 0 1-1.43-.81c-3.75-6.38-12.56-8.93-12.65-8.95a1.65 1.65 0 0 1 .9-3.18c.41.11 10.18 2.95 14.6 10.45a1.65 1.65 0 0 1-1.42 2.49ZM407.4 547.92c-.62 0-1.24 0-1.87 0a1.48 1.48 0 1 1 0-2.94h0c34.7 0 50.43-20 50.59-20.25a1.67 1.67 0 0 1 2.31-.43 1.6 1.6 0 0 1 .34 2.26C458.18 527.43 442.49 547.92 407.4 547.92ZM524.25 422.39a10.64 10.64 0 0 1 1.13 4.66c.6 9.53-2.5 20.14 2.9 28 3.52 5.13 10 7.62 16.24 7.71s12.28-1.9 18.09-4.13c9.65-3.71 19.44-8.52 25.41-17 9-12.7 6-32.32-6.34-41.78-3.58-2.74-7.76-4.68-11.14-7.67-11.12-9.85-10.25-27.23-16.06-40.91a8.77 8.77 0 0 0-2.57-3.76 9.66 9.66 0 0 0-5.07-1.34c-10-.72-20.43-1.38-29.67 2.51-9 3.77-15.82 11.5-20.48 20-5.23 9.58-8 21.53-3.19 31.32 4.39 9 14 14 23.35 17.5C519.66 418.64 522.75 419.79 524.25 422.39Z"></path>
</svg>
