<svg xmlns="http://www.w3.org/2000/svg" viewBox="0 0 884.61 703.35" id="boy-and-girl-caring-pet">
  <path fill="#fdf2e0" d="M434,146.14c16.62,16.67,40.72,23.86,64.2,25.58,64.7,4.73,128.91-27.2,193-17.21,70.37,11,127.5,78.18,127,149.4-.12,15.43-2.6,31,.34,46.17,6.28,32.26,35.15,54.86,49.81,84.28,12.54,25.16,14.15,54.17,15.52,82.26,1.06,21.77,2.07,44-4.26,64.91C874,599.85,863,616.16,849.75,630c-37.93,39.49-93.06,58.36-147.47,64.53s-109.36,1-164.1-.34c-89-2.17-178,5.85-267.1,6.44-57.28.38-119-3.9-163.52-39.94C100.56,655,94,648.57,86,644.45c-15.92-8.18-36.83-6.86-49.34-19.66-14.82-15.16-8.65-41.23,4.18-58.11s31-29.51,41.61-47.88C95.87,495.51,94.9,467,94,440.14c-3.28-98.1,3-205.67,68.57-278.67,13.77-15.33,30.14-29.1,38.64-47.87,6.41-14.14,7.81-30,13.42-44.51,12.94-33.42,46.72-54.76,81.26-64.29,20.62-5.7,43.62-7.78,62.62,2C406.54,31.65,395.8,107.85,434,146.14Z"></path>
  <path fill="#a5a653" d="M117.7,349.56a54,54,0,0,1,22-7.72c4.51-.54,9.72-.84,12.41-4.5a10.44,10.44,0,0,0,1.51-7.45c-1.46-11.81-15.31-19.41-26.89-16.68s-20.07,13.39-23.15,24.88c-1.3,4.83-1.82,9.92-3.89,14.47-2.77,6.07-7.85,10.37-13.69,13.76.8-64.39,2.27-118.55,4.81-123.35a10.05,10.05,0,0,1,2.95-3.74,11.16,11.16,0,0,1,5.41-1.45,159.89,159.89,0,0,1,18-.51c4.72.14,9.48.48,14.15-.24s9.35-2.62,12.4-6.23c4.37-5.18,4.45-13.23.94-19s-10.06-9.38-16.79-10.23-13.6.8-19.75,3.65a52.89,52.89,0,0,0-23,20.68c-5.88-4.79-4.86-14.4-.71-20.75S95,194.23,99.62,188.2c4.23-5.54,6.87-12.53,6.17-19.46s-5.11-13.64-11.65-16.05c-8.65-3.18-18.67,1.85-23.86,9.47s-6.55,17.17-7.13,26.37a197.46,197.46,0,0,0,2.74,47.32,34.63,34.63,0,0,0-22-23.43,35.13,35.13,0,0,0-31.79,5.2,19.1,19.1,0,0,0-6.64,8.11c-2.3,6.06.41,13.25,5.34,17.46s11.64,5.84,18.12,6,12.92-1.06,19.36-1.85c2.86-.35,5.83-.61,8.57.26,6.31,2,9.35,9.29,9.9,15.88.25,3,.15,70.19.13,143.17a61.65,61.65,0,0,0-7.26-2.77C43.72,395.52,47.06,382.17,32,387.18s-5.84,40,27.53,33.37a68.94,68.94,0,0,0,7.26-1.81c0,84,.09,171.4.94,174.74l17.6-.14c-.21-5-.41-51.55-.25-109.2l1.06.22C119.55,491,128.73,456,113.71,451S102,459.34,86.18,467.68c0,0-.38.11-1,.32.11-28.91.31-59.79.63-89.12,5.06-4.64,11.34-8.1,18.14-8.86,7.22-.8,15,1.75,19.53,7.42,2.13,2.65,3.5,5.87,5.82,8.35a13.77,13.77,0,0,0,13.21,4,12.23,12.23,0,0,0,9-10.21c.72-6.91-5-12.9-11.1-16.19a40.89,40.89,0,0,0-28-3.82C110.48,355.85,114.16,351.76,117.7,349.56Z"></path>
  <path fill="#313131" d="M67.77,594.86a1.55,1.55,0,0,1-1.6-1.11c-.72-2.84-1-52.92-1-172.88-1.59.43-3.36.88-5.28,1.26a43.28,43.28,0,0,1-8.44.89c-16.71,0-26.12-11.09-27.79-21.4-1.25-7.72,1.83-14,7.85-16a19.87,19.87,0,0,1,6.19-1.18c5.3,0,7.78,3.29,10.65,7.1C51,395.05,54,399,60.21,402.33c.57.18,2.58.82,5,1.79l0-38.61c0-53.42,0-99.56-.15-101.91-.48-5.78-3-12.61-8.75-14.44a12.07,12.07,0,0,0-3.74-.52,35.37,35.37,0,0,0-4.13.32c-1.5.18-3,.39-4.5.6a95.42,95.42,0,0,1-15.09,1.26c-5.47-.11-13.24-1.32-19.16-6.37s-8.23-12.93-5.81-19.31a20.56,20.56,0,0,1,7.19-8.84,36.78,36.78,0,0,1,22-7.26,35.38,35.38,0,0,1,11.27,1.81A36.12,36.12,0,0,1,62.55,224.7a198.9,198.9,0,0,1-1-36.27c.56-8.88,1.88-19.06,7.42-27.2,4.62-6.78,12.34-11.16,19.68-11.16a17.65,17.65,0,0,1,6.11,1.07c6.82,2.51,11.93,9.52,12.72,17.44.7,6.91-1.61,14.23-6.5,20.62a74.66,74.66,0,0,1-7.06,7.65A56.92,56.92,0,0,0,85.81,206c-3.45,5.29-4.53,12.75-1,17.21a54.78,54.78,0,0,1,22.58-19.54,40.21,40.21,0,0,1,16.84-4,29.86,29.86,0,0,1,3.81.24c7.69,1,14.42,5.09,18,11,4,6.64,3.55,15.45-1.09,21-3.8,4.5-9.39,6.18-13.41,6.79a44.23,44.23,0,0,1-6.91.46c-1.75,0-3.52-.06-5.23-.12l-2.31-.08a161.28,161.28,0,0,0-17.86.51,9.88,9.88,0,0,0-4.62,1.16,8.65,8.65,0,0,0-2.42,3.15c-1.17,2.21-3.31,20.74-4.58,119.59,5.08-3.37,8.52-7.14,10.49-11.45a43.85,43.85,0,0,0,2.66-9.27c.35-1.62.7-3.3,1.14-4.95,3.53-13.17,13.1-23.4,24.37-26.06a23.43,23.43,0,0,1,5.26-.6c10.48,0,22.2,7,23.65,18.69.3,2.4.22,5.85-1.82,8.63-2.89,3.94-8,4.52-12.44,5l-1.1.13A52.41,52.41,0,0,0,118.57,351c-2,1.24-5.23,4-5.06,6.68a42.65,42.65,0,0,1,27.66,4.3c6.32,3.39,12.79,9.85,12,17.81a13.83,13.83,0,0,1-13.75,12.09,15.74,15.74,0,0,1-11.3-4.92,29.59,29.59,0,0,1-3.51-4.9,37.92,37.92,0,0,0-2.4-3.55c-3.48-4.34-9.31-6.94-15.61-6.94a22,22,0,0,0-2.44.14c-7.19.8-13,4.66-16.69,7.95-.28,26-.49,54.87-.61,85.81,5.33-3.14,8.1-6.81,10.56-10.08,2.87-3.81,5.35-7.1,10.65-7.1a19.81,19.81,0,0,1,6.19,1.18c6,2,9.11,8.29,7.85,16-1.67,10.31-11.08,21.41-27.79,21.41a43.06,43.06,0,0,1-7.52-.7c-.15,57.45,0,102.4.25,107.11a1.66,1.66,0,0,1-.45,1.21,1.56,1.56,0,0,1-1.19.37H67.77Zm-.94-177.78a1.66,1.66,0,0,1,1.65,1.66c0,44.37,0,159,.78,173.07l14.41-.11c-.19-9.85-.35-52.54-.2-107.56a1.63,1.63,0,0,1,.61-1.28,1.64,1.64,0,0,1,1.38-.33l1.05.21a39.57,39.57,0,0,0,7.78.81c14.78,0,23.08-9.66,24.53-18.63,1-6-1.23-10.89-5.63-12.36a16.62,16.62,0,0,0-5.15-1c-3.5,0-5.07,1.88-8,5.79C97.29,461,93.88,465.5,87,469.14a1.48,1.48,0,0,1-.29.12s-.38.11-1,.31A1.65,1.65,0,0,1,83.52,468c.12-32.22.33-62.21.63-89.14a1.65,1.65,0,0,1,.53-1.2c4.06-3.71,10.66-8.34,19.08-9.28a26.31,26.31,0,0,1,2.81-.15c7.29,0,14.09,3,18.19,8.18a37.74,37.74,0,0,1,2.63,3.87,27.22,27.22,0,0,0,3.11,4.38,12.37,12.37,0,0,0,8.89,3.87,11,11,0,0,0,2.7-.33,10.61,10.61,0,0,0,7.76-8.79c.66-6.34-5.11-11.81-10.24-14.56a39.16,39.16,0,0,0-18.47-4.6,38.19,38.19,0,0,0-8.42.93,1.65,1.65,0,0,1-1.83-.87c-2.25-4.45,1.36-9.31,5.94-12.16a55.78,55.78,0,0,1,22.62-7.95l1.12-.13c4-.45,8.12-.93,10.16-3.71,1.4-1.9,1.42-4.46,1.2-6.26-1.21-9.76-11.52-15.79-20.37-15.79a19.58,19.58,0,0,0-4.5.51c-10.1,2.38-18.71,11.68-21.94,23.7-.41,1.56-.76,3.19-1.09,4.78a47.37,47.37,0,0,1-2.89,9.95c-2.58,5.64-7.27,10.38-14.36,14.5a1.66,1.66,0,0,1-2.49-1.45c1.47-117.43,4.13-122.45,5-124.1a11.52,11.52,0,0,1,3.48-4.33,12.54,12.54,0,0,1,6.2-1.73,163.17,163.17,0,0,1,18.23-.52l2.34.08c1.68.06,3.41.12,5.11.12a41.55,41.55,0,0,0,6.41-.42c3.46-.53,8.24-1.94,11.38-5.67,3.76-4.45,4.1-11.65.79-17.11-3.06-5.08-8.89-8.61-15.58-9.45-5.85-.74-12.27.46-18.85,3.51a51.29,51.29,0,0,0-22.26,20,1.61,1.61,0,0,1-1.13.78,1.67,1.67,0,0,1-1.33-.34c-6.55-5.33-5.68-15.85-1-22.93a60.07,60.07,0,0,1,8.51-9.71,71.72,71.72,0,0,0,6.75-7.31c4.32-5.63,6.45-12.3,5.85-18.28-.67-6.69-4.93-12.58-10.58-14.67a14.52,14.52,0,0,0-5-.87c-6.27,0-12.93,3.82-16.95,9.72-5.09,7.48-6.32,17.11-6.85,25.55a195.71,195.71,0,0,0,2.72,46.92,1.66,1.66,0,0,1-3.23.72,33.16,33.16,0,0,0-21-22.3,32,32,0,0,0-10.22-1.64,33.41,33.41,0,0,0-20,6.6A17.37,17.37,0,0,0,7,226.31c-1.91,5,.14,11.59,4.87,15.63,5.17,4.42,12.14,5.47,17.08,5.58a92.43,92.43,0,0,0,14.57-1.24c1.52-.2,3-.41,4.55-.6a36.82,36.82,0,0,1,4.53-.34,15.53,15.53,0,0,1,4.75.67c7.27,2.32,10.47,10.47,11,17.32.2,2.49.18,44.3.15,102.18l0,41.12a1.65,1.65,0,0,1-2.34,1.5,65.78,65.78,0,0,0-7-2.69,1.88,1.88,0,0,1-.3-.12c-6.92-3.64-10.33-8.16-13.07-11.8-2.95-3.9-4.52-5.78-8-5.78a16.51,16.51,0,0,0-5.14,1c-4.41,1.46-6.62,6.31-5.64,12.35,1.46,9,9.76,18.64,24.53,18.64a40.52,40.52,0,0,0,7.79-.81,67.46,67.46,0,0,0,7.08-1.77A1.69,1.69,0,0,1,66.83,417.08Z"></path>
  <path fill="#333" d="M89.47 234.64a1.62 1.62 0 0 1-1-.37 1.64 1.64 0 0 1-.24-2.32c17.53-21.6 45.28-16.87 46.45-16.66a1.65 1.65 0 0 1-.58 3.25c-.27 0-27-4.56-43.31 15.49A1.65 1.65 0 0 1 89.47 234.64ZM73.6 201.87h-.16A1.66 1.66 0 0 1 72 200.05c1.58-15.5 11.66-34.27 12.09-35.06a1.65 1.65 0 1 1 2.9 1.57c-.1.19-10.19 19-11.7 33.82A1.67 1.67 0 0 1 73.6 201.87ZM58.89 236.62a1.67 1.67 0 0 1-1-.31c-21.2-15.23-41.67-6.19-41.87-6.1a1.65 1.65 0 1 1-1.37-3c.9-.41 22.42-9.91 45.17 6.43a1.65 1.65 0 0 1-1 3Z"></path>
  <path fill="#ffb3b3" d="M475.45,555.36s-4.46-13.66,2.06-16.87,9-.24,9.66,1.93,1.81,9.81,1.81,9.81"></path>
  <path fill="#333" d="M475.45,557a1.66,1.66,0,0,1-1.57-1.14c-.2-.61-4.81-15.07,2.9-18.86,3.38-1.66,6.23-2,8.48-1.06a6.33,6.33,0,0,1,3.49,4c.7,2.24,1.74,9.28,1.86,10.07a1.65,1.65,0,1,1-3.27.48c-.3-2.09-1.22-7.88-1.75-9.56A3,3,0,0,0,484,539c-1.31-.56-3.28-.22-5.72,1-4.28,2.11-2.33,11.45-1.22,14.88a1.64,1.64,0,0,1-1.06,2.08A1.81,1.81,0,0,1,475.45,557Z"></path>
  <path fill="#ffb3b3" d="M487.52,539.3s4.55-3.14,7.16,15"></path>
  <path fill="#333" d="M494.67,555.91a1.65,1.65,0,0,1-1.63-1.42c-1.51-10.51-3.57-13-4.38-13.58a.68.68,0,0,0-.34-.16,1.65,1.65,0,0,1-1.74-2.8,3.33,3.33,0,0,1,3.19-.19c3,1.31,5.16,6.63,6.54,16.26a1.65,1.65,0,0,1-1.4,1.87A1,1,0,0,1,494.67,555.91Z"></path>
  <path fill="#ffb3b3" d="M491.58,541s3.79-1.25,6.19,4.15a61.5,61.5,0,0,1,3.4,9.72"></path>
  <path fill="#333" d="M501.17,556.53a1.65,1.65,0,0,1-1.61-1.27,60.4,60.4,0,0,0-3.3-9.43c-1.78-4-4.14-3.26-4.17-3.25a1.65,1.65,0,0,1-1-3.14c1.81-.59,5.84-.3,8.22,5.06a61.77,61.77,0,0,1,3.5,10,1.68,1.68,0,0,1-1.61,2Z"></path>
  <polygon fill="#f8bb24" points="516.88 453 511.44 475.69 489.73 479.87 511.17 485.71 517.43 507.99 523.7 485.16 543.46 481.26 522.58 476.11 516.88 453"></polygon>
  <path fill="#fff" d="M760.66,389.47h0Z"></path>
  <path fill="#333" d="M760.66,390.86c-.07,0-.14.13-.21.12s0,.06,0,.06h0l0,0a1.64,1.64,0,0,1-1.4-1.84,1.66,1.66,0,0,1,1.82-1.42,1.53,1.53,0,1,1-.12,3.05Z"></path>
  <path fill="#fff" d="M726.51,390.32c38.53-.12,34.63-.78,34.15-.85,28.23,3.58,37.86,5.64,53.06,23.84s31,42.87,31,42.87l-30,27.28-1,51.93c-4.69.11-9.43,0-14.29,1.06-9.47,2-18.48,1.91-27.92,2.22-24.46,1-48.92,1.52-73.34-.94-16.15-1.51-31.8-4.12-47.55-7l7.23-105.92S686,390.44,726.51,390.32Z"></path>
  <path fill="#333" d="M737,541.14a388.14,388.14,0,0,1-39-1.77c-16.48-1.54-32.65-4.27-47.67-7a1.65,1.65,0,0,1-1.36-1.73l7.23-105.93a1.62,1.62,0,0,1,.37-.93c.28-.35,29.07-35,69.92-35.12,24.12-.07,31.16-.36,33.21-.53a1.61,1.61,0,0,1,1.16-.3c28,3.55,38.51,5.73,54.12,24.42,15.1,18.08,31,42.79,31.1,43a1.64,1.64,0,0,1-.28,2.11l-29.42,26.8-1,51.22a1.66,1.66,0,0,1-1.61,1.62l-2.21,0a60.72,60.72,0,0,0-11.78,1c-8.08,1.72-15.64,1.92-23.65,2.12l-4.55.13C761.37,540.73,749.26,541.14,737,541.14Zm-84.61-11.75c14.54,2.62,30.12,5.21,46,6.69A384.78,384.78,0,0,0,737,537.84c12.22,0,24.28-.42,34.47-.82l4.59-.13c7.85-.2,15.26-.39,23-2a63.59,63.59,0,0,1,12.41-1.06h.61l1-50.34a1.66,1.66,0,0,1,.54-1.19l28.91-26.34c-3.31-5.1-17-25.85-30.1-41.53-14.7-17.61-24.12-19.71-51.11-23.15a36.34,36.34,0,0,1-6,.42c-5.74.18-15.43.29-28.81.33-37,.11-63.78,29.74-67,33.51Z"></path>
  <path fill="#cc3b3b" d="M771.52,538.67c9.44-.31,18.45-.19,27.92-2.22,4.86-1,9.6-1,14.29-1.06l-7.84,73.81-162.3,17.34,7-95.79c15.75,2.86,31.4,5.47,47.55,7C722.6,540.19,747.06,539.64,771.52,538.67Z"></path>
  <path fill="#333" d="M643.59,628.19a1.64,1.64,0,0,1-1.15-.46,1.68,1.68,0,0,1-.5-1.31l7-95.79a1.66,1.66,0,0,1,1.95-1.51c15,2.71,31,5.43,47.4,7A384.78,384.78,0,0,0,737,537.84c12.21,0,24.28-.42,34.47-.82l4.59-.13c7.85-.2,15.26-.39,23-2a63.59,63.59,0,0,1,12.41-1.06l2.19,0a1.62,1.62,0,0,1,1.25.53,1.66,1.66,0,0,1,.43,1.29l-7.84,73.81a1.65,1.65,0,0,1-1.47,1.47L643.77,628.18Zm8.55-95.49-6.76,92,159-17,7.5-70.62h-.33a60.72,60.72,0,0,0-11.78,1c-8.08,1.72-15.64,1.92-23.65,2.12l-4.55.13c-10.21.41-22.32.82-34.59.82h0a388.14,388.14,0,0,1-39-1.77C682.19,537.89,666.65,535.32,652.14,532.7Z"></path>
  <path fill="#f0c7c0" d="M740.23,589.37s67.07-50,97.58-21.2c43.77,41.3-60.51,105.26-149.62,95.54S740.23,589.37,740.23,589.37Z"></path>
  <path fill="#313131" d="M706.82,666.35a172.77,172.77,0,0,1-18.81-1c-19.49-2.12-29.58-7-30.85-14.83-1.59-9.85,11.93-23.43,40.17-40.36,19.7-11.82,40-21.29,42-22.22,3.07-2.26,41.75-30.35,73.64-30.35,10.6,0,19.32,3.16,25.92,9.38,10.54,9.95,13.46,21.89,8.43,34.54-6.35,16-25.22,32.32-51.79,44.81A212.87,212.87,0,0,1,706.82,666.35ZM813,560.9c-31.44,0-71.41,29.5-71.81,29.8a1.49,1.49,0,0,1-.3.18C717.59,601.55,657.68,633,660.43,650c1,6,10.63,10.19,27.94,12.08a171.21,171.21,0,0,0,18.45,1c64.42,0,125.71-33.14,137.48-62.76,4.55-11.45,2-21.85-7.63-30.91C830.71,563.75,822.75,560.9,813,560.9Z"></path>
  <path fill="#f0c7c0" d="M836.46,453.39s36.12,54.78,5.24,85.29-98.29-35.94-98.29-35.94-21.13,1.66-26.23-8.19a6.59,6.59,0,0,1-8,3.64c-5.74-1.63-16-16.73-12.7-24.14,0,0-2.44-6.68,2.81-11.36a7.76,7.76,0,0,1,1.09-9.32s-16,1.46-14.87-8.35c0,0-1.55-1.71,14.9-6.64s23.68-3.79,29.39-1.77,24.26,16.49,28.75,19.56S789,471.83,789,471.83,805.86,458.33,836.46,453.39Z"></path>
  <path fill="#313131" d="M821.26,548.35c-32,0-73.11-38.71-78.48-43.91-.62,0-1.59.06-2.79.06-6.57,0-17.65-1-22.81-7a7.73,7.73,0,0,1-5.87,2.67,9.48,9.48,0,0,1-2.58-.38c-4.44-1.26-9.63-8-12.27-13.61-1.59-3.43-3.14-8.24-1.72-12.19-.5-1.84-1.48-7.23,2.54-11.62a9.43,9.43,0,0,1,.05-7.27c-4-.1-8.89-.92-11.61-4a7.67,7.67,0,0,1-1.88-6,2.14,2.14,0,0,1,.06-.83c.27-1,.83-3,16.05-7.53,8-2.4,14.5-3.57,19.83-3.57a30.23,30.23,0,0,1,10.58,1.82c4.15,1.46,13.46,8.22,23.45,15.61,2.55,1.89,4.56,3.38,5.68,4.15,3.88,2.64,24.73,12.83,29.36,15.09,3.81-2.8,20.11-13.74,47.34-18.14a1.65,1.65,0,0,1,1.65.72,131,131,0,0,1,14.4,31.65c7,23.53,3.71,42.8-9.38,55.73C837.16,545.49,829.89,548.35,821.26,548.35Zm-77.85-47.26a1.64,1.64,0,0,1,1.16.48C745,502,789.06,545,821.26,545c7.73,0,14.22-2.53,19.28-7.53,27.46-27.13-.48-75.15-4.9-82.31-29.14,4.95-45.4,17.78-45.56,17.91a1.66,1.66,0,0,1-1.76.2c-1.06-.51-26.15-12.67-30.69-15.78-1.17-.8-3.21-2.3-5.79-4.21-6.94-5.14-18.55-13.74-22.58-15.15a26.74,26.74,0,0,0-9.48-1.63c-5,0-11.18,1.12-18.89,3.43-10.41,3.11-13.09,4.8-13.74,5.34a4.48,4.48,0,0,0,1,3.62c1.63,1.82,5.31,2.87,10.09,2.87,1.18,0,2-.07,2-.07a1.65,1.65,0,0,1,1.39,2.74,6.13,6.13,0,0,0-1,7.32,1.66,1.66,0,0,1-.29,2.14c-4.36,3.88-2.37,9.5-2.35,9.56a1.66,1.66,0,0,1,0,1.24c-1,2.24-.47,5.9,1.46,10,2.87,6.16,7.58,11.09,10.18,11.83a6.08,6.08,0,0,0,1.67.26,5.06,5.06,0,0,0,4.35-3,1.66,1.66,0,0,1,1.46-1,1.64,1.64,0,0,1,1.52.88c3.47,6.69,16.08,7.41,21.35,7.41,2,0,3.27-.1,3.29-.1Z"></path>
  <path fill="#333" d="M700.39 455a1.65 1.65 0 0 1-.78-3.11A51.28 51.28 0 0 1 720 446a1.67 1.67 0 0 1 1.8 1.5 1.65 1.65 0 0 1-1.49 1.79 48.16 48.16 0 0 0-19.09 5.54A1.72 1.72 0 0 1 700.39 455ZM699.3 464.34a1.65 1.65 0 0 1-.61-3.18c.44-.18 11-4.31 17.5-4.12a1.64 1.64 0 0 1 1.6 1.69 1.67 1.67 0 0 1-1.69 1.61c-5.88-.15-16.1 3.85-16.2 3.89A1.59 1.59 0 0 1 699.3 464.34ZM696.49 475.71a1.66 1.66 0 0 1-1-3c3.65-2.67 12.25-4 13.22-4.09a1.65 1.65 0 1 1 .46 3.27c-2.4.34-9.2 1.63-11.72 3.49A1.71 1.71 0 0 1 696.49 475.71ZM717.18 496.2a1.67 1.67 0 0 1-1.37-.71c-3.82-5.57-5.93-14.5-6-14.88a1.65 1.65 0 1 1 3.22-.75c0 .08 2.06 8.7 5.53 13.76a1.64 1.64 0 0 1-.43 2.29A1.6 1.6 0 0 1 717.18 496.2Z"></path>
  <path fill="#333" d="M712.24 485.2a1.67 1.67 0 0 1-1-.3l-2.61-1.85a1.65 1.65 0 0 1 1.91-2.7l2.61 1.85a1.65 1.65 0 0 1 .39 2.3A1.63 1.63 0 0 1 712.24 485.2ZM689.24 448.79a1.67 1.67 0 0 1-1.49-.94l-.59-1.24a1.65 1.65 0 0 1 3-1.43l0 .06 4.24-1a5.67 5.67 0 0 0-.65-3 1.66 1.66 0 0 1 .48-2.27 1.64 1.64 0 0 1 2.27.44 9.23 9.23 0 0 1 1 6.48 1.67 1.67 0 0 1-1.27 1.34l-6.67 1.51A1.55 1.55 0 0 1 689.24 448.79ZM741.32 450.88a1.24 1.24 0 0 1-.33 0l-7.93-1.6a1.65 1.65 0 0 1 .65-3.24l7.93 1.6a1.66 1.66 0 0 1-.32 3.28Z"></path>
  <path fill="#333" d="M739.32 452.87a1.64 1.64 0 0 1-1.44-.84l-3.36-5.92a1.65 1.65 0 0 1 2.87-1.63l3.36 5.92a1.64 1.64 0 0 1-.62 2.25A1.62 1.62 0 0 1 739.32 452.87ZM737.35 462.29a1.24 1.24 0 0 1-.33 0l-7.93-1.6a1.65 1.65 0 0 1 .65-3.24l7.93 1.61a1.65 1.65 0 0 1-.32 3.27Z"></path>
  <path fill="#333" d="M735.35 464.28a1.64 1.64 0 0 1-1.44-.84l-3.37-5.92a1.65 1.65 0 0 1 2.88-1.63l3.36 5.92a1.66 1.66 0 0 1-.62 2.26A1.72 1.72 0 0 1 735.35 464.28ZM733.78 472.39a1.22 1.22 0 0 1-.32 0l-7.94-1.6a1.65 1.65 0 1 1 .66-3.24l7.93 1.61a1.65 1.65 0 0 1-.33 3.27Z"></path>
  <path fill="#333" d="M731.78 474.38a1.63 1.63 0 0 1-1.43-.84L727 467.62a1.65 1.65 0 0 1 2.88-1.63l3.36 5.92a1.66 1.66 0 0 1-.62 2.26A1.72 1.72 0 0 1 731.78 474.38ZM743 504.55h-.24a1.65 1.65 0 1 1 .17-3.3c1.09.06 3.62-1 5-1.68a1.65 1.65 0 1 1 1.51 2.94C748.74 502.85 745.31 504.55 743 504.55ZM824.44 491.7a1.69 1.69 0 0 1-.75-.18l-37.57-19.39a1.62 1.62 0 0 1-.77-.86l-7.09-17.79a1.65 1.65 0 1 1 3.07-1.22l6.86 17.22 37 19.1a1.66 1.66 0 0 1 .71 2.23A1.64 1.64 0 0 1 824.44 491.7ZM699.9 356.82s-3-31.8-1.85-44.13c2.64-27.56 55.37-29.44 73.19-18.46s32.31 77.38-15.44 81.29S699.9 356.82 699.9 356.82Z"></path>
  <path fill="#f0c7c0" d="M779.68,347.84c-2.69-6.62-8.77-6-12.18-5l-1.08.73a9.23,9.23,0,0,0-3.11,3.51c-.92,1.81-2.3,4-3.21,3.32-1.48-1.18-7.75-9.29-8.78-22.48s-14.38-19.35-14.38-19.35-15.6-4.67-23.84-1.44c-6.11,2.4-9.6,6.18-11.38,12.5-3.31,11.68-8,28.8-6.4,40.79,1.32,9.85,10.31,18.08,20.28,21a28.93,28.93,0,0,0,7.45,1.15l-.5,5.17s-29.84,14.64-2.86,19.32c21.66,3.75,37.65-17.76,37.65-17.76l.43-24.73C771.74,369.76,783.51,357.26,779.68,347.84Z"></path>
  <path fill="#313131" d="M724.79,409.2a31.36,31.36,0,0,1-5.38-.47c-8-1.38-12.1-3.81-12.62-7.42-.89-6.25,10.32-12.6,14.2-14.59l.25-2.54a30,30,0,0,1-6.11-1.12c-11.31-3.36-20.13-12.57-21.45-22.4C692,348,697.08,330,700.13,319.2c1.92-6.79,5.73-11,12.37-13.59a22.3,22.3,0,0,1,8-1.25A68.56,68.56,0,0,1,737.41,307a1.45,1.45,0,0,1,.22.09c.58.26,14.25,6.73,15.34,20.72.88,11.29,5.68,18.53,7.56,20.71a13.73,13.73,0,0,0,1.31-2.17,11,11,0,0,1,3.65-4.14l1.09-.72a1.57,1.57,0,0,1,.45-.22,16.58,16.58,0,0,1,4.53-.69c4.55,0,7.89,2.3,9.65,6.64,1.58,3.87,1,8.36-1.69,12.29a18.5,18.5,0,0,1-15.23,8h0a20.07,20.07,0,0,1-4.9-.62L759,389.38a1.62,1.62,0,0,1-.32.95C758.09,391.1,744.42,409.2,724.79,409.2Zm-4.26-101.54a19,19,0,0,0-6.82,1c-5.66,2.22-8.77,5.63-10.4,11.41-3,10.52-8,28.14-6.35,40.12,1.15,8.59,9,16.68,19.11,19.67a27.28,27.28,0,0,0,7,1.08,1.68,1.68,0,0,1,1.19.56,1.65,1.65,0,0,1,.4,1.25l-.5,5.17a1.63,1.63,0,0,1-.91,1.32c-5.77,2.83-13.68,8.3-13.21,11.57.12.9,1.35,3.15,9.9,4.64a28.86,28.86,0,0,0,4.82.41c16.44,0,28.8-14.5,30.91-17.12l.42-24.18a1.65,1.65,0,0,1,.71-1.33,1.63,1.63,0,0,1,1.51-.19,17.1,17.1,0,0,0,5.94,1.09,15.14,15.14,0,0,0,12.5-6.49,9.8,9.8,0,0,0,1.37-9.21,6.58,6.58,0,0,0-6.59-4.57,12.53,12.53,0,0,0-3.36.49l-.86.58a7.68,7.68,0,0,0-2.56,2.89c-1.55,3.06-2.84,4.36-4.3,4.36a2.23,2.23,0,0,1-1.41-.5c-2.16-1.73-8.37-10.53-9.39-23.64-.89-11.46-12.15-17.35-13.34-17.94A65.78,65.78,0,0,0,720.53,307.66Z"></path>
  <path fill="#333" d="M764.68,358.86h-.14a1.66,1.66,0,0,1-1.51-1.79,10.23,10.23,0,0,1,8.25-9.46c2.62-.44,4.85.5,5.69,2.39a1.65,1.65,0,0,1-3,1.34c-.2-.45-1.09-.64-2.13-.47a6.93,6.93,0,0,0-5.49,6.48A1.66,1.66,0,0,1,764.68,358.86Z"></path>
  <path fill="#333" d="M771.8 357.54a1.63 1.63 0 0 1-1.09-.41l-4.08-3.55a1.65 1.65 0 0 1 2.17-2.49l4.08 3.55a1.65 1.65 0 0 1-1.08 2.9ZM718.05 352.09a1.65 1.65 0 0 1-.54-3.21c3.3-1.14 3.09-6.52 3.09-6.57a1.65 1.65 0 0 1 1.55-1.74 1.66 1.66 0 0 1 1.75 1.56c0 .32.37 7.91-5.31 9.87A1.7 1.7 0 0 1 718.05 352.09ZM737.52 329.48c1.37.09 4.34 1.35 3.71 3.22-.27.79-1.24 1.09-2.08 1.16a6.38 6.38 0 0 1-4.18-1 2.82 2.82 0 0 1-1.18-1.5c-.63-2.22 2.19-2.31 3.57-1.92M712.34 328.38c-1.37-.09-4.47.77-4.09 2.7.16.83 1.08 1.25 1.9 1.43a6.49 6.49 0 0 0 4.28-.43 2.9 2.9 0 0 0 1.37-1.33c.9-2.13-1.88-2.58-3.3-2.37"></path>
  <path fill="#fff" d="M745.08,342.85a8.61,8.61,0,0,0-7.27-5.88c-5.89-.78-9,6.59-9,6.59S737.27,353.28,745.08,342.85Z"></path>
  <path fill="#333" d="M737.05,349.33h0c-5.35,0-9.32-4.5-9.49-4.69a1.68,1.68,0,0,1-.28-1.73c.14-.31,3.31-7.65,9.67-7.65a7.83,7.83,0,0,1,1.08.07,10.22,10.22,0,0,1,8.65,7.09,1.65,1.65,0,0,1-.28,1.42C743.68,347.48,740.53,349.33,737.05,349.33Zm-6.22-6.1c1.17,1,3.52,2.79,6.22,2.79,2.17,0,4.24-1.16,6.15-3.46a7,7,0,0,0-5.6-4c-.22,0-.43,0-.65,0C733.9,338.56,731.75,341.62,730.83,343.23Z"></path>
  <path fill="#333" d="M737.63,341.9a3.84,3.84,0,1,0-4.09,3.59A3.83,3.83,0,0,0,737.63,341.9Z"></path>
  <path fill="#fff" d="M700.59,339.94a8.63,8.63,0,0,1,8-4.88c6,0,8.08,7.7,8.08,7.7S707,351.3,700.59,339.94Z"></path>
  <path fill="#333" d="M709 347.49c-2.76 0-6.7-1.16-9.84-6.74a1.62 1.62 0 0 1-.08-1.44 10.22 10.22 0 0 1 9.49-5.9c7.12 0 9.57 8.55 9.67 8.91a1.64 1.64 0 0 1-.5 1.68C717.57 344.14 713.73 347.49 709 347.49Zm-6.5-7.58c1.8 2.84 4 4.28 6.5 4.28a10.62 10.62 0 0 0 5.69-2c-.75-1.83-2.66-5.46-6.12-5.46A7 7 0 0 0 702.49 339.91ZM747.25 351.86a1.64 1.64 0 0 1-1.2-.51l-2.17-2.3a1.65 1.65 0 1 1 2.4-2.27l2.17 2.3a1.64 1.64 0 0 1-.07 2.33A1.59 1.59 0 0 1 747.25 351.86ZM742 353a1.62 1.62 0 0 1-1.45-.87l-.72-1.34a1.63 1.63 0 0 1 .67-2.23 1.65 1.65 0 0 1 2.24.67l.72 1.34A1.65 1.65 0 0 1 742 353ZM721 363.56A16.75 16.75 0 0 1 710.86 360a1.65 1.65 0 0 1 1.95-2.66c9 6.62 16.3.08 16.6-.2a1.65 1.65 0 1 1 2.25 2.42A17.17 17.17 0 0 1 721 363.56Z"></path>
  <path fill="#333" d="M732.18,361.9a1.65,1.65,0,0,1-1.39-.76l-3-4.73a1.65,1.65,0,0,1,2.79-1.77l3,4.72a1.65,1.65,0,0,1-.51,2.28A1.62,1.62,0,0,1,732.18,361.9Z"></path>
  <circle cx="705.9" cy="339.4" r="3.84" fill="#333" transform="rotate(-41.6 705.984 339.406)"></circle>
  <path fill="#333" d="M722.94 381.2c3.85.1 16-2.53 20.88-5.35 0 0-.81 12.32-21.71 15.82ZM721.27 322.23l-.26 0c-2.57-.41-3.75-3-4-5.3-.42-3.92.82-7.54 3.33-9.69a11.11 11.11 0 0 1 5.84-2.38 28.94 28.94 0 0 1 5.74 0 1.64 1.64 0 0 1 1.53 1.76 1.66 1.66 0 0 1-1.76 1.53 26.36 26.36 0 0 0-5.1 0 7.84 7.84 0 0 0-4.1 1.62c-2 1.69-2.43 4.63-2.2 6.82.14 1.27.67 2.3 1.24 2.39a1.65 1.65 0 0 1-.26 3.28Z"></path>
  <path fill="#333" d="M730.32 316.8a1.65 1.65 0 0 1-.9-.26 5.09 5.09 0 0 1-1.64-6.58 6.1 6.1 0 0 1 1.7-1.89 12.1 12.1 0 0 1 3.67-1.83 20.67 20.67 0 0 1 4.33-.95 1.65 1.65 0 0 1 .37 3.28 18.4 18.4 0 0 0-3.66.8 9.37 9.37 0 0 0-2.71 1.33 3.25 3.25 0 0 0-.82.87 1.79 1.79 0 0 0 .55 2.19 1.65 1.65 0 0 1-.89 3ZM815.68 605.1a9.58 9.58 0 0 1-3.69-.72 10.73 10.73 0 0 1-6.39-9.57 12.78 12.78 0 0 1 5-10.22 9.42 9.42 0 0 1 4.53-2 7.35 7.35 0 0 1 8 5.84 6.91 6.91 0 0 1-1.35 5.28 6.69 6.69 0 0 1-4.55 2.72 1.65 1.65 0 1 1-.38-3.28 3.42 3.42 0 0 0 2.29-1.41 3.62 3.62 0 0 0 .73-2.74 4.05 4.05 0 0 0-4.34-3.13 6.2 6.2 0 0 0-2.93 1.35 9.43 9.43 0 0 0-3.75 7.51 7.47 7.47 0 0 0 4.35 6.61c3.74 1.54 8.08-.79 10.13-3.94 2.52-3.89 2.47-8.93 2-12.47a9.67 9.67 0 0 0-1.64-4.76c-2-2.49-6.09-2.48-8.35-2.26-3.2.32-5.35 1.27-6.4 2.82a1.65 1.65 0 1 1-2.74-1.84c1.63-2.41 4.59-3.85 8.82-4.27 3.56-.35 8.41 0 11.24 3.48a12.8 12.8 0 0 1 2.35 6.38c.8 5.88-.06 11-2.49 14.72A13.11 13.11 0 0 1 815.68 605.1Z"></path>
  <path fill="#f0c7c0" d="M376,279.64s48.32,81.77,78,90.44,159.83-81.76,159.83-81.76l-45.84-57-90.45,55.76-62.95-77.55Z"></path>
  <path fill="#313131" d="M458.73,371.86h0a19.15,19.15,0,0,1-5.15-.42c-30-8.76-77-87.71-79-91.07a1.54,1.54,0,0,1,0-1.58l38.64-70.09a1.66,1.66,0,0,1,1.3-.83,1.63,1.63,0,0,1,1.43.61l62,76.43,89.21-55a1.64,1.64,0,0,1,2.15.37l45.84,57a1.63,1.63,0,0,1,.35,1.27c-.06.45-.32.63-.69.89C609.94,292.81,495.5,371.86,458.73,371.86Zm-80.84-92.25c5.11,8.5,49.39,80.95,76.61,88.89a15.4,15.4,0,0,0,4.22.52c33.57,0,139-71.66,152.73-81.06L567.64,233.5l-89.2,55a1.65,1.65,0,0,1-2.15-.36l-61.41-75.65Z"></path>
  <path fill="#cc3b3b" d="M27.6,628.41l.24-.32L104.4,527.53s7.55,3.08,20.32,10.77c6.16,3.72,14.78,7.14,21.95,14.59,15.58,16.19,55.81,19.93,55.81,19.93l-13.67,83.34c-29.22-3.12-114.08,1.45-126.5,8.39-.38.22-.74.43-1.08.66C49.54,672.88,34.81,694.79,13,681.14c-.24-.14-.54-.35-.76-.49C-8.49,667.33,3.62,659.9,27.6,628.41Z"></path>
  <path fill="#333" d="M26.9,687.18a27.64,27.64,0,0,1-14.74-4.64c-.19-.11-.45-.29-.68-.44l-.12-.09c-7-4.49-10.49-8.48-11.21-12.92-1.2-7.26,5.05-15.07,15.4-28,3.19-4,6.81-8.51,10.73-13.67l.25-.32,76.55-100.56A1.67,1.67,0,0,1,105,526c.31.13,7.82,3.21,20.55,10.89,1.52.91,3.2,1.82,5,2.77,5.51,3,11.76,6.32,17.31,12.09,15,15.55,54.38,19.39,54.77,19.42a1.7,1.7,0,0,1,1.16.64,1.66,1.66,0,0,1,.32,1.28l-13.67,83.33a1.66,1.66,0,0,1-1.81,1.38c-6.06-.65-15-1-25.75-1-37.74,0-90.66,4.09-99.76,9.18-.34.19-.67.4-1,.6A79.75,79.75,0,0,0,54.22,673C47,679.3,37.92,687.18,26.9,687.18Zm78-157.62-76,99.86c-3.95,5.18-7.58,9.72-10.78,13.73-9.78,12.22-15.68,19.6-14.72,25.41C4,672,7,675.28,13.17,679.25l.17.12c.17.12.38.26.55.36a24.2,24.2,0,0,0,13,4.14c9.78,0,17.94-7.12,25.15-13.4a80.93,80.93,0,0,1,8.27-6.64c.38-.25.76-.48,1.17-.72,10.5-5.86,67.06-9.6,101.39-9.6,10,0,18.45.29,24.55.85l13.14-80.08c-8.08-.94-41-5.57-55.09-20.24-5.19-5.39-11.2-8.62-16.49-11.47-1.82-1-3.54-1.9-5.12-2.85A185.4,185.4,0,0,0,104.93,529.56Z"></path>
  <path fill="#fff" d="M27.76,628.54a23.7,23.7,0,0,1,14.31,5.51,66.18,66.18,0,0,1,20.24,30.5c-.37.22-.73.43-1.08.66C49.54,672.88,34.81,694.79,13,681.15l-.68-.44C-8.41,667.39,3.76,660,27.76,628.54Z"></path>
  <path fill="#333" d="M26.91,687.18a27.7,27.7,0,0,1-14.75-4.64l-.72-.46c-7-4.5-10.47-8.48-11.2-12.9-1.18-7.24,5.05-15,15.37-27.88,3.22-4,6.87-8.57,10.83-13.77a1.63,1.63,0,0,1,1.42-.64,25.24,25.24,0,0,1,15.28,5.91,67.72,67.72,0,0,1,20.75,31.26,1.65,1.65,0,0,1-.76,1.93c-.35.2-.68.4-1,.61A78.33,78.33,0,0,0,54.22,673C47,679.3,37.92,687.18,26.91,687.18Zm1.61-56.93c-3.78,4.94-7.25,9.27-10.34,13.12C8.44,655.52,2.55,662.86,3.5,668.64c.56,3.42,3.57,6.71,9.75,10.68.23.15.42.28.64.41a24.23,24.23,0,0,0,13,4.14c9.77,0,17.94-7.11,25.14-13.39a82.52,82.52,0,0,1,8.27-6.65h0A64.45,64.45,0,0,0,41,635.31,21.78,21.78,0,0,0,28.52,630.25Z"></path>
  <path fill="#fff" d="M28,628.21l76.56-100.56s7.47,3,20.24,10.72C95.17,571,25.84,662.8,12.36,680.71-8.47,667.34,3.84,660,28,628.21Z"></path>
  <path fill="#333" d="M12.36,682.36a1.7,1.7,0,0,1-.89-.26c-7-4.52-10.5-8.51-11.23-12.93-1.18-7.24,5.05-15,15.38-27.89,3.29-4.1,7-8.74,11.06-14.07l76.56-100.56a1.66,1.66,0,0,1,1.94-.53c.31.13,7.73,3.15,20.47,10.83a1.66,1.66,0,0,1,.37,2.53C96.43,572.08,27.25,663.67,13.68,681.7A1.65,1.65,0,0,1,12.36,682.36Zm92.73-152.68L29.31,629.22c-4.07,5.35-7.81,10-11.11,14.13-9.75,12.16-15.64,19.5-14.69,25.29.51,3.17,3.14,6.24,8.46,9.83C27.3,658.13,92.49,572,122.23,538.75A174.46,174.46,0,0,0,105.09,529.68Z"></path>
  <line x1="85.33" x2="85" y1="634.83" y2="658.53" fill="#fff"></line>
  <path fill="#333" d="M85,659.86h0a1.52,1.52,0,0,1-1.63-1.52l.33-23.77a1.72,1.72,0,0,1,1.65-1.71h0A1.78,1.78,0,0,1,87,634.69l-.32,23.62A1.59,1.59,0,0,1,85,659.86Z"></path>
  <line x1="104.01" x2="102.23" y1="635.9" y2="657.44" fill="#fff"></line>
  <path fill="#333" d="M102.23,659.09h-.14a1.65,1.65,0,0,1-1.51-1.78l1.79-21.54a1.62,1.62,0,0,1,1.78-1.51,1.65,1.65,0,0,1,1.51,1.78l-1.79,21.54A1.65,1.65,0,0,1,102.23,659.09Z"></path>
  <line x1="124.85" x2="121.29" y1="638.6" y2="659.28" fill="#fff"></line>
  <path fill="#333" d="M121.29,660.93a1.32,1.32,0,0,1-.28,0,1.66,1.66,0,0,1-1.35-1.91l3.56-20.68a1.65,1.65,0,0,1,3.26.56l-3.56,20.68A1.65,1.65,0,0,1,121.29,660.93Z"></path>
  <circle cx="131.21" cy="589.61" r="21.13" fill="#fff" transform="rotate(-53.2 131.22 589.606)"></circle>
  <path fill="#333" d="M131.2,612.86h0a23,23,0,0,1,0-46,22.76,22.76,0,0,1,22.56,19.7,23.25,23.25,0,0,1-4.45,17.09A22.85,22.85,0,0,1,131.2,612.86Zm0-42.73a19.47,19.47,0,1,0,11.78,4A19.32,19.32,0,0,0,131.23,570.13Z"></path>
  <path fill="#a5a653" d="M435.25,261.86h25.83s-8.57-103.19-3.46-120.42,23.6-18,23.6-38.41-21.69-21.77-30-13.47-9.57,33.77-9.57,33.77-3.19-17.24-16.59-15.33-23,14.32,8.93,37.92C434,145.92,442.9,242.86,435.25,261.86Z"></path>
  <path fill="#313131" d="M461.08,262.86H435.25a1.59,1.59,0,0,1-1.38-.65,1.57,1.57,0,0,1-.14-1.51c7.06-16.77-.5-105.16-1.3-114.16-20.06-15-22.61-24.82-21.19-30.45,1.29-5.07,6.37-8.71,13.61-9.75a16.06,16.06,0,0,1,2.27-.16c7.15,0,11.3,4.95,13.6,9.47,1.06-8.41,3.58-21.55,9.35-27.32,3.3-3.3,8.51-5.27,13.93-5.27,9.39,0,18.87,6.14,18.87,19.85,0,12.16-6.28,17.83-12.35,23.31-4.73,4.28-9.21,8.32-11.32,15.46-5,16.73,3.44,118.54,3.53,119.57a1.45,1.45,0,0,1-.43,1.16A1.59,1.59,0,0,1,461.08,262.86Zm-23.53-3h21.74c-1.15-14-8.08-102.79-3.26-119.06,2.38-8,7.41-12.6,12.28-17,6-5.46,11.25-10.18,11.25-20.88,0-12.19-8-16.55-15.56-16.55a16.66,16.66,0,0,0-11.6,4.3c-7.75,7.75-9.07,32.46-9.08,32.71a1.65,1.65,0,0,1-3.28.22c0-.14-2.76-14.11-12.92-14.11a12.31,12.31,0,0,0-1.8.13c-5.87.84-9.93,3.57-10.87,7.3s.4,12.52,20.55,27.43a1.76,1.76,0,0,1,.66,1.24C436,149.44,443.89,236.86,437.55,259.86Z"></path>
  <path fill="#8f8ec3" d="M375.7,392.41l-174,.5s-22.1,118.51-8,144.62S260,567.66,260,567.66l-89.37-3L168,660.71l316-2.66S550.2,633,534.13,576.7,381.47,427.06,381.47,427.06Z"></path>
  <path fill="#313131" d="M166.27,662.38l2.7-99.44,67,2.26c-16.07-4.07-35.7-12-43.74-26.88-14.18-26.33,7-140.85,7.86-145.71l.25-1.35,176.78-.51L383,426.09c4.67,3.23,36.6,25.5,69.85,53.43,48.24,40.54,76.12,73.08,82.88,96.73s0,45.58-19.56,63.44A109.6,109.6,0,0,1,484.5,659.6l-.28.1h-.29Zm5.91-96-2.51,92.69L483.6,656.4A108.76,108.76,0,0,0,514,637.19c18.78-17.19,25-37.39,18.54-60-15.72-55-150.64-147.81-152-148.74L380,428l-5.66-33.95-171.22.49c-2.38,13.16-20.79,118.36-8,142.19,13.47,25,64.44,29.23,65,29.27l-.19,3.29Z"></path>
  <path fill="#8f8ec3" d="M260,567.66c25.87.6,54.51.6,54.51.6"></path>
  <path fill="#333" d="M314.46,569.91c-.28,0-29,0-54.55-.59a1.66,1.66,0,0,1-1.61-1.69A1.64,1.64,0,0,1,260,566c25.55.59,54.19.6,54.47.6a1.65,1.65,0,1,1,0,3.3Z"></path>
  <path fill="#8f8ec3" d="M309.91,392.47l2.6,59.25S445.33,518.13,464.21,578s-31.9,78.13-31.9,78.13"></path>
  <path fill="#333" d="M432.31 657.81a1.65 1.65 0 0 1-.56-3.21 60.09 60.09 0 0 0 22.43-16.23c13.24-15.51 16.08-35.64 8.46-59.85C444.18 520 313.09 453.86 311.77 453.2a1.68 1.68 0 0 1-.91-1.41l-2.6-59.25a1.64 1.64 0 0 1 1.57-1.72 1.67 1.67 0 0 1 1.73 1.58l2.56 58.28A697.43 697.43 0 0 1 382.21 491c47.51 32.19 75.63 61.29 83.58 86.49 10 31.67.51 51.79-9.2 63.1a62.32 62.32 0 0 1-23.72 17.08A1.62 1.62 0 0 1 432.31 657.81ZM248.75 617.85c-40.7 0-76.07-2.16-79.28-2.37a1.65 1.65 0 1 1 .21-3.29c1.75.11 174.75 10.69 201.79-14.7 2.15-2 3.19-4.12 3.19-6.44 0-22.45-47.69-38.15-89.77-52-21.66-7.13-42.11-13.86-53.33-20.82C198.32 497.62 227 396.32 228.24 392a1.65 1.65 0 1 1 3.17.92c-.29 1-29.23 103.2 1.89 122.49 10.89 6.75 31.16 13.42 52.62 20.49C329.07 550.11 378 566.2 378 591.05c0 3.23-1.43 6.21-4.24 8.85C358.18 614.51 299.34 617.85 248.75 617.85Z"></path>
  <path fill="#333" d="M223.82 453.21a31.24 31.24 0 0 1-6.06-.53 1.65 1.65 0 1 1 .69-3.23c.15 0 14.46 2.91 26-6.79 10.88-9.17 15.93-26.26 15-50.78a1.66 1.66 0 0 1 3.31-.12c1 25.62-4.49 43.61-16.22 53.46A35 35 0 0 1 223.82 453.21ZM334 461.86c-.9 0-1.64-.41-1.66-1.31L331 391a1.59 1.59 0 0 1 1.62-1.6 1.7 1.7 0 0 1 1.69 1.66l1.3 69.37c0 .91-.71 1.39-1.62 1.39Z"></path>
  <path fill="#eeb857" d="M374.51,396s16.2,2,14.79-38.76.82-48.43.82-48.43l8.67,15.7,73.51-55.76s-43.36-45.84-51.62-60.29c-10.16-17.79-41.23-44-75-49.58s-119.58-5.62-144.9,11.26-57.68,118.17-57.68,118.17l46.43,22.5s-29,86.94,17.86,85.67S374.51,396,374.51,396Z"></path>
  <path fill="#313131" d="M206.4,398.86h0c-9,0-16-3.62-20.59-10-14.92-20.7-1.09-68.08,1.71-77l-45.13-22a1.7,1.7,0,0,1-.85-2c1.33-4.16,32.82-102.06,58.33-119.07,20.74-13.82,76.69-14.9,93.34-14.9,20.3,0,40,1.26,52.75,3.38,35.71,6,66.55,33.58,76.15,50.38,8.07,14.12,51,59.52,51.39,60a1.64,1.64,0,0,1-.2,2.45l-73.51,55.75a1.65,1.65,0,0,1-2.44-.51L391.08,314c-.5,5.84-1,18.25-.13,43.21.63,18.16-2.07,30.49-8,36.64-3.89,4-7.82,3.89-8.52,3.83-1.9,0-38.08-.23-77.56-.23-41.62,0-71.7.59-89.42,1.07C207.09,398.5,206.75,398.86,206.4,398.86ZM145.13,287.45l45.13,21.88a1.66,1.66,0,0,1,.84,2c-.18.54-17.78,54.16-2.61,75.21,4,5.58,9.88,8.31,17.91,8.31h0l.95,0c17.75-.48,47.86-.73,89.51-.73,40.37,0,77.29.24,77.66.24h.36a8.18,8.18,0,0,0,5.68-2.85c3.64-3.76,7.83-12.76,7.09-34.22-1.4-40.6.79-48.63.88-48.95a1.67,1.67,0,0,1,1.41-1.18,1.63,1.63,0,0,1,1.62.84l7.75,14,70.53-53.49c-7.34-7.81-43-46-50.59-59.27-9.29-16.26-39.18-43-73.83-48.77-12.56-2.09-32.08-3.34-52.21-3.34-43.82,0-78,5.36-91.5,14.34C178.72,186.83,149.09,275.35,145.13,287.45Z"></path>
  <ellipse cx="316.87" cy="81.01" fill="#313131" rx="53.36" ry="51.87" transform="rotate(-87.97 316.861 81.018)"></ellipse>
  <path fill="#f0c7c0" d="M337.15,162l6.22,3.38s-2.42,15.56-23.66,14.46-44-24.46-44-24.46h0a22.93,22.93,0,0,0,10.38-17.67l1.45-21.36s-9.34,4.92-17.95-5.29c-6.47-7.67-5.63-21.35,5.19-21.67s11.48,7.27,14.95,7.74,1.35-18.86,3.35-26.12,19.16-19.88,30.31-19.92a77.14,77.14,0,0,1,19.94,2.54,23.44,23.44,0,0,1,17.24,19.35c3.3,23.49,2.52,67.29-25.83,67.55l-.42,16.66A5.34,5.34,0,0,0,337.15,162Z"></path>
  <path fill="#313131" d="M321.83,181.52c-.72,0-1.46,0-2.2-.06-21.64-1.12-44.13-24-45.08-25a1.63,1.63,0,0,1-.46-1.32,1.68,1.68,0,0,1,.73-1.21,21.39,21.39,0,0,0,9.66-16.41l1.28-18.87a15.7,15.7,0,0,1-3.74.46c-3.51,0-8.73-1.23-13.65-7.06C264,107,262.66,99.33,265.07,94a10.38,10.38,0,0,1,9.7-6.25c7.86-.23,11.06,3.48,13.14,5.91a9.17,9.17,0,0,0,1.64,1.66c.66-1.73.78-7.31.86-11.12.11-5.09.22-10.36,1.12-13.62,2.24-8.11,20.05-21.08,31.89-21.13h.33A78.6,78.6,0,0,1,343.8,52a25,25,0,0,1,18.44,20.72c1,7.21,5.32,44-9.49,61.2a22.87,22.87,0,0,1-16.36,8.18l-.37,15.1a3.67,3.67,0,0,0,1.92,3.33l6.22,3.38a1.66,1.66,0,0,1,.85,1.71C345,165.77,342.29,181.52,321.83,181.52Zm-43.53-26c5.19,4.93,24.08,21.71,41.5,22.61.69,0,1.37.06,2,.06,14.59,0,18.65-8.87,19.63-12l-5.1-2.77a7,7,0,0,1-3.65-6.31l.42-16.66a1.65,1.65,0,0,1,1.64-1.61,19.86,19.86,0,0,0,15.48-7.08C361,119.27,361.67,92.39,359,73.17a21.72,21.72,0,0,0-16-18,75.14,75.14,0,0,0-19.2-2.49h-.31c-10.86,0-27,12.4-28.72,18.71-.79,2.86-.9,7.92-1,12.82-.2,9-.32,14.52-3.82,14.52l-.35,0c-1.82-.25-2.95-1.57-4.15-3-1.91-2.23-4.08-4.77-9.94-4.77h-.59a7.16,7.16,0,0,0-6.79,4.3c-1.89,4.22-.68,10.52,2.81,14.66,3.3,3.9,7,5.88,11.13,5.88a11.62,11.62,0,0,0,4.8-1,1.62,1.62,0,0,1,1.66.09,1.6,1.6,0,0,1,.74,1.48l-1.44,21.36A24.73,24.73,0,0,1,278.3,155.55Z"></path>
  <path fill="#313131" d="M287.2,109.11a1.64,1.64,0,0,1-1.44-.84c-4.38-7.76-7.51-8.94-9-8.94h0c-2.12,0-3.43,2.31-3.44,2.33a1.65,1.65,0,0,1-2.9-1.58c.09-.16,2.24-4,6.32-4,3.89,0,7.93,3.55,11.91,10.62a1.65,1.65,0,0,1-.62,2.25A1.72,1.72,0,0,1,287.2,109.11Z"></path>
  <path fill="#313131" d="M277.72 107.38a1.64 1.64 0 0 1-1.24-2.73l4.12-4.74a1.65 1.65 0 1 1 2.49 2.17L279 106.81A1.65 1.65 0 0 1 277.72 107.38ZM334.94 138.84s-15 2.27-32-8.92c0 0 10.61 20 31.34 20.84ZM299.52 106.25a1.65 1.65 0 0 1-1.31-2.66l1.81-2.33a1.65 1.65 0 0 1 2.61 2l-1.81 2.32A1.63 1.63 0 0 1 299.52 106.25ZM275.87 125.11a6 6 0 0 1-.74 0c-2.86-.32-4.68-2.47-4.86-5.74-.37-6.78 6.28-9.19 9.85-9.51a1.65 1.65 0 0 1 .3 3.29c-.31 0-7.14.76-6.85 6 .14 2.43 1.48 2.59 1.93 2.64a5.69 5.69 0 0 0 5.46-3.74 1.66 1.66 0 1 1 3.18.92A9.08 9.08 0 0 1 275.87 125.11Z"></path>
  <path fill="#bd6d4a" d="M266.64,73.34c-4.13-1.83-6.39-6.59-6.34-11.11s2-8.8,4.4-12.64a59.45,59.45,0,0,1,35-25.92c4.85-1.28,10.34-1.84,14.57.84a16,16,0,0,0,3,1.84,9.79,9.79,0,0,0,4.6,0c6.26-.9,12.73-1,18.83.66,8.85,2.47,16.31,8.73,21.69,16.19s8.87,16.1,11.87,24.79c1.31,3.77,2.14,8.81-1.2,11-2.16,1.42-5.19.74-7.2-.89s-3.23-4-4.4-6.34c1.15,3.61-2.71,7.74-6.39,6.83-2.28-.56-3.92-2.5-5.33-4.37a132.85,132.85,0,0,1-10-15.31c-1.61-2.87-4.37-6.3-7.41-5.05-2,.83-2.67,3.27-3.34,5.34a26.54,26.54,0,0,1-6.89,10.9,6,6,0,0,1-2.74,1.7c-2,.42-4-1.15-4.89-3s-1-4-1.34-6c-2.16,3.55-4.37,7.14-7.41,10s-7.1,4.83-11.24,4.51-8.18-3.44-8.67-7.56c-1.85,3.8-6.9,4.43-11.12,4.56C272,74.37,269.13,74.43,266.64,73.34Z"></path>
  <path fill="#313131" d="M370.34,81.46a9,9,0,0,1-5.53-2,13.22,13.22,0,0,1-2.49-2.76,6.51,6.51,0,0,1-.43.64,7.09,7.09,0,0,1-7.22,2.94c-2.81-.69-4.7-2.94-6.25-5a134.47,134.47,0,0,1-10.14-15.5C336.74,57,335,55.3,333.63,55.3a1.83,1.83,0,0,0-.67.14c-1.17.48-1.73,2.22-2.27,3.9l-.14.42a28.09,28.09,0,0,1-7.32,11.58,7.44,7.44,0,0,1-3.54,2.12,4.88,4.88,0,0,1-1,.11c-2.63,0-4.76-2-5.71-4a11.21,11.21,0,0,1-.76-2.17A34.53,34.53,0,0,1,306.83,74c-3.76,3.48-8.19,5.28-12.49,5a11.58,11.58,0,0,1-9.15-5.83c-2.76,2.26-6.9,2.72-10.47,2.83-.7,0-1.4,0-2.11,0A16.47,16.47,0,0,1,266,74.85c-4.45-2-7.4-7-7.33-12.64,0-4.16,1.52-8.44,4.64-13.49a61,61,0,0,1,36-26.65A30.23,30.23,0,0,1,306.93,21a15.07,15.07,0,0,1,8.21,2.17c.32.2.63.42.94.64a7.84,7.84,0,0,0,1.74,1,8.57,8.57,0,0,0,3.65,0l.17,0a61.47,61.47,0,0,1,8.74-.67,40.21,40.21,0,0,1,10.76,1.38c8.45,2.36,16.47,8.33,22.59,16.81,5.73,8,9.33,17.22,12.1,25.22,2.12,6.15,1.46,10.74-1.86,12.93A6.61,6.61,0,0,1,370.34,81.46Zm-8.88-11.3a1.64,1.64,0,0,1,1.48.91c1.08,2.14,2.19,4.36,4,5.8,1.59,1.29,3.9,1.68,5.25.79,2.62-1.72,1.47-6.43.55-9.09-2.68-7.78-6.17-16.76-11.65-24.36-5.68-7.88-13.07-13.41-20.8-15.57C335.08,27.2,329.31,27,322.1,28l-.16,0a19.62,19.62,0,0,1-2.71.25,7.3,7.3,0,0,1-2.51-.4,10.54,10.54,0,0,1-2.55-1.44c-.26-.19-.53-.38-.8-.55a11.83,11.83,0,0,0-6.44-1.66,26.49,26.49,0,0,0-6.83,1,57.66,57.66,0,0,0-34,25.19C263.31,55,262,58.72,262,62.25c-.05,4.22,2.16,8.16,5.36,9.57a13,13,0,0,0,5.3.86c.67,0,1.35,0,2,0,3.75-.12,8.23-.63,9.69-3.64a1.66,1.66,0,0,1,1.76-.9,1.64,1.64,0,0,1,1.37,1.43c.37,3.09,3.58,5.83,7.15,6.11q.38,0,.75,0a14.16,14.16,0,0,0,9.24-4.1c2.9-2.69,5.05-6.21,7.13-9.62a1.65,1.65,0,0,1,3,.58c.09.51.16,1,.23,1.53a14.37,14.37,0,0,0,1,4.07c.66,1.38,2,2.33,3.06,2.1A4.66,4.66,0,0,0,321,69a24.74,24.74,0,0,0,6.46-10.22l.13-.41c.7-2.17,1.57-4.87,4.15-5.93a5.05,5.05,0,0,1,1.94-.39c3.38,0,6,3.34,7.54,6.15a132.16,132.16,0,0,0,9.88,15.12c1.27,1.67,2.65,3.34,4.41,3.77a3.81,3.81,0,0,0,3.77-1.68,3.46,3.46,0,0,0,.66-3,1.65,1.65,0,0,1,.95-2A1.67,1.67,0,0,1,361.46,70.16Z"></path>
  <path fill="#313131" d="M319,30a1.67,1.67,0,0,1-1.46-.88,24.11,24.11,0,0,1-2.69-9.46,1.65,1.65,0,1,1,3.29-.24,20.32,20.32,0,0,0,.77,4.3,17,17,0,0,1,6.42-6.78A1.65,1.65,0,1,1,327,19.76a13.58,13.58,0,0,0-6.37,8.88A1.64,1.64,0,0,1,319.26,30Z"></path>
  <path fill="#fff" d="M306.5,47.22A3.64,3.64,0,0,1,309,49a3.61,3.61,0,0,1,.06,2.32,11.07,11.07,0,0,1-7.72,8c-1.79.48-4,.37-5.14-1.08-.46-.58-.7-1.31-1.19-1.86-1.45-1.65-4.09-1-6.21-.37a28.4,28.4,0,0,1-8.65,1,4.19,4.19,0,0,1-3-1,3.77,3.77,0,0,1-.78-1.62,13.16,13.16,0,0,1,3.26-12.47,10.7,10.7,0,0,1,8.16-3.32,7.87,7.87,0,0,1,6.88,5.09c.32,1,.5,2.15,1.4,2.66a3.15,3.15,0,0,0,1.14.3C300.28,47,303.48,46.4,306.5,47.22Z"></path>
  <path fill="#313131" d="M336.11 109.43a1.7 1.7 0 0 1-.76-.18c-7.59-3.94-5.48-14.72-5.39-15.17a1.65 1.65 0 0 1 3.24.66h0c0 .08-1.7 8.79 3.67 11.57a1.65 1.65 0 0 1-.76 3.12ZM314.62 75.4c-2.09-.17-6.86 1.07-6.32 4 .23 1.27 1.62 1.94 2.88 2.22a9.79 9.79 0 0 0 6.54-.55 4.28 4.28 0 0 0 2.13-2c1.44-3.23-2.8-4-5-3.7M345.6 77.4c2.09.17 6.59 2.16 5.59 5-.43 1.21-1.92 1.65-3.2 1.73a9.87 9.87 0 0 1-6.37-1.6 4.35 4.35 0 0 1-1.78-2.32c-.9-3.42 3.41-3.49 5.51-2.85"></path>
  <path fill="#fff" d="M298.52,88.91a18.72,18.72,0,0,1,11.83-2,14.61,14.61,0,0,1,10.21,6.25S307.49,109.19,298.52,88.91Z"></path>
  <path fill="#313131" d="M309.8,100.83c-5.19,0-9.49-3.79-12.79-11.25a1.66,1.66,0,0,1,.63-2.07,19.57,19.57,0,0,1,9.82-2.45,21.92,21.92,0,0,1,3.12.22,16.17,16.17,0,0,1,11.4,7,1.66,1.66,0,0,1-.14,1.89C321.62,94.48,316.36,100.83,309.8,100.83Zm-9.1-11.16c2.59,5.21,5.64,7.85,9.1,7.85s6.87-2.7,8.63-4.47a13.21,13.21,0,0,0-8.31-4.5,20,20,0,0,0-2.66-.19A17.51,17.51,0,0,0,300.7,89.67Z"></path>
  <path fill="#313131" d="M315.15,95.44a4,4,0,1,0-4.29,3.48A3.89,3.89,0,0,0,315.15,95.44Z"></path>
  <path fill="#fff" d="M360.18,93.89A18.69,18.69,0,0,0,348.83,90a14.62,14.62,0,0,0-11.08,4.53S348.08,112.47,360.18,93.89Z"></path>
  <path fill="#313131" d="M348.74,104h0c-7.38,0-12.22-8.24-12.43-8.59a1.65,1.65,0,0,1,.17-1.88,16.17,16.17,0,0,1,12.38-5.13,20.26,20.26,0,0,1,12.42,4.29,1.64,1.64,0,0,1,.28,2.13C357.59,100.88,353.28,104,348.74,104Zm-8.87-9.19c1.39,1.94,4.73,5.89,8.87,5.89,3.05,0,6.13-2.14,9.16-6.37a18.1,18.1,0,0,0-9.11-2.62h-.32A13.2,13.2,0,0,0,339.87,94.78Z"></path>
  <path fill="#313131" d="M346.6 97a4 4 0 1 1 3.68 4.12A3.91 3.91 0 0 1 346.6 97ZM306.07 107.84a1.74 1.74 0 0 1-.5-.08 1.65 1.65 0 0 1-1.07-2.08l.63-2a1.65 1.65 0 1 1 3.14 1l-.63 2A1.65 1.65 0 0 1 306.07 107.84ZM333.45 120.14a22.36 22.36 0 0 1-14.85-6A1.65 1.65 0 0 1 321 111.8h0a17.88 17.88 0 0 0 19.92 3.37 1.65 1.65 0 0 1 1.35 3A21.43 21.43 0 0 1 333.45 120.14Z"></path>
  <path fill="#eeb857" d="M670.41,352c-.22-8-.53-16.09-.93-24-33.37,6.95-68,8-101-1.6a117.92,117.92,0,0,1-6.89,18.33C596.09,357,634.13,358.34,670.41,352Z"></path>
  <path fill="#313131" d="M628.25,357.37h0c-24,0-46.58-3.73-67.23-11.09a1.63,1.63,0,0,1-.94-2.26A117.47,117.47,0,0,0,566.87,326a1.64,1.64,0,0,1,.78-1,1.7,1.7,0,0,1,1.27-.14,182.49,182.49,0,0,0,50.78,6.92,243.52,243.52,0,0,0,49.44-5.36,1.65,1.65,0,0,1,2,1.53c.4,7.88.71,16,.93,24a1.65,1.65,0,0,1-1.37,1.67A245.77,245.77,0,0,1,628.25,357.37Zm-64.41-13.6a197.09,197.09,0,0,0,64.41,10.3,242.79,242.79,0,0,0,40.47-3.48c-.2-6.91-.46-13.82-.79-20.6A245.6,245.6,0,0,1,619.7,335a186.12,186.12,0,0,1-50.12-6.61A118.77,118.77,0,0,1,563.84,343.77Z"></path>
  <path fill="#bd6d4a" d="M688.91,633.62a38,38,0,0,1-1.74-5.37c-7.86-28.71-32.46-153.51-32.46-153.51h0c.28-.48,9.34-16.32,13.58-48.83.7-5.28,1.22-11.35,1.61-18,.94-16.23,1-35.93.5-55.9-36.28,6.36-74.32,5-108.84-7.26a106.89,106.89,0,0,1-15.5,24c-21.5,25-57.36,50.5-66.18,57.22s-101,62.61-101.44,108.87,10.05,70.93,10.05,70.93a101.68,101.68,0,0,1-28.64-.82c-14.86-2.72-1.28,24.7,18.36,23.11S402.9,630,402.9,630l-.15.1c-2.13,1.43-27.54,19-12.28,26,15.93,7.33,28.78-1.78,32.83,8.2s-1.66,19.48,13.34,19.6,24.14-13.1,31.71-8.15,15.07,11.2,27.18,4,14.76-8.36,28.38-7,22.68-9.93,15.87-16.79-17.12-9.36-17.12-9.36l3.93-25.88s1.18,15.06,11.55,16.24,19.68-2.24,21.29,4.36-9.72,24.27,7.77,26.47,19.23-6.18,26.18-1.91-3.41,15.48,19.32,17.3,40.24,3.37,37.53-7.2c-2.43-9.42-9.65-16-11.2-17.3-.18-.16-.29-.24-.29-.24l.22,0,11-2.63s6.52,12.71,18.84,14,17.82-4.29,17.82-4.29,21.52-.21,23.23-7.94S693.64,643,688.91,633.62Z"></path>
  <path fill="#313131" d="M635,686.12c-6,0-13.51-.6-21.43-1.23l-1-.08c-15-1.2-16.88-6.35-17.74-12.45-.37-2.56-.65-4.06-2.32-5.09a5.67,5.67,0,0,0-3-1,12.39,12.39,0,0,0-4.09,1.08,33,33,0,0,1-12.58,2.43,47,47,0,0,1-5.86-.39c-4.45-.56-7.63-2.15-9.45-4.75-3.09-4.38-1.76-10.42-.58-15.74.64-2.92,1.25-5.67.87-7.22-.55-2.25-2.23-3-6.92-3-1,0-2.12,0-3.26.06-1.3,0-2.64.08-4,.08a48.06,48.06,0,0,1-5.64-.29c-6-.67-9.21-5.16-11-9.45l-2.47,16.25c3.18,1,10.85,3.76,16.44,9.4A9,9,0,0,1,543,665c-2.32,5.58-9.25,9.48-16.85,9.48-.78,0-1.58,0-2.38-.12-3.37-.34-5.77-.49-7.79-.49-7,0-10.51,1.87-19.59,7.27a22,22,0,0,1-11.37,3.5c-6.25,0-11.13-3.26-15.85-6.4l-1.7-1.13a4.92,4.92,0,0,0-2.82-.85c-2.51,0-5.53,1.75-9,3.58-5,2.6-11.18,6-18.78,6h-.2c-11.84-1-12.46-6.15-13.11-12.38a30.18,30.18,0,0,0-1.75-8.49c-1.41-3.48-3.94-4.13-8.72-4.13-.91,0-1.85,0-2.84,0s-2.26,0-3.45,0a39.51,39.51,0,0,1-17-3.34c-3.6-1.66-5.55-4-5.79-7.05-.59-7.41,10-16.18,15.4-20.1a48.18,48.18,0,0,0-11.68-1.13c-2.85,0-6,.13-9.35.41-.59,0-1.19.07-1.78.07-13.38,0-24.67-12.82-24.67-20.87,0-3.58,2.31-5.8,6-5.8a12.65,12.65,0,0,1,2.21.21,93.13,93.13,0,0,0,16.8,1.44c4,0,7.25-.23,9.23-.41-2.46-6.84-9.74-30.39-9.38-69.53.38-41.75,72.35-90.09,96-106,3-2,5.11-3.43,6.1-4.18s2.41-1.81,4.09-3.07c12.85-9.57,42.95-32,61.84-53.92A105.47,105.47,0,0,0,560.08,344a1.65,1.65,0,0,1,2-.85c20.29,7.23,42.54,10.9,66.12,10.9a243.14,243.14,0,0,0,41.87-3.72,1.63,1.63,0,0,1,1.33.35,1.6,1.6,0,0,1,.61,1.23c.57,21.25.39,40.63-.5,56-.4,6.89-.94,13-1.62,18.14-3.88,29.74-11.83,45.8-13.49,48.91,1.86,9.4,24.84,125.49,32.32,152.79a32.38,32.38,0,0,0,1.62,5.06c1.92,3.81,6.38,7.29,10.7,10.66,5.94,4.63,11.55,9,10.38,14.33-1.82,8.24-20.07,9.13-24.21,9.23-1.53,1.26-6.31,4.5-14.85,4.5h0a37.57,37.57,0,0,1-3.78-.2c-11-1.15-17.49-10.45-19.49-13.76l-7,1.68c2.91,2.94,7.75,8.74,9.69,16.23a7.12,7.12,0,0,1-1,6.42C648.62,684.84,643.73,686.12,635,686.12ZM589.52,663a8.78,8.78,0,0,1,4.72,1.48c3.07,1.88,3.49,4.84,3.86,7.44.62,4.38,1.21,8.53,14.73,9.61l1,.08c7.85.63,15.27,1.22,21.17,1.22,7.4,0,11.73-.94,13.23-2.87a4,4,0,0,0,.39-3.57c-2.31-9-9.29-15.28-10.67-16.46l-.26-.21a1.66,1.66,0,0,1,.69-2.9l.22,0,11-2.63a1.67,1.67,0,0,1,1.86.85c.06.12,6.29,11.94,17.54,13.12a33.76,33.76,0,0,0,3.44.18c8.88,0,13-4,13-4a1.68,1.68,0,0,1,1.15-.48c7.82-.08,20.6-1.95,21.64-6.65.72-3.3-4.09-7-9.18-11-4.6-3.59-9.36-7.3-11.62-11.77a32.82,32.82,0,0,1-1.86-5.68c-7.79-28.43-32.24-152.37-32.49-153.62a1.68,1.68,0,0,1,.25-1.24c.81-1.43,9.27-17.05,13.33-48.14.66-5.07,1.2-11.09,1.59-17.9.86-14.86,1-33.45.55-53.85a246.9,246.9,0,0,1-40.56,3.44,199.93,199.93,0,0,1-65.83-10.6,108,108,0,0,1-15.1,23.07c-19.13,22.21-49.43,44.78-62.37,54.41-1.67,1.25-3,2.27-4.06,3.05s-3.24,2.27-6.25,4.29c-23.29,15.65-94.17,63.26-94.54,103.27-.41,45.33,9.81,70,9.92,70.27a1.66,1.66,0,0,1-1.3,2.28,93.77,93.77,0,0,1-11.77.66,96.87,96.87,0,0,1-17.39-1.49,8.94,8.94,0,0,0-1.62-.16c-1.91,0-2.73.75-2.73,2.5,0,5.86,9.24,17.57,21.37,17.57.5,0,1,0,1.51-.07,3.45-.28,6.68-.42,9.62-.42,12,0,15.75,2.36,16.13,2.63a1.65,1.65,0,0,1,0,2.7l-.16.11c-5.9,4-16.88,13-16.42,18.84.14,1.75,1.41,3.16,3.89,4.3a35.73,35.73,0,0,0,15.59,3c1.17,0,2.29,0,3.37-.05s2,0,2.92,0c4.7,0,9.48.47,11.78,6.14a34.7,34.7,0,0,1,2,9.62c.65,6.12,1,8.58,9.85,9.58h.18c6.79,0,12.34-3.22,17.24-5.79,3.89-2,7.24-3.94,10.56-3.94a8.22,8.22,0,0,1,4.63,1.3c.57.38,1.15.72,1.73,1.11,4.5,3,8.76,5.83,14,5.83a18.91,18.91,0,0,0,9.68-3c9.25-5.5,13.32-7.73,21.28-7.73,2.13,0,4.64.15,8.12.49a20.27,20.27,0,0,0,2,.11c7.35,0,12.31-3.86,13.8-7.45a5.81,5.81,0,0,0-1.32-6.64c-6.42-6.46-16.24-8.89-16.34-8.91a1.67,1.67,0,0,1-1.25-1.86L525,620.45a1.64,1.64,0,0,1,1.69-1.4,1.66,1.66,0,0,1,1.59,1.52c0,.14,1.2,13.72,10.09,14.73a46.25,46.25,0,0,0,5.27.27c1.36,0,2.68,0,3.95-.08s2.3-.07,3.36-.07c3.07,0,8.79,0,10.13,5.49.56,2.3-.09,5.28-.86,8.72-1,4.66-2.19,9.94.06,13.13,1.28,1.83,3.63,2.93,7.16,3.37a42.41,42.41,0,0,0,5.45.37,29.55,29.55,0,0,0,11.43-2.23A14.91,14.91,0,0,1,589.52,663Z"></path>
  <path fill="#bd6d4a" d="M669.48,328c-.76-14.95-1.83-29.32-3.12-41.71-4.36-41.95-8.65-47.38-21-61.71s-42.36-25.65-50.81-26.08-16.17,10.25-16.17,10.25-27-13.3-44.65-17.38c-5.34-1.23-9.83-1.63-12.46-.55C510,195.44,511.25,209.19,511,214.4s-6.87,32.24-7.09,49.18,6.83,19.26,15.19,21.65,2.51,14.46,12.13,17.57S545,300.25,552,303.87s2.75,9.92,19,10.75a86.25,86.25,0,0,1-2.57,11.77C601.44,336,636.11,334.94,669.48,328Z"></path>
  <path fill="#313131" d="M619.7,334.86h0a185.68,185.68,0,0,1-51.7-7,1.6,1.6,0,0,1-1.13-2,97.63,97.63,0,0,0,2.25-9.77c-9.82-.83-11.89-3.92-13.9-6.92a9.93,9.93,0,0,0-4-3.88,9,9,0,0,0-4.3-1.07,23.21,23.21,0,0,0-4.08.51,31.22,31.22,0,0,1-5.72.65,20.69,20.69,0,0,1-6.46-1.05c-5.88-1.9-6.9-6.75-7.73-10.65s-1.41-6.07-4.35-6.9c-8.17-2.34-16.62-4.75-16.38-23.26.15-11.51,3.22-27.67,5.25-38.37,1-5.18,1.76-9.27,1.84-10.87,0-.58,0-1.27.06-2,.09-6.46.28-18.48,11.31-23a12.12,12.12,0,0,1,4.6-.75,40.89,40.89,0,0,1,8.85,1.22c15.72,3.63,38.29,14.26,43.8,16.92,2.34-2.87,9.15-10.22,16.74-9.83,9.07.47,39.53,12.16,52,26.66,12.28,14.29,16.87,19.64,21.35,62.61,1.28,12.32,2.36,26.77,3.12,41.79a1.56,1.56,0,0,1-1.31,1.61A246.37,246.37,0,0,1,619.7,334.86Zm-49.22-9.61a183.15,183.15,0,0,0,49.22,6.48,242.78,242.78,0,0,0,48.06-5.08c-.76-14.45-1.81-28.32-3-40.2-4.36-41.94-8.78-47.07-20.56-60.8s-41.23-25.08-49.64-25.51c-7.47-.4-14.68,9.47-14.75,9.56a1.65,1.65,0,0,1-2.07.52c-.27-.13-27-13.26-44.29-17.25-5.46-1.26-9.44-1.47-11.46-.63-9,3.68-9.17,13.89-9.26,20,0,.82,0,1.55-.06,2.17-.09,1.82-.85,5.8-1.89,11.32-2,10.58-5.05,26.57-5.2,37.79-.2,16,6.06,17.77,14,20,5,1.43,5.89,5.66,6.68,9.39s1.45,6.89,5.5,8.2a17.6,17.6,0,0,0,5.45.89,28.08,28.08,0,0,0,5.13-.6A25.25,25.25,0,0,1,547,301a12.26,12.26,0,0,1,5.82,1.44,13,13,0,0,1,5.18,5c1.83,2.73,3.41,5.08,13.15,5.58a1.66,1.66,0,0,1,1.56,1.85A83.82,83.82,0,0,1,570.48,325.25Z"></path>
  <path fill="#7e4e3d" d="M645.33,226.2c10.75-.37,16.65,18.46,22.88,36.71s17,29.88,7.68,34.62-3.88-7-17.35,1.39S647,314.29,635.66,312.73s-27.17-4-20.83-19.65,18.36-27.41,18.06-40.47S633.9,226.59,645.33,226.2Z"></path>
  <path fill="#313131" d="M638.57 314.61a22.63 22.63 0 0 1-3.13-.24c-7.77-1.07-18.4-2.53-22.28-9.25-1.95-3.37-1.9-7.63.14-12.66a119.37 119.37 0 0 1 8.8-16.63c5-8.34 9.31-15.55 9.14-23.18-.2-8.26-.65-27.6 14-28.1 11.48-.38 17.42 17 23.67 35.38l.84 2.44a139.13 139.13 0 0 0 6.37 15c4.67 9.85 8.35 17.63.48 21.61a10.42 10.42 0 0 1-4.54 1.34h0a5.46 5.46 0 0 1-4-1.87c-.76-.72-1.13-1-2-1-1.4 0-3.66 1-6.72 2.89A46.64 46.64 0 0 0 649.18 309C646.22 312.11 643.88 314.61 638.57 314.61Zm7.07-86.77h-.26c-8.11.28-11.25 7.44-10.84 24.72.2 8.59-4.57 16.54-9.61 25a118.06 118.06 0 0 0-8.57 16.17c-1.66 4.1-1.77 7.29-.34 9.77 3.07 5.31 13.18 6.71 19.87 7.63a19.26 19.26 0 0 0 2.68.2c3.88 0 5.32-1.54 8.2-4.6a50.1 50.1 0 0 1 10.89-9.18c3.69-2.32 6.39-3.39 8.47-3.39a5.72 5.72 0 0 1 4.23 1.94c.71.67 1 1 1.73 1a7.45 7.45 0 0 0 3-1c4.59-2.32 3.19-6.34-2-17.25a143.78 143.78 0 0 1-6.51-15.36l-.83-2.45C660.27 244.7 654.54 227.84 645.64 227.84ZM530 206.9a13.86 13.86 0 0 0 3.48-3c.52-6.45.77-11.12.35-12.59-5.34-1.23-9.83-1.63-12.46-.55-7.33 3-9.38 9.82-10 15.67A15.68 15.68 0 0 0 530 206.9Z"></path>
  <path fill="#313131" d="M520.8,211.41h0a16.76,16.76,0,0,1-10.5-3.64,1.63,1.63,0,0,1-.62-1.47c.92-8.8,4.53-14.37,11-17a12.12,12.12,0,0,1,4.6-.75,40.89,40.89,0,0,1,8.85,1.22,1.67,1.67,0,0,1,1.22,1.16c.44,1.54.36,5.1-.29,13.17a1.71,1.71,0,0,1-.39.94,15.61,15.61,0,0,1-3.86,3.27A18,18,0,0,1,520.8,211.41Zm-7.73-5.69a13.57,13.57,0,0,0,7.73,2.38,14.78,14.78,0,0,0,8.23-2.57l.07-.05a12,12,0,0,0,2.73-2.21,104.91,104.91,0,0,0,.48-10.54c-4.89-1-8.47-1.17-10.36-.39C516.91,194.4,514,198.78,513.07,205.72Z"></path>
  <path fill="#7e4e3d" d="M577.06,292.44c-13.68-.38-9.25-16.77-14.13-17s-14.82,9.34-27.21,3.16c-9.58-4.77-4.17-51.37-2.29-74.63a13.86,13.86,0,0,1-3.48,3,15.68,15.68,0,0,1-18.63-.42c-.33,3.18-.24,6.08-.34,7.92-.26,5.2-6.87,32.24-7.09,49.18s6.83,19.26,15.19,21.65,2.51,14.46,12.13,17.57S545,300.25,552,303.87s2.75,9.92,19,10.75c7.57-3.78,22.94-23.34,23.37-23.89C594.17,290.85,590.3,292.81,577.06,292.44Z"></path>
  <path fill="#313131" d="M571,316.28h-.08c-11.39-.58-13.59-3.87-15.72-7a9.88,9.88,0,0,0-4-3.89,8.94,8.94,0,0,0-4.3-1.08,23.21,23.21,0,0,0-4.08.51,30.37,30.37,0,0,1-5.72.65,20.69,20.69,0,0,1-6.46-1.05c-5.88-1.9-6.9-6.75-7.73-10.65s-1.41-6.07-4.35-6.9c-8.17-2.34-16.62-4.75-16.38-23.26.15-11.51,3.22-27.67,5.25-38.37,1-5.18,1.76-9.27,1.84-10.87,0-.59,0-1.28.06-2,0-1.67.05-3.74.29-6a1.64,1.64,0,0,1,2.66-1.12,13.55,13.55,0,0,0,8.46,2.92,14.78,14.78,0,0,0,8.23-2.57l.07-.05a12.06,12.06,0,0,0,3.07-2.6,1.66,1.66,0,0,1,1.89-.46,1.68,1.68,0,0,1,1,1.66c-.22,2.7-.49,5.72-.77,8.94-1.08,12.29-2.43,27.59-2.45,40.35,0,18.64,2.86,22.87,4.59,23.73a17.24,17.24,0,0,0,7.88,1.91c4.55,0,8.67-1.8,12-3.25,2.46-1.07,4.59-2,6.43-2H563c3.08.16,3.82,3.46,4.53,6.65,1.07,4.77,2.28,10.18,9.56,10.38,12.6.35,16.42-1.46,16.56-1.53a1.65,1.65,0,0,1,2,2.5c-1.65,2.1-16.29,20.52-23.94,24.34A1.59,1.59,0,0,1,571,316.28ZM547,301a12.26,12.26,0,0,1,5.82,1.44,13,13,0,0,1,5.18,5c1.8,2.68,3.36,5,12.7,5.56,4.87-2.7,13.39-12.18,19.36-19.41a75.36,75.36,0,0,1-13,.55c-9.85-.27-11.56-7.9-12.69-13-.34-1.51-.91-4-1.47-4.07h-.11c-1.15,0-3.07.84-5.11,1.73-3.59,1.57-8.06,3.52-13.3,3.52a20.73,20.73,0,0,1-9.35-2.25c-8.76-4.37-7-33.07-4-67.33.15-1.67.29-3.28.42-4.82-.2.13-.4.26-.61.38a18,18,0,0,1-10,3.12,16.81,16.81,0,0,1-8-2c0,1.06-.07,2-.08,2.92s0,1.55-.06,2.17c-.09,1.82-.85,5.8-1.89,11.32-2,10.58-5.05,26.57-5.2,37.79-.2,16,6.06,17.77,14,20,5,1.43,5.89,5.66,6.68,9.39s1.45,6.89,5.5,8.2a17.6,17.6,0,0,0,5.45.89,28.08,28.08,0,0,0,5.13-.6A25.25,25.25,0,0,1,547,301Z"></path>
  <path fill="#313131" d="M530.27,240.42c-4.6-1.94-12.41-5.69-13-9-.52-3.06.64-20.24.77-22.19l3.3.23c-.5,7.21-1.16,19.4-.82,21.41.4,1.17,5.54,4.25,11,6.54Z"></path>
  <path fill="#313131" d="M506.67,238l-.15-3.3c6.2-.27,11.25-4.77,11.3-4.81l2.21,2.45C519.79,232.55,514,237.67,506.67,238Z"></path>
  <path fill="#7e4e3d" d="M612.7,683.16c-22.73-1.82-12.38-13-19.32-17.3s-8.69,4.12-26.18,1.91-6.15-19.87-7.77-26.47-10.91-3.17-21.29-4.36-11.55-16.24-11.55-16.24l-3.93,25.88s10.29,2.49,17.12,9.36-2.24,18.13-15.87,16.79-16.28-.2-28.38,7-19.61.95-27.18-4-16.73,8.27-31.71,8.15-9.29-9.61-13.34-19.6-16.9-.87-32.83-8.2c-15.26-7,10.15-24.56,12.28-26,6.73.57,23.5,2,41,3.95,22.7,2.48,14.16,16.38,31.4,10.75s6.95-21.15,23-28.81c15.76-7.51,22.68-2.29,24-22.44a33.16,33.16,0,0,0-4.28-5.23c-8.05-8.23-19.69-10.14-20.44-33.65s19.85-56.34,19.85-56.34,1.93,64,15.16,60.09,14.26-11,19.73,9.5.55,39.8,13.63,39.16,23.76-18.34,28,1.44.57,39.8,13.09,37.19,31.94,12.72,31.94,12.72.11.08.29.24c1.55,1.32,8.77,7.88,11.2,17.3C652.94,686.53,635.42,685,612.7,683.16Z"></path>
  <path fill="#313131" d="M635,686.12c-6,0-13.51-.6-21.43-1.23l-1-.08c-15-1.2-16.88-6.35-17.74-12.45-.37-2.56-.65-4.06-2.32-5.09a5.67,5.67,0,0,0-3-1,12.39,12.39,0,0,0-4.09,1.08,33,33,0,0,1-12.58,2.43,47,47,0,0,1-5.86-.39c-4.45-.56-7.63-2.15-9.45-4.75-3.09-4.38-1.76-10.42-.58-15.74.64-2.92,1.25-5.67.87-7.22-.55-2.25-2.23-3-6.92-3-1,0-2.12,0-3.26.06-1.3,0-2.64.08-4,.08a48.06,48.06,0,0,1-5.64-.29c-6-.67-9.21-5.16-11-9.45l-2.47,16.25c3.18,1,10.85,3.76,16.44,9.4A9,9,0,0,1,543,665c-2.33,5.58-9.25,9.48-16.85,9.48-.78,0-1.58,0-2.38-.12-3.37-.34-5.77-.49-7.79-.49-7,0-10.51,1.87-19.59,7.27a22,22,0,0,1-11.37,3.5c-6.25,0-11.13-3.25-15.85-6.4l-1.7-1.13a5,5,0,0,0-2.82-.85c-2.51,0-5.53,1.75-9,3.58-5,2.6-11.17,6-18.77,6h-.2c-11.84-1-12.46-6.15-13.11-12.38a30.18,30.18,0,0,0-1.75-8.49c-1.41-3.48-3.94-4.13-8.72-4.13-.91,0-1.85,0-2.84,0s-2.26,0-3.45,0a38.86,38.86,0,0,1-17-3.34c-3.6-1.66-5.55-4-5.79-7.05-.71-8.89,14.74-19.74,17.84-21.82a1.68,1.68,0,0,1,1.06-.28c5,.42,22.6,1.95,41.05,4,11.69,1.28,15.67,5.58,18.57,8.71,1.94,2.1,3.11,3.36,5.93,3.36a20.86,20.86,0,0,0,6.2-1.25c8.05-2.63,9.42-7.45,11-13s3.33-11.67,11.78-15.7a74.44,74.44,0,0,1,11.14-4.14c7.91-2.41,10.94-3.33,11.84-16.36a32.2,32.2,0,0,0-3.77-4.52,50.55,50.55,0,0,0-5.84-4.91c-7.11-5.42-14.47-11-15.07-29.85C495,531,515,498.8,515.84,497.44a1.65,1.65,0,0,1,3,.83c0,.15.48,15.17,2.42,30,3.5,26.6,8.5,28.67,10,28.67a2.38,2.38,0,0,0,.68-.1,57,57,0,0,0,7.09-2.69c2.27-1,4.06-1.79,5.75-1.79,4.23,0,6.1,4.46,9,15.13a120.7,120.7,0,0,1,3.13,20c1.17,12.11,2.1,18.26,8.82,17.92,4.21-.2,8.35-2.44,12-4.42,3.44-1.86,6.42-3.47,9.27-3.47,5.49,0,7.41,6.07,8.38,10.64a149.6,149.6,0,0,1,2.35,17.49c1.1,11.89,2,18.61,7.05,18.61a8.63,8.63,0,0,0,1.74-.19,16.82,16.82,0,0,1,3.4-.34c12.81,0,29.2,12.84,29.9,13.38l.32.27c1.52,1.3,9.18,8.24,11.74,18.15a7.12,7.12,0,0,1-1,6.42C648.62,684.84,643.73,686.12,635,686.12ZM589.52,663a8.78,8.78,0,0,1,4.72,1.48c3.07,1.88,3.49,4.84,3.86,7.44.62,4.38,1.21,8.53,14.73,9.61l1,.08c7.85.63,15.27,1.22,21.17,1.22,7.4,0,11.72-.94,13.23-2.87a4,4,0,0,0,.39-3.57c-2.31-9-9.29-15.28-10.67-16.46l-.26-.21c-.14-.11-16.17-12.65-27.83-12.65a14,14,0,0,0-2.73.26,11.55,11.55,0,0,1-2.41.27c-8.33,0-9.26-10-10.34-21.61a149.21,149.21,0,0,0-2.29-17.12c-1.7-8-4.21-8-5.15-8-2,0-4.78,1.5-7.7,3.08-4,2.14-8.45,4.57-13.41,4.81l-.7,0c-9.55,0-10.48-9.7-11.57-20.92a118.47,118.47,0,0,0-3-19.49c-2.46-9.24-4-12.68-5.75-12.68a14.23,14.23,0,0,0-4.42,1.51,58.36,58.36,0,0,1-7.49,2.84,5.66,5.66,0,0,1-1.61.24c-3.89,0-9.5-3.28-13.22-31.57-1.24-9.41-1.89-18.9-2.2-24.69-5.55,9.9-17.35,33.12-16.79,50.63.54,17.25,7,22.14,13.76,27.32a53.39,53.39,0,0,1,6.2,5.23,35.19,35.19,0,0,1,4.49,5.48,1.69,1.69,0,0,1,.26,1c-1,15.17-5.3,17.15-14.22,19.87a72.05,72.05,0,0,0-10.68,4c-7.1,3.39-8.52,8.36-10,13.63-1.69,5.94-3.45,12.09-13.16,15.26a23.93,23.93,0,0,1-7.23,1.41c-4.26,0-6.25-2.14-8.35-4.41-2.69-2.91-6-6.53-16.51-7.67-17.75-1.94-34.74-3.43-40.38-3.91-6,4.1-16.37,12.78-15.92,18.5.14,1.75,1.41,3.16,3.89,4.3a35.73,35.73,0,0,0,15.59,3c1.17,0,2.29,0,3.37-.05s2,0,2.92,0c4.7,0,9.48.47,11.78,6.14a34.7,34.7,0,0,1,2,9.62c.65,6.12,1,8.58,9.85,9.58h.18c6.79,0,12.34-3.22,17.24-5.79,3.89-2,7.24-3.94,10.56-3.94a8.22,8.22,0,0,1,4.63,1.3c.57.38,1.15.72,1.73,1.11,4.5,3,8.76,5.83,14,5.83a18.88,18.88,0,0,0,9.68-3c9.25-5.5,13.32-7.73,21.28-7.73,2.13,0,4.64.15,8.12.49a20.27,20.27,0,0,0,2,.11c7.35,0,12.3-3.86,13.8-7.45a5.81,5.81,0,0,0-1.32-6.64c-6.42-6.46-16.24-8.89-16.34-8.91a1.67,1.67,0,0,1-1.25-1.86L525,620.45a1.64,1.64,0,0,1,1.69-1.4,1.66,1.66,0,0,1,1.59,1.52c0,.14,1.2,13.72,10.09,14.73a46.25,46.25,0,0,0,5.27.27c1.36,0,2.68,0,3.95-.08s2.3-.07,3.36-.07c3.07,0,8.79,0,10.13,5.49.56,2.3-.09,5.28-.86,8.72-1,4.66-2.19,9.94.06,13.13,1.28,1.83,3.63,2.93,7.16,3.37a42.41,42.41,0,0,0,5.45.37,29.55,29.55,0,0,0,11.43-2.23A14.91,14.91,0,0,1,589.52,663Z"></path>
  <path fill="#7e4e3d" d="M709.85,657.51c-1.71,7.73-23.23,7.94-23.23,7.94s-5.5,5.58-17.82,4.29-18.84-14-18.84-14l-11,2.63c-1.39-5.59-22.88-92-23.06-100.87-.18-9.14,3.92-12.84,3.92-12.84S631.69,542,635,554.57s-.68,38.42,9.43,44.81,12.53,9.78,23.05,20.74c4.78,5,12.53,7.16,19.73,8.13a38,38,0,0,0,1.74,5.37C693.64,643,711.55,649.77,709.85,657.51Z"></path>
  <path fill="#313131" d="M672.41,671.59a37.57,37.57,0,0,1-3.78-.2c-11-1.15-17.49-10.45-19.49-13.76l-9.8,2.35a1.64,1.64,0,0,1-2-1.21l-.16-.62c-5.34-21.54-22.79-92.47-23-100.62-.18-9.78,4.29-13.92,4.48-14.09a1.61,1.61,0,0,1,.74-.39,14.73,14.73,0,0,1,3-.27c3.36,0,11.46,1.11,14.13,11.37,1.16,4.48,1.44,10.4,1.73,16.66.5,11,1.08,23.44,7,27.17,8.66,5.48,11.87,8.87,18.88,16.29,1.33,1.41,2.8,3,4.48,4.71,3.74,3.89,10,6.46,18.76,7.63a1.66,1.66,0,0,1,1.38,1.2,32.38,32.38,0,0,0,1.62,5.06c1.92,3.81,6.38,7.29,10.7,10.66,5.94,4.63,11.55,9,10.38,14.33-1.82,8.24-20.07,9.13-24.21,9.23C685.73,668.35,681,671.59,672.41,671.59ZM650,654.09a1.65,1.65,0,0,1,1.47.89c.06.12,6.29,11.94,17.54,13.12a33.76,33.76,0,0,0,3.44.18c8.88,0,13-4,13-4a1.68,1.68,0,0,1,1.15-.48c7.82-.08,20.6-1.95,21.64-6.65.72-3.3-4.09-7-9.18-11-4.6-3.59-9.36-7.3-11.62-11.77a27.5,27.5,0,0,1-1.57-4.63c-8.92-1.34-15.52-4.19-19.62-8.46-1.69-1.76-3.16-3.32-4.5-4.73-7-7.43-9.93-10.51-18.24-15.76-7.37-4.66-8-17.45-8.52-29.81-.29-6.09-.55-11.84-1.63-16-1.91-7.35-7-8.9-10.93-8.9a14.2,14.2,0,0,0-1.79.12c-.84,1-3.22,4.41-3.09,11.27.12,6.15,11.72,54.94,22.62,98.91l9.4-2.25A1.72,1.72,0,0,1,650,654.09Z"></path>
  <path fill="#7e4e3d" d="M669.91,407.88c-.39,6.67-.91,12.74-1.61,18-4.24,32.51-13.3,48.35-13.58,48.83h0l-34.89,69.92s-10-33.76-15.55-39.91-17.65-24.38-14.4-49.64,11.23-53.54,26.47-45.58,15.22-4.44,33.6-6.75C657.08,401.88,664.06,404.43,669.91,407.88Z"></path>
  <path fill="#313131" d="M619.82,546.32h-.14a1.65,1.65,0,0,1-1.44-1.18c-2.75-9.29-10.85-34.46-15.19-39.28-1.92-2.12-18.6-21.58-14.82-51,2.33-18.07,8.42-48.39,23-48.39a12.59,12.59,0,0,1,5.83,1.56c3.15,1.64,5.76,2.44,8,2.44h0c2.94,0,5.24-1.4,8.14-3.17a37.91,37.91,0,0,1,16.52-6.2c6.54-.82,13.66,1,21,5.32a1.66,1.66,0,0,1,.81,1.51c-.4,6.89-.94,13-1.62,18.14-4.25,32.61-13.4,48.77-13.79,49.44v0L621.3,545.4A1.67,1.67,0,0,1,619.82,546.32Zm-8.55-136.5c-8.7,0-16.09,17-19.76,45.5a62.73,62.73,0,0,0,14,48.32c4.62,5.12,11.84,27.36,14.7,36.58l33-66.22.11-.18c.8-1.43,9.27-17.05,13.33-48.14.63-4.82,1.14-10.49,1.53-16.88-6.4-3.6-12.5-5.08-18.06-4.38-7.33.92-11.51,3.48-15.21,5.74-3.21,2-6,3.66-9.86,3.66h0c-2.79,0-5.81-.9-9.49-2.82A9.32,9.32,0,0,0,611.27,409.82Z"></path>
  <path fill="#fff" d="M602.69,231.32s.64-18.16-8.81-19.51S583,221.93,583,221.93,582.46,231.72,602.69,231.32Z"></path>
  <path fill="#313131" d="M601.49,233h0c-8.39,0-14.32-1.76-17.63-5.25a8.43,8.43,0,0,1-2.55-5.88s0-.09,0-.13c.52-4,3.48-11.67,11-11.67a13.05,13.05,0,0,1,1.74.12c10.8,1.55,10.26,20.41,10.23,21.21a1.65,1.65,0,0,1-1.62,1.59Zm-16.88-10.92a5.52,5.52,0,0,0,1.74,3.49c1.82,1.85,5.85,4.06,14.7,4.13-.11-5.37-1.52-15.39-7.41-16.23a8,8,0,0,0-1.27-.1C586.1,213.35,584.75,221.1,584.61,222.06Z"></path>
  <circle cx="590.69" cy="219.62" r="6.16" fill="#313131"></circle>
  <path fill="#313131" d="M590.7,227.44h-.41a7.82,7.82,0,1,1,.41,0Zm0-12.33a4.51,4.51,0,0,0-3.34,7.53,4.44,4.44,0,0,0,3.11,1.49,4.51,4.51,0,0,0,.47-9Z"></path>
  <path fill="#7e4e3d" d="M590,209.35c1.56,1.55,4.15,1.7,5.59,3.36,1.18,1.37,1.24,3.38,2.09,5a8.13,8.13,0,0,0,4.84,3.59c1.95.63,4,.85,6,1.39a8.06,8.06,0,0,0,3.83.5c2.06-.48,3.2-2.87,3-5s-1.35-4-2.49-5.78l-4.22-6.66c-1.75-2.75-3.62-5.62-6.51-7.13a9.71,9.71,0,0,0-12.63,4C588.37,204.75,588.25,207.65,590,209.35Z"></path>
  <path fill="#313131" d="M611.46 224.92h0a10.67 10.67 0 0 1-2.92-.53l-.48-.13c-.8-.21-1.61-.37-2.48-.54a33.14 33.14 0 0 1-3.61-.87 9.81 9.81 0 0 1-5.79-4.38 12.26 12.26 0 0 1-.9-2.41 6.38 6.38 0 0 0-1-2.27 6.23 6.23 0 0 0-2.28-1.34 9.75 9.75 0 0 1-3.22-1.92c-2.39-2.38-2.08-6.17-.78-8.68A11.26 11.26 0 0 1 598 196a10.56 10.56 0 0 1 4.84 1.15c3.35 1.76 5.45 5.06 7.13 7.71l4.23 6.67c1.12 1.76 2.51 4 2.74 6.51.24 2.76-1.29 6-4.29 6.73A5.45 5.45 0 0 1 611.46 224.92ZM598 199.31a8.06 8.06 0 0 0-7.09 4.06c-.79 1.52-1 3.66.18 4.81a7.1 7.1 0 0 0 2.19 1.23 9.06 9.06 0 0 1 3.48 2.22 8.88 8.88 0 0 1 1.64 3.49 10.44 10.44 0 0 0 .66 1.8A6.59 6.59 0 0 0 603 219.7a26.45 26.45 0 0 0 3.24.77c.88.18 1.79.36 2.7.6l.51.14a8 8 0 0 0 2 .4h0a1.77 1.77 0 0 0 .48-.05c1.19-.27 1.87-1.89 1.75-3.22a12.2 12.2 0 0 0-2.24-5l-4.23-6.67c-1.55-2.44-3.3-5.2-5.87-6.55A7.18 7.18 0 0 0 598 199.31ZM582 267.52a15.15 15.15 0 0 1-9.11-2.74 21 21 0 0 1-2.45-2.22c-.55-.55-1.08-1.08-1.64-1.55-.75-.63-2.23-1.65-3.64-1.39a7.46 7.46 0 0 0-1.38.49c-.27.11-.54.23-.82.33a11.32 11.32 0 0 1-13.85-5.83 1.65 1.65 0 0 1 3-1.32 8 8 0 0 0 9.65 4.06c.23-.08.46-.18.69-.28a9.49 9.49 0 0 1 2.09-.7 7.87 7.87 0 0 1 6.35 2.11c.67.56 1.28 1.16 1.86 1.75a20.11 20.11 0 0 0 2.08 1.9 12.27 12.27 0 0 0 7.81 2.08 35.42 35.42 0 0 0 8.74-1.82 1.65 1.65 0 0 1 1 3.16 38 38 0 0 1-9.57 2ZM573.75 540.41c-4.57 0-8.81-3.41-11-7.37a37.93 37.93 0 0 1-3.23-9.4c-.36-1.47-.74-3-1.19-4.43-.93-2.94-3.14-8.09-7.58-9.53a17.1 17.1 0 0 0-4.29-.58 23.8 23.8 0 0 1-4.37-.53c-5.31-1.31-9.7-6.29-11.18-12.7-1.29-5.56-.48-11.38.24-16.51l1.92-13.71a1.66 1.66 0 1 1 3.28.46l-1.93 13.71c-.71 5.08-1.45 10.34-.29 15.31 1.2 5.2 4.64 9.22 8.76 10.23a20.94 20.94 0 0 0 3.75.44 20 20 0 0 1 5.12.74c4.34 1.4 7.79 5.55 9.72 11.68.48 1.54.87 3.11 1.25 4.63a35 35 0 0 0 2.92 8.6c1.89 3.45 5.94 6.52 9.69 5.43a1.65 1.65 0 1 1 .92 3.17A8.87 8.87 0 0 1 573.75 540.41ZM407.57 586.86h-.41a1.58 1.58 0 0 1-1.65-1.56 1.61 1.61 0 0 1 1.65-1.6l.41 0c7.25 0 13.28-.36 19-2.15 6.72-2.09 12-6 14.76-11a39.33 39.33 0 0 0 3-7.61c.5-1.6 1-3.24 1.64-4.84 1.55-4 4.53-9 9.86-10.62a20.14 20.14 0 0 1 6.84-.46 25.71 25.71 0 0 0 4.12 0c5.35-.57 10.32-4.89 12.68-11 2.3-5.95 2.09-12.68 1.57-18.48a1.65 1.65 0 1 1 3.29-.29c.55 6.18.77 13.38-1.78 20-2.79 7.25-8.84 12.39-15.4 13.1a30 30 0 0 1-4.64 0 17.17 17.17 0 0 0-5.74.33c-4.27 1.26-6.67 6-7.73 8.65-.58 1.5-1.08 3.09-1.56 4.62a42.59 42.59 0 0 1-3.22 8.25c-3.22 5.74-9.14 10.09-16.67 12.43C421.44 586.55 415.12 586.86 407.57 586.86ZM399.35 521.9a1.66 1.66 0 0 1-.07-3.31 55.23 55.23 0 0 0 38.27-18.36l1.17-1.36c2.52-2.95 5.12-6 9-7.33 3-1 6-.78 8.92-.54a31.59 31.59 0 0 0 5.11.14c5.11-.44 10.16-3.72 13.85-9 3.42-4.91 5.35-10.78 7.21-16.46a1.65 1.65 0 0 1 3.14 1c-1.94 5.91-3.94 12-7.64 17.32-4.25 6.1-10.19 9.89-16.28 10.41a33.28 33.28 0 0 1-5.66-.14c-2.71-.22-5.26-.42-7.57.38-3 1-5.2 3.61-7.54 6.35l-1.2 1.39a58.6 58.6 0 0 1-40.61 19.48ZM519.36 370.29h0a6.7 6.7 0 0 0 .36-9.48l-24.4-26.29a8.75 8.75 0 0 0-12.37-.46L418.69 393.7l-9.12 8.46-10.79 10c-10.78 10-22.46 19.29-35.81 25.45a12.54 12.54 0 1 0 13.83 20.55 12.86 12.86 0 0 0 1.73-2c6.59-9.46 13.52-18.68 22-26.52l18.59-17.24 20.83 22.44a6.71 6.71 0 0 0 9.48.35h0L424 407.9a3.55 3.55 0 0 1 .18-5L489 342.78a3.54 3.54 0 0 1 5 .18Z"></path>
  <path fill="#313131" d="M452.27 432.51a1.64 1.64 0 0 1-1.26-.59l-26.23-31.18a1.66 1.66 0 0 1 .21-2.33 1.64 1.64 0 0 1 2.32.2l26.23 31.18a1.66 1.66 0 0 1-1.27 2.72ZM458.88 425.9a1.63 1.63 0 0 1-1.26-.59l-26.23-31.18a1.67 1.67 0 0 1 .2-2.33 1.65 1.65 0 0 1 2.33.2l26.23 31.18a1.66 1.66 0 0 1-1.27 2.72ZM466.32 420.12a1.66 1.66 0 0 1-1.27-.59l-26.22-31.18a1.65 1.65 0 1 1 2.52-2.13l26.23 31.18a1.66 1.66 0 0 1-1.26 2.72ZM472.92 413.51a1.64 1.64 0 0 1-1.26-.59l-26.23-31.18a1.66 1.66 0 0 1 .21-2.33 1.64 1.64 0 0 1 2.32.2l26.23 31.18a1.66 1.66 0 0 1-1.27 2.72ZM479.53 407.73a1.63 1.63 0 0 1-1.26-.59L452 376a1.65 1.65 0 0 1 2.53-2.13L480.8 405a1.66 1.66 0 0 1-.21 2.33A1.62 1.62 0 0 1 479.53 407.73ZM486.14 401.12a1.63 1.63 0 0 1-1.26-.59l-26.23-31.18a1.65 1.65 0 0 1 2.53-2.13L487.4 398.4a1.66 1.66 0 0 1-1.26 2.72ZM492.75 394.51a1.66 1.66 0 0 1-1.27-.59l-26.22-31.18a1.65 1.65 0 0 1 2.53-2.13L494 391.79a1.66 1.66 0 0 1-1.26 2.72ZM499.36 387.9a1.66 1.66 0 0 1-1.27-.59l-26.22-31.18a1.65 1.65 0 1 1 2.52-2.12l26.23 31.18a1.64 1.64 0 0 1-.2 2.32A1.6 1.6 0 0 1 499.36 387.9ZM506 382.12a1.64 1.64 0 0 1-1.26-.59l-26.23-31.18a1.65 1.65 0 0 1 2.53-2.13l26.23 31.19a1.65 1.65 0 0 1-1.27 2.71ZM512.57 375.51a1.63 1.63 0 0 1-1.26-.59l-26.23-31.18a1.65 1.65 0 1 1 2.53-2.12l26.23 31.18a1.65 1.65 0 0 1-.21 2.32A1.58 1.58 0 0 1 512.57 375.51Z"></path>
  <path fill="#f0c7c0" d="M630.55,189.63l-13.67,14.9c-2.44,2.66-1.37,7.83,2.39,11.56,3.12,3.09,7.09,4.18,9.75,2.95-1.23,2.83,0,7.06,3.21,10.24a10.61,10.61,0,0,0,7.92,3.43c-.27,2.66,1,5.94,3.62,8.53,3.16,3.13,7.2,4.21,9.86,2.9a10,10,0,0,0,3.25,7.72c3.37,3.34,7.87,4.12,10.06,1.74l12.25-13.36a4.43,4.43,0,0,0,1.08-2.25c.44-2.45-.73-5.63-3.22-8.11-2.36-2.33-5.25-3.38-7.54-3a5,5,0,0,0,.35-1.1c.5-2.74-.81-6.29-3.59-9.05a10.58,10.58,0,0,0-7.94-3.42c.27-2.66-1-5.94-3.6-8.54-3.12-3.09-7.08-4.17-9.75-2.95a5.33,5.33,0,0,0,.38-1.19c.5-2.74-.81-6.29-3.59-9.05C638,187.84,633,187,630.55,189.63Z"></path>
  <path fill="#313131" d="M663.51,256.63a11.44,11.44,0,0,1-7.79-3.59,12.63,12.63,0,0,1-3.65-6.75c-.31,0-.62.05-.94.05a12.5,12.5,0,0,1-8.52-3.93,13.65,13.65,0,0,1-4.1-8.09,14.1,14.1,0,0,1-11.6-13.14,12.35,12.35,0,0,1-8.8-3.92c-4.45-4.41-5.52-10.49-2.45-13.85l13.67-14.89a6.63,6.63,0,0,1,5-2.08,12.54,12.54,0,0,1,8.56,4,13,13,0,0,1,4.19,9.27,12.33,12.33,0,0,1,8.77,3.92,13.62,13.62,0,0,1,4.08,8.1,13,13,0,0,1,7.46,3.86c2.87,2.84,4.41,6.47,4.17,9.68a11.9,11.9,0,0,1,6.61,3.48c2.84,2.81,4.25,6.48,3.68,9.58a6,6,0,0,1-1.48,3.07l-12.26,13.36A6.19,6.19,0,0,1,663.51,256.63Zm-9.88-14.14a1.62,1.62,0,0,1,1,.3,1.67,1.67,0,0,1,.7,1.54c-.23,2,.86,4.47,2.76,6.36a8.3,8.3,0,0,0,5.47,2.64,3,3,0,0,0,2.21-.85L678,239.13a2.77,2.77,0,0,0,.67-1.43c.36-2-.75-4.65-2.76-6.64a8.15,8.15,0,0,0-5.43-2.61,4.8,4.8,0,0,0-.67.05,1.64,1.64,0,0,1-1.56-.6,1.66,1.66,0,0,1-.23-1.66,4.6,4.6,0,0,0,.25-.77c.41-2.26-.85-5.31-3.13-7.58-2-2-4.55-3.13-6.64-2.95a1.63,1.63,0,0,1-1.32-.49,1.65,1.65,0,0,1-.46-1.32c.23-2.3-1-5-3.12-7.19a9.36,9.36,0,0,0-6.19-3,4.21,4.21,0,0,0-1.71.34,1.65,1.65,0,0,1-2.2-2.16,4,4,0,0,0,.27-.83c.41-2.26-.85-5.31-3.14-7.58a9.44,9.44,0,0,0-6.23-3,3.45,3.45,0,0,0-2.6,1l-13.67,14.9c-1.81,2-.74,6.22,2.34,9.27a9.35,9.35,0,0,0,6.18,3,4,4,0,0,0,1.71-.34,1.65,1.65,0,0,1,2.21,2.16c-1,2.26.22,5.79,2.86,8.41,2,2,4.53,3.12,6.61,2.95a1.65,1.65,0,0,1,1.78,1.81c-.23,2.29,1,5,3.15,7.2a9.34,9.34,0,0,0,6.19,3,3.94,3.94,0,0,0,1.77-.38A1.77,1.77,0,0,1,653.63,242.49Z"></path>
  <path fill="#313131" d="M629 221.52a2.47 2.47 0 0 1-1.8-4.18l13.83-14.71a2.48 2.48 0 0 1 3.61 3.39l-13.83 14.72A2.48 2.48 0 0 1 629 221.52ZM640.63 235.84a2.48 2.48 0 0 1-1.65-4.32l7.59-6.81a2.48 2.48 0 1 1 3.31 3.69l-7.6 6.81A2.47 2.47 0 0 1 640.63 235.84ZM652.63 247a2.48 2.48 0 0 1-1.77-4.21L667.29 226a2.48 2.48 0 1 1 3.54 3.46L654.4 246.25A2.5 2.5 0 0 1 652.63 247ZM143.11 288.31s9.54-14.19 54.14-1 46.67 25.6 46.67 25.6 3.3 6.2-18.17 1.66S144 289.82 144 289.82Z"></path>
  <path fill="#f0c7c0" d="M394.7,429.37a35.57,35.57,0,0,1,11.67,4.14c6.05,3.42,16.57,4.28,17.56-3.94s-17-13.18-22.64-15.9-31.54-8.78-42.37-10c-8.25-.95-22.71,4.93-34.83,11l-.88,0v0L219.14,374.89l16.52-68.55s-23.13-21.89-78.47-22.83c0,0-26.34,90.69-20.65,120.29,6,31.35,94.32,59.17,141.6,71.92,8.48,3,22.89,8.89,24.82,8.81a62.69,62.69,0,0,0,12.59,4.76c10.85,2.76,30.61-8.82,31.81-8.74s8.35,2.79,18.39,5.66,17.25,2.86,21.11-.49a12.36,12.36,0,0,0,4.1-8c19,5.94,19-11,19-11s8.26,3.49,12.92-6.68-17.39-20.58-26.44-23.46-21.51-6.91-21.51-6.91C379.87,427.67,394.7,429.37,394.7,429.37Z"></path>
  <path fill="#313131" d="M319.28,491.37a16.6,16.6,0,0,1-4.13-.48,63,63,0,0,1-12.63-4.73c-1.81-.23-6.17-1.83-14.91-5.15-3.49-1.32-7.09-2.69-10-3.71-50.7-13.68-136.6-41.36-142.72-73.19-5.71-29.65,19.6-117.34,20.68-121.06a1.66,1.66,0,0,1,1.59-1.19h0c55.34,1,78.61,22.36,79.57,23.27a1.66,1.66,0,0,1,.47,1.59l-16.18,67.15,102.53,39.05h.12C334,407.84,348,401.88,357,401.88a19.85,19.85,0,0,1,2.09.11c10.64,1.24,36.76,7.23,42.89,10.19,1.05.5,2.6,1.11,4.39,1.82,8,3.14,20.12,7.89,19.17,15.77-.59,4.93-4.33,7.87-10,7.87a21.29,21.29,0,0,1-10-2.69A34.08,34.08,0,0,0,394.49,431a109.84,109.84,0,0,0-11.05-.65h-1.2c4.32,1.4,10,3.21,14.66,4.71,5.82,1.85,23.34,9.19,27.38,18.32a8.68,8.68,0,0,1,.06,7.4C421.06,468,416,469,413.23,469h0a11.23,11.23,0,0,1-1.84-.15,15,15,0,0,1-3.9,8.31c-3.43,3.43-8.58,4.36-15.22,2.67A14,14,0,0,1,388,487c-2.28,2-5.56,3-9.74,3a48.2,48.2,0,0,1-12.91-2.16c-5.45-1.55-10-3-13.31-4.13-2-.64-3.84-1.26-4.56-1.42-.48.19-1.58.7-2.64,1.21C339.33,486,328,491.37,319.28,491.37ZM303,482.88a1.46,1.46,0,0,1,.7.18A60.29,60.29,0,0,0,316,487.69a13.43,13.43,0,0,0,3.32.37c8,0,18.86-5.13,24.1-7.6,2.89-1.37,3.41-1.61,4.1-1.56a34.74,34.74,0,0,1,5.53,1.62c3.3,1.08,7.8,2.56,13.2,4.1,9.61,2.74,16.31,2.69,19.57-.15a10.78,10.78,0,0,0,3.53-6.81,1.65,1.65,0,0,1,2.14-1.48c6.19,1.94,10.88,1.5,13.7-1.33,3.09-3.1,3.12-8,3.12-8.06a1.65,1.65,0,0,1,2.3-1.52,7.76,7.76,0,0,0,2.66.45c3.47,0,6.19-2.12,8.11-6.3a5.44,5.44,0,0,0-.09-4.69c-3.28-7.42-18.49-14.32-25.35-16.51-9-2.88-21.52-6.91-21.52-6.91a1.65,1.65,0,0,1-.12-3.1c1.86-.77,4.87-1.15,9.18-1.15a113.27,113.27,0,0,1,11.45.67,37,37,0,0,1,12.29,4.34,17.79,17.79,0,0,0,8.39,2.26c2.79,0,6.23-.86,6.72-5,.64-5.34-10.46-9.7-17.09-12.3-1.86-.73-3.46-1.36-4.62-1.92-5.38-2.6-30.8-8.6-41.85-9.88a14.93,14.93,0,0,0-1.7-.09c-6.75,0-17.89,3.77-32.2,10.89a1.66,1.66,0,0,1-.79.17l-.88,0a1.59,1.59,0,0,1-.8-.24L218.55,376.44a1.66,1.66,0,0,1-1-1.93l16.29-67.58c-4.22-3.47-27.49-20.64-75.39-21.74-3.09,10.88-25.47,91.27-20.27,118.3,6,31.2,100.19,59.79,140.41,70.64l.12,0c2.92,1,6.56,2.41,10.09,3.75,5.44,2.06,12.9,4.89,14.16,5Z"></path>
  <path fill="#f9aad7" d="M391,477.76c-6.12-4.82-31-10.87-31-10.87"></path>
  <path fill="#333" d="M391,479.41a1.63,1.63,0,0,1-1-.36c-4.79-3.77-23.53-8.89-30.35-10.55a1.65,1.65,0,1,1,.79-3.21c1,.25,25.27,6.18,31.6,11.17a1.65,1.65,0,0,1-1,3Z"></path>
  <path fill="#f9aad7" d="M410.42,466.28S398.59,458,388.57,454.8s-19.81-5.29-19.81-5.29"></path>
  <path fill="#333" d="M410.42,467.93a1.6,1.6,0,0,1-.95-.3c-.12-.08-11.74-8.21-21.4-11.26-9.83-3.1-19.57-5.22-19.66-5.24a1.65,1.65,0,1,1,.69-3.23c.1,0,10,2.17,20,5.32,10.15,3.21,21.81,11.37,22.3,11.71a1.65,1.65,0,0,1-.95,3Z"></path>
  <line x1="342.5" x2="333.02" y1="462.18" y2="458.59" fill="#f9aad7"></line>
  <path fill="#333" d="M342.5,463.83a1.7,1.7,0,0,1-.59-.1l-9.48-3.6A1.65,1.65,0,0,1,333.6,457l9.48,3.6a1.65,1.65,0,0,1-.58,3.19Z"></path>
  <line x1="342.98" x2="331.98" y1="455.01" y2="465.56" fill="#f9aad7"></line>
  <path fill="#333" d="M332,467.21a1.65,1.65,0,0,1-1.14-2.84l11-10.56a1.65,1.65,0,0,1,2.28,2.39l-11,10.55A1.63,1.63,0,0,1,332,467.21Z"></path>
  <line x1="347.32" x2="337.84" y1="441.4" y2="437.81" fill="#f9aad7"></line>
  <path fill="#333" d="M347.32,443.05a1.51,1.51,0,0,1-.59-.11l-9.48-3.59a1.65,1.65,0,0,1,1.17-3.09l9.48,3.59a1.65,1.65,0,0,1-.58,3.2Z"></path>
  <line x1="347.8" x2="336.8" y1="434.22" y2="444.78" fill="#f9aad7"></line>
  <path fill="#333" d="M336.8,446.43a1.64,1.64,0,0,1-1.19-.51,1.66,1.66,0,0,1,.05-2.34l11-10.55a1.66,1.66,0,0,1,2.29,2.39L338,446A1.65,1.65,0,0,1,336.8,446.43Z"></path>
  <line x1="348.82" x2="339.34" y1="419.76" y2="416.17" fill="#f9aad7"></line>
  <path fill="#333" d="M348.83,421.41a1.7,1.7,0,0,1-.59-.1l-9.48-3.6a1.65,1.65,0,0,1,1.17-3.09l9.48,3.6a1.65,1.65,0,0,1-.58,3.19Z"></path>
  <line x1="349.31" x2="338.31" y1="412.59" y2="423.14" fill="#f9aad7"></line>
  <path fill="#333" d="M338.31,424.79a1.65,1.65,0,0,1-1.14-2.84l11-10.56a1.65,1.65,0,0,1,2.28,2.39l-11,10.55A1.63,1.63,0,0,1,338.31,424.79Z"></path>
  <path fill="#313131" d="M240.6 321.94a30.48 30.48 0 0 1-7.89-1.22 1.65 1.65 0 0 1 .94-3.17c3.94 1.17 10.24 1.87 11.24-.33 1.63-3.59 8.52-36.74 11-49.21a1.65 1.65 0 0 1 3.24.66c-.94 4.62-9.19 45.33-11.27 49.91C246.71 321.2 243.66 321.94 240.6 321.94ZM324.69 189.54c-21.21 0-40.82-15-41.72-15.71a1.65 1.65 0 1 1 2-2.61c.23.18 23.67 18.1 45.81 14.54a1.65 1.65 0 0 1 .52 3.26A41.23 41.23 0 0 1 324.69 189.54ZM390.12 310.47H390a1.64 1.64 0 0 1-1.57-1.72c.55-12.06 1.2-19.44 1.77-25.95.7-8 1.3-14.94 1.53-28.11a1.63 1.63 0 0 1 1.68-1.62 1.65 1.65 0 0 1 1.62 1.68c-.22 13.28-.83 20.26-1.54 28.34-.57 6.48-1.21 13.82-1.76 25.81A1.65 1.65 0 0 1 390.12 310.47Z"></path>
  <path fill="#333" d="M753.25,299.48a27.49,27.49,0,0,1-7.37-3.91c-3.52-2.36-7.15-4.83-9.36-8.45s-2.7-7.72-3-11.82c-.52-7.45-.1-15.44,4.18-21.57a19.76,19.76,0,0,1,10.86-7.67,17.56,17.56,0,0,1,15.55,3A14.37,14.37,0,0,1,769,263.79a16.33,16.33,0,0,1,27,14.8,29.21,29.21,0,0,1-3.88,9.54c-1.7,3-3.58,6-6.36,8-3.62,2.62-8.27,3.24-12.73,3.6q-6.46.51-13,.47A25.15,25.15,0,0,1,753.25,299.48Z"></path>
  <path fill="#a5a653" d="M557.43,701.77s-10-31.56,14.34-37.3,31.56,1.44,31.56,1.44,1.43-25.82,24.39-30.12,50.2,20.08,50.2,20.08,0-48.77,45.9-44.47,34.43,57.38,34.43,57.38,15.78-8.61,43,2.87,14.35,30.12-1.43,30.12C799.85,701.77,553.84,698.18,557.43,701.77Z"></path>
  <path fill="#313131" d="M799.85,702.86h0c-1.1,0-110.15-1.31-181.15-1.31-46.24,0-57.7.81-60.09,1.27a1.66,1.66,0,0,1-1.18.53,1.57,1.57,0,0,1-1.15-.45,1.69,1.69,0,0,1-.5-1c-.74-2.51-4.91-18,1.43-29,3-5.14,7.74-8.52,14.2-10a77,77,0,0,1,17.3-2.26c6.81,0,11,1.34,13.33,2.5,1.15-7,6-25.3,25.39-28.94a32.15,32.15,0,0,1,6-.54c17.91,0,36.4,13.47,43.08,18.85a62.64,62.64,0,0,1,5-19.65c4.8-10.65,15.08-23.34,36.79-23.34,1.85,0,3.77.09,5.73.27,12.75,1.2,22.43,6.18,28.75,14.82,10.41,14.21,8.76,34,7.66,41.55a43.86,43.86,0,0,1,14-2.09c8.68,0,18,2.05,27.57,6.09,17.23,7.26,17.36,16.35,16.62,20C817.08,697.44,808.86,702.86,799.85,702.86Zm-181.17-4.34c70.82,0,179.49,1.57,181.18,1.6,7.5,0,14.28-4.54,15.45-10.34,1.23-6.11-4.11-12.17-14.67-16.61-9.2-3.87-18-5.84-26.28-5.84-9.89,0-15.27,2.87-15.32,2.9a1.65,1.65,0,0,1-2.4-1.8c.05-.26,5.34-25.66-6.58-41.92-5.75-7.83-14.62-12.36-26.39-13.47-1.85-.17-3.68-.26-5.42-.26-16,0-27.38,7.2-33.78,21.4a59.55,59.55,0,0,0-4.9,21.69,1.66,1.66,0,0,1-1,1.51,1.68,1.68,0,0,1-1.78-.28c-.23-.2-22.8-20.17-43.45-20.17a29,29,0,0,0-5.35.48c-21.43,4-23,28.35-23,28.59a1.66,1.66,0,0,1-2.82,1.08s-3.49-3.18-13.47-3.18a73.89,73.89,0,0,0-16.54,2.18c-5.54,1.31-9.61,4.16-12.1,8.48-4.92,8.54-2.55,20.79-1.49,25.08,2.38-.35,7.06-.59,16.55-.79C585.27,698.63,599.93,698.52,618.68,698.52Z"></path>
  <path fill="#333" d="M741.27,675.05a1.66,1.66,0,0,1-1.39-.76,15.24,15.24,0,0,0-8.73-5.95,5.83,5.83,0,0,0-4.57.68A1.66,1.66,0,0,1,724,667.6c.25-7.36-3.38-15.63-10.8-17.21a14.1,14.1,0,0,0-11,2.7,9.78,9.78,0,0,0-4.11,7.17,1.68,1.68,0,0,1-1.75,1.56,1.65,1.65,0,0,1-1.55-1.74,13,13,0,0,1,5.41-9.62,17.28,17.28,0,0,1,13.69-3.3c8.67,1.85,12.84,10.17,13.37,18a10,10,0,0,1,4.54,0,18.36,18.36,0,0,1,10.85,7.39,1.66,1.66,0,0,1-1.38,2.56Z"></path>
  <path fill="#e296a7" d="M339.59,560.85H318.45v-6.61H285.24v6.61H267.4a6,6,0,0,0-6,6V681.11a6,6,0,0,0,6,6h72.19a6,6,0,0,0,6-6V566.84A6,6,0,0,0,339.59,560.85Z"></path>
  <path fill="#313131" d="M339.59,688.76H267.4a7.65,7.65,0,0,1-7.64-7.65V566.84a7.65,7.65,0,0,1,7.64-7.64h16.18v-5a1.65,1.65,0,0,1,1.66-1.65h33.21a1.65,1.65,0,0,1,1.66,1.65v5h19.48a7.66,7.66,0,0,1,7.65,7.64V681.11A7.66,7.66,0,0,1,339.59,688.76ZM267.4,562.5a4.35,4.35,0,0,0-4.34,4.34V681.11a4.35,4.35,0,0,0,4.34,4.35h72.19a4.35,4.35,0,0,0,4.34-4.35V566.84a4.35,4.35,0,0,0-4.34-4.34H318.45a1.65,1.65,0,0,1-1.65-1.65v-5H286.89v5a1.65,1.65,0,0,1-1.65,1.65Z"></path>
  <rect width="6.61" height="26.79" x="300.19" y="529.65" fill="#313131"></rect>
  <rect width="47.91" height="10.74" x="279.16" y="549.66" fill="#fff"></rect>
  <path fill="#333" d="M327.07,562.05H279.16a1.65,1.65,0,0,1-1.65-1.66V549.66a1.65,1.65,0,0,1,1.65-1.66h47.91a1.65,1.65,0,0,1,1.65,1.66v10.73A1.65,1.65,0,0,1,327.07,562.05Zm-46.26-3.31h44.61v-7.43H280.81Z"></path>
  <polygon fill="#fff" points="294.03 538.09 312.2 538.09 312.2 507.53 294.03 507.53 294.03 510.83 260.99 510.83 260.99 515.79 294.03 515.79 294.03 538.09"></polygon>
  <path fill="#333" d="M312.2,539.74H294a1.65,1.65,0,0,1-1.65-1.65V517.44H261a1.65,1.65,0,0,1-1.65-1.65v-5a1.65,1.65,0,0,1,1.65-1.65h31.39v-1.65a1.65,1.65,0,0,1,1.65-1.65H312.2a1.65,1.65,0,0,1,1.65,1.65v30.56A1.65,1.65,0,0,1,312.2,539.74Zm-16.52-3.3h14.87V509.18H295.68v1.65a1.65,1.65,0,0,1-1.65,1.66H262.64v1.65H294a1.65,1.65,0,0,1,1.65,1.65Z"></path>
  <path fill="#fff" d="M304,605.73c7.87.72,26.23,25.4,18.73,30s-34.14,5.83-38.31-.41S294.83,604.9,304,605.73Z"></path>
  <path fill="#333" d="M301.4,641.22c-5.61,0-15.45-.65-18.35-5s1-12.56,2.83-15.92c4.32-8.08,11.46-16.23,17.65-16.23.2,0,.41,0,.61,0,7.12.64,19.56,16.18,21.66,25.2,1.09,4.69-.59,6.85-2.2,7.83C319,640,309.11,641.22,301.4,641.22Zm2.13-33.86c-4,0-10.32,6.23-14.74,14.49-3.47,6.49-4,11-3,12.53,1.43,2.15,7.56,3.54,15.6,3.54,8.43,0,17-1.52,20.47-3.61,1-.61,1.23-2,.71-4.27-2.05-8.82-13.88-22.22-18.73-22.66Z"></path>
  <path fill="#fff" d="M328.09,610.24c0-3.64-2.12-6.6-4.72-6.6s-4.71,3-4.71,6.6,2.11,6.6,4.71,6.6S328.09,613.89,328.09,610.24Z"></path>
  <path fill="#333" d="M323.37,618.49c-3.57,0-6.36-3.62-6.36-8.25s2.79-8.25,6.36-8.25,6.37,3.63,6.37,8.25S326.94,618.49,323.37,618.49Zm0-13.19c-1.63,0-3.06,2.31-3.06,4.94s1.43,5,3.06,5,3.06-2.31,3.06-5S325,605.3,323.37,605.3Z"></path>
  <path fill="#fff" d="M289.33,610.45c0-3.76-2.15-6.81-4.81-6.81s-4.8,3.05-4.8,6.81,2.15,6.81,4.8,6.81S289.33,614.21,289.33,610.45Z"></path>
  <path fill="#333" d="M284.52,618.91c-3.61,0-6.45-3.71-6.45-8.46s2.84-8.46,6.45-8.46,6.46,3.72,6.46,8.46S288.14,618.91,284.52,618.91Zm0-13.61c-1.67,0-3.14,2.4-3.14,5.15s1.47,5.16,3.14,5.16,3.15-2.41,3.15-5.16S286.2,605.3,284.52,605.3Z"></path>
  <path fill="#fff" d="M317.35,596.85c0-4.35-2.52-7.88-5.63-7.88s-5.63,3.53-5.63,7.88,2.52,7.89,5.63,7.89S317.35,601.21,317.35,596.85Z"></path>
  <path fill="#333" d="M311.72,606.39c-4.09,0-7.29-4.19-7.29-9.54s3.2-9.53,7.29-9.53,7.28,4.19,7.28,9.53S315.8,606.39,311.72,606.39Zm0-15.77c-2.16,0-4,2.86-4,6.23s1.82,6.23,4,6.23,4-2.85,4-6.23S313.87,590.62,311.72,590.62Z"></path>
  <path fill="#fff" d="M301.88,597.11c0-4.35-2.52-7.88-5.63-7.88s-5.63,3.53-5.63,7.88,2.52,7.88,5.63,7.88S301.88,601.47,301.88,597.11Z"></path>
  <path fill="#333" d="M296.25,606.65c-4.09,0-7.29-4.19-7.29-9.54s3.2-9.53,7.29-9.53,7.28,4.19,7.28,9.53S300.33,606.65,296.25,606.65Zm0-15.77c-2.16,0-4,2.85-4,6.23s1.82,6.23,4,6.23,4-2.85,4-6.23S298.4,590.88,296.25,590.88Z"></path>
</svg>
