<svg xmlns="http://www.w3.org/2000/svg" enable-background="new 0 0 5000 5000" viewBox="0 0 5000 5000" id="earth-globe-with-location-pin">
  <g>
    <g>
      <path fill="#381f31" d="M2500.078,4594.246c-7.301,0-14.665-0.038-21.886-0.112c-1.504-0.016-2.711-1.247-2.695-2.752
			c0.016-1.494,1.232-2.695,2.724-2.695c0.009,0,0.019,0,0.028,0c7.202,0.074,14.546,0.112,21.829,0.112
			c16.946,0,34.122-0.206,51.05-0.611c1.479-0.048,2.752,1.152,2.788,2.657c0.036,1.504-1.153,2.753-2.657,2.788
			C2534.286,4594.04,2517.066,4594.246,2500.078,4594.246z M2405.296,4592.137c-0.041,0-0.082-0.001-0.123-0.003
			c-24.24-1.081-48.77-2.6-72.91-4.514c-1.5-0.118-2.619-1.431-2.5-2.93c0.119-1.5,1.422-2.612,2.931-2.5
			c24.077,1.908,48.544,3.423,72.721,4.502c1.503,0.066,2.667,1.339,2.6,2.843
			C2407.95,4590.996,2406.744,4592.137,2405.296,4592.137z M2624.095,4590.63c-1.432,0-2.632-1.117-2.717-2.564
			c-0.088-1.502,1.059-2.791,2.561-2.879c24.151-1.411,48.595-3.265,72.654-5.51c1.485-0.142,2.824,0.961,2.965,2.459
			c0.14,1.497-0.961,2.825-2.459,2.965c-24.121,2.251-48.629,4.11-72.842,5.524
			C2624.203,4590.629,2624.148,4590.63,2624.095,4590.63z M2259.865,4580.602c-0.103,0-0.207-0.006-0.312-0.018
			c-24.112-2.757-48.479-5.975-72.424-9.562c-1.487-0.224-2.513-1.61-2.29-3.098c0.223-1.488,1.614-2.507,3.098-2.29
			c23.882,3.579,48.186,6.788,72.234,9.538c1.495,0.171,2.568,1.521,2.397,3.016
			C2262.409,4579.577,2261.23,4580.602,2259.865,4580.602z M2769.354,4577.072c-1.351,0-2.522-1.003-2.698-2.378
			c-0.192-1.492,0.862-2.856,2.354-3.048c23.989-3.083,48.246-6.632,72.095-10.549c1.484-0.241,2.885,0.762,3.129,2.246
			s-0.762,2.885-2.246,3.13c-23.911,3.927-48.23,7.484-72.282,10.576C2769.587,4577.064,2769.47,4577.072,2769.354,4577.072z
			 M2115.584,4558.98c-0.165,0-0.333-0.016-0.501-0.047c-23.829-4.428-47.912-9.341-71.579-14.604
			c-1.469-0.326-2.395-1.781-2.068-3.25c0.326-1.468,1.776-2.394,3.25-2.067c23.606,5.248,47.625,10.148,71.393,14.565
			c1.479,0.274,2.455,1.696,2.18,3.176C2118.016,4558.064,2116.871,4558.98,2115.584,4558.98z M2913.317,4553.429
			c-1.271,0-2.408-0.896-2.668-2.189c-0.295-1.475,0.66-2.91,2.136-3.206c23.704-4.75,47.652-9.988,71.18-15.568
			c1.469-0.349,2.933,0.559,3.279,2.022c0.347,1.463-0.558,2.931-2.022,3.278c-23.589,5.595-47.601,10.847-71.366,15.609
			C2913.675,4553.411,2913.495,4553.429,2913.317,4553.429z M1973.167,4527.312c-0.227,0-0.457-0.028-0.686-0.088
			c-23.475-6.093-47.155-12.685-70.381-19.593c-1.442-0.429-2.263-1.945-1.834-3.387c0.429-1.441,1.942-2.258,3.388-1.835
			c23.165,6.891,46.783,13.465,70.196,19.541c1.456,0.378,2.33,1.864,1.952,3.321
			C1975.483,4526.499,1974.377,4527.312,1973.167,4527.312z M3055.274,4519.759c-1.195,0-2.292-0.794-2.624-2.003
			c-0.398-1.451,0.454-2.95,1.905-3.348c23.324-6.406,46.846-13.314,69.913-20.53c1.435-0.452,2.965,0.351,3.413,1.786
			c0.449,1.436-0.351,2.964-1.786,3.413c-23.128,7.235-46.713,14.161-70.098,20.583
			C3055.757,4519.727,3055.514,4519.759,3055.274,4519.759z M1833.317,4485.721c-0.288,0-0.581-0.046-0.869-0.143
			c-23.055-7.749-46.28-16.014-69.031-24.564c-1.409-0.529-2.121-2.1-1.592-3.508s2.101-2.119,3.508-1.592
			c22.691,8.529,45.855,16.771,68.85,24.5c1.426,0.479,2.193,2.023,1.714,3.449
			C1835.516,4485.002,1834.455,4485.721,1833.317,4485.721z M3194.523,4476.197c-1.124,0-2.176-0.7-2.569-1.82
			c-0.499-1.419,0.246-2.975,1.665-3.474c22.798-8.021,45.776-16.564,68.299-25.391c1.405-0.55,2.981,0.142,3.53,1.543
			c0.549,1.4-0.142,2.98-1.542,3.529c-22.581,8.85-45.621,17.414-68.479,25.457
			C3195.128,4476.147,3194.823,4476.197,3194.523,4476.197z M1696.364,4434.251c-0.349,0-0.704-0.067-1.046-0.211
			c-22.417-9.338-44.988-19.21-67.089-29.342c-1.368-0.628-1.967-2.244-1.341-3.612c0.627-1.367,2.244-1.966,3.611-1.34
			c22.042,10.106,44.556,19.952,66.914,29.266c1.389,0.579,2.045,2.174,1.467,3.562
			C1698.443,4433.62,1697.43,4434.251,1696.364,4434.251z M3330.181,4423.044c-1.053,0-2.056-0.614-2.501-1.643
			c-0.597-1.38,0.038-2.984,1.418-3.582c22.131-9.579,44.401-19.686,66.192-30.037c1.358-0.646,2.983-0.067,3.63,1.291
			c0.645,1.358,0.066,2.983-1.292,3.629c-21.848,10.38-44.177,20.512-66.366,30.117
			C3330.909,4422.972,3330.542,4423.044,3330.181,4423.044z M1563.448,4373.314c-0.411,0-0.827-0.094-1.219-0.29
			c-21.71-10.892-43.521-22.318-64.831-33.96c-1.32-0.722-1.805-2.377-1.084-3.696c0.721-1.32,2.374-1.807,3.697-1.085
			c21.253,11.612,43.008,23.009,64.661,33.872c1.345,0.675,1.888,2.312,1.213,3.656
			C1565.407,4372.764,1564.446,4373.314,1563.448,4373.314z M3461.669,4360.581c-0.984,0-1.936-0.536-2.42-1.471
			c-0.692-1.335-0.172-2.979,1.164-3.672c21.424-11.111,42.947-22.755,63.971-34.608c1.313-0.738,2.973-0.274,3.71,1.035
			c0.739,1.311,0.276,2.972-1.034,3.711c-21.079,11.884-42.658,23.558-64.139,34.698
			C3462.521,4360.482,3462.092,4360.581,3461.669,4360.581z M1435.198,4303.245c-0.472,0-0.95-0.123-1.386-0.382
			c-20.871-12.37-41.82-25.286-62.268-38.39c-1.267-0.812-1.635-2.497-0.823-3.764c0.812-1.266,2.496-1.637,3.763-0.823
			c20.394,13.069,41.289,25.953,62.105,38.291c1.294,0.767,1.722,2.438,0.955,3.731
			C1437.036,4302.768,1436.129,4303.245,1435.198,4303.245z M3588.546,4289.053c-0.918,0-1.813-0.464-2.326-1.305
			c-0.784-1.284-0.379-2.961,0.904-3.744c20.602-12.58,41.271-25.702,61.437-39c1.257-0.83,2.946-0.481,3.773,0.774
			c0.829,1.255,0.481,2.945-0.774,3.772c-20.218,13.334-40.941,26.489-61.596,39.102
			C3589.521,4288.924,3589.03,4289.053,3588.546,4289.053z M1312.214,4224.425c-0.534,0-1.073-0.157-1.546-0.483
			c-19.952-13.792-39.941-28.131-59.416-42.618c-1.207-0.898-1.457-2.604-0.559-3.812c0.897-1.207,2.603-1.458,3.811-0.56
			c19.423,14.45,39.361,28.752,59.261,42.508c1.238,0.854,1.547,2.552,0.692,3.789
			C1313.929,4224.014,1313.079,4224.425,1312.214,4224.425z M3710.198,4208.825c-0.853,0-1.692-0.398-2.224-1.146
			c-0.871-1.227-0.583-2.927,0.644-3.799c19.686-13.987,39.403-28.521,58.604-43.193c1.194-0.913,2.904-0.687,3.818,0.511
			c0.914,1.195,0.686,2.904-0.51,3.817c-19.251,14.712-39.021,29.282-58.757,43.307
			C3711.295,4208.662,3710.743,4208.825,3710.198,4208.825z M1195.066,4137.27c-0.597,0-1.197-0.195-1.7-0.597
			c-18.93-15.134-37.868-30.819-56.288-46.623c-1.142-0.979-1.273-2.699-0.294-3.841s2.7-1.272,3.841-0.294
			c18.372,15.763,37.261,31.408,56.143,46.503c1.175,0.939,1.366,2.653,0.426,3.829
			C1196.658,4136.92,1195.866,4137.27,1195.066,4137.27z M3826.035,4120.304c-0.788,0-1.568-0.34-2.107-0.996
			c-0.955-1.162-0.785-2.879,0.378-3.833c18.675-15.326,37.345-31.198,55.49-47.174c1.13-0.993,2.85-0.885,3.844,0.244
			s0.885,2.85-0.244,3.844c-18.192,16.019-36.911,31.932-55.635,47.297C3827.255,4120.102,3826.643,4120.304,3826.035,4120.304z
			 M1084.296,4042.229c-0.659,0-1.32-0.237-1.843-0.719c-17.84-16.415-35.638-33.37-52.899-50.395
			c-1.071-1.057-1.083-2.781-0.027-3.852c1.056-1.072,2.781-1.083,3.852-0.027c17.217,16.981,34.968,33.893,52.763,50.265
			c1.107,1.018,1.179,2.741,0.16,3.848C1085.765,4041.934,1085.032,4042.229,1084.296,4042.229z M3935.498,4023.926
			c-0.724,0-1.445-0.286-1.98-0.854c-1.033-1.095-0.983-2.818,0.11-3.851c17.571-16.586,35.104-33.72,52.109-50.924
			c1.058-1.07,2.781-1.08,3.852-0.023c1.069,1.058,1.079,2.782,0.022,3.853c-17.05,17.249-34.627,34.427-52.243,51.056
			C3936.842,4023.68,3936.169,4023.926,3935.498,4023.926z M980.422,3939.78c-0.723,0-1.444-0.286-1.979-0.852
			c-16.646-17.598-33.22-35.737-49.261-53.917c-0.996-1.128-0.888-2.849,0.24-3.845c1.128-0.994,2.85-0.887,3.844,0.241
			c16,18.132,32.532,36.225,49.134,53.776c1.034,1.094,0.986,2.817-0.107,3.851C981.767,3939.533,981.094,3939.78,980.422,3939.78z
			 M4038.06,3920.157c-0.66,0-1.321-0.238-1.846-0.722c-1.105-1.02-1.176-2.742-0.155-3.849
			c16.383-17.767,32.691-36.081,48.472-54.433c0.981-1.141,2.701-1.271,3.841-0.289c1.141,0.981,1.271,2.7,0.29,3.841
			c-15.821,18.399-32.172,36.761-48.598,54.574C4039.526,3919.862,4038.794,3920.157,4038.06,3920.157z M883.934,3830.425
			c-0.786,0-1.566-0.339-2.105-0.993c-15.391-18.713-30.661-37.949-45.387-57.177c-0.915-1.194-0.688-2.904,0.506-3.818
			c1.194-0.915,2.904-0.688,3.818,0.506c14.688,19.178,29.919,38.365,45.27,57.028c0.956,1.162,0.789,2.879-0.374,3.834
			C885.156,3830.222,884.543,3830.425,883.934,3830.425z M4133.217,3809.487c-0.598,0-1.198-0.195-1.701-0.598
			c-1.174-0.94-1.363-2.655-0.423-3.829c15.12-18.87,30.123-38.278,44.595-57.685c0.9-1.207,2.607-1.453,3.812-0.556
			c1.206,0.899,1.455,2.606,0.556,3.812c-14.509,19.458-29.552,38.916-44.711,57.835
			C4134.807,3809.139,4134.015,3809.487,4133.217,3809.487z M795.296,3714.693c-0.852,0-1.69-0.397-2.221-1.144
			c-14.053-19.731-27.945-39.973-41.291-60.161c-0.83-1.255-0.485-2.944,0.771-3.774s2.945-0.485,3.774,0.771
			c13.311,20.135,27.166,40.324,41.183,60.005c0.873,1.225,0.587,2.926-0.639,3.799
			C796.395,3714.529,795.843,3714.693,795.296,3714.693z M4220.494,3692.438c-0.535,0-1.076-0.157-1.55-0.485
			c-1.236-0.855-1.544-2.553-0.687-3.789c13.786-19.901,27.408-40.313,40.487-60.672c0.812-1.265,2.498-1.632,3.765-0.819
			c1.266,0.813,1.632,2.499,0.819,3.765c-13.113,20.41-26.771,40.876-40.594,60.829
			C4222.206,3692.028,4221.357,3692.438,4220.494,3692.438z M714.948,3593.146c-0.917,0-1.812-0.463-2.326-1.303
			c-12.642-20.65-25.085-41.799-36.986-62.854c-0.74-1.311-0.279-2.972,1.031-3.712c1.31-0.739,2.971-0.278,3.711,1.031
			c11.87,21.001,24.282,42.094,36.89,62.691c0.785,1.282,0.382,2.959-0.901,3.745
			C715.924,3593.016,715.433,3593.146,714.948,3593.146z M4299.44,3569.549c-0.474,0-0.953-0.124-1.39-0.383
			c-1.293-0.769-1.719-2.439-0.95-3.733c12.37-20.818,24.539-42.141,36.172-63.376c0.723-1.318,2.376-1.805,3.697-1.08
			c1.319,0.723,1.803,2.378,1.08,3.697c-11.662,21.291-23.864,42.669-36.266,63.542
			C4301.275,3569.072,4300.369,3569.549,4299.44,3569.549z M643.292,3466.369c-0.984,0-1.934-0.535-2.419-1.468
			c-11.163-21.466-22.096-43.416-32.494-65.242c-0.647-1.358-0.07-2.984,1.288-3.631c1.358-0.646,2.983-0.07,3.63,1.287
			c10.371,21.77,21.275,43.663,32.409,65.072c0.693,1.335,0.174,2.979-1.16,3.674
			C644.146,3466.27,643.716,3466.369,643.292,3466.369z M4369.642,3441.39c-0.412,0-0.829-0.094-1.222-0.291
			c-1.344-0.677-1.886-2.313-1.209-3.657c10.888-21.646,21.54-43.777,31.658-65.783c0.628-1.365,2.244-1.969,3.612-1.337
			c1.367,0.628,1.966,2.245,1.337,3.612c-10.146,22.063-20.824,44.254-31.741,65.955
			C4371.599,3440.84,4370.638,3441.39,4369.642,3441.39z M580.695,3334.983c-1.052,0-2.054-0.613-2.5-1.64
			c-9.627-22.173-18.993-44.818-27.836-67.308c-0.55-1.4,0.139-2.981,1.539-3.532c1.401-0.546,2.981,0.139,3.532,1.538
			c8.82,22.432,18.16,45.018,27.762,67.132c0.6,1.38-0.034,2.984-1.413,3.584C581.426,3334.911,581.058,3334.983,580.695,3334.983z
			 M4430.717,3308.561c-0.351,0-0.706-0.068-1.05-0.212c-1.388-0.58-2.042-2.175-1.462-3.562
			c9.341-22.354,18.416-45.193,26.973-67.882c0.531-1.407,2.104-2.117,3.51-1.588c1.408,0.531,2.118,2.103,1.588,3.51
			c-8.579,22.749-17.678,45.647-27.044,68.061C4432.795,3307.931,4431.782,3308.561,4430.717,3308.561z M527.392,3199.404
			c-1.122,0-2.173-0.699-2.568-1.817c-8.074-22.86-15.851-46.179-23.114-69.305c-0.451-1.436,0.347-2.964,1.783-3.415
			c1.437-0.448,2.963,0.348,3.415,1.782c7.244,23.066,15,46.322,23.053,69.123c0.501,1.419-0.243,2.975-1.662,3.476
			C527.999,3199.354,527.693,3199.404,527.392,3199.404z M4482.331,3171.691c-0.289,0-0.582-0.046-0.87-0.144
			c-1.426-0.481-2.191-2.026-1.711-3.451c7.753-22.98,15.201-46.416,22.138-69.654c0.431-1.441,1.947-2.259,3.39-1.831
			c1.441,0.431,2.261,1.948,1.83,3.39c-6.955,23.3-14.423,46.796-22.195,69.836
			C4484.528,3170.974,4483.468,3171.691,4482.331,3171.691z M483.672,3060.211c-1.195,0-2.291-0.792-2.624-2
			c-6.444-23.359-12.563-47.165-18.187-70.754c-0.348-1.463,0.555-2.933,2.018-3.281c1.465-0.348,2.933,0.554,3.282,2.018
			c5.608,23.528,11.711,47.271,18.138,70.568c0.4,1.45-0.451,2.95-1.901,3.351C484.155,3060.179,483.912,3060.211,483.672,3060.211z
			 M4524.137,3031.677c-0.228,0-0.458-0.028-0.688-0.089c-1.456-0.38-2.329-1.867-1.949-3.322
			c6.099-23.405,11.863-47.233,17.134-70.822c0.329-1.469,1.785-2.391,3.252-2.064c1.469,0.328,2.393,1.784,2.064,3.252
			c-5.284,23.651-11.064,47.542-17.179,71.008C4526.451,3030.864,4525.347,3031.677,4524.137,3031.677z M449.837,2918.294
			c-1.27,0-2.407-0.894-2.667-2.187c-4.79-23.759-9.224-47.934-13.18-71.854c-0.245-1.484,0.759-2.886,2.243-3.132
			c1.486-0.243,2.887,0.759,3.132,2.243c3.945,23.856,8.368,47.969,13.145,71.666c0.297,1.475-0.657,2.911-2.132,3.208
			C450.196,2918.276,450.015,2918.294,449.837,2918.294z M4555.952,2889.288c-0.166,0-0.334-0.016-0.503-0.047
			c-1.479-0.276-2.454-1.699-2.178-3.178c4.441-23.77,8.521-47.942,12.128-71.847c0.225-1.486,1.604-2.509,3.1-2.287
			c1.488,0.225,2.512,1.612,2.287,3.1c-3.616,23.968-7.707,48.203-12.159,72.034
			C4558.382,2888.373,4557.238,2889.288,4555.952,2889.288z M426.03,2774.358c-1.349,0-2.52-1-2.698-2.373
			c-3.115-24.02-5.851-48.443-8.132-72.596c-0.142-1.497,0.958-2.826,2.455-2.968c1.489-0.137,2.827,0.958,2.968,2.456
			c2.275,24.089,5.004,48.45,8.111,72.406c0.193,1.492-0.859,2.858-2.351,3.052C426.265,2774.352,426.147,2774.358,426.03,2774.358z
			 M4577.72,2745.025c-0.104,0-0.21-0.006-0.316-0.018c-1.494-0.173-2.566-1.523-2.394-3.019
			c2.769-24.005,5.154-48.403,7.091-72.516c0.12-1.5,1.438-2.614,2.933-2.497c1.5,0.12,2.618,1.434,2.497,2.933
			c-1.94,24.176-4.333,48.637-7.108,72.704C4580.262,2744.002,4579.084,2745.025,4577.72,2745.025z M412.31,2629.118
			c-1.43,0-2.63-1.115-2.716-2.562c-1.44-24.17-2.48-48.729-3.09-72.995c-0.038-1.504,1.151-2.754,2.655-2.792
			c1.531,0.003,2.753,1.152,2.791,2.655c0.608,24.204,1.646,48.7,3.083,72.808c0.089,1.502-1.056,2.792-2.557,2.881
			C412.419,2629.117,412.364,2629.118,412.31,2629.118z M408.645,2483.245c-0.008,0-0.017,0-0.025,0
			c-1.504-0.014-2.712-1.244-2.699-2.749c0.221-24.26,0.866-48.829,1.918-73.021c0.065-1.503,1.345-2.667,2.839-2.603
			c1.503,0.065,2.668,1.337,2.603,2.839c-1.049,24.131-1.693,48.636-1.914,72.835
			C411.355,2482.042,410.138,2483.245,408.645,2483.245z M414.99,2337.496c-0.071,0-0.143-0.002-0.215-0.008
			c-1.5-0.117-2.621-1.428-2.503-2.927c1.89-24.184,4.229-48.649,6.954-72.719c0.169-1.494,1.526-2.563,3.013-2.4
			c1.495,0.169,2.569,1.518,2.4,3.013c-2.717,24.007-5.051,48.41-6.936,72.531C417.59,2336.412,416.397,2337.496,414.99,2337.496z
			 M431.403,2192.532c-0.133,0-0.269-0.01-0.404-0.03c-1.488-0.221-2.515-1.607-2.294-3.095
			c3.567-23.993,7.606-48.237,12.004-72.059c0.273-1.479,1.69-2.454,3.173-2.185c1.479,0.273,2.457,1.694,2.184,3.173
			c-4.387,23.76-8.416,47.941-11.973,71.871C433.893,2191.561,432.73,2192.532,431.403,2192.532z M457.894,2049.064
			c-0.195,0-0.393-0.021-0.59-0.065c-1.469-0.325-2.396-1.779-2.072-3.248c5.234-23.665,10.962-47.568,17.025-71.043
			c0.376-1.457,1.863-2.331,3.318-1.956c1.457,0.376,2.332,1.862,1.957,3.318c-6.047,23.414-11.761,47.254-16.981,70.857
			C460.27,2048.198,459.143,2049.064,457.894,2049.064z M4533.542,2011.312c-1.229,0-2.345-0.838-2.646-2.086
			c-5.649-23.463-11.792-47.14-18.256-70.373c-0.403-1.449,0.444-2.951,1.895-3.354c1.444-0.401,2.951,0.445,3.354,1.894
			c6.48,23.293,12.64,47.032,18.305,70.557c0.352,1.462-0.548,2.934-2.011,3.286
			C4533.968,2011.287,4533.754,2011.312,4533.542,2011.312z M494.38,1907.802c-0.256,0-0.517-0.037-0.774-0.113
			c-1.442-0.427-2.266-1.943-1.838-3.385c6.884-23.245,14.277-46.687,21.974-69.674c0.478-1.426,2.021-2.195,3.448-1.718
			c1.426,0.478,2.196,2.021,1.718,3.448c-7.677,22.926-15.05,46.307-21.917,69.491
			C496.64,1907.036,495.556,1907.802,494.38,1907.802z M4494.477,1870.909c-1.156,0-2.229-0.742-2.597-1.902
			c-7.3-23.061-15.107-46.3-23.207-69.075c-0.504-1.417,0.236-2.975,1.654-3.479c1.417-0.507,2.975,0.237,3.479,1.654
			c8.121,22.834,15.949,46.135,23.268,69.256c0.454,1.434-0.341,2.964-1.774,3.419
			C4495.025,1870.868,4494.748,1870.909,4494.477,1870.909z M540.778,1769.251c-0.317,0-0.64-0.056-0.955-0.174
			c-1.409-0.528-2.123-2.097-1.596-3.506c8.522-22.753,17.57-45.677,26.895-68.132c0.577-1.39,2.172-2.047,3.56-1.471
			c1.39,0.577,2.048,2.171,1.471,3.56c-9.3,22.397-18.325,45.26-26.824,67.953C542.92,1768.576,541.881,1769.251,540.778,1769.251z
			 M4445.658,1733.619c-1.085,0-2.11-0.653-2.534-1.723c-8.869-22.42-18.265-45.002-27.924-67.12
			c-0.603-1.379,0.027-2.984,1.406-3.586c1.374-0.601,2.983,0.027,3.586,1.406c9.685,22.175,19.104,44.817,27.998,67.296
			c0.554,1.399-0.133,2.981-1.531,3.535C4446.331,1733.557,4445.991,1733.619,4445.658,1733.619z M596.865,1634.172
			c-0.379,0-0.764-0.08-1.13-0.247c-1.368-0.626-1.97-2.242-1.345-3.61c10.095-22.084,20.726-44.301,31.598-66.036
			c0.674-1.345,2.31-1.89,3.655-1.217c1.345,0.673,1.89,2.309,1.217,3.655c-10.844,21.677-21.448,43.837-31.516,65.863
			C598.886,1633.581,597.898,1634.172,596.865,1634.172z M4387.394,1600.205c-1.016,0-1.99-0.57-2.458-1.547
			c-10.424-21.757-21.381-43.639-32.568-65.038c-0.696-1.333-0.181-2.979,1.152-3.676c1.334-0.699,2.979-0.182,3.676,1.151
			c11.216,21.455,22.202,43.394,32.652,65.208c0.65,1.357,0.077,2.983-1.279,3.633
			C4388.188,1600.119,4387.788,1600.205,4387.394,1600.205z M662.263,1503.438c-0.44,0-0.887-0.107-1.301-0.332
			c-1.32-0.72-1.808-2.375-1.088-3.695c11.615-21.316,23.771-42.724,36.128-63.628c0.765-1.295,2.437-1.725,3.73-0.958
			c1.295,0.766,1.725,2.436,0.959,3.731c-12.326,20.85-24.449,42.202-36.034,63.462
			C664.164,1502.924,663.229,1503.438,662.263,1503.438z M4319.909,1471.121c-0.947,0-1.868-0.495-2.37-1.378
			c-11.927-20.994-24.389-42.068-37.043-62.638c-0.788-1.281-0.389-2.959,0.894-3.747c1.28-0.789,2.959-0.387,3.747,0.893
			c12.686,20.624,25.182,41.752,37.139,62.801c0.743,1.308,0.285,2.97-1.022,3.713
			C4320.828,1471.007,4320.365,1471.121,4319.909,1471.121z M736.615,1377.662c-0.502,0-1.01-0.139-1.465-0.43
			c-1.267-0.81-1.638-2.494-0.828-3.761c13.072-20.447,26.686-40.945,40.462-60.923c0.855-1.238,2.551-1.55,3.789-0.696
			c1.238,0.854,1.55,2.55,0.696,3.789c-13.741,19.926-27.319,40.371-40.357,60.765
			C738.393,1377.218,737.513,1377.662,736.615,1377.662z M4243.557,1347c-0.882,0-1.746-0.428-2.271-1.217
			c-13.362-20.118-27.268-40.282-41.328-59.934c-0.876-1.223-0.594-2.925,0.63-3.8c1.225-0.876,2.925-0.592,3.8,0.63
			c14.098,19.703,28.039,39.92,41.436,60.09c0.833,1.253,0.491,2.943-0.762,3.776C4244.598,1346.852,4244.074,1347,4243.557,1347z
			 M819.522,1257.431c-0.564,0-1.134-0.175-1.622-0.537c-1.208-0.896-1.46-2.603-0.563-3.811
			c14.461-19.483,29.461-38.976,44.584-57.936c0.938-1.176,2.652-1.369,3.828-0.431c1.176,0.938,1.369,2.651,0.431,3.828
			c-15.084,18.911-30.045,38.353-44.469,57.786C821.177,1257.05,820.354,1257.431,819.522,1257.431z M4158.723,1228.438
			c-0.816,0-1.624-0.366-2.16-1.063c-14.729-19.142-30.005-38.3-45.406-56.941c-0.958-1.16-0.795-2.877,0.365-3.834
			c1.16-0.959,2.878-0.793,3.834,0.365c15.441,18.69,30.758,37.898,45.524,57.089c0.917,1.192,0.693,2.902-0.498,3.82
			C4159.887,1228.254,4159.303,1228.438,4158.723,1228.438z M910.549,1143.301c-0.627,0-1.256-0.215-1.77-0.654
			c-1.143-0.979-1.276-2.698-0.298-3.841c15.768-18.419,32.079-36.817,48.479-54.681c1.017-1.107,2.739-1.181,3.849-0.164
			c1.108,1.017,1.181,2.74,0.164,3.849c-16.357,17.818-32.626,36.168-48.353,54.54
			C912.081,1142.978,911.317,1143.301,910.549,1143.301z M4065.833,1116.009c-0.752,0-1.501-0.31-2.039-0.917
			c-16.034-18.09-32.607-36.149-49.261-53.675c-1.036-1.091-0.992-2.815,0.099-3.851c1.09-1.036,2.815-0.992,3.851,0.098
			c16.696,17.572,33.312,35.678,49.388,53.815c0.998,1.126,0.895,2.847-0.231,3.845
			C4067.12,1115.784,4066.476,1116.009,4065.833,1116.009z M1009.236,1035.803c-0.689,0-1.38-0.26-1.91-0.782
			c-1.072-1.055-1.086-2.779-0.031-3.852c17.006-17.282,34.545-34.498,52.13-51.17c1.092-1.035,2.816-0.989,3.851,0.103
			c1.035,1.092,0.989,2.816-0.103,3.851c-17.54,16.629-35.033,33.801-51.996,51.038
			C1010.645,1035.531,1009.94,1035.803,1009.236,1035.803z M3965.342,1010.253c-0.688,0-1.378-0.259-1.908-0.78
			c-17.263-16.95-35.054-33.823-52.878-50.149c-1.109-1.017-1.185-2.74-0.169-3.849c1.016-1.109,2.737-1.185,3.849-0.169
			c17.87,16.369,35.707,33.286,53.015,50.28c1.073,1.054,1.09,2.778,0.035,3.852
			C3966.752,1009.98,3966.047,1010.253,3965.342,1010.253z M1115.091,935.44c-0.753,0-1.503-0.311-2.042-0.919
			c-0.997-1.127-0.891-2.848,0.236-3.845c18.154-16.055,36.836-32.007,55.527-47.416c1.162-0.958,2.877-0.792,3.835,0.369
			c0.957,1.161,0.792,2.878-0.37,3.835c-18.643,15.368-37.276,31.28-55.384,47.293
			C1116.376,935.215,1115.733,935.44,1115.091,935.44z M3857.729,911.683c-0.626,0-1.255-0.215-1.768-0.653
			c-18.402-15.717-37.326-31.32-56.246-46.376c-1.177-0.937-1.372-2.65-0.435-3.828c0.935-1.177,2.647-1.373,3.827-0.435
			c18.97,15.095,37.942,30.739,56.391,46.497c1.145,0.977,1.28,2.696,0.303,3.84
			C3859.262,911.359,3858.497,911.683,3857.729,911.683z M1227.6,842.693c-0.817,0-1.626-0.367-2.163-1.065
			c-0.916-1.193-0.691-2.903,0.502-3.819c19.216-14.752,38.951-29.365,58.656-43.433c1.225-0.875,2.927-0.589,3.799,0.634
			c0.874,1.225,0.59,2.926-0.634,3.8c-19.654,14.031-39.338,28.606-58.504,43.32C1228.762,842.509,1228.179,842.693,1227.6,842.693z
			 M3743.501,820.786c-0.563,0-1.132-0.174-1.619-0.535c-19.439-14.396-39.408-28.652-59.351-42.371
			c-1.239-0.853-1.553-2.549-0.7-3.788c0.853-1.238,2.547-1.554,3.788-0.701c19.994,13.755,40.014,28.047,59.505,42.481
			c1.209,0.896,1.463,2.601,0.568,3.81C3745.158,820.405,3744.335,820.786,3743.501,820.786z M1346.217,758.012
			c-0.883,0-1.749-0.428-2.272-1.22c-0.831-1.253-0.488-2.944,0.766-3.775c20.186-13.375,40.878-26.576,61.502-39.232
			c1.283-0.789,2.959-0.387,3.747,0.896c0.787,1.283,0.385,2.959-0.897,3.746c-20.57,12.625-41.209,25.79-61.342,39.131
			C1347.257,757.865,1346.734,758.012,1346.217,758.012z M3623.193,738.023c-0.501,0-1.008-0.138-1.462-0.428
			c-20.411-13.018-41.331-25.852-62.18-38.146c-1.296-0.765-1.727-2.435-0.962-3.73c0.764-1.295,2.433-1.728,3.729-0.962
			c20.902,12.326,41.878,25.194,62.342,38.245c1.269,0.809,1.641,2.493,0.831,3.762
			C3624.974,737.578,3624.093,738.023,3623.193,738.023z M1470.371,681.82c-0.949,0-1.871-0.497-2.372-1.381
			c-0.742-1.309-0.282-2.971,1.027-3.713c21.056-11.933,42.605-23.652,64.049-34.835c1.333-0.697,2.979-0.178,3.674,1.156
			c0.696,1.333,0.178,2.979-1.155,3.675c-21.388,11.153-42.881,22.842-63.882,34.744
			C1471.287,681.706,1470.826,681.82,1470.371,681.82z M3497.362,663.823c-0.439,0-0.886-0.106-1.299-0.331
			c-21.28-11.565-43.055-22.91-64.72-33.718c-1.347-0.672-1.894-2.308-1.222-3.653c0.672-1.346,2.31-1.892,3.653-1.222
			c21.722,10.837,43.554,22.211,64.89,33.806c1.322,0.719,1.811,2.373,1.093,3.694
			C3499.264,663.308,3498.328,663.823,3497.362,663.823z M1599.456,614.503c-1.017,0-1.992-0.571-2.46-1.55
			c-0.648-1.357-0.073-2.983,1.284-3.632c21.821-10.427,44.122-20.607,66.283-30.26c1.381-0.6,2.985,0.03,3.585,1.41
			c0.601,1.379-0.03,2.984-1.41,3.584c-22.103,9.627-44.345,19.782-66.109,30.181C1600.25,614.418,1599.85,614.503,1599.456,614.503
			z M3366.595,598.585c-0.378,0-0.762-0.079-1.128-0.246c-22.048-10.05-44.574-19.843-66.954-29.108
			c-1.39-0.575-2.05-2.169-1.475-3.558c0.576-1.39,2.168-2.051,3.559-1.475c22.438,9.289,45.023,19.108,67.13,29.184
			c1.369,0.624,1.973,2.239,1.349,3.608C3368.618,597.993,3367.629,598.585,3366.595,598.585z M1732.839,556.408
			c-1.085,0-2.111-0.654-2.534-1.725c-0.552-1.399,0.135-2.981,1.534-3.533c22.552-8.897,45.572-17.515,68.42-25.614
			c1.419-0.503,2.975,0.239,3.478,1.658c0.502,1.418-0.239,2.975-1.657,3.477c-22.789,8.078-45.749,16.673-68.242,25.546
			C1733.51,556.347,1733.172,556.408,1732.839,556.408z M3231.512,542.663c-0.316,0-0.638-0.056-0.952-0.172
			c-22.71-8.479-45.882-16.667-68.871-24.338c-1.427-0.477-2.197-2.019-1.722-3.446s2.014-2.201,3.446-1.722
			c23.05,7.691,46.282,15.901,69.052,24.401c1.41,0.526,2.126,2.095,1.6,3.504C3233.655,541.986,3232.616,542.663,3231.512,542.663z
			 M1870.355,507.666c-1.157,0-2.23-0.743-2.597-1.906c-0.453-1.435,0.344-2.964,1.778-3.417
			c23.125-7.292,46.692-14.271,70.049-20.742c1.448-0.402,2.95,0.448,3.352,1.898c0.401,1.449-0.448,2.951-1.897,3.352
			c-23.296,6.454-46.802,13.415-69.865,20.688C1870.903,507.625,1870.626,507.666,1870.355,507.666z M3092.756,496.363
			c-0.255,0-0.515-0.036-0.771-0.112c-23.197-6.841-46.831-13.361-70.243-19.381c-1.456-0.375-2.334-1.86-1.959-3.316
			c0.374-1.457,1.86-2.333,3.316-1.959c23.474,6.035,47.168,12.573,70.427,19.432c1.443,0.425,2.268,1.94,1.842,3.382
			C3095.018,495.594,3093.933,496.363,3092.756,496.363z M2010.951,468.707c-1.231,0-2.347-0.84-2.646-2.09
			c-0.351-1.462,0.552-2.933,2.014-3.283c23.565-5.646,47.564-10.953,71.33-15.772c1.472-0.299,2.912,0.654,3.211,2.128
			s-0.654,2.912-2.128,3.211c-23.704,4.807-47.641,10.1-71.143,15.73C2011.375,468.683,2011.161,468.707,2010.951,468.707z
			 M2951.45,460.033c-0.194,0-0.391-0.021-0.588-0.064c-23.61-5.193-47.643-10.039-71.428-14.403
			c-1.479-0.272-2.459-1.691-2.188-3.171s1.688-2.463,3.17-2.187c23.849,4.375,47.943,9.234,71.615,14.441
			c1.47,0.323,2.398,1.776,2.075,3.245C2953.827,459.166,2952.701,460.033,2951.45,460.033z M2153.931,439.712
			c-1.308,0-2.462-0.944-2.684-2.277c-0.247-1.483,0.755-2.887,2.24-3.134c23.894-3.979,48.205-7.593,72.257-10.74
			c1.491-0.194,2.859,0.856,3.054,2.348c0.195,1.491-0.856,2.859-2.347,3.054c-23.99,3.138-48.238,6.742-72.069,10.712
			C2154.23,439.7,2154.079,439.712,2153.931,439.712z M2807.946,433.702c-0.132,0-0.266-0.01-0.4-0.03
			c-23.901-3.526-48.213-6.68-72.26-9.375c-1.494-0.168-2.571-1.515-2.403-3.011c0.168-1.495,1.514-2.571,3.011-2.403
			c24.108,2.701,48.483,5.864,72.447,9.399c1.488,0.219,2.517,1.604,2.297,3.092
			C2810.438,432.729,2809.275,433.702,2807.946,433.702z M2298.584,420.783c-1.388,0-2.573-1.056-2.708-2.465
			c-0.144-1.498,0.955-2.828,2.453-2.971c24.111-2.305,48.614-4.219,72.828-5.689c1.515-0.085,2.793,1.053,2.884,2.553
			c0.091,1.502-1.052,2.793-2.554,2.884c-24.151,1.467-48.59,3.376-72.64,5.675C2298.759,420.779,2298.671,420.783,2298.584,420.783
			z M2662.957,417.451c-0.07,0-0.141-0.002-0.212-0.008c-24.082-1.855-48.553-3.315-72.734-4.34
			c-1.503-0.063-2.67-1.333-2.606-2.837c0.064-1.502,1.357-2.667,2.837-2.605c24.243,1.027,48.778,2.491,72.922,4.351
			c1.5,0.116,2.622,1.425,2.507,2.925C2665.56,416.365,2664.366,417.451,2662.957,417.451z M2444.217,411.934
			c-1.471,0-2.683-1.173-2.722-2.652c-0.04-1.504,1.148-2.755,2.652-2.795c18.522-0.486,37.34-0.732,55.93-0.732
			c5.69,0,11.455,0.023,17.136,0.069c1.505,0.012,2.715,1.242,2.702,2.746c-0.012,1.503-1.225,2.753-2.745,2.702
			c-5.667-0.046-11.417-0.069-17.092-0.069c-18.543,0-37.313,0.247-55.788,0.731
			C2444.265,411.933,2444.241,411.934,2444.217,411.934z"></path>
      <g>
        <g>
          <circle cx="2500.078" cy="2500" r="1716.734" fill="#381f31"></circle>
          <path fill="#381f31" d="M2500.078,4219.457c-116.661,0-233.25-11.753-346.528-34.933
					c-110.4-22.592-218.994-56.301-322.764-100.191c-101.885-43.095-200.154-96.433-292.075-158.533
					c-91.048-61.511-176.665-132.151-254.473-209.96c-77.808-77.808-148.449-163.426-209.959-254.473
					c-62.101-91.922-115.439-190.19-158.533-292.076c-43.891-103.77-77.6-212.363-100.191-322.764
					c-23.18-113.277-34.933-229.866-34.933-346.527s11.753-233.25,34.933-346.528c22.591-110.4,56.3-218.994,100.191-322.764
					c43.094-101.885,96.432-200.153,158.533-292.075c61.511-91.048,132.151-176.665,209.959-254.473
					s163.425-148.449,254.473-209.959c91.921-62.101,190.19-115.439,292.075-158.533c103.77-43.891,212.363-77.6,322.764-100.191
					c113.278-23.18,229.867-34.933,346.528-34.933c116.661,0,233.25,11.753,346.528,34.933
					c110.4,22.591,218.993,56.3,322.764,100.191c101.886,43.094,200.153,96.432,292.075,158.533
					c91.048,61.511,176.665,132.151,254.474,209.959c77.808,77.808,148.449,163.425,209.959,254.473
					c62.102,91.922,115.439,190.19,158.534,292.075c43.891,103.77,77.6,212.363,100.191,322.764
					c23.18,113.278,34.933,229.867,34.933,346.528s-11.753,233.25-34.933,346.527c-22.592,110.4-56.301,218.994-100.191,322.764
					c-43.095,101.886-96.433,200.154-158.534,292.076c-61.51,91.047-132.151,176.665-209.959,254.473
					c-77.809,77.809-163.426,148.449-254.474,209.96c-91.922,62.101-190.189,115.438-292.075,158.533
					c-103.771,43.891-212.363,77.6-322.764,100.191C2733.328,4207.704,2616.738,4219.457,2500.078,4219.457z M2500.078,785.99
					c-945.108,0-1714.009,768.901-1714.009,1714.01s768.901,1714.01,1714.009,1714.01s1714.01-768.901,1714.01-1714.01
					S3445.186,785.99,2500.078,785.99z"></path>
        </g>
        <g>
          <g>
            <path fill="#93d1ce" d="M2324.327,1236.622c0,0-14.525,23.604,16.341,63.549s134.361,30.867,139.808-31.775
						C2485.923,1205.755,2338.852,1218.465,2324.327,1236.622z"></path>
            <path fill="#381f31" d="M2401.682,1327.021c-7.32,0-14.618-0.705-21.658-2.126
						c-18.102-3.653-32.844-11.842-41.511-23.058c-31.654-40.963-17.139-65.613-16.506-66.642c0.059-0.095,0.123-0.187,0.193-0.274
						c11.573-14.467,89.311-23.545,131.214-6.771c21.05,8.425,31.346,22.424,29.775,40.483
						c-2.224,25.576-20.548,45.25-50.275,53.978C2422.936,1325.54,2412.286,1327.021,2401.682,1327.021z M2326.58,1238.171
						c-1.028,1.928-11.749,24.11,16.243,60.334c15.85,20.512,54.748,28.804,88.557,18.878c27.458-8.062,44.363-26.003,46.383-49.223
						c1.36-15.645-7.513-27.405-26.373-34.954c-18.366-7.351-45.631-10.252-74.805-7.959
						C2349.085,1227.409,2330.718,1233.353,2326.58,1238.171z"></path>
          </g>
          <g>
            <path fill="#93d1ce" d="M4174.404,2880.777c-0.29-0.293-49.054-49.921-96.122-30.007
						c-47.208,19.972-154.334,38.128-170.675,12.709c-16.341-25.419,43.576-81.706,25.419-112.573
						c-18.156-30.865-110.756-78.073-63.55-132.545c47.208-54.469,99.865-10.893,123.469,41.761
						c23.602,52.656,21.787,43.578,72.626,5.448c50.841-38.13,79.891-74.443,74.445-123.467
						c-5.448-49.024-10.896-67.18-7.263-136.177c3.63-68.995,21.787-118.019-14.526-108.941
						c-36.315,9.078-108.94,36.313-112.573-5.448c-3.63-41.761,65.365-27.235,58.102-54.469
						c-7.263-27.237-58.102-85.338,5.448-114.388c48.036-21.961,83.198,33.855,116.092,48.313
						c-104.518-538.485-460.693-987.128-941.208-1218.564c2.079,24.877,10.935,60.661,40.739,93.547
						c52.654,58.102,88.969,170.675,61.732,203.357c-27.235,32.682-123.467,7.263-125.282,103.493
						c-1.815,96.232,76.673,110.758,134.568,88.969c57.896-21.787,52.448-20.462,72.42,8.833
						c19.974,29.297,47.208,56.532,32.682,67.427c-14.524,10.893-130.729,45.391-137.99,90.784
						c-7.263,45.391,54.469,70.81,38.128,90.784c-16.341,19.972-257.892,82.619-268.788,128.012
						c-10.894,45.391,7.328,135.262-19.906,144.34s-90.784,14.526-130.729,47.208c-39.945,32.682-136.177,54.471-152.519,145.255
						s-27.235,159.78,9.078,163.412c36.315,3.631,96.232,10.894,181.571,30.865c85.336,19.974,157.964,5.448,174.305-39.943
						c16.341-45.393-7.263-116.206,81.706-137.992c88.969-21.789,176.121,19.971,197.91-16.341
						c21.789-36.315-36.313-85.338-76.258-87.154c0,0-21.789,0,7.263-29.052c29.05-29.05,74.443-67.18,88.969-58.102
						c14.524,9.078-11.779,38.13,11.358,72.628c23.139,34.498,97.582,25.419,110.291-7.263
						c12.711-32.682-72.626-98.047-25.419-163.412c47.208-65.365,192.464-78.073,223.331,9.078
						c30.865,87.154,21.787,128.914-49.023,176.123c-70.813,47.208-107.125,72.628-70.813,108.941
						c36.313,36.315,96.232-7.263,119.836,56.287s34.498,193.597-105.31,257.488c-139.808,63.891-245.118,43.917-306.852,22.128
						c-61.732-21.787-335.902-0.682-426.686-22.128c-90.784-21.448-392.189-101.339-521.103,23.945
						c-128.913,125.282-245.118,368.584-14.525,646.385s448.474,246.933,591.915,206.988
						c143.438-39.945,179.753-19.972,236.04,92.599c56.287,112.573,90.784,187.016,45.391,337.719
						c-37.779,125.431-42.806,181.668,5.759,223.177C3725.965,3802.69,4060.528,3383.616,4174.404,2880.777z"></path>
            <path fill="#381f31" d="M3277.875,4033.538c-0.637,0-1.267-0.223-1.771-0.653
						c-24.951-21.325-36.119-46.671-36.212-82.181c-0.084-32.057,8.496-73.733,29.614-143.852
						c46.105-153.066,7.8-229.68-45.219-335.717c-26.264-52.527-49.468-87.944-83.942-102.194
						c-31.699-13.101-73.455-10.018-148.931,11.001c-46.563,12.967-103.898,25.907-168.236,25.909
						c-30.662,0-62.904-2.938-96.349-10.211c-54.81-11.92-108.621-34.753-159.939-67.865
						c-58.536-37.768-115.805-90.154-170.217-155.705c-54.659-65.849-92.896-133.649-113.648-201.52
						c-18.42-60.239-23.299-121.137-14.502-181.003c19.196-130.641,97.754-223.708,142.874-267.556
						c124.094-120.6,404.376-53.271,509.892-27.926c4.995,1.2,9.586,2.303,13.736,3.283
						c44.883,10.603,135.148,10.734,222.443,10.861c89.009,0.13,173.081,0.253,204.522,11.35
						c96.068,33.905,198.621,26.491,304.814-22.038c164.729-75.28,110.604-235.984,103.889-254.062
						c-12.906-34.748-37.089-35.908-62.692-37.137c-19.802-0.951-40.277-1.933-56.516-18.172
						c-11.107-11.107-15.993-21.687-14.938-32.344c2.36-23.834,32.716-45.156,86.166-80.79
						c35.704-23.803,54.678-45.859,61.52-71.517c6.734-25.256,2.682-55.59-13.553-101.43
						c-11.308-31.925-39.548-52.667-79.519-58.404c-53.164-7.63-112.936,13.87-139.037,50.011
						c-28.382,39.3-6.831,79.214,10.484,111.285c11.012,20.394,20.521,38.007,15.266,51.52
						c-6.087,15.653-26.269,27.562-51.416,30.339c-21.854,2.413-50.058-2.243-63.677-22.546
						c-13.856-20.662-10.75-39.445-8.482-53.161c1.713-10.356,2.398-15.89-2.057-18.675c-11.275-7.039-51.588,23.708-85.6,57.719
						c-15.231,15.231-14.636,20.774-14.091,22.11c0.75,1.837,3.879,2.281,4.916,2.292c0.031,0,0.078,0.001,0.11,0.002
						c27.979,1.271,63.422,24.346,77.395,50.387c7.909,14.74,8.281,28.879,1.075,40.89c-12.449,20.747-43.607,17.911-83.059,14.321
						c-33.527-3.051-75.252-6.847-116.539,3.264c-63.456,15.54-67.909,56.156-72.216,95.435
						c-1.604,14.635-3.119,28.458-7.575,40.835c-8.255,22.93-30.128,38.913-63.255,46.22c-31.932,7.043-71.433,5.47-114.234-4.548
						c-84.851-19.857-144.062-27.092-181.22-30.806c-7.386-0.739-13.315-4.008-17.624-9.717
						c-16.604-22.002-8.351-76.404,6.136-156.888c12.176-67.644,67.57-97.558,112.081-121.594
						c15.862-8.565,30.846-16.657,41.394-25.287c29.901-24.465,72.615-33.883,103.803-40.761c11.126-2.453,20.734-4.572,27.79-6.924
						c14.711-4.904,14.432-40.842,14.162-75.597c-0.187-23.956-0.379-48.728,3.957-66.795
						c7.226-30.105,105.016-65.257,183.591-93.502c41.241-14.825,80.196-28.827,85.736-35.599
						c5.771-7.054-0.685-15.155-12.593-28.866c-13.475-15.516-30.244-34.826-26.116-60.625
						c5.671-35.455,72.648-63.555,112.666-80.345c12.846-5.389,22.992-9.646,26.38-12.188c2.659-1.995,5.084-5.578,0.189-15.667
						c-3.875-7.987-11.26-17.821-19.077-28.231c-4.809-6.404-9.781-13.026-14.411-19.817c-1.612-2.366-3.061-4.551-4.39-6.556
						c-7.695-11.608-10.683-15.641-17.086-15.992c-7.528-0.406-19.861,4.235-44.443,13.491l-3.291,1.239
						c-37.498,14.112-76.918,11.492-102.88-6.841c-23.867-16.854-36.099-46.152-35.371-84.729
						c1.234-65.427,45.89-76.701,81.771-85.759c18.207-4.597,35.403-8.938,44.143-19.426c12.04-14.448,11.512-47.941-1.416-89.596
						c-12.919-41.628-35.439-82.82-60.242-110.189c-30.487-33.64-39.36-70.311-41.436-95.149c-0.081-0.974,0.366-1.917,1.171-2.471
						c0.806-0.554,1.846-0.634,2.726-0.21c119.372,57.494,232.289,129.04,335.615,212.65
						c102.674,83.082,195.855,178.051,276.956,282.27c81.706,104.997,151.131,219.368,206.348,339.936
						c56.351,123.045,97.996,252.794,123.782,385.644c0.193,0.995-0.182,2.015-0.974,2.647c-0.791,0.633-1.868,0.773-2.796,0.366
						c-10.513-4.621-21.006-13.133-32.115-22.145c-24.636-19.984-50.111-40.652-81.748-26.185
						c-14.87,6.797-23.982,15.41-27.857,26.33c-6.977,19.663,4.794,43.414,14.251,62.498c4.285,8.646,7.986,16.113,9.657,22.381
						c3.969,14.884-10.806,19.381-25.093,23.73c-17.07,5.196-34.722,10.569-32.927,31.205c0.6,6.896,3.203,11.848,7.959,15.139
						c16.591,11.482,55.714,0.513,84.278-7.496c6.118-1.715,11.897-3.336,16.962-4.602c8.515-2.129,14.734-1.34,19.007,2.415
						c9.505,8.35,7.104,28.985,3.469,60.219c-1.7,14.61-3.627,31.17-4.57,49.092c-2.887,54.839,0.013,77.61,4.024,109.127
						c1.045,8.209,2.125,16.698,3.227,26.606c2.685,24.165-2.725,46.277-16.536,67.6c-12.127,18.722-30.869,37.262-58.982,58.347
						c-6.52,4.891-12.157,9.291-17.132,13.174c-17.416,13.593-26.156,20.42-34.443,18.356c-8.746-2.171-14.34-13.881-25.17-38.043
						c-12.716-28.364-37.12-60.267-67.482-64.742c-18.204-2.687-35.516,5.274-51.442,23.651
						c-32.403,37.39,5.352,71.861,35.688,99.56c12.297,11.228,22.917,20.924,28.15,29.82c10.163,17.278-1.668,40.644-13.11,63.239
						c-9.975,19.699-19.396,38.306-12.366,49.242c6.613,10.285,32.554,13.724,71.171,9.433
						c33.555-3.729,72.195-13.042,96.152-23.178c48.115-20.356,97.062,28.513,99.121,30.602c0.651,0.661,0.924,1.611,0.719,2.517
						c-28.121,124.174-70.281,245.403-125.312,360.323c-54.024,112.821-120.688,220.079-198.136,318.793
						c-76.923,98.043-164.702,187.941-260.9,267.2c-96.727,79.694-202.238,148.851-313.604,205.547
						C3278.719,4033.44,3278.295,4033.538,3277.875,4033.538z M3096.519,3355.663c17.919,0,32.7,2.785,45.908,8.244
						c36.041,14.896,59.907,51.142,86.734,104.793c30.55,61.101,51.305,104.917,61.062,155.261
						c10.849,55.968,6.067,112.857-15.5,184.463c-20.953,69.567-29.466,110.784-29.384,142.266
						c0.087,33.12,10.257,56.907,32.933,76.865c454.879-232.195,780.315-649.694,893.14-1145.9
						c-7.4-7.126-50.46-45.982-92.068-28.376c-24.395,10.319-63.646,19.794-97.674,23.574c-29.253,3.249-66.246,3.825-76.354-11.901
						c-8.717-13.56,1.389-33.519,12.089-54.648c10.78-21.29,21.928-43.305,13.274-58.017c-4.817-8.188-15.654-18.084-27.128-28.56
						c-15.649-14.288-33.387-30.482-42.969-48.259c-11.405-21.159-9.169-40.423,6.836-58.892
						c17.227-19.875,36.189-28.442,56.354-25.473c32.541,4.797,58.354,38.222,71.659,67.903
						c9.549,21.304,15.257,33.432,21.512,34.985c5.718,1.407,14.773-5.653,29.779-17.365c4.993-3.897,10.653-8.315,17.216-13.236
						c56.918-42.689,78.176-77.742,73.372-120.987c-1.097-9.865-2.175-18.332-3.217-26.521c-4.048-31.799-6.973-54.773-4.06-110.102
						c0.952-18.093,2.89-34.744,4.599-49.435c3.188-27.395,5.706-49.033-1.652-55.497c-2.832-2.486-7.444-2.886-14.091-1.223
						c-4.989,1.247-10.732,2.857-16.812,4.562c-31.254,8.763-70.153,19.669-88.849,6.73c-6.087-4.212-9.548-10.654-10.287-19.146
						c-2.177-25.034,19.417-31.607,36.768-36.888c15.347-4.671,23.908-7.77,21.416-17.115c-1.531-5.741-5.119-12.982-9.273-21.366
						c-9.915-20.005-22.253-44.902-14.505-66.738c4.333-12.211,14.671-22.124,30.726-29.463
						c34.711-15.87,62.728,6.857,87.445,26.909c9.059,7.348,17.695,14.354,26.044,18.979
						c-103.467-523.864-452.213-975.212-934.284-1209.094c2.726,23.775,12.009,56.741,39.568,87.15
						c25.309,27.928,48.266,69.884,61.408,112.233c13.678,44.073,13.822,78.588,0.398,94.697
						c-9.873,11.848-27.905,16.401-46.995,21.22c-35.858,9.053-76.501,19.314-77.656,80.581
						c-0.692,36.688,10.742,64.412,33.066,80.176c24.505,17.304,61.987,19.678,97.818,6.192l3.29-1.239
						c50.023-18.836,51.975-19.57,67.989,4.589c1.317,1.987,2.752,4.152,4.352,6.498c4.559,6.687,9.493,13.259,14.266,19.614
						c7.979,10.626,15.517,20.664,19.622,29.124c7.482,15.423,0.479,20.677-1.821,22.403c-3.929,2.946-13.833,7.102-27.542,12.853
						c-38.973,16.351-104.202,43.718-109.395,76.182c-3.726,23.287,12.119,41.532,24.851,56.192
						c11.62,13.38,21.656,24.936,12.696,35.887c-6.194,7.57-35.986,18.539-88.11,37.276
						c-73.262,26.335-173.597,62.402-180.137,89.647c-4.181,17.42-3.99,41.853-3.807,65.481c0.298,38.39,0.579,74.652-17.887,80.807
						c-7.326,2.442-17.064,4.589-28.34,7.076c-30.651,6.759-72.631,16.016-101.526,39.657c-10.951,8.96-26.156,17.171-42.255,25.864
						c-43.481,23.481-97.597,52.704-109.308,117.766c-13.795,76.643-22.384,132.455-7.148,152.642
						c3.403,4.51,7.923,6.988,13.817,7.578c37.309,3.729,96.759,10.993,181.92,30.922c41.413,9.693,81.127,11.304,111.818,4.533
						c31.207-6.884,51.714-21.665,59.304-42.746c4.236-11.768,5.717-25.279,7.285-39.583c4.301-39.226,9.176-83.686,76.336-100.132
						c42.17-10.328,84.397-6.486,118.328-3.398c37.546,3.417,67.203,6.115,77.893-11.699c7.789-12.981,3.645-26.476-1.203-35.511
						c-12.942-24.121-46.937-46.31-72.78-47.518c-2.834-0.017-8.037-1.221-9.868-5.643c-2.521-6.086,2.473-15.264,15.267-28.058
						c17.092-17.093,35.415-32.998,50.271-43.638c20.641-14.783,34.404-19.64,42.067-14.849c7.743,4.84,6.261,13.804,4.545,24.183
						c-2.237,13.53-5.022,30.37,7.632,49.238c10.104,15.063,33.088,22.979,58.555,20.166c23.153-2.557,41.576-13.115,46.936-26.899
						c4.344-11.167-4.611-27.752-14.98-46.957c-18.04-33.411-40.49-74.993-10.107-117.063
						c13.518-18.717,35.854-34.254,62.895-43.747c26.259-9.22,55.142-12.225,81.332-8.467c42.074,6.039,71.863,28.049,83.88,61.978
						c32.037,90.461,20.336,132.354-50.08,179.298c-50.559,33.706-81.652,55.447-83.767,76.793
						c-0.884,8.931,3.489,18.076,13.369,27.956c14.75,14.75,34.157,15.682,52.925,16.583c26.243,1.259,53.38,2.561,67.539,40.682
						c7.343,19.769,22.891,72.032,8.717,130.209c-6.51,26.718-18.529,50.845-35.724,71.709
						c-19.791,24.015-46.614,43.864-79.726,58.995c-63.309,28.933-125.387,43.421-185.614,43.423
						c-42.06,0.002-83.208-7.062-123.276-21.203c-30.565-10.787-114.188-10.909-202.719-11.038
						c-87.604-0.128-178.19-0.261-223.687-11.008c-4.157-0.982-8.754-2.086-13.757-3.288
						c-104.717-25.154-382.883-91.97-504.822,26.535c-71.13,69.127-282.377,319.767-14.328,642.693
						c221.2,266.48,431.014,250.125,589.088,206.103C3035.952,3361.885,3069.739,3355.663,3096.519,3355.663z"></path>
          </g>
          <g>
            <path fill="#93d1ce" d="M1882.098,897.891c-6.529,57.797-10.438,150.386,10.094,255.21
						c34.498,176.121,70.812,187.016,103.494,237.855s74.443,87.154,112.573,65.365c38.129-21.789,50.839-74.443,65.365-137.993
						c14.525-63.549,9.078-136.177,67.18-157.964c58.102-21.789,241.487-52.656,272.353-123.467
						c22.601-51.846,21.839-185.436,19.812-253.287c-10.943-0.206-21.901-0.343-32.892-0.343
						C2282.22,783.267,2073.854,823.875,1882.098,897.891z"></path>
            <path fill="#381f31" d="M2084.673,1465.536c-11.595,0-23.709-4.132-36.241-12.388
						c-18.161-11.965-37.191-32.961-55.036-60.72c-6.795-10.569-13.635-19.25-20.875-28.44c-27.346-34.707-55.624-70.596-83-210.364
						c-20.471-104.51-16.807-196.92-10.128-256.039c0.114-1.009,0.779-1.87,1.726-2.235
						c197.362-76.18,405.61-114.807,618.96-114.807c9.854,0,20.629,0.112,32.943,0.344c1.453,0.027,2.629,1.189,2.672,2.642
						c2.176,72.871,2.467,202.829-20.038,254.456c-10.727,24.608-39.569,46.472-88.177,66.84
						c-41.016,17.187-89.072,30.312-127.686,40.857c-23.859,6.516-44.464,12.144-58.03,17.231
						c-43.208,16.203-50.179,62.324-57.558,111.153c-2.237,14.807-4.551,30.117-7.923,44.868
						c-13.745,60.13-26.728,116.926-66.668,139.75C2101.618,1463.253,2093.288,1465.536,2084.673,1465.536z M1884.622,899.838
						c-6.517,58.799-9.904,149.873,10.244,252.739c27.125,138.478,54.988,173.841,81.934,208.04
						c7.002,8.887,14.243,18.076,21.179,28.866c17.437,27.125,35.92,47.566,53.451,59.116c19.989,13.169,38.655,14.972,55.479,5.357
						c37.866-21.639,50.59-77.303,64.061-136.235c3.326-14.552,5.625-29.761,7.847-44.468
						c7.625-50.456,14.828-98.114,61.031-115.439c13.802-5.176,34.519-10.834,58.508-17.386
						c75.354-20.58,189.229-51.681,212.304-104.619c21.819-50.054,21.755-176.658,19.663-249.522
						c-11.206-0.199-21.124-0.295-30.246-0.295C2287.959,785.991,2080.896,824.295,1884.622,899.838z"></path>
          </g>
          <g>
            <path fill="#93d1ce" d="M828.572,2106.962c31.346,122.938,93.881,280.13,149.724,271.124
						c75.049-12.106,7.263-186.412,48.419-203.359c41.155-16.946,113.783,12.106,113.783-38.735
						c0-50.839-53.261-135.571-19.367-123.467c33.892,12.106,67.785-24.209,116.204-53.259
						c48.418-29.052,108.942-41.156,84.732-142.836c-24.209-101.678-12.104-162.201,19.368-188.831
						c31.472-26.63,108.941,31.474,163.262,55.682c54.321,24.209,15.884,125.886,0,179.147
						c-15.886,53.261,49.778,58.104,71.567,26.63c21.788-31.472,29.051-43.576,62.943-41.156
						c33.893,2.422,53.26-41.154,4.842-121.045c-48.418-79.891-16.947-116.204,29.051-169.464
						c45.997-53.26,67.785-164.623,14.526-179.149c-53.26-14.524-108.942,128.31-145.255,121.047
						c-36.314-7.263,14.526-55.682-24.21-75.05c-38.734-19.367-94.416,45.998-130,0c-35.585-45.997-112.09-70.206-95.145-94.415
						c16.947-24.209,91.995-2.422,106.521-58.102c14.525-55.682,58.102-60.523,77.469-108.943c6.88-17.199,7.33-32.551,5.069-45.218
						C1159.349,1355.614,922.97,1703.95,828.572,2106.962z"></path>
            <path fill="#381f31" d="M973.571,2381.188c-25.333,0-52.81-29.549-81.764-87.976
						c-24.292-49.017-48.302-116.658-65.875-185.578c-0.108-0.424-0.112-0.868-0.012-1.294
						c92.788-396.14,325.241-748.072,654.538-990.967c0.758-0.56,1.75-0.688,2.625-0.338c0.875,0.349,1.507,1.125,1.673,2.052
						c2.756,15.441,1,31.156-5.222,46.708c-9.118,22.796-23.548,36.246-37.503,49.252c-16.561,15.436-32.203,30.015-39.859,59.366
						c-9.335,35.783-42.781,41.161-69.656,45.481c-16.823,2.705-31.351,5.041-37.27,13.495c-1.645,2.349-2.225,4.689-1.773,7.154
						c1.753,9.576,18.163,20.75,37.163,33.689c20.539,13.987,43.818,29.841,59.679,50.342c19.051,24.626,44.017,15.36,70.45,5.549
						c20.105-7.462,40.895-15.178,58.614-6.318c21.865,10.932,17.584,30.665,14.144,46.52c-1.981,9.129-3.852,17.753-0.517,22.845
						c1.76,2.687,4.998,4.469,9.898,5.449c14.533,2.907,34.472-23.591,55.58-51.646c27.466-36.506,58.602-77.878,89.858-69.358
						c14.229,3.881,24.416,14.669,29.458,31.2c12.367,40.541-7.558,111.736-42.639,152.357l-0.13,0.15
						c-45.765,52.991-75.999,88-28.653,166.122c14.995,24.741,24.396,47.343,27.943,67.178c3.155,17.644,1.445,32.497-4.945,42.951
						c-6.501,10.636-17.286,15.982-30.364,15.044c-31.315-2.234-38.189,7.701-58.579,37.199l-1.93,2.791
						c-12.737,18.398-41.274,26.197-61.073,16.689c-16.098-7.731-21.69-24.369-15.343-45.648c1.561-5.233,3.337-10.93,5.219-16.96
						c17.15-54.981,43.069-138.069-3.718-158.92c-14.373-6.405-30.002-14.973-46.55-24.045
						c-43.156-23.658-92.068-50.469-113.844-32.046c-15.955,13.5-25.921,35.213-29.622,64.535
						c-4.093,32.43-0.344,73.338,11.144,121.586c9.586,40.263,7.012,69.361-8.101,91.575
						c-13.334,19.599-35.036,31.071-56.024,42.166c-7.252,3.834-14.751,7.798-21.856,12.061
						c-12.696,7.618-24.24,15.635-35.403,23.389c-31.761,22.059-56.846,39.483-83.118,30.099c-3.298-1.177-5.713-1.328-6.627-0.415
						c-3.991,3.986,3.75,25.753,10.579,44.958c8.932,25.117,19.055,53.583,19.055,76.358c0,34.989-32.476,35.079-63.882,35.166
						c-18.215,0.05-37.051,0.103-51.587,6.088c-15.784,6.5-13.482,42.357-11.045,80.321c3.487,54.318,7.439,115.883-37.978,123.209
						C977.021,2381.051,975.3,2381.188,973.571,2381.188z M831.376,2106.935c17.468,68.344,41.258,135.321,65.312,183.859
						c29.329,59.183,57.396,88.435,81.174,84.604c40.531-6.538,36.747-65.479,33.409-117.482
						c-2.677-41.703-4.989-77.719,14.407-85.707c15.526-6.393,34.905-6.447,53.646-6.499c31.364-0.087,58.45-0.162,58.45-29.718
						c0-21.834-10.391-51.054-18.74-74.532c-10.043-28.241-15.426-44.517-9.296-50.638c3.877-3.871,10.224-1.605,12.309-0.861
						c23.632,8.44,47.703-8.277,78.178-29.443c11.237-7.805,22.856-15.875,35.708-23.585c7.231-4.339,14.796-8.338,22.113-12.206
						c41.917-22.159,81.508-43.089,61.371-127.664c-11.64-48.887-15.424-90.449-11.249-123.53
						c3.877-30.72,14.478-53.602,31.508-68.011c24.632-20.844,73.105,5.73,119.981,31.427c16.447,9.016,31.981,17.532,46.149,23.846
						c51.212,22.823,24.426,108.695,6.7,165.518c-1.876,6.014-3.647,11.694-5.199,16.896c-5.583,18.719-1.151,32.633,12.481,39.18
						c15.596,7.49,41.706,3.221,54.236-14.879l1.928-2.788c20.528-29.7,29.023-41.996,63.448-39.535
						c10.949,0.782,19.942-3.64,25.328-12.452c12.671-20.731,4.07-59.784-23.009-104.465
						c-49.399-81.509-16.435-119.678,29.188-172.505l0.13-0.15c15.979-18.502,29.744-45.231,37.764-73.333
						c8.086-28.332,9.466-55.258,3.788-73.874c-4.533-14.858-13.173-24.122-25.681-27.533
						c-27.693-7.558-57.647,32.256-84.072,67.377c-21.718,28.866-40.657,54.035-57.703,54.037c-1.108,0-2.206-0.106-3.298-0.325
						c-6.407-1.281-10.786-3.835-13.387-7.806c-4.586-7.001-2.479-16.708-0.25-26.985c3.355-15.463,6.824-31.452-11.257-40.493
						c-15.604-7.803-34.393-0.83-54.282,6.553c-27.115,10.064-55.153,20.47-76.654-7.323
						c-15.332-19.818-38.232-35.414-58.437-49.173c-20.834-14.189-37.291-25.396-39.455-37.211
						c-0.717-3.917,0.181-7.705,2.669-11.259c7.24-10.343,22.824-12.848,40.868-15.75c26.629-4.282,56.812-9.134,65.249-41.478
						c8.056-30.882,25.016-46.689,41.417-61.976c14.139-13.178,27.494-25.625,36.16-47.291c5.243-13.108,7.111-26.313,5.571-39.319
						C1153.91,1364.351,923.626,1713.789,831.376,2106.935z"></path>
          </g>
          <g>
            <path fill="#93d1ce" d="M1815.934,2886.478c-210.619-130.729-266.3-232.409-338.928-259.04
						c-72.628-26.63-229.988-21.787-278.406,0c-48.418,21.789-130.73,36.315-203.357-7.263
						c-72.627-43.576-135.317-204.297-157.359-329.244c-22.038-124.921,42.62-180.074,7.283-248.998
						c-32.646,118.204-52.99,241.513-59.518,368.479c16.415,46.171,45.388,107.379,95.811,168.608
						c101.679,123.467,106.521,123.467,60.524,210.618c-45.997,87.154-79.891,157.36-31.473,234.829
						c48.418,77.471,43.577,133.151,96.837,169.466c53.259,36.313,121.045,53.259,116.204,164.623
						c-2.143,49.301-3.808,108.556-3.533,162.662c179.564,242.257,421.392,435.575,701.84,556.307
						c-25.189-94.829-44.67-221.344-10.766-324.36c62.943-191.253,101.678-229.988,159.78-387.347
						c58.102-157.36,67.786-113.782,108.942-188.831c41.155-75.047,67.785-111.362,29.05-157.36
						C2070.13,2973.63,2026.554,3017.208,1815.934,2886.478z"></path>
            <path fill="#381f31" d="M1821.857,4080.25c-0.364,0-0.73-0.072-1.077-0.222
						c-278.586-119.931-521.663-312.603-702.95-557.187c-0.345-0.466-0.533-1.029-0.536-1.608
						c-0.24-47.04,1.016-104.854,3.535-162.794c3.952-90.902-40.24-117.107-87.027-144.851
						c-9.297-5.514-18.912-11.215-27.989-17.404c-32.375-22.073-43.599-50.779-57.808-87.122
						c-9.525-24.361-20.321-51.975-39.806-83.15c-22.779-36.447-29.142-73.242-20.023-115.797
						c8.143-37.997,27.256-76.006,51.397-121.747c43.336-82.108,41.612-84.197-48.632-193.565c-3.713-4.5-7.574-9.179-11.585-14.05
						c-52.416-63.649-81.286-127.267-96.275-169.427c-0.12-0.337-0.172-0.695-0.154-1.053
						c6.423-124.926,26.48-249.098,59.613-369.063c0.299-1.082,1.231-1.87,2.348-1.984c1.119-0.118,2.189,0.468,2.702,1.467
						c18.131,35.364,10.455,67.819,1.565,105.399c-9.145,38.66-19.509,82.477-8.59,144.368
						c11.445,64.872,33.136,135.762,59.513,194.493c30.143,67.118,63.535,113.07,96.565,132.888
						c68.458,41.077,148.633,30.607,200.838,7.115c23.806-10.713,74.083-17.762,131.212-18.396
						c61.229-0.69,115.635,5.998,149.249,18.322c32.744,12.007,62.056,38.992,102.625,76.343
						c50.593,46.578,119.882,110.369,236.802,182.94c125.196,77.708,192.153,93.876,232.158,103.536
						c28.188,6.807,45.202,10.915,61.419,30.173c36.439,43.271,17.114,77.972-17.969,140.97
						c-3.468,6.227-7.054,12.666-10.776,19.454c-15.096,27.528-26.017,39.283-36.579,50.65
						c-18.187,19.575-35.365,38.064-72.195,137.814c-25.25,68.384-47.155,115.056-68.339,160.191
						c-27.446,58.479-55.828,118.948-91.41,227.064c-34.273,104.138-13.038,233.024,10.811,322.81
						c0.268,1.008-0.063,2.08-0.853,2.762C1823.134,4080.023,1822.5,4080.25,1821.857,4080.25z M1122.738,3520.314
						c179.544,241.971,419.776,432.906,695.063,552.49c-23.439-90.216-43.302-217.166-9.296-320.49
						c35.686-108.43,64.138-169.051,91.653-227.677c21.135-45.031,42.99-91.597,68.16-159.763
						c37.208-100.773,54.747-119.65,73.315-139.636c10.335-11.124,21.022-22.626,35.793-49.562
						c3.731-6.804,7.321-13.251,10.793-19.486c17.043-30.604,30.505-54.776,35.057-75.845c4.746-21.965-0.188-39.599-16.496-58.964
						c-15.066-17.892-30.504-21.62-58.531-28.388c-40.324-9.736-107.813-26.033-233.753-104.202
						c-117.358-72.844-186.866-136.836-237.619-183.562c-40.106-36.925-69.084-63.603-100.81-75.235
						c-70.64-25.902-227.394-22.103-276.351-0.074c-53.461,24.059-135.619,34.745-205.876-7.41
						c-72.807-43.685-136.075-203.198-158.64-331.106c-11.113-62.998-0.153-109.335,8.654-146.568
						c8.403-35.525,15.156-64.081,1.986-95.052c-31.818,117.199-51.139,238.35-57.444,360.227
						c14.895,41.751,43.464,104.497,95.166,167.279c4.01,4.87,7.87,9.547,11.582,14.046
						c90.736,109.964,94.278,114.257,49.248,199.575c-48.851,92.562-77.44,158.724-31.571,232.114
						c19.753,31.606,30.647,59.47,40.259,84.054c13.867,35.466,24.819,63.479,55.803,84.605
						c8.936,6.092,18.474,11.748,27.699,17.219c46.107,27.34,93.784,55.611,89.691,149.772
						C1123.773,3416.163,1122.519,3473.522,1122.738,3520.314z"></path>
          </g>
        </g>
      </g>
      <g>
        <path fill="#f05132" d="M4531.059,2058.863c-176.506,0-714.345,319.594-714.345,319.594s537.839,319.591,714.345,319.591
				c176.507,0,302.163-143.087,302.163-319.591C4833.222,2201.95,4707.566,2058.863,4531.059,2058.863z M4548.981,2519.972
				c-78.157,0-141.515-63.36-141.515-141.515c0-78.159,63.358-141.518,141.515-141.518c78.157,0,141.516,63.36,141.516,141.518
				C4690.497,2456.612,4627.139,2519.972,4548.981,2519.972z"></path>
        <path fill="#381f31" d="M4531.06,2700.771c-40.607,0-103.553-16.866-187.088-50.129
				c-66.649-26.539-146.56-63.537-237.514-109.964c-154.81-79.023-289.79-159.081-291.136-159.88
				c-0.826-0.491-1.332-1.381-1.332-2.342s0.506-1.851,1.332-2.342c1.346-0.799,136.326-80.857,291.136-159.881
				c90.954-46.428,170.864-83.425,237.514-109.965c83.535-33.264,146.48-50.13,187.088-50.13
				c85.062,0,162.935,33.554,219.271,94.481c55.21,59.709,85.615,140.623,85.615,227.836c0,87.212-30.405,168.125-85.615,227.834
				C4693.994,2667.218,4616.122,2700.771,4531.06,2700.771z M3822.071,2378.457c23.406,13.777,147.05,86.002,286.889,157.382
				c204.401,104.336,350.361,159.485,422.1,159.485c170.708,0,299.439-136.224,299.439-316.867
				c0-180.646-128.731-316.871-299.439-316.871c-71.738,0-217.698,55.15-422.1,159.487
				C3969.121,2292.454,3845.478,2364.68,3822.071,2378.457z M4548.981,2522.695c-79.534,0-144.239-64.705-144.239-144.238
				c0-79.535,64.705-144.242,144.239-144.242s144.239,64.707,144.239,144.242C4693.221,2457.99,4628.516,2522.695,4548.981,2522.695
				z M4548.981,2239.663c-76.53,0-138.792,62.263-138.792,138.794c0,76.529,62.262,138.791,138.792,138.791
				s138.792-62.262,138.792-138.791C4687.773,2301.926,4625.512,2239.663,4548.981,2239.663z"></path>
      </g>
    </g>
  </g>
</svg>
