<svg xmlns="http://www.w3.org/2000/svg" viewBox="0 0 873.62 838.76" id="graphic-designer-working-on-computer-with-dog">
  <path fill="#fdf2e0" d="M197.76,542.71,78.21,516.19c-15.7-3.48-31.92-7.21-44.76-16.89-51.17-38.57-18.73-99.51,9.28-140.91,52.28-77.31,59.35-173.28,110-250.79,30.36-46.51,78.62-84.69,134-88.86,71.63-5.39,135.56,45.08,206.63,55.53,84.53,12.42,178.56-35.57,258.37,9,26.66,14.89,47,39.42,60.89,66.64,30.54,60,37.9,133.54,27.48,199.42-7.69,48.6-44.9,70.25-68,111.19-18.29,32.38-23.68,76.85-57.27,92.82-9.43,4.49-20,5.94-30.31,7.33-88.25,11.91-177.15,23.84-266,18.71C343.89,575.09,270.64,558.87,197.76,542.71Z"></path>
  <path fill="#c0bfcc" d="M638.4,102.4c4,5.5,12.71,20,2.52,32.92a3,3,0,0,1-2.47,1.06H477.94a3.23,3.23,0,0,0-3,4c1.72,7.12,7.35,21.86,24.59,23.4,18.72,1.68,50-10.63,61.42,2.33,2.52,2.86,4.08,7,4.3,12.75,1.22,31.84-68.17,43.43-100.82,11.19-19.22-19-25.43-57.21-24.71-90.54.38-17.66,2.71-33.93,6.07-45.24A55.21,55.21,0,0,1,449.3,45c2.51-5,6.84-10,12.39-14.6A98.67,98.67,0,0,1,481.8,17.61c.66-.33,1.33-.65,2-.95a96.7,96.7,0,0,1,19.78-7.1,2.51,2.51,0,0,1,.57-.18h0A118.15,118.15,0,0,1,518.73,7,69.62,69.62,0,0,1,528.83,7l.41,0a54.52,54.52,0,0,1,6.49.85q1.26.24,2.49.54c.61.15,1.22.31,1.81.49a41.36,41.36,0,0,1,6.89,2.63l.41.2A3.12,3.12,0,0,0,551.68,10c1.2-3.4,3.17-8.06,5-8.31,2.34-.33,13.22,12.53,17,17.14a3.12,3.12,0,0,0,3.28,1c4.75-1.4,17.43-4.57,29.22-2.58a3.1,3.1,0,0,0,2.85-1L619,4.63a3.12,3.12,0,0,1,5.24.82l7.31,21a23.44,23.44,0,0,0,3.24,3c5.26,4.15,41.51,35,4.06,68.79A3.13,3.13,0,0,0,638.4,102.4Z"></path>
  <path fill="#313131" d="M516.21,210.88c-21,0-40.32-7.17-53-19.66-24-23.72-25.63-72.07-25.2-91.75.37-17.15,2.6-33.8,6.14-45.68a58.3,58.3,0,0,1,3.64-9.52c2.57-5.06,6.88-10.14,12.81-15.12a100.91,100.91,0,0,1,20.45-13c.67-.33,1.35-.65,2-1a98.08,98.08,0,0,1,20-7.19,2.67,2.67,0,0,1,.87-.25c1.37-.23,2.74-.49,4.11-.75a100.34,100.34,0,0,1,10.5-1.58,72.84,72.84,0,0,1,10.34-.07l.3,0h.11a58.79,58.79,0,0,1,6.69.89c.93.17,1.78.36,2.59.56s1.31.34,1.88.51A42,42,0,0,1,547.6,10c.14.05.27.12.4.18l.07,0a1.48,1.48,0,0,0,2-.82C552.94,1.48,555,.23,556.41,0l.33,0c1,0,3.55,0,18.22,17.75a1.49,1.49,0,0,0,1.55.48,80.78,80.78,0,0,1,21.61-3.29,50.3,50.3,0,0,1,8.35.66,1.4,1.4,0,0,0,1.32-.49l9.94-11.56a4.77,4.77,0,0,1,8,1.26.69.69,0,0,0,0,.1L633,25.66c.48.54,2.28,2.1,2.76,2.48,3.49,2.75,20.8,17.39,21.46,37.06.39,12-5.42,23.55-17.29,34.27a1.45,1.45,0,0,0-.21,2c4.35,6,13.31,21.38,2.49,35.1a4.8,4.8,0,0,1-3.77,1.86H477.94a1.37,1.37,0,0,0-1.14.48,1.42,1.42,0,0,0-.29,1.25c1.86,7.65,7.33,20.67,23.14,22.08,1.14.1,2.39.14,3.71.14,5.68,0,12.13-.91,19-1.87s14.09-2,20.51-2c9.24,0,15.38,2.09,19.32,6.56,2.9,3.29,4.49,7.92,4.71,13.77a23.39,23.39,0,0,1-7,17.32C551,205.36,534.67,210.88,516.21,210.88ZM504.45,11l-.45.16a94.88,94.88,0,0,0-19.5,7l-2,.94a98,98,0,0,0-19.78,12.59c-5.5,4.62-9.65,9.49-12,14.09a54.5,54.5,0,0,0-3.43,9c-3.45,11.61-5.64,27.94-6,44.81-.86,40.1,8.19,73.5,24.22,89.33,12,11.89,30.5,18.71,50.65,18.71,17.32,0,33.14-5.27,41.3-13.75,4.23-4.4,6.27-9.41,6.06-14.91-.2-5.13-1.47-9-3.89-11.71-3.26-3.71-8.62-5.43-16.84-5.43-6.19,0-13.24,1-20.05,1.95-6.65.93-13.52,1.9-19.43,1.9-1.42,0-2.77-.06-4-.17-18.52-1.65-24.39-17.76-26.05-24.61a4.3,4.3,0,0,1,.9-3.87,4.5,4.5,0,0,1,3.74-1.6H638.45a1.88,1.88,0,0,0,1.17-.75c9.42-11.94,1.35-25.79-2.56-31.13a4.85,4.85,0,0,1,.66-6.42c11.12-10,16.57-20.74,16.2-31.74-.6-18.21-16.91-32-20.17-34.58,0,0-3.3-2.61-3.76-3.72a.24.24,0,0,1,0-.08L622.68,6.05a1.45,1.45,0,0,0-1.34-.85,1.44,1.44,0,0,0-1.11.51L610.3,17.26a4.78,4.78,0,0,1-4.38,1.6,46.89,46.89,0,0,0-7.8-.62,77.45,77.45,0,0,0-20.69,3.16,4.83,4.83,0,0,1-5-1.54C563.89,9.54,558.48,4.2,556.82,3.38c-.42.36-1.69,1.8-3.59,7.14a4.79,4.79,0,0,1-4.5,3.19,4.69,4.69,0,0,1-2.14-.52l-.09,0-.21-.1-.1-.05a39.08,39.08,0,0,0-6.61-2.52c-.6-.18-1.17-.33-1.75-.47-.75-.19-1.53-.36-2.41-.52a51,51,0,0,0-6.3-.84l-.26,0-.13,0a70.67,70.67,0,0,0-9.87.06,96.9,96.9,0,0,0-10.15,1.54C507.29,10.48,505.87,10.75,504.45,11Z"></path>
  <path fill="#313131" d="M529,138.74h-.08a1.64,1.64,0,0,1-1.57-1.72h0a19.05,19.05,0,0,0-5.87-13.32c-6.26-6-16.74-8.45-31.16-7.26a1.65,1.65,0,0,1-.27-3.29c15.45-1.28,26.81,1.49,33.78,8.22a22,22,0,0,1,6.82,15.8A1.65,1.65,0,0,1,529,138.74Z"></path>
  <path fill="#fff" d="M560.85 11c-.83-1-1.92-2-3.16-1.73-1.4.29-1.92 2-2.12 3.42A71.61 71.61 0 0 0 554.9 26a1.37 1.37 0 0 0 .1.57 1.11 1.11 0 0 0 .44.42c1.12.63 2.52.17 3.72-.31l9.61-3.8c.3-.12.65-.3.68-.62a.89.89 0 0 0-.23-.56A127.45 127.45 0 0 0 560.85 11ZM625.58 22.28a13.92 13.92 0 0 0-1.45-3.81c-.94-2.31-.93-4.88-1.45-7.32-.21-1-.76-2.22-1.8-2.26a2.23 2.23 0 0 0-1.69 1c-1.82 2.2-2.5 5.12-4 7.55a5.1 5.1 0 0 0-.68 1.31 1.36 1.36 0 0 0 .33 1.36 1.94 1.94 0 0 0 .8.33l7.58 1.87 1.79.44a.52.52 0 0 0 .47 0A.5.5 0 0 0 625.58 22.28Z"></path>
  <path fill="#313131" d="M600.32 34c.22 1.08 1.13 1.86 1.66 2.83a4.41 4.41 0 0 1-1.07 5.38 6.42 6.42 0 0 0-1.55 1.33c-1 1.65 1 3.77.52 5.66a2.76 2.76 0 0 1-3.35 1.79A4.23 4.23 0 0 1 593.74 48a9.59 9.59 0 0 1-.11-4.2 4.14 4.14 0 0 0-.18-2.83c-.53-.87-1.63-1.18-2.39-1.84-1.39-1.19-1.5-3.31-1.21-5.11s.88-3.65.48-5.44c-.61-2.77-3.48-5.13-2.7-7.86.61-2.11 3.07-3 5.19-3.54a11.11 11.11 0 0 1 5.49-.5c1.8.45 3.43 2.17 3.09 4-.25 1.37-1.53 2.63-1.07 3.95.32.89 1.32 1.36 1.77 2.19C603.31 29.06 599.83 31.45 600.32 34ZM546.92 11.52a9 9 0 0 1-2.63 5.76c-2.12 2-5.55 3.21-7.18 5.5-2.35 3.31 0 7.44-.84 11.16-.86 3.89-5.13 7.08-5.4 11-.22 3.34 2.52 6.62 1.68 9.9-.57 2.2-2.65 4-3.5 6.14-1.69 4.29 1.82 8.69 2.29 13.15.51 4.8-2.52 9.9 0 14.33.7 1.22 1.8 2.3 2.4 3.56 1.61 3.39-.7 7.18.12 10.73.6 2.61 2.87 5 2.77 7.62-2.8 1.18-6.11-.61-8.26-2.43a43.56 43.56 0 0 1-9.12-10.53c-1.32-2.18-2.42-4.55-2-6.93a20.56 20.56 0 0 1 1.9-4.72A26.21 26.21 0 0 0 521 76.45c.48-9.38-1.14-19.76-10.12-26.15-1.41-1-3-1.93-3.78-3.27-1-1.83-.21-4 1.41-5.59a21.82 21.82 0 0 1 6.12-3.66q-1-3.93-2-7.85a4.84 4.84 0 0 1-.16-2.71c.5-1.5 2.35-2.48 3.57-3.72 4.4-4.45.29-11.49 2.73-16.42C529 6.28 538.75 7.51 546.92 11.52ZM456.35 86a2 2 0 0 1 .61-2.7 7.57 7.57 0 0 1 2.88-1.06c2.62-.66 5.29-2.2 6.1-4.78.66-2.09-.06-4.4.45-6.53.57-2.39 2.58-4.15 4.64-5.51s4.3-2.51 5.87-4.4c2.19-2.63 2.83-6.42 5.42-8.66 1.56-1.35 3.62-1.94 5.48-2.86s3.67-2.44 3.87-4.5a2.32 2.32 0 0 1 .33-1.36 1.8 1.8 0 0 1 1.59-.36l3.86.37c-1.37 2.05-.44 4.77-.38 7.23a10 10 0 0 1-5 8.82c-2.44 1.37-5.42 1.67-7.69 3.31-2.65 1.91-3.82 5.28-4.32 8.51-.35 2.24-.53 4.68-2.05 6.36-2.52 2.77-7.32 2-10.15 4.43-1.18 1-1.9 2.54-3.15 3.48C462.39 87.54 459.13 86.81 456.35 86Z"></path>
  <path fill="#313131" d="M507.83 60.67c-.6 1.21-.49 2.65-.88 3.94-1 3.15-4.5 4.64-7.68 5.5s-6.75 1.69-8.55 4.45c-1 1.59-1.28 3.54-1.8 5.36s-1.52 3.73-3.31 4.36c-1.25.45-3 .48-3.32 1.78 4 .52 8.81.77 11.41-2.35a15.32 15.32 0 0 1 1.91-2.38c2.86-2.28 7.35 1 10.65-.58 2.37-1.11 3.05-4.18 5-5.9s4.86-1.8 7.48-1.79a18.51 18.51 0 0 0-1.25-13.68 2.46 2.46 0 0 0-.76-1 2.59 2.59 0 0 0-1.35-.32C512.57 57.93 509.1 58.13 507.83 60.67ZM511.59 106.21c.38-2.22 2.09-3.93 3.42-5.74s2.35-4.31 1.23-6.26c-1.28-2.2-4.47-2.31-6.87-1.46s-4.65 2.34-7.19 2.44c-2.89.11-5.77-1.65-8.56-.9-2.49.67-4.12 3.14-6.55 4-3.26 1.17-7.16-.83-10.24.74a13.27 13.27 0 0 0-2.88 2.42 19.15 19.15 0 0 1-10.79 5.09c3.77.38 7.73.74 11.24-.7 2.76-1.14 5.27-3.38 8.24-3.19 2.77.19 5 2.45 7.66 3.13 4.93 1.24 10.08-3.09 14.94-1.62C507.4 104.82 509.37 106.6 511.59 106.21ZM663.19 84.11H663L627.16 81a1.65 1.65 0 0 1-.31-3.23l42.43-12.21a1.66 1.66 0 1 1 .92 3.18L636.35 78.5l27 2.31a1.65 1.65 0 0 1-.14 3.3ZM531.44 84.11a1.65 1.65 0 0 1-.14-3.3l27-2.31-33.85-9.73a1.66 1.66 0 1 1 .92-3.18L567.78 77.8a1.65 1.65 0 0 1-.31 3.23L531.59 84.1ZM608.08 30.65a5 5 0 0 1 2.22-1c2.63-.47 5.64.94 5.91 3.83.19 2-1.05 3.25-2 4.85A5.87 5.87 0 0 1 611.69 41a4.19 4.19 0 0 1-4-.13C604.11 38.54 605 33 608.08 30.65ZM585.43 30.65a5 5 0 0 0-2.22-1c-2.63-.47-5.64.94-5.91 3.83-.19 2 1.05 3.25 2 4.85A5.87 5.87 0 0 0 581.82 41a4.19 4.19 0 0 0 4-.13C589.4 38.54 588.5 33 585.43 30.65Z"></path>
  <path fill="#fff" d="M555.54,99.37c-2.62-5.78,36.06-36.76,46.52-34.55s37.17,30.56,34.56,33.86-24.92,12.39-42.68,12.11S555.54,99.37,555.54,99.37Z"></path>
  <path fill="#fff" d="M590.69,69.3a17.86,17.86,0,0,1,5.68-4,11.73,11.73,0,0,1,8.26.41,29.57,29.57,0,0,1,7.15,4.47c2.26,1.78,4.55,3.76,5.5,6.48s0,6.3-2.74,7.25c-2.16.76-4.63-.33-6.8.38-1.67.56-2.92,2.11-4.65,2.44-2.69.52-5-2-7.65-2.6-2.39-.49-5,.65-7.25-.2-2.8-1-3.8-4.73-2.88-7.57S588.5,71.33,590.69,69.3Z"></path>
  <path fill="#313131" d="M603.16,62.74a1.7,1.7,0,0,1,1.2,2.64,4.77,4.77,0,0,1-1.56,2.07,3.3,3.3,0,0,1-2.48.64,4.89,4.89,0,0,1-1.86-.84,8.17,8.17,0,0,1-1.73-1.48,2,2,0,0,1-.44-2.4,2.35,2.35,0,0,1,1.62-.72A11.21,11.21,0,0,1,603.16,62.74Z"></path>
  <path fill="#313131" d="M608.24,80.3a8.73,8.73,0,0,1-5.8-2c-4.17-3.55-3.63-10.47-3.6-10.76a1.65,1.65,0,1,1,3.29.28c0,.06-.42,5.54,2.46,8,1.49,1.26,3.74,1.51,6.7.76a1.65,1.65,0,0,1,.82,3.2A15.87,15.87,0,0,1,608.24,80.3Z"></path>
  <path fill="#313131" d="M593.57 81.4a19.23 19.23 0 0 1-5-.74 1.65 1.65 0 1 1 .87-3.19c3.76 1 6.43.8 7.93-.67 2.42-2.39 1.68-7.9 1.19-9.82a1.65 1.65 0 1 1 3.2-.82c.09.35 2.21 8.76-2.07 13A8.39 8.39 0 0 1 593.57 81.4ZM602.55 89.09a14.24 14.24 0 0 1-6.78-1.9 1.65 1.65 0 1 1 1.57-2.9c5.8 3.12 9 .38 9 .36a1.65 1.65 0 0 1 2.33.12 1.67 1.67 0 0 1-.12 2.34A9.36 9.36 0 0 1 602.55 89.09Z"></path>
  <path fill="#fff" d="M590 134.48s-.16-13.84-8.76-16.56-17 16.66-17 16.66ZM596.7 134.12s.55-13.83 9.22-16.31S622.44 135 622.44 135Z"></path>
  <path fill="#313131" d="M503 19.33c-.8 1.56-2.36 2.66-3.05 4.27-1.11 2.56.25 5.56-.39 8.26-.42 1.79-1.65 3.23-2.53 4.84s-1.34 3.71-.25 5.18A34.54 34.54 0 0 0 482 41.07a28.2 28.2 0 0 1-3.65-7.3c-.61-1.83-1-3.92-.08-5.62 1.15-2.14 4.1-3.08 4.74-5.43.47-1.73-.52-3.45-1.18-5.12a112.74 112.74 0 0 1 22.36-8.14C502.88 12.53 504.47 16.35 503 19.33ZM467.19 50.05a32.73 32.73 0 0 0-5.91 7.09 26 26 0 0 1-3.48 5A5.81 5.81 0 0 1 452.22 64c-2-.61-3.15-2.55-4.07-4.38s-1.68-3.52-2.39-5.34A55.56 55.56 0 0 1 449.3 45c2.51-5 6.84-9.94 12.39-14.6A11.44 11.44 0 0 1 465 34.27c1.12 2.62 0 5.59-.48 8.39S464.52 49.06 467.19 50.05ZM464.4 190.05c-19.22-19-25.43-57.21-24.71-90.55a19.63 19.63 0 0 1 5.48 14.76c-.15 2-.59 4.16.28 6 2 4.18 8.95 3.4 11.4 7.33s-1.65 9-2 13.7a8.72 8.72 0 0 0 6.84 8.84c2.63.49 5.78-.13 7.68 1.76 2.41 2.41.65 6.42-.75 9.53a18.58 18.58 0 0 0-1.86 9.8 10.05 10.05 0 0 0 5.41 8c8.3 3.75 17.71-7.54 26.15-4.11 3.6 1.46 5.66 5.17 7.44 8.62l4.79 9.25a11.13 11.13 0 0 0 3 4.12c2.09 1.51 4.9 1.38 7.48 1.18 1.88-.15 3.94-.37 5.29-1.7 1.71-1.67 1.61-4.38 1.7-6.78a27.86 27.86 0 0 1 3.42-12.35c1.4-2.55 3.85-5.16 6.72-4.65 4.87.86 5.81 9.64 10.75 9.26 2.65-.21 4.12-3.08 5.12-5.54 1.26-3.1 2.63-6.25 4.91-8.7a11.79 11.79 0 0 1 1.91-1.68c2.52 2.87 4.08 7 4.3 12.74C566.44 210.71 497.05 222.29 464.4 190.05ZM592.3 112.83a71.4 71.4 0 0 1-34.36-8.34C544.14 97 535 85.17 533.53 72.86c-3-25 11.49-38.43 15.16-41.4-.36-3-1.29-12.47.23-18.35a1.65 1.65 0 0 1 3.2.83c-1.63 6.29 0 17.91 0 18a1.64 1.64 0 0 1-.68 1.57c-.72.52-17.73 13-14.59 38.92 1.36 11.25 9.85 22.14 22.71 29.12 21.18 11.52 49 10.47 76.38-2.89a1.65 1.65 0 1 1 1.45 3C622.13 109.09 606.73 112.83 592.3 112.83Z"></path>
  <path fill="#313131" d="M507.91 116.85a1.62 1.62 0 0 1-.87-.25 1.66 1.66 0 0 1-.53-2.28c.17-.27 17-27.66 11.79-48.85a27.83 27.83 0 0 0-13.7-17.81c-8.32-4.83-16.45-6-24.16-3.55-16.71 5.36-26.27 26.13-26.36 26.34a1.65 1.65 0 1 1-3-1.36c.41-.91 10.27-22.33 28.36-28.13 8.64-2.77 17.66-1.47 26.83 3.84 8 4.64 13.12 11.33 15.24 19.88 5.6 22.56-11.46 50.23-12.19 51.39A1.65 1.65 0 0 1 507.91 116.85ZM597.11 139.38a2 2 0 0 1-1.65-1.95C595 111.32 627.71 110 628 110a1.57 1.57 0 0 1 1.69 1.53 1.6 1.6 0 0 1-1.6 1.65c-1.22 0-29.75 1.39-29.37 24.23a1.92 1.92 0 0 1-1.62 2ZM589.68 137.91a1.59 1.59 0 0 1-.48-.07 1.65 1.65 0 0 1-1.11-2.05 14.71 14.71 0 0 0-2.45-12c-4.84-6.76-15.75-10.74-31.56-11.51a1.65 1.65 0 1 1 .16-3.3c17.15.84 28.63 5.2 34.13 13a18.1 18.1 0 0 1 2.89 14.77A1.64 1.64 0 0 1 589.68 137.91ZM611.14 58.59a1.65 1.65 0 0 1-.43-3.25L636 48.54a1.65 1.65 0 1 1 .86 3.19l-25.29 6.8A1.59 1.59 0 0 1 611.14 58.59ZM582.87 58.59a1.65 1.65 0 0 1-.43-.06l-25.29-6.8a1.65 1.65 0 1 1 .86-3.19l25.29 6.8a1.65 1.65 0 0 1-.43 3.25Z"></path>
  <rect width="28.52" height="93.08" x="567.8" y="356.58" fill="#333"></rect>
  <rect width="381.27" height="260.13" x="391.43" y="132.9" fill="#eeb857" rx="6.61"></rect>
  <path fill="#313131" d="M766.09,394.68H398a8.26,8.26,0,0,1-8.26-8.26V139.51a8.26,8.26,0,0,1,8.26-8.26H766.09a8.26,8.26,0,0,1,8.26,8.26V386.42A8.26,8.26,0,0,1,766.09,394.68ZM398,134.55a5,5,0,0,0-5,5V386.42a5,5,0,0,0,5,5H766.09a5,5,0,0,0,5-5V139.51a5,5,0,0,0-5-5Z"></path>
  <rect width="120.1" height="18.01" x="522.28" y="442.15" fill="#333" rx="9"></rect>
  <path fill="#a5a653" d="M869,339.21c-19.79-20.29-69.77,42.06-72.74,56.41,0,0-9.3,19-5.68,26.16-2.53,3.93-4.86,7.59-6.39,10.08-3.27,5.31-7.94,15.38-11.13,22.53-.44-15.83-.82-40-.1-54.32a6.6,6.6,0,0,0,3.36-.4C790,394.57,842.58,260.94,806,254.26s-52.41,96-46.17,113.35c0,0,1.76,23.31,9.3,30.46-1.3,20.77.17,63.06.25,65.24l.31,8.92,3.49-8.21c.09-.22,9.24-21.74,14.38-30.09,1.47-2.4,3.69-5.88,6.11-9.65l.12,0C804.15,426.79,888.76,359.5,869,339.21Z"></path>
  <path fill="#313131" d="M769.66,473.88l-.3,0a1.65,1.65,0,0,1-1.35-1.57l-.31-8.91c-.07-1.78-1.53-43.52-.29-64.66-7.14-7.71-9-28.25-9.24-30.76-4.94-14.53,3.46-74.5,22.33-101.37,6.66-9.48,14.09-14.29,22.08-14.29a21,21,0,0,1,3.69.34c8.11,1.48,12.77,8.43,13.85,20.66,2.15,24.49-10.38,61.91-15.87,76.86-8.37,22.8-20.51,48.51-27.38,51.07a9.22,9.22,0,0,1-2.37.54c-.57,13.32-.26,33.53,0,45.39A178.11,178.11,0,0,1,782.75,431c1.3-2.11,3.3-5.27,5.94-9.37-2.79-7.91,4.7-23.93,6-26.55,2.94-12.7,40.54-61.53,64.61-61.53a14.64,14.64,0,0,1,10.88,4.52c4.17,4.27,4.58,10.46,1.23,18.4-11.49,27.25-65.59,69.36-76.9,69.58-2.46,3.82-4.32,6.77-5.55,8.76-5.08,8.26-14.17,29.64-14.26,29.85l-3.49,8.22A1.64,1.64,0,0,1,769.66,473.88Zm32.92-218.29c-6.85,0-13.37,4.34-19.37,12.89-19.07,27.14-26.11,86.77-21.86,98.57a1.34,1.34,0,0,1,.1.44c0,.22,1.8,22.75,8.79,29.38a1.69,1.69,0,0,1,.51,1.31c-1.3,20.73.18,63.27.25,65.07l0,1.48.58-1.36c.08-.2,9.23-21.76,14.49-30.3,1.33-2.16,3.39-5.42,6.13-9.68a1.66,1.66,0,0,1,1.81-.71s.08-.15.12-.14.11-.16.21-.16h0c9,0,62.5-40.23,74-67.38,2.78-6.6,2.6-11.49-.55-14.72a11.31,11.31,0,0,0-8.52-3.48c-22.31,0-59,47.59-61.42,59.13a1.53,1.53,0,0,1-.14.41c-2.48,5.07-8.35,19.4-5.69,24.69a1.66,1.66,0,0,1-.08,1.64c-2.87,4.45-5,7.83-6.38,10.05-3.2,5.2-7.76,15-11,22.34a1.65,1.65,0,0,1-3.16-.62c-.24-8.57-.94-37.83-.1-54.45a1.65,1.65,0,0,1,1.89-1.55,5.12,5.12,0,0,0,2.55-.32c4.12-1.53,15-20.75,25.43-49.11,11.27-30.7,17.13-58.9,15.68-75.43-.93-10.56-4.69-16.52-11.15-17.7A17.29,17.29,0,0,0,802.58,255.59Z"></path>
  <path fill="#a5a653" d="M773.89,458.41c-3.24-11.21-18.79-38.86-26.79-52.71,4.67-4.58,3.07-11.16-17-32.51-20.78-22.1-42.88-49.81-49.81-23.75-6.52,24.52,45.77,63.78,63.42,58.3,7.22,12.52,20.61,36.31,25.27,48.52-2.13-2.39-4.89-5.7-7.44-8.78-11.13-13.4-26.38-31.75-36.06-33.36a46.4,46.4,0,0,0-14.42-.36c-5.47-2.12-17.46,5.4-17.46,5.4-12.32,8.85-49.62,50.32-32.15,73,17.07,22.2,52.48-62.67,52.15-74.73a44.5,44.5,0,0,1,11.23.57c8.23,1.37,23.54,19.79,33.66,32,8.44,10.16,11.3,13.49,13.45,13.49a2.4,2.4,0,0,0,1.11-.3C775,462.18,774.24,459.63,773.89,458.41Z"></path>
  <path fill="#313131" d="M668,497.53c-3,0-5.62-1.46-7.83-4.33-4.18-5.43-5.7-12.21-4.54-20.14,3.31-22.5,27.84-48.63,37-55.24l.08-.06c.4-.24,9.69-6,16-6a8.54,8.54,0,0,1,2.45.33,48.93,48.93,0,0,1,14.53.42c10.29,1.71,25.12,19.56,37,33.91-5.77-11.86-14.25-27-19.9-36.76a15.47,15.47,0,0,1-3,.27c-13.9,0-38.83-16-52.32-33.51-7.87-10.23-11-19.7-8.91-27.39s5.77-11.78,11-11.78c9.46,0,22,13.63,35.35,28,2.09,2.28,4.2,4.55,6.29,6.78,18.07,19.22,22.71,27.82,17.83,33.86,8.75,15.18,23.18,41.08,26.35,52,.36,1.25,1.46,5.06-1.67,6.71a4,4,0,0,1-1.88.49c-2.89,0-5.44-2.92-14.72-14.08s-25-30.14-32.66-31.42a45.73,45.73,0,0,0-9.41-.64c-1.5,11.85-18.92,55.17-35,71.68C675.74,495.23,671.64,497.53,668,497.53Zm26.55-77c-8.9,6.43-32.49,31.52-35.65,53-1,7,.28,12.95,3.89,17.65,1.58,2,3.28,3,5.21,3,2.75,0,6.06-2,9.82-5.84,16.05-16.49,34.39-62.65,34.16-70.89a1.65,1.65,0,0,1,1.51-1.69,46.9,46.9,0,0,1,11.64.59c8.17,1.36,21.06,16.17,34.66,32.55,6.23,7.49,10.72,12.9,12.18,12.9a.7.7,0,0,0,.34-.11c.53-.28.53-1.14,0-2.87-3.26-11.28-19.71-40.36-26.63-52.34a1.65,1.65,0,0,1,.27-2c3.11-3,4.15-7.66-17.05-30.2-2.1-2.23-4.21-4.51-6.31-6.8-12.25-13.27-24.91-27-32.92-27-1.32,0-5.3,0-7.78,9.33-2.24,8.41,3.3,18,8.33,24.53,12.73,16.56,36.89,32.22,49.7,32.22a11,11,0,0,0,3.3-.45,1.67,1.67,0,0,1,1.92.75c7.47,13,20.71,36.52,25.39,48.76a1.66,1.66,0,0,1-.69,2,1.64,1.64,0,0,1-2.09-.31c-2.18-2.44-5-5.83-7.48-8.83-10.35-12.45-26-31.27-35.06-32.78a45.4,45.4,0,0,0-13.91-.35,1.6,1.6,0,0,1-.84-.1,4.84,4.84,0,0,0-1.69-.26C704.29,415,697,419,694.51,420.53Z"></path>
  <path fill="#eeb857" d="M714.89,440.26H825.14l-5.24,80.29c-1.12,17.11-11.55,30.22-24,30.22H744.17c-12.5,0-22.92-13.11-24-30.22Z"></path>
  <path fill="#313131" d="M795.86,552.42H744.17c-13.47,0-24.51-13.65-25.69-31.76l-5.24-80.29a1.64,1.64,0,0,1,1.65-1.76H825.14a1.66,1.66,0,0,1,1.65,1.76l-5.24,80.29C820.37,538.77,809.32,552.42,795.86,552.42ZM716.65,441.91l5.13,78.54c1.05,16.07,10.88,28.67,22.39,28.67h51.69c11.51,0,21.34-12.6,22.39-28.67l5.13-78.54Z"></path>
  <path fill="#f0ddd8" d="M733.69 464.83a3.07 3.07 0 0 0 2.55-1.34 17.69 17.69 0 0 1 11.47-8.81 3.09 3.09 0 1 0-2.16-5.79 30.19 30.19 0 0 0-8.9 4.55 30.5 30.5 0 0 0-5.51 6.56 3.09 3.09 0 0 0 .81 4.29A3 3 0 0 0 733.69 464.83ZM763.52 494.3a3 3 0 0 0 1.71-.52 3.08 3.08 0 0 0 .86-4.28 23.68 23.68 0 0 0-9.21-8.1 3.09 3.09 0 0 0-5.84.73c-.14.72-.33 3.18 2.86 4.7a17.72 17.72 0 0 1 7 6.09A3.09 3.09 0 0 0 763.52 494.3ZM744.81 532.6a3.09 3.09 0 0 0 .21-6.18c-1.18-.08-2.59-2.09-3.27-3.06l-2.79-4a3.09 3.09 0 1 0-5.07 3.55l2.8 4c1.32 1.88 3.78 5.4 7.91 5.68ZM772.52 525a3.06 3.06 0 0 0 1.87-.63 19.36 19.36 0 0 1 6.06-3.11l.57-.17a10.41 10.41 0 0 0 4.92-2.54 3.09 3.09 0 0 0-4.44-4.3 6.23 6.23 0 0 1-2.21.91l-.64.19a25.07 25.07 0 0 0-8 4.11 3.09 3.09 0 0 0 1.88 5.54ZM771.09 466.9l.46 0a3 3 0 0 0 2-1.23 11.24 11.24 0 0 1 4.19-.78 15 15 0 0 1 2.22.42 14.57 14.57 0 0 0 4.72.56 3.09 3.09 0 0 0-.52-6.16 10.72 10.72 0 0 1-2.77-.41 19.21 19.21 0 0 0-3.21-.57 19.66 19.66 0 0 0-7.92 1.54 3.68 3.68 0 0 0-2.36 4.25A3.33 3.33 0 0 0 771.09 466.9ZM812.07 462.83a3.09 3.09 0 0 0 3.09-3c.06-3.75-3.61-5.25-5.18-5.89a16.86 16.86 0 0 1-4.94-3.14 3.09 3.09 0 1 0-4.16 4.58 22.84 22.84 0 0 0 6.76 4.27 9.63 9.63 0 0 1 1.38.66 3.1 3.1 0 0 0 3 2.56ZM791.85 499.87a3.07 3.07 0 0 0 2.29-1 10.07 10.07 0 0 1 2.71-1.75l1-.53c2.85-1.55 4.55-3.41 5.18-5.69a3.09 3.09 0 1 0-5.95-1.67c-.09.33-.49 1-2.18 1.92l-.9.47a14.9 14.9 0 0 0-4.46 3.09 3.09 3.09 0 0 0 .21 4.37A3 3 0 0 0 791.85 499.87ZM797.12 535.5a3.09 3.09 0 0 0 2.11-.83l5.45-5.12a3.09 3.09 0 1 0-4.23-4.5L795 530.16a3.09 3.09 0 0 0 2.12 5.34Z"></path>
  <path fill="#8f8ec3" d="M755.53,536.38H711.88c0,9,6.89,16,15.39,16H812c8.5,0,15.38-7,15.38-16Z"></path>
  <path fill="#313131" d="M812,553.38H727.27c-9.56,0-16.7-7.31-16.7-17v-2h118v2C828.57,546.07,821.53,553.38,812,553.38Zm-98.36-15a13.3,13.3,0,0,0,13.65,12H812a13.31,13.31,0,0,0,13.65-12Z"></path>
  <path fill="#333" d="M772.93 401.73h-.13a1.65 1.65 0 0 1-1.52-1.77c.25-3.28 6.31-80.78 21.81-116.28a1.65 1.65 0 0 1 3 1.32c-15.28 35-21.48 114.41-21.54 115.21A1.66 1.66 0 0 1 772.93 401.73ZM791.59 425.08a1.65 1.65 0 0 1-1.37-2.57c1.12-1.67 27.74-41.07 48.76-58.84a1.65 1.65 0 0 1 2.14 2.52C820.44 383.66 793.23 424 793 424.35A1.64 1.64 0 0 1 791.59 425.08ZM746.15 407.76a1.61 1.61 0 0 1-1.17-.49c-2.14-2.14-14.87-13.88-27.18-25.24-9.06-8.35-17.61-16.25-21.24-19.66a1.65 1.65 0 0 1 2.26-2.41c3.62 3.41 12.17 11.29 21.22 19.64 12.33 11.38 25.08 23.15 27.27 25.34a1.64 1.64 0 0 1 0 2.33A1.61 1.61 0 0 1 746.15 407.76ZM671.08 473.29a1.75 1.75 0 0 1-.4-.05 1.65 1.65 0 0 1-1.21-2c9.62-39 43.08-55.12 43.41-55.28a1.65 1.65 0 1 1 1.41 3c-.32.15-32.38 15.67-41.61 53.08A1.65 1.65 0 0 1 671.08 473.29ZM442.33 472.61H641A10.43 10.43 0 0 1 649.57 489l-69.51 99.65L421.8 585Z"></path>
  <path fill="#fff" d="M528.87 583.2a1.67 1.67 0 0 1-1-.3 1.91 1.91 0 0 1-.39-2.51l66.23-94H459.47a1.51 1.51 0 1 1 0-3H597a1.68 1.68 0 0 1 1.46.94 1.7 1.7 0 0 1-.11 1.74l-68.08 96.43A1.67 1.67 0 0 1 528.87 583.2ZM588.44 543.65c-7.94 0-14.16-4.09-14.16-9.32S580.5 525 588.44 525s14.16 4.1 14.16 9.33S596.38 543.65 588.44 543.65Zm0-15.34c-5.89 0-10.86 2.75-10.86 6s5 6 10.86 6 10.86-2.76 10.86-6S594.33 528.31 588.44 528.31ZM626.64 500.38H602.36c-.91 0-1.65-1.09-1.65-2s.74-2 1.65-2h23.4l6.12-9H606.49a1.51 1.51 0 1 1 0-3H635a1.61 1.61 0 0 1 1.37 2.52L628 499.47A1.84 1.84 0 0 1 626.64 500.38Z"></path>
  <path fill="#333" d="M699.57,583.37c36.73-6.12,106.87-7,132.38,51H702.89Z"></path>
  <path fill="#fff" d="M827,611.38H769.21a1.54,1.54,0,0,1-1.64-1.53V585.07a1.51,1.51,0,1,1,3,0v23.31H827a1.51,1.51,0,1,1,0,3Z"></path>
  <polygon fill="#c0bfcc" points="485.85 146.79 444.7 146.79 445.01 339.88 486.16 339.88 485.85 146.79"></polygon>
  <path fill="#313131" d="M486.16,341.53H445a1.65,1.65,0,0,1-1.65-1.65l-.31-193.08a1.65,1.65,0,0,1,.48-1.17,1.62,1.62,0,0,1,1.17-.49h41.15a1.65,1.65,0,0,1,1.65,1.65l.31,193.09a1.64,1.64,0,0,1-1.65,1.65Zm-39.5-3.3h37.85l-.31-189.79H446.35Z"></path>
  <polygon fill="#333" points="485.87 160.44 444.6 160.44 444.57 146.79 485.85 146.79 485.87 160.44"></polygon>
  <path fill="#fff" d="M474.1,157.71a.63.63,0,0,1-.48-.2.68.68,0,0,1,0-1l6.47-6.48a.67.67,0,0,1,1,0,.68.68,0,0,1,0,1l-6.47,6.48A.63.63,0,0,1,474.1,157.71Z"></path>
  <path fill="#fff" d="M480.58 157.71a.63.63 0 0 0 .48-.2.68.68 0 0 0 0-1l-6.49-6.48a.68.68 0 0 0-1 0 .69.69 0 0 0 0 1l6.49 6.48A.65.65 0 0 0 480.58 157.71ZM468.87 151.23H461a.24.24 0 0 1-.23-.23v-.61a.2.2 0 0 1 .19-.19h7.86a.24.24 0 0 1 .23.23V151A.2.2 0 0 1 468.87 151.23ZM468.88 154H461a.23.23 0 0 1-.23-.23v-.61A.18.18 0 0 1 461 153h7.86a.23.23 0 0 1 .23.23v.61A.18.18 0 0 1 468.88 154ZM468.88 156.6H461a.23.23 0 0 1-.23-.23v-.61a.18.18 0 0 1 .19-.18h7.86a.22.22 0 0 1 .22.22v.62A.19.19 0 0 1 468.88 156.6ZM470.06 325.44H462.2a.23.23 0 0 1-.23-.23v-.61a.2.2 0 0 1 .19-.19H470a.25.25 0 0 1 .23.23v.61A.19.19 0 0 1 470.06 325.44ZM470.07 328.25h-7.86A.23.23 0 0 1 462 328v-.61a.18.18 0 0 1 .18-.18H470a.23.23 0 0 1 .23.23v.61A.18.18 0 0 1 470.07 328.25ZM470.07 330.81h-7.86a.23.23 0 0 1-.23-.23V330a.18.18 0 0 1 .19-.18H470a.23.23 0 0 1 .23.23v.61A.18.18 0 0 1 470.07 330.81ZM480.66 172.83a5.35 5.35 0 1 0-5.33 5.35A5.35 5.35 0 0 0 480.66 172.83ZM461.79 172.83a5.35 5.35 0 1 0-5.34 5.35A5.36 5.36 0 0 0 461.79 172.83ZM480.69 191.48a5.35 5.35 0 1 0-5.33 5.35A5.35 5.35 0 0 0 480.69 191.48ZM461.82 191.48a5.35 5.35 0 1 0-5.34 5.35A5.36 5.36 0 0 0 461.82 191.48ZM480.72 209.68a5.35 5.35 0 1 0-5.33 5.34A5.35 5.35 0 0 0 480.72 209.68ZM461.84 209.68a5.34 5.34 0 1 0-5.33 5.34A5.35 5.35 0 0 0 461.84 209.68ZM480.75 228.33a5.35 5.35 0 1 0-5.33 5.34A5.35 5.35 0 0 0 480.75 228.33ZM461.87 228.33a5.34 5.34 0 1 0-5.33 5.34A5.35 5.35 0 0 0 461.87 228.33ZM480.78 248.57a5.35 5.35 0 1 0-5.33 5.34A5.36 5.36 0 0 0 480.78 248.57ZM461.91 248.57a5.35 5.35 0 1 0-5.34 5.34A5.36 5.36 0 0 0 461.91 248.57ZM480.82 269.72a5.35 5.35 0 1 0-5.34 5.34A5.36 5.36 0 0 0 480.82 269.72ZM461.94 269.72a5.35 5.35 0 1 0-5.33 5.34A5.36 5.36 0 0 0 461.94 269.72Z"></path>
  <polygon fill="#fff" points="481.31 292.57 457.2 292.57 457.24 316.68 481.35 316.68 481.31 292.57"></polygon>
  <polygon fill="#333" points="473.56 279.61 449.45 279.61 449.49 303.72 473.6 303.72 473.56 279.61"></polygon>
  <line x1="497.74" x2="508.27" y1="571.51" y2="594.91" fill="#ff9d75"></line>
  <path fill="#333" d="M508.27,596.56a1.64,1.64,0,0,1-1.51-1l-10.53-23.39a1.65,1.65,0,1,1,3-1.36l10.53,23.4a1.66,1.66,0,0,1-1.5,2.33Z"></path>
  <path fill="#a5a653" d="M636,273.47c-6.73-1.35-13.61.95-20,3.42-10.24,4-20.48,8.61-29,15.4q-1.41-26-3.07-52c-6-2.9-14-5.46-18.5-.52-2.56,2.83-2.68,7-2.67,10.83q.09,21.56.17,43.11c-8.37-6.44-18.27-10.93-28.19-14.76-6.41-2.47-13.29-4.77-20-3.42s-12.94,7.71-11.62,14.45a17.58,17.58,0,0,0,3.14,6.48c8.1,11.69,19.57,20.86,32.33,27.14,7.2,3.55,15.28,6.26,23.16,4.73.45-.09.89-.2,1.34-.32v1.07c0,7.46.06,14.92.53,22.36.24,3.82.74,8,3.41,10.69,5.67,5.81,15.57,1.09,23.48,2.91q-.79-19.43-1.74-38.86l.29.07c7.87,1.53,16-1.18,23.15-4.72,12.76-6.29,24.23-15.46,32.33-27.15a17.68,17.68,0,0,0,3.15-6.48C649,281.18,642.76,274.82,636,273.47Z"></path>
  <path fill="#313131" d="M575.83,366.82c-3.07,0-7-.4-10-3.51s-3.63-7.72-3.88-11.74c-.45-7.17-.5-14.44-.53-21.49-6.8,1.14-14.4-.46-23.58-5-13.68-6.74-25.08-16.31-33-27.68a19.3,19.3,0,0,1-3.41-7.11c-1.52-7.82,5.59-14.92,12.92-16.38a22.62,22.62,0,0,1,4.48-.43c5.8,0,11.54,2,16.46,3.93,7.72,3,17.41,7.09,25.94,13l-.16-39.83c0-4.3.21-8.76,3.09-11.95,4-4.44,11-4.44,20.45.14a1.67,1.67,0,0,1,.93,1.38c1,15.19,1.93,31.22,2.9,48.89,8.62-6.23,18.38-10.43,26.95-13.74,4.92-1.9,10.66-3.93,16.46-3.93a22.62,22.62,0,0,1,4.48.43c7.33,1.47,14.44,8.56,12.92,16.39a19.18,19.18,0,0,1-3.41,7.1c-7.87,11.37-19.27,21-33,27.69-7.28,3.59-13.58,5.33-19.24,5.33h0a25.86,25.86,0,0,1-3.18-.19c.66,13.81,1.19,25.49,1.64,36.59,0,.1,0,.53,0,.64a2,2,0,0,1-1.66,2h0c-.12,0-.25-.35-.37-.37a17.41,17.41,0,0,0-4.13-.58c-1.64,0-3.36.06-5,.19S577.51,366.82,575.83,366.82ZM563,326.38a1.64,1.64,0,0,1,1,.33,1.69,1.69,0,0,1,.66,1.31v1.08c0,7.3.06,14.86.53,22.26.21,3.43.64,7.28,2.95,9.64,1.72,1.76,4,2.51,7.65,2.51,1.54,0,3.15-.13,4.84-.26s3.53-.29,5.3-.29a26.23,26.23,0,0,1,2.76.14c-.45-11.1-1-22.87-1.65-36.82a1.61,1.61,0,0,1,.57-1.33,1.65,1.65,0,0,1,1.41-.37l.22.06a22.79,22.79,0,0,0,4.37.42c5.15,0,11-1.64,17.79-5,13.18-6.49,24.15-15.69,31.71-26.6a16.48,16.48,0,0,0,2.88-5.85c1.12-5.76-4.53-11.36-10.33-12.52a19.82,19.82,0,0,0-3.83-.37c-5.23,0-10.62,1.92-15.27,3.72-9.18,3.54-19.75,8.12-28.59,15.14a1.65,1.65,0,0,1-1.71.22,1.68,1.68,0,0,1-1-1.42c-1-18.52-2-35.22-3-51-3.93-1.81-7.29-2.72-10-2.72a7.21,7.21,0,0,0-5.67,2.23c-2.09,2.32-2.25,5.93-2.24,9.73l.17,43.1a1.64,1.64,0,0,1-.92,1.49,1.66,1.66,0,0,1-1.74-.17c-8.77-6.75-19.45-11.31-27.78-14.53-4.64-1.79-10-3.71-15.27-3.71a19.14,19.14,0,0,0-3.83.37c-5.8,1.16-11.44,6.76-10.32,12.51a16.19,16.19,0,0,0,2.88,5.86c7.56,10.91,18.52,20.11,31.7,26.6,8.78,4.33,15.91,5.79,22.11,4.59.41-.08.81-.18,1.22-.29A1.59,1.59,0,0,1,563,326.38Z"></path>
  <path fill="#ce5044" d="M586.35,263.64a57.75,57.75,0,0,0,26.27-12.27c18.44-15.12,27.42-40.32,26.17-63.75a33.09,33.09,0,0,0-2.11-11,20.49,20.49,0,0,0-34.34-5.56c.52-7.23-3.25-14.36-8.84-19s-12.79-6.93-20-7.73c-7.71-.86-15.72,0-22.73,3.29a34.45,34.45,0,0,0-18.59,23.5c-5.48-4.11-11.72-8.44-18.52-7.61-5.07.62-9.46,4.17-12.07,8.55s-3.66,9.53-4.09,14.62C493.7,232.14,543.41,271.66,586.35,263.64Z"></path>
  <path fill="#313131" d="M574.94,266.38h0c-21.49,0-43.79-10.31-59.64-27.55-14.08-15.31-21-33.87-19.44-52.24.54-6.43,1.91-11.31,4.31-15.34,3.11-5.21,8.07-8.7,13.29-9.34a15.19,15.19,0,0,1,1.91-.12c5.74,0,11,3.07,15.82,6.58a36.27,36.27,0,0,1,18.87-22.21,41.29,41.29,0,0,1,17.84-3.77,53.88,53.88,0,0,1,5.78.32c8.36.93,15.57,3.73,20.87,8.11a25.82,25.82,0,0,1,9.34,16.5,22.74,22.74,0,0,1,14-4.91,21.24,21.24,0,0,1,3.39.27A22.59,22.59,0,0,1,638.2,176a35,35,0,0,1,2.24,11.54c1.36,25.51-8.9,50.46-26.77,65.11a59.35,59.35,0,0,1-27,12.65A63.93,63.93,0,0,1,574.94,266.38ZM515.37,165.09a12.5,12.5,0,0,0-1.51.09c-4.21.52-8.27,3.42-10.85,7.76-2.14,3.58-3.37,8-3.86,13.91-1.46,17.45,5.14,35.28,18.58,49.89,15.24,16.57,36.63,26.64,57.21,26.64h0a60,60,0,0,0,11.1-1.19,56.28,56.28,0,0,0,25.54-12c17.07-14,26.87-38,25.56-62.43a32.09,32.09,0,0,0-2-10.46A19.23,19.23,0,0,0,620.79,166a18.19,18.19,0,0,0-2.86-.23,19.23,19.23,0,0,0-14.35,6.44,1.65,1.65,0,0,1-2.89-1.21c.45-6.27-2.71-13-8.24-17.58-4.8-4-11.42-6.52-19.13-7.37a49.8,49.8,0,0,0-5.42-.31,38,38,0,0,0-16.42,3.45A32.86,32.86,0,0,0,533.8,171.5a1.66,1.66,0,0,1-1,1.2,1.64,1.64,0,0,1-1.57-.23C526.21,168.74,520.89,165.09,515.37,165.09Z"></path>
  <path fill="#333" d="M596.68 307.5a1.65 1.65 0 0 1-.75-3.12l30.62-15.58a1.65 1.65 0 0 1 1.5 2.95l-30.63 15.57A1.65 1.65 0 0 1 596.68 307.5ZM556.71 311.13A1.61 1.61 0 0 1 556 311L518.6 292.27a1.65 1.65 0 0 1 1.47-2.95L557.45 308a1.65 1.65 0 0 1-.74 3.13ZM597.89 223.41a1.89 1.89 0 0 1-.47-.06 1.66 1.66 0 0 1-1.12-2c3-10.23 4.47-27.15 4.38-50.24a1.68 1.68 0 0 1 1.65-1.68h0a1.66 1.66 0 0 1 1.65 1.67c.08 23.41-1.44 40.63-4.52 51.17A1.65 1.65 0 0 1 597.89 223.41ZM542.87 221.68a1.66 1.66 0 0 1-1.44-.83c-9.78-17.12-10.86-48.33-10.9-49.65a1.66 1.66 0 0 1 3.31-.1c0 .32 1.09 31.71 10.46 48.11a1.64 1.64 0 0 1-.62 2.25A1.59 1.59 0 0 1 542.87 221.68Z"></path>
  <rect width="108.65" height="186.36" x="688.64" y="50.71" fill="#c0bfcc"></rect>
  <path fill="#313131" d="M797.3,238.73H688.64a1.65,1.65,0,0,1-1.65-1.66V50.72a1.65,1.65,0,0,1,1.65-1.66H797.3A1.65,1.65,0,0,1,799,50.72V237.07A1.65,1.65,0,0,1,797.3,238.73Zm-107-3.31H795.65v-183H690.3Z"></path>
  <rect width="108.98" height="13.17" x="688.32" y="50.71" fill="#333"></rect>
  <path fill="#fff" d="M785.94,61.25a.66.66,0,0,1-.47-.19.68.68,0,0,1,0-.94l6.26-6.25a.66.66,0,0,1,.93.93l-6.25,6.26A.66.66,0,0,1,785.94,61.25Z"></path>
  <path fill="#fff" d="M792.2,61.25a.63.63,0,0,0,.46-.19.66.66,0,0,0,0-.94l-6.25-6.25a.66.66,0,0,0-.94.93l6.26,6.26A.66.66,0,0,0,792.2,61.25Z"></path>
  <rect width="7.98" height=".99" x="773.1" y="54.01" fill="#fff" rx=".07"></rect>
  <rect width="7.98" height=".99" x="773.1" y="56.72" fill="#fff" rx=".07"></rect>
  <rect width="7.98" height=".99" x="773.1" y="59.19" fill="#fff" rx=".07"></rect>
  <rect width="21.29" height="21.29" x="695.01" y="70.47" fill="#fff"></rect>
  <path fill="#8f8ec3" d="M788.08,82a4.5,4.5,0,1,0-4.5,4.5A4.5,4.5,0,0,0,788.08,82Z"></path>
  <rect width="34.24" height="1.76" x="721.35" y="71.79" fill="#251d1b" rx=".13"></rect>
  <rect width="48.51" height="1.76" x="721.35" y="79.25" fill="#251d1b" rx=".13"></rect>
  <rect width="48.51" height="1.76" x="721.35" y="87.04" fill="#251d1b" rx=".13"></rect>
  <rect width="21.29" height="21.29" x="695.01" y="112.18" fill="#fff"></rect>
  <path fill="#fff" d="M788.08,123.7a4.5,4.5,0,1,0-4.5,4.5A4.5,4.5,0,0,0,788.08,123.7Z"></path>
  <rect width="34.24" height="1.76" x="721.35" y="113.49" fill="#251d1b" rx=".13"></rect>
  <rect width="48.51" height="1.76" x="721.35" y="120.96" fill="#251d1b" rx=".13"></rect>
  <rect width="48.51" height="1.76" x="721.35" y="128.75" fill="#251d1b" rx=".13"></rect>
  <rect width="21.29" height="21.29" x="695.01" y="151.25" fill="#fff"></rect>
  <path fill="#ce5044" d="M788.08,162.77a4.5,4.5,0,1,0-4.5,4.5A4.5,4.5,0,0,0,788.08,162.77Z"></path>
  <rect width="34.24" height="1.76" x="721.35" y="152.57" fill="#251d1b" rx=".13"></rect>
  <rect width="48.51" height="1.76" x="721.35" y="160.03" fill="#251d1b" rx=".13"></rect>
  <rect width="48.51" height="1.76" x="721.35" y="167.82" fill="#251d1b" rx=".13"></rect>
  <path fill="#fff" d="M786.1 224.56a4.17 4.17 0 1 0-4.17 4.17A4.17 4.17 0 0 0 786.1 224.56ZM769 224.56a4.17 4.17 0 1 0-4.17 4.17A4.17 4.17 0 0 0 769 224.56ZM749.45 224.56a4.17 4.17 0 1 0-4.17 4.17A4.17 4.17 0 0 0 749.45 224.56Z"></path>
  <path fill="#333" d="M797.3 104.38H689.92a1.51 1.51 0 1 1 0-3H797.3a1.51 1.51 0 1 1 0 3ZM797.3 144.38H689.09c-.91 0-1.65-1.09-1.65-2s.74-2 1.65-2H797.3c.91 0 1.65 1.09 1.65 2S798.21 144.38 797.3 144.38ZM616 368.49a1.66 1.66 0 0 1-1.61-1.28 8.49 8.49 0 0 1 3-8 20.3 20.3 0 0 1 6.9-3.63l.15-.05a13.51 13.51 0 0 0 3.74-1.78c3.61-2.8 2.82-8.86.55-13.3l-.21-.41a11.72 11.72 0 0 1-1.38-3.63c-.57-3.79 2.2-7.05 5-8.47s6.07-1.62 8.9-1.76a1.63 1.63 0 0 1 1.73 1.56 1.65 1.65 0 0 1-1.56 1.74c-2.62.13-5.34.27-7.58 1.41-1.84.93-3.54 3-3.23 5a9 9 0 0 0 1 2.59l.22.44c2.87 5.61 3.63 13.45-1.46 17.41a16.19 16.19 0 0 1-4.65 2.28l-.15.05a17.59 17.59 0 0 0-5.82 3 5.26 5.26 0 0 0-2 4.81 1.64 1.64 0 0 1-1.24 2A1.5 1.5 0 0 1 616 368.49ZM652.44 205a1.58 1.58 0 0 1-.52-.09 1.64 1.64 0 0 1-1-2.09c1.14-3.41-.13-7.06-1.47-10.93a39.91 39.91 0 0 1-2-7.1A19.1 19.1 0 0 1 650.77 171c.3-.42.62-.82.94-1.23a10 10 0 0 0 2-3.28c.92-3.37-2.65-6.69-6.36-8.35a1.65 1.65 0 0 1 1.35-3c5.12 2.3 9.64 7 8.19 12.25a12.85 12.85 0 0 1-2.55 4.43c-.3.37-.59.74-.86 1.12a15.76 15.76 0 0 0-2.75 11.34 36.56 36.56 0 0 0 1.83 6.49c1.46 4.22 3 8.58 1.47 13.06A1.66 1.66 0 0 1 652.44 205ZM524 364.6a5.78 5.78 0 0 1-2.77-.74 8.23 8.23 0 0 1-3.8-4.84 19.16 19.16 0 0 1-.35-6.51c.05-.71.1-1.43.11-2.14 0-1.66-.2-4.64-2.11-5.94a8.72 8.72 0 0 0-3.54-1 12.9 12.9 0 0 1-4.41-1.25 7.42 7.42 0 0 1-3.15-9.2 1.66 1.66 0 0 1 3 1.31 4.13 4.13 0 0 0 1.71 5 10 10 0 0 0 3.31.87 11.38 11.38 0 0 1 4.89 1.56c2.38 1.6 3.64 4.7 3.56 8.73 0 .76-.06 1.53-.11 2.3a16.18 16.18 0 0 0 .23 5.38 4.9 4.9 0 0 0 2.2 2.85 2.26 2.26 0 0 0 1.76.25 1.65 1.65 0 0 1 1 3.16A5.07 5.07 0 0 1 524 364.6Z"></path>
  <path fill="#7e4e3d" d="M399.19,148.64s16.88-37.59,5.44-59.37-22.87-20.7-37.58-20.16S305.5,44.6,266.29,55s-81.16,73-48.48,119.83,88.39,52.94,88.39,52.94Z"></path>
  <path fill="#313131" d="m306.72 229.44-.7-.07c-.58-.07-14.37-1.64-32.39-9-16.63-6.82-40.06-20.1-57.17-44.63-13.13-18.82-15.59-42.21-6.91-65.86 10-27.15 33.13-50.39 56.32-56.51a82.76 82.76 0 0 1 21.07-2.56c20.83 0 42.14 6.55 57.7 11.34 9.62 2.95 17.86 5.5 22.35 5.33l1.25 0c2.2-.09 4.29-.17 6.35-.17 12.57 0 22.22 3.55 31.51 21.25 11.68 22.24-4.7 59.25-5.41 60.81l-.15.34ZM286.94 54.1a79.38 79.38 0 0 0-20.23 2.45c-22.21 5.86-44.44 28.25-54 54.45-8.3 22.61-6 44.92 6.51 62.83 29.93 42.91 80 51.25 86.51 52.16l92.15-78.37c1.6-3.74 15.71-37.83 5.34-57.59-9.45-18-18.54-19.48-28.58-19.48-2 0-4 .08-6.23.17l-1.25 0c-5 .2-13.1-2.3-23.44-5.48C328.31 60.56 307.27 54.1 286.94 54.1ZM756.77 598.54A51.87 51.87 0 0 0 732 573.82"></path>
  <path fill="#f0c7c0" d="M598.5,540.63c18.07,1.43,41,2.85,47.47,2.12,11.18-1,58.92-8.68,71.4-6.47s26.88,7.64,53.1,34.07,21.77,28,21.77,28c-6.93,19.59-35.35.09-35.35.09,3.57,13.06-6.46,18.61-6.46,18.61,5.58,14.28-5.18,24.19-5.18,24.19-.63,17.34-33.51,34.86-45.56,31.89S688.07,658,688.07,658c-18.55,13.13-56.35-12.08-56.35-12.08s-46.2-9.82-49.8-10C577,605.34,583.83,575.26,598.5,540.63Z"></path>
  <path fill="#313131" d="M702.75,675.15a14.66,14.66,0,0,1-3.46-.38c-9.51-2.28-12-9.82-12.65-14a25.91,25.91,0,0,1-12,2.65c-18.49,0-40.71-14.12-43.53-16-18.52-3.93-46.68-9.75-49.21-9.84a1.66,1.66,0,0,1-1.57-1.4C575.73,607.67,580.88,578,597,540a1.65,1.65,0,0,1,1.65-1c18.28,1.45,34,2.32,42.12,2.32,2.24,0,3.93-.07,5-.19,2.92-.26,8.2-1,14.88-1.85,16.05-2.12,38-5,50.52-5a37.75,37.75,0,0,1,6.47.43c14.39,2.56,29.07,9.41,54,34.53,23.65,24,22.74,27.92,22.44,29.21a2.37,2.37,0,0,1-.43.92c-2.33,6.19-7.06,9.45-13.71,9.45-7.66,0-16.2-4.26-20.75-6.9a17.36,17.36,0,0,1-6.78,15.86c4.25,12.68-3.48,22-5.56,24.27-.6,7.49-6.74,15.75-17,22.76-9.21,6.31-19.86,10.39-27.13,10.39ZM688.07,656.3a1.61,1.61,0,0,1,.79.21,1.65,1.65,0,0,1,.86,1.52c0,.44-.31,11,10.35,13.53a11.34,11.34,0,0,0,2.68.29h0c12.49,0,40.29-15.38,40.85-30.63a1.6,1.6,0,0,1,.53-1.15c.4-.38,9.85-9.36,4.76-22.38a1.65,1.65,0,0,1,.74-2c.36-.2,8.83-5.14,5.67-16.73a1.65,1.65,0,0,1,2.52-1.8c.13.09,12.31,8.35,22.13,8.35,5.4,0,8.91-2.5,10.73-7.63a1.87,1.87,0,0,1,.15-.32c-.22-1.13-2.36-6.55-21.53-26-27-27.24-41.13-31.63-52.22-33.6a35.8,35.8,0,0,0-5.9-.37c-12.29,0-35,3-50.08,5-6.73.89-12,1.59-15,1.86-1.21.13-3,.2-5.37.2-11.49,0-33.12-1.6-41.19-2.23-15.25,36.34-20.27,64.84-16.2,92.08,8.17,1.22,44.31,8.88,48.7,9.81a1.71,1.71,0,0,1,.57.25c.24.15,23.61,15.59,42,15.59,5,0,9.24-1.18,12.51-3.49A1.69,1.69,0,0,1,688.07,656.3Z"></path>
  <path fill="#313131" d="M631.79 647.67a1.63 1.63 0 0 1-1-.33c-6.89-5.14-9.14-10.69-9.23-10.92a1.65 1.65 0 1 1 3.07-1.22s2.05 4.95 8.13 9.49a1.65 1.65 0 0 1-1 3ZM745.32 643.07a1.65 1.65 0 0 1-1.61-1.3c-4.6-21.36-24.38-24.57-24.58-24.6a1.65 1.65 0 0 1 .49-3.27c.22 0 22.25 3.6 27.32 27.17a1.66 1.66 0 0 1-1.27 2A2.07 2.07 0 0 1 745.32 643.07ZM750.51 618.88A1.65 1.65 0 0 1 749 618C740.91 602.15 728 597.09 727.82 597A1.65 1.65 0 1 1 729 594c.58.22 14.29 5.57 23 22.53a1.65 1.65 0 0 1-.71 2.22A1.73 1.73 0 0 1 750.51 618.88ZM784.43 603.82a1.64 1.64 0 0 1-1-.33l-10.1-7.64a1.66 1.66 0 0 1-.61-1.72 19.07 19.07 0 0 1 9.55-11.8 1.66 1.66 0 0 1 1.42 3 16.15 16.15 0 0 0-7.46 8.58l8.08 6.12 3.74-3.48a1.65 1.65 0 0 1 2.25 2.41l-4.75 4.43A1.67 1.67 0 0 1 784.43 603.82ZM688.15 659.75a1.66 1.66 0 0 1-.65-3.18 57.65 57.65 0 0 0 22.59-17.9 1.65 1.65 0 1 1 2.71 1.88 60 60 0 0 1-24 19.07A1.63 1.63 0 0 1 688.15 659.75Z"></path>
  <path fill="#313131" d="M708 645.55a1.66 1.66 0 0 1 0-3.31l4.31-.07a1.68 1.68 0 0 1 1.68 1.62 1.65 1.65 0 0 1-1.63 1.68l-4.3.08ZM700.62 557.06a1.76 1.76 0 0 1-.76-.18L682.68 548A1.65 1.65 0 1 1 684.2 545L701.39 554a1.65 1.65 0 0 1-.77 3.11Z"></path>
  <path fill="#313131" d="M684.8 556.35a1.65 1.65 0 0 1-.85-3.07l14.54-8.61a1.65 1.65 0 1 1 1.69 2.84l-14.54 8.61A1.64 1.64 0 0 1 684.8 556.35ZM696.75 586.06a1.76 1.76 0 0 1-.76-.18L678.8 577a1.65 1.65 0 0 1 1.53-2.93L697.51 583a1.65 1.65 0 0 1-.76 3.11Z"></path>
  <path fill="#313131" d="M680.93 585.35a1.65 1.65 0 0 1-.83-3.08l14.59-8.47a1.65 1.65 0 1 1 1.66 2.86l-14.6 8.47A1.63 1.63 0 0 1 680.93 585.35ZM694.27 611.24a1.64 1.64 0 0 1-.76-.19l-17.18-8.91a1.65 1.65 0 1 1 1.52-2.93L695 608.12a1.65 1.65 0 0 1-.76 3.12Z"></path>
  <path fill="#313131" d="M678.45,610.53a1.66,1.66,0,0,1-.85-3.08l14.54-8.6a1.65,1.65,0,1,1,1.69,2.84l-14.54,8.61A1.74,1.74,0,0,1,678.45,610.53Z"></path>
  <path fill="#f0c7c0" d="M413.42,174.51c-2,7.17-12.9,18.92-12.9,18.92s-3.88,49.08-26.38,53.19c-.7.13-1.4.24-2.09.34-21,3-30.37-8.91-43.2-4.71-3,1.05-5.56,3.84-7.73,7.63-7.39,12.91-10.39,37.46-12.39,44.22,0,0-16.63-13.46-74.51-25.72,0,0,40.41-10.2,60.14-39.82C310.24,206.27,310,190.49,310,190.49c-3.61-5.72-8.92,1.93-16-7.88-13.64-26.31-.5-46.7,16.72-46.34,15.86.47,25.59,17,26.78,20.54.78.1,1.6-.08,2.39,0,.52,0,1.34-.12,1.86-.05,6.17-.64,7.27-45.83,25.29-64.25,9.81-3.26,12.16-6.62,21.93-3.47,24.74,13.75,13.16,60.32,13.82,66.25C404,163.92,412.19,167.19,413.42,174.51Z"></path>
  <path fill="#313131" d="M308.73,295.75a1.64,1.64,0,0,1-1-.36h0c-.17-.14-17.22-13.41-73.82-25.39a1.65,1.65,0,0,1-.06-3.22c.4-.1,40-10.4,59.16-39.14,13.92-19.53,15.23-33.93,15.35-36.66-.85-1.13-1.72-1.26-3.24-1.26h-1.54c-3.35,0-7-.74-10.88-6.15a1.13,1.13,0,0,1-.12-.21c-7.18-13.84-7.81-27.53-1.72-37.55a22.59,22.59,0,0,1,19.93-11.09c15.92.47,25.51,14.65,27.86,20.65h0c.5-1,1-.15,1.48-.09.18,0,.37-.07.55-.08a7.86,7.86,0,0,1,.93-.07c1.49-1,3.38-9.38,4.91-16.12,3.46-15.28,8.2-36.21,19.38-47.63a1.66,1.66,0,0,1,.66-.42c2.38-.79,4.33-1.6,6.05-2.31,3.38-1.4,6.06-2.51,9.55-2.51a24,24,0,0,1,7.36,1.34l.29.13c21.13,11.74,17.15,44.92,15.24,60.87a51.51,51.51,0,0,0-.58,6.64c.54,4,2.84,6.74,5.28,9.64,2.29,2.73,4.67,5.55,5.33,9.46a1.75,1.75,0,0,1,0,.72c-1.88,6.77-10.88,17-12.89,19.18-.54,5.85-5.28,50-27.68,54.11-.72.14-1.45.25-2.15.35a49.85,49.85,0,0,1-6.94.5c-7.78,0-13.85-1.92-19.2-3.61-4.22-1.33-7.87-2.48-11.59-2.48a16.73,16.73,0,0,0-5.2.82c-2.36.83-4.66,3.14-6.81,6.89-5.25,9.17-8.28,24.65-10.29,34.9-.77,3.94-1.38,7.05-1.94,9a1.68,1.68,0,0,1-1.09,1.11A1.73,1.73,0,0,1,308.73,295.75Zm-68-27.63c42.87,9.62,61.24,19.6,66.94,23.26.39-1.74.82-4,1.3-6.41,2.05-10.45,5.14-26.25,10.67-35.91,2.55-4.45,5.45-7.27,8.62-8.37a19.89,19.89,0,0,1,6.25-1c4.23,0,8.29,1.28,12.59,2.64,5.12,1.62,10.93,3.46,18.2,3.46a46.18,46.18,0,0,0,6.47-.47c.66-.09,1.34-.2,2-.33,21-3.83,25-51.21,25-51.69a1.66,1.66,0,0,1,.44-1c.1-.11,10.29-11.14,12.41-17.88-.6-2.85-2.51-5.12-4.53-7.52-2.51-3-5.36-6.36-6-11.37a43.06,43.06,0,0,1,.58-7.43c1.82-15.2,5.61-46.78-13.42-57.51a20.23,20.23,0,0,0-6.19-1.14c-2.84,0-5.12,1-8.29,2.26-1.67.69-3.56,1.47-5.88,2.26-10.34,10.83-14.91,31-18.25,45.77-2.88,12.69-4.29,18.32-7.78,18.68a2.41,2.41,0,0,1-.38,0h-.08a5.48,5.48,0,0,0-.55,0,7.94,7.94,0,0,1-1.18,0,4.27,4.27,0,0,0-.95,0,9.25,9.25,0,0,1-1.49,0,1.64,1.64,0,0,1-1.36-1.12c-.82-2.47-9.82-19-25.26-19.41h-.4a19.23,19.23,0,0,0-16.63,9.62c-5.46,9-4.81,21.44,1.77,34.2,3.15,4.33,5.64,4.69,8.13,4.69h1.54c2.07,0,4.44.24,6.3,3.19a1.59,1.59,0,0,1,.25.85c0,.67.07,16.59-15.94,39.06C280.31,252.64,253,264,240.78,268.12Z"></path>
  <path fill="#313131" d="M320.16,171.1l-.22,0a1.65,1.65,0,0,1-1.42-1.85c1.63-12.37-10.94-20.62-11.07-20.7a1.65,1.65,0,0,1,1.78-2.78c.59.38,14.47,9.44,12.56,23.91A1.65,1.65,0,0,1,320.16,171.1Z"></path>
  <path fill="#313131" d="M308 163.36a1.65 1.65 0 0 1-.54-3.21l9.12-3.22a1.65 1.65 0 0 1 1.1 3.12l-9.13 3.22A1.71 1.71 0 0 1 308 163.36ZM372.05 247c-21 3-30.37-8.91-43.2-4.71-3 1.05-5.56 3.84-7.73 7.63-9.82-13.08-9.85-34.1-9.85-34.1s36.34 31.95 58.36 31.1A12.53 12.53 0 0 1 372.05 247ZM89.73 542.06a119.8 119.8 0 0 0-65-73.8C3.31 515.71-3.39 551.41 5.32 574.65c8.49 22.64 49.1 28.19 81.17 28.93C93.31 584.21 95.06 563.37 89.73 542.06Z"></path>
  <path fill="#313131" d="M86.49,605.38h0c-32.87-1-73.89-6.64-82.68-30.07S1.54,515.65,23.22,467.62a1.66,1.66,0,0,1,2.18-.85,121.87,121.87,0,0,1,65.91,74.82.64.64,0,0,0,0,.07c5.16,20.63,4,41.72-3.29,62.54A1.7,1.7,0,0,1,86.49,605.38ZM25.55,470.46c-20.76,46.45-27,81.3-18.68,103.61,8,21.43,46.82,27,78.45,27.83,6.76-19.83,7.71-39.8,2.81-59.4A118.52,118.52,0,0,0,25.55,470.46Z"></path>
  <path fill="#8f8ec3" d="M613.55,535.89,453.26,515.16s-.63-193.8-33.22-226.4-130.16-16.67-159.31-28.37L190.2,270.44a121.58,121.58,0,0,0-87.9,59.11c-10.4,17.83-23.89,40.8-41,69.6Q38.83,437,24.73,468.26a119.77,119.77,0,0,1,65,73.8c5.33,21.31,3.34,42.15-3.48,61.52a362,362,0,0,0,40.6-1.35v45.32H613.71C630.42,583.83,613.55,535.89,613.55,535.89Z"></path>
  <path fill="#313131" d="M615,649.21H125.2V604c-4.39.38-16.28,1.28-30.95,1.28-2.7,0-5.41,0-8-.09l-2.28-.05.76-2.15c7.2-20.46,8.36-40.82,3.44-60.53a118.48,118.48,0,0,0-64.08-72.73l-1.51-.68.68-1.51c9.37-20.76,21.71-44.07,36.67-69.28,15.11-25.45,28.89-48.86,41-69.58A122.63,122.63,0,0,1,190,268.8l71-10.11.41.17c10.5,4.21,30.22,4.75,53.06,5.38,38.22,1,85.79,2.35,106.79,23.36,31.58,31.57,33.58,206.9,33.7,226.1l159.87,20.68.34,1c.17.49,16.85,49.15.2,112.63ZM128.5,645.9H612.43c14.61-57,2.06-101.51-.12-108.51l-160.7-20.78v-1.45c0-1.93-1-193.49-32.73-225.23-20.08-20.08-66.92-21.36-104.55-22.39-22.87-.63-42.66-1.17-53.79-5.45l-70.09,10a119.3,119.3,0,0,0-86.71,58.31c-12.1,20.73-25.89,44.15-41,69.61a718.71,718.71,0,0,0-35.82,67.45,121.91,121.91,0,0,1,64.4,74.14l0,.08c4.92,19.66,4,39.94-2.79,60.31,1.89,0,3.8,0,5.71,0,18.35,0,32.3-1.41,32.43-1.42l1.82-.19Z"></path>
  <path fill="#313131" d="m372.47 649.85-.2 0c-24.44-2.9-40.62-13.62-49.44-32.76-7.65-16.59-8.75-36.71-9.81-56.17q-.16-3.07-.34-6.11c-2.28-39-1.76-127.94-1.76-128.84a1.61 1.61 0 0 1 1.66-1.57h0a1.59 1.59 0 0 1 1.64 1.6c0 .89-.53 89.78 1.75 128.65q.18 3 .34 6.1c1 19.16 2.12 38.95 9.51 55 8.3 18 23.62 28.1 46.83 30.86a1.65 1.65 0 0 1-.19 3.29ZM126.07 609.85a1.53 1.53 0 0 1-1.5-1.65v-185a1.51 1.51 0 1 1 3 0v185A1.53 1.53 0 0 1 126.07 609.85Z"></path>
  <path fill="#313131" d="M124.86 443.23a1.64 1.64 0 0 1-1.27-.6l-12.53-15a1.65 1.65 0 1 1 2.54-2.11l12.53 15a1.65 1.65 0 0 1-.21 2.33A1.68 1.68 0 0 1 124.86 443.23ZM332.92 376.57a1.76 1.76 0 0 1-.55-.09 1.65 1.65 0 0 1-1-2.1c10.7-30.75 33.92-47.37 51.51-55.89a122.75 122.75 0 0 1 35.93-11.23 1.65 1.65 0 1 1 .38 3.28 122 122 0 0 0-35 11c-17 8.25-39.41 24.31-49.73 53.95A1.65 1.65 0 0 1 332.92 376.57ZM312.52 451.79a1.65 1.65 0 0 1-1.38-.75l-12.05-18.39a1.65 1.65 0 0 1 2.76-1.81l12 18.39a1.64 1.64 0 0 1-.48 2.28A1.59 1.59 0 0 1 312.52 451.79ZM424.84 648.19s-18.11-113.64-110.8-99c0 0 1.68 64.29 18 79.57S376 649.87 376 649.87ZM756.89 600.14a1.66 1.66 0 0 1-1.47-.9c-10.43-20.2-23.63-27-23.76-27.1a1.65 1.65 0 1 1 1.48-2.95c.57.29 14.25 7.31 25.22 28.54a1.65 1.65 0 0 1-.71 2.22A1.59 1.59 0 0 1 756.89 600.14ZM394.29 158.19a1.65 1.65 0 0 1-1.58-1.16 12.2 12.2 0 0 0-6-6.65c-3.48-1.6-7.87-1.31-13.06.87a1.65 1.65 0 1 1-1.27-3.05c6.09-2.56 11.4-2.83 15.76-.8a15.32 15.32 0 0 1 7.69 8.64 1.64 1.64 0 0 1-1.08 2.07A1.67 1.67 0 0 1 394.29 158.19ZM396.47 208.38h0c-14.14-1-18.14-7.55-18.3-7.85a1.75 1.75 0 0 1 .66-2.33 1.63 1.63 0 0 1 2.23.61c.16.26 3.45 5.69 15.48 5.93a1.83 1.83 0 0 1 0 3.64Z"></path>
  <path fill="#313131" d="M374.13 209.11a1.65 1.65 0 0 1-1.46-2.42A133 133 0 0 1 382.06 191a1.65 1.65 0 1 1 2.66 2 136.05 136.05 0 0 0-9.12 15.31A1.66 1.66 0 0 1 374.13 209.11ZM395.83 134.31c-1.38 2.19-4.09 3.1-6.63 3.57a58.76 58.76 0 0 1-10.61.79 8.82 8.82 0 0 1-4.27-.73 4.5 4.5 0 0 1-2.15-2.7 5.83 5.83 0 0 1 1.87-5.62 12.92 12.92 0 0 1 5.52-2.76 35.22 35.22 0 0 1 8.72-1.29c2.29 0 4.76.21 6.5 1.7A5.62 5.62 0 0 1 395.83 134.31ZM363.39 162.47a1.65 1.65 0 0 1-.79-3.11l6.32-3.4a1.65 1.65 0 0 1 1.57 2.91l-6.32 3.4A1.71 1.71 0 0 1 363.39 162.47ZM374.08 165.87a1.7 1.7 0 0 1-.86-.24 1.65 1.65 0 0 1-.55-2.27l2.27-3.73a1.65 1.65 0 0 1 2.82 1.72l-2.27 3.72A1.63 1.63 0 0 1 374.08 165.87Z"></path>
  <path fill="#7e4e3d" d="M255.63,185.36c31.81,17.93,57.14,25.1,48.44,64.43s-32.62,53.18-64.75,52.8-41.5-45.9-41.5-45.9-45.36,20.58-58.93-7.21S181.2,143.4,255.63,185.36Z"></path>
  <path fill="#313131" d="M240.6 304.38c-.43 0-.87-.07-1.3-.07-13.77-.17-25.6-8.48-34.23-24A92.67 92.67 0 0 1 196.66 259c-4.74 1.93-17.8 6.7-30.92 6.7-13.79 0-23.32-5.21-28.34-15.48-4.64-9.5-1.81-24.55 7.39-39.28 11.88-19 36-39.34 68-39.34 14.44 0 29.11 4.15 43.62 12.33 4 2.26 7.91 4.34 11.67 6.35 26.38 14.11 45.44 24.37 37.57 59.94-8.06 36.41-29.34 54.17-65.07 54.17Zm-41.58-50 .42 2c.09.44 9.47 44.21 39.9 44.58.42 0 .85 0 1.27 0 33.94 0 54.17-16.85 61.84-51.51 7.34-33.13-9.86-42.32-35.89-56.24-3.79-2-7.7-4.12-11.74-6.39-14-7.9-28.14-11.91-42-11.91-30.7 0-53.82 19.52-65.23 37.79-8.6 13.77-11.36 27.59-7.22 36.08 4.42 9 12.95 13.61 25.37 13.61 15.38 0 31.24-7.11 31.39-7.19ZM367.05 94.19a1.66 1.66 0 0 1-.61-.12c-.31-.13-31.41-12.52-66.23-15.86a1.65 1.65 0 0 1 .31-3.29c35.31 3.39 66.83 16 67.15 16.08a1.66 1.66 0 0 1-.62 3.19Z"></path>
  <path fill="#313131" d="M254.24,282.2c-8.66,0-17-4-23.19-11.45-9-10.73-11-25.17-5.16-36.79a31.66,31.66,0,0,1,21.89-16.51c8.82-1.68,16.34,1.25,20.61,8,4.81,7.66,4.05,18.2-1.89,26.23a15.16,15.16,0,0,1-12.79,5.77,9.26,9.26,0,0,1-7.73-5.34,1.65,1.65,0,1,1,3-1.44A5.88,5.88,0,0,0,254,254.2a11.82,11.82,0,0,0,9.82-4.44c5.14-6.95,5.85-16,1.75-22.51-3.51-5.58-9.77-8-17.19-6.55a28.26,28.26,0,0,0-19.56,14.75c-5.17,10.27-3.27,23.61,4.75,33.18,7.35,8.79,17.85,12.21,28.08,9.16,9.34-2.78,19.22-11,24-20,3.23-6,4-12.11,2.36-17.51a1.65,1.65,0,0,1,3.16-1c1.95,6.26,1.05,13.2-2.6,20-5.26,9.87-15.71,18.56-26,21.63A29.32,29.32,0,0,1,254.24,282.2Z"></path>
  <path fill="#e6aa79" d="M485.28,745.38H325.48s-35.85,32.06-38.28,38.13,9.72,40.64-12.15,51.58-49.82-25-49.22-42,11.55-41.94,11.55-41.94l-76.54,4c-8.65-20.3-24.45-37.34-42.14-52.26l19-94s40.71-79,148.87-72.3a248.27,248.27,0,0,1,36.55,4.81c55.34,11.71,87.71,42.12,108.76,87.59,9.67,20.83,17,45,23,71.8C454.9,700.88,487.71,710.38,485.28,745.38Z"></path>
  <path fill="#313131" d="M266.4,838.76c-8.39,0-17.68-4.85-26.18-13.66-9.75-10.1-16.35-23.28-16-32,.51-14.18,7.87-33.34,10.65-40.1l-73.9,3.89a1.67,1.67,0,0,1-1.61-1c-7.48-17.56-20.73-34-41.68-51.64a1.64,1.64,0,0,1-.56-1.59l19-94a1.62,1.62,0,0,1,.15-.42c.39-.76,9.78-18.68,31.47-36.87,20-16.76,54.63-36.74,106-36.74,4.24,0,8.59.14,12.94.41a251.49,251.49,0,0,1,36.79,4.84c52.15,11,87.08,39.17,109.92,88.52,8.91,19.19,16.41,42.49,22.9,71.19,5.47,2,32.88,13.83,30.62,46.06a1.85,1.85,0,0,1-1.65,1.74H326.11c-14.29,12-35.71,32.77-37.37,36.92-.5,1.25-.08,5,.36,9.12,1.39,13,3.73,34.66-13.31,43.18A20.7,20.7,0,0,1,266.4,838.76Zm-29-89.24a1.66,1.66,0,0,1,1.51,2.32c-.11.25-10.82,24.84-11.4,41.33-.28,7.81,6.07,20.28,15.11,29.64,7.87,8.15,16.32,12.64,23.8,12.64a17.46,17.46,0,0,0,7.91-1.86c15-7.49,12.89-27,11.5-39.92-.55-5.11-.94-8.79-.14-10.8,2.5-6.26,35-35.62,38.71-38.93a1.83,1.83,0,0,1,1.1-.56H483.72c1.26-31-29-41-29.29-41.09a1.57,1.57,0,0,1-1.14-1.15c-6.49-28.89-14-52.22-22.88-71.4-22.37-48.32-56.56-75.85-107.6-86.65a247.86,247.86,0,0,0-36.31-4.77c-4.28-.27-8.57-.4-12.74-.4-50.41,0-84.33,19.57-103.91,36-20,16.77-29.47,33.67-30.55,35.66l-18.79,92.76c20.52,17.43,33.72,33.74,41.39,51.18l75.39-4Z"></path>
  <path fill="#7e4e3d" d="M226.44,604.73s34.33-84.46,55.6-79.29,5.16,53.47,11.85,67.44,28.25,59.85-5.17,65.32S226.44,604.73,226.44,604.73Z"></path>
  <path fill="#313131" d="M284.31,660.21c-32.17,0-58.26-52.52-59.35-54.76l-.33-.66.28-.68c.08-.2,8.24-20.2,18.91-39.93,14.57-27,26.79-40.62,36.29-40.62a10,10,0,0,1,2.32.27c14.69,3.57,13.27,24.65,12,43.24-.7,10.43-1.37,20.28.94,25.1,4.73,9.9,19.14,40,10.41,56.72-3.1,5.94-8.75,9.62-16.8,10.94A29.35,29.35,0,0,1,284.31,660.21Zm-56.05-55.56c3.12,6.08,27.78,52.25,56.05,52.25a26.29,26.29,0,0,0,4.15-.33c7.06-1.16,11.77-4.17,14.4-9.21,8-15.24-5.91-44.24-10.46-53.77-2.68-5.6-2-15.87-1.25-26.74,1.16-17.29,2.49-36.9-9.5-39.81a6.55,6.55,0,0,0-1.54-.18C263.69,526.86,237.4,582.34,228.26,604.65Z"></path>
  <path fill="#f0c7c0" d="M232.68,606.91s26-62,42.05-58.18,3.91,39.23,9,49.49,21.37,43.91-3.9,47.92S232.68,606.91,232.68,606.91Z"></path>
  <path fill="#313131" d="M276.45,648.06c-24.57,0-44.41-38.76-45.24-40.41a1.63,1.63,0,0,1-.05-1.38c2.54-6.07,25.35-59.36,42.11-59.36a7.48,7.48,0,0,1,1.84.22c11.46,2.69,10.37,18.36,9.4,32.19-.52,7.58-1,14.75.66,18.17,3.58,7.25,14.46,29.32,8,41.83-2.39,4.61-6.8,7.45-13.11,8.45A22.9,22.9,0,0,1,276.45,648.06Zm-41.94-41.23c2.73,5.13,21.06,37.92,41.94,37.92a19.88,19.88,0,0,0,3.08-.24c5.29-.84,8.79-3,10.69-6.71,5.71-11-4.62-32-8-38.85-2.08-4.22-1.58-11.47-1-19.86.87-12.51,1.86-26.69-6.87-28.75a4.77,4.77,0,0,0-1.08-.12C261.11,550.22,241.47,590.4,234.51,606.83Z"></path>
  <path fill="#313131" d="M247.1,598.48a1.81,1.81,0,0,1-.55-.09,1.65,1.65,0,0,1-1-2.11c2.17-6.2,18.33-30.62,19-31.65a1.65,1.65,0,1,1,2.75,1.82c-5.74,8.66-17,26.27-18.65,30.93A1.65,1.65,0,0,1,247.1,598.48Z"></path>
  <path fill="#e6aa79" d="M173.24,604.73s-34.33-84.46-55.6-79.29-5.16,53.47-11.85,67.44S77.54,652.73,111,658.2,173.24,604.73,173.24,604.73Z"></path>
  <path fill="#313131" d="M115.38,660.38h0a28.34,28.34,0,0,1-4.68-.47c-8-1.31-13.7-5-16.8-11-8.73-16.71,5.68-46.85,10.41-56.75,2.31-4.82,1.64-14.68.94-25.1-1.26-18.6-2.68-39.69,12-43.25a9.45,9.45,0,0,1,2.32-.28c9.5,0,21.72,13.67,36.29,40.62,10.67,19.74,18.83,39.73,18.91,39.93a1.82,1.82,0,0,1-.05,1.43C173.63,607.78,147.54,660.38,115.38,660.38Zm4.19-133.52A6.55,6.55,0,0,0,118,527c-12,2.91-10.66,22.52-9.5,39.81.74,10.87,1.43,21.14-1.25,26.74-4.55,9.53-18.42,38.53-10.46,53.77,2.63,5,7.34,8,14.4,9.21a26.19,26.19,0,0,0,4.15.33c28.27,0,52.93-46.17,56-52.25C162.28,582.34,136,526.86,119.57,526.86Z"></path>
  <path fill="#f0c7c0" d="M167,606.91s-26-62-42-58.18S121,588,116,598.22s-21.37,43.91,3.9,47.92S167,606.91,167,606.91Z"></path>
  <path fill="#313131" d="M123.24,647.38h0a24.07,24.07,0,0,1-3.6.06c-6.31-1-10.72-3.68-13.11-8.29-6.47-12.51,4.41-34.49,8-41.75,1.68-3.42,1.18-10.54.66-18.13-1-13.82-2.06-29.47,9.4-32.17a8,8,0,0,1,1.84-.2c16.76,0,39.57,53.29,42.11,59.37a1,1,0,0,1-.05,1C167.64,609,147.8,647.38,123.24,647.38Zm3.17-97.16a4.77,4.77,0,0,0-1.08.12c-8.73,2.06-7.74,16.24-6.87,28.75.59,8.39,1.09,15.64-1,19.86-3.39,6.88-13.72,27.82-8,38.85,1.9,3.67,5.4,5.87,10.69,6.71a19.88,19.88,0,0,0,3.08.24c20.9,0,39.21-32.79,41.94-37.92C158.21,590.4,138.57,550.22,126.41,550.22Z"></path>
  <path fill="#313131" d="M152.58,598.48a1.65,1.65,0,0,1-1.56-1.1c-1.63-4.66-12.91-22.27-18.65-30.93a1.65,1.65,0,1,1,2.75-1.82c.69,1,16.85,25.45,19,31.65a1.65,1.65,0,0,1-1,2.11A1.81,1.81,0,0,1,152.58,598.48Z"></path>
  <path fill="#e6aa79" d="M118.71,702.94l-1,5.08s-30.38,26.74-40.1,57.72S87.3,838.05,114,835.62s18.23-50.43,18.23-50.43l24.31-29.77,4.27-.23C152.19,734.91,136.39,717.86,118.71,702.94Z"></path>
  <path fill="#313131" d="M111.79 837.38h0c-9.64 0-18.92-5.41-26.13-15.23-11.52-15.69-15.4-38.56-9.65-56.9 9.24-29.45 36.31-54.62 40.17-58.09l.92-4.55a1.66 1.66 0 0 1 1.08-1.23 1.63 1.63 0 0 1 1.6.29c21.36 18 34.89 34.83 42.59 52.87a1.64 1.64 0 0 1-.11 1.52 1.67 1.67 0 0 1-1.32.78l-3.55.19L134 785.65c.77 4.86 4.27 30.74-5.83 44a19.15 19.15 0 0 1-14 7.65C113.39 837.34 112.58 837.38 111.79 837.38Zm8-131.37-.47 2.34a1.66 1.66 0 0 1-.53.91c-.3.27-30.15 26.8-39.62 57-5.36 17.11-1.6 39 9.16 53.61 6.57 8.95 14.91 13.53 23.48 13.53h0c.69 0 1.4.31 2.09.25a15.58 15.58 0 0 0 11.67-6.19c10.06-13.17 5.14-41.76 5.09-42.05a1.55 1.55 0 0 1 .34-1.29l24.31-29.75a1.65 1.65 0 0 1 1.19-.6l1.89-.09C151 737.52 138.65 722.28 119.77 706ZM418.44 722.43a1.72 1.72 0 0 1-.81-.21A1.65 1.65 0 0 1 417 720c.46-.83 11.69-20.27 37.85-20.89a1.63 1.63 0 0 1 1.69 1.61 1.65 1.65 0 0 1-1.61 1.69 42.69 42.69 0 0 0-35.06 19.21A1.64 1.64 0 0 1 418.44 722.43Z"></path>
  <path fill="#7e4e3d" d="M431.91,629.08a72.29,72.29,0,0,1-108.76-87.59C378.49,553.2,410.86,583.61,431.91,629.08Z"></path>
  <path fill="#313131" d="M389.28,644.66a74,74,0,0,1-74-74,72.94,72.94,0,0,1,6.32-29.88l.54-1.22,1.31.27c52.15,11,87.08,39.17,109.92,88.52l.57,1.22-1.09.8A73.21,73.21,0,0,1,389.28,644.66ZM324.13,543.39a69.62,69.62,0,0,0-5.5,27.31,70.73,70.73,0,0,0,70.65,70.66,69.9,69.9,0,0,0,40.55-12.82C407.65,581.39,374,554.29,324.13,543.39Z"></path>
  <path fill="#e6aa79" d="M305.43,704.89c0,29.06-23.94,53.17-55.32,57.65a72.64,72.64,0,0,1-10.62.77,73.56,73.56,0,0,1-21.43-3.16,63.93,63.93,0,0,0-37.31,0,73.61,73.61,0,0,1-21.46,3.16,72.08,72.08,0,0,1-11.57-.92c-30.89-4.81-54.34-28.73-54.34-57.5,0-46,43-87.84,80.81-102.49,9.26-3.6,18.2-5.57,26.12-5.57A63.75,63.75,0,0,1,220,600.3c1.24.42,2.48.86,3.74,1.32,0,0,.07,0,.1,0,33.15,12.44,70.36,47.54,79.5,85.84A74.13,74.13,0,0,1,305.43,704.89Z"></path>
  <path fill="#313131" d="M239.49,765a75.56,75.56,0,0,1-21.91-3.23,62.44,62.44,0,0,0-36.35,0A75.33,75.33,0,0,1,159.29,765a73.66,73.66,0,0,1-11.83-1c-32.29-5-55.74-29.9-55.74-59.13,0-45.25,41.63-88.43,81.87-104,9.7-3.77,18.69-5.68,26.72-5.68a64.88,64.88,0,0,1,20.18,3.56c1.19.39,2.43.83,3.8,1.33l.15.06.07,0c31.8,12,70.76,46.51,80.41,87a75.34,75.34,0,0,1,2.16,17.76c0,14.39-5.81,28.31-16.35,39.2a70.08,70.08,0,0,1-40.38,20.08A74.06,74.06,0,0,1,239.49,765Zm-40.09-9.26a65.17,65.17,0,0,1,19.14,2.87,72.42,72.42,0,0,0,21,3.08,70.38,70.38,0,0,0,10.38-.76c31.24-4.45,53.91-28,53.91-56a72.56,72.56,0,0,0-2.07-17c-9.4-39.4-47.45-73-78.47-84.69l-.16-.06,0,0c-1.3-.47-2.48-.89-3.6-1.26a61.81,61.81,0,0,0-19.14-3.39c-7.51,0-16.34,1.89-25.52,5.46C135.58,619.14,95,661.06,95,704.89,95,732.48,117.29,756,148,760.76a71,71,0,0,0,11.32.9,72.24,72.24,0,0,0,21-3.09A65.48,65.48,0,0,1,199.4,755.71Z"></path>
  <path fill="#7e4e3d" d="M301.51,686.43c-11.8,9.47-35.89,22.18-68.42,5.93-47.1-23.55-24.73-80.07-24.73-80.07l12.39-10.36C253.75,612.67,292.3,647.87,301.51,686.43Z"></path>
  <path fill="#fff" d="M249.75,761a71.42,71.42,0,0,1-10.43.77,72.29,72.29,0,0,1-21-3.11,62.6,62.6,0,0,0-36.62,0,72.4,72.4,0,0,1-21.07,3.11,70.8,70.8,0,0,1-11.36-.91c-48.59-45.16,30.42-81.93,33.29-83.65s2.07-11.78,2.07-19.54-7.75-11-9.83-20.87c-1.4-6.63-.38-23,.46-33,9.09-3.53,17.87-5.46,25.64-5.46a64.68,64.68,0,0,1,19.67,3.41c1.22.41,1,.84,4,1.29v.05c0,9.87,1.61,26.81.18,33.61-2.1,9.83-10,13-10,20.76s-1,18,2,19.75S298.75,715.81,249.75,761Z"></path>
  <path fill="#313131" d="M199.4,712.28c10,.47,23.09-11.25,18.84-17.32s-34.63-4.26-37.67-.31S186.64,711.67,199.4,712.28Z"></path>
  <path fill="#ce5044" d="M211.25,740.23s4.86,33.72-14.58,31.89-12.76-34-12.76-34L197,730.81Z"></path>
  <path fill="#313131" d="M198.15,773.85c-.53,0-1.08,0-1.63-.08a14.57,14.57,0,0,1-10.82-5.94c-7.45-10.08-3.58-29.26-3.41-30.07a1.66,1.66,0,0,1,.81-1.1l13.07-7.3a1.64,1.64,0,0,1,1.71.07l14.28,9.42a1.63,1.63,0,0,1,.73,1.14c.12.83,2.85,20.55-4.89,29.49A12.49,12.49,0,0,1,198.15,773.85Zm-12.76-34.69c-.61,3.52-2.85,18.83,3,26.71a11.23,11.23,0,0,0,8.46,4.61c3.7.35,6.53-.69,8.68-3.16,6-6.93,4.61-22.58,4.21-26.13l-12.81-8.45Z"></path>
  <path fill="#313131" d="M197.07,749.45a1.53,1.53,0,0,1-1.5-1.66V709a1.51,1.51,0,1,1,3,0v38.82A1.53,1.53,0,0,1,197.07,749.45Z"></path>
  <path fill="#313131" d="M179.66,739.94c-10.09,0-18.71-8.49-19.1-8.88a1.65,1.65,0,0,1,2.34-2.33c.09.09,9.09,8.93,18.45,7.81,4.79-.57,9-3.71,12.39-9.33a1.65,1.65,0,0,1,2.82,1.72c-4,6.53-9,10.2-14.84,10.89A15.92,15.92,0,0,1,179.66,739.94Z"></path>
  <path fill="#313131" d="M213.67 739.94a16 16 0 0 1-2.06-.12c-5.85-.69-10.84-4.36-14.83-10.89a1.65 1.65 0 1 1 2.82-1.72c3.43 5.62 7.6 8.76 12.39 9.33 9.36 1.12 18.36-7.72 18.45-7.81a1.65 1.65 0 1 1 2.33 2.33C232.39 731.45 223.77 739.94 213.67 739.94ZM215.51 684.46l-.27 0c-14.45-2.36-30.93 0-31.09 0a1.65 1.65 0 1 1-.48-3.27c.69-.1 17.13-2.44 32.1 0a1.65 1.65 0 0 1-.26 3.28ZM344.32 743.7a1.65 1.65 0 0 1-1.4-.78c-16.74-26.87-16.91-56.81-.5-86.58a140.13 140.13 0 0 1 30-37.09 1.65 1.65 0 1 1 2.1 2.55A139.46 139.46 0 0 0 345.26 658c-16 29-15.81 57 .46 83.15a1.65 1.65 0 0 1-.53 2.28A1.62 1.62 0 0 1 344.32 743.7Z"></path>
  <path fill="#fff" d="M126.18,669.34a19.59,19.59,0,0,1-1.76-10.79c.61-4.58,3-8.78,5.93-12.35,6.73-8.17,16.4-13.74,26.76-9.17,8.21,3.62,14.65,11.31,18.94,19a15.84,15.84,0,0,1,2.22,6.14c.48,5-3,9.51-6.77,12.87-7.75,6.91-19.14,10.45-29.36,7.81A25.16,25.16,0,0,1,126.18,669.34Z"></path>
  <path fill="#313131" d="M149.16,685.37a29.49,29.49,0,0,1-7.43-.93,26.68,26.68,0,0,1-17-14.41,21.28,21.28,0,0,1-1.9-11.69c.58-4.39,2.7-8.83,6.3-13.19,6.06-7.36,13.34-11.42,20.48-11.42a20.13,20.13,0,0,1,8.21,1.79c10.06,4.43,16.67,14.24,19.72,19.7a17.59,17.59,0,0,1,2.43,6.78c.45,4.73-2,9.53-7.32,14.26A35.74,35.74,0,0,1,149.16,685.37Zm.4-48.33c-6.14,0-12.51,3.62-17.93,10.21-3.2,3.88-5.08,7.76-5.57,11.52a18,18,0,0,0,1.62,9.88,23.63,23.63,0,0,0,14.88,12.59,26.17,26.17,0,0,0,6.6.82,32.87,32.87,0,0,0,21.24-8.27c4.48-4,6.57-7.85,6.23-11.48a14.48,14.48,0,0,0-2-5.48c-2.84-5.09-9-14.24-18.16-18.29A17,17,0,0,0,149.56,637Z"></path>
  <circle cx="161.07" cy="657.8" r="14.8" fill="#313131" transform="rotate(-45 161.07 657.802)"></circle>
  <path fill="#fff" d="M276.19,671.63A19.61,19.61,0,0,0,278,660.81c-.61-4.6-3-8.81-5.95-12.39-6.75-8.19-16.45-13.78-26.84-9.2-8.23,3.63-14.69,11.35-19,19.06a15.81,15.81,0,0,0-2.24,6.15c-.47,5,3,9.54,6.8,12.91,7.77,6.93,19.2,10.48,29.44,7.84A25.22,25.22,0,0,0,276.19,671.63Z"></path>
  <path fill="#313131" d="M253.14,687.38h0a35.7,35.7,0,0,1-23.5-9c-5.32-4.75-7.79-9.48-7.34-14.22a17.34,17.34,0,0,1,2.43-6.76c3.06-5.47,9.69-15.29,19.78-19.74a20.26,20.26,0,0,1,8.24-1.78c7.16,0,14.45,4.07,20.54,11.45,3.6,4.38,5.73,8.83,6.31,13.23a21.32,21.32,0,0,1-1.91,11.73,26.46,26.46,0,0,1-17.09,14.29A29.68,29.68,0,0,1,253.14,687.38Zm-.39-48.16a17.07,17.07,0,0,0-6.91,1.51c-9.2,4.06-15.37,13.24-18.22,18.35a14.57,14.57,0,0,0-2,5.5c-.35,3.64,1.75,7.51,6.24,11.51a33,33,0,0,0,21.31,8.29h0a26.88,26.88,0,0,0,6.63-.81,23.68,23.68,0,0,0,14.92-12.63,18,18,0,0,0,1.63-9.91c-.5-3.78-2.38-7.67-5.58-11.56C265.29,642.86,258.9,639.22,252.75,639.22Z"></path>
  <circle cx="241.24" cy="661.45" r="14.85" fill="#313131"></circle>
  <path fill="#313131" d="M128.35 828.65a1.66 1.66 0 0 1-1.57-1.13l-6.54-19.62a1.65 1.65 0 1 1 3.14-1l6.54 19.62a1.65 1.65 0 0 1-1 2.09A1.88 1.88 0 0 1 128.35 828.65ZM118.07 836.59a1.66 1.66 0 0 1-1.54-1.07l-8.41-22.42a1.65 1.65 0 1 1 3.09-1.16l8.41 22.42a1.64 1.64 0 0 1-1.55 2.23ZM103.13 835.66a1.66 1.66 0 0 1-1.57-1.12L95 815.39a1.65 1.65 0 0 1 3.13-1.07l6.54 19.15a1.66 1.66 0 0 1-1 2.1A1.69 1.69 0 0 1 103.13 835.66ZM254.47 835.66a1.66 1.66 0 0 1-1.54-1l-7.47-19.15a1.65 1.65 0 0 1 3.07-1.21L256 833.41a1.66 1.66 0 0 1-.94 2.14A1.81 1.81 0 0 1 254.47 835.66ZM271.29 837.53a1.64 1.64 0 0 1-1.53-1l-9.35-22.89a1.65 1.65 0 0 1 3.06-1.25l9.34 22.89a1.64 1.64 0 0 1-.9 2.15A1.53 1.53 0 0 1 271.29 837.53ZM283.9 826.78a1.67 1.67 0 0 1-1.49-.92l-8.87-18.22a1.65 1.65 0 0 1 3-1.45l8.87 18.22a1.65 1.65 0 0 1-.76 2.21A1.68 1.68 0 0 1 283.9 826.78ZM308.65 761.39a1.65 1.65 0 0 1-1.1-2.88L331.37 737a1.65 1.65 0 0 1 2.21 2.46L309.76 761A1.63 1.63 0 0 1 308.65 761.39Z"></path>
  <path fill="#ce5044" d="M620.81,702.09c-4.35-1.45-22.4-3.71-37.92-3.71H558.83c-15.52,0-33.57,2.26-37.92,3.71-8,2.66-7.09,9.64-2.66,47.75,3.65,31.43,21.78,47.72,44.92,51.5l15.38-.05c23.14-3.77,41.27-20,44.92-51.45C627.9,711.73,628.79,704.75,620.81,702.09Z"></path>
  <path fill="#313131" d="M563.17,803.38c-.09,0-.18-.21-.26-.23a53,53,0,0,1-30.72-16c-8.55-9.2-13.79-21.72-15.58-37.12l-.11-1c-2.17-18.59-3.47-29.83-3.22-36.68.26-7.06,2.18-10.4,7.1-12,4.67-1.55,22.87-4,38.45-4h24.06c15.58,0,33.78,2.41,38.44,4,4.93,1.64,6.85,4.92,7.11,12,.25,6.85-1.06,18.09-3.22,36.68l-.11,1c-1.79,15.39-7,27.86-15.58,37-7.8,8.38-18.42,13.87-30.72,15.88-.08,0-.17.23-.26.23l-15.37.24Zm-4.34-103c-16.07,0-33.6,2.18-37.4,3.45C515,706,515.5,712,519.78,748.78l.11.89c3.28,28.2,18.69,45.94,43.41,50l15.11-.05c24.73-4.09,40.14-21.86,43.42-50l.11-1c4.28-36.76,4.8-42.68-1.65-44.83-3.81-1.27-21.33-3.45-37.4-3.45Z"></path>
  <path fill="#333" d="M522.6,706.5a3.65,3.65,0,0,1,2.2-2.66c5.75-3.07,12.74-.89,19.26-.84a74.22,74.22,0,0,0,9.28-.83c18.09-2.19,36.39-.68,54.55.91a23.94,23.94,0,0,1,8.14,1.68c.87.41,1.81,1.11,1.75,2.08s-1,1.51-1.8,1.91a51.09,51.09,0,0,1-14,4c-12,2-24.21,2.06-36.37,2.11-13.44,0-27.26,0-39.77-4.93C524.31,709.29,522.49,708.19,522.6,706.5Z"></path>
  <path fill="#a5a653" d="M586.12,662.64a11.81,11.81,0,0,1,5.74-1.54,170.16,170.16,0,0,1,19.16-.54c5,.14,10.06.5,15-.26s9.92-2.78,13.16-6.61c4.64-5.5,4.72-14.05,1-20.21s-10.68-10-17.82-10.86-14.43.85-21,3.87a56.14,56.14,0,0,0-24.39,22c-6.25-5.09-5.16-15.28-.76-22s11.23-11.56,16.13-17.95c4.49-5.88,7.29-13.3,6.55-20.66s-5.42-14.48-12.36-17c-9.19-3.38-19.82,2-25.33,10.05s-7,18.22-7.57,28a209.81,209.81,0,0,0,2.91,50.23,36.76,36.76,0,0,0-23.4-24.88,37.26,37.26,0,0,0-33.74,5.53,20.17,20.17,0,0,0-7.05,8.6c-2.45,6.44.43,14.07,5.67,18.54s12.34,6.2,19.23,6.35,13.71-1.13,20.54-2c3-.37,6.19-.65,9.11.28,6.69,2.14,9.92,9.85,10.5,16.86s-.6,14.19,1.14,21l18.68-.15c-.62-14.49-1.07-29.78,5.72-42.61A10.59,10.59,0,0,1,586.12,662.64Z"></path>
  <path fill="#313131" d="M558.59,710.38c-.76,0-1.41-.2-1.6-.93-1.14-4.45-1.09-8.88-1-13.31,0-2.58.07-5.17-.15-7.72-.51-6.18-3.24-13.43-9.36-15.38a13.1,13.1,0,0,0-4-.53,37.48,37.48,0,0,0-4.39.34c-1.6.2-3.19.42-4.79.64a102.1,102.1,0,0,1-16,1.35c-5.79-.13-14-1.4-20.27-6.74s-8.69-13.66-6.14-20.38c1.27-3.35,3.83-6.49,7.6-9.34a38.9,38.9,0,0,1,23.33-7.69,37.28,37.28,0,0,1,11.94,1.92,38.23,38.23,0,0,1,19.47,15,210.71,210.71,0,0,1-1.15-38.9c.59-9.42,2-20.2,7.85-28.82,4.88-7.17,13.05-11.8,20.81-11.8a18.67,18.67,0,0,1,6.45,1.13c7.2,2.65,12.6,10,13.44,18.42.73,7.31-1.72,15.06-6.89,21.82a80.3,80.3,0,0,1-7.48,8.11,61.45,61.45,0,0,0-8.58,9.74c-3.71,5.68-4.84,13.73-.93,18.49a58,58,0,0,1,24-20.82,42.51,42.51,0,0,1,17.83-4.26,31.49,31.49,0,0,1,4,.25c8.13,1,15.24,5.38,19,11.65,4.24,7,3.76,16.31-1.15,22.12-4,4.76-9.92,6.53-14.17,7.18a46.59,46.59,0,0,1-7.32.49c-1.86,0-3.73-.07-5.54-.13l-2.46-.08a169.15,169.15,0,0,0-19,.53,10.43,10.43,0,0,0-4.94,1.26,9.06,9.06,0,0,0-2.61,3.38c-6.77,12.78-6.11,28.18-5.53,41.76a1.64,1.64,0,0,1-.46,1.21c-.3.33-.73.2-1.18.2l-18.68-.17Zm-16.15-41.16a16.17,16.17,0,0,1,5,.71c7.67,2.45,11,11.06,11.65,18.29.22,2.72.19,5.46.16,8.11a54.43,54.43,0,0,0,.64,11.37l15.64-.13c-.54-13-.89-28.74,6-41.74a12.15,12.15,0,0,1,3.66-4.56,13.27,13.27,0,0,1,6.53-1.82,171.06,171.06,0,0,1,19.34-.54l2.48.08c1.79.06,3.63.13,5.43.13a45.17,45.17,0,0,0,6.82-.45c3.69-.57,8.79-2.08,12.15-6,4-4.76,4.37-12.45.85-18.29-3.27-5.41-9.49-9.17-16.62-10.07-6.22-.79-13.06.49-20.06,3.73a54.6,54.6,0,0,0-23.68,21.3,1.65,1.65,0,0,1-1.13.78,1.69,1.69,0,0,1-1.33-.35c-6.91-5.62-6-16.72-1.09-24.21a64.39,64.39,0,0,1,9-10.28,77.47,77.47,0,0,0,7.18-7.77c4.59-6,6.86-13.1,6.22-19.48-.72-7.14-5.26-13.43-11.3-15.65a15.2,15.2,0,0,0-5.3-.93c-6.7,0-13.79,4.07-18.08,10.36-5.42,8-6.72,18.2-7.29,27.16a208,208,0,0,0,2.89,49.83,1.67,1.67,0,0,1-1.27,1.91,1.65,1.65,0,0,1-2-1.19,35.31,35.31,0,0,0-22.34-23.73A34.06,34.06,0,0,0,521.78,634a35.58,35.58,0,0,0-21.34,7c-3.26,2.46-5.45,5.11-6.5,7.87-2,5.36.15,12.38,5.2,16.69,5.52,4.72,12.94,5.84,18.2,6a98,98,0,0,0,15.47-1.32c1.61-.22,3.22-.44,4.83-.64A41.33,41.33,0,0,1,542.44,669.22Z"></path>
  <path fill="#333" d="M581.62 657.66a1.62 1.62 0 0 1-1-.37 1.65 1.65 0 0 1-.25-2.32c18.57-22.88 48.91-17.7 49.22-17.65a1.65 1.65 0 1 1-.59 3.25c-.28-.05-28.74-4.85-46.06 16.48A1.65 1.65 0 0 1 581.62 657.66ZM564.78 622.87h-.17a1.65 1.65 0 0 1-1.48-1.81c1.68-16.42 12.37-36.34 12.82-37.17a1.65 1.65 0 1 1 2.91 1.57c-.11.2-10.83 20.18-12.44 35.94A1.65 1.65 0 0 1 564.78 622.87ZM549.16 659.76a1.65 1.65 0 0 1-1-.31c-22.49-16.15-44.33-6.58-44.55-6.48a1.65 1.65 0 0 1-1.37-3c1-.43 23.75-10.5 47.85 6.81a1.66 1.66 0 0 1 .38 2.31A1.64 1.64 0 0 1 549.16 659.76Z"></path>
  <polygon fill="#fff" points="684.64 277.75 727.77 246.88 719.39 298.77 708.28 285.97 695.46 307.54 689.14 303.78 702.18 281.83 684.64 277.75"></polygon>
  <path fill="#333" d="M695.46,309.19a1.69,1.69,0,0,1-.85-.23l-6.32-3.76a1.66,1.66,0,0,1-.57-2.27l11.89-20-15.34-3.57a1.65,1.65,0,0,1-.59-2.95l43.13-30.87a1.65,1.65,0,0,1,2.59,1.61L721,299a1.65,1.65,0,0,1-2.88.82l-9.61-11.07-11.65,19.6a1.67,1.67,0,0,1-1,.76A1.83,1.83,0,0,1,695.46,309.19Zm-4.06-6,3.48,2.07,12-20.14a1.63,1.63,0,0,1,2.66-.24l8.8,10.13,7.19-44.48L688.57,277l14,3.25a1.65,1.65,0,0,1,1,2.45Z"></path>
  <path fill="#fff" d="M272.28,83.1c-4.56-2.52-10.24-1.35-15.1.52-5.11,2-10.12,4.78-13.28,9.25-3.43,4.85-4.28,11-5,16.89-.67,5.18-1,11.3,3,14.71a11.79,11.79,0,0,0,6.14,2.45,22.59,22.59,0,0,0,15.12-3.3c3.73-2.39,7.81-6.07,11.92-4.42,1.57.63,2.74,2,4.05,3a15.26,15.26,0,0,0,16.19,1.59,16.13,16.13,0,0,0,8.49-14c0-3.25-1.12-6.72-3.81-8.55s-6.36-1.62-9.61-2.34a15.89,15.89,0,0,1-7.5-4C279,91.28,276.94,85.67,272.28,83.1Z"></path>
</svg>
