<svg xmlns="http://www.w3.org/2000/svg" enable-background="new 0 0 2000 2000" viewBox="0 0 2000 2000" id="pet-paw-with-heart">
  <path fill="#f44539" d="M1129.4320068,967.7689819v439.0813599c0,52.5163574-20.4206543,101.8586426-57.5599365,138.9985352
		c-37.1392822,37.1387939-86.4821167,57.5593262-138.9979248,57.5593262
		c-52.4746704,0-101.8581543-20.4205322-138.9567871-57.5593262
		c-37.1392822-37.1398926-57.6005859-86.4821777-57.6005859-138.9985352v-66.9562988
		c0-42.1422119-34.2920532-76.3929443-76.4342041-76.3929443h-66.9161377
		c-108.4077759,0-196.557373-88.1912842-196.557373-196.5578613c0-108.4083252,88.1495972-196.5579224,196.557373-196.5579224
		h439.0819092C1085.7435303,870.3853149,1129.4320068,914.0737915,1129.4320068,967.7689819z"></path>
  <path fill="#c16d59" d="M895.776001 593.1223755c-9.9257202 36.8140259-82.7399902 155.0244751-166.8624878 177.5196533-38.8886719 10.4138794-75.6213379-1.2612305-109.1401978-34.6986694-44.0951538-43.9725342-63.3354492-99.2139893-52.800354-151.5267334 8.9489746-44.3389282 37.7088623-79.3634033 78.9160156-96.122345 71.8380127-29.2484741 130.2520142-43.9735107 173.2080078-43.9735107 28.1903076 0 49.7088013 6.3460693 64.0683594 19.0371704C921.6061401 497.3247375 902.1622925 569.4473267 895.776001 593.1223755zM1372.729248 519.0463257c-51.6618652 96.7341309-143.7575684 203.1481934-233.0462646 222.836853-34.4136963 7.5656128-65.4924316 1.1381226-92.380249-19.1602783-50.1973877-37.8707886-76.7197266-89.4515991-72.8147583-141.519043 3.8239746-50.767395 35.9192505-96.0826111 88.0691528-124.3131104 110.7669678-60.0005188 185.0048828-57.1125183 185.7368164-57.0718079h.772583c1.0169678-.0407104 103.0792236-3.7828064 131.7169189 41.8174438C1392.7425537 460.6328125 1390.0174561 486.7072754 1372.729248 519.0463257zM1511.5230713 1353.928833c-16.7589111 41.206665-51.7834473 69.9665527-96.1224365 78.9155273-52.3127441 10.5361328-107.5535889-8.7056885-151.5266113-52.800293-33.4375-33.5189209-45.1126709-70.2515869-34.6987305-109.1402588 22.4952393-84.1224365 140.7060547-156.9372559 177.5196533-166.8625488 12.6921387-3.4162598 39.2958984-10.6164551 66.5095215-10.6164551 23.512085 0 47.5119629 5.4105225 63.2548828 23.2271729C1568.5540771 1152.9367676 1559.9307861 1234.9844971 1511.5230713 1353.928833zM1599.9984131 751.5234375c.0406494.7319336 2.9291992 74.9698486-57.0712891 185.7368164-28.2717285 52.1498413-73.5462646 84.2446289-124.3132324 88.0690918-52.0678711 3.9456787-103.6889648-22.6173706-141.5194092-72.8147583-20.2984619-26.8877563-26.7259521-57.9665527-19.1599121-92.380249 19.6882324-89.2886963 126.1027832-181.4256592 222.8359375-233.0462036 19.1191406-10.2509766 36.081665-15.3754883 50.6447754-15.3754883 10.0474854 0 18.99646 2.4400635 26.7661133 7.3212891 45.6003418 28.6376953 41.857666 130.6998901 41.8170166 131.7168579V751.5234375z"></path>
  <path fill="#3c444f" d="M1032.0511475 854.1119995H592.9692993c-117.356842 0-212.8287048 95.4719238-212.8287048 212.8291626 0 117.3563232 95.4718628 212.8292236 212.8287048 212.8292236h66.9160767c33.1931763 0 60.1629028 26.9692383 60.1629028 60.1217041v66.9562988c0 117.3572998 95.4723511 212.8292236 212.8286743 212.8292236 117.3572998 0 212.8292236-95.4719238 212.8292236-212.8292236V967.7669678C1145.7061768 905.0820923 1094.6954346 854.1119995 1032.0511475 854.1119995zM1129.4348145 1406.8483887c0 52.5163574-20.4205322 101.8586426-57.5599365 138.9984131-37.1392822 37.138916-86.4820557 57.5594482-138.9979248 57.5594482-52.4746094 0-101.8581543-20.4205322-138.9567261-57.5594482-37.1393433-37.1397705-57.600647-86.4820557-57.600647-138.9984131v-66.9562988c0-42.1422119-34.2919922-76.3930664-76.4342041-76.3930664h-66.9160767c-108.4078064 0-196.557373-88.1912842-196.557373-196.5578613 0-108.4082642 88.1495667-196.5578003 196.557373-196.5578003h439.0818481c53.6951904 0 97.383667 43.6884766 97.383667 97.383606V1406.8483887zM893.9480591 451.1524658c-41.8169556-36.9759521-127.3228149-29.5732117-254.1987305 22.0483093-45.6816406 18.5892639-78.8345947 58.9428406-88.7191162 108.0011292-11.6344604 57.7630005 9.2340698 118.3325195 57.2749023 166.251709 28.8407593 28.7598267 60.0004883 43.2415771 93.03125 43.2415771 10.4138794 0 21.0303345-1.4241333 31.81073-4.3121338 94.454895-25.3027954 168.774231-153.5606079 178.3330688-189.03302C918.5178833 571.2756348 939.9549561 491.83078 893.9480591 451.1524658zM895.7788696 593.1203613c-9.9257813 36.8140869-82.7400513 155.0244751-166.8624878 177.5197144-38.8887329 10.4138794-75.6213379-1.2612915-109.1402588-34.6987305-44.0950928-43.9724731-63.3353882-99.2139893-52.800354-151.5267334 8.9490356-44.3389282 37.7088623-79.3634033 78.9160156-96.122345 71.8380737-29.2484436 130.2520142-43.9734802 173.2080688-43.9734802 28.1903076 0 49.7088013 6.3460388 64.0683594 19.0371704C921.6090088 497.3227539 902.1651611 569.4453125 895.7788696 593.1203613zM1394.5350342 432.9286499c-33.0302734-52.5153198-137.5330811-49.7087708-145.7904053-49.3830261-6.8342285-.2850342-81.8045654-1.7091675-193.9141846 59.0242615-57.15271 30.955658-92.3395386 81.0308838-96.5702515 137.411438-4.352356 57.72229 24.5291138 114.4683228 79.2417603 155.7166748 22.5354004 17.0440063 47.5527344 25.545105 74.7260742 25.545105 10.0473633 0 20.3391113-1.1381226 30.9560547-3.4977417 94.3740234-20.7870483 190.4963379-131.0246582 243.9069824-231.0122681C1407.3493652 488.8206177 1409.8300781 457.2949219 1394.5350342 432.9286499zM1372.7320557 519.0443115c-51.6617432 96.7341309-143.7575684 203.1482544-233.0462646 222.8369141-34.4135742 7.5656128-65.4924316 1.1381226-92.380249-19.1603394-50.1973877-37.8707275-76.7197266-89.4515381-72.8147583-141.5189819 3.8240356-50.7674561 35.9193115-96.0826721 88.0691528-124.3131714 110.7669678-60.0004883 185.0048828-57.1124878 185.7368164-57.0717773h.772583c1.0169678-.0407104 103.0792236-3.7828064 131.7169189 41.8174133C1392.7454834 460.6308289 1390.0202637 486.7052612 1372.7320557 519.0443115zM1548.6657715 1105.8706055c-40.6783447-46.0073242-120.1231689-24.5698242-146.1981201-17.5325928-35.4714355 9.5588379-163.7302246 83.8781738-189.0319824 178.3331299-12.0003662 44.9089355 1.0571289 86.9299316 38.9289551 124.8424072 39.2138672 39.3356934 86.8892822 60.4475098 134.5640869 60.4475098 10.5762939 0 21.1932373-1.0577393 31.6881104-3.1730957 49.0175781-9.8845215 89.4112549-43.0369873 108.0010986-88.7196045C1578.1982422 1233.1929932 1585.6422119 1147.6870117 1548.6657715 1105.8706055zM1511.5258789 1353.9268799c-16.7589111 41.206665-51.7833252 69.9664307-96.1223145 78.9155273-52.3127441 10.5360107-107.5537109-8.7056885-151.5267334-52.800415-33.4373779-33.5187988-45.1125488-70.2514648-34.6987305-109.1401367 22.4952393-84.1225586 140.7061768-156.9372559 177.5197754-166.8625488 12.6920166-3.4163818 39.2957764-10.6164551 66.5093994-10.6164551 23.512207 0 47.5119629 5.4105225 63.2550049 23.2271729C1568.5570068 1152.9346924 1559.9337158 1234.9825439 1511.5258789 1353.9268799zM1566.8487549 605.2831421c-24.3254395-15.295105-55.8511963-12.81427-93.7636719 7.444458-99.9870605 53.4100952-210.2252197 149.5324707-231.0529785 243.9069824-8.623291 39.2948608-1.2200928 74.8476563 22.0478516 105.6821289 38.5634766 51.0922241 90.6313477 79.6881714 144.407959 79.6881714 3.7425537 0 7.5661621-.1628418 11.3493652-.4468994 56.380127-4.2307129 106.4553223-39.4170532 137.4110107-96.5702515 60.7329102-112.1096802 59.3093262-187.0795288 59.024292-193.9141846C1616.5982666 742.8167114 1619.4049072 638.3134155 1566.8487549 605.2831421zM1542.9299316 937.2582397c-28.2717285 52.1499023-73.5461426 84.2446289-124.3131104 88.0691528-52.0679932 3.9456787-103.6889648-22.6173706-141.5195313-72.8147583-20.2984619-26.8878174-26.7259521-57.9666138-19.15979-92.3803101 19.6881104-89.2886963 126.1027832-181.4256592 222.8358154-233.0462036 19.1191406-10.2509766 36.081665-15.3754883 50.6448975-15.3754883 10.0473633 0 18.9963379 2.4400635 26.7661133 7.3212891 45.6002197 28.6376953 41.857666 130.6998901 41.8168945 131.7168579v.772644C1600.0419922 752.2533569 1602.9304199 826.491272 1542.9299316 937.2582397z"></path>
</svg>
