<svg xmlns="http://www.w3.org/2000/svg" viewBox="0 0 799.96 847.69" id="pet-lover">
  <path fill="#fdf2e0" d="M424.7,81.23c1.25.74,2.54,1.45,3.85,2.13,30,15.46,66,8.76,99.53,12.77,70.56,8.46,121.44,65.84,141.82,131,18.77,60,15.61,124.45,12.27,187.27L671.61,612.81c-1,18.78-2,37.74-7.27,55.79-9.48,32.67-31.9,59.8-54.21,85.47-24.68,28.4-51.19,57.22-86.1,71.26-26.77,10.76-56.28,11.9-85.12,12.58q-100.21,2.4-200.46-.32c-29.68-.8-62.7-3.41-82.79-25.27-22-24-19.4-60.71-27.39-92.27-4.74-18.75-13.51-36.17-21.72-53.68A990.24,990.24,0,0,1,38.18,467.82c-17.84-77.73-61.67-172.89,8-237.18C68,210.5,94.05,195.13,114.79,173.86,172.85,114.3,193.57-1.37,295.73,0,359.93.88,376.85,53,424.7,81.23Z"></path>
  <path fill="#eeb857" d="M391.21,133.83c0,5,38.5,9.07,86,9.07s86-4,86-9.05a.4.4,0,0,0,0-.16h0v0a1.91,1.91,0,0,0-.77-1.06c-5.74-4.43-41.71-7.84-85.21-7.84-42.83,0-78.35,3.29-84.92,7.62C391.58,132.85,391.21,133.33,391.21,133.83Z"></path>
  <path fill="#313131" d="M477.22,144.56c-23,0-44.69-.95-61-2.67-26.67-2.82-26.67-6.36-26.67-8.06A3.41,3.41,0,0,1,391.4,131c7-4.59,43-7.91,85.82-7.91,37.59,0,79.28,2.8,86.22,8.16a3.79,3.79,0,0,1,1.21,1.44,1.72,1.72,0,0,1,.18.54,2.53,2.53,0,0,1,0,.53c0,1.7,0,5.25-26.67,8.1C521.87,143.59,500.21,144.56,477.22,144.56Zm-84.15-10.71c3.72,3.12,34.61,7.4,84.15,7.4,49.38,0,80.25-4.3,84.12-7.45-5.07-3.66-37.76-7.42-84.12-7.42-47.31,0-78.59,3.8-84,7.37Z"></path>
  <path fill="#333" d="M505.74,358.94a1.79,1.79,0,0,1-.67-.14c-1.13-.5-27.75-12.42-30.62-29.13-1.12-6.48,1.45-12.73,7.65-18.59l3.16-3c15.59-14.69,27.9-26.29,26.66-34.31-.52-3.31-3.4-6.2-8.82-8.84-3-.47-20.25-3.57-21.73-12.23-.73-4.26,2.77-9,6.81-14.4,4.65-6.25,9.93-13.35,9.55-20.78-.39-7.59-5.26-14.4-9.57-20.4-3.65-5.1-6.81-9.5-6.81-13.71,0-5.13,2.67-9.26,5.5-13.63a44.06,44.06,0,0,0,5.72-11.08c3-9.68,1-37.92.95-38.2a1.65,1.65,0,1,1,3.29-.24c.09,1.18,2.08,29.14-1.08,39.41a46.93,46.93,0,0,1-6.11,11.9c-2.66,4.12-5,7.68-5,11.84,0,3.15,3,7.34,6.2,11.79,4.57,6.37,9.75,13.59,10.18,22.15s-5.21,16.22-10.2,22.93c-3.44,4.62-6.69,9-6.2,11.86.95,5.59,14.53,8.86,19.21,9.56a1.73,1.73,0,0,1,.47.15c6.62,3.17,10.17,6.91,10.87,11.41,1.51,9.74-10.72,21.27-27.66,37.22l-3.15,3c-5.34,5-7.59,10.3-6.67,15.62,2.58,15,28.44,26.55,28.71,26.66a1.66,1.66,0,0,1-.67,3.17Z"></path>
  <rect width="11.56" height="329.93" x="471.44" y="40.95" fill="#e6aa79"></rect>
  <path fill="#313131" d="M483,372.53H471.44a1.65,1.65,0,0,1-1.65-1.65V41a1.65,1.65,0,0,1,1.65-1.65H483A1.65,1.65,0,0,1,484.65,41V370.88A1.65,1.65,0,0,1,483,372.53Zm-9.91-3.3h8.26V42.6h-8.26Z"></path>
  <path fill="#8f8ec3" d="M392.3,132.38c6.57-4.33,42.09-7.63,84.92-7.63,43.5,0,79.47,3.4,85.21,7.84a205.55,205.55,0,0,1-40-121.29c0-.05.3-.12.3-.17s.19-.13.19-.19v.75h-.45c-.76-6-20.8-9.21-45.44-9.21-25.12,0-45.48,3.88-45.48,8.89a1.27,1.27,0,0,0,.07.38A205.12,205.12,0,0,1,392.3,132.38Z"></path>
  <path fill="#313131" d="M562.43,134.69c-.35,0-.71-.34-1-.57-4.77-3.68-37.57-7.61-84.2-7.61-47.32,0-78.6,3.74-84,7.3a1.67,1.67,0,0,1-2.24-2.39A202.6,202.6,0,0,0,430,11.9a2.77,2.77,0,0,1-.07-.64C429.94,2.83,460.77.6,477.07.6c10.13,0,42.23.67,46.8,8.89A1.91,1.91,0,0,1,525,10.92h0v.31c0,.38-.37.73-.59,1a202.45,202.45,0,0,0,39.39,119.2,2.18,2.18,0,0,1,.4,1.37,1.91,1.91,0,0,1-1.71,1.87ZM477.22,123.1c31.72,0,66.37,2,80.58,5.86a205.8,205.8,0,0,1-37-117.66v-.06c-1-3.12-14.88-7.34-43.75-7.34-12.07,0-23.37.92-31.84,2.59-9.58,1.9-11.89,4.06-12,4.73v0a2.1,2.1,0,0,1,.05.43,205.68,205.68,0,0,1-36.54,117.24C409.89,125.45,441.18,123.1,477.22,123.1Z"></path>
  <path fill="#333" d="M425 128.26a1.65 1.65 0 0 1-1.17-2.82C443 106.32 442.46 5.67 442.46 4.66a1.93 1.93 0 0 1 1.64-2h0a1.94 1.94 0 0 1 1.65 1.95c0 4.18.54 102.9-19.58 123A1.87 1.87 0 0 1 425 128.26ZM451.9 126.32a1.66 1.66 0 0 1-1.5-2.34C461.71 99.08 458.15 4 458.11 3.09a1.65 1.65 0 1 1 3.3-.13c.16 3.94 3.63 96.78-8 122.39A1.66 1.66 0 0 1 451.9 126.32ZM530.49 128.26a1.64 1.64 0 0 1-1.16-.48C509.2 107.69 509.71 9.13 509.74 4.94A1.68 1.68 0 0 1 511.4 3.3 1.65 1.65 0 0 1 513 5c0 1-.53 101.35 18.62 120.47a1.65 1.65 0 0 1-1.17 2.82ZM503.6 126.32a1.66 1.66 0 0 1-1.51-1C490.46 99.74 493.94 6.9 494.09 3a1.65 1.65 0 1 1 3.3.13c0 1-3.6 96 7.71 120.89a1.66 1.66 0 0 1-1.5 2.34ZM477.46 126.05a1.53 1.53 0 0 1-1.5-1.65V2.15a1.51 1.51 0 1 1 3 0V124.4A1.53 1.53 0 0 1 477.46 126.05ZM686.68 174.78s-27.62-1.68-24.69-9.21 22.6 1.67 22.6 1.67-12.56-22.6-6.7-25.11 16.32 23.44 16.32 23.44.42-36 9.21-36-2.09 38.08-2.09 38.08 13.39-7.95 16.74-5.44-12.56 14.23-12.56 14.23ZM624.44 384.34s-13.37-.81-12-4.46 10.94.81 10.94.81-6.08-10.93-3.24-12.15 7.9 11.34 7.9 11.34.2-17.41 4.45-17.41-1 18.43-1 18.43 6.48-3.85 8.1-2.64-6.08 6.89-6.08 6.89ZM770.08 361.46s-13.36-.81-12-4.45 10.94.81 10.94.81-6.08-10.94-3.24-12.15 7.9 11.34 7.9 11.34.2-17.42 4.45-17.42-1 18.43-1 18.43 6.48-3.85 8.1-2.63-6.07 6.88-6.07 6.88Z"></path>
  <path fill="#a5a653" d="M627.46,382.31h0A17.48,17.48,0,0,1,645,399.69v66.37c0,6.25,4.33,11.63,10.58,11.63H660V204.07c0-18.49,14.51-33.48,33-33.48s33,15,33,33.48V504.69h1.18c9.63,0,18.82-6.26,18.82-15.89V386.55c0-14.8,11.21-26.79,26-26.79s26,12,26,26.79V502.62c0,18.49-14.81,36.07-33.3,36.07H726v48.18c0,18.49-14.51,33.48-33,33.48s-33-15-33-33.48V497.69H631.18C619.18,497.69,610,487,610,475V399.69A17.48,17.48,0,0,1,627.46,382.31Z"></path>
  <path fill="#313131" d="M693,622a35.21,35.21,0,0,1-35-35.13V499.69H631.18C618.56,499.69,608,488.24,608,475V399.69c0-10.49,8.8-19,19.5-19s19.5,8.54,19.5,19v66.37c0,5,3.06,10.63,8.58,10.63H658V204.07a35,35,0,1,1,70,0V503.52c8-.24,16-5.82,16-14.72V386.55a28,28,0,1,1,56,0V502.62c0,20.19-16.4,37.07-35.3,37.07H728v47.18A35.21,35.21,0,0,1,693,622ZM627,384a16,16,0,0,0-16,15.73V475c0,11.42,9.39,20.66,20.22,20.66h28.76a2.39,2.39,0,0,1,2,2.06v89.12c0,17.85,13.4,31.83,31,31.83s31-14,31-31.83V538.22c0-.91,1.15-1.53,2.06-1.53h38.64c17.11,0,31.3-15.67,31.3-34.07V386.55c0-14.1-10.34-25.14-24-25.14s-24,11-24,25.14V488.8c0,9.94-9.6,17.89-20.82,17.89H726c-.91,0-2.06-.6-2.06-1.51V204.07c0-17.84-13.4-31.83-31-31.83s-31,14-31,31.83V477.92a2.11,2.11,0,0,1-2,1.77h-4.4c-6.8,0-12.58-6.05-12.58-13.63V399.69A16,16,0,0,0,627,384Z"></path>
  <path fill="#333" d="M677.46,575.39a1.53,1.53,0,0,1-1.5-1.65v-288c0-84.13,2.12-112.28,15.64-113.18a1.58,1.58,0,0,1,1.68,1.54,1.68,1.68,0,0,1-1.57,1.76c-11.84.79-12.75,44-12.75,109.88v288A1.53,1.53,0,0,1,677.46,575.39Z"></path>
  <path fill="#333" d="M703.46 575.39a1.53 1.53 0 0 1-1.5-1.65v-288c0-65.86-.83-109.09-12.67-109.88a1.63 1.63 0 0 1-1.51-1.76 1.48 1.48 0 0 1 1.56-1.54c13.53.9 15.62 29 15.62 113.18v288A1.53 1.53 0 0 1 703.46 575.39ZM747.47 520.69h-40.7a1.65 1.65 0 1 1 0-3.3h40.7a23.14 23.14 0 0 0 23.1-23.1V359.61a1.65 1.65 0 1 1 3.3 0V494.29A26.43 26.43 0 0 1 747.47 520.69ZM674.88 490.48H639.22a13 13 0 0 1-13-13V384.78a1.65 1.65 0 1 1 3.3 0V477.5a9.69 9.69 0 0 0 9.68 9.68h35.66a1.65 1.65 0 0 1 0 3.3Z"></path>
  <path fill="#8f8ec3" d="M652.43,586.16c19.54,12.1,40,25.13,61.43,18.62,19.51-6.27,38-15.15,57.74-17.66l-1.36-21.45H617.35l-1.52,18.76C627.75,580.82,639.73,578.66,652.43,586.16Z"></path>
  <path fill="#313131" d="M702.11,608.17c-17.29,0-33.68-10.16-49.54-20l-1-.63a33.39,33.39,0,0,0-17.38-4.78c-6.34,0-12.6,1.63-17.88,3.23l-2.32.7L615.82,564h156l1.54,24.55-1.53.19c-13.57,1.73-26.32,6.41-39.81,11.38-5.74,2.11-11.67,4.29-17.63,6.21A42,42,0,0,1,702.11,608.17Zm-67.93-28.7a36.61,36.61,0,0,1,19.09,5.27l1,.64c15.46,9.58,31.45,19.48,47.8,19.48a38.87,38.87,0,0,0,11.27-1.66c5.88-1.89,11.78-4.06,17.48-6.16,12.59-4.63,25.59-9.42,39-11.35l-1.16-18.37H618.87l-1.2,14.84A60.75,60.75,0,0,1,634.18,579.47Z"></path>
  <path fill="#fff" d="M713.86,604.78c-21.41,6.51-41.89-6.52-61.43-18.62-12.7-7.5-24.68-5.34-36.6-1.73l-3.22,39.72c20.83-1.79,43.24-3.22,62.16,6.69,21.41,11.17,46.54-.93,63.3-14,4.65-3.72,9.31-8.38,14.89-9.31a56.55,56.55,0,0,1,19.85-1.16l-1.21-19.29C751.83,589.63,733.37,598.51,713.86,604.78Z"></path>
  <path fill="#313131" d="M693.14,636.89A41,41,0,0,1,674,632.31c-10.14-5.32-22.14-7.79-37.75-7.79-8,0-16,.63-23.5,1.27a1.62,1.62,0,0,1-1.31-.47A1.67,1.67,0,0,1,611,624l3.22-39.72a1.64,1.64,0,0,1,1.17-1.44c5.51-1.67,12-3.38,18.83-3.38a36.61,36.61,0,0,1,19.09,5.27l1,.64c15.46,9.58,31.45,19.48,47.8,19.48a38.87,38.87,0,0,0,11.27-1.66c5.88-1.89,11.78-4.06,17.48-6.16,13.07-4.81,26.59-9.79,40.53-11.56a1.69,1.69,0,0,1,1.26.37,1.66,1.66,0,0,1,.6,1.17l1.2,19.05a1.87,1.87,0,0,1,0,.34,1.65,1.65,0,0,1-1.65,1.65h0l-.21,0a55.5,55.5,0,0,0-19.26,1.14l-.11,0c-4.18.7-8,3.89-11.71,7-.81.68-1.61,1.35-2.42,2C730.1,625.17,712.18,636.89,693.14,636.89Zm-56.89-15.68c16.17,0,28.65,2.6,39.28,8.17a37.76,37.76,0,0,0,17.61,4.21c18.05,0,35.26-11.29,43.91-18,.77-.61,1.56-1.27,2.36-1.93,4-3.36,8.18-6.83,13.22-7.69a59.58,59.58,0,0,1,18.41-1.4l-1-15.55c-12.92,1.89-25.15,6.39-38.06,11.14-5.74,2.11-11.67,4.29-17.63,6.21a42,42,0,0,1-12.26,1.82c-17.29,0-33.68-10.16-49.54-20l-1-.63a33.39,33.39,0,0,0-17.38-4.78,60.14,60.14,0,0,0-16.8,2.91l-3,36.65C621.42,621.75,628.82,621.21,636.25,621.21Z"></path>
  <path fill="#8f8ec3" d="M753,607.57c-5.58.93-10.24,5.59-14.89,9.31-16.76,13-41.89,25.13-63.3,14-18.92-9.91-41.33-8.48-62.16-6.69l-.08,1a59.6,59.6,0,0,0,59.41,64.42h42.63a59.6,59.6,0,0,0,59.49-63.36l-1.25-19.78A56.55,56.55,0,0,0,753,607.57Z"></path>
  <path fill="#313131" d="M714.57,691.2H671.94A61.25,61.25,0,0,1,610.88,625l.19-2.37,1.39-.12c7.59-.65,15.67-1.29,23.79-1.29,16.17,0,28.65,2.6,39.28,8.17a37.76,37.76,0,0,0,17.61,4.21c18.05,0,35.26-11.29,43.91-18,.77-.61,1.56-1.27,2.36-1.93,4-3.36,8.18-6.83,13.22-7.69a58.85,58.85,0,0,1,20.4-1.18l1.35.17,1.33,21.15a61.26,61.26,0,0,1-61.14,65.11ZM614.14,625.67a58,58,0,0,0,57.8,62.23h42.63a58,58,0,0,0,57.84-61.6l-1.16-18.41a56.12,56.12,0,0,0-17.91,1.29l-.11,0c-4.18.7-8,3.89-11.71,7-.81.68-1.61,1.35-2.42,2-9,7-26.92,18.72-46,18.72A41,41,0,0,1,674,632.31c-10.14-5.32-22.14-7.79-37.75-7.79C628.75,624.52,621.25,625.07,614.14,625.67Z"></path>
  <path fill="#ce5044" d="M160.61,231.9c-50.51-1.07-79.52,10.75-96.72,47.29s40.84,175.17,52.66,210.63,14,134.34,66.63,140.79,316-4.3,332.08-19.35-12.9-138.63-48.36-149.38S160.61,231.9,160.61,231.9Z"></path>
  <path fill="#313131" d="M237.45,633.69h0c-25.36,0-44.2-.42-54.46-1.68-41.17-5-52.25-64.2-60.35-107.49-2.59-13.87-4.83-25.79-7.65-34.23-2-6.15-5.42-15.21-9.7-26.72C85.22,409.65,47.9,309.28,62.4,278.47c16.14-34.31,42.83-48.29,92.12-48.29,2,0,4,0,6.13.07a1.6,1.6,0,0,1,1,.37c2.71,2.19,271,219.15,305.72,229.68,20.62,6.25,39.07,48.72,48.21,88,5.71,24.6,9.35,56.15.8,64.13-7.76,7.25-63.6,12.23-109.08,15.33C352.64,631.52,286,633.69,237.45,633.69Zm-82.93-400.2c-47.8,0-73.62,13.44-89.13,46.4-13.91,29.55,23.1,129.09,43,182.56,4.29,11.54,7.68,20.65,9.75,26.85C121,498,123.26,510,125.88,524c7.91,42.28,18.74,100.19,57.5,104.94,10.14,1.24,28.83,1.89,54.06,1.89,48.45,0,115-2.4,169.64-6.12,61.68-4.21,101.7-9.7,107.05-14.69,6-5.59,5.27-30.66-1.77-61-8.64-37.15-26.7-79.79-45.94-85.63-35-10.6-290.24-216.84-306.41-229.92C158.15,233.51,156.3,233.49,154.52,233.49Z"></path>
  <path fill="#e6aa79" d="M346.2,845.43a9.21,9.21,0,0,1-9.12-8L307.29,620.69a9.21,9.21,0,1,1,18.25-2.51L355.34,835a9.22,9.22,0,0,1-7.88,10.38A9,9,0,0,1,346.2,845.43Z"></path>
  <path fill="#313131" d="M346.2,847.08a10.91,10.91,0,0,1-10.76-9.39L305.65,620.92a10.87,10.87,0,0,1,21.53-3L357,834.73A10.88,10.88,0,0,1,347.69,847,10.76,10.76,0,0,1,346.2,847.08ZM316.43,611.87a8.93,8.93,0,0,0-1,.07,7.57,7.57,0,0,0-6.47,8.53l29.8,216.77a7.58,7.58,0,0,0,7.48,6.54,7.4,7.4,0,0,0,1-.08,7.56,7.56,0,0,0,6.46-8.52L323.91,618.41A7.59,7.59,0,0,0,316.43,611.87Z"></path>
  <path fill="#e6aa79" d="M151.53,845.43A9.24,9.24,0,0,1,142.39,835l29.79-216.78a9.22,9.22,0,0,1,18.26,2.51L160.65,837.47A9.23,9.23,0,0,1,151.53,845.43Z"></path>
  <path fill="#313131" d="M151.53,847.08A10.66,10.66,0,0,1,150,847a10.89,10.89,0,0,1-9.29-12.25L170.55,618a10.9,10.9,0,0,1,10.76-9.38,10.52,10.52,0,0,1,1.48.1,10.89,10.89,0,0,1,9.29,12.25l-29.8,216.77A10.89,10.89,0,0,1,151.53,847.08Zm29.78-235.21a7.59,7.59,0,0,0-7.49,6.54L144,835.18a7.56,7.56,0,0,0,6.46,8.52,7.17,7.17,0,0,0,1,.08,7.59,7.59,0,0,0,7.48-6.54l29.8-216.77a7.59,7.59,0,0,0-6.47-8.53A8.91,8.91,0,0,0,181.31,611.87Z"></path>
  <path fill="#7e4e3d" d="M371.9,845.43a9,9,0,0,1-1.26-.09A9.22,9.22,0,0,1,362.76,835l29.8-216.78a9.21,9.21,0,1,1,18.25,2.51L381,837.47A9.21,9.21,0,0,1,371.9,845.43Z"></path>
  <path fill="#313131" d="M371.9,847.08a10.76,10.76,0,0,1-1.49-.1,10.88,10.88,0,0,1-9.28-12.25L390.92,618a10.9,10.9,0,0,1,10.76-9.38,10.76,10.76,0,0,1,1.49.1,10.88,10.88,0,0,1,9.28,12.25L382.66,837.69A10.91,10.91,0,0,1,371.9,847.08Zm29.78-235.21a7.6,7.6,0,0,0-7.49,6.54L364.4,835.18a7.56,7.56,0,0,0,6.46,8.52,7.4,7.4,0,0,0,1,.08,7.58,7.58,0,0,0,7.48-6.54l29.8-216.77a7.57,7.57,0,0,0-6.46-8.53A9.24,9.24,0,0,0,401.68,611.87Z"></path>
  <rect width="361.09" height="24.18" x="136.7" y="611.26" fill="#e6aa79" rx="6.09"></rect>
  <path fill="#313131" d="M491.71,637.09H142.79a7.74,7.74,0,0,1-7.74-7.73v-12a7.75,7.75,0,0,1,7.74-7.74H491.71a7.74,7.74,0,0,1,7.73,7.74v12A7.74,7.74,0,0,1,491.71,637.09ZM142.79,612.91a4.44,4.44,0,0,0-4.44,4.44v12a4.44,4.44,0,0,0,4.44,4.43H491.71a4.44,4.44,0,0,0,4.43-4.43v-12a4.44,4.44,0,0,0-4.43-4.44Z"></path>
  <path fill="#333" d="M315.58 605a1.65 1.65 0 0 1-1.63-1.43l-2.35-17.06a17.63 17.63 0 0 0-16.45-15.19c-35.52-2-96.46-6.67-105.61-15.82-12-12-46.25-125.88-47.7-130.73a1.65 1.65 0 0 1 3.16-.95c12.23 40.75 37.75 120.23 46.87 129.35 6 6 44.7 11.58 103.46 14.85a21 21 0 0 1 19.55 18l2.34 17.06a1.65 1.65 0 0 1-1.41 1.86ZM344.65 567a1.65 1.65 0 1 1 0-3.3c12.47 0 29.13-1.74 45.24-3.41 20.82-2.17 38.8-4 46.24-2.18a1.65 1.65 0 0 1-.8 3.2c-6.88-1.72-25.44.22-45.1 2.26C374 565.23 357.29 567 344.65 567Z"></path>
  <path fill="#e6aa79" d="M330.57,723.69H170.87a9.5,9.5,0,0,1,0-19h159.7a9.5,9.5,0,0,1,0,19Z"></path>
  <path fill="#313131" d="M330.57,724.69H170.87a10.51,10.51,0,1,1,0-21h159.7a10.51,10.51,0,1,1,0,21Zm-159.7-18a7.5,7.5,0,1,0,0,15h159.7a7.5,7.5,0,1,0,0-15Z"></path>
  <path fill="#7e4e3d" d="M550.17,723.69H388.93c-5.09,0-9.22-4.91-9.22-10s4.13-10,9.22-10H550.17c5.08,0,9.21,4.91,9.21,10S555.25,723.69,550.17,723.69Z"></path>
  <path fill="#313131" d="M550.17,724.69H388.93c-5.79,0-10.87-5.34-10.87-11.5s5.08-11.5,10.87-11.5H550.17c5.78,0,10.86,5.34,10.86,11.5S556,724.69,550.17,724.69Zm-161.24-20c-4,0-7.57,4.1-7.57,8.5s3.54,8.5,7.57,8.5H550.17c4,0,7.56-4.1,7.56-8.5s-3.54-8.5-7.56-8.5Z"></path>
  <path fill="#f0c7c0" d="M696.61,844.66H567.55A189.11,189.11,0,0,1,563.74,821c-.79-7.27-1.46-16.51-1.72-27-.79-32.36,3.16-66.46,3.16-66.46l97.08,15.71c11.49,19.15,28.94,44.23,42.21,50,.41.18.81.32,1.2.46,13.42,4.73,40.26,3.14,42.62,29.19,0,.29.05,1.18.07,1.45C750.38,849.37,736.9,844.66,696.61,844.66Z"></path>
  <path fill="#313131" d="M723.88,846.67c-3.26,0-7-.08-10.85-.15-4.85-.1-10.35-.21-16.42-.21H567.55a1.64,1.64,0,0,1-1.6-1.24,191.17,191.17,0,0,1-3.85-23.86c-.63-5.81-1.44-15.25-1.73-27.18-.78-32.1,3.13-66.34,3.17-66.68a1.64,1.64,0,0,1,.64-1.13,1.68,1.68,0,0,1,1.26-.32l97.09,15.71a1.64,1.64,0,0,1,1.15.78c7.64,12.74,27,43,41.45,49.34.31.13.62.24.93.35l.17.06a79.85,79.85,0,0,0,10,2.48c13.38,2.75,31.7,6.52,33.66,28.12,0,.18,0,.67,0,1.08,0,.18,0,.34,0,.42.68,8.45-.41,13.75-3.53,17.14C742.4,845.8,735.1,846.67,723.88,846.67Zm-155-3.66H696.61c6.1,0,11.62.11,16.49.2,3.88.08,7.55.15,10.78.15,10.3,0,16.91-.69,20.17-4.22,2.44-2.65,3.26-7.18,2.66-14.67,0-.14,0-.33,0-.55s0-.68,0-.85c-1.74-19.19-17.31-22.39-31-25.21a85.08,85.08,0,0,1-10.49-2.6l-.18-.07c-.36-.13-.73-.26-1.11-.43-14.61-6.35-32.79-33.76-42.59-50l-94.61-15.31c-.77,7.32-3.63,36.73-3,64.51.29,11.81,1.09,21.15,1.71,26.9A209.43,209.43,0,0,0,568.86,843Z"></path>
  <path fill="#ce5044" d="M654.12,845.07s4-60.24,34.53-68.27c0,0,67.47,1.34,66.66,68Z"></path>
  <path fill="#313131" d="M654.12,846.72a1.64,1.64,0,0,1-1.65-1.76c.16-2.51,4.45-61.52,35.76-69.76a1.38,1.38,0,0,1,.45-.05A86.07,86.07,0,0,1,723,784.33c15.71,8.13,34.35,25.21,33.93,60.49a1.66,1.66,0,0,1-1.65,1.63l-101.2.27Zm34.72-68.26c-26,7.1-32,55.09-32.92,64.95l97.75-.26c-.13-26.07-10.9-44.85-32-55.83A84.68,84.68,0,0,0,688.84,778.46Z"></path>
  <path fill="#333" d="M667.38 847.14H550.08a1.65 1.65 0 0 1 0-3.3h117.3a1.65 1.65 0 0 1 0 3.3ZM591 779a24.75 24.75 0 0 1-16.71-6.6 1.65 1.65 0 1 1 2.18-2.48c15.22 13.36 31.68-.24 32.38-.83a1.65 1.65 0 0 1 2.13 2.53C610.88 771.75 602.08 779 591 779Z"></path>
  <path fill="#f0c7c0" d="M625.93,844.66H496.87A191.51,191.51,0,0,1,493.06,821c-.78-7.27-1.46-16.51-1.72-27-.79-32.36,3.16-66.46,3.16-66.46l97.08,15.71c11.5,19.15,28.94,44.23,42.21,50,.41.18.81.32,1.2.46,13.42,4.73,40.26,3.14,42.63,29.19,0,.29,0,1.18.06,1.45C679.7,849.37,666.22,844.66,625.93,844.66Z"></path>
  <path fill="#313131" d="M653.2,846.67c-3.26,0-6.94-.08-10.84-.15-4.86-.1-10.36-.21-16.43-.21H496.87a1.64,1.64,0,0,1-1.6-1.24,191.17,191.17,0,0,1-3.85-23.86c-.63-5.82-1.44-15.25-1.73-27.18-.78-32.1,3.13-66.34,3.17-66.68a1.64,1.64,0,0,1,.64-1.13,1.68,1.68,0,0,1,1.26-.32l97.09,15.71a1.64,1.64,0,0,1,1.15.78c7.64,12.74,27,43,41.45,49.34.31.13.62.24.93.35l.18.06a80.1,80.1,0,0,0,10,2.48c13.38,2.75,31.7,6.52,33.66,28.12,0,.18,0,.66,0,1.07,0,.18,0,.34,0,.43.68,8.45-.41,13.75-3.53,17.14C671.72,845.8,664.42,846.67,653.2,846.67Zm-155-3.66H625.93c6.1,0,11.62.11,16.49.2,3.88.08,7.55.15,10.78.15,10.3,0,16.91-.69,20.17-4.22,2.45-2.66,3.27-7.18,2.66-14.67,0-.14,0-.34,0-.56s0-.68,0-.84c-1.74-19.19-17.3-22.39-31-25.21a85.53,85.53,0,0,1-10.49-2.6l-.17-.07c-.37-.13-.74-.26-1.12-.43-14.61-6.35-32.79-33.76-42.59-50L496,729.44c-.78,7.32-3.64,36.73-3,64.51.28,11.81,1.08,21.15,1.71,26.9A207.22,207.22,0,0,0,498.18,843Z"></path>
  <path fill="#ce5044" d="M583.44,845.07s4-60.24,34.53-68.27c0,0,67.47,1.34,66.67,68Z"></path>
  <path fill="#313131" d="M583.44,846.72a1.64,1.64,0,0,1-1.65-1.76c.17-2.51,4.45-61.52,35.76-69.76a1.41,1.41,0,0,1,.46-.05,86.08,86.08,0,0,1,34.35,9.18c15.71,8.13,34.35,25.21,33.93,60.49a1.65,1.65,0,0,1-1.65,1.63l-101.2.27Zm34.72-68.26c-26,7.11-32,55.09-32.92,64.95l97.75-.26c-.12-26.12-10.93-44.91-32.14-55.88A84.55,84.55,0,0,0,618.16,778.46Z"></path>
  <path fill="#333" d="M597.17,847.14H479.88a1.65,1.65,0,1,1,0-3.3H597.17a1.65,1.65,0,1,1,0,3.3Z"></path>
  <path fill="#eeb857" d="M309.63,537.82c46.61,7.11,162.83-2.49,212.65-7.17L544.4,748l128.16-7.17-34.95-260.2a80.13,80.13,0,0,0-78.77-64.21l-55.32.15c-74.76,7.33-128.08-1.15-151.89-4.39-.7-1.74-22.66,3.52-23.29,1.86-2.85-7.52-6.39-16.88-12.07-26.74l-100.6,32.75c.82,1.42,1.73,33.65,3,36.93,8.3,21.94,22.84,67.18,86.22,80C306.35,537.28,308,537.56,309.63,537.82Z"></path>
  <path fill="#313131" d="M544.4,749.69a1.65,1.65,0,0,1-1.64-1.49l-22-215.75c-39,3.64-110.73,9.56-164.22,9.56h0c-20.19,0-36.07-.86-47.2-2.56-1.72-.26-3.35-.55-4.85-.85-61.81-12.48-77.83-55.33-86.44-78.35l-1-2.66c-.72-1.88-1.21-9.91-1.88-21.94-.34-6.12-.77-13.71-1.07-14.92a1.66,1.66,0,0,1,0-1.24,1.63,1.63,0,0,1,1-1l100.6-32.75a1.65,1.65,0,0,1,1.94.75,171.94,171.94,0,0,1,11.9,26.23h.14a86.83,86.83,0,0,0,9.75-1.23,88.91,88.91,0,0,1,10.61-1.31,4.49,4.49,0,0,1,2.23.44l4,.55a607.93,607.93,0,0,0,88.45,6.66c19.3,0,39-1,58.59-2.89h.16l55.55-.16a82.06,82.06,0,0,1,80.16,65.54s0,.07,0,.11l34.94,260.2a1.64,1.64,0,0,1-.36,1.27,1.68,1.68,0,0,1-1.18.6l-128.16,7.17ZM522.28,529a1.67,1.67,0,0,1,1.65,1.49l22,215.81,124.8-7L636,480.93a78.74,78.74,0,0,0-76.91-62.83h-.23l-55.23.16c-19.66,1.92-39.46,2.89-58.84,2.89a611.73,611.73,0,0,1-88.91-6.68l-4.46-.62a1.65,1.65,0,0,1-.77-.32l-.53,0a88.29,88.29,0,0,0-10.1,1.27,87,87,0,0,1-10.26,1.27c-.73,0-2.42,0-2.95-1.4a178.32,178.32,0,0,0-11.29-25.33L217.56,421.2c.24,2,.49,5.94,1,14.27.43,7.73,1.08,19.4,1.67,20.95.32.86.65,1.75,1,2.67,8.38,22.42,24,64.16,84,76.27,1.45.29,3,.57,4.7.82,11,1.68,26.67,2.53,46.7,2.53,54.11,0,127-6.08,165.55-9.7Z"></path>
  <path fill="#ffa7a6" d="M426.34,311.27c-10.36-17.33-21.42-45.47-27.59-72.42l-74.8,17c5.82,25.71,28.79,111.74,79.67,139a54.83,54.83,0,0,0,9.25,3.92c1.09.34,2.2.61,3.3.88,5.6-30.09,27.61-25.67,25.72-55.64C441.67,344.52,426.56,310.78,426.34,311.27Z"></path>
  <path fill="#333" d="M417.48,401.7l-2.18-.54c-1-.24-1.95-.49-2.93-.8a56.07,56.07,0,0,1-9.53-4c-51.5-27.61-74.64-114.23-80.51-140.11L322,254.6l78-17.73.37,1.61c5.87,25.62,16.56,53.73,27.27,71.72a46.33,46.33,0,0,1,2.75,5.45c1.43,3.06,3.31,7.14,5.2,11.23,2.14,4.64,4.64,10.06,6.18,13.32l1.35-3.06.42,6.78c1.06,16.76-5.17,23.37-11.76,30.37-5.63,6-11.46,12.17-14,25.68ZM325.93,257.08c6.34,27.35,29.22,109.92,78.47,136.33a52.59,52.59,0,0,0,9,3.8c.5.16,1,.3,1.52.44,2.87-13.3,9-19.83,14.48-25.62,6.29-6.68,11.73-12.46,10.89-27.45-.49-.85-1.2-2.35-2.44-5-1.45-3.09-3.35-7.21-5.24-11.33-2.74-5.94-6.07-13.17-7.2-15.39l-.45-.76c-10.7-17.87-21.38-45.69-27.41-71.29Z"></path>
  <path fill="#eeb857" d="M272.38,548.82c43,6.56,150.42-4.39,196.5-9.63l17.89,216.73,118.46-8.66L576,487.94c-6.58-37.29-36.72-63.74-72-63.18l-51.1.8c-69.14,8.18-118.29.34-140.25-2.61-.62-1.73-21,3.77-21.53,2.12a177,177,0,0,0-10.84-26.55L187,432.38c.74,1.41,1.21,33.57,2.32,36.83C196.69,491,209.59,536,268,548,269.36,548.32,270.83,548.58,272.38,548.82Z"></path>
  <path fill="#313131" d="M486.77,757.57a1.64,1.64,0,0,1-1.64-1.51L467.37,541C428.7,545.4,358.29,552.5,308.63,552.5h0c-15.29,0-27.56-.69-36.49-2-1.59-.24-3.1-.51-4.49-.8-57-11.75-71.35-54.37-79-77.26-.3-.92-.6-1.8-.89-2.65-.63-1.86-1-9.86-1.47-21.86-.26-6.43-.55-13.72-.82-14.9a1.65,1.65,0,0,1,1-2.15L279.7,397a1.66,1.66,0,0,1,2,.78,174.83,174.83,0,0,1,10.66,26,79.29,79.29,0,0,0,9-1.34,72.93,72.93,0,0,1,10-1.44,3.93,3.93,0,0,1,2,.43l3.6.49a522.76,522.76,0,0,0,75.32,5.65,516.75,516.75,0,0,0,60.41-3.6h.17L504,423.1a71,71,0,0,1,48.29,18.17,80.89,80.89,0,0,1,25.37,46.38.36.36,0,0,1,0,.1l29.25,259.33a1.65,1.65,0,0,1-1.53,1.83L486.9,757.57Zm-17.89-220a1.69,1.69,0,0,1,1.05.38,1.67,1.67,0,0,1,.6,1.14l17.76,215.1,115.11-8.41-29-257.57c-6.34-35.79-35.47-61.77-69.28-61.77H504l-51,.8a519.58,519.58,0,0,1-60.71,3.62,525.69,525.69,0,0,1-75.77-5.69l-4.1-.56a1.63,1.63,0,0,1-.77-.31h-.3a74.2,74.2,0,0,0-9.39,1.38,71.09,71.09,0,0,1-9.66,1.39c-.56,0-2.27,0-2.75-1.43a181.57,181.57,0,0,0-10.08-25l-90.65,32.9c.21,1.95.39,5.88.73,14.28.33,8.18.77,19.38,1.3,20.93.29.85.59,1.74.89,2.65,7.48,22.27,21.4,63.72,76.58,75.09,1.33.27,2.78.53,4.32.76,8.76,1.34,20.87,2,36,2h0c50.23,0,121.85-7.3,160.06-11.66Z"></path>
  <path fill="#ffac93" d="M223.61,250.51c-.38.48-.73,1-1.08,1.43-18.25,23.86-34.87,51.06-45,72.32-10.89-2.52-28.6-4.71-48.07-14.14-13.43-6.49-19.25-12.85-21.73-17.52q7-15.18,17.15-32.37a597.83,597.83,0,0,1,38-56.63l60.26,46.57Z"></path>
  <path fill="#333" d="M383.14,305.38h.08a.39.39,0,0,0,.32-.44c-2.34-14.87-1.42-35.49-1.41-35.69a.37.37,0,0,0-.36-.4.38.38,0,0,0-.41.36c0,.21-.93,20.9,1.42,35.85A.38.38,0,0,0,383.14,305.38Z"></path>
  <path fill="#333" d="M381.51,282.65a.41.41,0,0,0,.36-.21l6.31-12a.38.38,0,0,0-.16-.52.39.39,0,0,0-.52.16l-6.31,12a.37.37,0,0,0,.16.51A.43.43,0,0,0,381.51,282.65Z"></path>
  <path fill="#fff" d="M426.06,287.79s-33.91-88.36-72.2-101.65v.09c-13.22-6.25-34.36-11.75-46.12-14.54-16.65,13.15-42.3,7.36-60.12-4.44-35.24,7.07-58.7,15.3-72,23.62l-.68,0c-22.94,14.28-68.9,94.33-68.9,94.33s-.69,2.9,1.7,7.37c2.48,4.67,8.3,11,21.73,17.52,18.95,9.18,36.23,11.5,47.17,13.94-3.55,45.81-.71,128,9.2,160.39,0,0,29.26,3.5,52.66-9.67,55.34-31.17,124.12-50,124.12-50L389,418.36s-13.79-66.3-18.81-111.23Z"></path>
  <path fill="#313131" d="M195,485.69h-9.31a1.46,1.46,0,0,1-1.38-.95c-9.67-31.64-12.94-111.09-9.38-159.46-1.52-.33-3.16-.61-4.87-.95-10.74-2.15-25.44-5.07-41.26-12.74-11.42-5.52-19-11.64-22.47-18.22-2.61-4.87-1.93-8.16-1.84-8.52a1.33,1.33,0,0,1,.17-.43c1.89-3.29,46.43-80.58,69.46-94.92a1.62,1.62,0,0,1,.8-.24h.24c14.32-8.85,39.25-17,72.14-23.61a1.64,1.64,0,0,1,1.24.24c11.22,7.43,24.28,11.69,35.83,11.68,8.82,0,16.34-2.41,22.35-7.16a1.66,1.66,0,0,1,1.41-.31c11.44,2.72,32.48,8.17,45.92,14.41a1.54,1.54,0,0,1,.37.09c38.58,13.39,71.8,99,73.2,102.61a1.69,1.69,0,0,1,0,1.29,1.68,1.68,0,0,1-1,.87L372,308.26C377,352.58,390.46,417.37,390.6,418a1.65,1.65,0,0,1-1.23,1.94L363,426.41c-.64.18-69.18,18.69-123.7,49.39C224.21,484.32,206.86,485.69,195,485.69Zm-7.85-3c1.43.12,4.2,0,7.84,0h0c9.41,0,27.47-1,42.74-9.62,54.88-30.9,123.81-49.8,124.5-50l24.82-6c-2.1-10.3-14-69.11-18.51-109.79a1.64,1.64,0,0,1,1.1-1.73l54.26-18.77c-4.78-11.88-35.91-86.4-70.05-98.9a1.59,1.59,0,0,1-.7-.16c-12.85-6.07-33.41-11.46-45-14.24-6.5,4.89-14.49,7.38-23.76,7.38-12,0-25.47-4.32-37.08-11.86-32.47,6.56-56.92,14.6-70.74,23.27a1.71,1.71,0,0,1-.81.25h-.24c-21.81,14.1-64.95,88.29-67.83,93.27a10.77,10.77,0,0,0,1.57,6c2.17,4.09,7.58,10.32,21,16.82,15.44,7.48,29.91,10.38,40.47,12.49,2.27.46,4.41.89,6.34,1.32a1.52,1.52,0,0,1,1.29,1.61C174.72,370.48,177.87,450.8,187.13,482.65Z"></path>
  <path fill="#f0c7c0" d="M333.57,111.08s7.8-2.12,11.71,4-1.13,15.28-10.09,16.16S333.57,111.08,333.57,111.08Z"></path>
  <path fill="#313131" d="M334.65,132.91a4.92,4.92,0,0,1-4.17-2.07c-3.62-5.1,1-18.76,1.53-20.3a1.64,1.64,0,0,1,1.12-1.05,14.83,14.83,0,0,1,3.57-.41,11.29,11.29,0,0,1,10,5.1,11,11,0,0,1,.36,10.76,14.56,14.56,0,0,1-11.68,7.94Zm.17-20.39c-1.73,5.31-3.53,13.75-1.64,16.4a1.58,1.58,0,0,0,1.47.69l.37,0a11.21,11.21,0,0,0,9-6.09,7.59,7.59,0,0,0-.16-7.54c-1.52-2.38-3.94-3.58-7.19-3.58A13.06,13.06,0,0,0,334.82,112.52Z"></path>
  <path fill="#f0c7c0" d="M283.34,49.82c17.24-6.59,37.85-4.31,51.38,18.26,6.68,11.13,3.84,29.49,1.14,44.13s2.3,32-10.55,40.8c-4.67,3.19-11.37,5.25-18.7,5.74l.29,11.2s24.43,37.6-4.13,35.51-55.65-38-55.65-38,7-.65,8-15.81-2.36-32.63-2.58-39.88a.71.71,0,0,1,.11-.38c-3.06-11.81-3.29-24.32,1.45-35.53C258.57,65.43,269.93,55,283.34,49.82Z"></path>
  <path fill="#313131" d="M305,207.2c-.74,0-1.52,0-2.32-.09-29-2.13-55.72-37.13-56.84-38.62a1.64,1.64,0,0,1,1.16-2.64s5.6-1,6.55-14.28c.72-10.13-.63-21.52-1.62-29.83-.48-4-.89-7.49-1-9.89a1.91,1.91,0,0,1,0-.49c-3.33-13.2-2.76-25.68,1.65-36.11,4.74-11.2,16.56-21.79,30.12-27A48.28,48.28,0,0,1,300,44.94c10.38,0,25.07,3.86,36.12,22.29,6.84,11.41,4.28,29.35,1.35,45.27a86.61,86.61,0,0,0-1,13.38c-.27,10.75-.54,21.88-10.23,28.5-4.59,3.14-10.92,5.21-17.94,5.89l.24,9.17c2,3.12,13.65,22.43,8.35,32.19C314.88,205.33,310.87,207.2,305,207.2Zm-55.19-39c5.76,7,29.14,33.88,53.11,35.64,5.75.42,9.51-.85,11.09-3.76,3.93-7.23-4.78-23.54-8.47-29.21a1.66,1.66,0,0,1-.26-.86L305,158.8a1.64,1.64,0,0,1,1.54-1.69c7.07-.48,13.42-2.41,17.87-5.46,8.3-5.67,8.54-15.47,8.8-25.86a89.36,89.36,0,0,1,1.07-13.88c2.82-15.33,5.31-32.56-.94-43C325.19,55.39,313.68,48.24,300,48.24a45.08,45.08,0,0,0-16.09,3.12C271.37,56.17,260,66.28,255.67,76.54c-4.18,9.88-4.65,21.8-1.38,34.46a1.61,1.61,0,0,1,0,1c.09,2.27.48,5.58.93,9.38,1,8.44,2.38,20,1.63,30.45C256.05,162.52,252.35,166.62,249.78,168.18Z"></path>
  <path fill="#333" d="M249.81,107.58c4.38,1.23,4.8,5.69,8.69,6.89,15.74,4.86,7.91-18.14,7.42-25.06-.17-2.37-.25-5.86,2.18-7.27,5.49-3.19,9.8,12.26,17.59,12.11,13.5-.27,5.11-12.42,13.05-13.66,4.62-.72,7.16,12,13.78,13.41,8.11,1.78,6.34-10.35,13.69-9.47,5.12.61,5.11,6,7.49,9.43,4.56,6.56,12.93,5.35,19.39,2.56a17.1,17.1,0,0,0,4.29-2.27c4.47-3.69,6-13.24,2.89-18-2.44-3.74-7.57-4.51-8.6-9.58-1.3-6.35,4.68-9.53,5.54-15.35.41-2.76-1.11-6.34-2.3-8.68-1.38-2.72-5-4.54-7.58-5.8-7.55-3.7-16.68,5.58-22.3,3-2.45-1.14-3.58-5.79-4.73-8a16.88,16.88,0,0,0-10.91-8.93c-3.12-1-6.13.23-9,1.23-7.69,2.63-8.28,15.4-16.51,15.64-4.24.12-4.57-6.87-8.51-7.75-10.82-2.41-27-3.06-29,11.78-.54,4,.4,8.57,1.69,12.35.35,1,2.06,3.45,1.83,4.57-1.65,8-12.54,4.59-15.79,9.93C229.26,78.45,240.4,104.91,249.81,107.58Z"></path>
  <path fill="#f0c7c0" d="M263.93,114s-10.84-18.93-21.13-10-1.91,34.72,16.67,27.14"></path>
  <path fill="#313131" d="M252.94,134.12c-5.31,0-9.95-2.68-13.08-7.77-4.25-6.93-4.74-17.94,1.86-23.65a10.18,10.18,0,0,1,8.64-2.63c8.23,1.4,14.73,12.62,15,13.09a1.66,1.66,0,0,1-2.87,1.65c-.06-.11-6-10.35-12.7-11.48a6.93,6.93,0,0,0-5.92,1.87c-5.13,4.43-4.76,13.62-1.2,19.42,1.7,2.78,6.68,8.81,16.17,4.94a1.65,1.65,0,0,1,1.25,3.06A19.09,19.09,0,0,1,252.94,134.12Z"></path>
  <path fill="#333" d="M258.57,123.23a1.65,1.65,0,0,1-1.61-1.3c-.88-4-2.39-6.42-4.48-7.27-2.88-1.16-6.21,1-6.25,1a1.65,1.65,0,0,1-1.84-2.74c.19-.13,4.79-3.18,9.3-1.38,3.18,1.26,5.36,4.5,6.5,9.63a1.66,1.66,0,0,1-1.26,2A1.47,1.47,0,0,1,258.57,123.23Z"></path>
  <path fill="#333" d="M251.45,120.52a1.69,1.69,0,0,1-.38,0,1.65,1.65,0,0,1-1.23-2,8.66,8.66,0,0,1,4.81-5.41,1.65,1.65,0,0,1,1.41,3,5.34,5.34,0,0,0-3,3.17A1.66,1.66,0,0,1,251.45,120.52Z"></path>
  <path fill="#fff" d="M326.09,58.35a9.3,9.3,0,0,0,.25-5.85c-.78-3.1-2.89-4.87-5.74-6.09a17.23,17.23,0,0,1-6.52-4.86c-1.25-1.39-3-2.67-4.83-2.38-2.13.33-3.41,2.64-3.66,4.78a40.39,40.39,0,0,1-.35,4.12c-1.44,6.45-9.22,7-14.53,6.4a10.41,10.41,0,0,0-3.2-.08,4.48,4.48,0,0,0-3,2.6c-1.11,2-1.76,4.53-.84,6.66,3.2,7.45,12.81,1.47,17.22-.78a14,14,0,0,1,9.38-1.62c3.27.63,6.57,2,10,1.44A7.26,7.26,0,0,0,326.09,58.35Z"></path>
  <path fill="#333" d="M258.46 35.76a1.65 1.65 0 0 1-1.52-2.3 16.45 16.45 0 0 1 12.74-9.67 30.5 30.5 0 0 1 8.29.4c1.16.17 2.36.34 3.51.43 2.43.21 6.87.15 9.23-2.59a6.57 6.57 0 0 0 .18-7.84 7.27 7.27 0 0 0-7.77-2.43 1.65 1.65 0 0 1-1-3.16 10.67 10.67 0 0 1 11.39 3.62 9.76 9.76 0 0 1-.33 12c-3.15 3.65-8.27 4-12 3.73-1.25-.11-2.49-.28-3.69-.46a27.88 27.88 0 0 0-7.4-.39A13.07 13.07 0 0 0 260 34.76 1.66 1.66 0 0 1 258.46 35.76ZM306.42 157.14s-18.79.42-31-8.88c0 0 6.95 24.58 31.46 21.69ZM187 327.17a54.88 54.88 0 0 1-19-3.72 1.65 1.65 0 1 1 1.15-3.09c11.21 4.16 19.3 3.58 21.71 3.27l18.36-35.93a1.65 1.65 0 0 1 2.94 1.51l-18.74 36.67a1.61 1.61 0 0 1-1.12.86A26.17 26.17 0 0 1 187 327.17ZM517.4 754.77a1.65 1.65 0 0 1-1.64-1.52c-.1-1.24-9.72-123.78-14.48-148.12-2.5-12.78 1.29-22 4.34-29.44s5.4-13.14 1.24-20c-2.27-3.73-4.09-6.26-5.43-8.11-4.46-6.19-4.5-6.88-1.2-18.46 4.11-14.35 3.94-20.87-14.55-27.54-10.83-3.91-36.12.11-68.14 5.19-24.51 3.9-52.29 8.31-83.22 11-32.76 2.87-59.35-.3-79-9.42-18.86-8.73-26.29-20.69-29-27a1.66 1.66 0 0 1 3-1.32c4.27 9.87 24.45 41.51 104.73 34.48 30.82-2.7 58.53-7.11 83-11 33.76-5.37 58.15-9.24 69.78-5C506.68 505.66 508 514 503.41 530c-3 10.49-3 10.49.7 15.62 1.37 1.89 3.24 4.48 5.57 8.32 5 8.28 2.1 15.42-1 23-3 7.38-6.46 15.74-4.15 27.55C509.32 629 518.66 747.94 519.05 753a1.66 1.66 0 0 1-1.52 1.78Z"></path>
  <path fill="#333" d="M277.75 514.58a1.72 1.72 0 0 1-.81-.21 1.66 1.66 0 0 1-.63-2.25c.19-.33 18.51-33.58-.29-53.4a1.65 1.65 0 0 1 2.39-2.27c20.49 21.59 1.6 55.84.78 57.29A1.64 1.64 0 0 1 277.75 514.58ZM370.84 311.06a1.64 1.64 0 0 1-1.62-1.37c-4.8-28.4-5.26-44.81-5.26-45a1.64 1.64 0 0 1 1.61-1.69 1.67 1.67 0 0 1 1.69 1.61c0 .16.46 16.36 5.22 44.5a1.65 1.65 0 0 1-1.36 1.9A1.27 1.27 0 0 1 370.84 311.06Z"></path>
  <path fill="#c0bfcc" d="M540.43,403.06c3.9,5.34,12.35,19.75,2.45,32.29a3.22,3.22,0,0,1-2.4,1.34H384.54a2.9,2.9,0,0,0-3,3.57c1.68,6.91,7.14,21.09,23.9,22.58,18.18,1.63,48.59-10.4,59.66,2.18,2.46,2.78,4,6.74,4.18,12.35,1.19,30.93-66.23,42.18-97.94,10.86-18.68-18.44-24.71-55.59-24-88,.37-17.15,2.63-33,5.9-43.95a54.53,54.53,0,0,1,3.43-9c2.45-4.81,6.65-9.66,12-14.18a96.19,96.19,0,0,1,19.54-12.45l1.94-.92a94.39,94.39,0,0,1,19.22-6.89,2.43,2.43,0,0,1,.56-.18h0a110.14,110.14,0,0,1,14.15-2.28,70,70,0,0,1,9.81-.06l.4,0a51.63,51.63,0,0,1,6.3.84c.82.15,1.63.32,2.42.52.6.14,1.18.3,1.76.48a38.17,38.17,0,0,1,6.69,2.55,3.71,3.71,0,0,1,.4.19,3,3,0,0,0,4.23-1.7c1.17-3.3,3.08-7.82,4.83-8.07,2.27-.32,12.84,12.17,16.55,16.66a3,3,0,0,0,3.18,1c4.63-1.36,16.94-4.43,28.4-2.51a3,3,0,0,0,2.77-1l9.65-11.22a3,3,0,0,1,5.09.79l7.1,20.37a23.9,23.9,0,0,0,3.15,2.95c5.12,4,40.33,34,4,66.83A3,3,0,0,0,540.43,403.06Z"></path>
  <path fill="#313131" d="M421.72,508.69c-20.42,0-39.19-7.05-51.49-19.2-23.35-23.06-24.92-70.1-24.5-89.23.35-16.66,2.53-32.87,6-44.41a56.83,56.83,0,0,1,3.55-9.27c2.5-4.92,6.69-9.87,12.45-14.71a98.27,98.27,0,0,1,19.88-12.67c.65-.32,1.32-.64,2-.94a94.45,94.45,0,0,1,19.47-7,2.51,2.51,0,0,1,.82-.21c1.26-.22,2.52-.46,3.78-.7a93.6,93.6,0,0,1,10.42-1.6,70.36,70.36,0,0,1,10-.07l.4,0a54.86,54.86,0,0,1,6.51.86c.92.17,1.75.35,2.51.54s1.29.33,1.83.5a42.11,42.11,0,0,1,6.9,2.62l.39.19a1.41,1.41,0,0,0,.69.19,1.4,1.4,0,0,0,1.3-.93c2.74-7.73,4.73-9,6.15-9.16l.33,0c1,0,3.46,0,17.73,17.26a1.4,1.4,0,0,0,1.45.45,78.73,78.73,0,0,1,21-3.2,49.78,49.78,0,0,1,8.12.64,1.31,1.31,0,0,0,1.24-.45L520.31,307a4.68,4.68,0,0,1,7.86,1.23.3.3,0,0,1,0,.1l7,20.15a34,34,0,0,0,2.67,2.4c3.39,2.67,20.22,16.91,20.86,36,.39,11.69-5.27,22.9-16.81,33.33a1.36,1.36,0,0,0-.2,1.83c3.32,4.55,13.31,20.66,2.42,34.47a5.07,5.07,0,0,1-3.7,2.14H384.54c-.47,0-.88,0-1.13.31a.92.92,0,0,0-.21.93c1.79,7.39,7.08,19.93,22.43,21.3,1.11.1,2.31.12,3.59.12,5.53,0,11.81-.9,18.46-1.84s13.72-1.95,20-1.95c9,0,14.92,2,18.74,6.36,2.87,3.25,4.37,7.63,4.6,13.39a23,23,0,0,1-6.79,16.94c-8.65,9-24.53,14.44-42.47,14.44ZM410.23,314.36a3.09,3.09,0,0,1-.37.12,92.2,92.2,0,0,0-18.92,6.77c-.66.3-1.29.61-1.92.92a94.69,94.69,0,0,0-19.2,12.22c-5.35,4.49-9.37,9.22-11.64,13.67a53.48,53.48,0,0,0-3.32,8.71c-3.35,11.27-5.48,27.13-5.83,43.52-.84,38.95,8,71.13,23.52,86.5,11.68,11.54,29.61,17.9,49.17,17.9h0c16.81,0,32.17-4.85,40.08-13.08,4.1-4.26,6.08-9,5.87-14.31-.19-5-1.42-8.6-3.77-11.26-3.15-3.58-8.32-5.22-16.26-5.22-6,0-12.88,1-19.51,1.93-6.47.91-13.16,1.87-18.92,1.87-1.38,0-2.68-.05-3.88-.16-18-1.6-23.74-17.22-25.35-23.85a4.74,4.74,0,0,1,.82-4,4.81,4.81,0,0,1,3.73-1.92H540.48a1.38,1.38,0,0,0,1.1-.53c9.2-11.66,1.32-25-2.49-30.19a4.64,4.64,0,0,1,.65-6.21c10.79-9.74,16.08-20.08,15.73-30.75-.59-17.67-16.42-31-19.59-33.53,0,0-3.21-2.53-3.66-3.63l0-.07-7.08-20.31a1.36,1.36,0,0,0-1.26-.8,1.34,1.34,0,0,0-1,.48l-9.66,11.23a4.67,4.67,0,0,1-4.3,1.56,46.28,46.28,0,0,0-7.56-.59,75.4,75.4,0,0,0-20.09,3.06,4.71,4.71,0,0,1-4.92-1.51c-8.23-10-13.48-15.14-15.11-16-.42.37-1.64,1.8-3.45,6.89a4.68,4.68,0,0,1-6.52,2.63l-.08,0-.2-.1-.1-.05a38,38,0,0,0-6.42-2.44c-.58-.18-1.13-.33-1.7-.46s-1.47-.35-2.33-.51a53.31,53.31,0,0,0-6.12-.81l-.38,0a68.34,68.34,0,0,0-9.59.07,95.52,95.52,0,0,0-10.05,1.55c-1.31.25-2.63.5-3.93.73Z"></path>
  <path fill="#313131" d="M434.12,438.41H434a1.66,1.66,0,0,1-1.57-1.73,18.52,18.52,0,0,0-5.69-12.9c-6.07-5.83-16.25-8.2-30.24-7a1.65,1.65,0,0,1-.27-3.29c15-1.24,26.08,1.45,32.85,8a21.52,21.52,0,0,1,6.65,15.39A1.66,1.66,0,0,1,434.12,438.41Z"></path>
  <path fill="#fff" d="M465.09 314.26c-.81-.93-1.87-1.93-3.07-1.68-1.36.29-1.86 1.95-2.06 3.33a70.08 70.08 0 0 0-.66 12.95 1.29 1.29 0 0 0 .11.55 1.08 1.08 0 0 0 .42.4c1.09.62 2.45.17 3.62-.29l9.33-3.7c.29-.11.63-.28.66-.59a.83.83 0 0 0-.22-.55A125.58 125.58 0 0 0 465.09 314.26ZM528 325.22a13.9 13.9 0 0 0-1.41-3.7c-.92-2.24-.91-4.74-1.41-7.11-.21-1-.74-2.16-1.75-2.2a2.19 2.19 0 0 0-1.64 1c-1.77 2.14-2.43 5-3.9 7.33a5.3 5.3 0 0 0-.66 1.27 1.33 1.33 0 0 0 .32 1.33 2 2 0 0 0 .78.32l7.36 1.81 1.74.43a.52.52 0 0 0 .46 0A.51.51 0 0 0 528 325.22Z"></path>
  <path fill="#313131" d="M503.44 336.56c.2 1.05 1.09 1.81 1.6 2.75a4.29 4.29 0 0 1-1 5.23 6 6 0 0 0-1.51 1.28c-1 1.61.95 3.67.5 5.51a2.68 2.68 0 0 1-3.25 1.74 4.14 4.14 0 0 1-2.71-2.86 9.35 9.35 0 0 1-.1-4.08 4.09 4.09 0 0 0-.18-2.75c-.52-.84-1.58-1.15-2.33-1.79-1.35-1.16-1.45-3.21-1.17-5s.86-3.54.47-5.28c-.59-2.69-3.38-5-2.62-7.63.59-2 3-2.9 5-3.45a10.81 10.81 0 0 1 5.33-.48c1.75.43 3.34 2.11 3 3.88-.25 1.34-1.49 2.56-1 3.84.3.87 1.28 1.32 1.72 2.13C506.34 331.81 503 334.13 503.44 336.56ZM451.55 314.77a8.66 8.66 0 0 1-2.55 5.59c-2.06 2-5.39 3.12-7 5.34-2.29 3.22 0 7.23-.82 10.85-.83 3.78-5 6.88-5.25 10.72-.21 3.25 2.45 6.42 1.63 9.62-.55 2.13-2.57 3.88-3.39 6-1.65 4.16 1.76 8.44 2.22 12.77.5 4.67-2.45 9.62 0 13.92.68 1.19 1.75 2.24 2.33 3.47 1.56 3.29-.68 7 .12 10.42.58 2.54 2.79 4.83 2.69 7.4-2.72 1.15-5.94-.59-8-2.36a42 42 0 0 1-8.87-10.23c-1.28-2.12-2.35-4.42-2-6.73a19.87 19.87 0 0 1 1.84-4.58 25.48 25.48 0 0 0 1.78-9.09c.46-9.1-1.11-19.19-9.84-25.4-1.37-1-2.92-1.87-3.67-3.18-1-1.77-.2-3.9 1.37-5.42a21.08 21.08 0 0 1 5.94-3.56q-1-3.82-1.93-7.63a4.64 4.64 0 0 1-.15-2.63c.48-1.46 2.28-2.41 3.47-3.61 4.27-4.32.28-11.17 2.65-16C434.09 309.68 443.62 310.88 451.55 314.77ZM363.56 387.14a2 2 0 0 1 .6-2.63 7.28 7.28 0 0 1 2.79-1c2.55-.64 5.15-2.14 5.93-4.64.64-2-.06-4.27.44-6.34.56-2.32 2.51-4 4.5-5.35s4.19-2.44 5.71-4.28c2.13-2.56 2.75-6.24 5.26-8.41 1.52-1.32 3.53-1.89 5.32-2.78s3.57-2.37 3.77-4.37a2.22 2.22 0 0 1 .32-1.33 1.77 1.77 0 0 1 1.55-.35l3.74.37c-1.33 2-.43 4.62-.36 7a9.75 9.75 0 0 1-4.87 8.57c-2.37 1.33-5.26 1.62-7.46 3.21-2.58 1.86-3.71 5.13-4.2 8.27-.34 2.17-.52 4.55-2 6.18-2.45 2.69-7.11 1.93-9.86 4.31-1.15 1-1.85 2.46-3.07 3.37C369.43 388.62 366.27 387.92 363.56 387.14Z"></path>
  <path fill="#313131" d="M413.58 362.51c-.59 1.18-.48 2.58-.86 3.84-.93 3.06-4.37 4.51-7.46 5.34s-6.55 1.65-8.3 4.32c-1 1.55-1.25 3.44-1.76 5.21s-1.47 3.62-3.21 4.24c-1.21.43-2.95.46-3.22 1.73 3.91.5 8.56.75 11.08-2.29a14.93 14.93 0 0 1 1.86-2.31c2.77-2.22 7.14 1 10.35-.56 2.29-1.09 3-4.07 4.87-5.74s4.72-1.75 7.27-1.73a18 18 0 0 0-1.22-13.3 2.36 2.36 0 0 0-.73-.95 2.68 2.68 0 0 0-1.32-.31C418.18 359.86 414.81 360.05 413.58 362.51ZM417.23 406.76c.37-2.16 2-3.82 3.32-5.58s2.29-4.18 1.2-6.08c-1.24-2.14-4.35-2.24-6.68-1.42s-4.51 2.28-7 2.38c-2.81.1-5.6-1.6-8.32-.87-2.41.64-4 3-6.36 3.88-3.17 1.13-7-.81-10 .72a13 13 0 0 0-2.8 2.34 18.58 18.58 0 0 1-10.48 5c3.67.37 7.51.71 10.92-.69 2.68-1.11 5.12-3.28 8-3.09 2.69.17 4.82 2.38 7.44 3 4.78 1.21 9.79-3 14.51-1.57C413.16 405.41 415.07 407.14 417.23 406.76ZM564.51 385.34h-.14l-34.86-3a1.66 1.66 0 0 1-.32-3.24l41.23-11.86a1.66 1.66 0 0 1 .92 3.18l-32.64 9.39L564.65 382a1.65 1.65 0 0 1-.14 3.3ZM436.52 385.34a1.65 1.65 0 0 1-.14-3.3l25.95-2.22-32.63-9.39a1.65 1.65 0 0 1 .91-3.18l41.23 11.86a1.66 1.66 0 0 1-.32 3.24l-34.86 3ZM511 333.35a5 5 0 0 1 2.16-1c2.56-.46 5.48.92 5.74 3.72.18 1.94-1 3.16-1.89 4.72a5.79 5.79 0 0 1-2.5 2.54 4.09 4.09 0 0 1-3.9-.12C507.12 341 508 335.63 511 333.35ZM489 333.35a5 5 0 0 0-2.16-1c-2.55-.46-5.48.92-5.74 3.72-.18 1.94 1 3.16 1.89 4.72a5.79 5.79 0 0 0 2.5 2.54 4.11 4.11 0 0 0 3.91-.12C492.83 341 492 335.63 489 333.35Z"></path>
  <path fill="#fff" d="M459.93,400.11c-2.54-5.61,35-35.7,45.2-33.56s36.11,29.69,33.57,32.9-24.21,12-41.46,11.76S459.93,400.11,459.93,400.11Z"></path>
  <path fill="#fff" d="M494.08,370.9A17.43,17.43,0,0,1,499.6,367a11.34,11.34,0,0,1,8,.4,28.72,28.72,0,0,1,7,4.34c2.19,1.72,4.42,3.66,5.34,6.29s0,6.12-2.66,7.05c-2.1.73-4.49-.32-6.6.37-1.63.54-2.84,2-4.52,2.37-2.62.5-4.83-2-7.44-2.53-2.32-.48-4.82.63-7-.19-2.72-1-3.69-4.6-2.8-7.36S492,372.87,494.08,370.9Z"></path>
  <path fill="#313131" d="M506.2,364.53a1.66,1.66,0,0,1,1.16,2.56,4.74,4.74,0,0,1-1.51,2,3.26,3.26,0,0,1-2.41.62,4.72,4.72,0,0,1-1.81-.82,7.77,7.77,0,0,1-1.69-1.44,2,2,0,0,1-.42-2.33,2.32,2.32,0,0,1,1.57-.7A11,11,0,0,1,506.2,364.53Z"></path>
  <path fill="#313131" d="M511.13,381.64a8.48,8.48,0,0,1-5.66-1.93c-4.08-3.46-3.55-10.21-3.52-10.5a1.64,1.64,0,0,1,1.78-1.5,1.66,1.66,0,0,1,1.51,1.78c0,.07-.4,5.36,2.37,7.7,1.44,1.22,3.61,1.46,6.47.73a1.65,1.65,0,1,1,.82,3.2A15.08,15.08,0,0,1,511.13,381.64Z"></path>
  <path fill="#313131" d="M496.88 382.71a18.1 18.1 0 0 1-4.82-.73 1.65 1.65 0 0 1 .87-3.19c3.63 1 6.21.78 7.65-.64 2.34-2.3 1.62-7.63 1.14-9.49a1.65 1.65 0 0 1 3.2-.82c.09.34 2.16 8.54-2 12.66A8.23 8.23 0 0 1 496.88 382.71ZM505.6 390.17a13.81 13.81 0 0 1-6.6-1.84 1.65 1.65 0 0 1 1.57-2.91c5.49 3 8.56.45 8.69.34a1.65 1.65 0 0 1 2.19 2.48A9.15 9.15 0 0 1 505.6 390.17Z"></path>
  <path fill="#fff" d="M493.41 434.23s-.16-13.45-8.51-16.1-16.51 16.19-16.51 16.19ZM499.91 433.88s.54-13.44 9-15.85 16 16.65 16 16.65Z"></path>
  <path fill="#313131" d="M408.83 322.36c-.77 1.52-2.28 2.58-3 4.15-1.07 2.48.25 5.4-.37 8-.41 1.73-1.61 3.14-2.46 4.7s-1.31 3.61-.25 5a33.54 33.54 0 0 0-14.34-.78 27.42 27.42 0 0 1-3.54-7.1c-.6-1.78-1-3.81-.08-5.46 1.12-2.08 4-3 4.6-5.27.46-1.68-.5-3.36-1.14-5a110.51 110.51 0 0 1 21.72-7.9C408.77 315.75 410.32 319.46 408.83 322.36ZM374.1 352.2a32.16 32.16 0 0 0-5.75 6.88A25.1 25.1 0 0 1 365 364a5.66 5.66 0 0 1-5.42 1.74c-1.9-.6-3.06-2.48-4-4.26s-1.62-3.42-2.31-5.19a54.74 54.74 0 0 1 3.43-9c2.45-4.81 6.65-9.66 12-14.18a11.13 11.13 0 0 1 3.25 3.74c1.09 2.55 0 5.43-.47 8.15S371.5 351.24 374.1 352.2ZM371.39 488.21c-18.68-18.43-24.71-55.58-24-88a19.06 19.06 0 0 1 5.32 14.34c-.15 2-.57 4 .27 5.81 1.93 4.06 8.7 3.29 11.08 7.11s-1.6 8.7-1.91 13.32a8.48 8.48 0 0 0 6.65 8.58c2.56.48 5.61-.13 7.46 1.71 2.34 2.34.63 6.23-.72 9.26a18 18 0 0 0-1.82 9.52 9.8 9.8 0 0 0 5.27 7.79c8 3.64 17.2-7.33 25.4-4 3.49 1.42 5.5 5 7.23 8.38l4.65 9a10.79 10.79 0 0 0 2.94 4c2 1.47 4.77 1.34 7.27 1.15 1.83-.15 3.83-.35 5.14-1.65 1.66-1.63 1.56-4.26 1.65-6.58a27.33 27.33 0 0 1 3.32-12c1.36-2.48 3.74-5 6.53-4.52 4.74.84 5.65 9.37 10.45 9 2.58-.2 4-3 5-5.38 1.22-3 2.56-6.07 4.77-8.45a11 11 0 0 1 1.85-1.63c2.46 2.78 4 6.76 4.18 12.37C470.52 508.28 403.1 519.54 371.39 488.21ZM495.64 413.24a69.48 69.48 0 0 1-33.4-8.11c-13.42-7.29-22.29-18.79-23.74-30.76-2.94-24.23 11.12-37.32 14.72-40.25-.35-3-1.24-12.12.24-17.81a1.65 1.65 0 1 1 3.19.82c-1.57 6.11 0 17.38 0 17.5a1.66 1.66 0 0 1-.68 1.57c-.7.5-17.21 12.64-14.17 37.77 1.33 10.91 9.57 21.47 22 28.26 20.57 11.18 47.61 10.15 74.17-2.82a1.65 1.65 0 1 1 1.45 3C524.64 409.6 509.66 413.24 495.64 413.24Z"></path>
  <path fill="#313131" d="M413.65 417.15a1.67 1.67 0 0 1-1.4-2.53c.17-.27 16.56-26.86 11.45-47.43a27 27 0 0 0-13.28-17.27c-8.07-4.68-15.95-5.84-23.42-3.45-16.2 5.18-25.51 25.37-25.6 25.57a1.65 1.65 0 1 1-3-1.36c.4-.88 10-21.71 27.58-27.35 8.41-2.7 17.19-1.44 26.11 3.73a30.21 30.21 0 0 1 14.83 19.34c5.44 21.94-11.14 48.84-11.85 50A1.67 1.67 0 0 1 413.65 417.15ZM500.31 438.69a1.78 1.78 0 0 1-1.65-1.76c-.42-25.42 31.38-26.62 31.7-26.63a1.61 1.61 0 0 1 1.7 1.57 1.64 1.64 0 0 1-1.61 1.68c-1.18 0-28.85 1.19-28.48 23.33a1.77 1.77 0 0 1-1.63 1.81ZM493.09 437.61a2 2 0 0 1-.47-.07 1.65 1.65 0 0 1-1.11-2.05 14.29 14.29 0 0 0-2.38-11.6c-4.69-6.56-15.27-10.41-30.62-11.16a1.65 1.65 0 0 1 .16-3.3c16.68.81 27.84 5.05 33.19 12.61a17.59 17.59 0 0 1 2.82 14.39A1.67 1.67 0 0 1 493.09 437.61ZM514 360.54a1.65 1.65 0 0 1-.43-3.24l24.57-6.61a1.65 1.65 0 0 1 .86 3.19l-24.57 6.61A1.63 1.63 0 0 1 514 360.54ZM486.48 360.54a1.63 1.63 0 0 1-.43-.05l-24.57-6.61a1.65 1.65 0 1 1 .86-3.19l24.57 6.61a1.65 1.65 0 0 1-.43 3.24Z"></path>
  <path fill="#f0c7c0" d="M390,384.1s14.24-1.5,4.19-10.85c-3.65-3.4-31-15-37.91-18.81s-20.05-7.07-31.3-.55c-6.42,3.72-17.57,10.3-26,15.27-48,5.89-113.11-10.5-131.28-17.75A74.13,74.13,0,0,1,172,337c1.53-3.9,3.38-8.17,5.53-12.7-10.89-2.52-28.6-4.71-48.07-14.14a84.28,84.28,0,0,1-8.24-4.51c-7.74-4.87-11.59-9.43-13.49-13-15.24,32.66-20.06,58.71-15.16,80.49,6.22,27.61,29.28,44.27,55.05,52.33,20,6.25,42.11,7.75,63,8.77a421.25,421.25,0,0,0,65.1-1.83c3.3-.35,11.49-3.89,14.35-2.15,0,0,9.9,6,21,4.31s29.73-15.35,29.73-15.35,17.58,12.76,27.42,8.53,2.89-11,2.89-11,12.31,5.4,17.49-3.31c4.64-7.79-5.66-12.9-5.66-12.9s13.44,3.67,16.83-2.48S398.83,389.1,390,384.1Z"></path>
  <path fill="#313131" d="M307.05,436.48a37.58,37.58,0,0,1-17.78-4.86,2.6,2.6,0,0,0-1.34-.24,31.47,31.47,0,0,0-7.29,1.52A33.55,33.55,0,0,1,276,434a424.42,424.42,0,0,1-44.55,2.34c-6.91,0-13.91-.17-20.82-.51-21.08-1-43.34-2.56-63.42-8.85-30.6-9.57-50.55-28.58-56.17-53.54-5-22.16,0-48.83,15.27-81.55a1.65,1.65,0,0,1,3-.08c2.26,4.25,6.61,8.42,12.92,12.39a84.24,84.24,0,0,0,8.07,4.42c15.45,7.48,29.91,10.38,40.48,12.5,2.61.52,5.08,1,7.25,1.52a1.64,1.64,0,0,1,1.11.89,1.67,1.67,0,0,1,0,1.43c-2.1,4.42-3.94,8.66-5.49,12.6a78.62,78.62,0,0,0-3.94,12.79c17.18,6.51,65.57,18.4,107.24,18.4a181.76,181.76,0,0,0,21.63-1.2c12-7.09,20.61-12.17,25.67-15.1a29.91,29.91,0,0,1,15.19-3.94A37.9,37.9,0,0,1,357.09,353c2.5,1.37,8,3.89,13.75,6.57,12.88,5.95,22.18,10.33,24.5,12.48,3.4,3.17,4.7,6.06,3.87,8.57-.71,2.12-2.79,3.38-4.78,4.13,6.36,3.8,10.48,7.45,6.85,14-1.62,2.93-5,4.42-10.13,4.42h0c-.73,0-1.46,0-2.16-.08a10.71,10.71,0,0,1,2.18,3.86,8.81,8.81,0,0,1-1.09,7.23c-2.24,3.77-6,5.77-10.88,5.77a21.85,21.85,0,0,1-4.39-.48,6.75,6.75,0,0,1,.28,3.46c-.49,2.62-2.56,4.73-6.16,6.27a13.2,13.2,0,0,1-5.24,1c-8.8,0-19.53-6.79-22.82-9-4,2.85-19.45,13.41-29.48,15A28.24,28.24,0,0,1,307.05,436.48Zm-19.12-8.4a5.8,5.8,0,0,1,3.06.72,34.86,34.86,0,0,0,16.06,4.37,25.29,25.29,0,0,0,3.83-.29c10.58-1.63,28.82-14.91,29-15.05a1.67,1.67,0,0,1,1.95,0c.12.09,12.63,9.08,21.86,9.08a9.92,9.92,0,0,0,3.93-.72c2.52-1.09,3.94-2.38,4.22-3.84.36-1.85-1.2-3.89-1.83-4.52a1.65,1.65,0,0,1,1.83-2.68,21.16,21.16,0,0,0,7.36,1.51c3.7,0,6.4-1.39,8-4.15a5.57,5.57,0,0,0,.76-4.59c-1.06-3.61-5.69-6-5.74-6a1.64,1.64,0,0,1-.8-2.07c.3-.79,1.15-.82,2-.6a25.3,25.3,0,0,0,7.72,1.43h0c2.62,0,6-.87,7.23-3.11,2.44-4.42.3-6.46-9.17-11.84a1.81,1.81,0,0,1-.81-1.88,1.7,1.7,0,0,1,1.45-1.35c1.78-.2,5.64-1.18,6.22-2.93.38-1.12-.71-3-3-5.11-2.1-2-14.54-7.71-23.63-11.91-6.09-2.81-11.35-5.25-13.95-6.67a35.1,35.1,0,0,0-16.14-4.06,26.58,26.58,0,0,0-13.53,3.49c-5.1,2.95-13.83,8.09-25.95,15.26a1.57,1.57,0,0,1-.64.22,185,185,0,0,1-22.37,1.26c-43.71,0-93-12.45-109.72-19.12a1.66,1.66,0,0,1-1-1.79,75,75,0,0,1,4.37-14.78c1.35-3.45,2.93-7.12,4.7-10.94-1.61-.35-3.35-.7-5.16-1.06-10.74-2.15-25.45-5.1-41.26-12.76a87.72,87.72,0,0,1-8.4-4.6c-5.51-3.47-9.67-7.14-12.39-10.94-13.94,30.76-18.45,55.86-13.77,76.65,7.22,32.06,36.89,45.79,53.93,51.12,19.72,6.17,41.74,7.68,62.61,8.7,6.85.34,13.79.51,20.65.51a420.32,420.32,0,0,0,44.2-2.33,32.27,32.27,0,0,0,4.12-1A33.47,33.47,0,0,1,287.93,428.08Z"></path>
  <path fill="#333" d="M283.77,369.88s-14.49,39.26-6.09,65l-18-.84s-10-41.16,5.65-63.86Z"></path>
  <ellipse cx="269.17" cy="384.1" fill="#fff" rx="9.6" ry="14.85" transform="rotate(-88.9 268.261 383.856)"></ellipse>
  <path fill="#333" d="M253,385.12h0a8.17,8.17,0,0,1-.09-1.4c.07-3.07,1.91-5.87,5.19-7.88a20.94,20.94,0,0,1,11.36-2.79c8.9.21,16.15,5.29,16.05,11.42s-7.41,10.88-16.55,10.67C260.7,395,253.84,390.65,253,385.12Zm29.55-1.59c-.65-4.1-6.42-7.43-13.16-7.58a18.07,18.07,0,0,0-9.77,2.35c-2.41,1.49-3.77,3.44-3.81,5.49-.15,4.52,6,8.29,13.22,8.46s13.48-3.43,13.58-7.85A4.25,4.25,0,0,0,282.51,383.53Z"></path>
  <polyline fill="#fff" points="277.84 383.28 266.64 383.21 270.65 388.81"></polyline>
  <path fill="#333" d="M265.93 383.33a.71.71 0 0 1 .07-.45.74.74 0 0 1 .65-.39l11.19.06a.74.74 0 0 1 .73.73.73.73 0 0 1-.73.72l-9.78-.05 3.18 4.45a.74.74 0 0 1-.17 1 .73.73 0 0 1-1-.17l-4-5.61A.79.79 0 0 1 265.93 383.33ZM177.57 324.26l-5.16 12.81L172 337c-3.84-1.06-36.89-10.78-50.78-31.35a84.28 84.28 0 0 0 8.24 4.51C149 319.55 166.68 321.74 177.57 324.26ZM371.17 418.31a1.69 1.69 0 0 1-.75-.18c-2.89-1.49-6.92-3.52-10.95-5.56-6-3-12.21-6.18-14.47-7.41a1.65 1.65 0 0 1 1.59-2.9c2.21 1.21 8.39 4.34 14.37 7.36 4 2 8.08 4.08 11 5.57a1.65 1.65 0 0 1-.76 3.12ZM384.51 402.77a1.77 1.77 0 0 1-.73-.17l-2.41-1.2c-5.69-2.8-14.28-7-29.42-14.84a1.65 1.65 0 1 1 1.51-2.93c15.12 7.78 23.69 12 29.37 14.81l2.42 1.2a1.65 1.65 0 0 1-.74 3.13ZM390.29 385.89a1.65 1.65 0 0 1-.77-.19c-6.81-3.62-25.82-12.5-31.48-14.59a1.65 1.65 0 0 1 1.14-3.1c5.75 2.12 25 11.11 31.89 14.77a1.65 1.65 0 0 1-.78 3.11Z"></path>
  <path fill="#313131" d="M275.49 126a1.64 1.64 0 0 1-1.3-2.66L276 121a1.65 1.65 0 0 1 2.61 2l-1.81 2.33A1.64 1.64 0 0 1 275.49 126ZM312.08 129.15a1.76 1.76 0 0 1-.76-.18c-7.59-3.94-5.48-14.71-5.39-15.17a1.65 1.65 0 1 1 3.24.66c0 .14-1.68 8.8 3.67 11.57a1.66 1.66 0 0 1 .71 2.23A1.64 1.64 0 0 1 312.08 129.15ZM290.59 95.12c-2.09-.16-6.85 1.08-6.31 4 .23 1.26 1.62 1.93 2.87 2.22a9.88 9.88 0 0 0 6.55-.55 4.43 4.43 0 0 0 2.13-2c1.43-3.23-2.81-4-5-3.7M321.58 97.12c2.09.18 6.59 2.17 5.58 5-.43 1.21-1.91 1.65-3.2 1.73a9.9 9.9 0 0 1-6.37-1.59 4.33 4.33 0 0 1-1.77-2.32c-.9-3.42 3.4-3.5 5.5-2.86"></path>
  <path fill="#fff" d="M274.5,108.63a18.68,18.68,0,0,1,11.83-2,14.57,14.57,0,0,1,10.21,6.25S283.46,128.91,274.5,108.63Z"></path>
  <path fill="#313131" d="M285.77,120.55c-5.18,0-9.48-3.79-12.78-11.25a1.64,1.64,0,0,1,.63-2.06,19.41,19.41,0,0,1,9.81-2.46,23.53,23.53,0,0,1,3.13.22,16.23,16.23,0,0,1,11.4,7,1.66,1.66,0,0,1-.14,1.88C297.6,114.2,292.34,120.55,285.77,120.55Zm-9.09-11.16c2.58,5.21,5.64,7.85,9.09,7.85s6.88-2.69,8.64-4.47a13.21,13.21,0,0,0-8.31-4.5,20.09,20.09,0,0,0-2.67-.19A17.5,17.5,0,0,0,276.68,109.39Z"></path>
  <path fill="#313131" d="M291.13,115.17a4,4,0,1,0-4.29,3.47A3.91,3.91,0,0,0,291.13,115.17Z"></path>
  <path fill="#fff" d="M336.15,113.61a18.61,18.61,0,0,0-11.35-3.86,14.62,14.62,0,0,0-11.08,4.52S324.05,132.19,336.15,113.61Z"></path>
  <path fill="#313131" d="M324.72,123.7h0c-7.39,0-12.23-8.25-12.43-8.6a1.66,1.66,0,0,1,.16-1.88,16.2,16.2,0,0,1,12.39-5.13,20.24,20.24,0,0,1,12.41,4.29,1.66,1.66,0,0,1,.29,2.14C333.57,120.61,329.26,123.7,324.72,123.7Zm-8.87-9.2c1.39,1.94,4.72,5.89,8.87,5.89h0c3,0,6.13-2.14,9.16-6.37a18.1,18.1,0,0,0-9.11-2.62h-.32A13.16,13.16,0,0,0,315.85,114.5Z"></path>
  <path fill="#313131" d="M322.58 116.74a4 4 0 1 1 3.67 4.12A3.9 3.9 0 0 1 322.58 116.74ZM282.05 127.56a1.81 1.81 0 0 1-.51-.08 1.67 1.67 0 0 1-1.07-2.08l.63-2a1.65 1.65 0 1 1 3.15 1l-.63 2A1.65 1.65 0 0 1 282.05 127.56Z"></path>
  <path fill="#333" d="M310.35,141.21a25.38,25.38,0,0,1-15-5.38,1.65,1.65,0,1,1,2.11-2.53h0c.08.06,7.91,6.43,17.12,4.07a1.65,1.65,0,1,1,.82,3.2A20.44,20.44,0,0,1,310.35,141.21Z"></path>
  <path fill="#333" d="M294.51,137.73a1.65,1.65,0,0,1-1.32-2.64l3.3-4.41a1.65,1.65,0,1,1,2.64,2l-3.3,4.4A1.65,1.65,0,0,1,294.51,137.73Z"></path>
  <path fill="#f0c7c0" d="M428.75,285.55a8.34,8.34,0,0,0-6.68,5.55,9.08,9.08,0,0,0-9.94-5.68A9.27,9.27,0,0,0,404.9,291a9.26,9.26,0,0,0-16.74,4.22,9.09,9.09,0,0,0-.74-1.5A9.34,9.34,0,0,0,370.26,300l4.14,28.63a9.32,9.32,0,0,0,18.47-.14,9.3,9.3,0,0,0,17.22.22,9.28,9.28,0,0,0,16.77-4.43,8.35,8.35,0,0,0,15.09-6l-3.72-25.66a8.24,8.24,0,0,0-1.18-3.24A8.38,8.38,0,0,0,428.75,285.55Z"></path>
  <path fill="#313131" d="M383.63,338.32a11,11,0,0,1-10.86-9.41l-4.15-28.63a11,11,0,0,1,9.31-12.46,11.16,11.16,0,0,1,9.76,3.55,10.86,10.86,0,0,1,16.89-3.13,10.81,10.81,0,0,1,7.31-4.46,11.16,11.16,0,0,1,10.13,4,9.92,9.92,0,0,1,6.49-3.84,10.18,10.18,0,0,1,9.94,4.61,9.93,9.93,0,0,1,1.42,3.88l3.72,25.66a10,10,0,0,1-8.49,11.36,9.84,9.84,0,0,1-1.43.11h0a10,10,0,0,1-5.95-2,10.92,10.92,0,0,1-17.32,4,10.82,10.82,0,0,1-7.3,4.44,10.4,10.4,0,0,1-1.58.11,11,11,0,0,1-8.17-3.68,11,11,0,0,1-8.13,5.81A12,12,0,0,1,383.63,338.32ZM379.51,291a8.29,8.29,0,0,0-1.11.08,7.71,7.71,0,0,0-6.51,8.72L376,328.43a7.72,7.72,0,0,0,7.59,6.59,8.44,8.44,0,0,0,1.12-.08,7.7,7.7,0,0,0,6.48-6.62,1.67,1.67,0,0,1,1.43-1.43,1.65,1.65,0,0,1,1.74,1,7.77,7.77,0,0,0,8.23,4.78,7.61,7.61,0,0,0,5.94-4.6,1.65,1.65,0,0,1,2.85-.32,7.64,7.64,0,0,0,13.8-3.64,1.65,1.65,0,0,1,3-.77,6.74,6.74,0,0,0,5.46,2.85h0a6.2,6.2,0,0,0,1-.07,6.74,6.74,0,0,0,5.69-7.61l-3.72-25.67a6.72,6.72,0,0,0-7.62-5.69,6.71,6.71,0,0,0-5.35,4.46,1.65,1.65,0,0,1-3.08.09,10.21,10.21,0,0,0-.56-1.15,7.78,7.78,0,0,0-7.62-3.53,7.61,7.61,0,0,0-5.95,4.63,1.66,1.66,0,0,1-2.86.32,7.61,7.61,0,0,0-13.76,3.47,1.65,1.65,0,0,1-3.17.4,7.54,7.54,0,0,0-.61-1.24A7.74,7.74,0,0,0,379.51,291Z"></path>
  <path fill="#333" d="M392.3 328.08a1.64 1.64 0 0 1-1.64-1.5l-1.81-19.72a1.65 1.65 0 1 1 3.29-.3L394 326.28a1.65 1.65 0 0 1-1.5 1.79ZM409.19 329.89a1.66 1.66 0 0 1-1.64-1.45L403.23 293a1.65 1.65 0 0 1 3.28-.4L410.83 328a1.65 1.65 0 0 1-1.44 1.84ZM426.86 326a1.65 1.65 0 0 1-1.63-1.42l-2.51-17.13A1.65 1.65 0 1 1 426 307l2.51 17.14a1.66 1.66 0 0 1-1.4 1.87Z"></path>
  <path fill="#a5a653" d="M267.58,579.71c-24.82-25.44-87.47,52.73-91.2,70.72,0,0-11.66,23.78-7.12,32.8-3.17,4.93-6.09,9.51-8,12.64-4.09,6.66-10,19.29-13.94,28.25-.55-19.84-1-50.18-.13-68.1a8.36,8.36,0,0,0,4.22-.51c17.18-6.39,83.1-173.93,37.21-182.31s-65.72,120.41-57.89,142.12c0,0,2.2,29.22,11.66,38.19-1.64,26,.21,79.06.31,81.79l.39,11.18,4.37-10.29c.12-.28,11.59-27.25,18-37.72,1.85-3,4.63-7.38,7.67-12.1l.14,0C186.31,689.52,292.39,605.15,267.58,579.71Z"></path>
  <path fill="#313131" d="M143.07,748.13l-.3,0a1.67,1.67,0,0,1-1.35-1.57L141,735.36c-.08-2.24-1.92-54.82-.35-81.21-9-9.5-11.37-35.6-11.6-38.49-6.21-18.06,4.3-93.14,27.93-126.77,8.26-11.77,17.46-17.74,27.34-17.74a25.18,25.18,0,0,1,4.55.42c10,1.82,15.68,10.41,17,25.53,2.7,30.62-13,77.46-19.86,96.17-10.47,28.51-25.6,60.63-34.09,63.79a10.73,10.73,0,0,1-3.22.68c-.77,17.41-.31,44.47,0,59.12,3.66-8,7.88-16.66,11.08-21.86,1.64-2.67,4.18-6.68,7.55-11.92-3.66-9.7,5.89-30,7.42-33.19,3.58-15.78,50.56-76.87,80.61-76.87a17.94,17.94,0,0,1,13.34,5.54c5.1,5.22,5.59,12.83,1.46,22.62-14.41,34.14-82.26,87-96.14,87H174c-3.15,4.89-5.53,8.65-7.08,11.18-6.36,10.33-17.8,37.23-17.91,37.5l-4.38,10.3A1.65,1.65,0,0,1,143.07,748.13Zm41.28-273.67c-8.74,0-17,5.49-24.64,16.33-10.36,14.74-19.38,39.85-24.74,68.87-4.43,24-5.57,47.15-2.71,55.1a1.57,1.57,0,0,1,.09.43c0,.29,2.27,28.69,11.16,37.12a1.67,1.67,0,0,1,.51,1.3c-1.63,26,.23,79.37.31,81.64l.13,3.73,1.46-3.44c.11-.26,11.6-27.3,18.14-37.94,1.66-2.7,4.25-6.78,7.69-12.13a1.66,1.66,0,0,1,1.82-.7s.09.45.14.47.2.45.37.45h0c11.39,0,78.69-51.23,93.09-85.37,3.57-8.45,3.31-15.06-.77-19.25a14.9,14.9,0,0,0-11-4.64c-28.13,0-74.41,59.85-77.42,74.39a1.63,1.63,0,0,1-.13.37c-3.14,6.41-10.55,24.52-7.14,31.31a1.64,1.64,0,0,1-.08,1.63c-3.6,5.59-6.29,9.83-8,12.61-4,6.53-9.75,18.86-13.85,28a1.64,1.64,0,0,1-1.83,1,1.66,1.66,0,0,1-1.33-1.58c-.29-10.74-1.17-47.39-.12-68.23a1.65,1.65,0,0,1,.6-1.19,1.71,1.71,0,0,1,1.29-.36,6.78,6.78,0,0,0,3.4-.42c5.38-2,18.86-25.67,32.14-61.82,14.15-38.55,21.5-74,19.67-94.75-1.18-13.46-6-21.05-14.32-22.57A22.15,22.15,0,0,0,184.35,474.46Z"></path>
  <path fill="#a5a653" d="M148.37,729.15c-4.06-14-23.55-48.71-33.59-66.08,5.86-5.75,3.86-14-21.32-40.76C67.4,594.6,39.69,559.86,31,592.53c-8.17,30.75,57.39,80,79.51,73.1,9,15.69,25.84,45.52,31.69,60.83-2.68-3-6.13-7.15-9.34-11-14-16.8-33.07-39.8-45.21-41.82a57.89,57.89,0,0,0-18.08-.45C62.73,670.52,47.7,680,47.7,680,32.24,691.05-14.51,743,7.39,771.52c21.4,27.82,65.8-78.58,65.38-93.71a56.65,56.65,0,0,1,14.08.71c10.32,1.73,29.51,24.82,42.21,40.11,10.58,12.73,14.16,16.91,16.85,16.91a2.86,2.86,0,0,0,1.4-.38C149.74,733.88,148.81,730.68,148.37,729.15Z"></path>
  <path fill="#313131" d="M15.56,777.78c-3.6,0-6.79-1.77-9.48-5.26C.91,765.8-1,757.41.47,747.58c4.13-28.08,34.77-60.72,46.27-69l.08-.06c.49-.3,12-7.49,19.89-7.49a9.92,9.92,0,0,1,3,.43,60.58,60.58,0,0,1,18.19.51c12.75,2.12,32.08,25.4,46.2,42.4.7.83,1.42,1.7,2.14,2.57-7.25-15.38-19-36.29-26.57-49.43a18.8,18.8,0,0,1-3.94.39c-17.32,0-48.42-19.95-65.26-41.85-9.79-12.72-13.62-24.47-11.1-34s7-14.46,13.35-14.46c11.69,0,27.39,17,44,35,2.63,2.86,5.26,5.71,7.88,8.5,22.69,24.12,28.39,34.74,22.16,42.12,11,19,29.17,51.65,33.14,65.4.47,1.64,1.74,6-1.88,7.92a4.51,4.51,0,0,1-2.17.57c-3.43,0-6.59-3.63-18.12-17.51C116,705.5,96.3,681.78,86.58,680.15a57.06,57.06,0,0,0-12.24-.79c-1.5,14.18-23.51,69.13-43.79,90C25.1,774.94,20.06,777.78,15.56,777.78Zm33.06-96.46C37.41,689.4,7.73,721,3.74,748.07c-1.31,8.9.36,16.45,5,22.44,2.06,2.67,4.3,4,6.86,4,3.57,0,7.82-2.5,12.62-7.44,20.69-21.28,43.23-78.52,42.94-89.18a1.64,1.64,0,0,1,1.51-1.69,57.69,57.69,0,0,1,14.49.73c10.1,1.68,26.2,20.2,43.21,40.67,8.46,10.18,13.56,16.32,15.58,16.32a1.29,1.29,0,0,0,.63-.19c.88-.46,1-1.65.24-4.09-4.09-14.18-24.74-50.68-33.43-65.71a1.67,1.67,0,0,1,.27-2c4.06-4,5.48-9.91-21.36-38.45-2.63-2.79-5.27-5.66-7.91-8.52C68.94,598.22,53,581,42.76,581c-4.68,0-8,3.93-10.15,12-2.85,10.7,4.15,22.82,10.52,31.11,16.32,21.22,46.18,40.56,62.64,40.56a14.48,14.48,0,0,0,4.26-.58,1.67,1.67,0,0,1,1.92.75c9.36,16.24,26,45.75,31.8,61.07a1.65,1.65,0,0,1-2.77,1.69c-2.73-3.06-6.26-7.3-9.38-11-13-15.66-32.67-39.33-44.21-41.25a56.7,56.7,0,0,0-17.56-.44,1.59,1.59,0,0,1-.84-.1,6.38,6.38,0,0,0-2.28-.36C60,674.36,49.37,680.86,48.62,681.32Z"></path>
  <path fill="#eeb857" d="M74.4,706.4H212.63l-6.57,100.67c-1.4,21.45-14.48,37.89-30.14,37.89H111.11C95.44,845,82.37,828.52,81,807.07Z"></path>
  <path fill="#313131" d="M175.92,846.61H111.11c-16.66,0-30.32-17-31.79-39.43L72.75,706.51a1.66,1.66,0,0,1,1.65-1.76H212.63a1.67,1.67,0,0,1,1.65,1.76l-6.57,100.67C206.24,829.66,192.57,846.61,175.92,846.61ZM76.16,708.06,82.62,807C84,827.34,96.46,843.3,111.11,843.3h64.81c14.65,0,27.16-16,28.49-36.34l6.45-98.9Z"></path>
  <path fill="#f0ddd8" d="M98 737.21a3.84 3.84 0 0 0 3.2-1.69 31.46 31.46 0 0 1 5.44-6.6c2.44-2 5.74-3.24 8.94-4.44a3.87 3.87 0 1 0-2.71-7.25c-3.61 1.34-7.71 2.87-11.15 5.7a37.57 37.57 0 0 0-6.91 8.22A3.88 3.88 0 0 0 98 737.21ZM135.37 774.16a3.88 3.88 0 0 0 3.22-6A29.61 29.61 0 0 0 127.05 758a3.88 3.88 0 0 0-7.33.92c-.17.9-.41 4 3.59 5.88a22.22 22.22 0 0 1 8.83 7.65A3.89 3.89 0 0 0 135.37 774.16ZM111.91 822.17a3.88 3.88 0 0 0 .26-7.75c-1.47-.09-3.24-2.62-4.09-3.83l-3.5-5a3.88 3.88 0 0 0-6.35 4.45l3.51 5c1.65 2.36 4.74 6.77 9.91 7.12ZM146.66 812.69a3.81 3.81 0 0 0 2.34-.8 24.25 24.25 0 0 1 7.6-3.9l.71-.2a13.09 13.09 0 0 0 6.17-3.2 3.87 3.87 0 0 0-5.56-5.39 7.85 7.85 0 0 1-2.78 1.15l-.8.23a31.78 31.78 0 0 0-10 5.15 3.88 3.88 0 0 0 2.36 7ZM144.86 739.81a3.66 3.66 0 0 0 .57 0 3.82 3.82 0 0 0 2.53-1.54 14.18 14.18 0 0 1 5.26-1 18.17 18.17 0 0 1 2.77.52 18.13 18.13 0 0 0 5.93.7 3.87 3.87 0 1 0-.66-7.72 13.26 13.26 0 0 1-3.47-.52 25 25 0 0 0-4-.71c-3.71-.26-7.17 1-9.94 1.93a4.62 4.62 0 0 0-3 5.33A4.21 4.21 0 0 0 144.86 739.81ZM196.24 734.7a3.87 3.87 0 0 0 3.87-3.81c.08-4.7-4.52-6.59-6.48-7.39a21 21 0 0 1-6.21-3.93 3.88 3.88 0 0 0-5.21 5.74 29.1 29.1 0 0 0 8.47 5.36 12.42 12.42 0 0 1 1.74.82 3.87 3.87 0 0 0 3.76 3.21ZM170.9 781.14a3.89 3.89 0 0 0 2.87-1.27 12.33 12.33 0 0 1 3.39-2.19l1.29-.67c3.58-1.94 5.7-4.27 6.5-7.13a3.87 3.87 0 1 0-7.46-2.09c-.12.41-.62 1.26-2.73 2.41l-1.14.59a18.37 18.37 0 0 0-5.59 3.87 3.87 3.87 0 0 0 2.87 6.48ZM177.5 825.81a3.87 3.87 0 0 0 2.65-1l6.83-6.41a3.88 3.88 0 1 0-5.31-5.65l-6.83 6.41a3.88 3.88 0 0 0 2.66 6.7Z"></path>
  <path fill="#8f8ec3" d="M125.35,827.69H70.63c0,11,8.64,19,19.29,19H196.13c10.65,0,19.29-8,19.29-19Z"></path>
  <path fill="#313131" d="M196.13,847.69H89.92c-12.13,0-21-8.41-21-20.37v-1.63H217v1.63C217,839.28,208.26,847.69,196.13,847.69Zm-123.78-19a17.27,17.27,0,0,0,17.57,16H196.13a17.27,17.27,0,0,0,17.57-16Z"></path>
  <path fill="#333" d="M147.17 657.67H147a1.64 1.64 0 0 1-1.52-1.77c.08-1 7.91-101.2 27.31-145.64a1.65 1.65 0 1 1 3 1.32c-19.19 43.93-27 143.57-27 144.57A1.66 1.66 0 0 1 147.17 657.67ZM170.57 687a1.68 1.68 0 0 1-.93-.28 1.65 1.65 0 0 1-.44-2.29c.34-.51 34.74-51.45 61.06-73.69a1.64 1.64 0 0 1 2.32.2 1.66 1.66 0 0 1-.19 2.33c-26 21.94-60.11 72.5-60.45 73A1.64 1.64 0 0 1 170.57 687ZM113.59 665.23a1.66 1.66 0 0 1-1.17-.48c-2.69-2.69-18.66-17.42-34.09-31.67C67 622.61 56.25 612.72 51.7 608.44A1.66 1.66 0 1 1 54 606c4.54 4.27 15.25 14.16 26.6 24.63 15.46 14.26 31.45 29 34.19 31.75a1.65 1.65 0 0 1-1.17 2.82ZM19.47 747.39a1.81 1.81 0 0 1-.4 0 1.65 1.65 0 0 1-1.21-2c12-48.68 53.78-68.83 54.2-69a1.65 1.65 0 0 1 1.41 3c-.4.19-40.78 19.72-52.4 66.83A1.65 1.65 0 0 1 19.47 747.39Z"></path>
  <path fill="#e296a7" d="M575.24 255.55s29.34-23.8 36.47-2.16-58.9 52.5-58.9 52.5-12.81-80.23 5.05-83.62S575.24 255.55 575.24 255.55ZM421.54 182s1.47-25 15.27-18.83-.66 52.35-.66 52.35-45-29.64-38.69-39.91S421.54 182 421.54 182Z"></path>
</svg>
