<svg xmlns="http://www.w3.org/2000/svg" viewBox="0 0 869.58 795.16" id="pet-lover">
  <path fill="#313131" d="M442.06,795.17a38.89,38.89,0,0,1-22.7-7.28c-3.83-2.77-6.22-5.7-7.32-9-1.26-3.73-.58-8.89,3.15-11.56,2.45-1.75,5.91-2.19,10-1.26,5.77,1.31,13,4.94,16.09,11.17a5.12,5.12,0,0,1,0,4.9c-1.41,2.38-4.55,2.55-5.58,2.61a1.67,1.67,0,0,1-1.74-1.56,1.65,1.65,0,0,1,1.56-1.74c1.6-.09,2.58-.43,2.92-1a2,2,0,0,0-.12-1.75c-2.56-5.19-8.83-8.27-13.86-9.41-2.19-.5-5.25-.78-7.35.73-2.4,1.71-2.79,5.3-1.94,7.82s2.88,5,6.12,7.33a35.58,35.58,0,0,0,29.17,5.63,7.46,7.46,0,0,0,2.75-1.13,4.75,4.75,0,0,0,1.62-3.56,10.53,10.53,0,0,0-1.07-4.58c-1.91-4.38-5.37-8.38-10.56-12.22-3.14-2.32-6.58-4.39-9.91-6.38-2-1.22-4.14-2.48-6.18-3.8a1.66,1.66,0,0,1,1.8-2.78c2,1.29,4.06,2.54,6.08,3.74,3.39,2,6.91,4.15,10.18,6.57,5.67,4.19,9.47,8.62,11.62,13.55a13.74,13.74,0,0,1,1.34,6,8.07,8.07,0,0,1-2.9,6.05,10.56,10.56,0,0,1-4,1.71A37.76,37.76,0,0,1,442.06,795.17Z"></path>
  <path fill="#fdf2e0" d="M171.64,233.46C225.8,187.4,235.35,98.73,297.81,64.78c23.07-12.54,50-15.35,76.14-17.91L454,39c17.69-1.73,37.4-2.91,51.27,8.21,19.9,16,26.15,54.61,51.44,51.25,14.56-1.94,22-18,32.76-28,21.9-20.22,59.47-12.95,80.39,8.28s28.78,51.91,33.27,81.37,6.64,60,19.24,87C753.06,312.91,839,344.79,856.45,415.29c10.92,44.23-9.24,91.51.68,136,5,22.27,17.36,44.87,10.36,66.59-9,27.79-43.22,36.59-72.1,40.92-175.25,26.24-352,48.14-529.14,42.86-46.14-1.38-93.31-4.85-135.63-23.28-14.24-6.2-27.82-14.05-42.59-18.84-13.76-4.47-28.38-6.22-41.67-11.94C-4.17,625.83-13.77,550.7,19.41,506.81c6.49-8.59,14.32-16.52,18.05-26.63,4.16-11.29,2.65-23.75,1.56-35.72-5-55,2.73-116.43,43.47-153.7C108.61,266.85,144.66,256.4,171.64,233.46Z"></path>
  <path fill="#7e4e3d" d="M738.56,476.27c19.68,12.31,44.65,29.6,48.49,52.64s9.61,86.43,9.61,86.43L540.25,699.85,451.9,646.07s12.48-65.3,29.77-81.62,49.94-63.39,49.94-63.39Z"></path>
  <path fill="#313131" d="M540,701.66l-90-54.77.22-1.13c.51-2.68,12.78-66,30.26-82.51,17-16,49.38-62.66,49.71-63.13l.42-.61,208.27-24.95.49.31c22.24,13.91,45.49,31.17,49.25,53.77,3.81,22.85,9.57,85.92,9.62,86.55l.12,1.31Zm-86.3-56.4,86.72,52.79,254.43-83.86c-.85-9.19-6-64.11-9.46-85C781.9,508,759.64,491.44,738.18,478L532.54,502.62c-4,5.81-33.39,47.59-49.74,63C467.33,580.27,455.49,636.58,453.74,645.26Z"></path>
  <path fill="#e6aa79" d="M533.61,666.73a86.87,86.87,0,0,1-11.7-65A42.15,42.15,0,0,1,527.12,588c6.66-10.43,19.45-15.24,31.71-17,18-2.57,36.33,0,54.35,2.55l40.3,5.73c7.11,1,14.54,2.15,20.36,6.36,9.51,6.91,11.75,22,4.66,31.32-4.51,5.95-11.63,9.21-18.45,12.24l-95,42.18c-8.17,3.62-18.14,7.12-25.5,2.06A22.78,22.78,0,0,1,533.61,666.73Z"></path>
  <path fill="#313131" d="M548.25 677.63a16.67 16.67 0 0 1-9.67-2.83 24.35 24.35 0 0 1-6.36-7.17 88.09 88.09 0 0 1-11.93-66.25c1.33-6 3.05-10.54 5.44-14.27 7.58-11.86 22-16.2 32.86-17.74a113.6 113.6 0 0 1 16.18-1.09c13.07 0 26.07 1.85 38.65 3.64l40.29 5.73c6.95 1 14.82 2.1 21.1 6.66a24.7 24.7 0 0 1 5 33.65c-4.88 6.44-12.77 9.94-19.1 12.75l-95 42.18C560.4 675.23 554.21 677.63 548.25 677.63Zm26.52-106a110 110 0 0 0-15.71 1c-10.13 1.45-23.64 5.44-30.55 16.25-2.17 3.39-3.75 7.59-5 13.2A84.76 84.76 0 0 0 535 665.84a21.41 21.41 0 0 0 5.45 6.24 13.28 13.28 0 0 0 7.8 2.24c5.34 0 11.13-2.25 16.09-4.45l95-42.18c6.3-2.79 13.44-6 17.8-11.73a21.41 21.41 0 0 0-4.31-29c-5.62-4.07-13.06-5.13-19.62-6.06L613 575.19C600.49 573.42 587.61 571.59 574.77 571.59ZM380.49 88.56c-51.9-3.16-99.18 22.16-109 73.75s2.6 104.23-13.85 122.06-50.77 4.33-104.46 39.76-20 94.26-15.34 122-27.06 38.15-12.89 69.3 48 38.67 89.53 25.72 73.84-36.72 67-80.91 4.31-60.78 16-72.88 39.79 7.8 85.65-51.05 123.54-82 133.66-123.92 18.41-92.1-27-106.85S380.49 88.56 380.49 88.56Z"></path>
  <path fill="#f0c7c0" d="M499.35,299.32c-3.93,4.65-15.59,13.25-23.45,15.36-19.79,5.35-40.58,2.48-40.58,2.48l-8.91,25.22-10,28.18-78.24-28.17s16.48-18.55,19.57-37,8.6-41.23,8.6-41.23c-30.48.08-44.08-43.69-18.2-56.61s39.9,13.74,39.9,13.74c57.55-46.4,48.65-95.16,48.65-95.16s56.17,7.83,64.11,29,6.1,28.55,11,67.44S518,277.25,499.35,299.32Z"></path>
  <path fill="#313131" d="M416.46,372.22a1.84,1.84,0,0,1-.56-.1l-78.24-28.18a1.65,1.65,0,0,1-.68-2.65c.17-.18,16.2-18.42,19.18-36.19,2.53-15.14,6.75-33.41,8.15-39.37-16.75-1-27.49-14.58-30.48-27.23-3.28-13.94,2.06-26.68,13.62-32.45A32.6,32.6,0,0,1,362,202.34c14.73,0,23.66,11.88,26.55,16.44,54.52-44.9,46.68-91.9,46.59-92.37a1.65,1.65,0,0,1,1.85-1.93c2.34.32,57.24,8.21,65.43,30.06,5.61,15,6.42,23.33,8,40,.69,7.17,1.56,16.11,3,27.85,5.1,40.64,5.91,55.83-12.87,78-4.13,4.89-16.14,13.71-24.28,15.89A105.07,105.07,0,0,1,449,319.58a120.43,120.43,0,0,1-12.54-.62L418,371.11a1.63,1.63,0,0,1-.85.95A1.71,1.71,0,0,1,416.46,372.22ZM341,341.64l74.44,26.81,18.3-51.84a1.64,1.64,0,0,1,1.78-1.08,112.51,112.51,0,0,0,13.44.75,102,102,0,0,0,26.49-3.2c7.44-2,18.85-10.37,22.62-14.83,17.89-21.15,17.08-35.91,12.11-75.48-1.48-11.8-2.35-20.76-3.05-28-1.64-16.86-2.39-24.55-7.85-39.12-6.65-17.74-50.39-25.93-60.64-27.62.42,4.39.76,14.81-3.07,28.65-4.6,16.65-16.39,41.58-46.47,65.83a1.65,1.65,0,0,1-2.5-.52c-.08-.16-8.83-16.4-24.64-16.4A29.18,29.18,0,0,0,348.93,209c-12.31,6.14-14.21,18.92-11.88,28.79,2.81,11.92,13.16,24.79,29.25,24.79h0a1.7,1.7,0,0,1,1.34.58,1.62,1.62,0,0,1,.34,1.38c-.05.23-5.53,22.94-8.57,41.11C356.82,321.18,345.27,336.44,341,341.64Z"></path>
  <path fill="#fff" d="M478.15,579.3c22.28-11.14,29-27.48,29-27.48S499,547,490.78,530.28C468.49,485,474.43,399.54,436.55,360.17s-131.48-14.85-131.48-14.85-67.6,58.68-93.6,145.59-15.59,237-15.59,237,79.48,27.48,199.81,3.71l53.49-135.19Z"></path>
  <path fill="#313131" d="M299,742.59h0c-63.86,0-103.21-13.19-103.6-13.32a1.55,1.55,0,0,1-1.11-1.37c-.11-1.5-10.12-151.3,15.66-237.51,13.51-45.14,38.36-82.5,56.84-105.91,20-25.37,37.09-40.27,37.26-40.42a1.69,1.69,0,0,1,.66-.35c.29-.07,29.37-7.59,61.32-7.59,33,0,57.15,7.71,71.77,22.91,22.9,23.8,29.92,63.54,36.7,102,4.58,25.93,8.91,50.43,17.82,68.55,7.85,16,15.63,20.81,15.71,20.85a1.68,1.68,0,0,1,.68,2.05c-.29.69-7.17,17-29.71,28.31l-28.43,16.76L397.23,732.19A1.47,1.47,0,0,1,396,733,501.63,501.63,0,0,1,299,742.59Zm-101.51-16c6.57,2.07,44,13,101.49,13h0a498.5,498.5,0,0,0,95.53-9.46l53.15-134.35a1.7,1.7,0,0,1,.7-.82l29-17.08.1,0c18.07-9,25.63-21.61,27.62-25.47-2.67-2.05-9.19-8-15.74-21.35-9.12-18.55-13.48-43.27-18.1-69.44-6.7-37.94-13.62-77.18-35.83-100.25-14-14.53-37.32-21.89-69.39-21.89-29.55,0-56.62,6.52-60.11,7.39-4.83,4.31-68.11,62-92.8,144.56C188.61,573.09,196.58,712.74,197.45,726.63Z"></path>
  <path fill="#f0c7c0" d="M482.23,576S494,646.52,495.6,649.13c3,4.83,103.63-28.23,134.08-51.25s40.86-34.17,60.17-44.57,57.94-15.6,69.83-15.6,21.54,18.2-3.25,26C733.29,571,715.85,581.53,718.82,583s35.95,2.46,47.54-1.49c8.17-2.78,34.17-22.28,37.89-22.28s14.48,16.71,4.83,31.57c0,0,18.57,15.23,2.6,30.08,0,0,13,11.14,0,29.72,0,0,7.75,16-2.6,26.37-10.78,10.77-24.89,18.19-56.83,27.11-41.83,11.67-84.68,8.91-84.68,8.91S514.07,820,421,787.29c-69.82-24.51-84.68-173.07-84.68-173.07S434,610.13,482.23,576Z"></path>
  <path fill="#313131" d="M460.66,795.16c-14.79,0-28.34-2.12-40.26-6.31-16.28-5.71-30.92-18.51-43.53-38-10-15.5-18.75-35.27-26-58.76a448.38,448.38,0,0,1-16.22-77.67,1.64,1.64,0,0,1,.39-1.25,1.68,1.68,0,0,1,1.18-.56c1,0,97.75-4.46,145.08-38a1.65,1.65,0,0,1,2.58,1.08c4.46,26.73,11.45,67,13.05,72.24l.53,0c13.17,0,102.14-29.39,131.25-51.39,10.63-8,18.69-14.53,25.8-20.25,13.18-10.61,21.89-17.62,34.58-24.46,19.35-10.42,58.26-15.8,70.61-15.8,6.73,0,12.77,5,13.75,11.4.43,2.83.53,12.47-16.51,17.83-19.13,6-32.37,13.48-35.93,16.57a138.46,138.46,0,0,0,17,.82c12.51,0,22.94-1,27.89-2.7,3.94-1.34,12.77-7.12,20.55-12.21,11-7.22,15.75-10.16,17.87-10.16,2.5,0,5.22,3.36,6.93,6.51,3.63,6.69,5.44,17,0,26.4,2.48,2.36,8.35,8.77,8.6,16.79.15,4.89-1.8,9.47-5.81,13.64,3,3.58,10,14.34-.43,29.85,1.54,3.67,6.42,17.62-3.32,27.36-11.6,11.61-27.2,19.07-57.55,27.54-28.86,8.06-58.33,9.26-73.33,9.26-5.91,0-9.9-.18-11.32-.26a627.2,627.2,0,0,1-68.91,40C562.2,773.18,508.2,795.16,460.66,795.16ZM338.1,615.77A450.54,450.54,0,0,0,354,691.13c11.24,36.3,32.07,82.18,67.48,94.61,11.56,4.06,24.74,6.11,39.16,6.11,46.89,0,100.38-21.79,137-40.07a615,615,0,0,0,69-40.12,1.65,1.65,0,0,1,1-.3c.05,0,4.46.29,11.69.29,14.83,0,44-1.19,72.45-9.14,29.74-8.3,44.94-15.54,56.1-26.69,9.42-9.42,2.35-24.33,2.28-24.48a1.67,1.67,0,0,1,.13-1.67c12-17.15.76-27.1.28-27.51a1.65,1.65,0,0,1-.58-1.22,1.69,1.69,0,0,1,.53-1.25c4.08-3.79,6.08-7.93,6-12.29-.27-8.48-8.39-15.24-8.47-15.3a1.66,1.66,0,0,1-.34-2.18c6.08-9.35,3.08-18.74,1.51-22.34-2-4.48-4.33-6.57-5-6.68-1.58.18-9.58,5.42-16,9.63-8.34,5.45-17,11.09-21.29,12.57-7.61,2.59-22.79,2.87-29,2.87-5.85,0-17.52-.31-19.86-1.47a2.18,2.18,0,0,1-1.23-2.14c.36-4.58,21.31-14.64,39.08-20.23,9.8-3.08,15.12-8.39,14.23-14.18-.73-4.74-5.43-8.59-10.48-8.59-12.1,0-50.17,5.24-69,15.4-12.43,6.69-21,13.62-34.08,24.12-7.13,5.74-15.21,12.24-25.88,20.31-27.87,21.08-117.84,52.07-133.24,52.07-1.15,0-2.55-.15-3.24-1.26-1.57-2.56-10-52.18-13.17-71.21C435.89,609,351.38,615,338.1,615.77Z"></path>
  <path fill="#313131" d="M762.65 614.75a1.65 1.65 0 0 1 0-3.3c13.56 0 34.07-11.34 45.3-21.84A1.65 1.65 0 0 1 810.2 592C798.26 603.2 777.21 614.75 762.65 614.75ZM771.19 643.73a1.65 1.65 0 0 1-.43-3.25c4.55-1.24 27.87-8.08 39.71-20.71a1.65 1.65 0 0 1 2.41 2.26c-12.45 13.28-36.55 20.35-41.25 21.64A1.72 1.72 0 0 1 771.19 643.73ZM769.7 673.81a1.65 1.65 0 0 1-.41-3.25c5.85-1.54 24.69-8.36 41.38-21.25a1.65 1.65 0 0 1 2 2.61c-16.51 12.76-35.06 19.86-42.56 21.83A1.59 1.59 0 0 1 769.7 673.81ZM361 299.58c-5.09 29.51-20.15 81.61-54.75 106s-53.92 24.26-68 40 1.69 66.2-14.92 87.74-62.59 12-62.59 12l10.54-114.77 40.45-70.25 80.74-57.23ZM379 244.53a1.66 1.66 0 0 1-1.62-1.34 18.46 18.46 0 0 0-16.95-14.92c-3.48-.16-7.58.94-8.63 4.53a1.65 1.65 0 1 1-3.17-.92c1.33-4.55 5.92-7.19 12-6.91a21.55 21.55 0 0 1 20 17.6 1.66 1.66 0 0 1-1.31 1.93A1.73 1.73 0 0 1 379 244.53Z"></path>
  <path fill="#313131" d="M363.86 240.2a1.7 1.7 0 0 1-.92-.27 1.66 1.66 0 0 1-.46-2.29l5.4-8.12a1.65 1.65 0 0 1 2.75 1.83l-5.4 8.12A1.65 1.65 0 0 1 363.86 240.2ZM481.51 165.76a5.31 5.31 0 0 0 1.28-4c-.1-6.85-5.36-12.43-10.57-16.89-10.17-8.71-21.6-16.14-34.27-20.49-1.17-.4-3-.38-3.08.86a2.1 2.1 0 0 0 .76 1.44c8.61 9.17 18.21 17.41 26.39 27 4 4.6 7.76 9.67 13.26 12.22C477.29 166.84 479.92 167.29 481.51 165.76ZM332.94 615.72a97.41 97.41 0 0 1-23.86-3.26l-1.54-.43.38-1.55c0-.15 3.59-15.49 0-51.44s-11.65-53.52-11.73-53.69a1.65 1.65 0 1 1 3-1.4c.34.72 8.33 18.13 12 54.76 3.08 30.45 1.12 46.16.28 50.95 4.41 1.08 17.93 4 29.77 2.18a1.65 1.65 0 1 1 .49 3.27A59.94 59.94 0 0 1 332.94 615.72Z"></path>
  <path fill="#313131" d="M303.38 528.26a1.87 1.87 0 0 1-.56-.09l-16.56-5.92a1.65 1.65 0 0 1 1.11-3.11l16.57 5.91a1.65 1.65 0 0 1-.56 3.21ZM101.43 452.75a18.52 18.52 0 0 1-2.11-.12 13.81 13.81 0 0 1-10.82-6.71 1.65 1.65 0 1 1 2.87-1.64 10.61 10.61 0 0 0 8.33 5.07 15.57 15.57 0 0 0 12.9-4.51c5.13-5.52 6.81-14.77 4.48-24.74a104.43 104.43 0 0 0-5.28-15.21c-1.42-3.51-2.89-7.13-4.07-10.81a89.52 89.52 0 0 1-3.72-33.7c.84-12 3.69-22.35 8.47-30.75 10.23-18 28.93-27.26 42.82-31.89 13.07-4.36 26.87-6.49 40.21-8.55 4.06-.62 8.25-1.27 12.35-2 8.69-1.48 17.87-3.35 26.21-7a64.17 64.17 0 0 0 32.55-32.72c6-13.74 12-33.29 6.8-48.37a1.65 1.65 0 1 1 3.12-1.09c5.57 16.1-.67 36.5-6.89 50.78a67.52 67.52 0 0 1-34.25 34.42c-8.66 3.83-18.09 5.75-27 7.27-4.13.7-8.34 1.35-12.4 2-13.21 2-26.87 4.14-39.67 8.41-13.34 4.45-31.29 13.34-41 30.39-4.54 8-7.24 17.85-8 29.35a86.48 86.48 0 0 0 3.56 32.46c1.14 3.57 2.59 7.13 4 10.57a107.44 107.44 0 0 1 5.43 15.71c2.62 11.21.7 21.32-5.27 27.74A18.89 18.89 0 0 1 101.43 452.75Z"></path>
  <path fill="#fff" d="M344,135c-6.57.91-13.19,4.39-19.52,2.41-3.14-1-5.72-3.2-8.59-4.81s-6.55-2.55-9.38-.88a44.5,44.5,0,0,0-12.73,18.45c-2.05,5.66-2.79,12.4.6,17.37,4.45,6.54,14.13,7.18,21.54,4.43s13.6-8,20.72-11.48c5.23-2.52,11.55-4,16.74-1.4,4.55,2.25,7.17,7,10.36,10.95,6.66,8.27,18.3,13.67,28.1,9.56,5.35-2.24,9.3-6.89,12.6-11.66,6-8.6,10.68-18.5,10.93-29a12.12,12.12,0,0,0-1-5.91c-2.49-4.75-9.5-5.15-14.18-2.54s-7.82,7.22-11.53,11.1-8.8,7.27-14.06,6.26c-4.77-.92-8.08-5.1-12-8A25.48,25.48,0,0,0,344,135Z"></path>
  <path fill="#313131" d="M474.66 245.78a1.64 1.64 0 0 1-1.17-.48C463 234.74 465.9 218.63 466 218a1.65 1.65 0 0 1 3.24.6h0c0 .15-2.67 15.11 6.56 24.42a1.64 1.64 0 0 1-1.17 2.81ZM504.47 239.33a1.65 1.65 0 0 1-1.56-1.12l-1.69-5a1.65 1.65 0 1 1 3.13-1l1.69 5a1.66 1.66 0 0 1-1 2.1A1.89 1.89 0 0 1 504.47 239.33ZM513.87 234.11a1.63 1.63 0 0 1-1.22-.54L508 228.46a1.65 1.65 0 0 1 2.45-2.21l4.62 5.1a1.65 1.65 0 0 1-1.23 2.76ZM489.75 226.67a26.06 26.06 0 0 1-10.13-2.18 1.65 1.65 0 0 1 1.27-3.05c16.5 6.88 24.83-6.81 25.17-7.39a1.65 1.65 0 1 1 2.85 1.67C508.83 215.85 502.33 226.67 489.75 226.67ZM493.19 190.69a8.94 8.94 0 0 1 4.87 3.15 4.59 4.59 0 0 1 0 5.49c-1.12 1.24-2.93 1.53-4.6 1.68a58.08 58.08 0 0 1-9.51.06 9.41 9.41 0 0 1-2.36-.4 5 5 0 0 1-2.23-7.84 7.84 7.84 0 0 1 4.32-2.39A17.77 17.77 0 0 1 493.19 190.69ZM432.07 193.59a8.94 8.94 0 0 0-4.69 3.42 4.54 4.54 0 0 0 .32 5.47c1.18 1.18 3 1.38 4.67 1.44a58.11 58.11 0 0 0 9.51-.45 9.26 9.26 0 0 0 2.33-.52A5 5 0 0 0 446 195a7.87 7.87 0 0 0-4.44-2.16A17.91 17.91 0 0 0 432.07 193.59ZM468 277.16c-14.39 0-23.13-10.58-23.23-10.71a1.65 1.65 0 1 1 2.57-2.08c.47.58 11.71 14.08 29.91 7.9a1.65 1.65 0 0 1 1.06 3.12A31.74 31.74 0 0 1 468 277.16Z"></path>
  <path fill="#313131" d="M441.38 270.09a1.65 1.65 0 0 1-1.14-2.85l9.08-8.61a1.65 1.65 0 0 1 2.27 2.4l-9.07 8.61A1.66 1.66 0 0 1 441.38 270.09ZM437 314.26C415.41 313.21 384.9 279 384.9 279s11.05 52.07 36.29 70Z"></path>
  <path fill="#7e4e3d" d="M723.67,447.55s-45.73,61.69-82.95,69.13-98.91-33-98.91-33l2.61-29.62.58-6.54s-27.65,20.21-41.48,20.21-37.22-17-37.22-17-8.51,4.26-13.83,2.13c-2.83-1.13-6.85-13.68-9.84-25.66-1.17-4.7-2.2-9.31-2.92-13.11-.89-4.76-1.34-8.26-1.06-9.09a25.18,25.18,0,0,1,2.56-3.62c2.69-3.48,7.25-9.07,12.62-15.56a8.46,8.46,0,0,0,6.09-2.09c12.53-11.56,35.53-24.87,32.62-43.89L495,337s0-44.67,4.26-48.92,25.52-41.48,25.52-41.48,0-5.05.33-12.08c.45-9.41,1.49-22.39,3.93-31.52,4.25-16-1.07-25.53-5.32-44.67-.1-.43-.19-.86-.29-1.31-4.34-19.48-12.3-55.06-5-55.06,7.45,0,24.46,51.05,31.91,64.88s17,55.3,17,55.3c11.7-4.25,46.8-3.19,46.8-3.19s6.38-125.5,11.7-125.5,18.08,28.72,24.46,40.42,34,86.14,39.35,97.84,6.38,26.59,3.19,29.78,0,20.21,0,25.52-10.64,17-10.64,17C701.34,339.08,723.67,447.55,723.67,447.55Z"></path>
  <path fill="#313131" d="M630.83,519.25c-37.37,0-87.8-32.76-89.93-34.15l-.82-.55L543,451c-7.58,5.23-27.88,18.45-39.52,18.45-12.9,0-33.09-13.73-37.4-16.76A27.81,27.81,0,0,1,456,455.12a11.06,11.06,0,0,1-4.09-.71c-3-1.22-6.69-10.23-10.84-26.8-1.16-4.67-2.2-9.36-2.93-13.21-1.56-8.27-1.17-9.42-1-9.91.11-.32.28-.84,2.83-4.12s6.61-8.3,12.65-15.6l.49-.58h.76c2.28,0,3.89-.56,4.94-1.6,2.61-2.42,5.56-4.82,8.69-7.36,12-9.78,25.65-20.87,23.46-35.12l-.11-.75.49-.57c1-1.13,1.68-2,2.08-2.44,0-11.3.42-45.16,4.74-49.48,3.32-3.32,19-30.18,25-40.75,0-1.39.06-5.91.33-11.72.45-9.4,1.5-22.57,4-31.87,3.1-11.64.89-19.89-2.17-31.3-1-3.7-2.12-7.89-3.16-12.58-.1-.43-.2-.87-.29-1.32l-.08-.33c-5.79-26-10.62-49.81-6.21-55.31a3.57,3.57,0,0,1,2.87-1.42c5.68,0,12.69,16.27,23.57,43.08,3.79,9.33,7.36,18.16,9.79,22.66,6.68,12.41,14.84,45.85,16.76,54,8.37-2.34,24-2.85,36.07-2.85,3.46,0,6.3,0,8,.08.36-6.81,1.83-34.15,3.77-61.18,4.64-64.28,7.22-64.28,9.5-64.28,4.34,0,9.84,9.5,20.52,30.77,2,4,3.89,7.76,5.39,10.51,3.91,7.18,15.33,36.62,25.4,62.61,6.4,16.51,11.92,30.77,14,35.34,5.44,12,6.85,27.63,2.86,31.63-1.73,1.72-.62,12.3-.08,17.38.3,2.89.56,5.37.56,7,0,5.08-7.65,14.25-10.29,17.26,18.91,35.89,40.19,138.6,41.1,143l.15.72-.44.6c-1.89,2.54-46.54,62.28-84,69.76A52.18,52.18,0,0,1,630.83,519.25Zm-87.29-36.39C550.31,487.16,597,516,630.83,516a48.69,48.69,0,0,0,9.56-.89c34.26-6.85,76.72-61.59,81.51-67.9-2-9.57-23.17-109.41-41.16-142.39l-.56-1,.79-.87c3.95-4.34,10.21-12.5,10.21-15.91,0-1.42-.26-3.83-.55-6.62-1.06-10.09-1.61-17.43,1-20.07,2.37-2.37,1.71-16.41-3.53-27.93-2.11-4.65-7.66-19-14.07-35.51-9.54-24.61-21.41-55.23-25.22-62.22-1.53-2.79-3.43-6.59-5.45-10.61-3.24-6.46-6.92-13.78-10.28-19.53-3.86-6.58-5.88-8.56-6.76-9.16-3.54,8.45-8.32,79.46-10.57,123.67l-.08,1.62-1.62,0s-3.94-.12-9.48-.12c-10.41,0-29,.42-36.7,3.21l-1.76.64-.42-1.82c-.09-.41-9.6-41.42-16.86-54.89-2.51-4.67-6-13.16-10-23-3.81-9.4-8.13-20-12-28.09-6-12.52-8.26-12.92-8.49-12.93-.08,0-.15,0-.3.19-3.78,4.71,3.68,38.22,6.87,52.52l.07.34c.1.46.2.89.29,1.31,1,4.63,2.14,8.78,3.13,12.44,3.19,11.91,5.5,20.52,2.17,33-2.4,9-3.36,21.93-3.8,31.18-.32,6.9-.26,11.95-.26,12V247l-.28.38c-.88,1.53-21.51,37.47-25.87,41.83-2.36,2.36-3.85,26.13-3.85,47.75v.61l-.35.46s-.7.85-2,2.34c1.89,15.74-12.85,27.75-24.74,37.42-3.08,2.51-6,4.88-8.48,7.18a9.54,9.54,0,0,1-6.4,2.49c-5.76,7-9.72,11.86-12.11,14.95a35.87,35.87,0,0,0-2.31,3.16c0,.21-.08,1.83,1.12,8.23.72,3.79,1.75,8.41,2.9,13,4.2,16.81,7.61,23.88,8.87,24.53a7.75,7.75,0,0,0,2.85.48c4.44,0,9.56-2.53,9.61-2.55l.9-.45.81.59c.23.17,23.12,16.7,36.25,16.7s40.23-19.69,40.5-19.89l2.94-2.15Z"></path>
  <path fill="#e6aa79" d="M492.54,339.86c-6.63,7.79-25.2,29.67-38.7,46,2.46,0,4.6-.6,6.08-2.09C472.45,372.18,495.45,358.87,492.54,339.86Z"></path>
  <path fill="#313131" d="M453.84,387.59a1.71,1.71,0,0,1-1.27-2.79c13.35-16.13,31.52-37.55,38.71-46a1.68,1.68,0,0,1,1.71-.53,1.66,1.66,0,0,1,1.18,1.34c2.47,16.11-12.56,28.34-24.64,38.16-3.08,2.52-6,5-8.49,7.25a9.76,9.76,0,0,1-7.18,2.57Zm37.28-43.51c-7.6,8.94-21.28,25.09-32.65,38.75l.28-.25c2.62-2.42,5.57-4.82,8.7-7.37C478.32,366.36,490.51,356.44,491.12,344.08Z"></path>
  <path fill="#e6aa79" d="M574.78,433.2c-8.29,3.84-20.84,13.28-30.36,20.89l.58-6.54s-27.65,20.21-41.48,20.21-37.22-17-37.22-17-8.51,4.26-13.83,2.13c-2.83-1.13-6.85-13.68-9.84-25.66-1.17-4.7-2.2-9.31-2.92-13.11l43.61-2.71c9.57-5.31,37.22-52.64,41.47-52.64s-.53,28.72,6.38,27.65,27.65-21.8,29.78-13.82-6.38,12.76,6.38,13.82,28.72-18.61,35.1-9-14.36,28.72-14.36,28.72,52.11-8.51,56.9-8.51S589.67,426.28,574.78,433.2Z"></path>
  <path fill="#313131" d="M503.52,469.41c-12.9,0-33.09-13.73-37.4-16.76A27.81,27.81,0,0,1,456,455.12a11.06,11.06,0,0,1-4.09-.71c-3.05-1.22-6.69-10.23-10.84-26.8-1.16-4.67-2.2-9.36-2.93-13.21a1.65,1.65,0,0,1,1.52-1.95l43.21-2.68c5-3.14,15.49-18.38,24-30.67,12.13-17.58,15.51-22,18-22,3.49,0,3.6,5.28,3.78,13.27a83.42,83.42,0,0,0,.67,10.62c.5,3,1.24,3.79,1.57,3.79h.11c2.3-.35,7.31-3.9,11.72-7,6.27-4.44,12.18-8.64,16-8.64a3.85,3.85,0,0,1,3.93,3,15.69,15.69,0,0,1-.34,8.17c-.32,1.29-.63,2.51-.29,3s1.38,1.11,5.55,1.46c5.17.42,11.07-3,16.78-6.25,4.88-2.79,9.48-5.43,13.4-5.43a7,7,0,0,1,6.15,3.37c5.38,8.06-4.92,20.82-10.92,27.17,13.3-2.15,48.08-7.7,52.09-7.7a1.81,1.81,0,0,1,1.88,1.39c.38,1.7.55,2.48-30.57,17.8-15.62,7.69-33.26,16.08-40.81,19.58-6.46,3-16.83,10.15-30,20.69a1.65,1.65,0,0,1-2.68-1.43l.26-3C535.46,456.19,515.16,469.41,503.52,469.41ZM466.3,449.09a1.66,1.66,0,0,1,1,.32c.23.17,23.12,16.7,36.25,16.7s40.23-19.69,40.5-19.89a1.66,1.66,0,0,1,1.79-.1,1.62,1.62,0,0,1,.83,1.58l-.23,2.71c12.09-9.51,21.39-15.8,27.67-18.71,15.76-7.32,51.47-24.49,64.79-31.81-12.29,1.66-39,5.94-50.53,7.82a1.66,1.66,0,0,1-1.39-2.85c5.48-5.06,18.69-19.7,14.1-26.58a3.78,3.78,0,0,0-3.4-1.9c-3,0-7.27,2.43-11.76,5-5.85,3.36-12.56,7.18-18.69,6.67-4.43-.37-6.81-1.22-8-2.83s-.72-3.73-.23-5.7a12.54,12.54,0,0,0,.36-6.52c-.14-.52-.29-.59-.74-.59-2.75,0-9,4.45-14.06,8-5.4,3.83-10.06,7.13-13.14,7.6a3.2,3.2,0,0,1-.61.05c-5.14,0-5.33-8.56-5.54-17.63-.07-3.26-.18-8-.73-9.72-2.55,2.16-9.42,12.12-15,20.24-9.77,14.16-19.88,28.81-25.39,31.87a1.61,1.61,0,0,1-.7.2l-41.72,2.59c.68,3.4,1.56,7.3,2.53,11.18,4.2,16.81,7.61,23.88,8.87,24.53a7.75,7.75,0,0,0,2.85.48c4.46,0,9.56-2.53,9.61-2.55A1.62,1.62,0,0,1,466.3,449.09Z"></path>
  <path fill="#313131" d="M482.78,421.5c-6.91,4.78-23.39,13.29-23.39,13.29l-16.76-7.58c-2.64-10.57-4.48-20.7-4-22.2a25.18,25.18,0,0,1,2.56-3.62l.63-.1c16.48-6.91,38.82-7.44,43.6-2.13S489.7,416.71,482.78,421.5Z"></path>
  <path fill="#e6aa79" d="M545,447.55c11.17-10.9,26.32-33,26.32-33"></path>
  <path fill="#313131" d="M545 449.21a1.66 1.66 0 0 1-1.15-2.84c10.92-10.66 26-32.5 26.11-32.72a1.65 1.65 0 1 1 2.72 1.87c-.62.91-15.37 22.33-26.53 33.22A1.64 1.64 0 0 1 545 449.21ZM466.3 452.4a1.65 1.65 0 0 1-1.21-.53c-3.62-3.9-8.36-20.1-8.89-21.94a1.65 1.65 0 0 1 3.18-.91c1.37 4.77 5.52 17.78 8.13 20.6a1.65 1.65 0 0 1-.09 2.33A1.61 1.61 0 0 1 466.3 452.4Z"></path>
  <path fill="#e6aa79" d="M578.69,290.09c2,12.56-14.93,18.75-24.52,16-8.81-2.53.48-14.71,3.51-18.63,2.38-3.07,5.38-6.18,9.25-6.51C571.91,280.52,577.89,285.15,578.69,290.09Z"></path>
  <path fill="#313131" d="M559.15,308.39a19.79,19.79,0,0,1-5.44-.71,6.23,6.23,0,0,1-4.58-4c-1.62-4.95,3.36-12.2,7.25-17.22,2.41-3.12,5.78-6.75,10.41-7.15,5.84-.5,12.61,4.84,13.53,10.52a13.27,13.27,0,0,1-3.11,11C573.33,305.43,566.23,308.39,559.15,308.39Zm8.43-25.82-.5,0c-3.36.29-6.09,3.3-8.09,5.88-6.6,8.52-7.29,12.41-6.72,14.17.19.56.63,1.37,2.35,1.86a16.36,16.36,0,0,0,4.53.58c6.06,0,12.31-2.55,15.55-6.36a10,10,0,0,0,2.36-8.37C576.43,286.5,571.65,282.57,567.58,282.57Z"></path>
  <path fill="#e6aa79" d="M497.85,283.32c-4,7.75,5.79,15.34,12.62,15.55,6.26.2,2.76-9.67,1.61-12.86-.91-2.5-2.21-5.15-4.66-6.18C504.27,278.52,499.41,280.27,497.85,283.32Z"></path>
  <path fill="#313131" d="M510.65,300.53h-.23a17.79,17.79,0,0,1-13.59-8.17,9.87,9.87,0,0,1-.45-9.78c1.43-2.8,5.07-4.83,8.66-4.83a7.78,7.78,0,0,1,3,.57c3.12,1.31,4.62,4.5,5.57,7.14,1.64,4.51,3.24,10.08,1.09,13.15A4.69,4.69,0,0,1,510.65,300.53ZM505,281c-2.34,0-4.85,1.33-5.72,3a6.51,6.51,0,0,0,.35,6.6c2.07,3.49,6.93,6.43,10.85,6.55h.13c1,0,1.25-.36,1.36-.52.54-.76,1.06-3.1-1.49-10.13-.72-2-1.8-4.4-3.74-5.21A4.46,4.46,0,0,0,505,281Z"></path>
  <path fill="#e6aa79" d="M663.55,250.32c1,4.37.85,9.06,2.77,13.11s7.08,7.17,10.88,4.78c2.1-1.31,3.07-3.83,3.66-6.23,3.51-14.18-1.61-29.1-8.59-41.94s-15.89-24.73-20.93-38.44c-2.41-6.58-3.89-13.47-6.14-20.11-1.28-3.79-4-8.21-8-7.6-2.34,9.11.16,18.74,3.47,27.54s7.5,17.43,8.67,26.76c.57,4.54.41,9.18,1.43,13.65C653.14,232,661.28,240.13,663.55,250.32Z"></path>
  <path fill="#313131" d="M674.28,270.7c-3.69,0-7.67-2.76-9.46-6.56a29.5,29.5,0,0,1-2.15-8.93c-.21-1.58-.4-3.07-.73-4.53-1.09-4.87-3.57-9.23-6.2-13.84s-5.32-9.32-6.53-14.63a54.18,54.18,0,0,1-1-8.68c-.1-1.7-.22-3.45-.43-5.14-.88-7-3.62-13.9-6.28-20.53-.76-1.91-1.55-3.89-2.29-5.85-3-8-6.13-18.43-3.53-28.53a1.66,1.66,0,0,1,1.35-1.22c4-.62,7.73,2.71,9.76,8.7,1,3,1.92,6.16,2.77,9.19,1,3.6,2.06,7.33,3.37,10.88,3.28,8.95,8.39,17.33,13.32,25.43,2.53,4.15,5.14,8.44,7.51,12.79,9,16.52,11.83,30.63,8.73,43.13-.56,2.28-1.63,5.51-4.38,7.23A7,7,0,0,1,674.28,270.7ZM638.57,155.55c-1.82,8.84,1,18.11,3.7,25.3.72,1.93,1.51,3.89,2.27,5.78,2.73,6.82,5.55,13.87,6.49,21.35.22,1.79.34,3.59.45,5.34a50.9,50.9,0,0,0,.95,8.15c1.1,4.83,3.57,9.16,6.18,13.74S664,244.6,665.16,250c.36,1.6.58,3.24.79,4.81a26.51,26.51,0,0,0,1.86,8c1.23,2.61,4.07,4.66,6.47,4.66a3.78,3.78,0,0,0,2-.57c1.33-.84,2.26-2.5,2.94-5.23,2.88-11.66.12-25-8.44-40.76-2.32-4.28-4.91-8.54-7.42-12.65-5-8.24-10.21-16.75-13.61-26-1.34-3.66-2.41-7.45-3.44-11.12-.84-3-1.71-6.06-2.71-9S640.83,156,638.57,155.55Z"></path>
  <path fill="#e6aa79" d="M639.61,220.06a6.82,6.82,0,0,0-2.47-2.71,2.46,2.46,0,0,0-3.25.76,3.53,3.53,0,0,0-.26,1.62c0,3.89,0,7.78,0,11.67a41.9,41.9,0,0,0,.59,8.81c1.05,5,11.81,21.48,15.55,10.65C652.94,241.53,644.18,227.58,639.61,220.06Z"></path>
  <path fill="#313131" d="M646.08,256.59h0c-6,0-12.72-12-13.52-15.81a44.17,44.17,0,0,1-.62-9.27l0-11.73a5.2,5.2,0,0,1,.43-2.38,3.78,3.78,0,0,1,3.45-2,4.42,4.42,0,0,1,2,.47A8.19,8.19,0,0,1,641,219.2l.4.65c5,8.14,13.24,22,9.87,31.78C649.94,255.54,647.72,256.59,646.08,256.59Zm-10.22-37.88c-.29,0-.47.09-.49.14a3.13,3.13,0,0,0-.09.88l0,11.67a41,41,0,0,0,.55,8.46c.78,3.66,6.85,13,10.29,13h0c.81,0,1.51-.84,2.09-2.5,2.86-8.33-5.23-21.61-9.58-28.75l-.4-.65a5.26,5.26,0,0,0-1.8-2.09A1.15,1.15,0,0,0,635.86,218.71Z"></path>
  <path fill="#e6aa79" d="M535.56,222.34c-1.27,4.94-3.63,10.44-8.52,11.84a7.44,7.44,0,0,1-1.92.29c.45-9.41,1.49-22.39,3.93-31.52,4.25-16-1.07-25.53-5.32-44.67-.1-.43-.19-.86-.29-1.31,2.54-1.25,5.65-1.29,7.75.53,1.83,1.6,2.51,4.11,3.07,6.47C538.7,183.11,540.42,203.31,535.56,222.34Z"></path>
  <path fill="#313131" d="M525.12 235.59c-.44 0-.87.09-1.18-.23a1.38 1.38 0 0 1-.47-1.1c.45-9.41 1.5-22.5 4-31.81 3.1-11.64.89-19.85-2.17-31.26-1-3.7-2.12-7.87-3.16-12.57-.1-.43-.2-.86-.29-1.31a1.63 1.63 0 0 1 .88-1.82 10.07 10.07 0 0 1 4.44-1.07 7.71 7.71 0 0 1 5.12 1.83c2.18 1.9 3 4.67 3.6 7.34 5.25 22.63 5.67 42 1.29 59.16-1.89 7.34-5.14 11.46-9.67 12.76a8.31 8.31 0 0 1-2.34.08Zm.24-77.6c1 4.6 2.13 8.73 3.11 12.37 3.19 11.91 5.5 20.52 2.17 33-2.23 8.37-3.27 20.1-3.76 29.13 3.17-1.08 5.55-4.63 7.07-10.57 4.26-16.65 3.83-35.49-1.3-57.59-.53-2.23-1.11-4.35-2.54-5.59a4.52 4.52 0 0 0-3-1A6.51 6.51 0 0 0 525.36 158ZM536.53 340a1.66 1.66 0 0 1-1.6-1.23 26.76 26.76 0 0 1 9.25-27.34 1.65 1.65 0 0 1 2 2.61 23.33 23.33 0 0 0-8.08 23.88 1.67 1.67 0 0 1-1.6 2.08ZM560.3 252.49a1.59 1.59 0 0 1-.78-.2 1.66 1.66 0 0 1-.67-2.24 27.8 27.8 0 0 1 10.1-10.6 1.65 1.65 0 0 1 1.71 2.83 24.42 24.42 0 0 0-8.9 9.34A1.65 1.65 0 0 1 560.3 252.49ZM661 292a1.55 1.55 0 0 1-.72-.17 30.57 30.57 0 0 1-14.13-14.32 1.66 1.66 0 0 1 3-1.42 27.28 27.28 0 0 0 12.59 12.78A1.65 1.65 0 0 1 661 292ZM627.87 367.58a1.65 1.65 0 0 1-1.17-2.82 19.88 19.88 0 0 0 4.4-20.86 1.65 1.65 0 0 1 3.08-1.21A23.28 23.28 0 0 1 629 367.1 1.64 1.64 0 0 1 627.87 367.58ZM641.33 401.54a10.5 10.5 0 0 1-1.84-.17 1.65 1.65 0 1 1 .6-3.25c3.51.65 7-1.61 10.37-4a33.58 33.58 0 0 0 6.17-5.21 10.32 10.32 0 0 0 2.76-6.61c0-.44 0-.9-.08-1.36-.13-1.62-.29-3.65.94-5.33a1.66 1.66 0 0 1 2.66 2c-.5.68-.41 1.85-.31 3.1 0 .52.09 1.05.09 1.59a13.61 13.61 0 0 1-3.54 8.79 36.48 36.48 0 0 1-6.78 5.75C649.13 399.15 645.39 401.54 641.33 401.54Z"></path>
  <path fill="#da7843" d="M535.07,474.14s63.81,33,107.42,25.53,88.27-58.5,88.27-58.5l7.8,35.1s-32.26,59.2-102.1,59.2-108.83-33.68-108.83-33.68Z"></path>
  <path fill="#313131" d="M636.46,537.12c-69.65,0-109.52-33.74-109.91-34.08a1.66,1.66,0,0,1-.52-1.68l7.45-27.65a1.66,1.66,0,0,1,2.35-1c.51.27,51.66,26.44,92.85,26.44A80.86,80.86,0,0,0,642.21,498c42.52-7.26,86.86-57.45,87.31-58a1.64,1.64,0,0,1,2.85.72l7.8,35.1a1.64,1.64,0,0,1-.16,1.15c-.34.61-8.4,15.23-25.22,30.05C699.25,520.8,673.05,537.12,636.46,537.12Zm-107-35.93c5.87,4.64,44,32.63,107,32.63,35.56,0,61-15.87,76.15-29.19A124,124,0,0,0,736.81,476l-7-31.35c-9.54,10.34-48.32,50-87.07,56.64a83.4,83.4,0,0,1-14.09,1.12c-37.54,0-82.95-21.2-92.54-25.89Z"></path>
  <path fill="#4c4c4c" d="M559,329.65s22.56,9.12,34.57-8.65"></path>
  <path fill="#313131" d="M572,333.59a40.84,40.84,0,0,1-13.68-2.41,1.65,1.65,0,0,1,1.23-3.07h0c.88.35,21.49,8.4,32.59-8a1.65,1.65,0,1,1,2.74,1.85C588.62,331.24,579.56,333.59,572,333.59Z"></path>
  <path fill="#f0c7c0" d="M745.12,364l-41.77,15.3c-7.46,2.74-11.14,11.84-8.24,20.34,2.4,7.06,8.59,11.41,14.89,11.15-5.39,3.79-7.75,11.46-5.27,18.73a16.34,16.34,0,0,0,11,10.73,17,17,0,0,0-2.62,16.22c2.44,7.15,8.77,11.53,15.16,11.14a15.24,15.24,0,0,0-2.44,14.66c2.6,7.62,10.12,11.81,16.8,9.37L780,477.94a11.69,11.69,0,0,0,4.48-2.95,15.18,15.18,0,0,0,2.91-15.28,14.46,14.46,0,0,0-10.71-9.8,14,14,0,0,0,1.86-1.56c3.93-4.13,5.39-10.75,3.25-17.05a16.31,16.31,0,0,0-11-10.73,16.94,16.94,0,0,0,2.66-16.21c-2.4-7.05-8.59-11.4-14.88-11.15a13,13,0,0,0,2-1.69c3.93-4.12,5.39-10.75,3.25-17C761,366,752.57,361.3,745.12,364Z"></path>
  <path fill="#313131" d="M738.67,494c-6.36,0-12.16-4.5-14.44-11.19a17.23,17.23,0,0,1,1-13.68c-6.12-.91-11.47-5.55-13.71-12.12a19,19,0,0,1,1.56-15.92,18.18,18.18,0,0,1-9.9-11,18.6,18.6,0,0,1,3-18,17.84,17.84,0,0,1-12.62-11.91c-3.18-9.32,1-19.38,9.24-22.42l41.77-15.3a14.41,14.41,0,0,1,4.94-.88c7,0,13.42,5,15.93,12.35a18.78,18.78,0,0,1-2.95,18,17.86,17.86,0,0,1,12.58,11.91,18.92,18.92,0,0,1-1.6,15.9,18.2,18.2,0,0,1,9.94,11c2.23,6.55.91,13.74-3.35,18.44a16.54,16.54,0,0,1,9,10c2.06,6,.78,12.69-3.27,16.95a13.36,13.36,0,0,1-5.11,3.36l-37.45,13.72A13,13,0,0,1,738.67,494Zm-10.44-28a1.64,1.64,0,0,1,1.47.91,1.63,1.63,0,0,1-.21,1.8,13.54,13.54,0,0,0-2.13,13.06c1.82,5.36,6.37,8.95,11.31,8.95a9.91,9.91,0,0,0,3.36-.59l37.45-13.72a10,10,0,0,0,3.84-2.54c3.22-3.37,4.21-8.71,2.55-13.61a12.83,12.83,0,0,0-9.46-8.71,1.64,1.64,0,0,1-1.3-1.26,1.67,1.67,0,0,1,.64-1.7,11.72,11.72,0,0,0,1.64-1.36c3.63-3.82,4.76-9.85,2.87-15.37a14.57,14.57,0,0,0-9.86-9.67,1.68,1.68,0,0,1-1.15-1.09,1.66,1.66,0,0,1,.3-1.56,15.33,15.33,0,0,0,2.37-14.63c-2.1-6.17-7.47-10.27-13.25-10a1.65,1.65,0,0,1-1-3,11.78,11.78,0,0,0,1.77-1.48c3.63-3.81,4.76-9.85,2.88-15.37-2.07-6.05-7.21-10.11-12.81-10.11a11.18,11.18,0,0,0-3.8.67l-41.78,15.3c-6.6,2.43-9.85,10.61-7.24,18.26,2.1,6.17,7.48,10.27,13.26,10a1.65,1.65,0,0,1,1,3c-4.94,3.47-6.85,10.4-4.66,16.85a14.64,14.64,0,0,0,9.82,9.66,1.66,1.66,0,0,1,1.15,1.09,1.64,1.64,0,0,1-.3,1.55A15.35,15.35,0,0,0,714.64,456c2.13,6.26,7.65,10.39,13.49,10Z"></path>
  <path fill="#313131" d="M710 413.29a2.48 2.48 0 0 1-.83-4.82l41.88-14.9a2.48 2.48 0 1 1 1.66 4.67l-41.88 14.9A2.39 2.39 0 0 1 710 413.29ZM715.87 444.12a2.48 2.48 0 0 1-.68-4.86l21.61-6.12a2.48 2.48 0 0 1 1.35 4.77L716.55 444A2.71 2.71 0 0 1 715.87 444.12ZM726 470.05a2.48 2.48 0 0 1-.79-4.82l49-16.57a2.48 2.48 0 1 1 1.58 4.7l-49 16.56A2.48 2.48 0 0 1 726 470.05Z"></path>
  <path fill="#eeb857" d="M259.43,623c-6.41-2.14-33-5.43-55.88-5.43H168.1c-22.87,0-49.47,3.29-55.88,5.43-11.75,3.91-10.45,14.18-3.92,70.34,5.39,46.31,32.1,70.31,66.2,75.87l22.65-.07c34.11-5.56,60.81-29.48,66.2-75.79C269.88,637.21,271.19,626.93,259.43,623Z"></path>
  <path fill="#313131" d="M174.5,770.59c-.09,0-.18.13-.27.12C156,767.74,141,760,129.42,747.6c-12.48-13.42-20.14-31.61-22.76-54.12l-.17-1.44c-3.17-27.33-5.09-43.82-4.72-53.83s3-14.65,9.93-16.94,33.4-5.68,56.4-5.68h35.45c23,0,49.66,3.44,56.4,5.68s9.57,6.91,9.94,16.9-1.55,26.54-4.73,53.87L265,693.5c-2.62,22.51-10.27,40.73-22.76,54.14-11.53,12.38-26.61,20.17-44.81,23.14-.09,0-.17-.12-.26-.12l-22.66-.07Zm-6.4-152c-22.32,0-49,3.54-55.36,5.67-10.37,3.46-9.24,13.31-3,67.29l.16,1.52c4.88,41.94,27.85,68.39,64.69,74.46l22.39,0c36.85-6.06,59.82-32.46,64.69-74.36l.17-1.44c6.28-54,7.41-64-3-67.43-6.39-2.13-33-5.66-55.36-5.66Z"></path>
  <path fill="#333" d="M114.72,629.48c.11-1.77,1.68-3.08,3.24-3.92,8.47-4.53,18.78-1.32,28.38-1.24A108.29,108.29,0,0,0,160,623.1c26.65-3.22,53.63-1,80.38,1.33,4.09.36,8.27.74,12,2.48,1.29.6,2.66,1.65,2.58,3.07s-1.44,2.23-2.66,2.81c-6.45,3.1-13.51,4.71-20.57,5.87-17.67,2.89-35.67,3-53.59,3.11-19.81.08-40.17,0-58.6-7.26C117.23,633.59,114.56,632,114.72,629.48Z"></path>
  <path fill="#a5a653" d="M208.32,564.84c2.44-1.66,5.51-2,8.45-2.26a251,251,0,0,1,28.23-.8c7.39.21,14.83.74,22.14-.37s14.62-4.1,19.39-9.75c6.84-8.11,7-20.69,1.47-29.77s-15.74-14.69-26.26-16-21.27,1.25-30.89,5.71a82.63,82.63,0,0,0-35.95,32.34c-9.21-7.5-7.6-22.51-1.11-32.45s16.55-17,23.76-26.45c6.62-8.66,10.75-19.59,9.66-30.44s-8-21.33-18.23-25.1c-13.53-5-29.19,2.9-37.31,14.82s-10.25,26.85-11.15,41.24a309,309,0,0,0,4.28,74,54.17,54.17,0,0,0-34.48-36.65,54.93,54.93,0,0,0-49.72,8.14c-4.42,3.33-8.42,7.5-10.39,12.67-3.6,9.49.64,20.73,8.36,27.32s18.19,9.14,28.34,9.36,20.2-1.66,30.27-2.9c4.48-.55,9.12-1,13.41.41,9.87,3.15,14.62,14.52,15.48,24.84s-.89,20.91,1.68,30.94l27.52-.21c-.91-21.37-1.58-43.89,8.43-62.79A15.63,15.63,0,0,1,208.32,564.84Z"></path>
  <path fill="#313131" d="M167.75,635.59a1.75,1.75,0,0,1-1.6-1.36c-1.66-6.47-1.58-13.24-1.5-19.72,0-3.81.09-7.79-.23-11.6-.77-9.34-4.95-20.41-14.33-23.41a20.05,20.05,0,0,0-6.14-.86,54.91,54.91,0,0,0-6.57.5c-2.35.29-4.7.61-7,.94-7.64,1-15.57,2.14-23.46,2-8.41-.18-20.33-2-29.38-9.75-8.84-7.56-12.47-19.55-8.82-29.16,1.82-4.8,5.5-9.31,10.94-13.41a56.52,56.52,0,0,1,33.9-11.18,54.35,54.35,0,0,1,17.34,2.79A55.61,55.61,0,0,1,161,546.19a310.71,310.71,0,0,1-2.16-60.74c.86-13.77,2.9-29.54,11.44-42.07,7.06-10.36,18.84-17.06,30-17.06a26.8,26.8,0,0,1,9.23,1.62c10.33,3.81,18.08,14.45,19.29,26.49,1.06,10.57-2.48,21.79-10,31.6a116.66,116.66,0,0,1-11,11.87c-4.55,4.49-9.25,9.13-12.74,14.48-5.84,9-7.44,21.79-.62,29a84.57,84.57,0,0,1,35.6-31.26c8.91-4.12,17.63-6.21,26-6.21a46.84,46.84,0,0,1,5.84.36c11.75,1.48,22,7.76,27.47,16.79,6.08,10.05,5.4,23.38-1.62,31.7-5.76,6.82-14.27,9.37-20.4,10.31a69.86,69.86,0,0,1-10.67.71c-2.72,0-5.48-.1-8.15-.2l-3.62-.11a250,250,0,0,0-28,.79c-2.86.24-5.6.57-7.66,2a14.16,14.16,0,0,0-4.09,5.25c-10.07,19-9.06,42.82-8.24,61.95a1.63,1.63,0,0,1-.45,1.2,1.77,1.77,0,0,1-1.19.64l-27.52.34ZM144,575.33a23.06,23.06,0,0,1,7.14,1c10.94,3.49,15.76,15.86,16.62,26.27.33,4,.29,8,.24,11.88-.07,6.1-.14,11.89,1.1,17.54l24.5-.19c-.81-19.22-1.5-42.69,8.69-61.92a17.25,17.25,0,0,1,5.15-6.44c2.72-1.86,5.92-2.26,9.25-2.55a256.46,256.46,0,0,1,28.41-.8l3.64.12c2.64.1,5.36.19,8,.19a66,66,0,0,0,10.17-.67c5.57-.85,13.28-3.14,18.38-9.18,6.12-7.26,6.68-19,1.32-27.85-4.95-8.18-14.31-13.87-25.06-15.22a42.22,42.22,0,0,0-5.43-.34c-7.83,0-16.09,2-24.56,5.91a81.25,81.25,0,0,0-35.22,31.68,1.66,1.66,0,0,1-1.13.78,1.63,1.63,0,0,1-1.33-.34c-9.84-8-8.47-23.9-1.46-34.64,3.69-5.64,8.52-10.41,13.19-15A115,115,0,0,0,216.24,484c6.89-9,10.29-19.67,9.32-29.26-1.08-10.81-8-20.34-17.15-23.72a23.28,23.28,0,0,0-8.08-1.41c-10.12,0-20.83,6.12-27.29,15.61-8.09,11.87-10,27.09-10.87,40.41a307.24,307.24,0,0,0,4.26,73.61,1.65,1.65,0,0,1-3.22.72,52.84,52.84,0,0,0-33.42-35.51,51.13,51.13,0,0,0-16.28-2.62A53.19,53.19,0,0,0,81.6,532.37c-4.94,3.72-8.25,7.74-9.84,11.94-3.12,8.2.2,18.91,7.88,25.48,8.31,7.09,19.43,8.78,27.3,9,7.65.17,15.42-.9,22.94-1.94,2.37-.33,4.73-.65,7.1-.94A58.25,58.25,0,0,1,144,575.33Z"></path>
  <path fill="#333" d="M201.68 556.73a1.62 1.62 0 0 1-1-.37 1.64 1.64 0 0 1-.24-2.32c14.16-17.45 32.92-23.51 46.17-25.53a85.34 85.34 0 0 1 25.6-.2 1.66 1.66 0 0 1-.59 3.26c-.42-.08-42.8-7.26-68.62 24.55A1.64 1.64 0 0 1 201.68 556.73ZM176.87 505.47h-.17a1.65 1.65 0 0 1-1.48-1.81c2.46-24 18.14-53.25 18.8-54.49a1.66 1.66 0 0 1 2.91 1.58c-.16.29-16 29.86-18.42 53.25A1.65 1.65 0 0 1 176.87 505.47ZM153.85 559.83a1.67 1.67 0 0 1-1-.31c-33.53-24.09-66.09-9.78-66.42-9.63a1.65 1.65 0 1 1-1.37-3c.34-.15 34.58-15.28 69.72 10a1.65 1.65 0 0 1-1 3Z"></path>
  <path fill="#313131" d="M417.93 247.38a1.17 1.17 0 0 1-.32 0 1.65 1.65 0 0 1-1.31-1.93l1.1-5.61a1.65 1.65 0 1 1 3.24.63L419.55 246A1.66 1.66 0 0 1 417.93 247.38ZM407.1 243.12a1.64 1.64 0 0 1-1.36-2.58L410 234.4a1.65 1.65 0 0 1 2.72 1.87l-4.22 6.14A1.66 1.66 0 0 1 407.1 243.12ZM429.08 231.88c-11.64 0-18.85-9-18.95-9.15a1.65 1.65 0 0 1 2.6-2c.47.59 11.41 14.16 28.23 4.36a1.65 1.65 0 0 1 1.66 2.86A26.74 26.74 0 0 1 429.08 231.88Z"></path>
  <circle cx="513.86" cy="426.23" r="3.13" fill="#313131"></circle>
  <path fill="#313131" d="M511 442a3.47 3.47 0 1 0-3.47 3.46A3.46 3.46 0 0 0 511 442ZM497.55 435.28a3.46 3.46 0 1 0-3.46 3.46A3.46 3.46 0 0 0 497.55 435.28Z"></path>
  <path fill="#fff" d="M451.18,409.08a6.2,6.2,0,0,1-.3-2.92,4.31,4.31,0,0,1,2.74-2.91,12.85,12.85,0,0,1,4.1-.66l13.64-.69a3.65,3.65,0,0,1,1.8.21,2.62,2.62,0,0,1,1.14,1.27,4.64,4.64,0,0,1-2.37,6.06,10.45,10.45,0,0,1-3.95.41,32.34,32.34,0,0,0-11.23,1.95c-1.22.44-2.59.95-3.74.36S451.49,410.28,451.18,409.08Z"></path>
  <path fill="#e296a7" d="M550.25,41.58s12-56.62,41.36-37.72S572,123.18,572,123.18,479.46,39.94,497.46,18.69,550.25,41.58,550.25,41.58Z"></path>
</svg>
