<svg xmlns="http://www.w3.org/2000/svg" viewBox="0 0 699.91 767.15" id="pet-lover">
  <path fill="#fdf2e0" d="M627.44,501.28c-8.56,83.86-70.28,159.89-150.58,185.51-39.3,12.53-81.17,13.66-122.38,15.43-61.59,2.64-123.88,7.1-182.44,26.35-22.57,7.42-46.56,17.11-69.3,10.23C89,734.66,77.78,725,67,715.51c-22-19.29-44.78-39.61-55.78-66.74C-9.21,598.43,16.32,542.26,19,488c1.88-38.38-7.88-76.22-14.13-114.12s-8.73-78.26,6.78-113.41c14-31.67,41.79-52.76,57.74-83,16.46-31.2,25.11-66.77,48.07-94.32C168.37,22,280.51,7.07,354.51,1.16c39-3.12,85-1.66,115.36,26.6,32.51,30.25,32.18,80,35.34,121A251.19,251.19,0,0,0,552.62,277c18,24.6,40.63,46.14,54.13,73.47,11.56,23.39,15.72,49.67,18.63,75.59C628.2,451,630,476.27,627.44,501.28Z"></path>
  <path fill="#333" d="M413.18,624.71s20.83,17,36,71.95,10.8,44,10.8,44l-296.71-8s9.47-92.78,24.61-130.65S413.18,624.71,413.18,624.71Z"></path>
  <path fill="#313131" d="M110.53,692.19c-5.8,4.85-14.1,8.48-19.8,12.11a72.76,72.76,0,0,0-8.26,6.61,62,62,0,0,0-10.54,14.72A115,115,0,0,0,97.42,746c-1-9.74.73-19.37,7.35-28.52,4.3-6.44,12.94-10.4,19.46-16.72A43.86,43.86,0,0,1,110.53,692.19Z"></path>
  <path fill="#313131" d="m99.38 749.12-2.8-1.67a116.74 116.74 0 0 1-25.86-20.69l-.79-.85.53-1a64.15 64.15 0 0 1 10.82-15.11 53.9 53.9 0 0 1 6.5-5.33l2-1.45.11-.07c2.06-1.32 4.42-2.61 6.91-4 4.47-2.45 9.09-5 12.71-8l1.11-.93 1.06 1a42.16 42.16 0 0 0 13.19 8.27l2.41.93-1.86 1.8a79.13 79.13 0 0 1-8.79 7c-4.15 3-8.06 5.85-10.44 9.41-5.8 8-8.11 17-7.08 27.44ZM73.94 725.36A112.61 112.61 0 0 0 95.56 743a40.81 40.81 0 0 1 7.88-26.4c2.67-4 6.82-7 11.21-10.21 2.2-1.6 4.46-3.23 6.56-5a45.72 45.72 0 0 1-10.73-6.95 92 92 0 0 1-12.14 7.48c-2.42 1.33-4.7 2.58-6.67 3.83l-1.93 1.43a50.38 50.38 0 0 0-6.1 5A60.77 60.77 0 0 0 73.94 725.36ZM39.87 651.14c14.42-3.41 31.06 3.31 47-.4A180.71 180.71 0 0 1 81.39 630c-14.3-3.31-28.65-9.24-43.34-13.4A190 190 0 0 0 39.87 651.14Z"></path>
  <path fill="#313131" d="M75.78,653.55c-4.6,0-9.22-.46-13.68-.9s-8.56-.86-12.65-.86a39.81,39.81,0,0,0-9.2,1l-1.75.41-.26-1.78a192,192,0,0,1-1.84-34.84l.08-2.1,2,.57c6.21,1.76,12.42,3.85,18.43,5.88,8.17,2.75,16.62,5.6,24.84,7.5l1,.24.21,1a178.76,178.76,0,0,0,5.4,20.56l.56,1.71-1.76.41A49.7,49.7,0,0,1,75.78,653.55Zm-26.33-5.06c4.26,0,8.69.44,13,.87s8.91.89,13.35.89a49.16,49.16,0,0,0,8.92-.75A180.63,180.63,0,0,1,80,631.36c-8-1.92-16.21-4.68-24.12-7.34-5.31-1.79-10.78-3.64-16.23-5.24a188,188,0,0,0,1.62,30.38A45.85,45.85,0,0,1,49.45,648.49Z"></path>
  <path fill="#e6aa79" d="M54.39,555.62a18.89,18.89,0,0,0-3.32-1.92,194.52,194.52,0,0,0-13,62.9c14.69,4.16,29,10.09,43.34,13.4a184.46,184.46,0,0,1-3.22-47.36C71,572.94,64,563.41,54.39,555.62Z"></path>
  <path fill="#313131" d="M81.39,631.65a1.61,1.61,0,0,1-.37,0c-8.37-1.94-16.9-4.81-25.15-7.59-6-2-12.14-4.09-18.27-5.83a1.65,1.65,0,0,1-1.2-1.65A195.23,195.23,0,0,1,49.53,553.1a1.63,1.63,0,0,1,.91-.93,1.7,1.7,0,0,1,1.31,0,20.82,20.82,0,0,1,3.61,2.09l.07.06c9.49,7.71,16.29,16.85,23.48,26.52l.59.79a1.69,1.69,0,0,1,.32,1.09A182.25,182.25,0,0,0,83,629.67a1.63,1.63,0,0,1-.47,1.51A1.61,1.61,0,0,1,81.39,631.65ZM39.76,615.37c5.79,1.68,11.56,3.63,17.17,5.52,7.35,2.47,14.92,5,22.36,6.9a186,186,0,0,1-2.81-44.65l-.22-.3c-7.06-9.5-13.73-18.47-22.88-25.91A14,14,0,0,0,52,556,191.89,191.89,0,0,0,39.76,615.37Z"></path>
  <path fill="#313131" d="M87.58,524.73c-1-6.83-6.78-13.55-13.66-12.93a183.83,183.83,0,0,0-22.85,41.9,18.89,18.89,0,0,1,3.32,1.92c9.59,7.79,16.57,17.32,23.78,27a179.38,179.38,0,0,1,6.32-37.59C86.36,538.4,88.63,531.56,87.58,524.73Z"></path>
  <path fill="#313131" d="M79.54,587.25l-3.28-4.41c-7.06-9.5-13.73-18.47-22.88-25.91a16.36,16.36,0,0,0-3-1.72L49,554.56l.57-1.46a185.37,185.37,0,0,1,23.06-42.27l.44-.6.74-.07c.35,0,.7-.05,1-.05,7.63,0,13.32,7.31,14.41,14.37,1,6.53-.83,12.92-2.6,19.11l-.54,1.91a178,178,0,0,0-6.26,37.24ZM53.16,552.76a20.46,20.46,0,0,1,2.2,1.46l.07.09c8.58,7,15,15.12,21.42,23.77A179.86,179.86,0,0,1,82.9,544.6c.18-.64.36-1.28.55-1.93,1.67-5.84,3.39-12,2.5-17.82-.86-5.57-5.36-11.7-11.14-11.7h0A182.26,182.26,0,0,0,53.16,552.76Z"></path>
  <path fill="#e6aa79" d="M90.48,660.85q-2-5-3.64-10.11c-15.91,3.71-32.55-3-47,.4a182,182,0,0,0,6,26.66c3.87,12.69,9.13,25,16.62,36a100.55,100.55,0,0,0,9.48,11.84,62,62,0,0,1,10.54-14.72,72.76,72.76,0,0,1,8.26-6.61c5.7-3.63,14-7.26,19.8-12.11C101.51,684,95.06,672.38,90.48,660.85Z"></path>
  <path fill="#313131" d="M71.93,727.28a1.66,1.66,0,0,1-1.21-.52,104.19,104.19,0,0,1-9.64-12c-6.94-10.16-12.45-22.08-16.83-36.44a182.92,182.92,0,0,1-6-26.9,1.65,1.65,0,0,1,1.25-1.85,43.16,43.16,0,0,1,10-1c4.26,0,8.69.44,13,.87s8.91.89,13.35.89a47.16,47.16,0,0,0,10.68-1.11,1.65,1.65,0,0,1,2,1.09c1.11,3.39,2.32,6.76,3.61,10,5.31,13.4,11.92,23.74,19.62,30.73a1.64,1.64,0,0,1,0,2.49c-3.87,3.23-8.63,5.85-13.25,8.37-2.42,1.33-4.7,2.58-6.67,3.83l-1.93,1.43a50.38,50.38,0,0,0-6.1,5,60.94,60.94,0,0,0-10.25,14.32,1.65,1.65,0,0,1-1.24.88ZM41.74,652.43a179.4,179.4,0,0,0,5.67,24.89c4.28,14,9.65,25.66,16.4,35.54a99.69,99.69,0,0,0,7.77,9.93,64.37,64.37,0,0,1,9.7-13,53.9,53.9,0,0,1,6.5-5.33l2-1.45.11-.07c2.06-1.32,4.42-2.61,6.91-4A95.09,95.09,0,0,0,108,692.09c-7.48-7.28-13.88-17.58-19.06-30.63-1.13-2.86-2.21-5.81-3.22-8.79a52,52,0,0,1-10,.88c-4.6,0-9.22-.46-13.68-.9s-8.56-.86-12.65-.86A42.23,42.23,0,0,0,41.74,652.43Z"></path>
  <path fill="#e6aa79" d="M224.54,749.73c-4.13-14-19-19-31.38-27.26-1.66-1.65-4.13-3.3-5.79-6.61A29.73,29.73,0,0,1,186,696.37l-21.35,4.17c-12.72,2.49-26.09,4.94-38.42,1-.69-.22-1.36-.47-2-.72-6.52,6.32-15.16,10.28-19.46,16.72-6.62,9.15-8.3,18.78-7.35,28.52a140.38,140.38,0,0,0,48.1,17.43c27.09,4.58,54.86,2.08,81.76-4A76.54,76.54,0,0,0,224.54,749.73Z"></path>
  <path fill="#313131" d="M174.56,767.15h0a175.64,175.64,0,0,1-29.31-2.23,142.36,142.36,0,0,1-48.67-17.55,1.59,1.59,0,0,1-.8-1.22c-1.11-11.3,1.4-21,7.66-29.62,2.67-4,6.82-7,11.21-10.2a75.44,75.44,0,0,0,8.43-6.74,1.68,1.68,0,0,1,1.75-.35c.73.28,1.35.5,1.93.69a45,45,0,0,0,14,2c8.11,0,16.71-1.68,23.62-3l21.35-4.17a1.65,1.65,0,0,1,1.92,2,27.86,27.86,0,0,0,1.24,18.39,16.29,16.29,0,0,0,4.1,4.89c.44.39.85.76,1.23,1.13,2.85,1.89,5.88,3.64,8.81,5.33,9.71,5.6,19.75,11.38,23.11,22.71a77.42,77.42,0,0,1,2.77,9.93,1.49,1.49,0,0,1-1.25,1.79A239.76,239.76,0,0,1,174.56,767.15ZM99,745a139.5,139.5,0,0,0,46.81,16.78,173.2,173.2,0,0,0,28.76,2.33h0a235.05,235.05,0,0,0,50.75-5.93,78.67,78.67,0,0,0-2.32-8l0-.08c-3-10.08-12-15.3-21.6-20.82-3-1.74-6.15-3.54-9.12-5.53a1.22,1.22,0,0,1-.25-.2c-.37-.37-.79-.74-1.22-1.13a19.08,19.08,0,0,1-4.87-5.91.25.25,0,0,1,0-.07,30.9,30.9,0,0,1-2-18.06L165,702.17c-7.05,1.37-15.83,3.09-24.26,3.09a48.12,48.12,0,0,1-15-2.18c-.36-.12-.73-.24-1.13-.39a87.38,87.38,0,0,1-8,6.33c-4.15,3-8.06,5.85-10.44,9.41C100.5,726.23,98.17,734.93,99,745Z"></path>
  <path fill="#fff" d="M258.6,688.5c-13.9-3.47-28.51-.73-42.58,2l-30,5.86a29.73,29.73,0,0,0,1.34,19.49c1.66,3.31,4.13,5,5.79,6.61,12.39,8.26,27.25,13.22,31.38,27.26a76.54,76.54,0,0,1,2.74,9.76q8.34-1.89,16.55-4.18c9.73-2.72,19.56-5.91,27.66-11.94s14.33-15.4,14.2-25.5C285.49,703.54,272.51,692,258.6,688.5Z"></path>
  <path fill="#333" d="M227.28 761.14a1.61 1.61 0 0 1-.9-.27 1.63 1.63 0 0 1-.72-1 75.1 75.1 0 0 0-2.67-9.54l0-.09c-3-10.08-12-15.3-21.6-20.82-3-1.74-6.15-3.54-9.12-5.52a1.73 1.73 0 0 1-.25-.21c-.37-.37-.79-.74-1.22-1.13a19.08 19.08 0 0 1-4.87-5.91.25.25 0 0 1 0-.07A31.52 31.52 0 0 1 184.42 696a1.67 1.67 0 0 1 1.29-1.23l30-5.86c8.83-1.72 18.83-3.68 28.71-3.68A59.6 59.6 0 0 1 259 686.9c13.92 3.47 28.13 15.22 28.34 30.94.13 9.8-5.43 19.84-14.86 26.85-8.61 6.41-19.08 9.66-28.21 12.21-5.6 1.56-11.19 3-16.63 4.2A2.2 2.2 0 0 1 227.28 761.14Zm-1.16-11.92a78.76 78.76 0 0 1 2.41 8.29c4.88-1.13 9.86-2.4 14.86-3.8 8.84-2.46 19-5.6 27.12-11.67 8.58-6.38 13.64-15.41 13.52-24.15-.19-14.06-13.13-24.62-25.83-27.79a56.5 56.5 0 0 0-13.79-1.58c-9.56 0-19.4 1.92-28.07 3.61l-29 5.66a27.61 27.61 0 0 0 1.48 17.37 16.29 16.29 0 0 0 4.1 4.89c.44.39.85.76 1.23 1.13 2.85 1.89 5.88 3.64 8.81 5.33C212.72 732.11 222.76 737.89 226.12 749.22ZM262.44 279.85C254.1 272 245.66 264 239.68 254.28a65.66 65.66 0 0 1-4-60c5.75-12.94 16-24.82 15.6-39-.13-4.9-1.55-9.67-2.7-14.44a128.79 128.79 0 0 1-3.51-26c-.45-13.5 1.31-27.3 7-39.54 9.47-20.24 29.11-34.43 50.32-41.48s44-7.7 66.33-6.71c15.73.7 31.61 2.23 46.47 7.41S444.05 49 452.42 62.29c9.49 15.11 11 33.83 10.55 51.67s-2.6 35.84.56 53.4c6 33.09 29.58 59.68 46.66 88.63 19 32.19 30.1 73.35 13 106.58a94.88 94.88 0 0 1-17.45 23.15C488.46 403 465.3 416 440.86 415.47c-33.18-.67-60.61-24.8-84.78-47.54Z"></path>
  <path fill="#ce5044" d="M411.84,244.44c42,72.83,50.41,53.65,54.3,144.63S429.24,546.72,429,570.88s19.6,46.4,1.2,60.46-71-11.36-71-11.36-136.12,14.79-170.1,7.73,7.1-150.53,7.1-150.53l46.4-196.81Z"></path>
  <path fill="#313131" d="M414.33,637.23c-21.79,0-51.33-13.63-55.4-15.56-7.05.75-90.9,9.6-140.51,9.6-13.46,0-23.44-.66-29.64-1.95-3.87-.8-7-3.18-9.38-7.09-17.73-29.33,13.87-140.77,15.22-145.5L241,280a1.65,1.65,0,0,1,1.27-1.24L411.5,242.82a1.67,1.67,0,0,1,1.78.8c11.28,19.58,20.07,32.4,27.13,42.7,19.32,28.19,24.52,35.77,27.38,102.68,2.64,61.79-15.25,112.53-27.1,146.11-5.55,15.77-9.95,28.22-10,35.79-.08,8.58,2.44,16.9,4.88,24.94,4.24,14,8.24,27.2-4.34,36.81C427.25,635.69,421.56,637.23,414.33,637.23Zm-55.12-18.91a1.62,1.62,0,0,1,.72.17c.32.15,32.21,15.44,54.4,15.43,6.49,0,11.5-1.31,14.89-3.89,10.76-8.22,7.41-19.26,3.18-33.23-2.52-8.28-5.11-16.84-5-25.93.08-8.12,4.33-20.17,10.21-36.86,11.75-33.34,29.52-83.72,26.91-144.87-2.82-66-7.9-73.38-26.81-100.95-7-10.16-15.61-22.77-26.67-41.89L244,281.77,197.82,477.56c-.35,1.22-32.59,114.85-15.6,143,1.89,3.12,4.26,4.94,7.23,5.56,6,1.24,15.73,1.87,29,1.87,51.38,0,139.73-9.53,140.62-9.63Z"></path>
  <path fill="#f0c7c0" d="M411.84,244.44a23.85,23.85,0,0,1-14-10c-9-14.31-5.73-65.21-5.73-65.21s6.16,1.5,13.21-4.36c15-12.48,12.88-33.84-6.5-41s-29.06,6.34-29.06,6.34c-7.75,4.28-22.1,3.44-22.18-35.41,0-25-22.47-49.65-22.47-49.65s-37.18,8-44.57,28.87c-3.29,9.3-4,18.76-4.07,27-.06,10.21,1,18.43-.53,21.84-3.33,7.63-11.3,18.3-11.3,18.3s1.32,8.39,7.18,13.33c0,0-1.45,36.7,17.93,56.28.18.18.36.37.55.54,12.37,12,34.31,7.48,48.55,2.62,2.56,13.83,7.34,43.59,2.09,49.1a9,9,0,0,1-2.17,1.53C364.13,264.08,388,254.5,411.84,244.44Z"></path>
  <path fill="#313131" d="M338.76,266.15A1.67,1.67,0,0,1,338,263a7.15,7.15,0,0,0,1.76-1.22c3.18-3.34,2.34-20.81-2.17-45.79-9.27,3-17.73,4.53-25.17,4.53-9.86,0-17.67-2.73-23.22-8.11-.16-.14-.31-.29-.46-.44l-.13-.13c-18.31-18.51-18.55-51.1-18.45-56.74-5.73-5.3-7.07-13.44-7.13-13.8a1.61,1.61,0,0,1,.31-1.24c.08-.11,7.89-10.61,11.11-18,.86-2,.71-6.54.55-11.85-.09-2.8-.19-6-.17-9.34,0-6.86.52-17.18,4.17-27.49,7.61-21.52,44.23-29.61,45.78-29.94a1.66,1.66,0,0,1,1.57.5c.94,1,22.86,25.39,22.91,50.77,0,22.56,5.21,35.5,14.17,35.5a11.44,11.44,0,0,0,5.25-1.38,24.78,24.78,0,0,1,19.25-8.8,33.11,33.11,0,0,1,11.48,2.2c9.39,3.47,15.62,10.43,17.11,19.1,1.53,8.94-2.26,18.18-10.12,24.72-5.15,4.28-9.95,4.92-12.36,4.92h-.36c-.47,9-2.16,50.26,5.58,62.51,2.85,4.51,7.25,7.65,13.07,9.33a1.66,1.66,0,0,1,1.19,1.49,1.69,1.69,0,0,1-1,1.64c-25.57,10.8-48.76,20.17-73.71,20.17Zm.08-54a1.63,1.63,0,0,1,1.63,1.35c3.44,18.59,6.53,41.53,2.63,49.12,21.49-1.22,42-8.81,64.22-18.11a24.18,24.18,0,0,1-10.88-9.27c-9.23-14.59-6.13-64.1-6-66.2a1.66,1.66,0,0,1,.67-1.22,1.63,1.63,0,0,1,1.37-.27h0a8.14,8.14,0,0,0,1.52.12c2,0,5.9-.54,10.24-4.15,6.95-5.77,10.31-13.86,9-21.62-1.28-7.48-6.75-13.51-15-16.56a29.8,29.8,0,0,0-10.34-2,21.49,21.49,0,0,0-16.81,7.76,1.78,1.78,0,0,1-.54.48,15.15,15.15,0,0,1-7.15,1.95c-6.5,0-17.41-5-17.48-38.8,0-21.76-17.81-43.62-21.41-47.83-5.74,1.41-36.06,9.61-42.42,27.59-3.49,9.85-3.94,19.79-4,26.41,0,3.31.08,6.45.16,9.22.19,6.17.33,10.64-.82,13.27-3,6.77-9.31,15.65-11.06,18,.44,2,2.09,8,6.48,11.67a1.66,1.66,0,0,1,.59,1.33c0,.36-1.18,36.23,17.45,55.06l.12.12c.12.11.23.23.35.33l.07.06c4.91,4.78,11.95,7.21,20.94,7.21,7.56,0,16.28-1.67,25.92-5A1.89,1.89,0,0,1,338.84,212.19Z"></path>
  <path fill="#333" d="M375.92,154.15c-.9,0-1.64-.34-1.65-1.25-.06-6.7,5.3-14.23,12-17,3.67-1.54,11-2.85,18.85,5a1.7,1.7,0,0,1,0,2.38,1.66,1.66,0,0,1-2.34,0c-6.15-6.17-11.68-5.68-15.23-4.19-6,2.51-10,9-9.92,13.75,0,.91-.73,1.29-1.64,1.29Z"></path>
  <path fill="#333" d="M391.28 151.53a1.63 1.63 0 0 1-1.35-.7l-6.9-9.74a1.65 1.65 0 0 1 2.7-1.91l6.9 9.74a1.66 1.66 0 0 1-1.35 2.61ZM287.16 177.07a31.68 31.68 0 0 1-8-1 1.65 1.65 0 1 1 .82-3.2c18.68 4.83 30.78-10.79 30.9-10.94a1.65 1.65 0 1 1 2.63 2C313.45 164 303.35 177.07 287.16 177.07Z"></path>
  <path fill="#333" d="M315.85 167.47a1.66 1.66 0 0 1-1.15-.47l-6.91-6.75a1.65 1.65 0 1 1 2.3-2.36l6.92 6.74a1.67 1.67 0 0 1 0 2.34A1.68 1.68 0 0 1 315.85 167.47ZM322.81 84.4a1.65 1.65 0 0 1-1.37-.72c-14.36-21.06.22-36.84.37-37a1.66 1.66 0 1 1 2.4 2.28c-.54.57-12.86 14.07 0 32.86a1.67 1.67 0 0 1-.43 2.3A1.68 1.68 0 0 1 322.81 84.4ZM303.27 73.58a1.64 1.64 0 0 1-1.54-1c-3.79-9.71 13.14-27.83 15.09-29.87a1.65 1.65 0 0 1 2.39 2.28c-4.88 5.11-17 19.81-14.41 26.39a1.64 1.64 0 0 1-1.53 2.25ZM331.76 139.53a1.67 1.67 0 0 1-1.33-.66L325.3 132a1.65 1.65 0 0 1 2.65-2l5.13 6.87a1.65 1.65 0 0 1-.33 2.31A1.68 1.68 0 0 1 331.76 139.53ZM320.54 142a1.65 1.65 0 0 1-1.52-1l-2.56-5.93a1.66 1.66 0 0 1 3-1.31l2.55 5.94a1.65 1.65 0 0 1-.86 2.17A1.71 1.71 0 0 1 320.54 142ZM290.86 92.37c.07-2.66 3.69-4.71 8.08-4.59s7.88 2.38 7.81 5-3.69 4.71-8.08 4.59S290.79 95 290.86 92.37Z"></path>
  <path fill="#fff" d="M212.47,524.36c13.25-13.26,20.83-29.35,32.19-45.45,20.83-26.51,36-54.91,28.4-89.94-9.47-44.5-50.18-81.42-95.62-73.84-15.15,2.84-24.62,18.93-27.46,35-6.62,31.25,3.79,60.6-1.89,91.84-6.74,34.54-.71,73.57,26,94.43,5.65,1.45,15.35,3.84,18.69,4.05C198.69,534.41,206.91,530.71,212.47,524.36Z"></path>
  <path fill="#333" d="M192.83,542.12h-.11c-3.31-.21-12.16-2.35-19-4.1a1.74,1.74,0,0,1-.61-.3c-29.05-22.64-32.81-64.46-26.65-96.05,2.72-14.95,1.67-29.82.65-44.19-1.08-15.43-2.21-31.38,1.25-47.67,2.59-14.72,11.7-33.11,28.76-36.31a74.27,74.27,0,0,1,12.22-1c39.41,0,76.09,32.74,85.33,76.15,8.17,37.81-9.91,67.36-28.7,91.27-3.79,5.37-7.18,10.79-10.47,16-6.65,10.61-12.93,20.63-21.83,29.55-3.07,3.49-6.89,6.2-10.58,8.82a63.23,63.23,0,0,0-9.08,7.31A1.69,1.69,0,0,1,192.83,542.12Zm-18-7.22c8.34,2.13,14.53,3.51,17.33,3.85a70.86,70.86,0,0,1,9-7.13c3.72-2.64,7.23-5.13,10-8.35a.27.27,0,0,1,.07-.08c8.66-8.66,14.85-18.54,21.41-29,3.32-5.29,6.75-10.76,10.6-16.22l.05-.07c18.32-23.31,36-52.07,28.09-88.57-8.92-41.92-44.22-73.53-82.1-73.53a70.24,70.24,0,0,0-11.64,1c-15.38,2.88-23.68,19.95-26.1,33.68-3.37,15.89-2.26,31.61-1.19,46.8,1,14.58,2.09,29.66-.7,45C143.76,472.83,147.26,513.13,174.88,534.9Z"></path>
  <path fill="#313131" d="M282.53,444.83c3.1,9.93,11.9,10.91,21.06,10.41,1.65-11.18,2.9-23.32,3.52-36.38C293.25,418.13,278.46,429.38,282.53,444.83Z"></path>
  <path fill="#313131" d="M300.09 457h0c-6.65 0-15.87-1.21-19.14-11.67a20.33 20.33 0 0 1 3.55-18 27.33 27.33 0 0 1 22.69-10.09l1.64.09-.07 1.64c-.59 12.37-1.78 24.67-3.54 36.54l-.2 1.33-1.34.07C302.37 457 301.19 457 300.09 457Zm5.28-36.51c-7.08.15-14.21 3.58-18.26 8.84a16.88 16.88 0 0 0-3 15.09c2 6.48 6.8 9.28 16 9.28h0c.65 0 1.33 0 2.06 0C303.7 442.85 304.79 431.71 305.37 420.48ZM107.38 430.63c6.63-2.84 8.52-13.26 5.68-19.88s-9.47-10.42-15.15-16.1c-7.57-9.47 0-23.67-9.46-32.19a83.79 83.79 0 0 0-10.08-6.86c-.94 1.41-1.88 2.77-2.85 4.08-7.86 10.67-14.92 25.51-20 42C72.53 414.56 84 442.73 107.38 430.63Z"></path>
  <path fill="#313131" d="M96.4 435.15h0c-11.53 0-20.14-9.61-28.47-18.95-4.26-4.76-8.65-9.67-13.37-13.25l-.91-.69.33-1.09c5.07-16.58 12.25-31.66 20.21-42.47.91-1.23 1.82-2.55 2.8-4l.85-1.28 1.33.75a82.47 82.47 0 0 1 10.29 7l.09.08c5.53 5 5.79 11.56 6 17.93.2 5.33.4 10.36 3.57 14.38 1.68 1.68 3.48 3.21 5.21 4.69 4.17 3.56 8.1 6.91 10.22 11.86 3.15 7.34 1 18.74-6.49 22A25.52 25.52 0 0 1 96.4 435.15Zm-38.92-34.1c4.61 3.69 8.82 8.53 12.91 13.1 8.21 9.2 16 18 26 18h0a22.28 22.28 0 0 0 10.22-2.88l.11-.11c3.5-1.49 4.91-5.3 5.44-7.43a16.82 16.82 0 0 0-.63-10.32c-1.81-4.23-5.46-7.35-9.32-10.65-1.81-1.54-3.68-3.14-5.48-4.94l-.12-.14c-3.9-4.87-4.12-10.72-4.34-16.38-.23-5.93-.44-11.53-4.9-15.57a82.42 82.42 0 0 0-8.51-5.92c-.69 1-1.36 1.95-2 2.85C69.27 371 62.42 385.26 57.48 401.05ZM79 474.18c5.9-21.65-12.74-26-31.05-28.88-.49 12.17.52 24.08 3.49 34.86C60.93 480.48 70.22 479.09 79 474.18Z"></path>
  <path fill="#313131" d="M54,481.15h0c-.87,0-1.74.34-2.61.31l-1.21.13-.32-1.08a115.65,115.65,0,0,1-3.55-35.32l.07-1.83,1.83.3c12.56,2,25.28,4.59,30.83,13.14,3,4.63,3.52,10.62,1.56,17.81l-.18.67-.61,0C72.29,479.46,63.85,481.15,54,481.15Zm-1.27-2.61H54c9,0,16.75-1.79,23.59-5.48,1.52-6,1.09-10.75-1.33-14.47-4.54-7-15.93-9.62-26.71-11.37A112.37,112.37,0,0,0,52.7,478.54Z"></path>
  <path fill="#e6aa79" d="M305.51,360c-11.34-113.23-64.44-149.78-64.44-149.78L135.12,199.57c-12.75.55-16.72,23.4-19.21,43.11-2.39,18.94-14.69,78.55-37.54,112.92a83.79,83.79,0,0,1,10.08,6.86c9.46,8.52,1.89,22.72,9.46,32.19,5.68,5.68,12.31,9.47,15.15,16.1s1,17-5.68,19.88c-23.35,12.1-34.85-16.07-51.82-29a175.8,175.8,0,0,0-7.63,43.65c18.31,2.85,36.95,7.23,31.05,28.88-8.76,4.91-18.05,6.3-27.56,6a67.6,67.6,0,0,0,12.19,24.72c29.75,36.91,99,78.5,117.69,64.63s-11.39-34.2-11.39-34.2l4.23,1.11c-26.76-20.86-32.79-59.89-26-94.43,5.68-31.24-4.73-60.59,1.89-91.84,2.84-16.09,12.31-32.18,27.46-35,45.44-7.58,86.15,29.34,95.62,73.84,7.57,35-7.57,63.43-28.4,89.94-11.36,16.1-18.94,32.19-32.19,45.45-5.56,6.35-13.78,10-19.64,16.11l.34,0c4.24.07-1.54,6.29,1.88,12.68s66.68,29.69,87.37,20.59-5.07-31.71-5.07-31.71,8-13.92,15.75-39.52c-5.61-.31-11.61-1.49-17.2,1-7.57,2.84-18.93,5.68-21.77-1.9-4.74-14.2,12.3-18.93,22.72-23.66,7.09-3.16,16.15-7.62,23.36-3.56,1.24-6,2.38-12.43,3.38-19.17-9.16.5-18-.48-21.06-10.41-4.07-15.45,10.72-26.7,24.58-26A399.5,399.5,0,0,0,305.51,360Z"></path>
  <path fill="#313131" d="M269.66,577.49c-11.79,0-28.83-3.43-46.73-9.41-9.85-3.28-27.1-10-29.33-14.13-2-3.81-1.27-7.54-.76-10a6.79,6.79,0,0,0,.31-1.79h0l-.4,0a1.65,1.65,0,0,1-1.1-2.8,66.58,66.58,0,0,1,9.54-7.7c3.72-2.64,7.23-5.13,10-8.35a.27.27,0,0,1,.07-.08c8.66-8.66,14.85-18.54,21.41-29,3.32-5.29,6.75-10.76,10.6-16.22l.05-.07c18.32-23.31,36-52.07,28.09-88.57-8.92-41.92-44.22-73.53-82.1-73.53a70.24,70.24,0,0,0-11.64,1c-15.38,2.88-23.68,19.95-26.1,33.68-3.37,15.89-2.26,31.61-1.19,46.8,1,14.58,2.09,29.66-.7,45-6,30.65-2.44,71.11,25.43,92.83a1.64,1.64,0,0,1,.47,2,1.73,1.73,0,0,1-.2.32c5.34,4.49,13.45,12.67,13.64,21.15.1,4.69-2.17,8.8-6.77,12.22-2.73,2-6.46,3.06-11.09,3.06-26.29,0-82.25-34.94-108.87-68a69.07,69.07,0,0,1-12.5-25.32,1.66,1.66,0,0,1,.29-1.46,1.64,1.64,0,0,1,1.36-.63c.83,0,1.66,0,2.49,0,9,0,16.75-1.79,23.59-5.48,1.52-6,1.09-10.75-1.33-14.47-4.8-7.41-17.25-9.9-28.56-11.66a1.65,1.65,0,0,1-1.39-1.7A177.78,177.78,0,0,1,54,401.17a1.66,1.66,0,0,1,1.07-1.09,1.64,1.64,0,0,1,1.51.26c5,3.78,9.48,8.83,13.83,13.71,8.21,9.2,16,17.88,26,17.88a21.94,21.94,0,0,0,10.22-2.77l.11-.05c3.5-1.5,4.91-5.28,5.44-7.4a16.78,16.78,0,0,0-.63-10.31c-1.81-4.23-5.46-7.35-9.32-10.64-1.81-1.55-3.68-3.14-5.48-4.94l-.12-.14c-3.9-4.87-4.12-10.73-4.34-16.38-.23-5.93-.44-11.53-4.9-15.57A79.47,79.47,0,0,0,77.56,357a1.64,1.64,0,0,1-.57-2.35c21.55-32.42,34.43-89.6,37.28-112.22,2.88-22.79,7.39-44,20.77-44.55h.24l106,10.66a1.69,1.69,0,0,1,.77.29c.55.38,13.72,9.6,28.43,32.91,13.5,21.4,30.83,59.25,36.72,118.06a404,404,0,0,1,1.6,59.09,1.66,1.66,0,0,1-.55,1.15,1.62,1.62,0,0,1-1.19.42c-7.6-.4-15.54,3.14-19.91,8.81a16.88,16.88,0,0,0-3,15.09c2,6.48,6.8,9.28,16,9.28,1,0,2.16,0,3.41-.1a1.67,1.67,0,0,1,1.31.53,1.69,1.69,0,0,1,.41,1.36c-1,6.61-2.12,13.09-3.39,19.27a1.64,1.64,0,0,1-2.43,1.1,11.31,11.31,0,0,0-5.72-1.41c-4.92,0-10.29,2.41-15,4.53l-1.13.5c-1.36.62-2.82,1.24-4.37,1.89-11.95,5-20.82,9.65-17.46,19.75.94,2.49,3.23,3.73,7,3.73,3.31,0,7.54-1,12.59-2.84a21.49,21.49,0,0,1,8.94-1.67c2,0,3.92.16,5.81.31,1.06.09,2.12.18,3.16.24a1.65,1.65,0,0,1,1.49,2.12c-6.56,21.65-13.2,34.86-15.26,38.71,3.38,3.2,14,14.13,12.56,23.59-.66,4.32-3.66,7.67-8.89,10C279.74,576.75,275.22,577.49,269.66,577.49Zm-73.87-37.57,0,0c1,1.23.65,2.82.27,4.67-.47,2.24-1,5,.43,7.78,2.43,4.53,46.83,21.8,73.15,21.8,5.1,0,9.17-.65,12.1-1.94,4.19-1.84,6.47-4.28,7-7.45,1.42-9.19-12.32-21.38-12.46-21.51a1.65,1.65,0,0,1-.34-2.06c.08-.13,7.58-13.35,15-37.2l-1.15-.09c-1.82-.15-3.71-.31-5.54-.31a18.34,18.34,0,0,0-7.65,1.41l-.09,0c-5.43,2-10.07,3.08-13.79,3.08-6.52,0-9.1-3.23-10.11-5.94-4.62-13.86,9.2-19.66,19.29-23.9,1.52-.64,3-1.24,4.29-1.85l1.14-.51c5-2.25,10.76-4.81,16.38-4.81a15.49,15.49,0,0,1,5.33.9c1-4.87,1.85-9.93,2.65-15.07l-1.57,0c-6.65,0-15.87-1.21-19.14-11.67a20.33,20.33,0,0,1,3.55-18,27.27,27.27,0,0,1,21-10.12,400.92,400.92,0,0,0-1.66-57c-5.81-58-22.84-95.35-36.1-116.43-13.09-20.82-25.18-30.33-27.31-31.91L135.07,201.23c-10.87.61-15,21.39-17.52,41.66-2.85,22.53-15.55,79-36.85,112.16a88.26,88.26,0,0,1,8.76,6.11l.09.08c5.53,5,5.79,11.56,6,17.93.2,5.33.4,10.36,3.57,14.38,1.68,1.68,3.48,3.21,5.21,4.69,4.17,3.56,8.1,6.91,10.22,11.86a20.14,20.14,0,0,1,.79,12.41c-1.16,4.66-3.75,8.07-7.28,9.61a25.47,25.47,0,0,1-11.69,3.11c-11.53,0-20.14-9.65-28.47-19a118.75,118.75,0,0,0-11.49-11.77,174.56,174.56,0,0,0-6.79,39.42c12.07,1.94,24,4.68,29.36,12.9,3,4.63,3.52,10.62,1.56,17.81-.11.43-.4.44-.79.66-7.49,4.19-15.93,5.88-25.81,5.88h-.34A55.13,55.13,0,0,0,64.9,503.49c26.14,32.44,80.78,66.92,106.3,66.92,3.9,0,7-.72,9.12-2.32,3.74-2.78,5.51-5.84,5.43-9.45-.23-10.69-16.6-21.87-16.77-22a1.64,1.64,0,0,1-.57-2,1.62,1.62,0,0,1,.41-.55c-25.11-23.28-28.2-62.43-22.35-92.39,2.72-14.95,1.67-29.82.65-44.19-1.08-15.43-2.21-31.38,1.25-47.67,2.59-14.72,11.7-33.11,28.76-36.31a74.27,74.27,0,0,1,12.22-1c39.41,0,76.09,32.74,85.33,76.15,8.17,37.81-9.91,67.36-28.7,91.27-3.79,5.37-7.18,10.79-10.47,16-6.65,10.61-12.93,20.63-21.83,29.55-3.07,3.49-6.89,6.2-10.58,8.82A82.26,82.26,0,0,0,195.79,539.92Z"></path>
  <path fill="#313131" d="M276.85,478c-10.42,4.73-27.46,9.46-22.72,23.66,2.84,7.58,14.2,4.74,21.77,1.9,5.59-2.49,11.59-1.31,17.2-1,2.48-8.2,4.94-17.59,7.11-28.12C293,470.35,283.94,474.81,276.85,478Z"></path>
  <path fill="#313131" d="M262.69,508.15c-6.52,0-9.1-3.23-10.11-5.94-4.62-13.86,9.2-19.66,19.29-23.9,1.52-.64,3-1.24,4.29-1.85l1.14-.51c5-2.25,10.76-4.81,16.38-4.81A14.83,14.83,0,0,1,301,473l1.05.6-.24,1.18c-2,9.65-4.4,19.16-7.15,28.25l-.38,1.25-1.29-.07c-1.07-.06-2.16-.15-3.25-.24-1.82-.15-3.71-.31-5.54-.31a18.34,18.34,0,0,0-7.65,1.41l-.09,0C271.05,507.11,266.41,508.15,262.69,508.15Zm31-33.71c-4.92,0-10.29,2.41-15,4.53l-1.13.5c-1.36.62-2.82,1.24-4.37,1.89-11.95,5-20.82,9.65-17.46,19.75.94,2.49,3.23,3.73,7,3.73,3.31,0,7.54-1,12.59-2.84a21.49,21.49,0,0,1,8.94-1.67c2,0,3.92.16,5.81.31l1.86.15c2.46-8.22,4.62-16.77,6.44-25.46A11.61,11.61,0,0,0,293.68,474.44Z"></path>
  <path fill="#ce5044" d="M360.16,428.89c-13.81-32.2-156.51-40.26-258.9-77s-56.46-103-39.35-122.35S111,210.17,111,210.17c65.54,17.16,118.73,40.23,158,43.4s96.86-4.49,117.41,21.77"></path>
  <path fill="#313131" d="M360.16,430.54a1.64,1.64,0,0,1-1.51-1C351,411.71,299.24,401,239.3,388.65,194.63,379.43,144,369,100.71,353.43c-36.6-13.13-58.13-31.39-64-54.27-8-31.38,16.3-62.25,24-70.91,17.4-19.67,49-20.1,50.29-20.1h0c.14,0,.28.2.41.24,25.61,6.7,49.75,14.53,71.05,21.36,33.75,10.82,62.9,20.21,86.65,22.13,9.49.76,19.93.91,31,1.05,35.18.43,71.55.88,87.59,21.38a1.66,1.66,0,1,1-2.6,2.05c-15.06-19.26-52.23-19.71-85-20.11-11.11-.13-21.61-.26-31.21-1-24.14-1.95-53.45-11.35-87.4-22.23-21.2-6.79-45.22-14.49-70.66-21.16-2.73,0-31.91,1-47.61,18.8-7.39,8.35-30.88,37.91-23.23,67.71,5.57,21.75,26.4,39.24,61.9,52,43.08,15.46,93.59,25.89,138.15,35.09,63.35,13.08,113.39,23.41,121.71,42.83a1.65,1.65,0,0,1-.86,2.16A1.57,1.57,0,0,1,360.16,430.54Z"></path>
  <path fill="#e6aa79" d="M289.16,253.59a41.77,41.77,0,0,1,16.63.29c-8.85-16.19-23-32.18-36.2-40.41l-33.1,25a339.75,339.75,0,0,1,21.73,32.49A57,57,0,0,1,289.16,253.59Z"></path>
  <path fill="#313131" d="M258.22,272.58H258a1.69,1.69,0,0,1-1.24-.82,337.74,337.74,0,0,0-21.61-32.31,1.65,1.65,0,0,1,.32-2.33l33.1-25a1.64,1.64,0,0,1,1.87-.08c13.23,8.25,27.66,24.36,36.77,41a1.66,1.66,0,0,1-1.82,2.41,40.44,40.44,0,0,0-16-.29,55.65,55.65,0,0,0-30,16.85A1.66,1.66,0,0,1,258.22,272.58Zm-19.41-33.83a347.93,347.93,0,0,1,19.74,29.47A58.67,58.67,0,0,1,288.85,252a44.19,44.19,0,0,1,13.76-.33c-8.64-14.69-21.22-28.53-32.94-36.15Z"></path>
  <path fill="#fff" d="M289.16,253.59a57,57,0,0,0-30.94,17.33,142.54,142.54,0,0,1,9.5,19.25c8.57,22.28,38.95,20.41,45.82-.62,3.07-9.39-.62-22.6-7.75-35.67A41.77,41.77,0,0,0,289.16,253.59Z"></path>
  <path fill="#333" d="M290.45,308.15h0c-10.94,0-20.24-6.71-24.27-17.2a138.87,138.87,0,0,0-9.39-19.1,1.74,1.74,0,0,1,.23-2A58.92,58.92,0,0,1,288.85,252a43.74,43.74,0,0,1,17.3.29,1.68,1.68,0,0,1,1.09.82c8.05,14.74,10.85,28.06,7.87,37.16A25.65,25.65,0,0,1,290.45,308.15Zm-30.18-37a141.27,141.27,0,0,1,9,18.74c3.53,9.18,11.64,15.23,21.18,15.23h0A22.53,22.53,0,0,0,312,289.38c2.65-8.09.06-20.21-7.27-33.87a40.7,40.7,0,0,0-15.25-.21A55.29,55.29,0,0,0,260.27,271.18Z"></path>
  <path fill="#e6aa79" d="M191.85,271.39a41.72,41.72,0,0,1,16.21,3.72c-5.32-17.68-15.87-36.24-27.09-47l-37.53,17.61A340.36,340.36,0,0,1,158,282,57.07,57.07,0,0,1,191.85,271.39Z"></path>
  <path fill="#313131" d="M158,283.63a1.89,1.89,0,0,1-.53-.08,1.67,1.67,0,0,1-1-1.05A341.27,341.27,0,0,0,142,246.42a1.64,1.64,0,0,1-.07-1.27,1.71,1.71,0,0,1,.85-.94l37.54-17.61a1.65,1.65,0,0,1,1.85.31c11.24,10.8,22,29.53,27.52,47.72a1.65,1.65,0,0,1-2.27,2A40.18,40.18,0,0,0,191.8,273h-1A55.78,55.78,0,0,0,159,283.34,1.68,1.68,0,0,1,158,283.63ZM145.64,246.5a350.11,350.11,0,0,1,13.25,32.9,58.72,58.72,0,0,1,31.9-9.67h1.09a44.1,44.1,0,0,1,13.54,2.51c-5.43-16.16-14.89-32.3-24.79-42.17Z"></path>
  <path fill="#fff" d="M191.85,271.39A57.07,57.07,0,0,0,158,282a142.08,142.08,0,0,1,5.33,20.79c3.79,23.57,33.9,28,45,8.83,4.94-8.55,4-22.24-.25-36.49A41.72,41.72,0,0,0,191.85,271.39Z"></path>
  <path fill="#333" d="M187.48,325.15h0c-10.68,0-23.3-6.9-25.76-22.16a139.5,139.5,0,0,0-5.27-20.52,1.63,1.63,0,0,1,.62-1.86,59.11,59.11,0,0,1,33.73-10.89h1.09a43.75,43.75,0,0,1,16.87,3.87,1.63,1.63,0,0,1,.89,1c4.85,16.09,4.88,29.46.1,37.75A25.39,25.39,0,0,1,187.48,325.15ZM160,282.65a139.14,139.14,0,0,1,5,20c2.16,13.43,12.86,19.54,22.5,19.54h0a22.26,22.26,0,0,0,19.4-11.27c4.25-7.37,4.18-19.65-.18-34.53a40.58,40.58,0,0,0-14.9-3.28c-.33,0-.67,0-1,0A55.59,55.59,0,0,0,160,282.65Z"></path>
  <path fill="#e6aa79" d="M257.43,234.51c-1.09,1.14-28.75,16.22-52,19.7-50.75,7.57-85.48-15.06-94.21-46s17.9-58.52,17.9-58.52-2.11-17.57-.87-29.22a5.79,5.79,0,0,0,.31-.8c1.38-4.82,3.69-11.45,6.17-12,3.23-.66,19.47,16.22,25.19,22.29a4.36,4.36,0,0,0,4.64,1.12c6.48-2.38,23.8-7.9,40.36-6.2a4.32,4.32,0,0,0,3.87-1.7l12.77-16.93a4.34,4.34,0,0,1,7.34.67l12,28.45c.33.67,4.17,3.52,4.78,3.94C253.34,144.64,306.43,184.19,257.43,234.51Z"></path>
  <path fill="#313131" d="M186.21,257.33c-19.46,0-37-4.82-50.68-13.93-13-8.66-22-20.66-25.93-34.72-8.28-29.37,13.87-55.27,17.77-59.54-.4-3.56-1.91-18.37-.8-28.82a1.76,1.76,0,0,1,.19-.6,4.4,4.4,0,0,0,.19-.52c3.11-10.88,5.59-12.72,7.41-13.1a2.48,2.48,0,0,1,.54-.06c1.16,0,4.67,0,26.2,22.83a2.72,2.72,0,0,0,2.87.69c5.42-2,19.64-6.61,34.46-6.61a64.83,64.83,0,0,1,6.63.33,2.75,2.75,0,0,0,2.38-1.06l12.77-16.92a6,6,0,0,1,10.14.92l0,.1,11.94,28.28a45.76,45.76,0,0,0,4.26,3.38c5,3.46,30.15,22.05,32.8,49.05,1.61,16.46-5.38,32.82-20.77,48.64-1.72,1.78-29.68,16.69-53,20.17A132,132,0,0,1,186.21,257.33ZM129.83,120.94c-1.14,11.33.88,28.4.9,28.57a1.65,1.65,0,0,1-.45,1.35c-.26.26-25.85,27.29-17.5,56.92,7.93,28.09,36.75,46.25,73.43,46.25a128.2,128.2,0,0,0,18.95-1.46c22.2-3.31,49-17.56,51.13-19.25,14.66-15.08,21.32-30.54,19.81-46-2.51-25.54-26.58-43.33-31.38-46.64,0,0-4.69-3.29-5.32-4.57a.2.2,0,0,1,0-.08l-12-28.4a2.68,2.68,0,0,0-4.52-.38l-12.77,16.93a6,6,0,0,1-5.36,2.36,60.86,60.86,0,0,0-6.29-.32c-14.29,0-28.07,4.49-33.33,6.42a6.07,6.07,0,0,1-6.41-1.54C145,116.61,137,109.78,135,109.36c-.37.2-2.23,1.62-4.85,10.79A7.57,7.57,0,0,1,129.83,120.94Z"></path>
  <path fill="#a5a653" d="M240.26,152.78a17.08,17.08,0,0,1,9,3.11,21.87,21.87,0,0,1,7,9.67c3.49,8.55,3.76,18.29-4,24.35-6.18,4.81-14.76,6.56-22.43,6.68a13.92,13.92,0,0,1-5.63-.83c-4.05-1.71-6.07-6.26-7.08-10.53-2.1-8.82-.11-19,6.15-25.78A21.92,21.92,0,0,1,240.26,152.78Z"></path>
  <path fill="#313131" d="M229.34,198.25a14.72,14.72,0,0,1-5.78-1c-3.88-1.64-6.59-5.57-8-11.67-2.33-9.77.24-20.48,6.55-27.28a23.72,23.72,0,0,1,18.29-7.2,18.8,18.8,0,0,1,9.88,3.42,23.26,23.26,0,0,1,7.59,10.39c4.47,11,2.82,20.55-4.55,26.27-7.61,5.93-17.94,6.95-23.42,7ZM239,154.39a20.34,20.34,0,0,0-14.52,6.18c-5.58,6-7.84,15.55-5.76,24.28,1.2,5,3.26,8.18,6.12,9.39a11.44,11.44,0,0,0,4.49.7h.47c5.07-.08,14.59-1,21.44-6.33,8.68-6.75,5.36-17.93,3.52-22.42a20,20,0,0,0-6.47-9,15.5,15.5,0,0,0-8.15-2.8C239.77,154.41,239.39,154.39,239,154.39Z"></path>
  <path fill="#313131" d="M237.9,173.85c.52,8.16-1.67,14.94-4.9,15.14s-6.26-6.23-6.79-14.39,1.67-14.93,4.9-15.14S237.37,165.7,237.9,173.85Z"></path>
  <path fill="#a5a653" d="M151.28,158.49a17,17,0,0,0-8.54,4.24A21.78,21.78,0,0,0,137,173.22c-2.37,8.93-1.39,18.61,7.11,23.63,6.75,4,15.48,4.63,23.1,3.76a14,14,0,0,0,5.48-1.54c3.8-2.22,5.22-7,5.68-11.35.95-9-2.33-18.89-9.4-24.79A22,22,0,0,0,151.28,158.49Z"></path>
  <path fill="#313131" d="M161.36,202.15h0c-7,0-13.29-1.27-18.09-4.1-8-4.74-10.9-13.91-7.87-25.37a23.07,23.07,0,0,1,6.21-11.21,18.76,18.76,0,0,1,9.36-4.63,22.83,22.83,0,0,1,4.24-.38,23.45,23.45,0,0,1,14.82,5.2c7.12,5.94,11,16.24,10,26.23-.66,6.23-2.84,10.47-6.49,12.6A14.85,14.85,0,0,1,167.4,202,53.25,53.25,0,0,1,161.36,202.15Zm-6.15-42.38a19.66,19.66,0,0,0-3.62.34,15.5,15.5,0,0,0-7.72,3.82,20.12,20.12,0,0,0-5.28,9.71c-1.24,4.69-3.1,16.21,6.36,21.79,4.29,2.53,10,3.86,16.41,3.86h0A52.15,52.15,0,0,0,167,199a12.52,12.52,0,0,0,4.83-1.33c2.68-1.57,4.32-5,4.87-10.1.94-8.92-2.52-18.08-8.82-23.34A20.08,20.08,0,0,0,155.21,159.77Z"></path>
  <path fill="#fff" d="M141.37 120.31c-1.24-1.25-2.85-2.58-4.54-2.12-1.92.54-2.49 3-2.65 4.94a100.3 100.3 0 0 0 .26 18.58 2 2 0 0 0 .19.77 1.48 1.48 0 0 0 .65.54c1.62.79 3.52 0 5.14-.75l13-6.14c.4-.19.87-.47.88-.91a1.21 1.21 0 0 0-.36-.76A177.77 177.77 0 0 0 141.37 120.31ZM232.27 130.21c-.31-1.88-1.53-3.45-2.36-5.16-1.52-3.13-1.73-6.7-2.66-10-.39-1.4-1.26-3-2.7-3a3.17 3.17 0 0 0-2.27 1.56c-2.32 3.22-3 7.33-4.89 10.84a6.55 6.55 0 0 0-.82 1.88 1.86 1.86 0 0 0 .58 1.86 2.63 2.63 0 0 0 1.13.39L229 130.48l2.53.45a.77.77 0 0 0 .65-.08A.75.75 0 0 0 232.27 130.21Z"></path>
  <path fill="#313131" d="M198.23 148.66c.39 1.48 1.72 2.49 2.55 3.78a6.14 6.14 0 0 1-1 7.57 9.15 9.15 0 0 0-2 2c-1.3 2.39 1.69 5.15 1.22 7.83a3.84 3.84 0 0 1-4.49 2.78 5.9 5.9 0 0 1-4.13-3.84 13.24 13.24 0 0 1-.52-5.81c.11-1.35.27-2.83-.51-3.93s-2.36-1.49-3.49-2.34c-2-1.53-2.38-4.45-2.13-7s.9-5.14.19-7.59c-1.1-3.79-5.3-6.82-4.46-10.67.66-3 4-4.42 6.89-5.39 2.46-.82 5-1.65 7.58-1.18s5 2.71 4.65 5.28c-.23 1.93-1.89 3.79-1.13 5.58.52 1.21 2 1.77 2.66 2.89C202 141.61 197.32 145.24 198.23 148.66ZM289.85 212.15h0L239.71 211a1.66 1.66 0 0 1-1.6-1.4 1.68 1.68 0 0 1 1.08-1.83L297 187.07a1.65 1.65 0 0 1 1.12 3.11L248.72 207.9l41.16.87a1.69 1.69 0 0 1 0 3.38ZM106.9 223.82a1.65 1.65 0 0 1-.24-3.29l40.71-6.13L96.08 203.15a1.65 1.65 0 0 1 .71-3.23l60 13.17a1.65 1.65 0 0 1-.11 3.24l-49.55 7.47ZM208.7 143.39a7.18 7.18 0 0 1 3-1.58c3.61-.88 7.91.82 8.55 4.8.43 2.75-1.17 4.6-2.27 6.91a8.23 8.23 0 0 1-3.34 3.87 5.84 5.84 0 0 1-5.6.18C203.9 154.71 204.65 146.91 208.7 143.39ZM177.26 145.41a7.18 7.18 0 0 0-3.18-1.18c-3.69-.42-7.74 1.82-7.86 5.84-.08 2.79 1.74 4.42 3.13 6.58a8.23 8.23 0 0 0 3.81 3.4 5.81 5.81 0 0 0 5.57-.54C183.47 156 181.73 148.39 177.26 145.41Z"></path>
  <path fill="#fff" d="M185.36,198.65c2.64-2.78,5.37-5.62,8.87-7.18,4.23-1.87,9.17-1.63,13.57-.2s8.35,3.95,12.17,6.57,7.85,5.68,9.68,10,.61,10.32-3.72,12.16c-3.45,1.47-7.61-.05-11.08,1.35-2.68,1.07-4.57,3.74-7.37,4.47-4.35,1.14-8.35-2.83-12.8-3.46-4-.55-8.05,1.59-11.88.45-4.69-1.4-6.72-7.35-5.51-12.1S182,202.21,185.36,198.65Z"></path>
  <path fill="#313131" d="M204.74,188.39a2.38,2.38,0,0,1,1.9,3.56,6.82,6.82,0,0,1-2,3,4.69,4.69,0,0,1-3.39,1.11,7,7,0,0,1-2.66-1,11.06,11.06,0,0,1-2.54-1.91c-.85-.88-1.49-2.27-.82-3.29a3.34,3.34,0,0,1,2.19-1.15A15.85,15.85,0,0,1,204.74,188.39Z"></path>
  <path fill="#313131" d="M212.34,211.71a11.15,11.15,0,0,1-6.83-2.13c-5.85-4.35-5.71-13.69-5.71-14.09a1.66,1.66,0,0,1,3.31.07h0c0,.08-.1,8.05,4.38,11.38,2.36,1.74,5.72,1.93,10,.55a1.65,1.65,0,0,1,1,3.14A20,20,0,0,1,212.34,211.71Z"></path>
  <path fill="#313131" d="M191.8 214.55a27.78 27.78 0 0 1-5.53-.61 1.65 1.65 0 1 1 .67-3.24c5.55 1.14 9.44.52 11.55-1.85 4.06-4.54.95-14.26.91-14.36a1.65 1.65 0 0 1 3.14-1c.16.47 3.74 11.62-1.58 17.59C198.88 213.38 195.81 214.55 191.8 214.55ZM205.24 224.42a19.77 19.77 0 0 1-8.31-2 1.65 1.65 0 1 1 1.38-3c8.62 4 13.07-.26 13.25-.45a1.65 1.65 0 0 1 2.35 2.33A12.46 12.46 0 0 1 205.24 224.42ZM169.25 178.87c.52 8.15-1.67 14.93-4.9 15.14s-6.26-6.24-6.79-14.39 1.67-14.94 4.9-15.15S168.73 170.71 169.25 178.87Z"></path>
  <path fill="#e6aa79" d="M109.59,386.13s37.87-12.62,52.39,31.56,5.68,67.53-10.1,108.56"></path>
  <path fill="#313131" d="M151.88,527.9a1.59,1.59,0,0,1-.6-.11,1.64,1.64,0,0,1-.94-2.13c15.77-41,24.47-63.63,10.07-107.46C155.88,404.44,148.6,395,138.76,390c-14-7-28.5-2.35-28.65-2.3a1.65,1.65,0,1,1-1-3.14c.64-.21,15.94-5.17,31.18,2.49,10.65,5.36,18.49,15.49,23.3,30.12,14.76,44.95,5.39,69.31-10.13,109.67A1.65,1.65,0,0,1,151.88,527.9Z"></path>
  <path fill="#333" d="M301.35 128.33a31.92 31.92 0 0 1-11.26-2 1.65 1.65 0 1 1 1.29-3c.69.29 16.21 6.6 28.78-6.26a1.65 1.65 0 0 1 2.37 2.31A28.85 28.85 0 0 1 301.35 128.33ZM307.14 217.3s41-7 61.23-33.14c0 0-.64 46.71-40.4 55.86S307.14 217.3 307.14 217.3Z"></path>
  <path fill="#fff" d="M396.74,89.16c7.67-2.74,14.82,5.08,22.72,7,5.57,1.38,11.42-.26,16.77-2.33,1.95-.75,4-1.63,5.17-3.34a9.34,9.34,0,0,0,1.26-5.87A28.19,28.19,0,0,0,434,65.57c-5-4.74-13.3-7.35-18.73-3.09a38.64,38.64,0,0,1-3.32,2.82c-2.6,1.62-6,1.23-8.81,0s-5.18-3.24-7.78-4.86a32.75,32.75,0,0,0-19.61-4.82,17.21,17.21,0,0,0-7.86,2.23c-3.94,2.43-6.14,7.07-6.57,11.67s.69,9.23,2.14,13.62c1.54,4.66,3.56,9.33,7.13,12.68s9,5.12,13.52,3.18C389,96.84,391.67,91,396.74,89.16Z"></path>
  <path fill="#a5a653" d="M424,468.86c25.59-26.24,90.21,54.38,94,72.94,0,0,12,24.53,7.35,33.83,3.27,5.08,6.28,9.81,8.27,13,4.23,6.87,10.27,19.89,14.39,29.14.56-20.47,1.06-51.75.13-70.24a8.69,8.69,0,0,1-4.36-.52c-17.71-6.6-85.71-179.39-38.37-188s67.77,124.19,59.7,146.58c0,0-2.27,30.14-12,39.39,1.68,26.85-.22,81.55-.32,84.36l-.41,11.53-4.51-10.62c-.11-.28-11.94-28.1-18.59-38.9-1.91-3.1-4.78-7.61-7.91-12.48l-.15,0C507.81,582.11,398.39,495.09,424,468.86Z"></path>
  <path fill="#313131" d="M552.4,642.51a1.66,1.66,0,0,1-1.52-1l-4.51-10.62c-.12-.28-11.89-28-18.48-38.68-1.62-2.65-4.08-6.53-7.32-11.56h-.14c-14.31,0-84.29-54.49-99.12-89.69-4.25-10.06-3.74-17.89,1.49-23.26a18.5,18.5,0,0,1,13.72-5.7c31,0,79.43,63,83.1,79.25,1.56,3.23,11.44,24.25,7.64,34.23,3.48,5.4,6.1,9.54,7.81,12.32,3.32,5.4,7.71,14.46,11.51,22.74.35-15.07.82-43.22,0-61.25a11.27,11.27,0,0,1-3.35-.7c-8.74-3.26-24.34-36.37-35.13-65.76-7.08-19.3-23.26-67.6-20.48-99.18,1.37-15.56,7.26-24.4,17.51-26.28a26.63,26.63,0,0,1,4.68-.43c10.17,0,19.64,6.15,28.16,18.27,11,15.59,20.45,42,26.07,72.36,4.7,25.45,5.81,49.35,2.72,58.35-.24,2.95-2.66,29.92-12,39.69,1.61,27.17-.28,81.46-.36,83.78l-.41,11.53a1.67,1.67,0,0,1-1.35,1.57Zm-31-65.3a1.66,1.66,0,0,1,1.39.76c3.53,5.48,6.19,9.69,7.93,12.51,6.68,10.85,18.59,38.85,18.71,39.12l1.59,3.76.15-4.09c.08-2.33,2-57.45.32-84.2a1.65,1.65,0,0,1,.51-1.3c9.18-8.7,11.49-38,11.52-38.31a1.64,1.64,0,0,1,.09-.44c3-8.2,1.78-32.11-2.79-56.85-5.53-29.94-14.84-55.84-25.53-71.06-9-12.85-19-18.42-29.54-16.48-8.6,1.57-13.58,9.41-14.81,23.31-1.89,21.45,5.7,58,20.3,97.75,13.69,37.3,27.62,61.73,33.17,63.8a7.1,7.1,0,0,0,3.54.43,1.68,1.68,0,0,1,1.28.36,1.7,1.7,0,0,1,.61,1.2c1.08,21.48.17,59.29-.13,70.36a1.65,1.65,0,0,1-3.16.63c-4.23-9.48-10.14-22.2-14.29-28.94-1.77-2.88-4.54-7.26-8.24-13a1.66,1.66,0,0,1-.09-1.64c3.53-7-4.12-25.73-7.36-32.35a1.44,1.44,0,0,1-.13-.4c-3.11-15-50.87-76.82-79.91-76.82a15.28,15.28,0,0,0-11.35,4.7c-4.22,4.33-4.5,10.94-.82,19.67,14.84,35.22,84.32,87.66,96.08,87.66a1.68,1.68,0,0,0,.38,0l.16,0A2,2,0,0,1,521.39,577.21Z"></path>
  <path fill="#a5a653" d="M546.94,623c4.18-14.49,24.29-50.24,34.64-68.15-6.05-5.93-4-14.43,22-42.05C630.44,484.21,659,448.38,668,482.08c8.43,31.71-59.19,82.48-82,75.39-9.34,16.19-26.66,47-32.69,62.75,2.76-3.1,6.32-7.38,9.63-11.36,14.39-17.33,34.11-41.05,46.63-43.14a60,60,0,0,1,18.65-.46c7.06-2.74,22.57,7,22.57,7,15.94,11.45,64.16,65.07,41.57,94.44-22.08,28.7-67.86-81-67.43-96.64a58.36,58.36,0,0,0-14.52.73c-10.64,1.78-30.44,25.6-43.53,41.36-10.92,13.13-14.62,17.45-17.39,17.45a3.05,3.05,0,0,1-1.44-.39C545.53,627.86,546.48,624.57,546.94,623Z"></path>
  <path fill="#313131" d="M683.91,673.09c-4.62,0-9.81-2.92-15.42-8.69-20.93-21.51-43.65-78.28-45.15-92.82a59.27,59.27,0,0,0-12.68.82c-10,1.68-30.38,26.16-42.53,40.79-11.89,14.3-15.15,18-18.66,18a4.68,4.68,0,0,1-2.21-.58c-3.7-2-2.4-6.43-1.91-8.12,4.1-14.18,22.9-47.89,34.19-67.46-6.43-7.59-.58-18.52,22.83-43.41,2.7-2.87,5.46-5.87,8.13-8.76,17.14-18.58,33.33-36.12,45.36-36.12,6.48,0,11.09,5,13.72,14.88s-1.36,21.88-11.43,35c-17.36,22.58-49.43,43.14-67.28,43.14a19.57,19.57,0,0,1-4.09-.4c-7.86,13.65-20.12,35.47-27.59,51.37l2.46-3c14.56-17.52,34.49-41.52,47.63-43.71a62.67,62.67,0,0,1,18.75-.52,10.11,10.11,0,0,1,3.13-.45c8.08,0,20,7.41,20.48,7.72l.09.06c11.85,8.51,43.43,42.16,47.7,71.11,1.48,10.12-.46,18.76-5.78,25.68C690.89,671.28,687.61,673.09,683.91,673.09ZM620.75,568.21c1.47,0,2.92.06,4.3.18a1.65,1.65,0,0,1,1.51,1.7c-.3,11,23,70.06,44.3,92,5,5.1,9.36,7.69,13,7.69,2.66,0,5-1.35,7.12-4.12,4.76-6.18,6.48-14,5.13-23.18C692,614.55,661.41,582,649.85,573.62c-.77-.48-11.78-7.19-18.69-7.19a6.63,6.63,0,0,0-2.37.37,1.59,1.59,0,0,1-.84.1,58.85,58.85,0,0,0-18.13.45c-11.92,2-32.21,26.41-45.63,42.56-3.22,3.88-6.88,8.28-9.67,11.41a1.65,1.65,0,0,1-2.77-1.69c6-15.8,23.14-46.24,32.8-63a1.66,1.66,0,0,1,1.92-.76,14.72,14.72,0,0,0,4.4.6c17,0,47.82-20,64.66-41.86,6.57-8.55,13.79-21.07,10.85-32.13-2.22-8.35-5.66-12.42-10.52-12.42-10.58,0-27,17.82-42.93,35.06-2.68,2.9-5.45,5.9-8.16,8.78-27.71,29.48-26.23,35.62-22,39.74a1.64,1.64,0,0,1,.27,2c-9,15.51-30.26,53.16-34.49,67.79-.73,2.54-.65,3.78.28,4.28a1.39,1.39,0,0,0,.67.2c2.11,0,7.38-6.35,16.12-16.85,17.53-21.11,34.13-40.2,44.53-41.94A66,66,0,0,1,620.75,568.21Z"></path>
  <path fill="#eeb857" d="M623.23,599.53H480.66l6.78,103.82c1.44,22.13,14.93,39.08,31.08,39.08h66.85c16.15,0,29.64-16.95,31.08-39.08Z"></path>
  <path fill="#313131" d="M585.37,744.08H518.52c-17.15,0-31.22-17.46-32.73-40.62L479,599.63a1.66,1.66,0,0,1,1.65-1.75H623.23a1.66,1.66,0,0,1,1.65,1.75L618.1,703.46C616.59,726.62,602.52,744.08,585.37,744.08ZM482.43,601.18l6.66,102.06c1.37,21,14.3,37.53,29.43,37.53h66.85c15.13,0,28.06-16.48,29.43-37.53l6.66-102.06Z"></path>
  <path fill="#f0ddd8" d="M598.92 631.3a4 4 0 0 1-3.31-1.74 32.27 32.27 0 0 0-5.6-6.81c-2.52-2.07-5.93-3.35-9.22-4.58a4 4 0 1 1 2.79-7.48c3.73 1.39 7.95 3 11.5 5.88a38.83 38.83 0 0 1 7.13 8.47 4 4 0 0 1-3.29 6.26ZM560.35 669.41A4 4 0 0 1 557 663.2a30.65 30.65 0 0 1 11.91-10.48 4 4 0 0 1 7.55.94c.18.93.43 4.12-3.69 6.08a22.92 22.92 0 0 0-9.11 7.88A4 4 0 0 1 560.35 669.41ZM584.54 718.92a4 4 0 0 1-.27-8c1.52-.1 3.34-2.71 4.22-4l3.62-5.15a4 4 0 1 1 6.54 4.59L595 711.57c-1.7 2.44-4.89 7-10.22 7.35ZM548.7 709.15a4 4 0 0 1-2.42-.82 24.9 24.9 0 0 0-7.83-4l-.73-.21a13.53 13.53 0 0 1-6.37-3.29 4 4 0 0 1 5.74-5.56 8.12 8.12 0 0 0 2.87 1.18l.81.24A32.84 32.84 0 0 1 551.13 702a4 4 0 0 1-2.43 7.18ZM550.56 634a3.81 3.81 0 0 1-.59-.05 4 4 0 0 1-2.61-1.59 14.67 14.67 0 0 0-5.42-1 18.5 18.5 0 0 0-2.87.54 18.86 18.86 0 0 1-6.11.72 4 4 0 0 1 .68-8 13.23 13.23 0 0 0 3.58-.53 25.3 25.3 0 0 1 4.15-.73c3.82-.27 7.39 1 10.25 2a4.76 4.76 0 0 1 3 5.5A4.33 4.33 0 0 1 550.56 634ZM497.57 628.71a4 4 0 0 1-4-3.93c-.08-4.85 4.66-6.79 6.69-7.62a21.77 21.77 0 0 0 6.4-4A4 4 0 0 1 512 619a29.81 29.81 0 0 1-8.74 5.52 11.92 11.92 0 0 0-1.79.85 4 4 0 0 1-3.88 3.31ZM523.7 676.61a4 4 0 0 1-3-1.31 12.6 12.6 0 0 0-3.5-2.26l-1.33-.69c-3.69-2-5.88-4.41-6.7-7.36a4 4 0 0 1 7.7-2.15c.11.42.64 1.3 2.81 2.48l1.17.61a18.92 18.92 0 0 1 5.77 4 4 4 0 0 1-3 6.68ZM516.9 722.68a4 4 0 0 1-2.74-1.08l-7-6.62a4 4 0 1 1 5.47-5.82l7 6.61a4 4 0 0 1-2.73 6.91Z"></path>
  <path fill="#8f8ec3" d="M570.67,723.15h56.44c0,13-8.9,20-19.89,20H497.68c-11,0-19.89-7-19.89-20Z"></path>
  <path fill="#313131" d="M607.22,745.15H497.68c-12.69,0-21.76-8.86-21.76-21.51v-1.49h153v1.49C628.92,736.29,619.91,745.15,607.22,745.15Zm-127.72-20c.73,10,8,17,18.18,17H607.22c10.18,0,17.45-7,18.18-17Z"></path>
  <path fill="#333" d="M548.17 549.21a1.65 1.65 0 0 1-1.64-1.53c-.08-1-8.11-103.81-27.9-149.12a1.65 1.65 0 0 1 3-1.33c20 45.83 28.08 149.17 28.16 150.2a1.66 1.66 0 0 1-1.52 1.78ZM524.05 579.41a1.64 1.64 0 0 1-1.38-.73c-.35-.52-35.57-52.67-62.35-75.3a1.65 1.65 0 0 1 2.13-2.53c27.13 22.94 62.61 75.46 63 76a1.65 1.65 0 0 1-.44 2.29A1.68 1.68 0 0 1 524.05 579.41ZM582.81 557a1.65 1.65 0 0 1-1.17-2.82c2.83-2.82 19.32-18 35.28-32.76 11.69-10.79 22.74-21 27.42-25.39a1.65 1.65 0 0 1 2.26 2.41c-4.69 4.41-15.74 14.61-27.44 25.41-15.93 14.69-32.4 29.89-35.18 32.67A1.68 1.68 0 0 1 582.81 557ZM679.88 641.75a1.65 1.65 0 0 1-1.6-1.26c-12-48.61-53.65-68.76-54.07-69a1.65 1.65 0 0 1 1.4-3c.44.21 43.5 21 55.88 71.16a1.65 1.65 0 0 1-1.21 2A1.37 1.37 0 0 1 679.88 641.75ZM90.89 500.33c3 2.38 7.58 1.32 10.89-.69s6.15-4.86 9.81-6.13c5.67-2 11.8.29 17.64 1.67a60.14 60.14 0 0 0 26.23.31 14.28 14.28 0 0 0 6.71-2.86c5.23-4.71 2.44-13.81 6.14-19.79a23 23 0 0 0-25-.89c-3.61 2.23-6.6 5.49-10.52 7.13-5.12 2.13-10.92 1.15-16.47 1.2-6 .05-12.15 1.42-17.08 4.87S90.79 494.32 90.89 500.33ZM151.57 448c-1.71 1.22-3.15 2.84-5 3.75-4.81 2.31-10.9-.61-15.73 1.63-2.56 1.19-4.29 3.63-6.6 5.25a12.15 12.15 0 0 1-9.93 1.8 3.64 3.64 0 0 1-2.09-1.19c-1-1.38 0-3.4 1.42-4.35s3.17-1.31 4.57-2.28c2.76-1.9 3.69-5.81 6.59-7.49 3.51-2 8.27.07 11.87-1.8 1.76-.91 2.92-2.62 4.23-4.11a22.2 22.2 0 0 1 15.78-7.43c2.84-.09 5.94.52 7.78 2.67 3.06 3.56 1.21 9.18 3 13.52A14 14 0 0 0 151.57 448ZM145.09 416.66c3.67-2.2 8.29-1.58 12.54-1.07a1.23 1.23 0 0 0 1.05-.21 1.17 1.17 0 0 0 .13-1 32.07 32.07 0 0 0-3.58-8.94 5 5 0 0 0-.67-1 3.83 3.83 0 0 0-1.65-.91 11.81 11.81 0 0 0-12.8 4.11 15.41 15.41 0 0 1-2.26 2.91c-1.28 1.06-3 1.36-4.56 1.89a14.74 14.74 0 0 0-6.71 4.65 3.85 3.85 0 0 0-1.11 3.3c.43 1.51 2.24 2.08 3.8 2.31 3.45.5 7.18.43 10.14-1.42C141.48 420 143 417.92 145.09 416.66Z"></path>
  <path fill="#f0c7c0" d="M231.18,592.7l10.13-40.91c1.8-7.31-3.4-15-11.61-17.25-6.82-1.86-13.52.7-16.65,5.79-.12-6.25-4.9-12.17-11.92-14.07a15.46,15.46,0,0,0-14.23,2.92,16.09,16.09,0,0,0-11.36-10.65c-6.91-1.87-13.7.77-16.78,6a14.39,14.39,0,0,0-10.22-9.68c-7.36-2-14.64,1.68-16.27,8.22l-9.07,36.69a11,11,0,0,0,0,5.08,14.35,14.35,0,0,0,10.46,10.38A13.67,13.67,0,0,0,147,572a12.64,12.64,0,0,0,.24,2.3c1.16,5.26,5.59,9.93,11.67,11.58a15.47,15.47,0,0,0,14.26-3,16.07,16.07,0,0,0,11.32,10.68c6.81,1.85,13.51-.7,16.64-5.78a13.64,13.64,0,0,0,.26,2.48c1.16,5.27,5.59,9.93,11.67,11.58C221.25,604.11,229.37,600,231.18,592.7Z"></path>
  <path fill="#313131" d="M217.53,604.14h0a18.4,18.4,0,0,1-4.92-.67A17.88,17.88,0,0,1,200,591.7a16.26,16.26,0,0,1-11.11,4.16,18.51,18.51,0,0,1-4.88-.66,18,18,0,0,1-11.66-9.64,18.18,18.18,0,0,1-26.66-10.45,16,16,0,0,1-12.55,1.71c-5.87-1.6-10.44-6.16-11.64-11.63a12.62,12.62,0,0,1,.07-5.83l9.07-36.68c1.46-5.91,7.16-10,13.84-10a17,17,0,0,1,4.46.6,16.46,16.46,0,0,1,10.22,8,16.31,16.31,0,0,1,11.9-4.94,18.64,18.64,0,0,1,4.89.66,18.06,18.06,0,0,1,11.69,9.62,17.55,17.55,0,0,1,13.89-1.9,17.77,17.77,0,0,1,12.55,11.8,16.28,16.28,0,0,1,11.14-4.18,18.51,18.51,0,0,1,4.88.66c9.06,2.46,14.79,11.09,12.78,19.24L232.79,593.1C231.17,599.6,224.9,604.14,217.53,604.14Zm-16.42-18a1.67,1.67,0,0,1,.44.06,1.65,1.65,0,0,1,1.21,1.56A10.91,10.91,0,0,0,203,590c1.06,4.84,5.18,8.9,10.48,10.34a15.68,15.68,0,0,0,4.06.54c5.94,0,10.78-3.42,12.05-8.52l10.12-40.92c1.59-6.42-3.1-13.27-10.43-15.26a15.44,15.44,0,0,0-4-.54,12.57,12.57,0,0,0-10.79,5.6,1.65,1.65,0,0,1-3.06-.83c-.11-5.69-4.52-10.83-10.71-12.51a15.23,15.23,0,0,0-4-.54,13.21,13.21,0,0,0-8.71,3.12,1.65,1.65,0,0,1-1.54.34,1.69,1.69,0,0,1-1.13-1.12,14.46,14.46,0,0,0-10.2-9.52,15.39,15.39,0,0,0-4-.55,12.53,12.53,0,0,0-10.91,5.78,1.63,1.63,0,0,1-1.63.8,1.65,1.65,0,0,1-1.38-1.18,12.75,12.75,0,0,0-9.06-8.54,13.86,13.86,0,0,0-3.6-.48c-5.24,0-9.52,3-10.63,7.51l-9.08,36.69a9.45,9.45,0,0,0,0,4.33,12.74,12.74,0,0,0,9.28,9.14,12.22,12.22,0,0,0,11.76-2.79,1.66,1.66,0,0,1,2.83,1.11,11.1,11.1,0,0,0,.2,2c1.07,4.84,5.18,8.9,10.49,10.34a15.23,15.23,0,0,0,4,.54,13.2,13.2,0,0,0,8.74-3.14,1.65,1.65,0,0,1,1.55-.34,1.62,1.62,0,0,1,1.12,1.11A14.45,14.45,0,0,0,184.9,592a15.38,15.38,0,0,0,4,.54,12.59,12.59,0,0,0,10.79-5.6A1.65,1.65,0,0,1,201.11,586.17Z"></path>
  <path fill="#313131" d="M202.56 583.6a2.57 2.57 0 0 1-.62-.08 2.48 2.48 0 0 1-1.79-3l10.5-40.79a2.48 2.48 0 0 1 4.8 1.23L205 581.73A2.47 2.47 0 0 1 202.56 583.6ZM179.08 551.29a2.36 2.36 0 0 1-.78-.13 2.46 2.46 0 0 1-1.58-3.12l6.64-20.22a2.48 2.48 0 1 1 4.71 1.55l-6.64 20.21A2.47 2.47 0 0 1 179.08 551.29ZM147.07 572.5a2.49 2.49 0 0 1-2.4-3.14l13-47.24a2.48 2.48 0 1 1 4.78 1.31l-13 47.24A2.47 2.47 0 0 1 147.07 572.5ZM310.86 295.64a1.65 1.65 0 0 1-1.61-1.27l-2.89-12.18a1.66 1.66 0 0 1 3.22-.77l2.89 12.19a1.66 1.66 0 0 1-1.23 2A1.69 1.69 0 0 1 310.86 295.64ZM301.36 304.73a1.65 1.65 0 0 1-1.59-1.2l-3.51-12.18a1.66 1.66 0 1 1 3.18-.92L303 302.62a1.66 1.66 0 0 1-1.13 2A1.51 1.51 0 0 1 301.36 304.73ZM287.32 306.59a1.66 1.66 0 0 1-1.59-1.21L282.22 293a1.65 1.65 0 1 1 3.18-.9l3.51 12.39a1.65 1.65 0 0 1-1.14 2A1.76 1.76 0 0 1 287.32 306.59ZM206.37 315.46a1.66 1.66 0 0 1-1.64-1.44l-1.44-11.57a1.65 1.65 0 0 1 3.27-.41L208 313.61a1.65 1.65 0 0 1-1.43 1.84ZM193.77 324.14a1.65 1.65 0 0 1-1.63-1.42l-2.07-14.67a1.66 1.66 0 0 1 3.28-.46l2.06 14.66a1.65 1.65 0 0 1-1.4 1.87ZM178.29 322.69a1.66 1.66 0 0 1-1.65-1.48L175.41 309a1.65 1.65 0 1 1 3.28-.33l1.24 12.18a1.65 1.65 0 0 1-1.48 1.81Z"></path>
  <path fill="#e296a7" d="M569.31,120.39s49.17-39.89,61.13-3.62-98.73,88-98.73,88S510.25,70.29,540.18,64.6,569.31,120.39,569.31,120.39Z"></path>
</svg>
