<svg xmlns="http://www.w3.org/2000/svg" viewBox="0 0 870.35 799.67" id="little-baby-playing-dog">
  <path fill="#fdf2e0" d="M274.07,639.15c-42-2.26-84.27-4.51-126.17-.42a419.28,419.28,0,0,0-101.68,23c-10.25,3.71-22,7.77-31.59,2.61C8.35,661,4.5,654.27,2.41,647.46c-11-35.73,17.76-70,41.66-98.74a575.94,575.94,0,0,0,118.45-240.1c17.88-78.92,19.57-163.15,56.64-235.08C229.52,53.45,249.89,32,271,40c8.85,3.34,15.27,11.33,24,15,19.59,8.36,43.05-7.29,63,.26,15.43,5.86,22.64,23.1,33.73,35.32,21.69,23.87,58.34,27.6,90,21.51S543.13,92,574.84,86.06s68.37-1.91,89.77,22.24,21,60.05,22.39,92.4c3.3,78,26.6,159.13,83.45,212.69,25,23.57,55.91,41.3,76.26,69a122.88,122.88,0,0,1,23.58,76c-.54,17.07-5.07,34.68-16.42,47.44-10,11.26-24.28,17.71-38.41,22.93-91.71,33.91-192.55,29.12-290.19,23.88Z"></path>
  <path fill="#333" d="M737.73 161.89s-21.27-1.28-19-7.08 17.4 1.28 17.4 1.28-9.67-17.4-5.16-19.33 12.57 18.05 12.57 18.05.32-27.71 7.09-27.71S749 156.42 749 156.42s10.31-6.13 12.88-4.19-9.66 11-9.66 11ZM689.81 323.23s-10.29-.62-9.2-3.43 8.42.63 8.42.63-4.68-8.42-2.49-9.36 6.08 8.73 6.08 8.73.15-13.4 3.43-13.4-.78 14.18-.78 14.18 5-3 6.23-2-4.67 5.3-4.67 5.3ZM801.94 305.62s-10.29-.62-9.2-3.43 8.42.62 8.42.62-4.68-8.42-2.5-9.35 6.09 8.73 6.09 8.73.15-13.41 3.43-13.41S807.4 303 807.4 303s5-3 6.23-2-4.68 5.3-4.68 5.3Z"></path>
  <path fill="#a5a653" d="M692.22,321.67h0a13.48,13.48,0,0,1,13.5,13.38v51.1c0,4.81,3.22,9.52,8,9.52h4V184.45c0-14.24,10.77-25.78,25-25.78s25,11.54,25,25.78V416.67h1.15c7.42,0,14.85-5.6,14.85-13V324.93c0-11.39,8.12-20.62,19.5-20.62s19.5,9.23,19.5,20.62v89.36c0,14.24-10.72,27.38-25,27.38h-30v37.49c0,14.24-10.76,25.78-25,25.78s-25-11.54-25-25.78V410.67H695c-9.24,0-16.28-8.38-16.28-17.62v-58A13.48,13.48,0,0,1,692.22,321.67Z"></path>
  <path fill="#313131" d="M742.72,506.59c-15.05,0-27-12-27-27.43V411.67H695a18.43,18.43,0,0,1-18.28-18.62v-58c0-8.29,7.08-15,15.5-15s15.5,6.74,15.5,15v51.1c0,3.72,2,7.52,6,7.52h2V184.45c0-15.38,11.95-27.43,27-27.43s27,12,27,27.43V415.19c6-.24,12-5.53,12-11.53V324.93c0-12.49,9.46-22.27,21.5-22.27s21.5,9.78,21.5,22.27v89.36c0,15.72-12.36,29.38-27,29.38h-28v35.49C769.72,494.54,757.78,506.59,742.72,506.59Zm-51-183.27a12,12,0,0,0-12,11.73v58A15.65,15.65,0,0,0,695,408.67h22.31a1.4,1.4,0,0,1,1.41,1.57v68.92c0,13.53,10.3,24.13,23.5,24.13s23.5-10.6,23.5-24.13V441.63a2.23,2.23,0,0,1,2-2h30.07c12.81,0,24-11.46,24-25.38V324.93a18.51,18.51,0,1,0-37,0v78.73c0,8-7.08,15-15.84,15h-1.19a2.11,2.11,0,0,1-2-1.82V184.45c0-13.53-10.3-24.13-23.5-24.13s-23.5,10.6-23.5,24.13V395.37c0,.91-.5,1.3-1.41,1.3h-3.56a10.18,10.18,0,0,1-10-10.52v-51.1A12,12,0,0,0,691.72,323.32Z"></path>
  <path fill="#333" d="M730.22,470.54a1.53,1.53,0,0,1-1.5-1.66V247.34c0-65.09,1.89-86.88,12.6-87.59a1.7,1.7,0,0,1,1.8,1.54,1.84,1.84,0,0,1-1.75,1.76c-8.76.58-9.65,35.3-9.65,84.29V468.88A1.53,1.53,0,0,1,730.22,470.54Z"></path>
  <path fill="#333" d="M751.22,470.54a1.53,1.53,0,0,1-1.5-1.66V247.34c0-49-.78-83.71-9.54-84.29a1.7,1.7,0,0,1-1.59-1.76,1.59,1.59,0,0,1,1.69-1.54c10.71.71,12.44,22.5,12.44,87.59V468.88A1.53,1.53,0,0,1,751.22,470.54Z"></path>
  <path fill="#333" d="M784.53 428.59H753.19a1.65 1.65 0 0 1 0-3.3h31.34a17.43 17.43 0 0 0 17.4-17.41V304.19a1.66 1.66 0 0 1 3.31 0V407.88A20.73 20.73 0 0 1 784.53 428.59ZM728.65 405.33H701.19A10.38 10.38 0 0 1 690.82 395V323.57a1.65 1.65 0 0 1 3.3 0V395a7.08 7.08 0 0 0 7.07 7.07h27.46a1.65 1.65 0 0 1 0 3.3Z"></path>
  <path fill="#ce5044" d="M711.36,478.61c15,9.32,30.81,19.35,47.3,14.34,15-4.83,29.23-11.66,44.44-13.59l-1-16.52H684.35l-1.17,14.44C692.36,474.5,701.58,472.84,711.36,478.61Z"></path>
  <path fill="#313131" d="M749.61,495.94c-13.42,0-26.09-7.85-38.34-15.44l-.78-.48a25.27,25.27,0,0,0-13.18-3.63,47.9,47.9,0,0,0-13.65,2.47,1.66,1.66,0,0,1-1.52-.29,1.69,1.69,0,0,1-.61-1.42l1.17-14.45a1.65,1.65,0,0,1,1.65-1.51H802.06a1.64,1.64,0,0,1,1.65,1.54l1,16.52a1.64,1.64,0,0,1-1.44,1.74c-10.4,1.33-20.19,4.93-30.56,8.74-4.42,1.63-9,3.31-13.59,4.79A32.82,32.82,0,0,1,749.61,495.94Zm-52.3-22.85a28.56,28.56,0,0,1,14.89,4.1l.81.5c11.86,7.35,24.12,14.94,36.6,14.94a29.48,29.48,0,0,0,8.57-1.26c4.5-1.45,9-3.12,13.43-4.74,9.6-3.53,19.52-7.18,29.75-8.7l-.85-13.44H685.87L685,475A46.16,46.16,0,0,1,697.31,473.09Z"></path>
  <path fill="#e6aa79" d="M758.66,493c-16.49,5-32.25-5-47.3-14.34-9.78-5.77-19-4.11-28.18-1.33l-2.48,30.58c16-1.38,33.29-2.48,47.86,5.15,16.48,8.6,35.83-.71,48.73-10.75,3.58-2.86,7.17-6.45,11.47-7.16a43.66,43.66,0,0,1,15.28-.9l-.94-14.84C787.89,481.29,773.67,488.12,758.66,493Z"></path>
  <path fill="#313131" d="M742.7,518.05a31.94,31.94,0,0,1-14.91-3.57c-7.75-4.06-16.93-6-28.89-6-6.13,0-12.29.49-18.06,1a1.69,1.69,0,0,1-1.31-.48,1.66,1.66,0,0,1-.48-1.3l2.48-30.58a1.65,1.65,0,0,1,1.17-1.45,51,51,0,0,1,14.61-2.61,28.56,28.56,0,0,1,14.89,4.1l.81.51c11.86,7.34,24.12,14.93,36.6,14.93a29.48,29.48,0,0,0,8.57-1.26c4.5-1.45,9-3.12,13.43-4.74,10.08-3.71,20.51-7.55,31.29-8.91a1.64,1.64,0,0,1,1.26.36,1.67,1.67,0,0,1,.59,1.17l.94,14.85a1.65,1.65,0,0,1-1.86,1.74,42.08,42.08,0,0,0-14.69.87l-.11,0c-3.12.52-6,2.94-8.84,5.28-.62.53-1.25,1.05-1.87,1.54C771.35,509,757.47,518.05,742.7,518.05Zm-43.8-12.83c12.51,0,22.18,2,30.42,6.33a28.65,28.65,0,0,0,13.38,3.2c13.79,0,26.95-8.64,33.58-13.79l1.8-1.48c3.13-2.62,6.37-5.32,10.35-6a46.63,46.63,0,0,1,13.84-1.12l-.7-11.12c-9.76,1.48-19,4.89-28.82,8.49-4.42,1.63-9,3.31-13.59,4.79a32.82,32.82,0,0,1-9.55,1.42c-13.42,0-26.09-7.85-38.34-15.44l-.78-.48a25.27,25.27,0,0,0-13.18-3.63,45.56,45.56,0,0,0-12.58,2.15l-2.23,27.51C687.78,505.61,693.33,505.22,698.9,505.22Z"></path>
  <path fill="#ce5044" d="M788.76,495.1c-4.3.71-7.89,4.3-11.47,7.16-12.9,10-32.25,19.35-48.73,10.75-14.57-7.63-31.82-6.53-47.86-5.15l-.06.75a45.89,45.89,0,0,0,45.74,49.6H759.2A45.89,45.89,0,0,0,805,509.43l-1-15.23A43.66,43.66,0,0,0,788.76,495.1Z"></path>
  <path fill="#313131" d="M759.2,559.86H726.38A47.54,47.54,0,0,1,679,508.48l.06-.75a1.66,1.66,0,0,1,1.51-1.52c5.84-.5,12.08-1,18.34-1,12.51,0,22.18,2,30.42,6.33a28.65,28.65,0,0,0,13.38,3.2c13.79,0,26.95-8.64,33.58-13.79l1.8-1.48c3.13-2.62,6.37-5.32,10.35-6a45.66,45.66,0,0,1,15.83-.92,1.66,1.66,0,0,1,1.43,1.54l1,15.23a47.54,47.54,0,0,1-47.45,50.53Zm-77-50.47a44.24,44.24,0,0,0,44.14,47.17H759.2a44.24,44.24,0,0,0,44.15-47l-.87-13.85a42.76,42.76,0,0,0-13.34,1l-.11,0c-3.12.52-6,2.94-8.84,5.28-.62.53-1.25,1.05-1.87,1.54-7,5.43-20.84,14.5-35.62,14.5a31.94,31.94,0,0,1-14.91-3.57c-7.75-4.06-16.93-6-28.89-6C693.26,508.52,687.6,508.94,682.24,509.39Z"></path>
  <path fill="#8f8ec3" d="M660.6,546c17.54,1.8,35.87,4.17,50.24,14.38,11.71,8.31,19.55,21,25.26,34.21,1.79,4.13,3.43,8.41,3.77,12.9,1,12.59-8.1,23.49-16.6,32.83q-37.68,41.46-75.38,82.91c-2.15,2.37-4.38,4.8-7.27,6.18-3.8,1.82-8.21,1.61-12.41,1.37-178.71-10-358.48,11.43-536.7-5.29C71,723.55,47.17,718.9,38,700.42c-8.33-16.83-.18-36.84,8.42-53.53,15.44-30,33.3-60,60.64-79.71,40.16-29,93.18-30.76,142.7-31.44C386.85,533.84,524.26,532,660.6,546Z"></path>
  <path fill="#313131" d="M253.58,733.75c-62.46,0-114-2.11-162.22-6.63-20.49-1.92-45.23-6.61-54.8-26-8.6-17.37-.56-37.56,8.43-55,15.41-29.92,33.48-60.35,61.14-80.3,38.91-28.07,88.08-31,143.65-31.76,46.32-.63,94.22-1.3,141.62-1.3,108.54,0,191.62,3.57,269.37,11.57,18.71,1.92,36.69,4.49,51,14.67,10.38,7.37,18.83,18.79,25.82,34.9,1.81,4.18,3.53,8.69,3.9,13.43,1,13.07-7.86,24-17,34.08l-75.37,82.9c-2.14,2.35-4.57,5-7.79,6.56a20.7,20.7,0,0,1-8.9,1.69c-1.4,0-2.78-.07-4.31-.16-33.53-1.88-69.73-2.79-110.68-2.79-44,0-88.68,1-131.93,2.06S297.53,733.75,253.58,733.75ZM391.4,536.09c-47.37,0-95.26.66-141.57,1.3-55,.76-103.64,3.62-141.77,31.13C81,588.06,63.15,618.1,47.93,647.65c-8.62,16.72-16.35,36-8.41,52C48.37,717.58,72,722,91.67,723.83c48.1,4.52,99.55,6.62,161.91,6.62,43.92,0,88.62-1.05,131.85-2.06s88-2.07,132-2.07c41,0,77.28.92,110.86,2.8,1.48.08,2.81.15,4.13.15a16.77,16.77,0,0,0,7.47-1.36c2.64-1.26,4.74-3.57,6.77-5.8l75.38-82.91c8.68-9.54,17.07-19.84,16.17-31.6-.32-4.25-1.94-8.45-3.63-12.36-6.74-15.55-14.83-26.51-24.71-33.53-13.68-9.71-31.19-12.2-49.44-14.08C582.8,539.65,499.83,536.09,391.4,536.09Z"></path>
  <path fill="#e296a7" d="M133.77,427.9c-3.51-1.17-18.1-3.23-30.64-3.23H83.7c-12.54,0-27.13,2.06-30.64,3.23-6.45,2.15-5.73,7.9-2.15,38.69,3,25.4,17.6,38.62,36.29,41.67H99.62c18.7-3.05,33.35-16.28,36.3-41.67C139.5,435.79,140.21,430.05,133.77,427.9Z"></path>
  <path fill="#313131" d="M87.2,510.67c-.09,0-.18-.36-.26-.37-21.47-3.51-34.85-19-37.67-43.23l-.1-.89c-1.74-15-2.8-24.13-2.59-29.67.21-5.78,1.88-8.47,6-9.83,3.74-1.25,18.47-3,31.17-3h19.43c12.7,0,27.43,1.74,31.16,3,4.08,1.36,5.75,4.08,6,9.86.2,5.54-.85,14.58-2.6,29.6l-.09.79c-2.82,24.23-16.2,39.5-37.67,43-.09,0-.17.38-.26.38l-12.42.38Zm-3.5-84c-12.19,0-26.67,1.82-30.12,3-5,1.66-4.55,6.61-1.12,36.05l.09.81c2.63,22.61,15,36.87,34.79,40.15l12.15,0c19.81-3.28,32.16-17.52,34.79-40.11l.09-.8c3.42-29.44,3.85-34.41-1.12-36.07-3.45-1.15-17.94-3-30.12-3Z"></path>
  <path fill="#333" d="M54.43,431.7a2.94,2.94,0,0,1,1.77-2.15c4.65-2.49,10.3-.73,15.57-.69a59,59,0,0,0,7.49-.66c14.61-1.77,29.4-.55,44.07.73a19.09,19.09,0,0,1,6.58,1.36c.7.33,1.46.9,1.41,1.68s-.78,1.22-1.46,1.54a41.37,41.37,0,0,1-11.27,3.22c-9.69,1.59-19.56,1.66-29.38,1.7-10.87.05-22,0-32.13-4C55.8,434,54.34,433.06,54.43,431.7Z"></path>
  <path fill="#a5a653" d="M105.75,396.26a9.32,9.32,0,0,1,4.63-1.24,135.59,135.59,0,0,1,15.48-.44c4,.11,8.13.4,12.14-.21s8-2.24,10.63-5.34c3.75-4.45,3.81-11.35.8-16.33s-8.63-8.05-14.4-8.77-11.65.68-16.93,3.13a45.28,45.28,0,0,0-19.71,17.73c-5-4.11-4.17-12.34-.61-17.79s9.07-9.34,13-14.51c3.63-4.74,5.89-10.74,5.29-16.68s-4.38-11.7-10-13.76c-7.42-2.73-16,1.58-20.46,8.12S80,344.89,79.54,352.78a169.3,169.3,0,0,0,2.35,40.58A29.73,29.73,0,0,0,63,373.26a30.11,30.11,0,0,0-27.26,4.47,16.38,16.38,0,0,0-5.7,6.95c-2,5.2.35,11.36,4.58,15s10,5,15.54,5.13,11.08-.91,16.6-1.59a17.32,17.32,0,0,1,7.35.23c5.41,1.73,8,8,8.49,13.62s-.49,11.46.92,17l15.09-.12c-.5-11.72-.86-24.07,4.62-34.43A8.59,8.59,0,0,1,105.75,396.26Z"></path>
  <path fill="#313131" d="M83.5,435.67a1.67,1.67,0,0,1-1.6-1.25,42,42,0,0,1-.85-11c0-2.07,0-4.22-.12-6.27-.4-4.89-2.54-10.65-7.34-12.18a10.17,10.17,0,0,0-3.14-.44,29.46,29.46,0,0,0-3.51.27c-1.28.16-2.57.34-3.85.52a81.87,81.87,0,0,1-13,1.08c-4.74-.1-11.45-1.14-16.58-5.52s-7.16-11.26-5.05-16.82a17.86,17.86,0,0,1,6.24-7.68,31.77,31.77,0,0,1,19.05-6.28,30.57,30.57,0,0,1,9.74,1.57,31.23,31.23,0,0,1,15.17,11.2,170.45,170.45,0,0,1-.79-30.22c.48-7.65,1.61-16.42,6.4-23.44,4-5.88,10.7-9.68,17.07-9.68a15.32,15.32,0,0,1,5.32.94c5.93,2.18,10.38,8.27,11.07,15.14.6,6-1.4,12.33-5.63,17.86a63.6,63.6,0,0,1-6.08,6.58,49.2,49.2,0,0,0-6.88,7.82c-2.78,4.25-3.73,10.45-1,14.21a47.19,47.19,0,0,1,19.28-16.55c6.17-2.86,12.26-4,17.84-3.27,6.66.84,12.5,4.41,15.61,9.56,3.49,5.78,3.08,13.45-1,18.24-3.31,3.92-8.16,5.38-11.64,5.91a39,39,0,0,1-6,.4c-1.5,0-3,0-4.49-.1l-2-.07a136.92,136.92,0,0,0-15.29.43,8.21,8.21,0,0,0-3.84,1,7.1,7.1,0,0,0-2,2.61c-5.43,10.26-4.9,22.65-4.43,33.59a1.63,1.63,0,0,1-.45,1.2,1.69,1.69,0,0,1-1.19.53l-15.09.12Zm-13-34.41a13.38,13.38,0,0,1,4.15.59c6.34,2,9.13,9.1,9.63,15,.18,2.21.15,4.43.13,6.59a45.06,45.06,0,0,0,.46,8.85l12.05-.09c-.43-10.48-.66-23.09,4.88-33.56a10.17,10.17,0,0,1,3.06-3.8,11,11,0,0,1,5.43-1.52,138.76,138.76,0,0,1,15.66-.44l2,.06c1.44.05,2.93.11,4.37.11a36.39,36.39,0,0,0,5.47-.36c2.92-.45,7-1.64,9.61-4.78,3.16-3.74,3.44-9.8.66-14.4-2.59-4.29-7.52-7.28-13.19-8-5-.62-10.44.4-16,3a43.7,43.7,0,0,0-19,17.08,1.65,1.65,0,0,1-1.13.77,1.63,1.63,0,0,1-1.33-.34c-5.73-4.66-5-13.81-.95-20a52.48,52.48,0,0,1,7.32-8.36,61.82,61.82,0,0,0,5.78-6.24c3.66-4.79,5.47-10.44,5-15.52-.57-5.64-4.15-10.62-8.92-12.37a11.94,11.94,0,0,0-4.18-.73c-5.3,0-10.93,3.23-14.34,8.23-4.34,6.36-5.38,14.58-5.83,21.78a167.45,167.45,0,0,0,2.32,40.18,1.65,1.65,0,0,1-3.22.72,28.2,28.2,0,0,0-17.84-18.95,27.08,27.08,0,0,0-8.68-1.4A28.5,28.5,0,0,0,36.71,379a14.65,14.65,0,0,0-5.14,6.22c-1.6,4.21.13,9.74,4.11,13.14,4.38,3.75,10.3,4.64,14.5,4.73a79,79,0,0,0,12.46-1.06c1.3-.18,2.6-.36,3.9-.52A32.82,32.82,0,0,1,70.45,401.26Z"></path>
  <path fill="#333" d="M102.1 392.55a1.65 1.65 0 0 1-1.28-2.69c15.12-18.62 39.05-14.55 40.06-14.37a1.65 1.65 0 1 1-.58 3.25h0c-.23 0-23-3.88-36.91 13.2A1.64 1.64 0 0 1 102.1 392.55ZM88.5 364.45h-.17a1.64 1.64 0 0 1-1.47-1.81c1.36-13.33 10-29.47 10.39-30.15a1.65 1.65 0 1 1 2.91 1.57c-.09.16-8.72 16.25-10 28.92A1.64 1.64 0 0 1 88.5 364.45ZM75.88 394.26a1.63 1.63 0 0 1-1-.32c-18.08-13-35.5-5.28-35.68-5.2a1.65 1.65 0 1 1-1.37-3c.78-.36 19.36-8.56 39 5.53a1.66 1.66 0 0 1-1 3Z"></path>
  <path fill="#a5a653" d="M358.51,125c28.63-29.34,100.9,60.83,105.19,81.58,0,0,13.45,27.43,8.22,37.83,3.66,5.68,7,11,9.25,14.58,4.72,7.68,11.48,22.25,16.09,32.58.63-22.88,1.19-57.87.14-78.55a9.68,9.68,0,0,1-4.86-.58C472.72,205,396.68,11.77,449.61,2.1S525.42,141,516.39,166c0,0-2.55,33.71-13.45,44.06,1.88,30-.25,91.19-.36,94.35l-.45,12.89-5-11.88c-.14-.31-13.37-31.43-20.8-43.5-2.13-3.47-5.34-8.51-8.84-14l-.17,0C452.25,251.62,329.89,154.3,358.51,125Z"></path>
  <path fill="#313131" d="M502.12,319a1.64,1.64,0,0,1-1.51-1l-5-11.87c-.14-.31-13.33-31.33-20.68-43.29-1.82-2.95-4.59-7.33-8.25-13h-.27c-8.86,0-34.39-17.8-55-35.38-13.29-11.33-45.32-40.31-55.64-64.8-4.71-11.18-4.17-19.86,1.63-25.8a20.49,20.49,0,0,1,15.21-6.31c34.59,0,88.69,70.4,92.74,88.5,1.24,2.58,12.84,27.09,8.51,38.22,3.91,6.07,6.86,10.73,8.78,13.87,3.82,6.2,8.9,16.72,13.22,26.17.39-16.67,1-49,0-69.54A12,12,0,0,1,492,214c-9.29-3.46-26.73-39.56-39.17-73.43C444.87,119,426.79,65,429.9,29.7,431.42,12.38,438,2.55,449.32.48a28.75,28.75,0,0,1,5.2-.48c11.3,0,21.84,6.85,31.33,20.35C498.08,37.76,508.7,67.23,515,101.19c5.26,28.46,6.5,55.17,3,65.19-.26,3.16-3,33.5-13.39,44.35,1.82,30.4-.31,91.17-.4,93.76l-.45,12.9a1.65,1.65,0,0,1-1.35,1.56A1.63,1.63,0,0,1,502.12,319Zm-34.67-72.64a1.64,1.64,0,0,1,1.39.76c4,6.15,6.94,10.85,8.86,14,7.53,12.24,20.78,43.43,20.91,43.73l2.13,5,.19-5.45c.09-2.61,2.24-64.21.36-94.19a1.67,1.67,0,0,1,.51-1.3c10.32-9.79,12.92-42.65,12.94-43a1.34,1.34,0,0,1,.1-.44c3.31-9.2,2-36-3.12-63.68-6.19-33.51-16.61-62.5-28.58-79.54C473,7.81,461.82,1.56,449.91,3.73,440.19,5.5,434.56,14.34,433.19,30c-2.12,24,6.37,64.9,22.71,109.4,15.33,41.77,31,69.13,37.21,71.46a8.14,8.14,0,0,0,4.05.5,1.65,1.65,0,0,1,1.89,1.55c1.21,24,.2,66.29-.14,78.68a1.65,1.65,0,0,1-3.16.62c-4.73-10.61-11.34-24.84-16-32.38-2-3.24-5.1-8.14-9.22-14.55a1.66,1.66,0,0,1-.09-1.64c4-7.93-4.59-28.94-8.23-36.36a1.44,1.44,0,0,1-.13-.4c-3.48-16.8-57-86.07-89.55-86.07a17.29,17.29,0,0,0-12.84,5.32c-4.78,4.9-5.11,12.37-1,22.21,16.62,39.43,94.45,98.16,107.63,98.16a2.47,2.47,0,0,0,.47,0l.19-.06A1.51,1.51,0,0,1,467.45,246.34Z"></path>
  <path fill="#a5a653" d="M496,297.34c4.68-16.21,27.17-56.19,38.74-76.22-6.76-6.63-4.45-16.14,24.59-47,30.06-32,62-72,72-34.35,9.43,35.47-66.2,92.24-91.71,84.32-10.44,18.1-29.81,52.51-36.56,70.17,3.09-3.46,7.07-8.25,10.77-12.7C530,262.16,552,235.63,566,233.3a67,67,0,0,1,20.85-.52c7.91-3.06,25.25,7.81,25.25,7.81,17.82,12.8,71.76,72.77,46.49,105.61-24.69,32.1-75.9-90.63-75.41-108.08a65,65,0,0,0-16.24.82c-11.9,2-34,28.63-48.69,46.26-12.2,14.68-16.34,19.51-19.44,19.51a3.39,3.39,0,0,1-1.61-.44C494.44,302.79,495.5,299.11,496,297.34Z"></path>
  <path fill="#313131" d="M649.21,353.18c-5.12,0-10.87-3.25-17.11-9.66-23.47-24.13-49-87.93-50.46-103.85a65.18,65.18,0,0,0-14.39.9c-11.3,1.89-34.08,29.3-47.69,45.68-13.24,15.94-16.87,20.11-20.71,20.11a4.93,4.93,0,0,1-2.38-.63c-4-2.11-2.58-7-2-8.85,4.58-15.86,25.68-53.66,38.29-75.52-7.25-8.4-.76-20.54,25.43-48.39,3-3.21,6.11-6.56,9.1-9.8,19.14-20.74,37.22-40.33,50.58-40.33,7.15,0,12.25,5.55,15.15,16.49s-1.51,24.35-12.75,39c-19.38,25.22-55.17,48.18-75.08,48.18a21.47,21.47,0,0,1-4.67-.48c-9,15.65-23.27,41-31.57,58.95l3.71-4.46c16.26-19.57,38.53-46.38,53.15-48.81a69.56,69.56,0,0,1,21-.58,11,11,0,0,1,3.48-.51c9,0,22.24,8.26,22.8,8.61a.47.47,0,0,1,.09.06c13.23,9.5,48.5,47.07,53.26,79.39,1.66,11.26-.5,20.88-6.42,28.57C656.89,351.17,653.28,353.18,649.21,353.18Zm-70.64-116.9c1.63,0,3.25.06,4.79.2a1.64,1.64,0,0,1,1.51,1.69c-.34,12.32,25.7,78.48,49.6,103.05,5.59,5.74,10.55,8.66,14.74,8.66,3,0,5.69-1.53,8.11-4.68,5.35-7,7.29-15.74,5.77-26.08-4.61-31.31-38.93-67.84-51.87-77.16-.82-.5-13.21-8.07-21-8.07a7.54,7.54,0,0,0-2.72.43,1.6,1.6,0,0,1-.84.09,66.1,66.1,0,0,0-20.34.52c-13.4,2.23-35.22,28.49-51.15,47.66-3.6,4.34-7.68,9.25-10.81,12.75a1.65,1.65,0,0,1-2.77-1.69c6.74-17.66,25.87-51.69,36.67-70.41a1.64,1.64,0,0,1,1.92-.75,16.81,16.81,0,0,0,5,.67c19.06,0,53.6-22.34,72.46-46.88,7.39-9.6,15.49-23.66,12.18-36.1-2.51-9.45-6.42-14-12-14-11.92,0-30.34,20-48.15,39.27-3,3.24-6.09,6.6-9.12,9.82-28.18,30-30.38,39.09-24.64,44.71a1.65,1.65,0,0,1,.27,2c-12.45,21.55-34,60.06-38.59,75.85-.62,2.16-1,4.26.41,5a1.8,1.8,0,0,0,.84.25c2.45,0,8-6.72,18.17-18.92,15.69-18.88,37.17-44.74,49.69-46.83A72.52,72.52,0,0,1,578.57,236.28Z"></path>
  <path fill="#eeb857" d="M581.34,271.1H421.9l7.58,116.12c1.61,24.74,16.69,43.69,34.76,43.69H539c18.07,0,33.14-19,34.76-43.69Z"></path>
  <path fill="#313131" d="M539,432.57H464.24c-19.08,0-34.73-19.45-36.41-45.25l-7.58-116.11a1.64,1.64,0,0,1,1.65-1.76H581.34a1.66,1.66,0,0,1,1.65,1.76l-7.58,116.11C573.72,413.12,558.07,432.57,539,432.57ZM423.66,272.75l7.46,114.36c1.55,23.64,16.09,42.15,33.12,42.15H539c17,0,31.57-18.51,33.11-42.15l7.46-114.36Z"></path>
  <path fill="#f0ddd8" d="M554.15 306.63a4.49 4.49 0 0 1-3.7-1.94c-1.89-2.78-3.85-5.64-6.26-7.62-2.82-2.32-6.63-3.74-10.32-5.11a4.47 4.47 0 0 1 3.13-8.38c4.17 1.56 8.89 3.32 12.86 6.58 3.4 2.79 5.83 6.34 8 9.48a4.46 4.46 0 0 1-3.68 7ZM511 349.25a4.42 4.42 0 0 1-2.47-.75 4.46 4.46 0 0 1-1.25-6.19 34.31 34.31 0 0 1 13.32-11.72 4.47 4.47 0 0 1 8.45 1.06c.2 1 .48 4.6-4.13 6.79a25.56 25.56 0 0 0-10.19 8.82A4.47 4.47 0 0 1 511 349.25ZM538.07 404.63a4.47 4.47 0 0 1-.3-8.93c1.7-.12 3.74-3 4.72-4.43l4-5.76a4.47 4.47 0 0 1 7.32 5.14l-4 5.76c-1.91 2.72-5.47 7.81-11.44 8.21ZM498 393.69a4.42 4.42 0 0 1-2.7-.91 27.65 27.65 0 0 0-8.77-4.5l-.81-.24c-2.21-.64-5-1.44-7.13-3.68a4.47 4.47 0 0 1 6.42-6.22 9 9 0 0 0 3.21 1.32l.92.27a36.78 36.78 0 0 1 11.58 5.94 4.47 4.47 0 0 1-2.72 8ZM500.07 309.63a4.91 4.91 0 0 1-.67-.05 4.46 4.46 0 0 1-2.91-1.78 16.35 16.35 0 0 0-6.06-1.12 20.7 20.7 0 0 0-3.21.6 20.91 20.91 0 0 1-6.83.81 4.47 4.47 0 1 1 .75-8.91 15.1 15.1 0 0 0 4-.6 29.49 29.49 0 0 1 4.64-.82c4.27-.3 8.26 1.1 11.46 2.23a5.31 5.31 0 0 1 3.41 6.15A4.83 4.83 0 0 1 500.07 309.63ZM440.8 303.74a4.47 4.47 0 0 1-4.47-4.39c-.08-5.43 5.22-7.6 7.49-8.53a24.57 24.57 0 0 0 7.15-4.53 4.47 4.47 0 0 1 6 6.62 33.44 33.44 0 0 1-9.78 6.17 17.26 17.26 0 0 0-2 .95 4.47 4.47 0 0 1-4.33 3.71ZM470 357.31a4.47 4.47 0 0 1-3.31-1.47 14.19 14.19 0 0 0-3.92-2.52l-1.48-.78c-4.13-2.24-6.58-4.93-7.5-8.22a4.47 4.47 0 0 1 8.61-2.41c.13.47.72 1.45 3.15 2.77l1.31.68a21.47 21.47 0 0 1 6.45 4.47 4.47 4.47 0 0 1-3.31 7.48ZM462.42 408.83a4.46 4.46 0 0 1-3.06-1.21l-7.87-7.39a4.47 4.47 0 1 1 6.12-6.52l7.87 7.39a4.47 4.47 0 0 1-3.06 7.73Z"></path>
  <path fill="#ce5044" d="M522.56,410.67h63.12c0,13-10,22-22.24,22H440.93c-12.29,0-22.25-9-22.25-22Z"></path>
  <path fill="#313131" d="M563.44,434.67H440.93c-13.63,0-23.9-10.49-23.9-24.15a1.83,1.83,0,0,1,1.65-1.85h167a1.84,1.84,0,0,1,1.66,1.85C587.34,424.18,577.06,434.67,563.44,434.67Zm-143.05-23a20.08,20.08,0,0,0,20.54,19H563.44a20.07,20.07,0,0,0,20.53-19Z"></path>
  <path fill="#333" d="M497.4 214.63a1.66 1.66 0 0 1-1.65-1.52C495.67 212 486.68 97 464.54 46.26a1.65 1.65 0 0 1 3-1.32C489.94 96.17 499 211.7 499.05 212.86a1.65 1.65 0 0 1-1.52 1.77ZM470.41 248.41a1.64 1.64 0 0 1-1.37-.73c-.39-.58-39.8-58.93-69.77-84.26a1.65 1.65 0 1 1 2.13-2.52c30.33 25.63 70 84.35 70.38 84.94a1.65 1.65 0 0 1-.44 2.29A1.68 1.68 0 0 1 470.41 248.41ZM536.13 223.36a1.61 1.61 0 0 1-1.16-.49 1.64 1.64 0 0 1 0-2.33c3.15-3.16 21.6-20.18 39.43-36.63 13.09-12.07 25.44-23.47 30.68-28.4a1.65 1.65 0 1 1 2.26 2.4c-5.24 4.94-17.61 16.35-30.7 28.43-17.81 16.43-36.23 33.42-39.34 36.53A1.61 1.61 0 0 1 536.13 223.36ZM644.7 318.13a1.65 1.65 0 0 1-1.6-1.26c-13.44-54.46-60.11-77-60.58-77.25a1.65 1.65 0 0 1 1.4-3c.5.23 12.31 5.86 26 18.49a123.53 123.53 0 0 1 36.4 61 1.67 1.67 0 0 1-1.21 2A1.9 1.9 0 0 1 644.7 318.13Z"></path>
  <path fill="#e6aa79" d="M276.37,546.59c3.3-25.6,18.17-46.25,25.61-71,7.43-24-9.92-47.08-34.7-41.3-19.82,4.13-39.64,4.13-57.82-6.61-4.13-2.48-10.73-.83-12.39,2.48C164,483.44,172.7,543.07,183.15,600.52l1.75-.56L274.29,612C281.42,592,274.8,568.57,276.37,546.59Z"></path>
  <path fill="#313131" d="M274.29,613.69l-.22,0-89-12-1.39.45a1.65,1.65,0,0,1-2.14-1.27c-5.11-28.14-10.05-58-9.4-87.09.74-32.49,8.43-60.1,23.51-84.41,1.39-2.66,5.13-4.51,9.15-4.51a10.75,10.75,0,0,1,5.53,1.42c10.17,6,21.39,8.93,34.3,8.93A108.87,108.87,0,0,0,267,432.64a35.19,35.19,0,0,1,7.9-.93,29.49,29.49,0,0,1,24,12.11c6.48,8.8,8.25,20.85,4.71,32.23-3,10.06-7.29,19.53-11.42,28.7-6.26,13.87-12.17,27-14.12,42-.57,8.1,0,16.58.54,24.77.92,13.88,1.87,28.23-2.7,41.06A1.66,1.66,0,0,1,274.29,613.69ZM184.9,598.3l.22,0,88.05,11.9c3.85-11.85,3-24.79,2.08-38.47-.55-8.32-1.12-16.93-.53-25.27,0,0,0-.07,0-.1,2-15.54,8.3-29.5,14.39-43,4.09-9.07,8.31-18.44,11.27-28.31,3.23-10.4,1.65-21.34-4.21-29.3A25.9,25.9,0,0,0,274.85,435a31.57,31.57,0,0,0-7.19.86,112.53,112.53,0,0,1-23.05,2.6c-13.52,0-25.29-3.08-36-9.4a7.44,7.44,0,0,0-3.84-1c-2.72,0-5.45,1.21-6.23,2.76l-.07.13c-31.5,50.7-25.16,105.83-14,167.37A1.77,1.77,0,0,1,184.9,598.3Z"></path>
  <path fill="#e6aa79" d="M604.29,735.75c-10.3.46-21.67.14-32,2.78-20.52,25.73-21.62,44.87-15.73,52.22,9.91,12.39,33.45,9.91,57-6.19s11.15-37.17,18.58-47.08a11.73,11.73,0,0,1,2.41-2.11A296.61,296.61,0,0,0,604.29,735.75Z"></path>
  <path fill="#313131" d="M575.51,799.67h0c-8.8,0-15.79-2.64-20.21-8.17-6.87-8.58-4.67-28.55,15.72-54.14a1.48,1.48,0,0,1,.89-.5c8.27-2.12,17.05-2.33,25.55-2.57,2.34-.07,4.55-.11,6.76-.21,5.6-.4,11.5-.58,18-.58,3.87,0,7.93.07,12.41.21a1.66,1.66,0,0,1,.92,3,10,10,0,0,0-2.06,1.76c-2.34,3.12-2.46,7.81-2.59,13.24-.25,10.42-.57,23.11-16.38,33.93C601,794.87,587.16,799.67,575.51,799.67ZM573.25,740c-18.84,23.83-21.2,42.46-15.38,49.73,3.77,4.72,9.87,7.21,17.63,7.21,11,0,24.18-4.88,37.13-13.74,14.42-9.86,14.7-21.39,15-31.56.13-5.55.26-10.79,2.94-14.72-2.91-.06-5.66-.1-8.32-.1-6.41,0-12.24.19-17.8.58-2.27.11-4.6.17-6.86.24C589.41,737.86,581,738.09,573.25,740Z"></path>
  <path fill="#e6aa79" d="M173.12,727.49c-3.62-2.9-5.81-6.74-7.61-10.84-9.3,17.74-34.87,67,9.48,56.76,30-6.92,40.88-27.67,49.57-46.87C207,732,189,740.05,173.12,727.49Z"></path>
  <path fill="#313131" d="M164.4,776.44c-6.77,0-11.52-2.17-14.12-6.45-7.81-12.92,7.31-41.78,13.76-54.11a1.71,1.71,0,0,1,1.52-.88,1.65,1.65,0,0,1,1.46,1c1.51,3.44,3.55,7.35,7.13,10.21a28.51,28.51,0,0,0,18.37,6.31c8.26,0,17.07-2.86,25.58-5.63,2-.65,4-1.29,6-1.9a1.64,1.64,0,0,1,1.73.48,1.66,1.66,0,0,1,.26,1.78c-9.23,20.39-20.75,40.87-50.7,47.79A50.07,50.07,0,0,1,164.4,776.44Zm1-56.09c-6.41,12.38-18.63,37.52-12.33,47.93,2,3.27,5.67,4.86,11.29,4.86a46.53,46.53,0,0,0,10.22-1.34c26.92-6.22,37.94-23.43,46.88-42.56l-2.38.77c-8.76,2.85-17.82,5.79-26.6,5.79a31.69,31.69,0,0,1-20.42-7A25.56,25.56,0,0,1,165.44,720.35Z"></path>
  <path fill="#e6aa79" d="M108.41,641.35c9.3-.71,17.1-1.46,22-1.75,21.06-1.24,17.34,27.26,23.54,35.93s32.21,3.72,43.36,0,9.91-32.21-2.48-45.84c-9.39-10.32-32.28-15-42.83-16.6a44.74,44.74,0,0,0-12.73,5.36A323.69,323.69,0,0,0,108.41,641.35Z"></path>
  <path fill="#313131" d="M169.14,682c-8.38,0-13.95-1.85-16.56-5.51-2.13-3-3.15-7.86-4.23-13-2.36-11.3-4.84-23-17.87-22.22-2.73.16-6.44.47-10.75.84-3.37.28-7.14.6-11.2.91a1.66,1.66,0,0,1-1.65-1,1.64,1.64,0,0,1,.48-1.89,323.37,323.37,0,0,1,31-23,46.23,46.23,0,0,1,13.2-5.57,1.48,1.48,0,0,1,.66,0c12.28,1.91,34.3,6.67,43.8,17.12s12.28,28.07,9.54,38.54c-1.38,5.3-4.06,8.75-7.76,10C190.49,679.54,178.78,682,169.14,682Zm-37.45-44.09c14.7,0,17.58,13.8,19.9,24.88,1,4.81,1.95,9.36,3.68,11.78,1.93,2.7,6.72,4.13,13.87,4.13,9.22,0,20.78-2.46,27.63-4.74,3.26-1.08,4.85-4.77,5.61-7.67,2.53-9.69-.4-26.26-8.79-35.49-9-9.94-31.79-14.49-41.53-16a43.17,43.17,0,0,0-11.93,5.09,294.68,294.68,0,0,0-26.56,19.42c2.07-.16,4-.33,5.89-.49,4.32-.36,8.06-.67,10.83-.84C130.77,637.92,131.24,637.91,131.69,637.91Z"></path>
  <path fill="#7e4e3d" d="M762.24,607.39c-3.72-19.82-5-99.11-19.83-138.76s-39.64-44.6-96.63-57S342.24,390.58,329.85,372l-149.3-22.81-39,152.9S1.54,606.15,17.64,628.45c12.38,17.14,59.88,15.25,90.77,12.9a323.69,323.69,0,0,1,30.84-22.9A44.74,44.74,0,0,1,152,613.09c-3.37-.52-5.49-.74-5.49-.74l36.66-11.83C172.7,543.07,164,483.44,197.07,430.13c1.66-3.31,8.26-5,12.39-2.48,18.18,10.74,38,10.74,57.82,6.61,24.78-5.78,42.13,17.34,34.7,41.3-7.44,24.78-22.31,45.43-25.61,71-1.57,22,5.05,45.45-2.08,65.45l2.29.31c-6.2,22.3-102.83,88-109,100.35-.51,1-1.21,2.36-2,3.95,1.8,4.1,4,7.94,7.61,10.84,15.88,12.56,33.87,4.47,51.44-1,5.32-11.74,9.81-22.89,17.33-29.95,19.82-18.58,83-29.73,104.07-32.21s53.27-37.17,53.27-37.17l183.36-5c3.72,35.93,63.19,55.75,63.19,55.75-36.26,22.16-59.42,42.89-73.47,60.52,10.31-2.64,21.68-2.32,32-2.78a296.61,296.61,0,0,1,30.27-.38c19.26-13.88,134.15-63.37,138.83-80.9C778.34,635.89,766,627.21,762.24,607.39Z"></path>
  <path fill="#313131" d="M572.31,740.18a1.66,1.66,0,0,1-1.39-.76,1.64,1.64,0,0,1,.09-1.92c15.74-19.75,39.61-39.62,71-59.1-12.55-4.72-56.3-23.33-60.85-54.45L400,628.85c-4.25,4.49-33.56,34.79-53.82,37.17-20.54,2.42-83.57,13.44-103.13,31.78-6.5,6.09-10.78,15.66-15.32,25.78-.54,1.21-1.08,2.42-1.64,3.65a1.62,1.62,0,0,1-1,.89c-2,.61-4,1.25-5.93,1.89-8.76,2.85-17.82,5.79-26.6,5.79a31.69,31.69,0,0,1-20.42-7c-4.16-3.32-6.43-7.66-8.1-11.46a1.65,1.65,0,0,1,0-1.44l.15-.27c.76-1.46,1.41-2.7,1.89-3.65,2.48-5,16.47-16.28,39.09-34.31,28.2-22.48,63-50.22,69.15-63.94l-.25,0a1.65,1.65,0,0,1-1.19-.77,1.69,1.69,0,0,1-.15-1.42c4.35-12.19,3.46-25.56,2.52-39.73-.55-8.32-1.12-16.93-.53-25.27,0,0,0-.07,0-.1,2-15.54,8.3-29.5,14.39-43,4.09-9.07,8.31-18.44,11.27-28.31,3.23-10.4,1.66-21.35-4.21-29.3A25.9,25.9,0,0,0,274.85,435a31.57,31.57,0,0,0-7.19.86,112.61,112.61,0,0,1-23.05,2.6c-13.52,0-25.29-3.08-36-9.4a7.44,7.44,0,0,0-3.84-1c-2.72,0-5.45,1.21-6.23,2.76l-.07.13c-31.81,51.21-25,106.94-13.71,169.23a1.64,1.64,0,0,1-1.11,1.86l-30.5,9.84a1.67,1.67,0,0,1,.47,1.08,1.64,1.64,0,0,1-1.24,1.68,42.86,42.86,0,0,0-12.26,5.17,319.18,319.18,0,0,0-30.67,22.77,1.77,1.77,0,0,1-.93.37c-8.53.65-21.4,1.51-34.47,1.51-31.53,0-50.42-4.93-57.76-15.09-4.23-5.86-.09-16.06,12.64-31.19,9.67-11.47,24.31-25.79,43.52-42.57,30.6-26.72,63.33-51.34,67.62-54.55L179,348.77a1.66,1.66,0,0,1,1.85-1.22l149.3,22.81a1.66,1.66,0,0,1,1.13.72c2.06,3.1,14.51,8,62,13.73,34.55,4.16,78.55,7.78,121.1,11.29,56,4.61,109,9,131.76,13.93l2,.43C703.62,422.52,729,428,744,468.05c10.49,28,14.3,76.15,16.82,108,1.11,14.06,2,25.16,3.08,31,1.4,7.45,4,13.22,6.57,18.8,4,8.76,7.75,17,4.55,29-3,11.29-42.55,31.86-93.94,57.59-20.91,10.46-39,19.5-45.51,24.22a1.7,1.7,0,0,1-1,.31c-4.45-.14-8.48-.21-12.31-.21-6.41,0-12.24.19-17.8.58-2.27.11-4.6.17-6.86.24-8.31.23-16.91.47-24.82,2.5A2,2,0,0,1,572.31,740.18Zm10.28-119.51a1.63,1.63,0,0,1,1.65,1.45c3.56,34.45,61.48,54.14,62.06,54.34a1.64,1.64,0,0,1,.34,3c-30.52,18.66-54.07,37.64-70,56.51,6.85-1.21,13.95-1.41,20.86-1.61,2.34-.06,4.55-.12,6.76-.22,5.6-.4,11.5-.59,18-.59,3.71,0,7.59.06,11.86.19,7.1-5,24.93-13.87,45.5-24.17,37.71-18.88,89.36-44.73,92.23-55.49s-.47-18.22-4.37-26.78c-2.5-5.49-5.33-11.71-6.81-19.57-1.13-6-2-17.21-3.13-31.36-2.5-31.69-6.28-79.58-16.61-107.12-14.38-38.34-37.53-43.37-93.47-55.53l-2-.43C622.83,408.34,570,404,514.1,399.39,408.77,390.72,338.51,384.18,329,373.53L181.79,351,143.14,502.49a1.67,1.67,0,0,1-.62.92c-.35.26-35.34,26.32-67.9,54.75C18.22,607.41,15.55,622.74,19,627.49c6.58,9.1,25.11,13.72,55.08,13.72,12.7,0,25.22-.83,33.7-1.47a326,326,0,0,1,30.61-22.68,44.16,44.16,0,0,1,7-3.54,1.66,1.66,0,0,1,.65-2.75l35.28-11.38c-5-27.71-9.78-57.09-9.14-85.66.74-32.49,8.43-60.1,23.51-84.41,1.39-2.66,5.13-4.51,9.15-4.51a10.75,10.75,0,0,1,5.53,1.42c10.17,6,21.39,8.93,34.3,8.93A108.87,108.87,0,0,0,267,432.64a35.19,35.19,0,0,1,7.9-.93,29.49,29.49,0,0,1,24,12.11c6.49,8.8,8.25,20.84,4.71,32.23-3,10.06-7.29,19.53-11.42,28.7-6.26,13.87-12.17,27-14.12,42-.57,8.1,0,16.58.54,24.77.87,13.19,1.78,26.8-2.06,39.14l.31,0a1.65,1.65,0,0,1,1.37,2.08c-3.89,14-39.51,42.39-70.94,67.44C188.76,695,171.32,708.86,169,713.44c-.43.87-1,2-1.69,3.27a25,25,0,0,0,6.81,9.49,28.56,28.56,0,0,0,18.37,6.3c8.26,0,17.07-2.86,25.58-5.63,1.76-.57,3.51-1.14,5.26-1.68.45-1,.89-2,1.33-3,4.67-10.44,9.09-20.29,16.07-26.84,20.2-18.94,84.19-30.2,105-32.65C366,660.36,397.7,626.43,398,626.09a1.59,1.59,0,0,1,1.17-.49l183.36-4.93Z"></path>
  <path fill="#7e4e3d" d="M187.89,332.05s32.38,43.67,58.73,48.94,70-23.34,70-23.34l-1.85-21-.41-4.63s19.58,14.3,29.37,14.3,26.36-12,26.36-12,6,3,9.79,1.5c2-.8,4.85-9.68,7-18.17.83-3.33,1.55-6.59,2.06-9.28.64-3.37.95-5.85.76-6.43a18,18,0,0,0-1.82-2.57c-1.9-2.46-5.13-6.42-8.94-11a6,6,0,0,1-4.3-1.47c-8.87-8.19-25.16-17.62-23.1-31.08l-1.75-2.06s0-31.62-3-34.63-18.07-29.37-18.07-29.37,0-3.58-.23-8.56c-.32-6.66-1.06-15.85-2.78-22.31-3-11.3.75-18.08,3.77-31.63.06-.3.13-.61.2-.93,3.07-13.79,8.71-39,3.56-39s-17.32,36.14-22.59,45.93-12.05,39.16-12.05,39.16c-8.28-3-33.13-2.26-33.13-2.26s-4.52-88.85-8.28-88.85-12.81,20.33-17.32,28.61-24.1,61-27.86,69.28-4.52,18.82-2.26,21.08,0,14.31,0,18.07,7.53,12,7.53,12C203.7,255.24,187.89,332.05,187.89,332.05Z"></path>
  <path fill="#313131" d="M253.63,382.67h0a38.49,38.49,0,0,1-7.33-.37c-26.67-5.33-58.4-47.62-59.74-49.42l-.44-.52.15-.68c.64-3.11,15.61-75.33,29-101.07-2.19-2.51-7.19-8.64-7.19-12.28,0-1.15.19-2.92.41-5,.33-3.21,1.12-10.74.08-11.92-3.24-3.23-1.6-15.19,1.92-22.93,1.47-3.22,5.38-13.32,9.91-25,7.13-18.41,15.22-39.27,18-44.38,1-1.94,2.39-4.6,3.81-7.42,7.8-15.56,11.6-22.06,15-22.06,2.08,0,3.89,0,7.2,46,1.34,18.58,2.36,37.36,2.65,42.86,1.21,0,3,0,5.18,0,8.34,0,19.09.34,25.18,1.9,1.55-6.5,7.16-29.25,11.8-37.85,1.7-3.17,4.23-9.4,6.91-16,8.49-20.94,13-30.8,17.13-30.8a3.05,3.05,0,0,1,2.41,1.18c2.95,3.68.66,17.29-4.3,39.57l-.06.24c-.07.31-.13.63-.2.93-.74,3.33-1.54,6.31-2.25,8.93-2.23,8.3-3.7,13.79-1.53,21.91,1.76,6.62,2.51,16,2.83,22.67.18,4,.22,7.07.23,8.19,6,10.52,15.52,26.57,17.59,28.64,3.09,3.09,3.48,25.17,3.5,35.2l1.36,1.59.49.57-.12.75c-1.5,9.81,8,17.57,16.45,24.42,2.21,1.8,4.31,3.51,6.14,5.19a4.36,4.36,0,0,0,3.2,1h.77l.49.59c4.27,5.17,7.21,8.79,9,11.06s2,2.77,2.07,3.06.43,1.27-.69,7.25c-.52,2.74-1.26,6.07-2.09,9.38-4.48,17.92-7,18.93-8,19.31a8.46,8.46,0,0,1-3.08.54,19.63,19.63,0,0,1-7.14-1.69c-3.49,2.45-17.47,11.81-26.54,11.81-8,0-21.47-8.54-27.41-12.58l2,23.06-.83.23C316.05,359.71,280.23,382.67,253.63,382.67Zm-64-51c4,5.19,33.49,43,57.29,47.72a34.09,34.09,0,0,0,6.68.62c23.45,0,55.73-19.69,61.29-23.19l-2.49-28.23,2.94,2.14c.19.14,19.25,14,28.39,14S369,333.09,369.15,333l.81-.59.9.45a17.82,17.82,0,0,0,6.58,1.75,5.08,5.08,0,0,0,1.8-.28c.89-.7,3.21-5.77,6-17.06.81-3.25,1.53-6.51,2-9.19a33.17,33.17,0,0,0,.78-5.61c-.14-.22-.53-.79-1.52-2.07-1.65-2.13-4.49-5.63-8.44-10.41a7.15,7.15,0,0,1-4.67-1.92c-1.71-1.57-3.76-3.25-5.94-5-8.46-6.88-18.94-15.41-17.72-26.71a12.61,12.61,0,0,0-1.49-1.5l-.6-.47v-.6c0-14.6-.76-31.55-2.34-33.49-3.06-3.07-16.32-27-17.88-29.7l.22-.38v-.44s-.34-3.6-.56-8.48c-.31-6.52-1.21-15.63-2.9-22-2.39-9-.83-15.11,1.46-23.62.69-2.59,1.44-5.52,2.16-8.79.07-.3.12-.6.18-.91l.05-.26c1.43-6.39,3.37-15.15,4.54-22.68,1.69-10.84.82-13.43.49-14-3,1.52-10.11,19.13-14,28.68-2.83,7-5.27,13-7.07,16.33-5.1,9.48-11.82,38.45-11.89,38.74l-.42,1.82L298,174c-4-1.44-13.15-2.24-25.82-2.24-3.92,0-6.67.08-6.7.08l-1.62,0-.08-1.62C262.26,140,259,91.48,256.55,83.42c-2.77,2.57-8.5,14-11.39,19.76-1.43,2.85-2.78,5.54-3.86,7.52-2.69,4.92-11.08,26.59-17.83,44-4.55,11.74-8.48,21.87-10,25.18-3.73,8.21-4,17.8-2.6,19.23,2,2,1.64,7.33.87,14.6-.2,1.88-.38,3.66-.38,4.64,0,2.16,4.15,7.7,7.1,10.94l.79.87-.56,1C206.13,254.25,191.32,323.73,189.66,331.65Z"></path>
  <path fill="#e6aa79" d="M351.54,255.79c4.69,5.52,17.84,21,27.4,32.55a6,6,0,0,1-4.3-1.47C365.77,278.68,349.48,269.25,351.54,255.79Z"></path>
  <path fill="#313131" d="M378.94,289.67h0c-2.35,0-4.18-.53-5.45-1.79-1.71-1.58-3.77-3.17-6-4.95-8.64-7-19.4-15.75-17.61-27.43a1.62,1.62,0,0,1,1.18-1.32,1.68,1.68,0,0,1,1.71.53c5.09,6,18,21.16,27.41,32.57a1.4,1.4,0,0,1,.22,1.61A1.5,1.5,0,0,1,378.94,289.67Zm-25.75-29.38c1.29,7.85,9.26,14.34,16.42,20.16.65.53,1.28,1,1.9,1.56C364.89,274.09,357.82,265.74,353.19,260.29Z"></path>
  <path fill="#e6aa79" d="M293.31,321.88c5.87,2.72,14.75,9.41,21.49,14.8l-.41-4.63s19.58,14.3,29.37,14.3,26.36-12,26.36-12,6,3,9.79,1.5c2-.8,4.85-9.68,7-18.17.83-3.33,1.55-6.59,2.06-9.28l-30.87-1.91c-6.78-3.77-26.36-37.28-29.37-37.28s.38,20.33-4.52,19.58S304.61,273.31,303.1,279s4.52,9-4.52,9.79-20.33-13.18-24.85-6.4,10.17,20.33,10.17,20.33-36.9-6-40.29-6S282.77,317,293.31,321.88Z"></path>
  <path fill="#313131" d="M343.76,348c-8,0-21.47-8.54-27.41-12.58l.1,1.1a1.65,1.65,0,0,1-2.68,1.44c-9.3-7.44-16.62-12.49-21.15-14.59-5.35-2.48-17.85-8.42-28.91-13.87-22.37-11-22.26-11.51-21.9-13.14a1.77,1.77,0,0,1,1.8-1.37c2.77,0,25.16,3.56,35.59,5.24-4.36-4.83-10.55-13.25-6.84-18.81a5.52,5.52,0,0,1,4.76-2.6c2.9,0,6.21,1.9,9.72,3.92,3.76,2.15,7.65,4.38,11,4.38.17,0,.39,0,.58,0,3.16-.26,3.57-.81,3.58-.83a5.52,5.52,0,0,0-.28-1.71,11.52,11.52,0,0,1-.24-6,3.22,3.22,0,0,1,3.25-2.52c2.85,0,7.09,3,11.59,6.2,3,2.16,6.48,4.59,8,4.89,1-1,1.11-6.87,1.17-9.72.14-5.94.22-9.87,3.16-9.87,2,0,4.32,3,13.15,15.79,5.93,8.59,13.26,19.22,16.73,21.51L389,306.71a1.67,1.67,0,0,1,1.21.63,1.71,1.71,0,0,1,.32,1.33c-.52,2.73-1.26,6.06-2.09,9.37-4.48,17.92-7,18.93-8,19.31a8.46,8.46,0,0,1-3.08.54,19.63,19.63,0,0,1-7.14-1.69C366.81,338.65,352.83,348,343.76,348ZM314.4,330.4a1.65,1.65,0,0,1,1,.31c.19.14,19.25,14,28.39,14S369,333.09,369.15,333a1.65,1.65,0,0,1,1.71-.14,17.82,17.82,0,0,0,6.58,1.75,5.08,5.08,0,0,0,1.8-.28c.89-.7,3.21-5.77,6-17.06.63-2.54,1.21-5.08,1.68-7.35l-29-1.8a1.53,1.53,0,0,1-.7-.2c-3.72-2.06-9.87-10.71-18.14-22.71-3.57-5.17-7.88-11.41-10-13.65-.22,1.49-.28,4.07-.33,5.93-.15,6.67-.29,13-4.4,13a3.08,3.08,0,0,1-.51,0c-2.29-.35-5.63-2.54-9.5-5.29-3.33-2.36-7.89-5.42-9.68-5.42h0s0-.13,0-.11a7.89,7.89,0,0,0,.25,4.29c.37,1.5.76,3-.24,4.39s-2.66,2-6,2.3c-.28,0-.57.13-.86.13h0c-4.25,0-8.72-2.68-12.66-4.94-3.12-1.78-6.06-3.53-8.08-3.53a2.16,2.16,0,0,0-2,1.1c-3.05,4.56,6.37,14.91,9.91,18.18a1.65,1.65,0,0,1-1.39,2.83c-10.33-1.68-24.61-3.95-33.08-5.15,10.61,5.59,32.7,16.23,43.46,21.22,4.32,2,10.64,6.25,18.81,12.63l-.07-.82a1.65,1.65,0,0,1,.83-1.58A1.72,1.72,0,0,1,314.4,330.4Z"></path>
  <path fill="#313131" d="M358.45,313.6C363.34,317,375,323,375,323l11.87-5.37c1.87-7.48,3.17-14.65,2.82-15.71a18,18,0,0,0-1.82-2.57l-.44-.07c-11.67-4.89-27.49-5.27-30.88-1.5S353.55,310.21,358.45,313.6Z"></path>
  <path fill="#e6aa79" d="M314.39,332.05c-7.9-7.72-18.63-23.35-18.63-23.35"></path>
  <path fill="#313131" d="M314.4 333.7a1.67 1.67 0 0 1-1.16-.47c-7.93-7.74-18.4-23-18.84-23.59a1.65 1.65 0 1 1 2.72-1.87c.11.15 10.73 15.58 18.43 23.1a1.65 1.65 0 0 1 0 2.33A1.68 1.68 0 0 1 314.4 333.7ZM370.12 336a1.67 1.67 0 0 1-1.13-.44 1.66 1.66 0 0 1-.08-2.34c1.58-1.71 4.3-9.73 5.64-14.39a1.65 1.65 0 0 1 3.18.91c-.62 2.14-3.82 12.95-6.4 15.73A1.66 1.66 0 0 1 370.12 336Z"></path>
  <path fill="#e6aa79" d="M290.55,226.67c4,8.08,16.33,4.63,20.71-.92,4-5.09-6.35-8.26-9.72-9.26-2.63-.79-5.64-1.34-8,.07C290.5,218.37,289,223.5,290.55,226.67Z"></path>
  <path fill="#313131" d="M298.88,233.1h0c-4.5,0-8-2-9.81-5.69-2-3.94-.17-10,3.62-12.27A8.31,8.31,0,0,1,297,214a18,18,0,0,1,5,.86c4.79,1.43,10.43,3.54,11.6,7.23a4.85,4.85,0,0,1-1.05,4.64C309.66,230.44,303.91,233.1,298.88,233.1ZM297,217.34a5,5,0,0,0-2.63.64c-2.32,1.38-3.55,5.55-2.36,8a7.19,7.19,0,0,0,6.86,3.85c4,0,8.8-2.18,11.08-5.07.72-.91.56-1.4.5-1.59-.29-.93-1.9-2.83-9.39-5.06A15,15,0,0,0,297,217.34Z"></path>
  <path fill="#e6aa79" d="M352.32,220.68c-.27,6.16-8.93,7.41-13.21,5.16-3.92-2.07,1.69-6.93,3.51-8.48,1.44-1.23,3.17-2.4,5-2.17A5.88,5.88,0,0,1,352.32,220.68Z"></path>
  <path fill="#313131" d="M343.85,228.53a12,12,0,0,1-5.51-1.23,3.83,3.83,0,0,1-2.22-3c-.32-2.88,2.74-5.89,5.43-8.19,1.55-1.32,3.75-2.86,6.3-2.55a7.46,7.46,0,0,1,6.12,7.2C353.73,226.1,348.56,228.53,343.85,228.53Zm3.33-11.72c-1.23,0-2.58,1-3.48,1.8-4.14,3.53-4.33,5-4.3,5.31,0,.14.18.3.48.46a8.88,8.88,0,0,0,4,.85c2.46,0,6.66-1,6.82-4.62a4.27,4.27,0,0,0-3.22-3.78A1.23,1.23,0,0,0,347.18,216.81Z"></path>
  <path fill="#e6aa79" d="M230.45,192.4c-.69,3.1-.6,6.41-1.95,9.28s-5,5.07-7.71,3.39c-1.48-.93-2.17-2.71-2.59-4.41-2.49-10,1.14-20.61,6.08-29.7s11.25-17.51,14.82-27.22c1.71-4.66,2.75-9.54,4.35-14.24.91-2.68,2.83-5.81,5.62-5.37,1.67,6.44-.1,13.26-2.45,19.49s-5.31,12.34-6.14,18.95c-.4,3.21-.29,6.5-1,9.66C237.83,179.44,232.06,185.18,230.45,192.4Z"></path>
  <path fill="#313131" d="M222.86,207.31a5.53,5.53,0,0,1-3-.84c-2.1-1.32-2.9-3.72-3.31-5.42-2.23-9-.19-19.07,6.23-30.88,1.67-3.09,3.53-6.13,5.32-9.08,3.48-5.71,7.08-11.62,9.4-17.92.91-2.49,1.65-5.12,2.37-7.67.6-2.14,1.23-4.36,2-6.53,1.52-4.47,4.39-7,7.45-6.48a1.64,1.64,0,0,1,1.34,1.22c1.88,7.29-.35,14.78-2.51,20.49-.52,1.39-1.07,2.77-1.63,4.16-1.86,4.66-3.79,9.48-4.41,14.41-.15,1.18-.22,2.36-.3,3.61a38.34,38.34,0,0,1-.74,6.22c-.87,3.83-2.8,7.22-4.67,10.49s-3.59,6.29-4.34,9.67c-.23,1-.37,2.05-.51,3.16a21.48,21.48,0,0,1-1.57,6.47A8.48,8.48,0,0,1,222.86,207.31Zm24.92-81.37c-1.15.58-2.17,2.34-2.77,4.09-.7,2.09-1.32,4.26-1.91,6.37-.73,2.6-1.49,5.3-2.45,7.91-2.43,6.6-6.11,12.65-9.68,18.5-1.77,2.91-3.6,5.92-5.24,8.94-6,11.05-7.94,20.38-5.93,28.51.45,1.81,1,2.89,1.87,3.41a2.22,2.22,0,0,0,1.19.33,5.21,5.21,0,0,0,4.14-3,18.48,18.48,0,0,0,1.28-5.49c.15-1.13.3-2.3.56-3.45.86-3.87,2.81-7.28,4.7-10.58s3.56-6.24,4.32-9.6a35.6,35.6,0,0,0,.66-5.69c.08-1.24.16-2.53.32-3.81.67-5.36,2.68-10.38,4.63-15.23.54-1.36,1.09-2.73,1.6-4.09C246.91,138.16,248.82,131.91,247.78,125.94Z"></path>
  <path fill="#e6aa79" d="M247.41,171a4.67,4.67,0,0,1,1.74-1.91,1.74,1.74,0,0,1,2.31.53,2.63,2.63,0,0,1,.18,1.15l0,8.26a29.6,29.6,0,0,1-.42,6.24c-.74,3.52-8.36,15.21-11,7.54C238,186.18,244.17,176.3,247.41,171Z"></path>
  <path fill="#313131" d="M242.82,197c-1.31,0-3.09-.64-4.14-3.67-2.46-7.15,3.48-16.91,7-22.75l.28-.46a6.26,6.26,0,0,1,2.41-2.53,3.71,3.71,0,0,1,1.65-.39,3.15,3.15,0,0,1,2.87,1.66,3.94,3.94,0,0,1,.36,1.88l0,8.26a30.76,30.76,0,0,1-.45,6.59C252.27,188.42,247.38,197,242.82,197ZM250,170.51l-.08,0a3.56,3.56,0,0,0-1.08,1.3l-.28.46c-3,5-8.69,14.27-6.74,20,.25.7.64,1.44,1,1.44,2,0,6.26-6.17,6.82-8.78A29.52,29.52,0,0,0,250,179l0-8.26A1.93,1.93,0,0,0,250,170.51Z"></path>
  <path fill="#e6aa79" d="M321.08,172.59c.9,3.49,2.57,7.39,6,8.38a4.92,4.92,0,0,0,1.36.2c-.32-6.66-1.06-15.85-2.78-22.31-3-11.3.75-18.08,3.77-31.63.06-.3.13-.61.2-.93a5,5,0,0,0-5.49.38c-1.3,1.13-1.78,2.91-2.17,4.58C318.85,144.81,317.64,159.11,321.08,172.59Z"></path>
  <path fill="#313131" d="M328.47 182.67h0a6.27 6.27 0 0 1-1.78-.19c-3.39-1-5.8-4.15-7.18-9.52-3.12-12.24-2.83-26 .91-42.09.46-2 1.05-4 2.69-5.44A5.94 5.94 0 0 1 327 124a7.62 7.62 0 0 1 3.36.81 1.65 1.65 0 0 1 .88 1.83c-.07.32-.13.64-.2.94-.74 3.33-1.54 6.31-2.25 8.93-2.23 8.3-3.7 13.79-1.53 21.91 1.76 6.62 2.51 16 2.83 22.67a1.5 1.5 0 0 1-.47 1.15A1.57 1.57 0 0 1 328.47 182.67ZM327 127.32a2.72 2.72 0 0 0-1.78.61c-.9.78-1.29 2.2-1.64 3.7-3.62 15.57-3.92 28.83-.93 40.55.92 3.58 2.27 5.88 4 6.84-.36-6.25-1.1-14.09-2.61-19.74-2.39-9-.74-15.11 1.54-23.62.66-2.45 1.4-5.21 2.1-8.28A4.23 4.23 0 0 0 327 127.32ZM303.56 194.42a1.67 1.67 0 0 1-1.46-.87 16.73 16.73 0 0 0-6.12-6.43 1.65 1.65 0 0 1 1.71-2.83A20.18 20.18 0 0 1 305 192a1.65 1.65 0 0 1-.67 2.24A1.71 1.71 0 0 1 303.56 194.42ZM232.25 222.36a1.65 1.65 0 0 1-.73-3.14 18.82 18.82 0 0 0 8.69-8.82 1.66 1.66 0 0 1 3 1.42A22.17 22.17 0 0 1 233 222.19 1.69 1.69 0 0 1 232.25 222.36ZM246.18 300c-3 0-5.73-1.74-8.09-3.42a26.07 26.07 0 0 1-4.88-4.15 10.1 10.1 0 0 1-2.63-6.54 11.45 11.45 0 0 1 .07-1.16 3.41 3.41 0 0 0-.13-1.87 1.65 1.65 0 1 1 2.66-2 5.71 5.71 0 0 1 .76 4.09q0 .48-.06.93a6.89 6.89 0 0 0 1.84 4.37 23.22 23.22 0 0 0 4.29 3.6c2.26 1.62 4.67 3.16 7 2.73a1.65 1.65 0 0 1 .6 3.25A7.45 7.45 0 0 1 246.18 300Z"></path>
  <path fill="#da7843" d="M321.42,350.87S276.24,374.22,245.37,369s-62.5-41.42-62.5-41.42l-5.52,24.85s22.84,41.92,72.29,41.92,77.05-23.85,77.05-23.85Z"></path>
  <path fill="#313131" d="M249.64,396a83.56,83.56,0,0,1-55.78-21.37,87.35,87.35,0,0,1-18-21.41,1.7,1.7,0,0,1-.17-1.15l5.53-24.85a1.65,1.65,0,0,1,2.85-.73c.31.36,31.61,35.57,61.54,40.68a57.32,57.32,0,0,0,9.49.55h0c29.05,0,65.16-18.28,65.52-18.46a1.67,1.67,0,0,1,1.43.05,1.75,1.75,0,0,1,.93,1.13L328.29,370a1.69,1.69,0,0,1-.52,1.69C326.63,372.68,299.13,396,249.64,396ZM179.1,352.11c2.84,4.77,25.65,40.53,70.54,40.53,43.72,0,70.35-19,75.18-22.8l-4.47-16.43c-7.84,3.83-38.8,18.26-65.2,18.26h0a59.55,59.55,0,0,1-10-.95c-26.8-4.57-53.58-31.39-61.3-39.65Z"></path>
  <path fill="#fff" d="M310.14,254.56s3.37-13.93-5.28-16.81S284.2,245,284.2,245,297.17,265.61,310.14,254.56Z"></path>
  <path fill="#313131" d="M302.06,258.67h0c-10.57,0-18.9-12.68-19.25-13.24a1.4,1.4,0,0,1,.34-1.94c.39-.33,9.75-8,18.35-8a12.3,12.3,0,0,1,3.89.65c10,3.32,6.52,18.17,6.37,18.79-.08.34-.27.26-.53.49A13.51,13.51,0,0,1,302.06,258.67Zm-15.62-13.61c2.23,3.07,8.56,10.61,15.62,10.61h0a10.24,10.24,0,0,0,6.59-2.26c.46-2.39,2-12.13-4.31-14.22a9,9,0,0,0-2.85-.49C295.71,238.7,289.09,243.09,286.44,245.06Z"></path>
  <circle cx="303.21" cy="250.48" r="7.02" fill="#313131"></circle>
  <path fill="#313131" d="M563.76 533.93a2 2 0 0 1-.34 0 1.65 1.65 0 0 1-1.28-2c8.46-40.34 31-58.77 48.45-67.12 18.88-9.06 35.53-8.56 36.24-8.53a1.66 1.66 0 0 1-.12 3.31 82.53 82.53 0 0 0-34.83 8.26c-24.3 11.7-40 33.49-46.51 64.76A1.64 1.64 0 0 1 563.76 533.93ZM226.81 540.81a1.64 1.64 0 0 1-1.56-1.11c-9.11-26.51-3.62-65.22-3.38-66.86a1.65 1.65 0 0 1 3.27.48c-.06.39-5.62 39.56 3.23 65.3a1.65 1.65 0 0 1-1 2.1A1.7 1.7 0 0 1 226.81 540.81ZM146.49 614l-.32 0c-30.46-6-40.5-11.74-47.83-15.9C91.25 594 87 591.62 67.43 592a1.63 1.63 0 0 1-1.69-1.62 1.65 1.65 0 0 1 1.62-1.68c20.45-.43 25 2.17 32.61 6.48 7.14 4 16.91 9.6 46.84 15.53a1.65 1.65 0 0 1-.32 3.27ZM449.51 374.4c-1 2.36-3.75 3.5-6.31 3.74s-5.16-.17-7.7.2a12.59 12.59 0 0 0-4.11 23.56c3.69 2 8.2 2 12.21.77a36 36 0 0 0 10.94-6A92.16 92.16 0 0 0 467 385.41c3.07-3.32 6.07-7.54 5.15-12-.65-3.13-3.15-5.52-5.74-7.4s-5.51-3.46-8.68-3.56-6.58 1.71-7.45 4.77C449.62 369.57 450.46 372.18 449.51 374.4Z"></path>
  <path fill="#f0c7c0" d="M464.13,564.76S447.28,690.07,439,691.53s-29.34.52-38.26-.94c-8.72-1.47-17.64,3.44-24,2.41s-5.85-9.81.5-12.74,9.81-11.78,16.65-12.21a46.14,46.14,0,0,0,11.79-2.4l10.8-114Z"></path>
  <path fill="#313131" d="M378.63,694.79a13.49,13.49,0,0,1-2.17-.16,6.61,6.61,0,0,1-5.83-5.8,10,10,0,0,1,5.9-10.07c2.48-1.13,4.59-3.39,6.63-5.57,3-3.2,6.06-6.5,10.6-6.78a47.31,47.31,0,0,0,10.36-2l10.7-113A1.64,1.64,0,0,1,416.9,550l47.67,13.16a1.66,1.66,0,0,1,1.2,1.81c0,.32-4.28,31.72-9.48,62.89-10.69,64.18-14.83,64.9-17.05,65.29a86.26,86.26,0,0,1-12.77.76,191.57,191.57,0,0,1-26-1.7,19.28,19.28,0,0,0-3.19-.25,46.69,46.69,0,0,0-10.09,1.5A40.4,40.4,0,0,1,378.63,694.79Zm39.29-141.07L407.3,665.8a1.65,1.65,0,0,1-1.05,1.39A47.66,47.66,0,0,1,394,669.7c-3.25.2-5.76,2.89-8.41,5.74-2.26,2.42-4.6,4.93-7.68,6.33a6.6,6.6,0,0,0-4,6.59,3.37,3.37,0,0,0,3.07,3c2.53.41,5.88-.31,9.47-1.11a49.41,49.41,0,0,1,10.81-1.59,22.45,22.45,0,0,1,3.73.3,187.08,187.08,0,0,0,25.49,1.65,81.57,81.57,0,0,0,12.07-.68c1.19-.91,5.51-8.35,14.76-64.2,4.44-26.81,8.13-53.4,9-59.76Z"></path>
  <path fill="#313131" d="M379,681.66a1.65,1.65,0,0,1-.65-3.17,54.34,54.34,0,0,1,19.58-4.44,1.66,1.66,0,0,1,0,3.31,52.06,52.06,0,0,0-18.28,4.16A1.65,1.65,0,0,1,379,681.66Z"></path>
  <path fill="#f0c7c0" d="M352.34,495.87a4.63,4.63,0,0,1,3.37-.69l-3.37-5.25a6.43,6.43,0,0,1,2-8.68,6.29,6.29,0,0,1,6-.35,6.24,6.24,0,0,1,10.41-6.62,6.26,6.26,0,0,1,2.87-5.93,6.5,6.5,0,0,1,8.72,1.89l12.29,20.3c0-1.12-.6-6.53-.79-8.17-.9-10.24,4.46-10.4,6.83-10.07,6.05.86,2.88,12,8.72,21.68,5.16,8.52,4.66,14.88,3,19l32.11,28.56,28.93,4.64s16.75,37.76-26.46,43.09c-40.53,5.07-67-46.87-69.86-52.89-9.32-1.64-16.95-18.92-17.74-20.13l-8.62-13.49A5,5,0,0,1,352.34,495.87Z"></path>
  <path fill="#313131" d="M441.43,591.27C404,591.27,380,546,376,537.82c-8.55-2.25-15.22-15.29-17.46-19.67-.26-.5-.43-.85-.53-1l-8.62-13.51a6.16,6.16,0,0,1-.92-4.74,7,7,0,0,1,3-4.42,5.77,5.77,0,0,1,1.41-.69l-1.9-3a8.13,8.13,0,0,1,2.47-10.95,7.79,7.79,0,0,1,4.75-1.21,7.92,7.92,0,0,1,11.3-7.43,7.81,7.81,0,0,1,3.31-4.29,7.93,7.93,0,0,1,4.17-1.19,8.29,8.29,0,0,1,6.77,3.54.33.33,0,0,1,.06.1l8.56,14.12c0-.36-.08-.68-.11-.94-.4-4.58.33-7.88,2.16-9.89a7.21,7.21,0,0,1,6.55-2c4.47.63,5.21,5.15,6,9.93.64,3.92,1.38,8.37,3.9,12.52,5.18,8.56,4.9,15.12,3.5,19.38L445.24,540l28.46,4.56a1.63,1.63,0,0,1,1.25,1c.31.69,7.44,17.11-.06,30.35-4.7,8.3-14,13.36-27.7,15A46.4,46.4,0,0,1,441.43,591.27Zm-86.56-94.5a2.76,2.76,0,0,0-1.59.46,3.61,3.61,0,0,0-1.59,2.31,3,3,0,0,0,.43,2.28l8.65,13.54c.13.2.3.52.69,1.29,5.71,11.16,11.07,17.25,15.94,18.1a1.68,1.68,0,0,1,1.21.92c1,2.13,25.41,52.3,62.82,52.3a43.8,43.8,0,0,0,5.35-.34c12.58-1.55,21.06-6,25.22-13.38,5.81-10.23,1.53-23.24.26-26.59l-28-4.49a1.6,1.6,0,0,1-.84-.39L411.3,514.22a1.65,1.65,0,0,1-.43-1.86c1.42-3.49,2.08-9.36-2.86-17.53-2.85-4.69-3.67-9.68-4.33-13.69-.81-4.91-1.33-6.93-3.21-7.2a3.89,3.89,0,0,0-3.64,1c-1.17,1.27-1.62,3.8-1.32,7.31.1.77.8,6.93.8,8.31a1.65,1.65,0,0,1-3.06.85L381,471.15a5,5,0,0,0-4-2.09,4.48,4.48,0,0,0-2.42.69,4.63,4.63,0,0,0-2.11,4.39,1.65,1.65,0,0,1-2.9,1.22,4.55,4.55,0,0,0-3.45-1.62,4.46,4.46,0,0,0-2.43.73,4.53,4.53,0,0,0-1.77,5.73,1.66,1.66,0,0,1-2.19,2.21,4.72,4.72,0,0,0-4.46.23,4.8,4.8,0,0,0-1.47,6.43l3.35,5.22a1.65,1.65,0,0,1-1.63,2.53A4.28,4.28,0,0,0,354.87,496.77Z"></path>
  <path fill="#f0c7c0" d="M440.84,435.84s-20.71-17-28-.52,7.93,32.26,28.45,23.4"></path>
  <path fill="#313131" d="M429.7,462.9a20.81,20.81,0,0,1-15.13-6c-5.64-5.72-6.9-14.27-3.28-22.3,1.9-4.28,4.82-6.92,8.67-7.83,9.6-2.27,21.43,7.35,21.93,7.76a1.65,1.65,0,1,1-2.1,2.55c-.11-.09-11.08-9-19.07-7.09-2.84.67-4.93,2.62-6.42,6-3,6.77-2,13.9,2.62,18.63,5.46,5.54,14.52,6.53,23.66,2.58a1.65,1.65,0,1,1,1.31,3A30.86,30.86,0,0,1,429.7,462.9Z"></path>
  <path fill="#f0c7c0" d="M439.85,511a97,97,0,0,1,15.95-7.57c-26.65-6.45-42.71-27.52-36.86-43.95,7.73-21.84,5.05-18.75,8.92-44.64s41.82-53.4,84.63-35.51c50.5,23.53,37.61,85.54.94,113.15,14.17,6.71,58,31.08,65.46,107.7,0,0-83.35,16.43-118.33,11.45S410,592.37,410,592.37,413.59,526.66,439.85,511Z"></path>
  <path fill="#313131" d="M476.6,614.23a117.42,117.42,0,0,1-16.27-1c-35-5-50.77-19.08-51.42-19.68a1.62,1.62,0,0,1-.54-1.31c.15-2.72,3.92-66.77,30.63-82.69a107.09,107.09,0,0,1,11.63-5.89c-13.82-4.44-25.15-13-30.85-23.58-3.87-7.14-4.72-14.67-2.4-21.19,5.31-15,5.65-18.06,6.64-27.14.46-4.13,1-9.26,2.2-17.18,3-20.59,27.3-42.64,58.71-42.64a73.07,73.07,0,0,1,28.2,5.84c19.81,9.24,31.86,25.42,34,45.59,2.58,24.58-9.64,51.87-30.58,68.77,22.1,11.21,57.38,39.61,64,107.86a1.65,1.65,0,0,1-1.33,1.78C578.58,601.94,515.76,614.23,476.6,614.23Zm-64.88-22.59c3.14,2.53,18.84,14,49.07,18.36a114,114,0,0,0,15.81.93c35.5,0,90.79-10.23,100.49-12.08C570,530.81,533.78,504,512.72,494a1.65,1.65,0,0,1-.28-2.81c21.32-16.06,33.93-43.15,31.39-67.42-1.42-13.43-8.12-31.77-32-42.92a69.56,69.56,0,0,0-26.86-5.56c-29.7,0-52.64,20.59-55.44,39.82-1.17,7.86-1.73,13-2.18,17.06-1,9.37-1.38,12.52-6.82,27.89-2,5.71-1.27,12.11,2.19,18.51,5.91,10.93,18.44,19.64,33.51,23.28a1.66,1.66,0,0,1,.17,3.17,94.79,94.79,0,0,0-15.68,7.44C417,526.53,412.25,584.07,411.72,591.64Z"></path>
  <path fill="#313131" d="M485.92 430.26c2.47 1.9 8.92 4.14 7.53-1.8-.5-1.8-3.27-3.7-4.76-4.56-4.85-3-9-3.53-8.52 1.72C480.27 427.69 484.43 429.23 485.92 430.26ZM445.38 422.68c-3 .6-9.82-.25-5.85-4.9 1.19-1.38 4.56-1.81 6.34-2 5.65-.6 9.61.86 6.84 5.25C451.62 422.85 447.16 422.43 445.38 422.68ZM457.16 474.92c-6.74 0-12.4-4.31-12.66-4.51a1.65 1.65 0 0 1 2-2.62h0c.06 0 6.09 4.62 12.33 3.71a12.17 12.17 0 0 0 8.12-5.34 1.65 1.65 0 1 1 2.67 1.94c-2.79 3.85-6.27 6.09-10.34 6.67A14.18 14.18 0 0 1 457.16 474.92Z"></path>
  <path fill="#313131" d="M471.08 470.84a1.64 1.64 0 0 1-1.16-.48l-4.86-4.81a1.65 1.65 0 0 1 2.33-2.35l4.85 4.82a1.64 1.64 0 0 1 0 2.33A1.61 1.61 0 0 1 471.08 470.84ZM449.3 455.06a6.74 6.74 0 0 1-.77 0 1.65 1.65 0 0 1-1.5-1.79 1.67 1.67 0 0 1 1.8-1.5c5.36.49 7.4-8.23 7.42-8.32a1.65 1.65 0 1 1 3.22.73C459.37 444.6 456.92 455.06 449.3 455.06Z"></path>
  <path fill="#fff" d="M490.59,449.77s0-10.77-9.16-13.36S470,446.94,470,446.94,478.69,461.57,490.59,449.77Z"></path>
  <path fill="#313131" d="M481.27,456h0c-7.68,0-12.45-7.9-12.65-8.24a1.62,1.62,0,0,1-.2-1.12c.08-.5,2.19-12.24,10.72-12.24a10,10,0,0,1,2.75.4c8.19,2.32,10.36,10.79,10.36,14.95a1.65,1.65,0,0,1-.48,1.17C488.36,454.31,484.83,456,481.27,456Zm-9.48-9.41c1.08,1.55,4.65,6.11,9.47,6.11,2.5,0,5.07-1.22,7.65-3.62-.17-2.23-1.25-9.21-7.93-11.1a7,7,0,0,0-1.85-.28C474.25,437.72,472.28,444.51,471.79,446.61Z"></path>
  <path fill="#fff" d="M448.47,443.16s0-10.77-9.16-13.36-11.4,10.53-11.4,10.53S436.57,455,448.47,443.16Z"></path>
  <path fill="#313131" d="M439.14,449.42h0c-7.69,0-12.45-7.91-12.65-8.25a1.67,1.67,0,0,1-.21-1.12c.09-.5,2.19-12.24,10.72-12.24a10.41,10.41,0,0,1,2.76.4c8.18,2.32,10.35,10.79,10.36,15a1.7,1.7,0,0,1-.49,1.18C446.23,447.71,442.7,449.42,439.14,449.42ZM429.67,440c1.07,1.55,4.64,6.11,9.47,6.11,2.49,0,5.06-1.22,7.64-3.62-.17-2.22-1.24-9.21-7.92-11.1a7,7,0,0,0-1.86-.27C432.12,431.12,430.16,437.9,429.67,440Z"></path>
  <path fill="#313131" d="M442.6 436.22a5.89 5.89 0 1 0-5.89 5.89A5.89 5.89 0 0 0 442.6 436.22ZM483.9 442.83a5.89 5.89 0 1 0-5.89 5.88A5.89 5.89 0 0 0 483.9 442.83ZM493.61 463a1.64 1.64 0 0 1-1.48-.91l-2.48-5a1.65 1.65 0 0 1 3-1.48l2.48 5a1.65 1.65 0 0 1-.74 2.22A1.59 1.59 0 0 1 493.61 463ZM485.14 463.17a1.66 1.66 0 0 1-1.62-1.31L482.9 459a1.65 1.65 0 1 1 3.23-.69l.62 2.89a1.64 1.64 0 0 1-1.27 2A1.32 1.32 0 0 1 485.14 463.17Z"></path>
  <path fill="#fff" d="M582.06,602.6s13.47-15.3,7.13-21-15-1.8-21.8,4-11.4,6.45-18.93,4.3-17.74-4.3-24.28,1.81-12.39,10-23.09,7.48-18.93-7.48-31.41-6-20.32,10.32-19.92,19.62-.7,58.82-.7,58.82S474.73,703.31,533.5,694,595.14,640,582.06,602.6Z"></path>
  <path fill="#313131" d="M512.61,697.38h0c-44.28,0-64-23.75-64.82-24.76a1.66,1.66,0,0,1-.37-1.07c0-.5,1-49.6.7-58.74-.46-10.66,8.73-19.83,21.38-21.31a40.58,40.58,0,0,1,4.66-.27c6.93,0,12.76,1.89,18.4,3.72,2.86.92,5.81,1.88,8.92,2.6a25.24,25.24,0,0,0,5.74.72c6.28,0,10.56-2.86,15.84-7.8,3.16-3,7.42-4.44,12.67-4.44a48.42,48.42,0,0,1,13.2,2.26,23.08,23.08,0,0,0,6.25,1c3.7,0,6.93-1.45,11.16-5,3.86-3.25,9.7-7.12,15.61-7.12a12.28,12.28,0,0,1,8.34,3.19c6.72,6-3.4,19-6.35,22.57,8.71,25.48,8.16,48.4-1.55,64.64-8.94,14.95-25.3,24.39-48.62,28.07A136.53,136.53,0,0,1,512.61,697.38ZM450.73,671c2.9,3.21,22.5,23.1,61.87,23.1h0a133.56,133.56,0,0,0,20.64-1.68c22.31-3.52,37.89-12.44,46.31-26.51,9.31-15.57,9.65-37.85,1-62.75a1.62,1.62,0,0,1,.32-1.63c3.21-3.66,11.44-14.92,7.27-18.66a9,9,0,0,0-6.15-2.36c-4.92,0-10.05,3.45-13.49,6.35-4.81,4.06-8.79,5.79-13.28,5.79a25.76,25.76,0,0,1-7.16-1.17,45.91,45.91,0,0,0-12.29-2.13c-4.44,0-7.85,1.16-10.41,3.56-5.73,5.36-10.76,8.68-18.1,8.68a28.33,28.33,0,0,1-6.49-.8c-3.25-.76-6.27-1.73-9.19-2.68-5.64-1.83-11-3.56-17.38-3.56a38.67,38.67,0,0,0-4.28.25c-10.91,1.28-18.84,9-18.46,17.91C451.69,621.46,450.85,664.91,450.73,671Z"></path>
  <path fill="#313131" d="M454.91 601.07a1.47 1.47 0 0 1-.36 0 1.66 1.66 0 0 1-1.25-2c4.2-18.49 8.46-43.52 8.51-43.77a1.65 1.65 0 1 1 3.25.55c0 .25-4.31 25.37-8.54 43.95A1.64 1.64 0 0 1 454.91 601.07ZM533.6 566.16a1.65 1.65 0 0 1-1.61-1.27 223.37 223.37 0 0 0-12.67-36.41 1.65 1.65 0 1 1 3-1.4 227.2 227.2 0 0 1 12.89 37 1.64 1.64 0 0 1-1.22 2A1.73 1.73 0 0 1 533.6 566.16ZM428.45 487.78c10.8 7.49 40.43 20.22 69.07 3.53 0 0-10.8 11.19-27.15 13.33 0 0-16.45-.69-16.75-1.2S437 496.3 437 496.3Z"></path>
  <path fill="#313131" d="M480.68,509a1.47,1.47,0,0,1-.46-.07c-.18,0-18.53-5.22-28.68-1.34a1.65,1.65,0,1,1-1.18-3.09c11.19-4.27,30,1,30.77,1.26a1.65,1.65,0,0,1-.45,3.24Z"></path>
  <path fill="#e296a7" d="M460.26,607.34s13.58,8.86,54.51,2.66l-1.59,10.41s-25.66,6.45-44.69,1.89S460.26,607.34,460.26,607.34Z"></path>
  <path fill="#313131" d="M484.17,625.58a69.79,69.79,0,0,1-16.07-1.67c-7.09-1.71-11.21-4.5-12.25-8.31-1.34-4.9,3.07-9.27,3.26-9.45a1.66,1.66,0,0,1,2.06-.2c.06,0,7.46,4.6,27.06,4.6a178.63,178.63,0,0,0,26.29-2.18,1.64,1.64,0,0,1,1.88,1.88l-1.58,10.41a1.66,1.66,0,0,1-1.23,1.35A135.85,135.85,0,0,1,484.17,625.58Zm-23.52-16.17c-.89,1.16-2.18,3.28-1.61,5.33.7,2.51,4.1,4.57,9.83,6a66.48,66.48,0,0,0,15.3,1.59,134,134,0,0,0,27.55-3.23L512.8,612a176.49,176.49,0,0,1-24.57,1.89C471.92,613.85,463.62,610.81,460.65,609.41Z"></path>
  <path fill="#e296a7" d="M582.06,602.6s-5.16,2.93-18.14,4l1.29,10.15s10.7.26,20.12-3.44Z"></path>
  <path fill="#313131" d="M565.67,618.45h-.5a1.65,1.65,0,0,1-1.6-1.44l-1.29-10.15a1.66,1.66,0,0,1,.36-1.25,1.59,1.59,0,0,1,1.14-.6c12.35-1.06,17.42-3.81,17.47-3.84a1.65,1.65,0,0,1,1.42-.09,1.68,1.68,0,0,1,1,1l3.27,10.75a1.66,1.66,0,0,1-1,2C577.52,618.19,568.3,618.45,565.67,618.45Zm.11-10.32.88,7a58.33,58.33,0,0,0,16.63-2.79L581,604.87A59,59,0,0,1,565.78,608.13Z"></path>
  <path fill="#f0c7c0" d="M344,649.65c5.75-6.36,38.05-52.64,59.16-59.35,23.39-7.39,61.94,16,91.27,35.53,28.35,18.92,15.76,60.46-10.3,65.62s-70-37.24-70-37.24c-5.85,8.68-26,21.67-30.92,24.85C365.92,674,350.46,663.24,344,649.65Z"></path>
  <path fill="#313131" d="M479.5,693.54c-24.18,0-57.83-30.08-65.1-36.85-5.89,7.35-19.49,16.86-30.25,23.76a1.65,1.65,0,0,1-1.35.2c-18.84-5.51-33.89-16.84-40.27-30.29a1.67,1.67,0,0,1,.26-1.82c1-1.12,3-3.71,5.57-7,11.89-15.32,36.61-47.2,54.32-52.82a34.17,34.17,0,0,1,10.3-1.48c23.34,0,54.75,18.81,82.39,37.2,13.18,8.8,19.19,23.43,16.07,39.12-3,15-13.84,26.9-27,29.5A25.72,25.72,0,0,1,479.5,693.54Zm-65.32-41a1.64,1.64,0,0,1,1.15.46c.38.37,38.83,37.21,64.17,37.21h0a22.27,22.27,0,0,0,4.33-.4c11.83-2.34,21.63-13.16,24.36-26.9,2.86-14.34-2.62-27.7-14.65-35.73-27.23-18.12-58.1-36.65-80.56-36.65a30.77,30.77,0,0,0-9.3,1.33c-16.73,5.31-41,36.64-52.71,51.7-2.16,2.78-3.84,4.95-5,6.32,6.09,11.86,20.12,22.25,37,27.36,15.57-10,26.15-18.55,29.8-24a1.63,1.63,0,0,1,1.2-.72Z"></path>
  <path fill="#fff" d="M305.67,655c5.84-6.62,17.54-2.33,26.16-1.29s9.41-2.92,11.49-3.35c.2,0,.5-.26.8-.69,6.44,13.59,21.9,24.42,39.24,29.32a18.4,18.4,0,0,1-2.18,1.29s-13.67,22.63-28.74,20.22-19.92-13.07-36.86-21.93S299.72,661.6,305.67,655Z"></path>
  <path fill="#313131" d="M354.71 702.31a16.39 16.39 0 0 1-2.53-.2c-9.29-1.49-14.86-6-21.3-11.12a94.71 94.71 0 0 0-16.07-11c-8.88-4.64-13.65-9.42-14.59-14.62-.68-3.77.74-7.64 4.22-11.51 2.47-2.8 6-4.17 10.9-4.17a61.8 61.8 0 0 1 10.92 1.38c2 .39 4 .75 5.77 1a21.36 21.36 0 0 0 2.33.14c3.68 0 5.1-1.17 6.24-2.11a6 6 0 0 1 2.1-1.29l.06-.08a1.65 1.65 0 0 1 2.85.23c6 12.57 20.59 23.47 38.2 28.45a1.65 1.65 0 0 1 .47 3c-.83.55-1.51.94-1.93 1.17C380.45 684.53 368.65 702.31 354.71 702.31ZM315.34 653c-3.91 0-6.59 1-8.43 3.06-2.81 3.12-3.93 6-3.44 8.72.74 4.07 5.07 8.2 12.87 12.28A97.72 97.72 0 0 1 333 688.42c6.32 5.07 11.32 9.08 19.75 10.43a13.51 13.51 0 0 0 2 .16c12.4 0 23.77-17.55 25-19.44-16.29-5.36-29.81-15.63-36.2-27.53a7 7 0 0 0-.77.59c-1.38 1.14-3.47 2.86-8.34 2.86a26.18 26.18 0 0 1-2.71-.15c-1.92-.23-3.9-.61-6-1A58.71 58.71 0 0 0 315.34 653ZM419.33 660.5a1.64 1.64 0 0 1-1-.31c-9.26-6.63-17.42-19-17.76-19.52a1.65 1.65 0 1 1 2.76-1.81c.08.12 8.17 12.37 16.93 18.64a1.66 1.66 0 0 1-1 3Z"></path>
  <path fill="#df9abe" d="M370.78,474.37l10.3,16.17"></path>
  <path fill="#313131" d="M381.08,492.19a1.64,1.64,0,0,1-1.39-.77l-10.31-16.16a1.65,1.65,0,0,1,2.79-1.77l10.31,16.16a1.65,1.65,0,0,1-.51,2.28A1.59,1.59,0,0,1,381.08,492.19Z"></path>
  <path fill="#df9abe" d="M360.37,480.3,371,497"></path>
  <path fill="#313131" d="M371,498.64a1.64,1.64,0,0,1-1.4-.77L359,481.19a1.65,1.65,0,1,1,2.78-1.78l10.61,16.69a1.65,1.65,0,0,1-.51,2.28A1.58,1.58,0,0,1,371,498.64Z"></path>
  <path fill="#df9abe" d="M355.71,495.18,363.24,507"></path>
  <path fill="#313131" d="M363.25 508.62a1.67 1.67 0 0 1-1.4-.76l-7.53-11.79a1.65 1.65 0 0 1 2.78-1.78l7.54 11.79a1.65 1.65 0 0 1-.51 2.28A1.58 1.58 0 0 1 363.25 508.62ZM386.14 521.18a1.67 1.67 0 0 1-1.51-1c-4.85-10.76 4.64-21.31 5-21.75a1.65 1.65 0 0 1 2.44 2.23c-.12.13-8.41 9.42-4.47 18.16a1.65 1.65 0 0 1-.82 2.19A1.71 1.71 0 0 1 386.14 521.18ZM522 450.48c-2.44 0-5.31.73-7-1a6 6 0 0 1-1.24-4c-.78-15 5.69-30.77-.32-44.5C508 388.67 494.19 382.34 481 379.75c-3.63-.72-7.35-1.25-10.7-2.83a18.75 18.75 0 0 1-10.35-13.83c-.48-3.1 0-6.66 2.45-8.63 2.1-1.71 5.11-1.8 7.75-1.17a17.31 17.31 0 0 1 8.94 5.39c2.32 2.64 5 6.43 8.3 5.31.91-3.8 5.09-6.19 9-6s7.46 2.42 10.24 5.17 4.95 6 7.47 9a50.24 50.24 0 0 0 12.38 10.55c4.28 2.58 9 4.55 12.7 7.9 6 5.43 8.52 13.74 9.47 21.78a75.25 75.25 0 0 1-3.75 33.74c-.78 2.2-1.74 4.48-3.61 5.89-2.66 2-6.4 1.68-9.6.76S525.32 450.43 522 450.48Z"></path>
  <path fill="#f0c7c0" d="M514,448.46s25.67-12.88,28.37,7.48S525.13,489.26,507,473.6"></path>
  <path fill="#313131" d="M523.63,482.21c-5.9,0-12.1-2.5-17.72-7.36a1.65,1.65,0,0,1,2.16-2.5c7.69,6.65,16.47,8.35,23.49,4.56s10.38-11.66,9.18-20.75c-.59-4.37-2.28-7.24-5.17-8.77-7.58-4-20.69,2.48-20.83,2.55a1.65,1.65,0,0,1-1.48-3c.6-.3,14.79-7.31,23.86-2.51,3.85,2,6.17,5.82,6.89,11.25,1.37,10.32-2.9,19.78-10.88,24.1A19.87,19.87,0,0,1,523.63,482.21Z"></path>
  <path fill="#313131" d="M513.3,464.64a1.7,1.7,0,0,1-.54-.09,1.66,1.66,0,0,1-1-2.11c2.56-7.31,9.37-9.69,14.4-9.54s8.71,2.58,9.71,6.17a1.65,1.65,0,0,1-3.19.88c-.59-2.13-3.25-3.64-6.63-3.75a11.16,11.16,0,0,0-11.17,7.33A1.66,1.66,0,0,1,513.3,464.64Z"></path>
  <path fill="#313131" d="M522.42 462.72a1.66 1.66 0 0 1-1.49-.94l-2.51-5.31a1.65 1.65 0 0 1 3-1.41l2.51 5.31a1.66 1.66 0 0 1-.79 2.2A1.78 1.78 0 0 1 522.42 462.72ZM451.29 382.05c.44-3.9 2.21-7.91 5.6-9.89 2.22-1.3 4.87-1.6 7.43-1.84a29.37 29.37 0 0 1 6.49-.13c5.17.65 9.6 3.85 13.79 6.95a7.41 7.41 0 0 0-6.32 3.6c-1.93 3.31-1.43 8.27-4.76 10.17a4.58 4.58 0 0 1-6.45-2.92 11.26 11.26 0 0 1-7.14 4.12 7.89 7.89 0 0 1-7.39-3.14A10.28 10.28 0 0 1 451.29 382.05Z"></path>
  <path fill="#eeb857" d="M389.1,469.58c-14.76,2.61-27.17,12.53-36.74,24.15A36.38,36.38,0,0,0,345,516.24a33.45,33.45,0,0,0,44.07-46.66Z"></path>
  <path fill="#313131" d="M360.21,521.53a34.83,34.83,0,0,1-15.93-3.82,1.68,1.68,0,0,1-.9-1.46A38.26,38.26,0,0,1,351,492.74c11.43-13.89,24.48-22.44,37.77-24.78a1.65,1.65,0,0,1,1.72.79,35.1,35.1,0,0,1-30.32,52.78Zm-13.52-6.32a31.49,31.49,0,0,0,13.52,3,31.8,31.8,0,0,0,28-46.8c-12.12,2.49-24.06,10.54-34.6,23.35A34.3,34.3,0,0,0,346.69,515.21Z"></path>
  <path fill="#eeb857" d="M372.68,455.4a33.43,33.43,0,0,0-42.77,45.19C336.31,481,353.66,464.88,372.68,455.4Z"></path>
  <path fill="#313131" d="M329.91,502.24a1.67,1.67,0,0,1-1.5-.95,35.09,35.09,0,0,1,44.88-47.43,1.65,1.65,0,0,1,.12,3c-20.55,10.24-36.22,26.78-41.93,44.22a1.64,1.64,0,0,1-1.47,1.14Zm30.3-47.61A31.8,31.8,0,0,0,329.87,496c6.53-15.73,20.56-30.37,38.61-40.23A31.51,31.51,0,0,0,360.21,454.63Z"></path>
  <path fill="#ce5044" d="M372.68,455.4c-19,9.48-36.37,25.61-42.77,45.19A33.59,33.59,0,0,0,345,516.24a36.38,36.38,0,0,1,7.33-22.51c9.57-11.62,22-21.54,36.74-24.15A33.53,33.53,0,0,0,372.68,455.4Z"></path>
  <path fill="#313131" d="M345,517.89a1.69,1.69,0,0,1-.75-.18,35.37,35.37,0,0,1-15.87-16.42,1.69,1.69,0,0,1-.07-1.21c6-18.27,22.28-35.53,43.6-46.16a1.67,1.67,0,0,1,1.35-.06,35.4,35.4,0,0,1,17.24,14.89,1.65,1.65,0,0,1-1.14,2.46c-12.51,2.21-24.87,10.36-35.75,23.57a34.4,34.4,0,0,0-6.95,21.44,1.67,1.67,0,0,1-.79,1.42A1.57,1.57,0,0,1,345,517.89Zm-13.34-17.41a32.13,32.13,0,0,0,11.76,13A38.12,38.12,0,0,1,351,492.74c10.75-13.05,22.92-21.39,35.38-24.29a32.06,32.06,0,0,0-13.68-11.24C352.77,467.36,337.5,483.45,331.69,500.48Z"></path>
</svg>
