<svg xmlns="http://www.w3.org/2000/svg" viewBox="0 0 512 512" id="tennis-ball">
  <path fill="#77be51" d="M503.8 256.2c0 4.7-.1 9.4-.4 14-7 125.7-107.7 226.4-233.3 233.3-4.6.3-9.2.4-13.9.4-136.8 0-247.8-110.8-247.8-247.6 0-4.7.1-9.4.4-14 3.2-56.7 25.8-110.8 64.3-153 43.7-48 104.5-76.8 169-80.3 4.6-.3 9.2-.4 13.9-.4 136.8-.1 247.7 110.8 247.8 247.6z"></path>
  <path fill="#bcd44c" d="M503.8 256.2c0 4.7-.1 9.4-.4 14-4.6.3-9.2.4-13.9.4-136.8 0-247.7-110.8-247.7-247.6 0-4.7.1-9.4.4-14 4.6-.3 9.2-.4 13.9-.4 136.7-.1 247.6 110.8 247.7 247.6zM270.4 489.5c0 4.7-.1 9.4-.4 14-4.6.3-9.2.4-13.9.4-136.7 0-247.7-110.8-247.7-247.6 0-4.7.1-9.4.4-14 4.6-.3 9.2-.4 13.9-.4 136.8 0 247.7 110.8 247.7 247.6z"></path>
  <path d="M506 205.6c-2.7-13.6-6.6-27-11.5-40C457.7 68.2 365.2 3.1 261 1.1c-5.6-.1-11.1 0-16.8.2-131.6 6-237 111.4-243 243-3.4 71.6 23.7 141.4 74.4 192 47.7 47.9 112.5 74.8 180.2 74.7 4 0 7.9-.1 11.9-.3 131.6-6 237-111.4 243-243 1-20.8-.6-41.6-4.7-62.1zM260.1 496h-4c-63.7 0-124.7-25.3-169.8-70.3-1.5-1.5-2.9-2.9-4.3-4.4l-1.5-1.6-2.7-3-1.7-1.9-2.4-2.7c-.6-.7-1.1-1.4-1.7-2-.7-.9-1.5-1.8-2.2-2.7-.6-.7-1.1-1.4-1.7-2.2l-2.1-2.7c-.6-.7-1.1-1.5-1.7-2.2-.6-.7-1.3-1.8-2-2.7l-1.6-2.3c-.6-.9-1.3-1.8-1.9-2.7l-1.6-2.3-1.8-2.7-1.5-2.4c-.6-.9-1.2-1.9-1.8-2.8s-1-1.6-1.5-2.4-1.1-1.9-1.7-2.8-1-1.6-1.4-2.5-1.1-1.9-1.6-2.9-.9-1.7-1.3-2.5-1-1.9-1.5-2.9-.9-1.7-1.3-2.5l-1.5-3c-.4-.8-.8-1.7-1.2-2.5s-.9-2-1.4-3-.8-1.7-1.2-2.6-.9-2-1.3-3c-.4-.9-.7-1.7-1.1-2.6-.4-1-.8-2-1.2-3.1l-1-2.6c-.4-1-.8-2-1.1-3.1s-.6-1.8-1-2.6c-.4-1-.7-2.1-1.1-3.1s-.6-1.8-.9-2.7c-.3-1-.7-2.1-1-3.1l-.8-2.6c-.3-1.1-.6-2.1-.9-3.2-.3-.9-.5-1.8-.8-2.7-.3-1.1-.6-2.1-.8-3.2-.2-.9-.5-1.8-.7-2.7-.3-1.1-.5-2.1-.7-3.2s-.4-1.8-.6-2.8-.4-2.1-.7-3.2-.4-1.9-.6-2.8-.4-2.1-.6-3.2-.3-1.9-.5-2.8-.3-2.1-.5-3.2-.3-1.9-.4-2.9-.3-2.1-.4-3.1-.3-2-.4-3l-.3-3c-.1-1-.2-2.1-.3-3.2-.1-.8-.1-1.5-.2-2.3-.2-3.2-.4-6.4-.5-9.6v-.2c0-1.4-.1-2.8-.1-4.2v-7.9c65-1 127.7 24.3 173.8 70.3 46.1 46 71.4 108.7 70.3 173.8zm209.8-131C432 439.3 358.3 488.7 275.1 495.2c.5-32-5.1-63.8-16.5-93.8-12.8-33.8-32.6-64.4-58.2-89.9-25.5-25.6-56.1-45.4-89.9-58.2-29.9-11.4-61.8-16.9-93.8-16.5 9.4-117.4 102.7-210.7 220.2-220-.5 32 5.1 63.8 16.5 93.8 12.8 33.8 32.6 64.4 58.2 89.9 25.5 25.6 56.1 45.4 89.9 58.2 28.8 10.9 59.4 16.5 90.2 16.5h3.6c-2.5 31.3-11.1 61.9-25.4 89.8zM496 258.2v2c-65.1 1-127.7-24.3-173.8-70.3-46-46.1-71.3-108.8-70.3-173.9h4c63.7 0 124.8 25.3 169.8 70.3 1.5 1.5 2.9 2.9 4.3 4.4.5.5 1 1 1.5 1.6l2.7 3 1.7 1.9 2.4 2.7c.6.7 1.1 1.4 1.7 2.1.7.9 1.5 1.8 2.2 2.7.6.7 1.1 1.4 1.7 2.2l2.1 2.7c.6.7 1.1 1.5 1.7 2.2.7.9 1.4 1.8 2 2.7s1.1 1.5 1.6 2.3 1.3 1.8 1.9 2.7l1.6 2.3 1.8 2.8 1.5 2.4c.6.9 1.2 1.8 1.8 2.8s1 1.6 1.5 2.4 1.1 1.9 1.7 2.8 1 1.6 1.4 2.5 1.1 1.9 1.6 2.9.9 1.7 1.4 2.5 1 1.9 1.5 2.9.9 1.7 1.3 2.5 1 2 1.5 2.9.8 1.7 1.2 2.5.9 2 1.4 3c.4.9.8 1.7 1.1 2.6s.9 2 1.3 3 .7 1.7 1.1 2.6.8 2 1.2 3.1l1 2.6c.4 1 .8 2.1 1.1 3.1.3.9.6 1.8 1 2.6s.7 2.1 1.1 3.1.6 1.8.9 2.7.7 2.1 1 3.1.5 1.8.8 2.7c.3 1.1.6 2.1.9 3.2s.5 1.8.8 2.7.6 2.1.8 3.2c.2.9.5 1.8.7 2.7s.5 2.1.7 3.2.4 1.8.6 2.8.4 2.1.7 3.2.4 1.9.6 2.8.4 2.1.6 3.2.3 1.9.5 2.8.3 2.1.5 3.2.3 1.9.4 2.9.3 2.1.4 3.1.3 2 .4 3l.3 3c.1 1 .2 2.1.3 3.2.1.8.1 1.5.2 2.3.2 3.2.4 6.4.5 9.6v.2c0 1.4.1 2.8.1 4.2v5.8z"></path>
</svg>
