<svg xmlns="http://www.w3.org/2000/svg" viewBox="0 0 694.25 765.08" id="woman-walking-with-dog">
  <path fill="#fdf2e0" d="M113.74,53.14c9.24-12.48,18.12-25.51,30.14-35.35,26.52-21.73,67.37-23.8,96-4.85C275.67,36.69,286.65,83.62,293,126.15s12.72,89.1,44.21,118.39c26,24.16,66.54,33.71,82.24,65.52,12.24,24.82,5.47,57.11,22.07,79.26,19.36,25.83,57.71,23.38,90,24.28a264,264,0,0,1,80.53,15c24.54,8.67,48.49,21.58,64.51,42.1s22.6,49.81,11.27,73.25c-2.76,5.71-6.74,11.16-12.47,13.85-4.44,2.08-9.48,2.31-14.28,3.33-20.19,4.28-35.15,22.81-40.26,42.8s-2,41.19,3.31,61.15c4.62,17.56,10.68,37,2.26,53.08-11,21-39.33,23.82-63,24l-365,2.35c-33.23.22-69-.33-95.92-19.75-35-25.19-43.5-74.08-39.33-117,1.1-11.27,2.73-23.3-2.45-33.37-3.66-7.1-10.22-12.16-16-17.69C16.9,530.19,5.54,487.89,16.22,451.11c9-31,31.62-56.2,43.62-86.14a134.86,134.86,0,0,0,8.1-70.12c-2.66-17.46-8.74-34.26-11.23-51.74C51.86,209,60.94,174.52,70,141.22c4.53-16.78,9.13-33.72,17.18-49.13C94.43,78.14,104.37,65.79,113.74,53.14Z"></path>
  <path fill="#a5a653" d="M500.34,331.1a54,54,0,0,1,21.95-7.72c4.5-.54,9.72-.84,12.4-4.5a10.39,10.39,0,0,0,1.51-7.45c-1.46-11.81-15.3-19.41-26.88-16.68s-20.07,13.39-23.16,24.88c-1.29,4.83-1.81,9.92-3.89,14.47-2.77,6.07-7.84,10.37-13.69,13.76.81-64.39,2.27-118.55,4.81-123.35a10,10,0,0,1,3-3.74,11.12,11.12,0,0,1,5.4-1.45,159.89,159.89,0,0,1,18.05-.51c4.73.14,9.48.48,14.16-.24s9.34-2.62,12.39-6.23c4.38-5.18,4.45-13.23.94-19s-10.06-9.38-16.79-10.23-13.59.8-19.75,3.65a52.81,52.81,0,0,0-23,20.68c-5.89-4.79-4.86-14.4-.71-20.75s10.58-10.88,15.19-16.91c4.24-5.54,6.87-12.53,6.17-19.46s-5.11-13.64-11.65-16.05c-8.65-3.18-18.66,1.85-23.85,9.47s-6.56,17.17-7.13,26.37a197.46,197.46,0,0,0,2.74,47.32,34.65,34.65,0,0,0-22-23.43,35.13,35.13,0,0,0-31.79,5.2,19,19,0,0,0-6.64,8.11c-2.31,6.06.41,13.25,5.34,17.46s11.63,5.84,18.12,6,12.91-1.06,19.35-1.85c2.87-.35,5.83-.61,8.58.26,6.31,2,9.35,9.29,9.89,15.88.25,3,.16,70.19.14,143.17a62.39,62.39,0,0,0-7.26-2.77c-15.85-8.34-12.52-21.69-27.53-16.68s-5.84,40,27.53,33.37a69.32,69.32,0,0,0,7.25-1.81c0,84,.1,171.4,1,174.74l17.59-.14c-.21-5-.4-51.55-.25-109.2l1.07.22c33.36,6.68,42.54-28.36,27.53-33.36s-11.68,8.34-27.53,16.68c0,0-.38.11-1,.32.1-28.91.3-59.79.62-89.12,5.06-4.64,11.34-8.1,18.15-8.86,7.22-.8,15,1.75,19.53,7.42,2.12,2.65,3.5,5.87,5.82,8.35a13.77,13.77,0,0,0,13.21,4,12.24,12.24,0,0,0,9-10.21c.71-6.91-5-12.9-11.11-16.19a40.86,40.86,0,0,0-28-3.82C493.12,337.39,496.79,333.3,500.34,331.1Z"></path>
  <path fill="#313131" d="M450.41,576.52a1.58,1.58,0,0,1-1.6-1.17c-.73-2.84-1-53-1-172.91-1.59.43-3.35.86-5.28,1.25a43.22,43.22,0,0,1-8.43.88c-16.71,0-26.12-11.09-27.8-21.4-1.25-7.73,1.83-14,7.86-16a19.81,19.81,0,0,1,6.19-1.18c5.29,0,7.78,3.29,10.65,7.1,2.65,3.52,5.66,7.51,11.84,10.8.57.18,2.58.82,5,1.79V347.22c0-53.51.05-99.72-.14-102.08-.48-5.78-3-12.61-8.75-14.44a12.13,12.13,0,0,0-3.75-.52,35.2,35.2,0,0,0-4.12.32c-1.5.18-3,.39-4.5.6a95.45,95.45,0,0,1-15.1,1.26c-5.47-.11-13.24-1.32-19.15-6.37s-8.24-12.93-5.82-19.31a20.71,20.71,0,0,1,7.19-8.84,36.8,36.8,0,0,1,22-7.26A35.49,35.49,0,0,1,427,192.39a36.1,36.1,0,0,1,18.17,13.85,198.9,198.9,0,0,1-1-36.27c.56-8.88,1.87-19.06,7.41-27.2,4.62-6.78,12.35-11.16,19.69-11.16a17.6,17.6,0,0,1,6.1,1.07c6.82,2.51,11.93,9.52,12.73,17.44.69,6.91-1.62,14.23-6.51,20.62a74.57,74.57,0,0,1-7.05,7.65,57.48,57.48,0,0,0-8.07,9.16c-3.45,5.29-4.53,12.75-1,17.21a54.74,54.74,0,0,1,22.59-19.54,40.17,40.17,0,0,1,16.84-4,30,30,0,0,1,3.81.24c7.68,1,14.41,5.09,18,11,4,6.64,3.55,15.45-1.1,21-3.8,4.5-9.38,6.18-13.4,6.79a44.37,44.37,0,0,1-6.92.46c-1.75,0-3.52-.06-5.23-.12l-2.31-.08a161.35,161.35,0,0,0-17.86.51,9.87,9.87,0,0,0-4.61,1.16,8.67,8.67,0,0,0-2.43,3.15c-1.17,2.21-3.3,20.74-4.58,119.59,5.08-3.37,8.53-7.14,10.5-11.45a43.85,43.85,0,0,0,2.66-9.27c.34-1.62.7-3.3,1.14-4.95,3.53-13.17,13.1-23.4,24.37-26.06a23.41,23.41,0,0,1,5.25-.6c10.49,0,22.2,7,23.65,18.69.3,2.4.23,5.85-1.82,8.63-2.89,3.94-8,4.52-12.44,5l-1.1.13a52.32,52.32,0,0,0-21.27,7.47c-2,1.24-5.24,4-5.06,6.68a42,42,0,0,1,7.62-.69,42.45,42.45,0,0,1,20,5c6.32,3.39,12.78,9.85,12,17.81A13.83,13.83,0,0,1,522,373.38a15.76,15.76,0,0,1-11.31-4.92,30.19,30.19,0,0,1-3.51-4.9,36,36,0,0,0-2.39-3.55c-3.48-4.34-9.32-6.94-15.61-6.94a22.22,22.22,0,0,0-2.45.14c-7.19.8-13,4.66-16.68,8-.29,26-.49,54.85-.61,85.81,5.32-3.14,8.09-6.81,10.56-10.08,2.87-3.81,5.35-7.1,10.64-7.1a19.87,19.87,0,0,1,6.2,1.18c6,2,9.1,8.29,7.85,16-1.67,10.31-11.08,21.41-27.79,21.41a43.08,43.08,0,0,1-7.53-.7c-.15,57.46.05,102.41.26,107.11a1.71,1.71,0,0,1-.46,1.21,1.57,1.57,0,0,1-1.18.43l-17.6.07Zm-1-177.9a1.66,1.66,0,0,1,1.66,1.66c0,44.37,0,159,.78,173.07l14.41-.11c-.19-9.85-.36-52.53-.21-107.56a1.66,1.66,0,0,1,2-1.61h.08l1,.2a39.74,39.74,0,0,0,7.79.81c14.77,0,23.07-9.66,24.53-18.63,1-6-1.23-10.89-5.64-12.36a16.57,16.57,0,0,0-5.15-1c-3.49,0-5.06,1.88-8,5.79-2.74,3.63-6.15,8.16-13.07,11.8l-.3.12-1,.31a1.66,1.66,0,0,1-2.18-1.57c.12-32.23.34-62.22.63-89.14a1.66,1.66,0,0,1,.54-1.2c4.05-3.71,10.65-8.34,19.07-9.28a26.5,26.5,0,0,1,2.82-.15c7.29,0,14.09,3.05,18.19,8.18a39.31,39.31,0,0,1,2.62,3.87,27.26,27.26,0,0,0,3.12,4.38,12.35,12.35,0,0,0,8.89,3.87,10.89,10.89,0,0,0,2.69-.33,10.64,10.64,0,0,0,7.77-8.79c.65-6.34-5.11-11.81-10.25-14.56a39.13,39.13,0,0,0-18.47-4.6,38,38,0,0,0-8.41.93,1.66,1.66,0,0,1-1.84-.87c-2.25-4.45,1.37-9.31,5.94-12.16a55.83,55.83,0,0,1,22.63-7.95l1.12-.13c4-.45,8.11-.93,10.15-3.71a8.84,8.84,0,0,0,1.2-6.26c-1.2-9.76-11.51-15.79-20.37-15.79a19.56,19.56,0,0,0-4.49.51c-10.11,2.38-18.72,11.68-21.94,23.7-.42,1.56-.76,3.19-1.1,4.78a46.78,46.78,0,0,1-2.89,10c-2.57,5.64-7.27,10.38-14.36,14.5a1.67,1.67,0,0,1-1.66,0,1.63,1.63,0,0,1-.82-1.44c1.47-117.43,4.13-122.45,5-124.11a11.5,11.5,0,0,1,3.49-4.32,12.51,12.51,0,0,1,6.19-1.73,161,161,0,0,1,18.24-.52l2.33.08c1.68.06,3.42.12,5.11.12a41.69,41.69,0,0,0,6.42-.42c3.46-.53,8.24-1.94,11.38-5.67,3.76-4.45,4.09-11.65.79-17.11-3.07-5.08-8.89-8.61-15.59-9.45-5.84-.74-12.27.46-18.84,3.51a51.23,51.23,0,0,0-22.26,20,1.63,1.63,0,0,1-1.13.78,1.66,1.66,0,0,1-1.33-.34c-6.56-5.33-5.68-15.85-1.06-22.93a61.06,61.06,0,0,1,8.51-9.71,70.7,70.7,0,0,0,6.76-7.31c4.31-5.63,6.44-12.3,5.84-18.28-.67-6.69-4.92-12.58-10.58-14.67a14.46,14.46,0,0,0-5-.87c-6.28,0-12.93,3.82-17,9.72-5.09,7.48-6.32,17.11-6.84,25.55a195.7,195.7,0,0,0,2.71,46.92,1.65,1.65,0,0,1-3.22.72,33.17,33.17,0,0,0-21-22.3,32,32,0,0,0-10.22-1.64,33.36,33.36,0,0,0-20,6.6,17.32,17.32,0,0,0-6.1,7.37c-1.9,5,.15,11.59,4.87,15.63,5.18,4.42,12.15,5.47,17.09,5.58a93.74,93.74,0,0,0,14.57-1.24l4.54-.6a36.82,36.82,0,0,1,4.53-.34,15.48,15.48,0,0,1,4.75.67c7.27,2.32,10.47,10.47,11,17.32.21,2.49.19,44.38.16,102.36l0,40.94a1.66,1.66,0,0,1-2.35,1.5,64.89,64.89,0,0,0-7-2.69,1.48,1.48,0,0,1-.29-.12c-6.93-3.64-10.34-8.16-13.08-11.8-2.95-3.9-4.52-5.78-8-5.78a16.57,16.57,0,0,0-5.15,1c-4.4,1.46-6.61,6.31-5.63,12.35,1.45,9,9.75,18.64,24.53,18.64a40.34,40.34,0,0,0,7.78-.81A67.46,67.46,0,0,0,449,398.7,1.8,1.8,0,0,1,449.46,398.62Z"></path>
  <path fill="#333" d="M472.1 216.18a1.65 1.65 0 0 1-1.28-2.69c17.53-21.6 45.28-16.87 46.46-16.66a1.65 1.65 0 1 1-.59 3.25c-.27-.05-27-4.56-43.3 15.49A1.67 1.67 0 0 1 472.1 216.18ZM456.24 183.41h-.17a1.65 1.65 0 0 1-1.47-1.81c1.58-15.5 11.66-34.27 12.08-35.06a1.65 1.65 0 0 1 2.91 1.57c-.1.19-10.2 19-11.71 33.82A1.65 1.65 0 0 1 456.24 183.41ZM441.52 218.16a1.64 1.64 0 0 1-1-.31c-21.15-15.19-41.67-6.19-41.88-6.1a1.65 1.65 0 0 1-1.37-3c.91-.41 22.43-9.91 45.18 6.43a1.65 1.65 0 0 1-1 3Z"></path>
  <path fill="#a5a653" d="M651.11,722.52h20.27s-6.72-80.66-2.72-94.18,18.52-14,18.52-30-17-17-23.52-10.49-7.51,26.55-7.51,26.55-2.51-13.51-13-12-18,10.92,7,29.44C650.14,631.84,657.12,708.52,651.11,722.52Z"></path>
  <path fill="#313131" d="M671.38,724.52H651.11a1.68,1.68,0,0,1-1.38-.76,1.66,1.66,0,0,1-.14-1.57c5.47-12.79-.34-81.41-1-89.3-15.79-11.84-17.77-19.68-16.63-24.19,1-4.13,5.14-7.09,11-7.92a12.74,12.74,0,0,1,1.83-.14c5.28,0,8.53,3.32,10.47,6.67.91-6.65,2.93-16.22,7.29-20.57a16,16,0,0,1,11.18-4.24c7.55,0,15.17,4.92,15.17,15.93,0,9.7-5,14.21-9.81,18.56-3.68,3.33-7.15,6.47-8.78,12C666.37,642,673,721.88,673,722.69a1.68,1.68,0,0,1-1.65,1.83Zm-18-3h16.21c-1-13-6.27-80.64-2.51-93.32,1.89-6.4,5.88-10.09,9.74-13.57,4.67-4.23,8.71-7.92,8.71-16.16,0-9.31-6.12-12.65-11.86-12.65a12.84,12.84,0,0,0-8.85,3.26c-5,5-6.75,20-7,25.44a1.66,1.66,0,0,1-3.28.21c0-.1-2.12-10.78-9.79-10.78a9.08,9.08,0,0,0-1.36.1c-4.46.63-7.54,2.67-8.24,5.46s.35,9.59,16,21.16a2.06,2.06,0,0,1,.67,1.35C652.06,635,658.14,702.52,653.38,721.52Z"></path>
  <path fill="#a5a653" d="M432.9,753.52s-10-31.56,14.35-37.3,31.56,1.44,31.56,1.44,1.43-25.82,24.38-30.13,50.21,20.09,50.21,20.09,0-48.77,45.9-44.47,34.43,57.38,34.43,57.38,15.78-8.61,43,2.87,14.35,30.12-1.43,30.12C675.33,753.52,429.32,749.93,432.9,753.52Z"></path>
  <path fill="#313131" d="M675.33,755.52h0c-1.09,0-110.14-1.77-181.14-1.77-46.24,0-57.7.59-60.1,1a1.56,1.56,0,0,1-1.17.41,1.66,1.66,0,0,1-1.15-.5,1.71,1.71,0,0,1-.5-1c-.75-2.52-4.92-18.05,1.42-29.06,3-5.14,7.74-8.52,14.21-10a76.49,76.49,0,0,1,17.3-2.27c6.81,0,11,1.34,13.33,2.5,1.15-7,6-25.3,25.39-28.94a32,32,0,0,1,5.95-.54c17.92,0,36.41,13.47,43.09,18.85a62.29,62.29,0,0,1,5-19.65c4.8-10.65,15.08-23.34,36.79-23.34,1.85,0,3.78.09,5.73.27,12.76,1.2,22.43,6.18,28.76,14.82,10.4,14.21,8.76,34,7.66,41.55a43.8,43.8,0,0,1,14-2.09c8.68,0,17.95,2.05,27.56,6.09,17.24,7.26,17.37,16.8,16.62,20.49C692.55,749.64,684.34,755.52,675.33,755.52Zm-181.17-5.25c70.82,0,179.48,1.57,181.18,1.6,7.49,0,14.28-4.55,15.44-10.34,1.24-6.11-4.11-12.17-14.66-16.61-9.2-3.88-18-5.84-26.28-5.84-9.81,0-15.27,2.87-15.33,2.9a1.65,1.65,0,0,1-2.4-1.8c.06-.26,5.35-25.66-6.58-41.92-5.74-7.83-14.62-12.36-26.38-13.47-1.86-.17-3.68-.26-5.43-.26-16,0-27.32,7.17-33.73,21.31a59.66,59.66,0,0,0-4.94,21.78,1.66,1.66,0,0,1-2.75,1.23c-.23-.2-22.81-20.17-43.46-20.17a29,29,0,0,0-5.34.48c-21.43,4-23,28.34-23,28.59a1.66,1.66,0,0,1-2.82,1.08s-3.5-3.18-13.47-3.18a73.24,73.24,0,0,0-16.54,2.18c-5.54,1.31-9.61,4.16-12.1,8.48-4.92,8.54-2.56,20.79-1.49,25.08,2.38-.35,7.06-.59,16.55-.79C460.75,750.38,475.41,750.27,494.16,750.27Z"></path>
  <path fill="#333" d="M616.74,726.79a1.62,1.62,0,0,1-1.38-.75,15.23,15.23,0,0,0-8.74-5.95,5.81,5.81,0,0,0-4.56.68,1.65,1.65,0,0,1-2.58-1.43c.25-7.35-3.38-15.62-10.8-17.2a14.09,14.09,0,0,0-11,2.7,9.8,9.8,0,0,0-4.12,7.17,1.65,1.65,0,1,1-3.3-.18,13.06,13.06,0,0,1,5.41-9.62,17.3,17.3,0,0,1,13.7-3.3c8.67,1.85,12.84,10.17,13.37,18a10,10,0,0,1,4.54,0,18.4,18.4,0,0,1,10.85,7.39,1.66,1.66,0,0,1-.49,2.29A1.62,1.62,0,0,1,616.74,726.79Z"></path>
  <path fill="#e7a146" d="M358.55,631.17s-10.64,29.44-16.9,43.84,31.93,60.11,31.93,60.11,20.67.63,20,16.28c0,0-32.56,3.76-38.82,1.26S327.87,717,321,719.47s-12.52-2.51-12.52-11.9-1.25-13.15-3.76-11.9-16.91-12.52-16.28-28.8S306,615.52,306,615.52Z"></path>
  <path fill="#313131" d="M363.5,755.17c-4.62,0-7.67-.32-9.32-1-2.81-1.12-7-6.2-13.62-14.38-6.05-7.5-15.2-18.82-18.77-18.82a.78.78,0,0,0-.24,0,11.8,11.8,0,0,1-4,.74,9.57,9.57,0,0,1-7.82-4,16.79,16.79,0,0,1-2.91-10.17c0-8.2-1-10.06-1.32-10.44l-.05,0a2.46,2.46,0,0,1-1.12.25h0c-2.23,0-5.21-2.75-6.79-4.39-5.47-5.68-11.17-15.55-10.76-26.21.63-16.43,17-50.55,17.69-52l.62-1.26,55.62,16.55-.59,1.65c-.11.29-10.74,29.64-16.95,43.93-4.73,10.88,20.51,44.91,31.23,57.85,2.69.2,11.71,1.28,17,7a14.62,14.62,0,0,1,3.88,11l-.06,1.41-1.4.17C393.63,753.07,375.26,755.17,363.5,755.17Zm-41.71-37.49c4.79,0,11.56,7.94,21.34,20.05,4.75,5.87,10.13,12.53,12.28,13.39.69.28,2.67.75,8.09.75,9.65,0,23.89-1.45,28.46-1.94a11.21,11.21,0,0,0-3-7.2c-5.21-5.58-15.35-6-15.45-6l-.74,0-.48-.57c-4-4.76-38.66-46.92-32.18-61.83,5.32-12.24,13.94-35.69,16.27-42.09l-49.56-14.75c-3,6.41-16.23,35.39-16.77,49.42-.55,14.37,11.42,26.5,14.15,27.15a3.5,3.5,0,0,1,1.36-.29c4,0,4.53,6.62,4.53,13.78a13.7,13.7,0,0,0,2.25,8.2c1.9,2.54,4.84,3.32,8.06,2.15A3.87,3.87,0,0,1,321.79,717.68Z"></path>
  <path fill="#e7a146" d="M460,650.59s-20,58.23-34.44,59.49-43.84-10-38.83-17.54,18.16-11.9,25.68-9.39,7.51-38.2,7.51-38.2L462.5,628Z"></path>
  <path fill="#313131" d="M423.21,711.82c-12.84,0-34-7.32-38-14.81a5,5,0,0,1,.13-5.38c4.69-7,14.94-10.84,22.2-10.84a17.22,17.22,0,0,1,5.37.79l.13,0s2.82-.48,4.36-17.63c.84-9.4.85-18.93.85-19v-1.12l46.18-18.34-2.89,25.63c-2.09,6.07-20.82,59.29-35.86,60.6C424.92,711.79,424.08,711.82,423.21,711.82Zm-15.65-27.73c-6.5,0-15.55,3.51-19.45,9.37a1.72,1.72,0,0,0,0,2c3.07,5.74,22.73,13.07,35.06,13.07.78,0,1.52,0,2.2-.09,10.9-.95,27.43-42.17,33-58.21l2.18-19.63-39,15.49c0,2.82-.18,10.54-.86,18.17-1.64,18.31-4.95,20.66-7.65,20.66a3.73,3.73,0,0,1-1.18-.19A13.51,13.51,0,0,0,407.56,684.09Z"></path>
  <path fill="#eeb857" d="M151.6,499.05c8.45,20.66.93,19.72,11.26,29.12s22.55-.94,27.25,6.57,14.08,25.36,25.35,22.54,28.19-5.63,28.19-5.63-9.86,38-4.23,58.23c0,0-12.21,27.25-27.24,40.86s-17.84,19.25-21.6,33.35S174.15,702.87,172.72,709s8.94,6.1,5.18,13.16S170.85,732,169,741.86s11.28,11.73,23,8.92,48.84-60.58,48.84-60.58a167.83,167.83,0,0,0,49.29-12.45c16.81-7.17,34.39-18.41,46.52-35.93,0,0,6.12-3.05,17.76.64a57.65,57.65,0,0,1,6.65,2.65c16,7.51,17.86,18.78,26.78,15.49,6.29-2.32,7-8.36,10.46-10.9h0c1.45-1.07,3.39-1.52,6.43-.83,5.39,1.23,6.43,2.59,7.67,4.26,1.11,1.51,2.36,3.28,7.07,5.47.09,0,.2.1.29.13,10.34,4.7,16.91-9.39,24.9-4.22,4.09,2.65,6.83,7.89,9.16,12.31,2.2,4.2,4.05,7.66,6.33,7.42,4.7-.47,3.29-8.93,7-8.93s3.76,13.16,7.06,17.85,10.33-4.69,14.08-2.35,5.17,12.21,13.15,25.36,17.37,19.26,21.61,28.18,3.29,15,8.92,13.62,9.39,8.92,12.21,9.86,39,0,39,0,3.76-14.56-9.86-20.66-17.38-6.57-24-18.79c-6.06-11.23-21.63-60.22-24.09-68-.21-.68-.33-1-.33-1s7.7-4.9,17.45-12.36c16.2-12.36,38.08-31.75,39.85-47.28,2.81-24.9.46-45.56,6.57-54s13.62-10.33,13.62-10.33S615.17,535.6,629.28,538c0,0,0,0,.08,0a32.69,32.69,0,0,0,6.47.48c9.83-.29,19.11-14.45,26.11-25.8h0c4-7.62,6.91-14,6.91-14l-10.41-5.9L631.9,477.76s-.32-19.1-16-26.62c-9.18-4.41-23.86-7.41-35.75-8.06l-1.26-.06c-.83,0-1.65-.07-2.45-.07-1.13,0-2.23,0-3.27,0l-1,0a7.06,7.06,0,0,0-.93.05c-.31,0-.6,0-.9.06-3.83.34-6.79,1.11-8.35,2.38-6.57,5.32-51,58.23-80.14,64.49a113.14,113.14,0,0,1-11.39,1.61c-1.18.13-2.44.24-3.74.36l-.33,0c-1.54.14-3.15.27-4.85.4-1.46.12-3,.22-4.55.34-.94.07-1.89.13-2.86.18l-2.27.15q-3.48.21-7.22.4l-1.92.09c-2.8.15-5.7.28-8.69.41-6.59.26-13.6.49-20.86.7-2.26.07-4.54.12-6.85.17l-2.62,0c-4.54.11-9.17.19-13.83.25s-9.58.12-14.41.16l-4.82,0c-5.33,0-10.65,0-15.92,0l-4.23,0-8.51-.06-7.94-.11-2.3,0c-1,0-1.91,0-2.87,0l-3.62-.08-3.13-.07c-4.47-.1-8.83-.22-13-.36l-6.41-.24-.95,0-3.17-.13c-.74,0-1.49-.08-2.2-.1l-2.72-.13-3.62-.2c-1-.06-2-.11-3-.18l-1.8-.12-1.77-.11-2.45-.17c-.89-.07-1.75-.13-2.6-.21a.62.62,0,0,1-.19,0c-2.64-.22-5.09-.44-7.36-.69l-.26,0a103,103,0,0,1-11.95-1.89c-31-7.52-76.07-42.27-100.5-78.9l-.12.11c-1,1-8.27,8-7.39,15.86.37,3.39-.9,6.17-2.7,8.83-2.69,4-6.51,7.7-7.63,12.76C138.45,477.45,143.14,478.39,151.6,499.05Z"></path>
  <path fill="#313131" d="M555.58,759.89c-10.38,0-11.39-.34-11.88-.5-1.52-.51-2.74-2.18-4.28-4.3-1.82-2.5-4.09-5.61-6.35-5.61a3,3,0,0,0-.66.08,7.52,7.52,0,0,1-1.86.25c-3.8,0-4.9-3.42-6.16-7.38a58.35,58.35,0,0,0-2.79-7.38c-2-4.22-5.28-7.84-9.08-12a101.83,101.83,0,0,1-12.45-16,114.56,114.56,0,0,1-8.15-16.66c-1.67-4-3-7.24-4.46-8.15a.86.86,0,0,0-.53-.14c-1.06,0-2.75,1-4.25,1.8-2,1.12-4,2.27-6,2.27a4.49,4.49,0,0,1-3.79-2c-1.63-2.32-2.47-6.12-3.29-9.79-.57-2.6-1.54-6.95-2.46-7.37-.5,0-.94,1.24-1.45,2.84-.78,2.43-1.85,5.74-5.39,6.1h-.38c-3.23,0-5.24-3.85-7.57-8.32l-.07-.13c-2.27-4.3-4.84-9.17-8.53-11.55a5.11,5.11,0,0,0-2.83-.9c-2.08,0-4.35,1.32-6.75,2.72-2.92,1.71-6.24,3.64-10.09,3.64a12.08,12.08,0,0,1-5-1.12l-.26-.12c-5.07-2.36-6.53-4.35-7.7-6l-.05-.07c-1.08-1.46-1.87-2.51-6.7-3.61-2.24-.52-3.82-.37-5,.5a.18.18,0,0,1-.07,0,12.74,12.74,0,0,0-2.83,3.62c-1.62,2.62-3.63,5.88-8,7.5a10.07,10.07,0,0,1-3.57.69c-3.89,0-6.61-2.58-10.06-5.85a51.36,51.36,0,0,0-14.42-10.39,57.06,57.06,0,0,0-6.46-2.57,34.39,34.39,0,0,0-10.27-1.74,17.52,17.52,0,0,0-5.9.87c-10.67,15.22-26.46,27.37-47,36.11a172.91,172.91,0,0,1-49,12.51c-5.48,8.48-37.74,57.8-49.41,60.6a43.56,43.56,0,0,1-10,1.24c-6.19,0-10.92-1.61-13.34-4.54a8.85,8.85,0,0,1-1.69-7.53c1.43-7.48,3.65-11.08,6.22-15.25.93-1.51,1.89-3.07,2.88-4.94,1.35-2.54.48-3.41-1.8-5.3-1.85-1.55-4.4-3.67-3.53-7.45.69-3,3.31-5.39,6.35-8.22,4.18-3.9,9.4-8.76,11.52-16.72,3.91-14.67,7.1-20.57,22.09-34.15,13.46-12.19,24.82-35.94,26.6-39.79-4.61-17.69,1.7-47.26,3.77-56-5.1.89-17,3-25.58,5.18a11.55,11.55,0,0,1-2.8.35C203,559.23,195,546,190.2,538.06l-1.49-2.44c-1-1.57-2.38-2.19-5-2.19a38,38,0,0,0-4,0c-1.69.17-3.43.08-5.27.08h0c-3.26,0-8.13-.22-12.72-4.39-5.93-5.4-6.43-7.62-7-12.43-.42-3.44-1-8.09-4.67-17.09a158,158,0,0,0-8-16.7c-3.09-5.71-4.64-8.57-3.37-14.3.91-4.07,3.31-7.21,5.63-10.26.8-1.05,1.56-2,2.25-3.06,2-2.93,2.7-5.23,2.42-7.72-.94-8.49,6.43-15.86,7.91-17.25l.07-.06a1.65,1.65,0,0,1,2.55.25c23.73,35.57,68.37,70.65,99.52,78.2a101,101,0,0,0,11.74,1.86h.26c2,.22,4.24.43,7.31.69h.21c.84.08,1.69.14,2.57.21l1.13.08,1.3.09,3.58.23,1.62.1,5.2.29,2.53.12c.69,0,1.44.06,2.19.1l1.5.06,1.65.07,7.36.28c3.81.13,8.07.25,13,.36l3.11.07,3.64.07,2.88.06,2.28,0,7.93.11,4.27,0,4.23,0h4.22q7.92,0,15.91,0l4.82,0c4.82,0,9.63-.1,14.4-.16,5.23-.07,9.74-.15,13.81-.25l1.31,0,1.33,0c2.29-.05,4.57-.1,6.82-.17,7.39-.21,14.41-.45,20.85-.7,3-.13,5.87-.26,8.67-.41l1,0,1-.05c2.47-.13,4.88-.26,7.19-.4l2.29-.15q1.42-.07,2.82-.18l1.68-.12,2.86-.21c1.69-.13,3.3-.26,4.83-.41l.39,0c1.27-.11,2.49-.23,3.65-.36,4.69-.47,8.57-1,11.23-1.57,22.68-4.88,55.34-39.18,71-55.67,4.21-4.42,7-7.35,8.41-8.5,1.75-1.42,4.86-2.34,9.24-2.73l.91-.07a8.74,8.74,0,0,1,1.07-.05l.88,0c1.08,0,2.21-.06,3.38,0,.69,0,1.51,0,2.49.07l.62,0,.65,0c13,.72,27.6,4,36.35,8.22,14.53,7,16.57,23,16.85,27.12l25.72,14.62,10.33,5.91a1.66,1.66,0,0,1,.68,2.13c0,.06-3,6.41-7.07,13.94a1.19,1.19,0,0,1-.08.16c-7.12,12.23-16.67,26.31-27.33,26.62a32.33,32.33,0,0,1-6.66-.5l-.11,0h0c-13-2.14-23.92-10.22-26.84-12.44a26.35,26.35,0,0,0-11.94,9.46c-3.63,5-4,15.33-4.59,28.38-.31,7.45-.65,15.88-1.67,24.85-1.79,15.84-23,35.06-40.48,48.4-7.61,5.82-14,10.14-16.5,11.76,4.25,13.4,18.31,57.13,23.92,67.54s8.68,11.72,19,16.21c1.3.57,2.7,1.18,4.22,1.86,14.72,6.6,10.83,22.42,10.78,22.58a1.64,1.64,0,0,1-1.55,1.24C583.09,759.48,567,759.89,555.58,759.89Zm-22.51-13.71c3.94,0,6.76,3.86,9,7,.84,1.15,2.11,2.9,2.66,3.1.26.08,1.89.34,10.83.34,9.48,0,22.17-.29,26.26-.39.5-3.4.94-13-9.17-17.53-1.51-.68-2.91-1.29-4.19-1.85-10.51-4.59-14.44-6.31-20.55-17.67-5.77-10.7-20-55-24.21-68.27l-.32-1a1.65,1.65,0,0,1,.68-1.9c.08-.05,7.76-5,17.34-12.28,24-18.31,37.91-34.7,39.2-46.15,1-8.85,1.35-17.23,1.66-24.61.56-13.61,1-24.35,5.22-30.18,6.38-8.84,14.22-10.89,14.55-11a1.65,1.65,0,0,1,1.44.32c.13.1,12.56,10,26.07,12.31h.08a29.17,29.17,0,0,0,6,.46c10.14-.3,20.88-18.64,24.51-24.86a.36.36,0,0,1,0-.09c2.94-5.42,5.29-10.23,6.38-12.49l-9-5.15L631,479.2a1.66,1.66,0,0,1-.84-1.41c0-.18-.49-18.19-15-25.16-8.4-4-22.51-7.21-35.11-7.9l-.62,0-.64,0c-.9-.05-1.66-.07-2.35-.07-1.21,0-2.2,0-3.21,0l-.94,0a5.37,5.37,0,0,0-.79,0h-.14c-.27,0-.51,0-.77.06-4.92.43-6.81,1.44-7.5,2-1.26,1-4.28,4.19-8.11,8.21-15.92,16.73-49,51.52-72.73,56.62-2.83.59-6.72,1.14-11.57,1.63-1.19.13-2.45.25-3.76.37h-.15l-.12,0c-1.6.15-3.23.28-4.93.41l-2.88.22-1.68.12c-.95.07-1.91.13-2.89.18l-2.17.14H452q-3.5.21-7.25.4l-.94,0-1,0c-2.79.15-5.69.28-8.68.41-6.46.25-13.49.49-20.9.7-2.25.07-4.54.12-6.85.17l-1.32,0-1.32,0c-4.06.09-8.59.17-13.82.24-4.78.07-9.6.12-14.42.16-1.61,0-3.22,0-4.84,0-5.32,0-10.65,0-15.92,0h-4.23l-4.24,0-4.28,0-8-.1-2.28,0c-1,0-1.94,0-2.89,0l-3.64-.08c-1,0-2.08,0-3.13-.07-5-.11-9.23-.23-13.06-.36l-7.37-.28-1.67-.06-1.49-.07-2.2-.1-2.52-.12-5.25-.29-1.65-.1-3.5-.23-1.4-.1-1.12-.08-2.57-.2-.31,0c-3-.26-5.29-.47-7.27-.69a2.33,2.33,0,0,1-.38,0,102.44,102.44,0,0,1-12.11-1.92c-31.34-7.6-76-42.32-100.35-77.9-2.19,2.39-6.25,7.66-5.63,13.18.47,4.22-1.34,7.53-3,9.94-.73,1.1-1.56,2.18-2.36,3.23-2.1,2.76-4.27,5.61-5,9-1,4.53,0,6.42,3.05,12a160.06,160.06,0,0,1,8.13,17.05c3.86,9.42,4.48,14.59,4.9,18,.5,4.17.69,5.72,6,10.52a14.51,14.51,0,0,0,10.49,3.8h0c1.68,0,3.34-.17,4.94-.33s3-.29,4.32-.29c2.34,0,5.69.39,7.78,3.74.46.74,1,1.57,1.52,2.48,4.43,7.32,11.84,19.58,20,19.58a8.49,8.49,0,0,0,2-.25c11.22-2.8,28.15-5.63,28.32-5.66a1.64,1.64,0,0,1,1.49.51,1.67,1.67,0,0,1,.38,1.53c-.1.38-9.69,37.85-4.24,57.38a1.61,1.61,0,0,1-.08,1.12c-.5,1.12-12.52,27.72-27.64,41.41s-17.55,19.18-21.11,32.55c-2.37,8.88-8,14.1-12.47,18.29-2.64,2.46-4.92,4.58-5.38,6.54-.38,1.64.41,2.49,2.43,4.17s5.27,4.38,2.6,9.39c-1,2-2,3.57-3,5.12-2.5,4.05-4.47,7.25-5.78,14.13a5.49,5.49,0,0,0,1,4.81c1.76,2.13,5.69,3.35,10.8,3.35a40.19,40.19,0,0,0,9.23-1.15c8.14-1.95,33.07-36.87,47.84-59.87a1.63,1.63,0,0,1,1.28-.75,168,168,0,0,0,48.75-12.32c20.09-8.57,35.5-20.46,45.81-35.35a1.7,1.7,0,0,1,.62-.54,18.57,18.57,0,0,1,7.72-1.36,37.32,37.32,0,0,1,11.28,1.91,58.85,58.85,0,0,1,6.86,2.72,54.86,54.86,0,0,1,15.29,11c3.13,3,5.2,4.95,7.78,4.95a7,7,0,0,0,2.43-.49c3.33-1.23,4.87-3.72,6.36-6.13a15.75,15.75,0,0,1,3.63-4.51l.07,0c2-1.5,4.49-1.85,7.78-1.11,5.61,1.28,7.06,2.76,8.63,4.88l0,.08c1.05,1.43,2.13,2.91,6.39,4.89l.24.11a8.75,8.75,0,0,0,3.68.84c3,0,5.74-1.63,8.43-3.19s5.44-3.17,8.41-3.17a8.41,8.41,0,0,1,4.62,1.42c4.42,2.85,7.32,8.36,9.66,12.79l.08.14c1.36,2.61,3.41,6.55,4.64,6.55s1.89-1.53,2.62-3.82,1.65-5.12,4.64-5.12c3.44,0,4.47,4.61,5.65,10,.71,3.2,1.51,6.82,2.76,8.6a1.19,1.19,0,0,0,1.09.63c1.11,0,2.77-.93,4.37-1.83,1.94-1.1,3.94-2.23,5.87-2.23a4.23,4.23,0,0,1,2.28.63c2.37,1.48,3.72,4.75,5.76,9.7a111.48,111.48,0,0,0,7.92,16.2A99.4,99.4,0,0,0,515,720.79c4,4.39,7.4,8.19,9.61,12.84a59.12,59.12,0,0,1,2.95,7.8c1.62,5,2,5.45,4.08,4.93A6,6,0,0,1,533.07,746.18Z"></path>
  <path fill="#e7a146" d="M164.88,440.34c24,34.44,68.28,67.12,98.73,74.19s190.68,5.59,219.29-.3,72.27-55.64,78.73-60.65,37.53-1.76,52.9,5.3,15.69,25,15.69,25l36.29,19.72S656.72,525.76,644.8,536a28.77,28.77,0,0,1-4.21-3.68,48.89,48.89,0,0,1-12-43.47,45.74,45.74,0,0,1-28,4.69c-3.24-7.25,5.38-15.22,3.43-22.88-2.12-8.34-15.48-9.11-22-3.18s-8.06,15.08-10,23.47-5.29,17.56-13.37,21.3c-9,4.17-20.6-.12-29.41,4.45-6.4,3.32-9.54,10.47-10.8,17.33s-1.13,14-3.24,20.63-7.28,13.13-14.48,14.08-14.92-6.58-11.72-12.84c-5.18-.28-9.06,4.54-10.85,9.2s-2.65,9.9-6.22,13.5a13.27,13.27,0,0,1-15.07,2.22,12.1,12.1,0,0,1-6-13.41c-9.18,2.74-12.6,13.1-16.22,21.62-4.79,11.26-13,22.12-25.06,25.94s-27.85-2.48-29.93-14.47c-1.47-8.4,3.27-18.55-2.87-24.7-5.94,2.61-8,9.5-11.9,14.53s-13.59,7.42-15.87,1.56c2.91-5.78-.51-13.62-6.83-15.76-7-2.39-10.85,2.13-15.45,6.38a4.2,4.2,0,0,1-1.85,1.18,3.89,3.89,0,0,1-2.07-.24c-13.35-4.3-18.44-21.34-32.91-23.33-5.59-.77-11.34,1.46-15.54,5.09-1.55,1.35-3,2.91-4.89,3.71-9.43,3.92-6.79-17.48-10.68-21.46-5.91-6-16.71-1.71-24.84-4.5-15.87-5.45-13.34-33.49-29.89-36.58-4-.74-8.17.35-12.07-.7-13.9-3.73-9-26.88-21.31-34.16-2.85-1.69-6.26-2.23-9.32-3.51a20.44,20.44,0,0,1-6.45-4.41c1.72-2.48,3-5.06,2.59-8.2C156.57,447.4,164.88,440.34,164.88,440.34Z"></path>
  <path fill="#e7a146" d="M572.4,452.08c11.28,0,14.56,6.58,11.27,18.79s.47,47.43-20.66,48.84S528.25,507,531.07,495.29,566.29,452.08,572.4,452.08Z"></path>
  <path fill="#313131" d="M662.75 515.53s-7.06-22.28-4.07-22.82 14.4 6.52 13 8.15S665.2 512.81 662.75 515.53ZM556.55 515.88a10.51 10.51 0 0 1-12.34 2 13.08 13.08 0 0 1-6.51-11.3 7.66 7.66 0 0 1-7.88-3.24c-1.66-2.49-2.08-5.94-1.2-9.71 1.92-8.17 8.48-14.37 13.74-19.36l13.22-12.53c3.95-3.74 8.43-8 14.19-9.53a14.92 14.92 0 0 1 3.74-.48c4.48 0 9.77 2.16 11.5 7a.92.92 0 0 1 0 .59c-2.46 8.17-3.16 16.9-3.83 25.34a163.74 163.74 0 0 1-2.34 19.48c-1 4.73-2.83 11.4-8.16 14.82a10.41 10.41 0 0 1-5.62 1.56C561.78 520.52 558.05 519.05 556.55 515.88Zm17-62.24a12.93 12.93 0 0 0-3.25.42c-5.31 1.43-9.6 5.49-13.38 9.07l-13.23 12.53c-5.08 4.81-11.41 10.81-13.2 18.43-.44 1.89-.91 5.48.93 8.24 1.48 2.22 4.78 3.26 6.82 2.05a.88.88 0 0 1 1 0 .92.92 0 0 1 .44.87c-.37 4.56 1.88 9.09 5.47 11a8.43 8.43 0 0 0 3.92.94 7.85 7.85 0 0 0 7-3.86.94.94 0 0 1 1.76.3c.52 3.44 4.13 5 7.27 5a8.58 8.58 0 0 0 4.6-1.27c4.73-3 6.46-9.22 7.34-13.6a162.69 162.69 0 0 0 2.31-19.26c.67-8.43 1.36-17.15 3.81-25.43C581.61 455.33 577.24 453.64 573.51 453.64Z"></path>
  <path fill="#313131" d="M565.08 521.35c-2.87 0-6.69-1.11-8.72-4.12a11.4 11.4 0 0 1-12.54 1.41 13.87 13.87 0 0 1-6.89-11.06 6.28 6.28 0 0 1-.75 0 8.68 8.68 0 0 1-7-3.79c-1.79-2.69-2.25-6.36-1.31-10.36 2-8.4 8.61-14.69 13.95-19.75L555 461.17c4-3.82 8.58-8.12 14.54-9.72a15.4 15.4 0 0 1 4-.52c4.77 0 10.41 2.33 12.28 7.52a1.76 1.76 0 0 1 0 1.11c-2.44 8.08-3.13 16.76-3.79 25.15a166.11 166.11 0 0 1-2.36 19.59c-1 4.87-2.93 11.76-8.53 15.35A11.17 11.17 0 0 1 565.08 521.35Zm-8.32-6.94.54 1.12c1.45 3.07 5.1 4.16 7.78 4.16a9.51 9.51 0 0 0 5.17-1.43c5.07-3.25 6.88-9.71 7.8-14.28a161.74 161.74 0 0 0 2.33-19.39c.67-8.49 1.37-17.25 3.86-25.51-1.6-4.51-6.54-6.49-10.73-6.49A14 14 0 0 0 570 453c-5.55 1.49-9.94 5.65-13.81 9.31L542.93 474.9c-5.2 4.92-11.64 11-13.5 19-.84 3.55-.46 6.76 1.07 9.06a7.1 7.1 0 0 0 5.68 3.06 5.68 5.68 0 0 0 1.32-.16l1-.26 0 1a12.33 12.33 0 0 0 6.07 10.6 9.68 9.68 0 0 0 11.33-1.86Zm8.32 5.06c-3.48 0-7.5-1.79-8.09-5.71a.09.09 0 0 0-.09-.09h0a.08.08 0 0 0-.08.06A8.71 8.71 0 0 1 549 518a9.15 9.15 0 0 1-4.31-1c-3.87-2.06-6.3-6.91-5.9-11.8a.12.12 0 0 0 0-.1h-.13a4.66 4.66 0 0 1-2.43.64 6.87 6.87 0 0 1-5.5-2.93c-2-3-1.52-6.87-1-8.89 1.85-7.86 8.27-13.95 13.43-18.84l13.23-12.53c3.85-3.64 8.21-7.78 13.73-9.26a13.44 13.44 0 0 1 3.47-.46c4 0 8.71 1.85 10.39 6l.11.27-.08.28c-2.42 8.19-3.11 16.86-3.78 25.24a163.45 163.45 0 0 1-2.32 19.38c-.91 4.53-2.71 10.93-7.7 14.13A9.42 9.42 0 0 1 565.08 519.47ZM556.87 512a1.73 1.73 0 0 1 .32 0 1.75 1.75 0 0 1 1.44 1.48c.44 3 3.65 4.29 6.45 4.29a7.8 7.8 0 0 0 4.16-1.13c4.46-2.87 6.12-8.83 7-13.07a159.42 159.42 0 0 0 2.29-19.11c.67-8.44 1.36-17.09 3.76-25.36-1.48-3.23-5.42-4.68-8.75-4.68a11.91 11.91 0 0 0-3 .4c-5.12 1.38-9.32 5.36-13 8.87l-13.22 12.53c-5 4.74-11.23 10.64-13 18-.41 1.76-.85 5.09.82 7.59a5.2 5.2 0 0 0 4.12 2.19 3.06 3.06 0 0 0 1.58-.39 1.76 1.76 0 0 1 1.85 0 1.73 1.73 0 0 1 .82 1.64c-.34 4.24 1.73 8.44 5 10.21a7.51 7.51 0 0 0 3.53.84 7 7 0 0 0 6.31-3.41A1.74 1.74 0 0 1 556.87 512ZM489.8 667.61a8.87 8.87 0 0 0 3.3-.62 1 1 0 0 0 .52-1.23 1 1 0 0 0-1.22-.52 7.51 7.51 0 0 1-8.28-2c-1.42-1.65-2.05-3.81-2.73-6.09-.25-.86-.49-1.71-.79-2.54-1.16-3.31-3.74-6.87-7.51-6.9h0a10.29 10.29 0 0 0-3.52.8 13.71 13.71 0 0 1-2.16.63c-4.7.73-8.54-4.21-10-6.39-.39-.59-.77-1.19-1.16-1.8-2.17-3.4-4.4-6.91-8.18-8.56-3-1.3-6.23-1.1-9.37-.92-3 .19-5.76.35-8.29-.66a.94.94 0 1 0-.7 1.74c2.91 1.16 6.06 1 9.1.8s5.94-.36 8.51.76c3.25 1.42 5.33 4.69 7.35 7.85.39.62.78 1.23 1.18 1.83 2.05 3.08 6.31 8.12 11.87 7.2a15 15 0 0 0 2.47-.71 8.86 8.86 0 0 1 2.9-.69h0c2.79 0 4.8 2.93 5.75 5.64.28.8.52 1.62.76 2.44.7 2.38 1.42 4.84 3.11 6.8A9.49 9.49 0 0 0 489.8 667.61Z"></path>
  <path fill="#313131" d="M489.8 668.43a10.28 10.28 0 0 1-7.72-3.43c-1.81-2.09-2.56-4.64-3.28-7.09l-.05-.19c-.22-.74-.44-1.5-.7-2.23-.82-2.33-2.62-5.07-5-5.09a8.34 8.34 0 0 0-2.59.63 16.46 16.46 0 0 1-2.66.76 9.2 9.2 0 0 1-1.47.12c-5.32 0-9.32-4.81-11.23-7.67l-1.19-1.84c-1.94-3.06-4-6.22-7-7.54a11.64 11.64 0 0 0-4.85-.83c-1.05 0-2.12.06-3.26.13h-.18c-1.08.06-2.19.12-3.3.12a15.82 15.82 0 0 1-6-1 1.76 1.76 0 0 1-1-2.29 1.82 1.82 0 0 1 2.29-1 12.11 12.11 0 0 0 4.66.74c1 0 2-.06 3.28-.14s2.3-.13 3.44-.13a15.78 15.78 0 0 1 6.32 1.13c4 1.74 6.3 5.35 8.53 8.85.39.62.78 1.22 1.16 1.8 1.22 1.83 4.47 6.1 8.37 6.1a5.54 5.54 0 0 0 .81-.07 12.24 12.24 0 0 0 2-.59 11.16 11.16 0 0 1 3.81-.85c4.25 0 7.08 3.88 8.33 7.45.29.82.54 1.66.78 2.48l0 .1c.64 2.21 1.25 4.28 2.56 5.78a6.67 6.67 0 0 0 5 2.24 6.22 6.22 0 0 0 2.32-.44 1.77 1.77 0 1 1 1.31 3.28A9.6 9.6 0 0 1 489.8 668.43Zm-16.75-19.68c3.25 0 5.51 3.22 6.56 6.2.27.76.5 1.54.72 2.3l.06.18c.67 2.3 1.36 4.67 2.94 6.49a8.63 8.63 0 0 0 6.47 2.86 8 8 0 0 0 3-.56.11.11 0 0 0 .06-.15c0-.05-.08-.06-.11-.06a8.12 8.12 0 0 1-3 .56 8.32 8.32 0 0 1-6.27-2.81c-1.54-1.77-2.2-4-2.9-6.38l0-.12c-.23-.79-.47-1.61-.75-2.39-1.06-3-3.39-6.31-6.73-6.35a9.66 9.66 0 0 0-3.28.76 13 13 0 0 1-2.31.66 6.53 6.53 0 0 1-1.07.09c-4.7 0-8.38-4.78-9.75-6.84-.39-.59-.78-1.19-1.16-1.81-2.11-3.3-4.28-6.7-7.82-8.24a13.66 13.66 0 0 0-5.65-1c-1.09 0-2.21.07-3.29.13-1.31.08-2.37.15-3.43.15a14 14 0 0 1-5.27-.86.12.12 0 0 0-.15.06.13.13 0 0 0 .07.15 14.24 14.24 0 0 0 5.38.86c1.07 0 2.16-.06 3.21-.12h.16c1.17-.07 2.27-.13 3.37-.13a13.28 13.28 0 0 1 5.51 1c3.49 1.53 5.64 4.91 7.71 8.17.39.61.78 1.21 1.18 1.81 1.72 2.59 5.3 6.94 9.85 6.94a7 7 0 0 0 1.2-.1 14.15 14.15 0 0 0 2.33-.67A9.59 9.59 0 0 1 473.05 648.75ZM277.72 660.19a4.63 4.63 0 0 0 1.91-.36 5.64 5.64 0 0 0 1.91-1.62l2.84-3.31c3.1-3.62 6.48-7.18 10.75-7.56a17.72 17.72 0 0 1 5.41.69 18.68 18.68 0 0 0 5.49.76c5.2-.18 10.21-4.17 13.4-10.69l.74-1.54c1.9-4 3.87-8.18 7.72-8.86a.94.94 0 0 0 .76-1.08 1 1 0 0 0-1.09-.77c-4.8.85-7.08 5.66-9.09 9.9l-.73 1.53c-2.88 5.88-7.28 9.48-11.78 9.63a15 15 0 0 1-5-.71 19.68 19.68 0 0 0-6-.73c-5 .45-8.66 4.29-12 8.2L280.11 657a4.06 4.06 0 0 1-1.25 1.13 3.62 3.62 0 0 1-1.75.17 41.22 41.22 0 0 1-10.31-1.91 1 1 0 0 0-1.18.61.94.94 0 0 0 .61 1.18 43.55 43.55 0 0 0 10.77 2Z"></path>
  <path fill="#313131" d="M277.72 661c-.27 0-.53 0-.77 0a44 44 0 0 1-11-2 1.78 1.78 0 0 1-1.15-2.22 1.82 1.82 0 0 1 2.2-1.15 40.2 40.2 0 0 0 10.12 1.87 3 3 0 0 0 1.35-.09 3.57 3.57 0 0 0 1-.92l2.84-3.32c3.46-4 7.27-8 12.56-8.49l.95 0a22.89 22.89 0 0 1 5.32.79l.78.18a11.53 11.53 0 0 0 3.93.51c4.25-.15 8.39-3.58 11.13-9.18l.73-1.51c2.09-4.43 4.47-9.44 9.69-10.36a1.62 1.62 0 0 1 .29 0 1.76 1.76 0 0 1 .32 3.5c-3.42.6-5.3 4.55-7.11 8.38l-.74 1.56c-3.33 6.79-8.61 11-14.12 11.16l-.66 0A19.17 19.17 0 0 1 301 649l-.59-.14a17.19 17.19 0 0 0-5.16-.67c-4 .36-7.2 3.79-10.19 7.27l-2.85 3.32a6.19 6.19 0 0 1-2.2 1.83A5.09 5.09 0 0 1 277.72 661Zm-11.17-3.84c-.07 0-.13 0-.14.08a.1.1 0 0 0 .08.13 42 42 0 0 0 10.56 2l.67 0a3.8 3.8 0 0 0 1.57-.28 4.87 4.87 0 0 0 1.62-1.41l2.85-3.31c3.2-3.74 6.71-7.43 11.3-7.84a18.31 18.31 0 0 1 5.67.7l.6.14A15.52 15.52 0 0 0 306 648c4.91-.18 9.66-4 12.71-10.23l.73-1.54c2-4.21 4.06-8.56 8.32-9.31a.11.11 0 0 0 .08 0c0-.1 0-.17-.11-.17-4.39.76-6.56 5.37-8.48 9.43l-.74 1.53c-3 6.17-7.69 9.94-12.5 10.11-.2 0-.47 0-.74 0a16.13 16.13 0 0 1-3.7-.59l-.77-.18a19 19 0 0 0-5.75-.72c-4.67.42-8.21 4.14-11.44 7.92l-2.85 3.32a4.51 4.51 0 0 1-1.55 1.34 3.3 3.3 0 0 1-1.44.27c-.24 0-.48 0-.71 0A42.17 42.17 0 0 1 266.55 657.17ZM384.67 582.94a7.38 7.38 0 0 0 .93-.06c4.07-.49 7.41-4.29 8.94-10.18.23-.9.44-1.82.65-2.74.77-3.48 1.51-6.78 3.7-9.19a.94.94 0 1 0-1.39-1.26c-2.53 2.78-3.35 6.47-4.15 10-.2.91-.4 1.81-.63 2.69-.49 1.92-2.49 8.2-7.34 8.78s-8.31-5-9.58-7.47l-.76-1.49c-1.91-3.77-4.06-8-8.18-9.8-5.81-2.48-12.15 1.22-16.79 3.92-6.56 3.84-11.59 4.55-14.93 2.11-3-2.18-3.79-6.29-4.55-10.27l-.1-.52a4.2 4.2 0 0 0-4.82-4.19l-28.86-.52h0a.94.94 0 0 0-.94.92 1 1 0 0 0 .93 1l28.85.52a3.71 3.71 0 0 1 2 .38 3.64 3.64 0 0 1 1 2.29l.1.51c.8 4.13 1.69 8.82 5.29 11.44 4 2.91 9.73 2.23 17-2 4.29-2.51 10.18-6 15.1-3.82 3.49 1.5 5.39 5.27 7.24 8.92l.77 1.5C375.5 577 379.18 582.94 384.67 582.94Z"></path>
  <path fill="#313131" d="M384.67 583.76c-6 0-9.87-6.28-11.27-9l-.78-1.51c-1.78-3.52-3.62-7.15-6.83-8.53a7.55 7.55 0 0 0-3-.6c-3.84 0-8 2.41-11.3 4.36-7.59 4.42-13.65 5.06-17.91 2-3.86-2.81-4.8-7.67-5.62-12l-.1-.52c-.1-.52-.29-1.49-.68-1.77a3.53 3.53 0 0 0-1.53-.23l-28.86-.52a1.77 1.77 0 0 1 0-3.53l28.89.52a5 5 0 0 1 5.62 4.86l.1.52c.73 3.82 1.49 7.77 4.23 9.76 3.05 2.23 7.82 1.47 14-2.15 3.72-2.17 8.33-4.85 13.11-4.85a11.11 11.11 0 0 1 4.42.88c4.4 1.89 6.63 6.3 8.59 10.18l.76 1.49c1.45 2.78 4.54 7.56 8.75 7s6.18-6.38 6.64-8.17c.22-.86.42-1.74.62-2.62.83-3.72 1.68-7.51 4.35-10.45a1.82 1.82 0 0 1 2.5-.12 1.77 1.77 0 0 1 .11 2.5c-2.05 2.25-2.76 5.43-3.51 8.81l0 .15c-.2.88-.4 1.75-.62 2.62-1.62 6.23-5.22 10.26-9.64 10.79A9.58 9.58 0 0 1 384.67 583.76Zm-21.91-21.28a9.21 9.21 0 0 1 3.69.74c3.76 1.62 5.73 5.52 7.64 9.29l.78 1.52c1.32 2.56 5.1 8.67 10.64 8 3.71-.44 6.79-4 8.23-9.57.22-.84.41-1.7.61-2.56l0-.16c.8-3.59 1.56-7 3.9-9.56a.11.11 0 0 0 0-.16c-.1 0-.13 0-.16 0-2.38 2.62-3.18 6.19-3.95 9.65-.21.95-.41 1.85-.64 2.73-.53 2-2.67 8.75-8 9.39a5.93 5.93 0 0 1-.84.06c-4.73 0-8-5-9.58-8l-.76-1.5c-1.84-3.64-3.93-7.76-7.77-9.41a9.47 9.47 0 0 0-3.77-.75c-4.33 0-8.73 2.56-12.27 4.62-6.86 4-12.23 4.7-15.84 2.06-3.26-2.37-4.08-6.64-4.87-10.78l-.1-.51a4.41 4.41 0 0 0-1.44-2.94 4.49 4.49 0 0 0-2.59-.59l-28.86-.52a.11.11 0 0 0-.11.11.13.13 0 0 0 .11.12l28.86.52a3.21 3.21 0 0 1 3.81 3.34l.09.51c.77 4 1.64 8.51 5 10.93 3.71 2.7 9.17 2 16.08-2C354.12 565 358.47 562.48 362.76 562.48ZM545.08 618.26a.94.94 0 0 0 .82-.49.93.93 0 0 0-.37-1.27c-4.83-2.68-5.86-9.32-6.22-15.47l-1.62-27.12a2.9 2.9 0 0 0-.56-1.77 3 3 0 0 0-1.73-.83c-5-1-7.75-6.63-8.31-11.74a58.31 58.31 0 0 1-.24-6.48 40.11 40.11 0 0 0-.85-10 .94.94 0 0 0-1.14-.67 1 1 0 0 0-.68 1.14 38.15 38.15 0 0 1 .79 9.57 60.2 60.2 0 0 0 .25 6.69c.59 5.36 3.48 12.06 9.67 13.34a2.18 2.18 0 0 1 .81.25 1.67 1.67 0 0 1 .11.66l1.62 27.11c.4 6.66 1.56 13.89 7.19 17A.93.93 0 0 0 545.08 618.26Z"></path>
  <path fill="#313131" d="M545.08 619.08a1.73 1.73 0 0 1-.87-.22c-6-3.3-7.2-10.78-7.61-17.67L535 574.08V574l-.21 0c-6.67-1.38-9.75-8.44-10.37-14.07a62.1 62.1 0 0 1-.25-6.78 37.18 37.18 0 0 0-.77-9.36 1.77 1.77 0 0 1 3.42-.89 40.59 40.59 0 0 1 .88 10.25 59 59 0 0 0 .23 6.39c.53 4.81 3.11 10.08 7.66 11a3.76 3.76 0 0 1 2.18 1.1 3.67 3.67 0 0 1 .76 2.26L540.13 601c.35 5.92 1.31 12.31 5.8 14.79a1.78 1.78 0 0 1 .84 1.06 1.76 1.76 0 0 1-1.69 2.25Zm-20-75.9c-.1 0-.13.08-.12.14a38.54 38.54 0 0 1 .82 9.77 60.85 60.85 0 0 0 .24 6.6c.56 5.08 3.26 11.43 9 12.62a2.22 2.22 0 0 1 1.27.51 1.92 1.92 0 0 1 .32 1.17l1.61 27.11c.39 6.43 1.49 13.4 6.77 16.32h.06a.14.14 0 0 0 .1-.06.13.13 0 0 0 0-.15c-5.19-2.87-6.27-9.77-6.65-16.14L536.87 574a1.61 1.61 0 0 0-1.63-1.84c-5.37-1.11-8.37-7-9-12.46a60.21 60.21 0 0 1-.24-6.57 39.14 39.14 0 0 0-.83-9.83A.1.1 0 0 0 525.1 543.18ZM635.53 540.38c-8.41 0-20.55-4.61-28.28-10.93-5.28-4.32-8.3-9.18-8.73-14a1.64 1.64 0 0 1 1.49-1.8 1.66 1.66 0 0 1 1.8 1.5c.45 5 4.34 9.17 7.53 11.78 8.49 7 21.32 10.83 28 10.1 8.68-1 19.78-18.61 23.32-25.33a1.65 1.65 0 1 1 2.92 1.54c-.55 1-13.7 25.74-25.88 27.07A18.63 18.63 0 0 1 635.53 540.38Z"></path>
  <path fill="#fff" d="M619.41,471.37c2.67-.24,6.14,6.82,4,13.38s-11.81,6.75-13.71.38S613.76,471.87,619.41,471.37Z"></path>
  <path fill="#313131" d="M616.33,491.44a8.25,8.25,0,0,1-8.17-5.84,11.76,11.76,0,0,1,1.83-9.94,13.21,13.21,0,0,1,9.27-5.94c1.41-.12,2.81.68,4,2.29A15.62,15.62,0,0,1,625,485.25,8.91,8.91,0,0,1,616.33,491.44Zm3.2-18.43a10,10,0,0,0-6.81,4.5,8.54,8.54,0,0,0-1.4,7.14,5,5,0,0,0,5,3.49,5.69,5.69,0,0,0,5.54-3.89,12.64,12.64,0,0,0-1.06-9.95C620.16,473.29,619.64,473,619.53,473Z"></path>
  <path fill="#343435" d="M624.75,478.68c-.36-4.08-2.82-7.2-5.5-7s-4.54,3.75-4.18,7.83,2.82,7.21,5.5,7S625.12,482.77,624.75,478.68Z"></path>
  <path fill="#f0c7c0" d="M315.27,342.31l31-8.52s6.14-11.79,1.85-21.22-12.75-13.72-16.35-14.35c-5.05-.87-22.8-8-36.13-12.24-12.24,1.27-4.68,25.07-14.78,32.78,18.08,8.31,17.91,8.68,20.32,13.31C305.16,339.8,315.27,342.31,315.27,342.31Z"></path>
  <path fill="#313131" d="M315.27,344a1.75,1.75,0,0,1-.4-.05c-.45-.11-10.88-2.8-15.2-11.09l-.18-.35c-2-3.86-2.25-4.36-19.36-12.22a1.66,1.66,0,0,1-.31-2.82c4.14-3.16,5-9.79,5.76-16.2,1-7.91,2-16.09,9.85-16.91a1.74,1.74,0,0,1,.68.07c5.71,1.84,12.35,4.23,18.2,6.33,7.69,2.77,14.95,5.39,17.7,5.87,4.46.77,13.17,5.6,17.58,15.28,4.57,10.05-1.63,22.16-1.9,22.67a1.63,1.63,0,0,1-1,.83l-31,8.53A1.59,1.59,0,0,1,315.27,344Zm-31.56-25.7c15.5,7.16,16.28,8,18.72,12.69l.17.34c3.21,6.17,10.84,8.76,12.67,9.3l29.79-8.21c1.13-2.47,4.88-11.75,1.52-19.14-4-8.84-11.93-12.84-15.13-13.4-3-.53-10.09-3.07-18.26-6-5.71-2-12.16-4.38-17.74-6.18-4.61.7-5.57,5.79-6.59,14C288.13,307.5,287.32,314,283.71,318.27Z"></path>
  <path fill="#333" d="M336.07,324.76a1.45,1.45,0,0,1-.35,0c-.52-.11-12.8-2.85-19.08-11.83a1.65,1.65,0,1,1,2.7-1.89c5.53,7.9,17,10.47,17.08,10.49a1.65,1.65,0,0,1-.35,3.27Z"></path>
  <path fill="#fff" d="M214.35,232.88c-17.25,8.16-11.49,39.95-.84,51.6s17.42,15.44,23.11,26.87,42.4,23,48.65,22.06l26-37.55s4.45-15.94-6.52-25.87-21.55-1.22-26.16-8.88-35.36-62.92-35.36-62.92Z"></path>
  <path fill="#313131" d="M284.41,335.52h0c-8.47,0-43.36-11.36-49.27-23.24-3.73-7.5-7.88-11.63-13.63-17.2-2.7-2.63-5.77-5.65-9.22-9.43-7.9-8.65-12.33-25.88-9.86-38.38,1.47-7.47,5.23-12.89,10.88-15.71L242,197.14a1.64,1.64,0,0,1,1.42-.59,1.68,1.68,0,0,1,1.29.84c.31.56,30.78,55.33,35.33,62.87,1.6,2.66,4,2.78,8.4,2.79,5,0,11.14,0,17.46,5.72,11.59,10.49,7.2,26.84,7,27.53a1.52,1.52,0,0,1-.23.5l-26,37.55a2,2,0,0,1-1.11.89A6,6,0,0,1,284.41,335.52ZM243,201.1l-27.36,32.84a1.74,1.74,0,0,1-.56.44c-6.14,2.9-8.49,8.94-9.39,13.5-2.48,12.58,2.68,28.51,9.06,35.49,3.38,3.71,6.41,6.64,9.08,9.24,5.76,5.58,10.3,10,14.29,18,5.18,10.4,38.64,21.17,46.27,21.2l25.4-36.65c.48-2,3.24-15.49-6.1-23.94-5.37-4.86-10.61-4.87-15.24-4.87-4.42,0-8.59,0-11.23-4.38C273.08,255.13,248.72,211.42,243,201.1Z"></path>
  <path fill="#333" d="M234.1,56.37a39.63,39.63,0,0,0,3.53-11.17c.59-5.29,3.53-14.12-9.41-15.88s-21.76,2.94-35.29,0-21.17-2.94-29.41,2.35-16.47,31.17-16.47,44.11-1.76,27.06-20,41.18-26.47,8.82-24.12,28.82,14.12,24.11.59,30.58S79.42,197,90.59,208.71s37.06,17.06,59.41,13.53,20.58-61.76,48.23-75.29,34.7-16.47,40-44.7-11-40.87-11-40.87Z"></path>
  <path fill="#f0c7c0" d="M226.92,332.42s-24.17,124.14-34.16,167.47S119.47,597.5,92,668.09L54.38,626.52a309,309,0,0,0,22.74-32.15c12.5-20,43.14-81.57,64.31-105.88l7.84-146.65Z"></path>
  <path fill="#313131" d="M92,669.74a1.63,1.63,0,0,1-1.22-.54L53.15,627.63a1.64,1.64,0,0,1,0-2.17,310.63,310.63,0,0,0,22.6-32c3.76-6,9.2-15.87,15.5-27.28,14.26-25.83,33.75-61.11,48.59-78.37l7.81-146.09a1.66,1.66,0,0,1,1.45-1.55l77.65-9.42a1.67,1.67,0,0,1,1.82,2c-.24,1.24-24.28,124.66-34.17,167.52-4.94,21.38-22.28,44.89-42.36,72.11-20.82,28.23-44.41,60.22-58.45,96.32a1.64,1.64,0,0,1-1.24,1ZM56.56,626.47,91.46,665c14.29-35.48,37.43-66.85,57.89-94.6,19.86-26.93,37-50.18,41.8-70.89,9.14-39.62,30.4-148.23,33.71-165.18l-74,9-7.77,145.27a1.67,1.67,0,0,1-.4,1c-14.66,16.83-34.26,52.31-48.56,78.23-6.33,11.45-11.8,21.35-15.6,27.43A327.05,327.05,0,0,1,56.56,626.47Z"></path>
  <path fill="#f0c7c0" d="M152.35,356.93c18.82,38.43,70.64,102.54,79.27,128.43s11.76,79.21,28.23,121.56,28.24,56.46,34.51,78.42l41.57-14.9s-29-98.82-41.57-150.58-23.53-100.38-44.7-150.58S152.35,356.93,152.35,356.93Z"></path>
  <path fill="#313131" d="M294.36,687a1.63,1.63,0,0,1-.75-.18,1.66,1.66,0,0,1-.84-1c-3.09-10.84-7.6-19.86-13.32-31.29a511.56,511.56,0,0,1-21.14-47c-9.9-25.46-14.92-54.33-19.34-79.8-2.94-16.92-5.48-31.54-8.92-41.83-4.45-13.38-20.8-37.36-38.1-62.76C176.17,400,159.85,376,150.86,357.65a1.66,1.66,0,0,1,.75-2.2c1.14-.57,28.17-13.85,54.81-13.85,22.13,0,37.19,9.1,44.76,27,19.61,46.49,30.45,91.44,41.93,139q1.42,5.88,2.86,11.8C308.36,570.6,337.22,669,337.51,670a1.65,1.65,0,0,1-1,2l-41.57,14.9A1.77,1.77,0,0,1,294.36,687ZM154.58,357.7c9,17.94,24.82,41.12,40.1,63.56,17.44,25.59,33.9,49.76,38.51,63.57,3.51,10.53,6.07,25.26,9,42.31,4.4,25.32,9.39,54,19.17,79.18a506.68,506.68,0,0,0,21,46.72c5.49,11,9.89,19.78,13,30.16l38.45-13.79c-3.68-12.6-29.57-101.42-41.14-149.16q-1.44-5.93-2.86-11.81c-11.44-47.45-22.26-92.28-41.76-138.51-7-16.61-21-25-41.72-25C184,344.9,160.63,354.93,154.58,357.7Z"></path>
  <path fill="#f0c7c0" d="M239.07,76.1a9.6,9.6,0,0,0,2.35-5.46,47,47,0,0,1-5-6.77c-1.26-2.31.33-11.1-3.47-18.93-3.3-6.81-9.19-7.72-9.19-7.72s2.11,9.88-8.89,16.86c-14.31,9.08-11.72,17.3-14.9,15.9,0,0-4.25-5-11.59-1.49s-7.44,11.89-1.14,16.26c3,2,5.32,1.26,5.32,1.26s-.8,37.15-6.18,36.23c-4.14-.7,22.94,2.75,22.94,2.75L212,100.87S226.85,107,233.78,99c.07-.07.13-.15.19-.22C240.88,90.41,239.07,76.1,239.07,76.1Z"></path>
  <path fill="#313131" d="M209.27,126.64h-.21c-.18,0-17.59-2.44-22.2-2.94-.11,0-.22-.17-.33-.17h0c-.15,0-.31.18-.47.16-1.59-.28-1.85-1.07-1.8-1.76a1.66,1.66,0,0,1,1.69-1.47l.52.06c2.15-2.1,3.92-18,4.35-32.73a9,9,0,0,1-4.56-1.68A11.38,11.38,0,0,1,181,75.87c.31-3.81,2.72-7,6.61-8.88a13.51,13.51,0,0,1,5.76-1.39,10.79,10.79,0,0,1,7,2.53l.41-.89c1.35-3,3.85-8.64,13.17-14.56,9.82-6.23,8.23-14.77,8.16-15.13a1.66,1.66,0,0,1,1.87-2c.27.05,6.78,1.14,10.42,8.64,2.55,5.27,2.8,10.77,3,14.79a16.1,16.1,0,0,0,.44,4.07,46.75,46.75,0,0,0,4.83,6.46,1.65,1.65,0,0,1,.42,1.22,11.8,11.8,0,0,1-2.28,5.9c.28,3.19.88,15.39-5.55,23.13-.08.1-.16.07-.24.16-2.7,3.11-6.65,4.57-11.76,4.57h0a34.51,34.51,0,0,1-9.82-1.52l-2.51,22.11a1.74,1.74,0,0,1-.62,1.15A1.67,1.67,0,0,1,209.27,126.64ZM190,120.93c5.2.61,14.11,1.74,17.81,2.21l2.55-22.46a1.66,1.66,0,0,1,.8-1.23,1.69,1.69,0,0,1,1.47-.08,31.31,31.31,0,0,0,10.6,2.15h0c4.12,0,7.24-1.23,9.29-3.61l.06-.08.11-.13c6.36-7.67,4.75-21.25,4.73-21.38a1.64,1.64,0,0,1,.47-1.38,7.47,7.47,0,0,0,1.78-3.78,44.2,44.2,0,0,1-4.76-6.49c-.65-1.19-.73-3-.84-5.51-.17-3.73-.41-8.84-2.67-13.5a12.69,12.69,0,0,0-5.88-6.09c-.07,3.74-1.47,10.6-9.82,15.9s-10.72,10.28-11.92,13c-.74,1.65-1.43,3.07-3.24,3.07h0a3,3,0,0,1-1.3-.17,1.45,1.45,0,0,1-.59-.37,7.42,7.42,0,0,0-5.27-2.11A10.26,10.26,0,0,0,189,70a7.67,7.67,0,0,0-4.73,6.18,8.15,8.15,0,0,0,3.82,7.25,5.06,5.06,0,0,0,3.88,1A1.67,1.67,0,0,1,194.16,86c0,.09-.2,8.9-1,17.74C192.3,113.28,191.2,118.28,190,120.93Z"></path>
  <path fill="#333" d="M198.29,80.88a1.65,1.65,0,0,1-1.64-1.53A5.66,5.66,0,0,0,193,75c-1.67-.53-3.26.09-4.74,1.85a1.65,1.65,0,1,1-2.53-2.12c3.18-3.79,6.55-3.43,8.28-2.88a9,9,0,0,1,6,7.21,1.65,1.65,0,0,1-1.52,1.77Z"></path>
  <path fill="#333" d="M192.17 80.07a1.7 1.7 0 0 1-.84-.22 1.66 1.66 0 0 1-.59-2.26l2.37-4A1.65 1.65 0 0 1 196 75.21l-2.37 4A1.63 1.63 0 0 1 192.17 80.07ZM232.34 88.13a15.16 15.16 0 0 1-10.42-4.64 1.67 1.67 0 0 1 .11-2.34 1.65 1.65 0 0 1 2.33.12c.21.22 4.93 5.24 11.39 3a1.65 1.65 0 0 1 1.1 3.12A13.5 13.5 0 0 1 232.34 88.13Z"></path>
  <path fill="#333" d="M221.83 85.3a1.65 1.65 0 0 1-1.25-2.73l2.47-2.88a1.66 1.66 0 0 1 2.51 2.16l-2.48 2.87A1.64 1.64 0 0 1 221.83 85.3ZM226 52.67a3.39 3.39 0 0 0-2.13.61 1.73 1.73 0 0 0-.6 2 2.6 2.6 0 0 0 1.49 1.13 22 22 0 0 0 3.46 1.08 3.48 3.48 0 0 0 .9.12 1.94 1.94 0 0 0 1.53-.87 1.92 1.92 0 0 0 .16-1.74 3 3 0 0 0-1.3-1.35A6.78 6.78 0 0 0 226 52.67Z"></path>
  <line x1="216.01" x2="213.26" y1="69.23" y2="71.1" fill="#fff"></line>
  <path fill="#333" d="M213.26,72.75a1.64,1.64,0,0,1-1.37-.73,1.65,1.65,0,0,1,.44-2.29l2.75-1.86a1.65,1.65,0,0,1,1.85,2.73l-2.74,1.86A1.6,1.6,0,0,1,213.26,72.75Z"></path>
  <line x1="218.95" x2="217.67" y1="71.2" y2="73.65" fill="#fff"></line>
  <path fill="#333" d="M217.67,75.3a1.61,1.61,0,0,1-.76-.19,1.65,1.65,0,0,1-.7-2.23l1.27-2.45A1.65,1.65,0,0,1,220.41,72l-1.27,2.45A1.67,1.67,0,0,1,217.67,75.3Z"></path>
  <path fill="#fff" d="M230.9,66s0-4.23-3.51-6-9.7,3.51-9.7,3.51S225.43,72.6,230.9,66Z"></path>
  <path fill="#333" d="M226.23,70.52h0c-5.08,0-9.61-5.48-9.8-5.7A2,2,0,0,1,216,63.5a1.76,1.76,0,0,1,.58-1.18c.51-.44,5.13-4.3,9.13-4.3a5.33,5.33,0,0,1,2.38.52c4.37,2.19,4.43,7.25,4.43,7.46a2.35,2.35,0,0,1-.38,1.28A7.81,7.81,0,0,1,226.23,70.52Zm-6-6.82c1.51,1.36,3.88,3,6,3h0a4.09,4.09,0,0,0,3-1.33,5.08,5.08,0,0,0-2.55-3.94,2,2,0,0,0-.9-.18C224.05,61.3,221.75,62.62,220.18,63.7Z"></path>
  <path fill="#333" d="M230.28 63.88a2.63 2.63 0 1 0-2.63 2.63A2.64 2.64 0 0 0 230.28 63.88ZM166 259.49s-17.33 31.37-20.63 41.56-.83 39.22-2.48 47.84-14 55.69-14 55.69l51.17 7.84s27.24 4.7 90.78-20.39c0 0-27.23-69.8-27.23-74.51s2.48-40.78 2.48-40.78Z"></path>
  <path fill="#fff" d="M249.66,206.16c2.35-10.2-.79-21.57-9-38.43s-20-23.92-20-23.92,1.57-.39,1.57-5.88-5.88-5.49-4.31-10.59,6.66-10.19,1.56-13.33-27.05-3.53-30.58-5.1c0,0-3.59-3.13-5.95-.78s-2.35,8.24-5.29,10.59,0,8.82,0,8.82a85.53,85.53,0,0,0-7.22,6.48c-.61.15-9.7,2.66-18.79,11.75-9.41,9.41-18.83,31.37-19.61,43.92s4.71,21.17-2.35,32.94-14.9,19.6-12.55,27.45S126.53,267.33,121,276s-14.12,45.48-11.76,54.9,7,24.31,7,24.31l40.79,5.49s11.76-11.77,14.9-27.45-4.71-36.86-4.71-46.27c0-4.09,2.37-13.22,5.05-22.23l73.51,15.17C261.16,271.64,247.31,216.35,249.66,206.16Z"></path>
  <path fill="#313131" d="M157.12,362.31a.78.78,0,0,1-.22,0l-40.79-5.48a1.66,1.66,0,0,1-1.35-1.14c-.05-.15-4.75-15.06-7.09-24.41-2.42-9.72,6.19-47.09,12-56.19,3.66-5.75.94-12.1-1.69-18.25a59.82,59.82,0,0,1-2.42-6.27c-2-6.62,2.18-12.81,7.46-20.65,1.72-2.56,3.5-5.2,5.25-8.12,4.35-7.24,3.62-13.19,2.78-20.08a63.19,63.19,0,0,1-.66-12.11c.84-13.41,10.79-35.69,20.09-45,8.49-8.49,16.92-11.41,19.09-12.06,2.53-2.51,4.85-4.49,6.1-5.52-.83-2.31-2.08-7.16,1-9.59,1.19-1,1.85-3,2.48-5s1.31-4.11,2.67-5.48A4.56,4.56,0,0,1,185,105.6a8.25,8.25,0,0,1,4.69,1.87c1.43.5,5.94,1,10.32,1.38,7.93.79,16.92,1.69,20.28,3.75,5,3.06,2.6,7.82.87,11.29a25.76,25.76,0,0,0-1.72,3.94c-.54,1.74.06,2.36,1.37,3.71a8.6,8.6,0,0,1,3,6.39,14,14,0,0,1-.84,5.49c3.53,2.54,12.42,9.89,19.1,23.59,8.93,18.27,11.49,29.35,9.15,39.52-.68,3,.21,10.79,1.24,19.85,2.48,21.74,5.56,48.8-5.86,54.95a1.68,1.68,0,0,1-1.12.17l-72-14.87c-3.75,12.79-4.56,18.11-4.56,20.31,0,3.17,1,7.9,2.1,13.38,2.08,10.15,4.67,22.77,2.58,33.21-3.2,16-14.86,27.8-15.36,28.3A1.64,1.64,0,0,1,157.12,362.31Zm-39.52-8.64,38.9,5.24c2.32-2.52,11.28-13,13.9-26,1.95-9.79-.56-22.05-2.58-31.91-1.16-5.65-2.16-10.53-2.16-14s1.72-11.28,5.12-22.7a1.65,1.65,0,0,1,1.92-1.15l72.87,15c8.85-5.79,5.73-33.16,3.66-51.38-1.11-9.75-2-17.45-1.18-21,2.16-9.35-.34-19.81-8.89-37.33-7.93-16.24-19.25-23.17-19.37-23.23a1.66,1.66,0,0,1-.78-1.66,1.62,1.62,0,0,1,.84-1.21c.15-.22.71-1.25.71-4.43,0-1.94-.92-2.89-2.09-4.09-1.38-1.43-3.26-3.37-2.15-7a29.6,29.6,0,0,1,1.92-4.44c2.17-4.34,2.46-5.7.36-7-2.71-1.66-12-2.59-18.88-3.27-6.28-.62-9.92-1-11.51-1.72a2.26,2.26,0,0,1-.42-.26,5.3,5.3,0,0,0-2.75-1.25,1.24,1.24,0,0,0-.94.39c-.8.8-1.34,2.5-1.87,4.15-.74,2.33-1.58,5-3.56,6.56-1.44,1.15-.28,5.19.47,6.85a1.64,1.64,0,0,1-.49,2,85.07,85.07,0,0,0-7.06,6.33,1.62,1.62,0,0,1-.75.43c-.38.1-9.22,2.5-18.05,11.33S134.47,177,133.67,189.79a60.84,60.84,0,0,0,.64,11.51c.87,7.18,1.7,14-3.23,22.18-1.79,3-3.6,5.67-5.34,8.26-4.79,7.12-8.58,12.74-7,17.86a57.5,57.5,0,0,0,2.3,5.92c2.82,6.61,6,14.11,1.43,21.32-5.35,8.42-13.81,44.6-11.55,53.62C112.84,338.31,116.51,350.18,117.6,353.67Z"></path>
  <path fill="#333" d="M186.57,139.44a35.6,35.6,0,0,1-9.42-1.8c-6.48-1.84-13.17-3.74-20.85.19a1.65,1.65,0,1,1-1.5-2.94c8.83-4.52,16.83-2.25,23.25-.43,6.69,1.9,11.52,3.27,15.83-1.9,5.88-7.06,2.43-20.45-.35-31.21-1.61-6.24-3-11.63-2.67-15.48a1.65,1.65,0,1,1,3.29.28c-.28,3.29,1.11,8.67,2.58,14.37,3,11.49,6.66,25.79-.31,34.15A12.11,12.11,0,0,1,186.57,139.44Z"></path>
  <path fill="#333" d="M185.45 133.55c-3.9 0-8.19-1.22-12.16-2.34s-8.19-2.31-10-1.46a1.66 1.66 0 1 1-1.42-3c2.91-1.38 7.25-.15 12.29 1.27 5.81 1.65 12.4 3.51 16.26.94 5-3.33 1.59-25-1.73-37.95a1.65 1.65 0 1 1 3.2-.82c1.53 6 8.75 35.93.36 41.52A12 12 0 0 1 185.45 133.55ZM174.37 263.1a1.59 1.59 0 0 1-.48-.07 1.64 1.64 0 0 1-1.1-2.06c3.53-11.54 3.86-16.79 4.54-27.23.14-2.18.29-4.58.49-7.31a172.46 172.46 0 0 1 4.76-29.33 1.65 1.65 0 0 1 3.19.87 169.22 169.22 0 0 0-4.65 28.7c-.2 2.72-.36 5.11-.5 7.28-.69 10.7-1 16.07-4.67 28A1.66 1.66 0 0 1 174.37 263.1ZM220 145.48c-7.41 0-18-5.45-18.51-5.69a1.65 1.65 0 0 1 1.52-2.94c.11.06 11.06 5.67 17.58 5.31a1.65 1.65 0 1 1 .18 3.3ZM149.1 272.63c-4.18 0-6.73-2.89-8.48-4.87-.65-.74-1.77-2-2.12-1.93a1.65 1.65 0 0 1-.41-3.28c2.11-.26 3.58 1.41 5 3 1.83 2.08 3.72 4.22 7.08 3.66a1 1 0 0 0 .49-.16c1-1.85-7-11.93-15-18.93a1.65 1.65 0 1 1 2.17-2.48c.18.15 17.87 15.85 16 22.3a3.6 3.6 0 0 1-3.13 2.53A10.23 10.23 0 0 1 149.1 272.63ZM178.68 176.83a1.67 1.67 0 0 1-1-.3c-19.37-13.79-42.8-2.72-43-2.61a1.65 1.65 0 1 1-1.44-3c1-.5 25.43-12 46.38 2.88a1.65 1.65 0 0 1-1 3Z"></path>
  <path fill="#fff" d="M177.12,37.69c1.9,1.13,3.22,3.13,5.27,4,2.57,1,5.44-.12,8-1.1s5.69-1.76,8-.19a5.66,5.66,0,0,1,2.18,5,9.91,9.91,0,0,1-2.15,5.2c-1.62,2.15-4.27,4-6.86,3.26-2.32-.66-3.63-3.08-5.65-4.39-3.06-2-7.16-1.11-10.48.4-2.42,1.1-5.23,2.5-7.57,1.25-1.68-.9-2.46-2.92-2.57-4.82a9.35,9.35,0,0,1,3.43-7.9A7.72,7.72,0,0,1,177.12,37.69Z"></path>
  <path fill="#db7643" d="M178.76,486.19l-8.68-33.42-.24,0c-.88-12.75-6.19-58.84-37.3-67.89-31.55-9.19-53,36.42-57.94,48.28l-21,25.64a27.16,27.16,0,0,0,15.2,43.73l77.85,17.07A27.15,27.15,0,0,0,178.76,486.19Zm-62.08-13c-30.8-6.76-35.94-36.16-36.45-39.66,4.56-10.39,23.36-48.8,50-42.95,25.72,5.63,33.22,47.95,35,61.72C160.63,459,144.17,479.2,116.68,473.18Z"></path>
  <path fill="#313131" d="M152.6,521.85h0a29.2,29.2,0,0,1-6.29-.69L68.46,504.09a28.8,28.8,0,0,1-16.13-46.38l20.84-25.46C78.27,420.14,96.61,382,124.24,382a31.27,31.27,0,0,1,8.76,1.28c31,9,37.2,52.9,38.39,68.13h0l8.94,34.4a28.83,28.83,0,0,1-27.76,36.07ZM124.24,385.27c-25.76,0-43.35,37.1-48.12,48.48L76,434,54.89,459.8a25.5,25.5,0,0,0,14.27,41.07L147,517.94a26.49,26.49,0,0,0,5.58.61,25.52,25.52,0,0,0,24.56-31.94l-8.42-32.44-.47-.1-.08-1.24c-.92-13.38-6.24-57.72-36.11-66.42A28.11,28.11,0,0,0,124.24,385.27Zm2.38,90.66a48.13,48.13,0,0,1-10.29-1.14c-31.93-7-37.23-37.57-37.73-41l-.07-.47.19-.43c4.58-10.45,21.44-44.55,46-44.55a27.54,27.54,0,0,1,5.83.64c26.88,5.89,34.56,49.81,36.28,63.13l.08.62-.36.52C161.89,460.05,148.59,475.93,126.62,475.93ZM81.94,433.75c.8,4.85,6.45,31.53,35.1,37.81a44.72,44.72,0,0,0,9.58,1.07c19.87,0,32.19-14.12,36.89-20.76-1.8-13.48-9.25-54.35-33.62-59.69a23.64,23.64,0,0,0-5.13-.56C102.49,391.62,86.58,423.28,81.94,433.75Z"></path>
  <path fill="#333" d="m131.68 516.26-2.36-.51.57-.74a45.52 45.52 0 0 0-2.07-6.05L117 482.31c-1.39-3.42-2.83-6.88-4.37-10.29.62.19 1.26.36 1.9.53 1.35 3.06 2.64 6.14 3.89 9.2l10.86 26.63c.68 1.68 1.33 3.4 1.83 5.11l29.43-38.2.5-.6c-2.68-3.17-5.56-6.21-8.53-9.2.42-.3.82-.6 1.22-.92 2.87 2.91 5.68 5.85 8.28 8.92a22.38 22.38 0 0 1 5-4.85 28.91 28.91 0 0 1 5.91-2.71l.63-.25.39 1.49-.49.2a27.2 27.2 0 0 0-5.59 2.54 21.75 21.75 0 0 0-4.79 4.74A139.6 139.6 0 0 1 179 498.7c-.16.77-.34 1.53-.57 2.28A137.28 137.28 0 0 0 162 475.85l-.31.38-30.16 39.15C131.6 515.67 131.63 516 131.68 516.26ZM66.44 463.49c1.24 2.44 2.4 4.73 3.52 6.63l3 5A69.57 69.57 0 0 1 86.8 464a71.43 71.43 0 0 1 6.77-3.41c.36.38.78.74 1.18 1.12a66.54 66.54 0 0 0-7.16 3.6 68.26 68.26 0 0 0-13.84 11.21c.07.12.14.24.22.36 5.86 9.78 11.84 19.89 16.6 30.42l-1.87-.41c-4.65-10.08-10.39-19.8-16-29.22l0 0A156.26 156.26 0 0 0 57.57 497c-.4-.32-.82-.61-1.19-1a155.4 155.4 0 0 1 15.44-19.86c-1.06-1.78-2.12-3.55-3.17-5.33s-2.32-4.26-3.57-6.71a108.17 108.17 0 0 0-6.46-11.51l1-1.25A107.85 107.85 0 0 1 66.44 463.49Z"></path>
  <rect width="26.11" height="6.67" x="102.3" y="479.01" fill="#333" rx=".37" transform="rotate(-167.63 115.37 482.347)"></rect>
  <path fill="#f0c7c0" d="M119.47,355.36c-1.89,12.15-10.34,25.11-13.51,37.13a6.22,6.22,0,0,0,7.61,7.59,6.19,6.19,0,0,0,9.09,5.62,6.22,6.22,0,0,0,4.59,6.73,6.15,6.15,0,0,0,4.53-.55A6.21,6.21,0,0,0,144,413l3.49-13.22c1.67-.82,1.53.86,1.53.86s5.34,3.15,7.62,1.13,4.19-7.42,4.9-15.84-4.09-20.11-4.78-25.07a4.91,4.91,0,0,1,0-.85C142.36,357.42,133.85,355.32,119.47,355.36Z"></path>
  <path fill="#313131" d="M138,419.24a7.6,7.6,0,0,1-2-.26,7.87,7.87,0,0,1-5.38-4.9,7.83,7.83,0,0,1-9.46-6.12,7.86,7.86,0,0,1-9-6,7.34,7.34,0,0,1-2.14-.26,7.88,7.88,0,0,1-5.6-9.61c1.43-5.41,3.92-11,6.33-16.49,3-6.82,6.12-14,7.15-20.57a1.73,1.73,0,0,1,1.63-1.49h.45c11.94,0,19.73,1.54,30.52,3.53,2.07.38,4.25.83,6.59,1.25a1.68,1.68,0,0,1,1.36,1.79,3.64,3.64,0,0,0,0,.49A57.13,57.13,0,0,0,160,367c1.64,5.82,3.69,13.05,3.18,19-.7,8.44-2.64,14.45-5.44,16.93a4.63,4.63,0,0,1-3.19,1.1h0a14.17,14.17,0,0,1-6-1.83l-2.94,11.15A7.86,7.86,0,0,1,138,419.24Zm-6.19-9a1.65,1.65,0,0,1,1.64,1.52,4.58,4.58,0,0,0,3.38,4,4.64,4.64,0,0,0,1.17.15,4.57,4.57,0,0,0,4.41-3.4l3.48-13.22a1.68,1.68,0,0,1,.87-1.06,2.6,2.6,0,0,1,3.23.34,2.44,2.44,0,0,1,.54.94,10.54,10.54,0,0,0,4,1.22h0a1.48,1.48,0,0,0,1-.27c.79-.7,3.43-3.82,4.34-14.74.45-5.37-1.5-12.29-3.07-17.84a65.92,65.92,0,0,1-1.64-6.54l-5.32-1c-10.32-1.9-17.86-3.3-29-3.37-1.27,6.58-4.26,13.34-7.15,19.89a112.37,112.37,0,0,0-6.15,16,4.55,4.55,0,0,0,5.58,5.57,1.66,1.66,0,0,1,2.08,1.63,4.54,4.54,0,0,0,6.67,4.13,1.65,1.65,0,0,1,2.41,1.66,4.55,4.55,0,0,0,6.69,4.53A1.72,1.72,0,0,1,131.78,410.23Z"></path>
  <line x1="113.86" x2="115.89" y1="399.42" y2="391.72" fill="#fff"></line>
  <path fill="#333" d="M113.86,401.08a1.52,1.52,0,0,1-.42-.06,1.66,1.66,0,0,1-1.18-2l2-7.7a1.65,1.65,0,1,1,3.19.84l-2,7.7A1.67,1.67,0,0,1,113.86,401.08Z"></path>
  <line x1="122.66" x2="124.98" y1="405.7" y2="396.82" fill="#fff"></line>
  <path fill="#333" d="M122.67,407.36a1.52,1.52,0,0,1-.42-.06,1.64,1.64,0,0,1-1.18-2l2.31-8.88a1.65,1.65,0,1,1,3.2.83l-2.32,8.88A1.65,1.65,0,0,1,122.67,407.36Z"></path>
  <line x1="132.43" x2="135.51" y1="412.5" y2="403.87" fill="#fff"></line>
  <path fill="#333" d="M132.43,414.16a1.54,1.54,0,0,1-.56-.1,1.65,1.65,0,0,1-1-2.11l3.09-8.64a1.65,1.65,0,1,1,3.11,1.11L134,413.06A1.65,1.65,0,0,1,132.43,414.16Z"></path>
  <line x1="119.07" x2="123.84" y1="381.7" y2="375.86" fill="#fff"></line>
  <path fill="#333" d="M119.07,383.35a1.57,1.57,0,0,1-1-.38,1.65,1.65,0,0,1-.24-2.32l4.77-5.83a1.65,1.65,0,1,1,2.56,2.09l-4.77,5.83A1.65,1.65,0,0,1,119.07,383.35Z"></path>
  <line x1="123.18" x2="119.34" y1="382.62" y2="375.64" fill="#fff"></line>
  <path fill="#333" d="M123.18,384.28a1.66,1.66,0,0,1-1.45-.86l-3.84-7a1.65,1.65,0,1,1,2.89-1.59l3.85,7a1.66,1.66,0,0,1-1.45,2.45Z"></path>
  <line x1="130.21" x2="134.98" y1="385.79" y2="379.95" fill="#fff"></line>
  <path fill="#333" d="M130.21,387.44a1.62,1.62,0,0,1-1-.37,1.65,1.65,0,0,1-.24-2.33l4.77-5.83a1.65,1.65,0,1,1,2.56,2.09l-4.77,5.83A1.65,1.65,0,0,1,130.21,387.44Z"></path>
  <line x1="134.32" x2="130.48" y1="386.71" y2="379.73" fill="#fff"></line>
  <path fill="#333" d="M134.32,388.37a1.65,1.65,0,0,1-1.45-.86l-3.84-7a1.65,1.65,0,1,1,2.89-1.59l3.85,7a1.66,1.66,0,0,1-1.45,2.45Z"></path>
  <line x1="141.35" x2="146.12" y1="389.88" y2="384.04" fill="#fff"></line>
  <path fill="#333" d="M141.35,391.53a1.65,1.65,0,0,1-1.28-2.7l4.77-5.83a1.65,1.65,0,0,1,2.56,2.09l-4.77,5.83A1.65,1.65,0,0,1,141.35,391.53Z"></path>
  <line x1="145.46" x2="141.62" y1="390.81" y2="383.82" fill="#fff"></line>
  <path fill="#333" d="M145.46,392.46a1.65,1.65,0,0,1-1.45-.86l-3.84-7a1.65,1.65,0,1,1,2.89-1.6l3.85,7a1.65,1.65,0,0,1-.65,2.24A1.68,1.68,0,0,1,145.46,392.46Z"></path>
  <path fill="#ce5044" d="M310.83,564.57s-27.45-2.36-63.52,22c0,0,25.09,51,34.5,77.64s17.26,71.36,20.39,79.21a50.86,50.86,0,0,0,7.06,12.55l42.35-14.12s-6.27-12.55-1.57-12.55,9.42,3.92,14.91,4.71,43.13-13.34,47.84-15.69,2.35-22.74-7.85-30.59-36.07,6.28-52.54-6.27S310.83,564.57,310.83,564.57Z"></path>
  <path fill="#313131" d="M309.26,757.58A1.64,1.64,0,0,1,308,757a52.41,52.41,0,0,1-7.32-13c-1.27-3.16-3.21-11.83-5.67-22.81-3.8-17-9-40.23-14.74-56.46-9.27-26.27-34.19-77-34.44-77.47a1.67,1.67,0,0,1,.56-2.1c30.71-20.69,55.5-22.3,62.37-22.3,1.41,0,2.19.07,2.22.07a1.66,1.66,0,0,1,1.47,1.26c.25,1,25.14,103.87,41,115.93,4.59,3.49,10.37,5.12,18.18,5.12a118.41,118.41,0,0,0,12.68-.91,104.16,104.16,0,0,1,10.73-.8c4.93,0,8.42.91,11,2.87,8.46,6.5,11.39,20,10.71,27-.31,3.3-1.4,5.5-3.14,6.37C409,722,372.9,735.65,365.46,735.65a5.54,5.54,0,0,1-.75,0,29.05,29.05,0,0,1-7.74-2.27,17.64,17.64,0,0,0-6.93-1.81h0c-.49,0,.94,5.58,3.08,9.85a1.35,1.35,0,0,1,.05,1.22,1.54,1.54,0,0,1-1,.86l-42.35,14.08A1.59,1.59,0,0,1,309.26,757.58ZM249.43,587.1c4,8.14,25.44,52.44,33.94,76.52,5.79,16.41,11,39.78,14.86,56.84,2.42,10.83,4.34,19.38,5.51,22.3A52.49,52.49,0,0,0,309.86,754l39.46-13.16c-1.6-3.51-3.69-9.13-2.08-11.74a3.17,3.17,0,0,1,2.8-1.48c2.84,0,5.6,1.21,8.26,2.39a27.13,27.13,0,0,0,6.88,2.33l.28,0c6.49,0,41.91-13.21,46.59-15.55.37-.19,1.08-1.18,1.32-3.72.64-6.57-2.29-18.58-9.43-24.08-1.94-1.48-4.78-2.18-8.95-2.18a99.3,99.3,0,0,0-10.38.79,123.1,123.1,0,0,1-13,.93c-8.58,0-15-1.85-20.18-5.81-16-12.16-38.88-104.28-41.88-116.57h-.77C302.21,566.16,278.8,567.68,249.43,587.1Z"></path>
  <path fill="#333" d="M303.64,742.64a16.36,16.36,0,0,1-3.76-.4,1.65,1.65,0,1,1,.73-3.22c7.6,1.74,19.81-4.1,31.62-9.75,8.51-4.08,17.32-8.3,25.26-10.24,18.86-4.62,54.66-20.53,55-20.69a1.65,1.65,0,1,1,1.34,3c-1.48.66-36.43,16.19-55.57,20.88-7.61,1.86-16.26,6-24.62,10C322.53,737.57,311.94,742.64,303.64,742.64Z"></path>
  <path fill="#333" d="M330.05 733.27a1.65 1.65 0 0 1-1.55-1.08l-59.21-158a1.65 1.65 0 0 1 3.09-1.16l59.21 158a1.65 1.65 0 0 1-1 2.13A1.75 1.75 0 0 1 330.05 733.27ZM337.89 729.34a1.66 1.66 0 0 1-1.56-1.09L280.26 570.61a1.65 1.65 0 1 1 3.11-1.11l56.07 157.64a1.65 1.65 0 0 1-1 2.11A1.76 1.76 0 0 1 337.89 729.34Z"></path>
  <path fill="#ce5044" d="M153,581.92s-15.13-23-56.54-36.35c0,0-24.54,51.25-39.68,75.13s-45.42,57.69-49.64,65A50.83,50.83,0,0,0,1.65,699l37.28,24.55s6-12.69,8.9-9,2.73,9.82,5.51,14.62,37.15,25.65,41.91,27.89,19.33-12.21,19.19-25.07S87.2,707.55,86.88,686.84,153,581.92,153,581.92Z"></path>
  <path fill="#313131" d="M96.38,759h0a4.23,4.23,0,0,1-1.83-.39c-3.94-1.86-39.43-23-42.64-28.57a29.57,29.57,0,0,1-2.76-7.67c-.67-2.61-1.3-5.07-2.62-6.75l0,0c-1.18.31-4,4.37-6.07,8.7A1.65,1.65,0,0,1,38,725L.74,700.4a1.66,1.66,0,0,1-.7-1.73,51.67,51.67,0,0,1,5.68-13.79c1.7-3,7.32-9.84,14.42-18.56,11-13.49,26-32,35.25-46.5,14.92-23.53,39.34-74.45,39.59-75a1.65,1.65,0,0,1,2-.86c41.5,13.34,56.79,36,57.42,37a1.65,1.65,0,0,1-.08,1.93c-.67.84-66.09,84-65.78,103.88.17,10.9,8.46,19.38,15.77,26.85,6.29,6.44,11.72,12,11.79,18.33.09,8.16-5.11,16.36-10,21.31C102.52,756.91,99,759,96.38,759Zm-49.8-46.73a3.16,3.16,0,0,1,2.54,1.31c1.76,2.23,2.51,5.14,3.23,8a27,27,0,0,0,2.42,6.84C57.2,732.56,90.86,753.2,96,755.6a1,1,0,0,0,.42.07c1.36,0,4.16-1.44,7.36-4.68,4.22-4.27,9.13-11.8,9.05-19-.06-5-5.06-10.13-10.85-16.06-7.75-7.91-16.52-16.89-16.71-29.11-.32-20.06,57.89-95,65.71-105-3.33-4.37-19-22.81-53.61-34.29-3.94,8.16-25.48,52.43-39.14,74-9.32,14.7-24.44,33.26-35.49,46.82-7,8.6-12.55,15.4-14.12,18.13a52.42,52.42,0,0,0-5,11.74l34.74,22.88C40.12,717.59,43.41,712.25,46.58,712.25Z"></path>
  <path fill="#333" d="M110,747.66a1.62,1.62,0,0,1-.77-.19c-1.43-.76-35.25-18.62-50.77-30.76-6.18-4.83-14.78-9.07-23.09-13.17-12.82-6.31-24.92-12.27-28.75-20.36a1.66,1.66,0,0,1,3-1.42c3.33,7.06,15.47,13,27.22,18.82,8.46,4.17,17.22,8.48,23.66,13.52,15.29,12,49.93,30.26,50.28,30.44a1.66,1.66,0,0,1-.77,3.12Z"></path>
  <path fill="#f0c7c0" d="M311.27,348.3a5.11,5.11,0,0,0,3.75-3.75,4.63,4.63,0,0,0,.49.8,5.68,5.68,0,0,0,9.95-1.74,5.64,5.64,0,0,0,9.93-3.51,5.51,5.51,0,0,0,.54.87,5.71,5.71,0,0,0,10.08-4.8L341.86,319a5.68,5.68,0,0,0-11.21,1.13,5.68,5.68,0,0,0-10.48.84,5.67,5.67,0,0,0-9.95,3.64,5.1,5.1,0,0,0-8.83,4.52l3.71,15.39a5.23,5.23,0,0,0,.91,1.9A5.11,5.11,0,0,0,311.27,348.3Z"></path>
  <path fill="#313131" d="M310.07,350.09a6.78,6.78,0,0,1-5.37-2.66,6.56,6.56,0,0,1-1.2-2.51l-3.72-15.39a6.75,6.75,0,0,1,9.39-7.73,7.31,7.31,0,0,1,10.46-3.39,7.28,7.28,0,0,1,4.22-2.84,7.43,7.43,0,0,1,6.06,1.21,7.34,7.34,0,0,1,13.56,1.84l4.14,17.17a7.36,7.36,0,0,1-5.42,8.87,7.44,7.44,0,0,1-6.06-1.21A7.26,7.26,0,0,1,326,346.19a7.24,7.24,0,0,1-4.23,2.85,7.44,7.44,0,0,1-6.43-1.49,6.68,6.68,0,0,1-3.68,2.36A7.11,7.11,0,0,1,310.07,350.09Zm-3.72-25.61a3.08,3.08,0,0,0-.8.1,3.45,3.45,0,0,0-2.55,4.17l3.71,15.39a3.41,3.41,0,0,0,.61,1.29,3.5,3.5,0,0,0,3.57,1.26,3.43,3.43,0,0,0,2.52-2.54,1.67,1.67,0,0,1,1.41-1.24,1.64,1.64,0,0,1,1.66.87,3.9,3.9,0,0,0,.34.57,4.12,4.12,0,0,0,4.17,1.48,4,4,0,0,0,2.9-2.72,1.65,1.65,0,0,1,2.81-.59,4,4,0,0,0,7-2.48,1.65,1.65,0,0,1,1.3-1.55,1.63,1.63,0,0,1,1.82.86,5,5,0,0,0,.38.62,4.12,4.12,0,0,0,4.17,1.48,4.06,4.06,0,0,0,3-4.89l-4.14-17.17a4,4,0,0,0-3.93-3.1,3.89,3.89,0,0,0-1,.12,4,4,0,0,0-3.07,3.79,1.66,1.66,0,0,1-3.13.69,4.09,4.09,0,0,0-4.54-2.11,4,4,0,0,0-2.89,2.71,1.66,1.66,0,0,1-1.24,1.11,1.64,1.64,0,0,1-1.57-.53,4,4,0,0,0-7.06,2.58,1.65,1.65,0,0,1-2.9,1.05A3.45,3.45,0,0,0,306.35,324.48Z"></path>
  <path fill="#333" d="M333.32 334.92a1.65 1.65 0 0 1-1.62-1.35l-2.21-11.88a1.65 1.65 0 1 1 3.24-.61L335 333a1.66 1.66 0 0 1-1.63 1.95ZM325.38 344.2a1.66 1.66 0 0 1-1.62-1.3l-4.64-21.31a1.65 1.65 0 0 1 3.23-.7l4.64 21.3a1.65 1.65 0 0 1-1.26 2A2.21 2.21 0 0 1 325.38 344.2ZM312.71 336.55a1.65 1.65 0 0 1-1.6-1.26L308.62 325a1.65 1.65 0 0 1 3.21-.78l2.49 10.28a1.64 1.64 0 0 1-1.22 2A1.74 1.74 0 0 1 312.71 336.55Z"></path>
  <path fill="#313131" d="M512.84,496a1.66,1.66,0,0,1-1.54-1c-8.14-20.59-25.33-33.63-52.53-39.87-23.72-5.43-50.75-4.83-74.6-4.31-26.77.6-47.91,1.06-55.36-7.25a11.74,11.74,0,0,1-2.67-9.79c3.18-23.8,24.32-37.66,41.3-48.8,11.61-7.61,21.64-14.18,21-21.12-1.72-18-19.77-32.41-43.91-35a1.65,1.65,0,0,1,.35-3.29c25.72,2.76,45,18.37,46.85,38,.85,8.92-9.44,15.66-22.46,24.19-16.42,10.77-36.86,24.17-39.83,46.47a8.43,8.43,0,0,0,1.85,7.15c6.43,7.19,27.93,6.71,52.83,6.16,46.85-1,111-2.46,130.28,46.27a1.66,1.66,0,0,1-1.54,2.26Z"></path>
  <path fill="#a5a653" d="M280.15,763.43s7.52-23.64-10.75-27.94-23.64,1.08-23.64,1.08-1.07-19.35-18.27-22.57-37.61,15-37.61,15,0-36.53-34.39-33.31-25.79,43-25.79,43-11.82-6.45-32.23,2.14-10.75,22.57,1.07,22.57C98.54,763.43,282.84,760.74,280.15,763.43Z"></path>
  <path fill="#313131" d="M98.54,764.52c-6.94,0-13.27-4.14-14.41-9.78-.58-2.86-.5-10,12.69-15.54a53.78,53.78,0,0,1,20.81-4.53,33.74,33.74,0,0,1,10,1.42c-.82-6.11-1.69-20.39,5.9-30.76,4.82-6.56,12.16-10.35,21.84-11.25,1.48-.14,2.93-.21,4.33-.21,25.64,0,30.65,23.08,31.63,31.85,5.46-4.32,18.9-13.76,32-13.76a24,24,0,0,1,4.54.42c14.3,2.68,18.22,15.81,19.26,21.48a23.88,23.88,0,0,1,9.67-1.69,58.17,58.17,0,0,1,13,1.71,16.3,16.3,0,0,1,10.91,7.72c4.81,8.36,1.7,20.07,1.11,22.06a1.74,1.74,0,0,1-.48.94,1.65,1.65,0,0,1-2,.24l-.18-.12c-1.92-.34-10.63-1.11-44.85-1.11-53.18,0-134.88.91-135.7.91Zm180-1.58,1.46.46h0l-1.45-.52A.14.14,0,0,0,278.59,762.94Zm-161-24.89a50.62,50.62,0,0,0-19.52,4.34c-7.71,3.24-11.63,7.61-10.74,12,.82,4.08,5.83,7.4,11.16,7.41,1.42,0,82.72-1.19,135.73-1.19,14.05,0,25,.08,32.65.24,6.55.14,10.1.29,12.08.54.81-3.45,2.32-12.07-1.17-18.12a13.07,13.07,0,0,0-8.8-6.15,54.34,54.34,0,0,0-12.29-1.62c-7.26,0-9.8,2.25-9.83,2.28a1.67,1.67,0,0,1-2.79-1.1c0-.74-1.23-18.1-16.92-21a21.76,21.76,0,0,0-3.93-.35c-15.31,0-32.11,14.86-32.28,15a1.66,1.66,0,0,1-2.75-1.23c0-1.31-.38-31.87-28.56-31.87-1.29,0-2.65.07-4,.2-8.7.81-15.25,4.15-19.48,9.92-8.83,12.06-4.89,30.88-4.85,31.07a1.66,1.66,0,0,1-.63,1.67,1.64,1.64,0,0,1-1.78.13S124.86,738.05,117.63,738.05Z"></path>
  <path fill="#333" d="M142.43 743.82a1.62 1.62 0 0 1-.9-.26 1.66 1.66 0 0 1-.49-2.29 14.27 14.27 0 0 1 8.4-5.72 8.13 8.13 0 0 1 3.1-.06c.55-5.87 3.78-12 10.31-13.38a13.39 13.39 0 0 1 10.59 2.55 10.2 10.2 0 0 1 4.22 7.52 1.65 1.65 0 0 1-3.3.18 6.91 6.91 0 0 0-2.92-5.07 10.14 10.14 0 0 0-7.9-1.95c-5.34 1.14-7.95 7.14-7.77 12.48a1.65 1.65 0 0 1-2.57 1.42 4 4 0 0 0-3.11-.45 11 11 0 0 0-6.28 4.28A1.62 1.62 0 0 1 142.43 743.82ZM520 488.18s16.93 36.34 65.67 53.69l-2.07 13.21s-62-19.82-76.82-59.47Z"></path>
</svg>
