<svg xmlns="http://www.w3.org/2000/svg" viewBox="0 0 694.62 732.91" id="cat-and-dog-playing-together">
  <path fill="#fdf2e0" d="M136.52,178.69c35.09,8.52,51.43,43.76,79.29,63.14,40.68,28.31,84.62,4.16,115.29-27.39,21.37-22,39.19-47.63,63.31-66.57,57.46-45.1,108.64-9.64,162.71,20,35.79,19.61,73.24,40.16,98,73.63,43.56,58.79,39.26,140.86,38.34,210.24-.31,23-1.59,46.07-6.23,68.59C675.59,577,643.51,627,612.05,675.58c-7.07,10.91-14.46,22.15-25.37,29.21-15,9.74-34.12,9.93-52,9.8L141.5,711.82c-18.16-.13-36.76-.34-53.75-6.74-35-13.21-26.28-36.11-39.43-63.87-3.57-7.53-10.06-13.21-14.9-20a53,53,0,0,1-5-51.71c3.94-8.66,10.46-17.26,8.69-26.62-1.55-8.16-8.88-13.68-14.61-19.71C-3.43,495.85-1,451,1.43,416.09,4.72,369.32,17,323.45,30.83,278.86c8-25.65,17-51.78,34.43-72.24S110.41,172.35,136.52,178.69Z"></path>
  <path fill="#a5a653" d="M319.41,136.1c31.21-32,110,66.31,114.69,88.94,0,0,14.66,29.91,9,41.24,4,6.2,7.66,12,10.08,15.9,5.15,8.37,12.52,24.25,17.54,35.52.69-24.95,1.3-63.1.16-85.64a10.66,10.66,0,0,1-5.3-.63C443.93,223.38,361,12.69,418.74,2.14s82.64,151.43,72.8,178.74c0,0-2.77,36.75-14.66,48,2.05,32.73-.27,99.43-.39,102.86l-.5,14.06-5.49-12.95c-.15-.34-14.57-34.27-22.67-47.43-2.33-3.78-5.83-9.28-9.65-15.22l-.18.06C421.62,274.19,288.21,168.08,319.41,136.1Z"></path>
  <path fill="#313131" d="M476,347.48a1.65,1.65,0,0,1-1.52-1L469,333.53c-.15-.34-14.49-34.11-22.56-47.22-2-3.21-5-8-9-14.27H437c-9.61,0-37.41-19.4-59.89-38.55-14.49-12.34-49.39-43.92-60.63-70.59-5.11-12.13-4.52-21.54,1.75-28a22.23,22.23,0,0,1,16.47-6.84c37.68,0,96.6,76.72,101,96.4,1.33,2.73,14,29.57,9.27,41.64,4.27,6.65,7.5,11.76,9.61,15.18,4.24,6.88,9.9,18.66,14.67,29.11.43-18,1.08-54,0-76.61A12.89,12.89,0,0,1,465,233c-10.08-3.75-29.07-43.06-42.61-80-8.64-23.51-28.35-82.34-25-120.77C399,13.44,406.13,2.77,418.44.52A31.07,31.07,0,0,1,424.08,0c12.28,0,23.73,7.44,34,22.12,13.33,19,24.89,51.08,31.73,88.08,5.74,31,7.09,60.14,3.32,71-.27,3.34-3.2,36.56-14.6,48.33,2,33.13-.33,99.45-.43,102.28l-.5,14.06a1.64,1.64,0,0,1-1.35,1.56A1.53,1.53,0,0,1,476,347.48Zm-37.81-78.9a1.66,1.66,0,0,1,1.39.76c4.33,6.72,7.58,11.85,9.66,15.24,8.12,13.19,22.65,47.33,22.79,47.66l2.58,6.09.24-6.62c.1-2.84,2.44-70,.39-102.7a1.65,1.65,0,0,1,.51-1.3c11.29-10.71,14.13-46.6,14.16-47a1.72,1.72,0,0,1,.09-.44c3.62-10.05,2.2-39.28-3.39-69.51C479.85,74.25,468.48,42.62,455.42,24,444.32,8.23,432.07,1.39,419,3.77c-10.68,1.95-16.85,11.63-18.36,28.76-2.31,26.2,6.95,70.81,24.77,119.34,16.73,45.58,33.81,75.46,40.66,78a9.1,9.1,0,0,0,4.49.55,1.63,1.63,0,0,1,1.29.36,1.61,1.61,0,0,1,.6,1.19c1.32,26.19.22,72.27-.16,85.77a1.64,1.64,0,0,1-1.33,1.57,1.66,1.66,0,0,1-1.83-.94c-5.15-11.57-12.36-27.1-17.44-35.33-2.17-3.53-5.55-8.87-10.06-15.87a1.68,1.68,0,0,1-.08-1.64c4.37-8.7-5-31.66-9-39.77a1.9,1.9,0,0,1-.14-.4c-3.79-18.35-62.24-94-97.78-94a19,19,0,0,0-14.1,5.84c-5.26,5.39-5.62,13.59-1.08,24.38,18.14,43,103.1,107.11,117.48,107.11a2.41,2.41,0,0,0,.56-.05l.2-.06A1.51,1.51,0,0,1,438.18,268.58Z"></path>
  <path fill="#a5a653" d="M469.33,324c5.11-17.68,29.62-61.27,42.24-83.11-7.37-7.23-4.85-17.59,26.82-51.26,32.76-34.85,67.61-78.54,78.53-37.45,10.28,38.67-72.17,100.57-100,91.93-11.39,19.73-32.51,57.25-39.86,76.5,3.36-3.77,7.71-9,11.74-13.84,17.55-21.13,41.59-50.06,56.86-52.6a72.71,72.71,0,0,1,22.73-.56c8.62-3.34,27.52,8.51,27.52,8.51,19.44,14,78.24,79.34,50.69,115.15-26.91,35-82.74-98.82-82.21-117.84a71,71,0,0,0-17.71.9c-13,2.16-37.11,31.2-53.08,50.43-13.31,16-17.82,21.27-21.2,21.27a3.77,3.77,0,0,1-1.76-.47C467.61,330,468.77,326,469.33,324Z"></path>
  <path fill="#313131" d="M636.35,384.77c-5.53,0-11.77-3.53-18.54-10.49-25.64-26.36-53.5-96.16-55-113.27A71.38,71.38,0,0,0,547,262c-12.38,2.06-37.23,32-52.08,49.85-14.41,17.34-18.35,21.87-22.47,21.87a5.46,5.46,0,0,1-2.53-.66c-4.24-2.25-2.72-7.51-2.15-9.48,5-17.31,28.05-58.59,41.79-82.41-7.95-9.08-.91-22.26,27.65-52.63,3.3-3.5,6.66-7.16,9.92-10.69,20.85-22.59,40.54-43.92,55-43.92,7.72,0,13.23,6,16.38,17.87s-1.66,26.46-13.88,42.35c-21.1,27.46-60.07,52.47-81.74,52.47a23.29,23.29,0,0,1-5.17-.55c-10,17.36-25.94,45.75-35,65.4,1.61-1.91,3.23-3.87,4.77-5.72,17.71-21.32,42-50.53,57.85-53.17a75.91,75.91,0,0,1,22.84-.63,12.27,12.27,0,0,1,3.78-.55c9.76,0,24.18,9,24.79,9.36l.09.06c14.41,10.35,52.83,51.26,58,86.46,1.8,12.24-.55,22.68-7,31C644.64,382.6,640.74,384.77,636.35,384.77Zm-77-127.16c1.78,0,3.54.07,5.22.22a1.65,1.65,0,0,1,1.51,1.69c-.37,13.45,28,85.65,54.12,112.46,6.12,6.29,11.56,9.49,16.17,9.49,3.36,0,6.29-1.69,9-5.17,5.87-7.62,8-17.22,6.33-28.54-5-34.19-42.5-74.06-56.62-84.23-.86-.52-14.43-8.82-23-8.82a8.41,8.41,0,0,0-3,.48,1.72,1.72,0,0,1-.84.09,72.08,72.08,0,0,0-22.22.56c-14.67,2.44-38.48,31.1-55.86,52-3.93,4.73-8.38,10.08-11.78,13.89a1.65,1.65,0,0,1-2.09.32,1.67,1.67,0,0,1-.69-2c7.35-19.23,28.2-56.33,40-76.74a1.64,1.64,0,0,1,1.92-.75,18.56,18.56,0,0,0,5.47.74c20.82,0,58.54-24.39,79.13-51.17,8.06-10.5,16.92-25.87,13.3-39.5-2.76-10.37-7.07-15.41-13.19-15.41-13.06,0-33.16,21.79-52.61,42.86-3.26,3.54-6.64,7.2-9.94,10.71-31,32.93-33.33,42.61-26.86,48.95a1.65,1.65,0,0,1,.27,2c-13.58,23.5-37.1,65.5-42.08,82.74-.7,2.41-1.12,4.77.52,5.64a2.1,2.1,0,0,0,1,.28c2.74,0,8.85-7.35,19.93-20.68,16.12-19.41,40.48-48.74,54.08-51A79,79,0,0,1,559.33,257.61Z"></path>
  <path fill="#eeb857" d="M562.36,295.43H388.52L396.78,422c1.76,27,18.2,47.64,37.9,47.64h81.51c19.7,0,36.14-20.67,37.9-47.64Z"></path>
  <path fill="#313131" d="M516.19,471.32H434.68c-20.71,0-37.72-21.14-39.55-49.19l-8.26-126.59a1.65,1.65,0,0,1,.44-1.24,1.68,1.68,0,0,1,1.21-.52H562.36a1.64,1.64,0,0,1,1.64,1.76l-8.26,126.59C553.91,450.18,536.91,471.32,516.19,471.32ZM390.28,297.08l8.15,124.84c.83,12.71,5.05,24.44,11.87,33S425.67,468,434.68,468h81.51c9,0,17.68-4.65,24.39-13.08s11-20.31,11.86-33l8.15-124.84Z"></path>
  <path fill="#f0ddd8" d="M532.71 334.17a4.86 4.86 0 0 1-4-2.13c-2.06-3-4.2-6.14-6.83-8.3-3.07-2.52-7.23-4.08-11.25-5.57A4.87 4.87 0 0 1 514 309c4.55 1.69 9.7 3.61 14 7.17 3.7 3 6.35 6.92 8.69 10.33a4.87 4.87 0 0 1-4 7.63ZM485.68 380.64a4.88 4.88 0 0 1-4.05-7.58 37.29 37.29 0 0 1 14.52-12.77 4.88 4.88 0 0 1 9.21 1.15c.21 1.13.52 5-4.51 7.41a28 28 0 0 0-11.11 9.61A4.87 4.87 0 0 1 485.68 380.64ZM515.18 441a4.88 4.88 0 0 1-.33-9.74c1.86-.12 4.08-3.29 5.15-4.82l4.41-6.28a4.87 4.87 0 0 1 8 5.6L528 432.05c-2.08 3-6 8.51-12.47 8.95ZM471.49 429.09a4.8 4.8 0 0 1-2.95-1 30.32 30.32 0 0 0-9.56-4.9l-.89-.26c-2.41-.7-5.4-1.57-7.77-4a4.87 4.87 0 0 1 7-6.78 9.74 9.74 0 0 0 3.5 1.44l1 .29a40.15 40.15 0 0 1 12.63 6.48 4.87 4.87 0 0 1-3 8.75ZM473.75 337.43a4.4 4.4 0 0 1-.73-.05 4.88 4.88 0 0 1-3.18-1.94 17.86 17.86 0 0 0-6.6-1.22 22.47 22.47 0 0 0-3.5.65 22.37 22.37 0 0 1-7.45.88 4.87 4.87 0 0 1 .82-9.71 16 16 0 0 0 4.37-.65 30 30 0 0 1 5.06-.89c4.66-.33 9 1.19 12.5 2.43a5.81 5.81 0 0 1 3.72 6.7A5.27 5.27 0 0 1 473.75 337.43ZM409.13 331a4.87 4.87 0 0 1-4.87-4.8c-.1-5.91 5.69-8.28 8.16-9.3a26.63 26.63 0 0 0 7.8-4.93 4.87 4.87 0 0 1 6.56 7.21 36.47 36.47 0 0 1-10.66 6.74 16.14 16.14 0 0 0-2.18 1 4.89 4.89 0 0 1-4.73 4ZM441 389.42a4.87 4.87 0 0 1-3.61-1.6 15.59 15.59 0 0 0-4.27-2.75l-1.62-.85c-4.5-2.44-7.17-5.37-8.17-9a4.87 4.87 0 1 1 9.38-2.62c.14.51.78 1.58 3.44 3l1.42.75a23.22 23.22 0 0 1 7 4.87 4.87 4.87 0 0 1-3.61 8.15ZM432.7 445.6a4.87 4.87 0 0 1-3.33-1.32l-8.59-8.07a4.87 4.87 0 1 1 6.67-7.1l8.59 8.06a4.87 4.87 0 0 1-3.34 8.43Z"></path>
  <path fill="#ce5044" d="M498.28,447.44h68.81c0,15-10.86,24-24.25,24H409.27c-13.4,0-24.26-9-24.26-24Z"></path>
  <path fill="#313131" d="M542.84,472.44H409.27C394,472.44,383.36,462,383.36,447a1.55,1.55,0,0,1,1.65-1.52H567.09a1.55,1.55,0,0,1,1.66,1.52C568.75,462,558.09,472.44,542.84,472.44Zm-156.12-24c.74,13,9.81,21,22.55,21H542.84c12.74,0,21.8-8,22.55-21Z"></path>
  <path fill="#333" d="M470.84 233.71a1.66 1.66 0 0 1-1.65-1.52c-.09-1.26-9.89-126.64-34-182a1.65 1.65 0 0 1 3-1.32c24.37 55.83 34.21 181.76 34.31 183a1.65 1.65 0 0 1-1.52 1.77ZM441.42 270.54a1.62 1.62 0 0 1-1.37-.73c-.43-.64-43.41-64.26-76.11-91.9a1.65 1.65 0 0 1 2.14-2.52c33 27.93 76.27 91.93 76.71 92.58a1.65 1.65 0 0 1-1.37 2.57ZM513.07 243.23a1.69 1.69 0 0 1-1.17-.49 1.65 1.65 0 0 1 0-2.33c3.44-3.45 23.56-22 43-39.95 14.26-13.15 27.73-25.58 33.43-31a1.65 1.65 0 1 1 2.27 2.4c-5.72 5.39-19.2 17.82-33.46 31-19.43 17.92-39.52 36.46-42.91 39.85A1.67 1.67 0 0 1 513.07 243.23ZM631.44 346.55a1.64 1.64 0 0 1-1.6-1.26c-14.67-59.45-65.62-84.08-66.14-84.32a1.67 1.67 0 0 1-.79-2.2 1.65 1.65 0 0 1 2.2-.79c.54.25 13.4 6.38 28.29 20.13 13.74 12.69 31.77 34.5 39.64 66.39a1.65 1.65 0 0 1-1.2 2A1.41 1.41 0 0 1 631.44 346.55Z"></path>
  <path fill="#fff" d="M550.73,694.8c-3.84,2.86-16.64,13.28-6.66,18.27,7.78,3.89,32.94,2.4,62.38-7.42C590,695.11,569.93,689.87,550.73,694.8Z"></path>
  <path fill="#313131" d="M557.05 716.44h0c-6.15 0-10.89-.62-13.72-2s-4.39-3.33-4.61-5.79c-.51-5.71 6.69-12 11-15.18a1.69 1.69 0 0 1 .58-.26 62 62 0 0 1 15.38-1.91c14 0 28.38 4.49 41.64 13a1.65 1.65 0 0 1 .75 1.6 1.49 1.49 0 0 1-1.12 1.23C588.89 713.11 570.69 716.44 557.05 716.44Zm-5.6-20.12c-4.81 3.63-9.74 8.65-9.44 12.07 0 .47.17 1.88 2.8 3.2 2.34 1.17 6.68 1.81 12.24 1.81 12.45 0 28.86-3 45.48-8.22-11.87-6.94-24.54-10.6-36.83-10.6A58.78 58.78 0 0 0 551.45 696.32ZM455.84 396.86c-3.84-6.72 3.1-12.17 5.74-18-37.25 3-59.41 12.74-53 27.47 9 20.48 20.18 20.11 51.49 18.74 1-1.13 2-2.27 3-3.48C468.92 412.84 460.2 404.12 455.84 396.86Z"></path>
  <path fill="#313131" d="M442.36,427.44h0c-18.25,0-27.67-3-35.26-20.37a12.35,12.35,0,0,1,.51-11.82c5.57-9.3,24.69-15.72,53.84-18a1.64,1.64,0,0,1,1.64,2.31,36.74,36.74,0,0,1-3.06,5.13c-2.68,4-5,7.46-2.75,11.39.77,1.29,1.72,2.67,2.72,4.12,4.38,6.38,9.83,14.31,4.48,22.32l-.08.12c-.88,1.1-1.86,2.23-3.08,3.56a1.8,1.8,0,0,1-1.15.63C453.71,427.07,447.61,427.44,442.36,427.44Zm16.28-46.7c-26,2.39-43.45,8.23-48.2,16.16a9.47,9.47,0,0,0-.31,9c6.89,15.75,15.14,18.55,32.23,18.55h0c5,0,10.82-.5,17-.77.94-1,1.72-2.07,2.43-3,4-6.13-.3-12.51-4.49-18.61-1-1.5-2-3-2.85-4.36-3.29-5.74,0-10.63,2.86-14.92C457.76,382.12,458.22,381.42,458.64,380.74Z"></path>
  <path fill="#c0bfcc" d="M508.16,391.05c-6.6-4-10.79-7.94-9.31-13a348.16,348.16,0,0,0-37.27.77c-2.64,5.86-9.58,11.31-5.74,18,4.36,7.26,13.08,16,7.27,24.7-1,1.21-2,2.35-3,3.48,4.25-.19,8.87-.4,13.91-.57,7-.24,14.72-.22,22.79,0a39.79,39.79,0,0,1,11.36-21.83C511.07,401.22,511.07,392.5,508.16,391.05Z"></path>
  <path fill="#313131" d="M460.1,426.69a1.65,1.65,0,0,1-1.21-2.77c1.14-1.25,2.06-2.31,2.88-3.33,4-6.13-.3-12.45-4.49-18.56-1-1.5-2-2.91-2.85-4.32-3.29-5.75,0-10.61,2.86-14.9a32.45,32.45,0,0,0,2.78-4.66,1.64,1.64,0,0,1,1.38-1c7.92-.63,16.54-.95,25.62-.95,3.84,0,7.82.05,11.82.17a1.65,1.65,0,0,1,1.54,2.11c-1,3.55,1.52,6.86,8.54,11.08,2.8,1.47,3,5.92,3,7.26s-.21,5.57-2.82,7.14a38.29,38.29,0,0,0-10.74,20.77,1.67,1.67,0,0,1-1.68,1.38c-8.26-.25-15.95-.26-22.68,0-4.8.17-9.13.36-13.31.54l-.59,0Zm2.55-46.28a45.68,45.68,0,0,1-2.62,4.24c-2.68,4-5,7.45-2.75,11.39.77,1.29,1.72,2.67,2.72,4.12,4.38,6.38,9.83,14.31,4.48,22.32l-.08.12-.5.62c3.17-.14,6.48-.28,10.05-.4,6.42-.22,13.68-.23,21.48,0A41.79,41.79,0,0,1,507,401.5a1.88,1.88,0,0,1,.43-.31c.51-.25,1.27-1.81,1.27-4.33s-.76-4.08-1.27-4.34l-.11-.06c-5.4-3.24-10.71-7.26-10.41-12.8C484.61,379.36,473.05,379.62,462.65,380.41Z"></path>
  <path fill="#c0bfcc" d="M572.11,392.5a15.4,15.4,0,0,0,1.38-4.16,176.51,176.51,0,0,0-34.81-7.47c-7.12-.78-14.09-1.4-20.87-1.87,2.38,5.31,6,10.13,9.24,14.95,5.82,8.72-7.26,14.53-10.17,21.8a15.56,15.56,0,0,0-2.09,9.63c13.58.9,27.5,2.32,40.4,4.13-2-8.41-6.26-17.35-.52-25.39C557.57,398.31,567.75,399.76,572.11,392.5Z"></path>
  <path fill="#313131" d="M555.19,431.17l-.23,0c-12.82-1.8-26.75-3.22-40.28-4.12a1.65,1.65,0,0,1-1.54-1.53A17.18,17.18,0,0,1,515.41,415c1.16-2.76,3.51-5.23,5.78-7.61,4.68-4.91,7.4-8.14,4.49-12.5-.68-1-1.39-2.05-2.09-3.08a79.73,79.73,0,0,1-7.29-12.11,1.67,1.67,0,0,1,.15-1.63,1.65,1.65,0,0,1,1.47-.7c6.93.48,14,1.11,20.94,1.88A178.32,178.32,0,0,1,574,386.77a1.65,1.65,0,0,1,1.12,1.87,16.85,16.85,0,0,1-1.54,4.6s0,.07-.06.11c-2.57,4.29-6.82,5.85-10.57,7.23-3.06,1.12-5.71,2.09-6.81,4.28a1,1,0,0,1-.13.22c-4.28,6-2.41,12.58-.43,19.55.42,1.47.86,3,1.22,4.5a1.65,1.65,0,0,1-.38,1.49A1.68,1.68,0,0,1,555.19,431.17Zm-38.81-7.33c12.28.84,24.85,2.11,36.59,3.7q-.27-1-.57-2c-2-7-4.26-15,.85-22.26,1.71-3.28,5.19-4.56,8.57-5.8s6.86-2.51,8.84-5.77a14,14,0,0,0,.88-2.25,175.34,175.34,0,0,0-33-6.94c-6-.65-12-1.21-17.94-1.66a99.72,99.72,0,0,0,5.75,9.07c.72,1,1.43,2.08,2.12,3.12,4.52,6.78-.67,12.23-4.85,16.61-2.1,2.2-4.27,4.48-5.16,6.71a3,3,0,0,1-.16.31A13,13,0,0,0,516.38,423.84Z"></path>
  <path fill="#313131" d="M573.49,388.34a15.4,15.4,0,0,1-1.38,4.16c-4.36,7.26-14.54,5.81-17.44,11.62-5.74,8-1.51,17,.52,25.39,4.56.64,9,1.34,13.22,2.07-2-7.89-2.82-16.56,3.7-18.74,10.1-3.36,15.32-10.15,18.21-18.09A173.41,173.41,0,0,0,573.49,388.34Z"></path>
  <path fill="#313131" d="M568.41,433.23a1.33,1.33,0,0,1-.28,0c-4.26-.73-8.69-1.42-13.17-2.05a1.63,1.63,0,0,1-1.37-1.25c-.35-1.43-.76-2.86-1.19-4.37-2-7-4.26-15,.85-22.26,1.71-3.28,5.19-4.56,8.57-5.8s6.86-2.51,8.84-5.77a13.93,13.93,0,0,0,1.21-3.66,1.67,1.67,0,0,1,.78-1.12,1.64,1.64,0,0,1,1.35-.15,176.83,176.83,0,0,1,17,6.47,1.65,1.65,0,0,1,.88,2.08c-3.53,9.71-9.83,15.95-19.24,19.09-4.3,1.43-5.15,6.91-2.62,16.75a1.65,1.65,0,0,1-1.6,2.07ZM556.52,428c3.28.46,6.52,1,9.69,1.49-1.25-5.6-2.56-15.61,5.37-18.25a26.1,26.1,0,0,0,16.63-15.64c-4.45-1.92-9-3.65-13.53-5.17a16.81,16.81,0,0,1-1.1,2.77s0,.07-.06.11c-2.57,4.29-6.82,5.85-10.57,7.23-3.06,1.12-5.71,2.09-6.81,4.28a1,1,0,0,1-.13.22c-4.28,6-2.41,12.58-.43,19.55C555.9,425.75,556.23,426.89,556.52,428Z"></path>
  <path fill="#c0bfcc" d="M631.53,420.7a165.88,165.88,0,0,0-41.21-25.95c-2.89,7.94-8.11,14.73-18.21,18.09-6.52,2.18-5.73,10.85-3.7,18.74a244.78,244.78,0,0,1,24.49,5.34c1-2.2,2.23-3.73,3.91-3.73C609.88,432.18,624.34,429.78,631.53,420.7Z"></path>
  <path fill="#313131" d="M592.9 438.57a1.82 1.82 0 0 1-.46-.06 242.18 242.18 0 0 0-24.31-5.31 1.64 1.64 0 0 1-1.32-1.21c-1.12-4.36-4.53-17.61 4.77-20.71 8.4-2.8 14-8.39 17.19-17.09a1.67 1.67 0 0 1 .9-1 1.72 1.72 0 0 1 1.32 0 167.55 167.55 0 0 1 41.62 26.21 1.66 1.66 0 0 1 .21 2.28c-7.73 9.76-23.24 12.13-35.88 13.11h-.13c-1 0-1.95 1.72-2.41 2.75A1.64 1.64 0 0 1 592.9 438.57Zm-23.15-8.44c8.56 1.5 16 3.12 22.28 4.83 1.28-2.24 2.86-3.39 4.71-3.42 11.4-.88 25.18-2.91 32.45-10.66a163.56 163.56 0 0 0-38-23.91 29.14 29.14 0 0 1-18.6 17.44C568.48 415.79 567.54 420.94 569.75 430.13ZM637.5 504.4c-8.38-12-21.68-15.08-26.11-28a122.28 122.28 0 0 0-23.41-1c2 16.92 15.4 26.79 35 30.46 2.91 0 2.91 8.72 7.27 11.63C639 521.84 641.86 510.21 637.5 504.4Z"></path>
  <path fill="#313131" d="M633.81 520.09A9.5 9.5 0 0 1 629.5 519l-.18-.1c-2.71-1.81-3.93-5.23-4.91-8a12.4 12.4 0 0 0-1.52-3.38l-.22 0c-21.79-4.09-34.35-15.12-36.33-31.9a1.7 1.7 0 0 1 .38-1.26 1.62 1.62 0 0 1 1.17-.58 125 125 0 0 1 23.72 1 1.66 1.66 0 0 1 1.34 1.1c2.36 6.87 7.56 10.9 13.06 15.17 4.47 3.46 9.08 7 12.85 12.41A12.64 12.64 0 0 1 640 516 6.85 6.85 0 0 1 633.81 520.09Zm-2.74-4a6.34 6.34 0 0 0 2.74.74h0a3.55 3.55 0 0 0 3.25-2.24 9.45 9.45 0 0 0-.88-9.16c-3.51-5-7.92-8.43-12.19-11.74-5.66-4.38-11-8.54-13.81-15.74a122.11 122.11 0 0 0-20.3-1c3.07 17.84 19.63 24.68 33.27 27.26 2.44.12 3.38 2.76 4.37 5.56C628.37 512.14 629.33 514.83 631.07 516.05ZM585.19 503c-14.57-1.12-30-7.43-33-19.58a118.41 118.41 0 0 0-16.15 8c3.35 9.88 8.4 18.82 15.68 18.82 17.44 0 26.16 16 39.24 13.08C598.27 521.84 593.91 503 585.19 503Z"></path>
  <path fill="#313131" d="M587.81 525.44h0c-5.68 0-10.58-3-15.76-6.18-5.94-3.6-12.09-7.36-20.29-7.36-7 0-12.76-6.73-17.24-20a1.67 1.67 0 0 1 .72-2 121.1 121.1 0 0 1 16.37-8.14 1.64 1.64 0 0 1 1.37.06 1.67 1.67 0 0 1 .86 1.08c2.92 11.94 18.73 17.33 31.41 18.32 6 .05 10.31 7.09 11 13.91.53 5.27-1.36 9.06-4.91 9.77A16.55 16.55 0 0 1 587.81 525.44Zm-49.72-33.31c2.78 7.78 7.31 16.43 13.67 16.43 9.13 0 16 4.37 22 8 5 3 9.29 5.86 14 5.86h0a13.33 13.33 0 0 0 2.83-.54c2.12-.42 2.57-3.56 2.31-6.26-.53-5.28-3.77-11-7.76-11a.5.5 0 0 1-.13 0c-13.16-1-29.51-6.62-33.89-19A116.32 116.32 0 0 0 538.09 492.13ZM509.62 534.92c14.53 2.91 33.42-1.45 43.59 16 1.46 1.45 7.27 2.9 8.72 1.45 2.91-5.81 2.91-14.53-2.9-16-20.44-5.45-34.49-9.62-49.34-24.49-4 3.91-7.87 8-11.52 12.31C502 529 505.41 533.87 509.62 534.92Z"></path>
  <path fill="#313131" d="M559.75,554.61h0c-2.44,0-6.21-1-7.7-2.54a1.64,1.64,0,0,1-.26-.33c-7.17-12.28-19.11-13.1-30.66-13.89a95.28,95.28,0,0,1-11.84-1.31c-4.45-1.11-7.82-5.43-11.38-10l-1-1.32a1.66,1.66,0,0,1,0-2.1c3.76-4.41,7.68-8.59,11.63-12.43a1.65,1.65,0,0,1,2.32,0c14.38,14.41,27.83,18.53,48.59,24.07a7.34,7.34,0,0,1,5,4.27c2,4.3.91,10.16-1,14.05a1.62,1.62,0,0,1-.31.43A4.59,4.59,0,0,1,559.75,554.61Zm-5.24-4.76a11.11,11.11,0,0,0,5.24,1.46,3.18,3.18,0,0,0,.9-.1c1.69-3.63,2-8.1.8-10.78a4.09,4.09,0,0,0-2.82-2.45c-20.77-5.54-34.41-9.71-48.95-23.79-3.17,3.15-6.32,6.52-9.38,10l.21.27c3.21,4.11,6.24,8,9.51,8.81a92.65,92.65,0,0,0,11.34,1.23C533.12,535.36,546.45,536.27,554.51,549.85Z"></path>
  <path fill="#fff" d="M311.48,664.82c-3.87,21.31,32.46,29.62,32.46,29.62h11c-10.73-12-6.65-33.46-14.24-44.61C330,647.59,314.36,649,311.48,664.82Z"></path>
  <path fill="#313131" d="M354.91,695.44h-11c-.12,0-.24.11-.36.09-1.55-.35-37.83-8.65-33.72-31.27,2-11,10.38-17.23,23-17.23a40.31,40.31,0,0,1,8.14.88,1.64,1.64,0,0,1,1,.69c3.61,5.31,4.68,12.55,5.82,20.21,1.32,8.9,2.68,18.1,8.26,24.11a1.42,1.42,0,0,1,.3,1.65A1.53,1.53,0,0,1,354.91,695.44Zm-10.78-3h7.36c-4.44-7-5.69-15-6.9-23.13-1-7-2-13.62-4.92-18.28a37.64,37.64,0,0,0-6.8-.66c-6.39,0-17.46,1.91-19.76,14.57C309.69,683.74,341.51,691.44,344.13,692.44Z"></path>
  <path fill="#c0bfcc" d="M692.89,561.31a276,276,0,0,0-2.74-33.11c-2.27-15.43-6.09-30.72-12.13-44.48A178.23,178.23,0,0,0,650.67,440c-11.67,2.69-25.53,2.31-36.87,5.72,17.48,9.28,36.57,22.69,41.5,43.66a164.28,164.28,0,0,0-43.91-13c4.43,12.91,17.73,16,26.11,28,4.36,5.81,1.46,17.44-7.26,13.08-4.36-2.91-4.36-11.63-7.27-11.63-19.59-3.67-33-13.54-35-30.46a110.36,110.36,0,0,0-35.75,8c3,12.15,18.39,18.46,33,19.58,8.72,0,13.08,18.89,5.81,20.34-13.08,2.91-21.8-13.08-39.24-13.08-7.28,0-12.33-8.94-15.68-18.82a142.85,142.85,0,0,0-26.39,20.49c14.85,14.87,28.9,19,49.34,24.49,5.81,1.46,5.81,10.18,2.9,16-1.45,1.45-7.26,0-8.72-1.45-10.17-17.44-29.06-13.08-43.59-16-4.21-1-7.66-5.92-11.45-10.73-44.83,52.53-61.7,128.49-61.7,128.49s-57.17,14.58-64.92,14.58-15.5-9.6-22.28-14.44c-1.75-1.26-4.87-2.3-8.6-3.08,7.59,11.15,3.51,32.7,14.24,44.7H551.76a2.93,2.93,0,0,0-1,.55c19.2-4.93,39.26.22,55.72,10.75a218.58,218.58,0,0,0,45.22-21.08c15.38-9.49,23.89-28.12,29.53-44.55A226,226,0,0,0,692.89,561.31Z"></path>
  <path fill="#313131" d="M606.45,707.3a1.6,1.6,0,0,1-.89-.27c-12.73-8.14-26.52-12.45-39.86-12.45a58.72,58.72,0,0,0-14.56,1.68,1.31,1.31,0,0,1-1.8-.82H354.91a1.53,1.53,0,0,1-1.21-.4c-6.28-6.76-7.72-16.41-9.11-25.81-1.08-7.27-2.1-14.11-5.28-18.79a1.64,1.64,0,0,1,1.7-2.52,25.89,25.89,0,0,1,9.22,3.55c2,1.45,4.07,3.25,6.23,5.15,5,4.42,10.21,9,15.09,9,5.87,0,43.56-9.2,63.54-14.28,2.19-9.17,20-79.22,61.82-128.21a1.62,1.62,0,0,1,1.29-.58,1.64,1.64,0,0,1,1.26.63l1.05,1.34c3.21,4.11,6.24,8,9.51,8.81a92.65,92.65,0,0,0,11.34,1.23c11.76.81,25.09,1.72,33.15,15.3a11.11,11.11,0,0,0,5.24,1.46,3.18,3.18,0,0,0,.9-.1c1.69-3.63,2-8.1.8-10.78a4.09,4.09,0,0,0-2.82-2.45c-21.32-5.69-35.13-9.93-50.11-24.94a1.62,1.62,0,0,1-.49-1.18,1.68,1.68,0,0,1,.51-1.17A145.18,145.18,0,0,1,535.24,490a1.66,1.66,0,0,1,1.41-.13,1.68,1.68,0,0,1,1,1c2.73,8.08,7.4,17.7,14.11,17.7,9.13,0,16,4.15,22,7.8,5,3,9.29,5.64,14,5.63a13,13,0,0,0,2.83-.31c2.12-.42,2.57-3.45,2.31-6.15-.53-5.28-3.77-10.93-7.76-10.93h-.13c-13.79-1.06-31.08-7.15-34.43-20.83a1.63,1.63,0,0,1,1-1.92,112.3,112.3,0,0,1,36.28-8.1,1.63,1.63,0,0,1,1.73,1.45c2.26,19.15,19.45,26.35,33.53,29,2.44.12,3.38,2.76,4.37,5.56.85,2.37,1.81,5.06,3.55,6.28,2.74,1.33,4.82.84,6-1.5a9.45,9.45,0,0,0-.88-9.16c-3.51-5-7.92-8.43-12.19-11.74-5.91-4.58-11.49-8.9-14.17-16.7a1.66,1.66,0,0,1,1.79-2.18,164.07,164.07,0,0,1,41.18,11.73c-6.26-19.58-25.5-31.75-39.76-39.32a1.65,1.65,0,0,1,.3-3c6.39-1.93,13.59-2.67,20.54-3.39a138.8,138.8,0,0,0,16.43-2.36,1.65,1.65,0,0,1,1.63.54,179.54,179.54,0,0,1,27.6,44.12c5.64,12.85,9.76,28,12.26,44.91a278.94,278.94,0,0,1,2.75,33.31,226,226,0,0,1-11.78,79.35c-5,14.57-13.57,35.12-30.22,45.39A218.46,218.46,0,0,1,607,707.21,1.54,1.54,0,0,1,606.45,707.3Zm-40.75-16c13.74,0,27.89,4.34,41,12.55a215.42,215.42,0,0,0,44.14-20.63c15.75-9.72,24-29.57,28.83-43.65a223,223,0,0,0,11.6-78.2,276.56,276.56,0,0,0-2.72-32.91c-2.45-16.66-6.5-31.48-12-44.06a176.53,176.53,0,0,0-26.45-42.55,151.14,151.14,0,0,1-15.85,2.2,147.54,147.54,0,0,0-15.93,2.24C633.38,454.7,652,468,656.91,489a1.66,1.66,0,0,1-.55,1.65,1.65,1.65,0,0,1-1.73.23A165.59,165.59,0,0,0,614,478.48c2.66,5.34,7.2,8.86,12,12.56,4.47,3.46,9.08,7,12.85,12.41A12.64,12.64,0,0,1,640,516a6.85,6.85,0,0,1-6.2,4.06A9.69,9.69,0,0,1,629.5,519l-.18-.1c-2.71-1.81-3.93-5.23-4.91-8a12.4,12.4,0,0,0-1.52-3.38l-.22,0c-21.11-4-33.56-14.44-36.11-30.35a109.18,109.18,0,0,0-32.32,7.22c3.75,11,18.83,16,31,16.95,6,.05,10.31,7.09,11,13.91.53,5.27-1.36,9-4.91,9.7a15.8,15.8,0,0,1-3.51.39c-5.68,0-10.58-3-15.76-6.11-5.94-3.6-12.09-7.32-20.29-7.32-6.61,0-12.18-6.06-16.56-18a141.88,141.88,0,0,0-23.14,18c13.94,13.46,27.21,17.51,47.39,22.89a7.34,7.34,0,0,1,5,4.27c2,4.3.91,10.16-1,14.05a1.62,1.62,0,0,1-.31.43,4.59,4.59,0,0,1-3.35,1.08c-2.44,0-6.21-1-7.7-2.54a1.64,1.64,0,0,1-.26-.33c-7.17-12.28-19.11-13.1-30.66-13.89a95.28,95.28,0,0,1-11.84-1.31c-4.36-1.09-7.68-5.26-11.17-9.73C455,578.38,438.25,652.29,438.08,653a1.64,1.64,0,0,1-1.21,1.24c-2.34.6-57.45,14.63-65.32,14.63-6.13,0-11.8-5-17.27-9.81-2.1-1.84-4.08-3.59-6-4.94a17.16,17.16,0,0,0-4.34-2c2.13,4.8,3,10.62,3.89,16.7,1.28,8.64,2.6,17.61,7.79,23.61H551.76a1.65,1.65,0,0,1,.88.23A62.4,62.4,0,0,1,565.7,691.28Z"></path>
  <path fill="#313131" d="M632.74,421.72c-.4-.35-.81-.67-1.21-1-7.19,9.08-21.65,11.48-34.72,12.49-1.68,0-2.93,1.53-3.91,3.73a77.16,77.16,0,0,1,11.91,4.26c2.89,1.4,5.91,2.91,9,4.54,11.34-3.41,25.2-3,36.87-5.72A173.86,173.86,0,0,0,632.74,421.72Z"></path>
  <path fill="#313131" d="M613.8 447.37a1.6 1.6 0 0 1-.77-.19c-2.69-1.43-5.62-2.9-8.94-4.51a73.69 73.69 0 0 0-11.65-4.16 1.68 1.68 0 0 1-1-.89 1.63 1.63 0 0 1 0-1.38c1.38-3.09 3.18-4.67 5.35-4.7 12-.93 26.57-3.11 33.49-11.86a1.64 1.64 0 0 1 1.14-.62 1.68 1.68 0 0 1 1.24.39l.51.43.71.6a178.41 178.41 0 0 1 18.1 18.45 1.65 1.65 0 0 1-.89 2.68A140.29 140.29 0 0 1 634.21 444c-6.8.71-13.84 1.44-19.93 3.27A1.59 1.59 0 0 1 613.8 447.37Zm-18.46-11.46a69.59 69.59 0 0 1 10.18 3.79c3.12 1.5 5.9 2.9 8.46 4.25 6.23-1.79 13.17-2.51 19.89-3.2 4.59-.48 9.31-1 13.72-1.8A175.49 175.49 0 0 0 631.72 423c-8 8.69-22.71 10.89-34.78 11.82h-.13A2.1 2.1 0 0 0 595.34 435.91ZM516.88 415.75c2.91-7.27 16-13.08 10.17-21.8-3.21-4.82-6.86-9.64-9.24-14.95-6.5-.45-12.84-.77-19-.94-1.48 5.05 2.71 9 9.31 13 2.91 1.45 2.91 10.17 0 11.62A39.79 39.79 0 0 0 496.8 424.5c5.85.18 11.88.48 18 .88A15.56 15.56 0 0 1 516.88 415.75Z"></path>
  <path fill="#313131" d="M514.79 427h-.11c-6.21-.41-12.24-.7-17.93-.88a1.62 1.62 0 0 1-1.22-.6 1.7 1.7 0 0 1-.36-1.32A41.64 41.64 0 0 1 507 401.5a1.88 1.88 0 0 1 .43-.31c.51-.25 1.27-1.81 1.27-4.33s-.76-4.08-1.27-4.34l-.11-.06c-6.05-3.63-12-8.24-10.05-14.86a1.64 1.64 0 0 1 1.63-1.19c6.13.17 12.53.49 19 .94a1.65 1.65 0 0 1 1.39 1 77.56 77.56 0 0 0 7 11.6c.72 1 1.43 2.08 2.12 3.12 4.52 6.78-.67 12.23-4.85 16.61-2.1 2.2-4.27 4.48-5.16 6.71a3 3 0 0 1-.16.31 13.81 13.81 0 0 0-1.83 8.59 1.63 1.63 0 0 1-.47 1.29A1.65 1.65 0 0 1 514.79 427Zm-16-4.12c4.59.16 9.38.4 14.29.71a16.36 16.36 0 0 1 2.33-8.64c1.16-2.76 3.51-5.23 5.78-7.61 4.68-4.91 7.4-8.14 4.49-12.5-.68-1-1.39-2.05-2.09-3.08a85.78 85.78 0 0 1-6.87-11.21c-5.62-.38-11.16-.66-16.5-.83-.17 3.1 2.55 6.12 8.75 9.85 2.8 1.47 3 5.92 3 7.26s-.21 5.57-2.82 7.14A38.43 38.43 0 0 0 498.79 422.91ZM551.76 695.71a1.65 1.65 0 0 1-.34-3.27c9.88-2.09 35.89-9.19 42.48-17.7-7-6.16-42.51-39.32-35-73.32 8.06-36.66 52-60.42 53.88-61.42a1.65 1.65 0 0 1 1.55 2.92c-.44.23-44.47 24.05-52.21 59.21-7.68 34.92 34.63 70.68 35 71a1.63 1.63 0 0 1 .39 2.07c-6.83 12.14-43.86 20.1-45.43 20.43A2 2 0 0 1 551.76 695.71Z"></path>
  <path fill="#c0bfcc" d="M409.41,650.06c1.15,1.05,29.26,14.11,52.34,16.06,50.31,4.24,83-20.17,89.62-51.09s-21.28-56.33-21.28-56.33,1-17.39-1-28.75a4.41,4.41,0,0,1-.35-.76c-1.66-4.65-4.35-11-6.82-11.38-3.21-.44-18.1,17.16-23.33,23.48a4.28,4.28,0,0,1-4.48,1.39c-6.51-1.93-23.87-6.26-40-3.54a4.25,4.25,0,0,1-3.91-1.43l-13.61-15.82a4.27,4.27,0,0,0-7.17,1.12l-10,28.7c-.28.67-3.87,3.72-4.44,4.16C407.77,561.55,358.13,603.74,409.41,650.06Z"></path>
  <path fill="#313131" d="M473,668.44h0c-3.7,0-7.52-.26-11.34-.58-23.1-2-51.5-14.89-53.31-16.53-16.11-14.56-24-30.22-23.46-46.49.9-26.69,24.41-46.55,29.12-50.25a46.57,46.57,0,0,0,4-3.6l10-28.62a5.93,5.93,0,0,1,10-1.56l13.6,15.82a2.65,2.65,0,0,0,2.39.88,67.72,67.72,0,0,1,11.32-.9,110.33,110.33,0,0,1,29.43,4.48,2.46,2.46,0,0,0,.72.1,2.62,2.62,0,0,0,2-1c20-24.09,23.25-24.09,24.49-24.09a2,2,0,0,1,.35,0c1.82.26,4.39,1.91,8.14,12.45a4.57,4.57,0,0,0,.21.46l.17.27,0,.31c1.75,10.19,1.21,24.81,1,28.35,4.13,4,27.48,28,21.2,57.36-3.18,14.83-12.3,28.24-25.69,37.59C512.89,663,494.1,668.44,473,668.44Zm-62.48-19.65c2.26,1.53,29.44,13.83,51.42,15.69,3.73.31,7.45.47,11.06.47,40.11,0,70.26-19.73,76.8-50.26,6.33-29.6-20.5-54.52-20.77-54.77l-.58-.53,0-.78c0-.17.92-17.06-.91-28.11a7.51,7.51,0,0,1-.32-.73c-3.17-8.9-5.1-10.14-5.45-10.3-1.82.46-9.29,7.68-21.88,22.87a5.89,5.89,0,0,1-4.57,2.15,5.7,5.7,0,0,1-1.64-.23,106.75,106.75,0,0,0-28.51-4.34,65.57,65.57,0,0,0-10.78.84,5.89,5.89,0,0,1-5.43-2L435.34,523a2.57,2.57,0,0,0-2-.92,2.6,2.6,0,0,0-2.41,1.56l-10,28.73c-.54,1.3-4.91,4.8-5,4.84-4.49,3.54-27,22.52-27.85,47.75C387.63,620.17,395.14,634.93,410.47,648.79Z"></path>
  <path fill="#eeb857" d="M421.13,568.72a16.9,16.9,0,0,0-8.66,3.62,21.58,21.58,0,0,0-6.29,9.94c-2.89,8.62-2.54,18.19,5.49,23.66,6.38,4.33,14.91,5.51,22.45,5.14a13.65,13.65,0,0,0,5.48-1.17c3.86-1.93,5.56-6.52,6.29-10.78,1.51-8.79-1.1-18.7-7.67-24.93A21.58,21.58,0,0,0,421.13,568.72Z"></path>
  <path fill="#313131" d="M431.54,612.8c-5.8,0-14.11-1-20.79-5.5-7.61-5.16-9.84-14.47-6.14-25.54a23,23,0,0,1,6.81-10.69,18.59,18.59,0,0,1,9.5-4,22.65,22.65,0,0,1,2.74-.17,23.29,23.29,0,0,1,15.7,6.09c6.63,6.29,9.83,16.66,8.16,26.41-1,6.09-3.46,10.12-7.18,12a15.09,15.09,0,0,1-6.14,1.34C433.31,612.78,432.42,612.8,431.54,612.8Zm-7.88-42.59a17.84,17.84,0,0,0-2.32.15,15.13,15.13,0,0,0-7.81,3.26,19.72,19.72,0,0,0-5.79,9.19c-1.51,4.52-4.07,15.69,4.86,21.76,6,4.07,13.6,4.92,18.94,4.92.82,0,1.67,0,2.5-.06a12.16,12.16,0,0,0,4.82-1c2.73-1.37,4.54-4.6,5.4-9.59,1.49-8.7-1.33-17.9-7.18-23.45A19.83,19.83,0,0,0,423.66,570.21Z"></path>
  <ellipse cx="417.46" cy="589.17" fill="#313131" rx="5.76" ry="14.56"></ellipse>
  <path fill="#eeb857" d="M508.86,568.72a16.9,16.9,0,0,1,8.66,3.62,21.58,21.58,0,0,1,6.29,9.94c2.89,8.62,2.55,18.19-5.49,23.66-6.37,4.33-14.91,5.51-22.45,5.14a13.65,13.65,0,0,1-5.48-1.17c-3.86-1.93-5.56-6.52-6.29-10.78-1.5-8.79,1.1-18.7,7.67-24.93A21.58,21.58,0,0,1,508.86,568.72Z"></path>
  <path fill="#313131" d="M498.45,612.8c-.88,0-1.77,0-2.66-.07a15.09,15.09,0,0,1-6.14-1.34c-3.72-1.86-6.13-5.89-7.17-12-1.68-9.75,1.53-20.12,8.15-26.41a23.29,23.29,0,0,1,15.7-6.09,22.65,22.65,0,0,1,2.74.17,18.59,18.59,0,0,1,9.5,4,22.94,22.94,0,0,1,6.81,10.69c3.7,11.07,1.47,20.38-6.13,25.54C512.56,611.85,504.25,612.8,498.45,612.8Zm7.88-42.59a19.83,19.83,0,0,0-13.42,5.19c-5.85,5.55-8.67,14.75-7.18,23.45.86,5,2.67,8.22,5.4,9.59a12.2,12.2,0,0,0,4.82,1c.84,0,1.68.06,2.5.06,5.34,0,12.95-.85,18.94-4.92,8.93-6.07,6.37-17.24,4.86-21.76a19.79,19.79,0,0,0-5.78-9.19,15.2,15.2,0,0,0-7.82-3.26A17.73,17.73,0,0,0,506.33,570.21Z"></path>
  <path fill="#fff" d="M516.19 530.6c1.13-1.3 2.63-2.71 4.32-2.36 1.92.4 2.63 2.74 2.91 4.68a97.82 97.82 0 0 1 .92 18.26 1.85 1.85 0 0 1-.14.77 1.5 1.5 0 0 1-.6.57c-1.54.87-3.46.24-5.1-.41l-13.15-5.21c-.41-.16-.89-.41-.93-.84a1.2 1.2 0 0 1 .3-.77A175 175 0 0 1 516.19 530.6ZM427.56 546.05c.18-1.86 1.28-3.48 2-5.22 1.28-3.16 1.27-6.68 2-10 .3-1.4 1-3 2.47-3.09a3.11 3.11 0 0 1 2.32 1.38c2.49 3 3.42 7 5.49 10.34a6.61 6.61 0 0 1 .92 1.79 1.83 1.83 0 0 1-.45 1.87 2.71 2.71 0 0 1-1.09.45l-10.37 2.56-2.46.6a.72.72 0 0 1-.64 0A.67.67 0 0 1 427.56 546.05Z"></path>
  <path fill="#313131" d="M462.14 562c-.29 1.48-1.54 2.55-2.26 3.87a6 6 0 0 0 1.45 7.37 8.73 8.73 0 0 1 2.13 1.82c1.42 2.26-1.33 5.16-.71 7.76a3.79 3.79 0 0 0 4.59 2.45 5.79 5.79 0 0 0 3.81-4 13 13 0 0 0 .15-5.75c-.2-1.31-.44-2.75.25-3.88s2.23-1.61 3.28-2.52c1.9-1.63 2.05-4.52 1.65-7s-1.2-5-.66-7.44c.83-3.79 4.77-7 3.7-10.76-.83-2.89-4.2-4.09-7.11-4.85-2.46-.66-5-1.31-7.51-.69s-4.7 3-4.24 5.48c.35 1.88 2.1 3.6 1.47 5.41-.43 1.22-1.81 1.86-2.43 3C458.05 555.33 462.81 558.61 462.14 562ZM376.06 630.1a1.65 1.65 0 0 1-.13-3.3l40.22-3.44-49.52-14.24a1.66 1.66 0 0 1 .92-3.18l58.1 16.72a1.65 1.65 0 0 1-.31 3.23l-49.13 4.21ZM556.45 630.1h-.14l-49.13-4.21a1.65 1.65 0 0 1-.32-3.23L565 605.94a1.65 1.65 0 1 1 .91 3.18l-49.51 14.24 40.22 3.44a1.65 1.65 0 0 1-.14 3.3ZM451.52 557.51a7 7 0 0 0-3-1.36c-3.6-.64-7.72 1.3-8.09 5.25-.26 2.73 1.44 4.45 2.66 6.65a8.09 8.09 0 0 0 3.53 3.58 5.74 5.74 0 0 0 5.5-.17C457 568.32 455.73 560.72 451.52 557.51ZM482.53 557.51a7 7 0 0 1 3-1.36c3.6-.64 7.72 1.3 8.09 5.25.26 2.73-1.43 4.45-2.66 6.65a8.12 8.12 0 0 1-3.52 3.58 5.76 5.76 0 0 1-5.51-.17C477.1 568.32 478.33 560.72 482.53 557.51Z"></path>
  <path fill="#fff" d="M477.93,610.31c-2.77-2.57-5.63-5.19-9.17-6.5-4.27-1.57-9.1-1-13.33.66a47.35,47.35,0,0,0-11.54,7.22c-3.64,2.86-7.35,6.07-8.87,10.45s.05,10.17,4.42,11.7c3.48,1.23,7.46-.53,11,.63,2.7.88,4.73,3.39,7.52,3.93,4.34.84,8-3.31,12.35-4.2,3.85-.8,8,1,11.69-.31,4.52-1.68,6.14-7.65,4.65-12.23S481.46,613.59,477.93,610.31Z"></path>
  <path fill="#313131" d="M458.25,601.45a2.34,2.34,0,0,0-1.64,3.61,6.63,6.63,0,0,0,2.14,2.84,4.55,4.55,0,0,0,3.39.88,6.61,6.61,0,0,0,2.55-1.15,11.28,11.28,0,0,0,2.38-2c.77-.92,1.31-2.32.59-3.29a3.22,3.22,0,0,0-2.22-1A15.45,15.45,0,0,0,458.25,601.45Z"></path>
  <path fill="#313131" d="M451.29,624.88a20.93,20.93,0,0,1-5.14-.7A1.65,1.65,0,1,1,447,621c4.26,1.09,7.53.69,9.74-1.17,4.19-3.56,3.58-11.34,3.57-11.42a1.65,1.65,0,0,1,3.29-.28c0,.39.75,9.57-4.73,14.22A11.31,11.31,0,0,1,451.29,624.88Z"></path>
  <path fill="#313131" d="M471.4 626.39a10.94 10.94 0 0 1-8-2.91c-5.61-5.54-2.79-16.72-2.67-17.2a1.65 1.65 0 0 1 3.2.83c0 .1-2.47 9.83 1.79 14 2.22 2.19 6.07 2.55 11.44 1.08a1.65 1.65 0 1 1 .87 3.19A25.41 25.41 0 0 1 471.4 626.39ZM459.08 636.92a12.05 12.05 0 0 1-7.78-2.56 1.65 1.65 0 0 1 2.2-2.47c.21.19 4.84 4 13-.4a1.65 1.65 0 0 1 1.57 2.91A18.87 18.87 0 0 1 459.08 636.92Z"></path>
  <path fill="#fff" d="M399.89,694.05s1.25-18.74,13.81-21.43c32.15-6.9,36.33,21.07,36.33,21.07S398.8,693,399.89,694.05Z"></path>
  <path fill="#313131" d="M399.85,695.68a1.59,1.59,0,0,1-1.13-.46,1.71,1.71,0,0,1-.49-1.28,1.54,1.54,0,0,1,0-.3c.25-2.84,2.31-19.9,15.08-22.64a47.83,47.83,0,0,1,10-1.13c23.09,0,27.8,20.64,28.3,23.3a1.75,1.75,0,0,1,.09.57,1.7,1.7,0,0,1-1.66,1.7h0c-.17,0-16.89-.29-30.85-.29s-17.62.22-18.49.35a1.67,1.67,0,0,1-.2.08A1.87,1.87,0,0,1,399.85,695.68Zm23.46-22.51a44.61,44.61,0,0,0-9.26,1.06c-8.84,1.9-11.51,13.14-12.25,17.84,2.53-.17,7.45-.27,17.36-.27,11.08,0,23.88.15,28.81.21C446.6,686.84,441.26,673.17,423.31,673.17Z"></path>
  <path fill="#313131" d="M432.41 672.57c-3.21 0-6.21 0-9-.12a1.65 1.65 0 0 1 .09-3.3c24 .64 68.82-.8 99.44-17.6a1.65 1.65 0 0 1 1.59 2.9C496.79 669.7 457.83 672.57 432.41 672.57ZM648.61 585.42c.79 3.17 1.21 6.94-1 9.31-2.46 2.6-7 2-9.76-.31s-4.29-5.68-5.94-8.87-3.72-6.44-7-7.87c-6.05-2.62-14.06 1.83-19.26-2.23-4.91-3.82-3.89-12.94-9.56-15.47-1-.43-2.1-.65-2.75-1.47-1-1.31-.13-3.33 1.23-4.28s3.07-1.26 4.55-2c2.25-1.14 3.83-3.23 5.76-4.85s4.69-2.77 6.93-1.62c3.74 1.9 2.88 8.24 6.46 10.43 2.48 1.52 5.77.22 8.56 1 3.44 1 5.14 4.82 6 8.29s1.59 7.33 4.34 9.63 6.66 2.46 9 5A11.6 11.6 0 0 1 648.61 585.42ZM627.22 634.45A16.38 16.38 0 0 1 616 629.17c-1.62-1.79-2.85-3.95-4.71-5.48-3.41-2.81-8.28-3-12.64-2.3s-8.63 2.17-13 2.21a6.19 6.19 0 0 1-4-1c-1.84-1.47-1.81-4.2-2.35-6.49-1.6-6.81-10.44-10.75-16.57-7.39A41.77 41.77 0 0 1 568 584a17 17 0 0 1 16.51 4.21c4.84 4.84 7.68 13.16 14.51 13.57 2.22.13 4.45-.71 6.64-.33 5.48.94 6.88 8 10.19 12.48a13.9 13.9 0 0 0 8.27 5.29c4.39.9 9.83 0 12.57 3.53 1.93 2.5 1.33 6.37-.84 8.67A11.15 11.15 0 0 1 627.22 634.45ZM646.36 646.82c1.87-1 3.13-2.8 4.84-4s4.51-1.54 5.62.25a4.73 4.73 0 0 1 .55 2.07c.42 4 0 8.83-3.37 11.08-1.74 1.16-3.92 1.37-6 1.6-7.79.86-15.59 2.46-22.64 5.89-7.27 3.53-14 9.06-22 9.77-11 1-20.75-7.56-26-17.25a3.91 3.91 0 0 1-.61-1.85 3.55 3.55 0 0 1 1-2.1 16 16 0 0 1 19.22-3.9c2.62 1.38 4.82 3.48 7.51 4.72 5.31 2.46 11.58 1.14 17.09-.83s11-4.6 16.83-4.66C641.09 647.56 644 648.05 646.36 646.82Z"></path>
  <ellipse cx="494.48" cy="589.17" fill="#313131" rx="5.76" ry="14.56"></ellipse>
  <path fill="#313131" d="M478.85 687.55a5.9 5.9 0 0 0-.21-4.94c-.69-1.56-1.73-2.94-2.47-4.48a55.33 55.33 0 0 1-2.05-5.75 3.06 3.06 0 0 0-.68-1.22 3.19 3.19 0 0 0-1.37-.63c-3-.84-6.48-1.63-9.16 0a6.55 6.55 0 0 1 4.14 4 11.92 11.92 0 0 1 .54 5.84c-.17 1.34-.44 2.85.38 3.93a4.52 4.52 0 0 0 1.12 1c2.41 1.64 5 3.35 7.91 3.39a2.27 2.27 0 0 0 1-.18A2 2 0 0 0 478.85 687.55ZM504 671.19c0 2.82-3.3 5-2.78 7.79.34 1.82 2.19 2.91 3.93 3.54s3.68 1.13 4.83 2.58c2 2.46.85 6.7 3.32 8.67a6.66 6.66 0 0 0 4 1c2.41.08 5 0 7-1.29s3.26-4.18 2-6.21c-1.58-2.47-5.24-2-8-3a7.66 7.66 0 0 1-5-7 5.62 5.62 0 0 1 .2-1.58c.63-2.08 2.76-3.33 3.84-5.21a11.76 11.76 0 0 0 1.08-5.62c0-1.13 0-2.46-1-3.12a3.45 3.45 0 0 0-1.93-.45c-6.48-.24-13.77-.17-18.34 4.43a14.13 14.13 0 0 1 4.44 1.55A4.79 4.79 0 0 1 504 671.19ZM548.1 664c-.07-2.33.24-4.67 0-7S547 652.3 545 651s-4.79-1.27-6.78-2.69a14 14 0 0 0-2-1.49c-2.17-1-4.5.87-6.17 2.57-1.34 1.37-2.77 2.89-3 4.81a5.83 5.83 0 0 0 2.94 5.38 13.43 13.43 0 0 0 6.21 1.64l0 10.33a2.42 2.42 0 0 0 .23 1.31 2.46 2.46 0 0 0 1.74.9 54.9 54.9 0 0 0 7.22 1 13 13 0 0 0 4.69-.34 5.12 5.12 0 0 0 3.41-3 3.27 3.27 0 0 0-1.56-4c-1-.4-2.16-.24-3-.92A3.25 3.25 0 0 1 548.1 664ZM368.19 667.79a3.42 3.42 0 0 0-1.53.33 2.76 2.76 0 0 0-.91 1 7.43 7.43 0 0 0-.28 6.52 12.62 12.62 0 0 0 4.27 5.15c2.25 1.67 5.06 2.87 7.81 2.34a1.35 1.35 0 0 0 .88-.43 1.56 1.56 0 0 0 .15-1.17c-.34-2.52-.68-5-1-7.57a8.73 8.73 0 0 0-1.09-3.74C374.79 667.7 371.2 667.61 368.19 667.79ZM400.69 670.38c-1.06-1.69-.43-4-1.31-5.78a4.85 4.85 0 0 0-4.53-2.4A10.6 10.6 0 0 0 389.8 664a8.78 8.78 0 0 0 3.95 10.45c2.24 1.19 5.27 1.62 6.29 4 .6 1.38.45 3.35 1.83 4 .76-1.88 1.53-3.77 2.3-5.65a4.35 4.35 0 0 0 .43-1.68C404.55 673 401.79 672.15 400.69 670.38Z"></path>
  <path fill="#7e4e3d" d="M92,216.55c3.68-3.14,8.41-4.78,13.13-5.85,7.21-1.63,14.9-2.08,21.89.32s13.16,8,14.78,15.23c.73,3.25,0,7.49-3.2,8.52a7.56,7.56,0,0,1-3.57,0,38.64,38.64,0,0,1-8.94-2.59c-4.61-2-9.46-4.91-14.27-3.5s-7.38,6.87-6.6,11.7,4.34,8.86,8.55,11.36,9,3.68,13.82,4.77c2.22,1.63.7,5.43-1.78,6.64s-5.41,1-8,1.85c-3,1-5.47,3.31-8.57,3.49-2.57.15-4.95-1.24-7.16-2.57-5.33-3.24-10.86-6.67-14.18-12a29.2,29.2,0,0,1-3.85-13C83.28,232.1,85.24,222.32,92,216.55Z"></path>
  <path fill="#313131" d="M108.86,270.19c-3,0-5.67-1.63-7.63-2.82C96,264.2,90.09,260.61,86.5,254.88c-2.27-3.64-3.61-8.14-4.1-13.77-.94-11,2.17-20.39,8.55-25.82,3.34-2.84,7.73-4.81,13.84-6.2,8.66-2,16.35-1.84,22.79.36,8.13,2.79,14.2,9.09,15.85,16.44.94,4.19-.23,9.12-4.3,10.45a7,7,0,0,1-2.14.32,13.11,13.11,0,0,1-2.21-.22,40.3,40.3,0,0,1-9.32-2.7c-.77-.34-1.56-.69-2.34-1.06-2.88-1.32-5.86-2.68-8.64-2.68a7.35,7.35,0,0,0-2.17.31c-4,1.17-6,6-5.44,9.85s3.46,7.65,7.76,10.2c3.89,2.3,8.35,3.43,13.35,4.58l.33.07.28.21a4.4,4.4,0,0,1,1.73,4,7.05,7.05,0,0,1-3.76,5.42,16.44,16.44,0,0,1-5,1.29,20.24,20.24,0,0,0-3.21.65,20,20,0,0,0-3,1.45,14.11,14.11,0,0,1-5.93,2.12Zm7.5-59.19a49.44,49.44,0,0,0-10.84,1.31c-5.56,1.27-9.51,3-12.43,5.49-7.89,6.72-7.8,18.34-7.4,23,.44,5.09,1.62,9.11,3.61,12.29,3.18,5.07,8.74,8.45,13.64,11.42,2.22,1.35,4.2,2.45,6.21,2.34a11.47,11.47,0,0,0,4.54-1.73,16.85,16.85,0,0,1,7.37-2.46,13.52,13.52,0,0,0,4-1A3.76,3.76,0,0,0,127,259a1.24,1.24,0,0,0-.2-.89c-5.11-1.17-9.69-2.38-13.88-4.86-5.15-3-8.56-7.61-9.34-12.52-1-5.93,2.53-12,7.76-13.54a10.73,10.73,0,0,1,3.11-.44c3.5,0,6.81,1.51,10,3,.76.35,1.52.7,2.27,1a36.91,36.91,0,0,0,8.55,2.48,6.73,6.73,0,0,0,2.79,0c2.31-.75,2.62-4.31,2.11-6.59-1.38-6.14-6.76-11.65-13.7-14A31.31,31.31,0,0,0,116.36,211Z"></path>
  <path fill="#bd6d4a" d="M115.35,416s-5.7,51.6-3.16,56.94a6,6,0,0,0,1.24,1.65,35.34,35.34,0,0,0-24.28,10.94c-8.59-18.91-7.88-71.31-7.88-71.31Z"></path>
  <path fill="#313131" d="M89.15,487.15l-.27,0a1.65,1.65,0,0,1-1.23-.94c-8.65-19-8.06-69.87-8-72a1.69,1.69,0,0,1,.53-1.19,1.6,1.6,0,0,1,1.21-.44l34.09,1.78a1.7,1.7,0,0,1,1.17.58,1.67,1.67,0,0,1,.38,1.25c-2.18,19.77-5,52.47-3.31,56.05a4.86,4.86,0,0,0,.92,1.2,1.65,1.65,0,0,1-1.12,2.81,33.64,33.64,0,0,0-23.13,10.44A1.66,1.66,0,0,1,89.15,487.15Zm-6.24-71.23c0,8.78.25,48.87,6.85,66.68a36.89,36.89,0,0,1,20.75-9.49c-2.06-6.81,1.78-44.27,3-55.59Z"></path>
  <path fill="#fff" d="M113.43,474.55c4.34,4.39,16.09,7.56,16.58,15.09.55,8.45-26.21,12.8-37.91.52a17.31,17.31,0,0,1-2.95-4.67A35.34,35.34,0,0,1,113.43,474.55Z"></path>
  <path fill="#313131" d="M112.84,499.43c-9,0-17-3-21.93-8.13a18.61,18.61,0,0,1-3.26-5.12,1.65,1.65,0,0,1,.31-1.83,37,37,0,0,1,25.41-11.45,1.64,1.64,0,0,1,1.23.49,30.61,30.61,0,0,0,5.84,4c5.08,3,10.84,6.31,11.22,12.19a6.15,6.15,0,0,1-1.82,4.64C126.85,497.37,120.17,499.43,112.84,499.43Zm-21.69-13.6A13.67,13.67,0,0,0,93.3,489c4.3,4.52,11.42,7.11,19.54,7.11,6.37,0,12.23-1.7,14.59-4.21a2.91,2.91,0,0,0,.93-2.17c-.26-4.12-5-6.88-9.58-9.55a36.7,36.7,0,0,1-6-4A33.64,33.64,0,0,0,91.15,485.83Z"></path>
  <path fill="#bd6d4a" d="M316.39,464.9s25.29,36.66,27.67,48.84,11.53,16.18,21.64,17.39,16.51-16.39,12.14-34.32-37.06-51.4-37.06-51.4Z"></path>
  <path fill="#313131" d="M366.68,533.44h0c-.39,0-.78-.33-1.17-.37-13.38-1.6-20.93-7.87-23.07-18.86-2.29-11.71-27.16-47.94-27.41-48.3a1.71,1.71,0,0,1,.33-2.27l24.39-19.5a1.65,1.65,0,0,1,2.21.12c1.35,1.38,33.07,34,37.49,52.17,2.94,12.09,1.29,25.14-4.12,32C372.92,531.52,369.93,533.44,366.68,533.44Zm-48.06-68.21c4.56,6.69,24.87,37,27.06,48.2,1.86,9.53,8.28,14.63,20.22,16.06a6.79,6.79,0,0,0,.78,0h0c2.23,0,4.26-1.15,6.05-3.43,4.74-6,6.18-17.91,3.51-28.9-3.78-15.51-30-43.71-35.61-49.56Z"></path>
  <path fill="#fff" d="M56,461.84a10.67,10.67,0,0,0,3.44,5.89c10.45,8,17.6,20.27,11.69,24.8s-37.27-6.25-37.27-6.25l-.52-3.94C38.4,472.46,46.12,463.87,56,461.84Z"></path>
  <path fill="#313131" d="M66,495.3c-10.93,0-31.83-7.15-32.72-7.45a1.68,1.68,0,0,1-1.1-1.35s-.19-1.44-.51-3.95a1.55,1.55,0,0,1,.17-1C38,469.7,46.41,462.12,55.61,460.22a1.66,1.66,0,0,1,1.93,1.2,9.07,9.07,0,0,0,2.86,5c8.52,6.54,14.47,15.37,14.47,21.46a7.19,7.19,0,0,1-2.79,6C70.8,494.82,68.81,495.3,66,495.3ZM35.31,485.05C39.58,486.46,56.89,492,66,492c2.67,0,3.7-.48,4.08-.77a3.9,3.9,0,0,0,1.49-3.34c0-5.05-5.54-13-13.17-18.84a11.1,11.1,0,0,1-3.56-5.23c-10,2.83-16.6,12.71-19.83,18.83C35.13,483.66,35.24,484.47,35.31,485.05Z"></path>
  <path fill="#bd6d4a" d="M55,351.32c1.87-2.2,2.54-12.49,5.44-25.66,1.44.79,2.9,1.55,4.38,2.25,31.76,12.7,61.88.06,91.28-17.11,18.78-12.37,49.91,11.17,72.38,4.45,26.83,32.28,51.14,67.65,74,80.51l16.1,71-43.75,26.56s12.89,16.89,17.11,18.09,31.69,4.33,45.3,11S337,547,337,547s-66.89-8.27-82.89-15.38-36.72-35.13-36.72-35.13q-8.1-1.53-15.21-3.58a404,404,0,0,0-29.79-33.44c-13.6-15.54-17.17-38.24-25.51-58.8.24-1.43-3.1-7.88-4.77-6.69A61.77,61.77,0,0,0,129,415.07c-18.17,19.94-68.47,6.08-68.47,6.08s-8.2,27.24-4.62,40.69c-9.83,2-17.55,10.62-22.66,20.5-2.07-16-9.62-76.17-7.75-87.33C27.7,382.11,49.47,357.76,55,351.32Z"></path>
  <path fill="#313131" d="M337,548.6h-.2c-2.75-.34-67.32-8.38-83.36-15.51-15.19-6.74-34-31.13-37-35.14-5.06-1-10-2.15-14.73-3.49a1.57,1.57,0,0,1-.84-.57,398,398,0,0,0-29.67-33.3l-.06-.07c-9.65-11-14.23-25.15-19.08-40.11-2.05-6.34-4.18-12.9-6.72-19.16a1.7,1.7,0,0,1-.11-.81,12.1,12.1,0,0,0-2.51-4.74,60.36,60.36,0,0,0-12.16,19.95,1.87,1.87,0,0,1-.33.54c-6.84,7.5-18.56,11.31-34.86,11.31a149.27,149.27,0,0,1-33.68-4.34c-1.63,5.87-7.12,27.2-4.18,38.27a1.65,1.65,0,0,1-1.26,2c-11.07,2.28-18.23,13.28-21.52,19.63a1.65,1.65,0,0,1-3.1-.54C29.36,464.8,22,406,23.91,394.74c1.84-11,16.07-28.58,28.26-42.71.6-.69,1.12-1.29,1.54-1.79.81-.95,1.58-5.6,2.4-10.53.66-4,1.49-9,2.68-14.4a1.64,1.64,0,0,1,.93-1.15,1.62,1.62,0,0,1,1.47,0c1.62.88,3,1.57,4.26,2.19a68.94,68.94,0,0,0,26,5c22.94,0,45.11-11.13,63.77-22a25.62,25.62,0,0,1,14.47-3.9c7.7,0,16.31,2.36,24.63,4.64s17.17,4.7,25,4.7a29.56,29.56,0,0,0,8.64-1.17,1.65,1.65,0,0,1,1.74.53C236,321.7,242.1,329.41,248,336.88c19.52,24.54,38,47.72,55.22,57.44a1.64,1.64,0,0,1,.8,1.07l16.1,71a1.63,1.63,0,0,1-.75,1.77l-42.17,25.6c5.23,6.71,12.75,15.38,15.12,16.05,1,.28,3.52.71,6.76,1.25,10.62,1.78,28.39,4.76,38.82,9.89a11.51,11.51,0,0,1,6.61,7.83c2,8.5-5.88,18.76-6.22,19.2A1.65,1.65,0,0,1,337,548.6ZM203.16,491.42c4.66,1.31,9.55,2.45,14.56,3.39a1.68,1.68,0,0,1,1,.65c.2.27,20.64,27.76,36.06,34.6,14.56,6.47,73.18,14.07,81.45,15.12,1.65-2.36,6.42-9.86,5.07-15.68a8.24,8.24,0,0,0-4.85-5.6c-10-4.92-28.15-8-37.9-9.6-3.47-.58-6-1-7.12-1.33-4.52-1.28-15.76-15.79-18-18.68a1.62,1.62,0,0,1-.31-1.31,1.64,1.64,0,0,1,.76-1.1l42.74-25.94L301,396.83c-17.63-10.23-36.05-33.39-55.54-57.9-5.71-7.17-11.61-14.58-17.59-21.81a33.63,33.63,0,0,1-8.52,1c-8.31,0-17.26-2.45-25.91-4.82-8.49-2.32-16.5-4.52-23.76-4.52A22.35,22.35,0,0,0,157,312.18l-.08.05c-19.05,11.12-41.72,22.5-65.47,22.5a73.25,73.25,0,0,1-27.26-5.28l-.09-.05c-.81-.38-1.63-.79-2.52-1.25-.93,4.51-1.62,8.67-2.19,12.1-1.17,7.08-1.8,10.56-3.15,12.14l-1.54,1.8c-7,8.11-25.59,29.64-27.51,41.09-1.38,8.22,2.67,46.82,7.13,81.94,5.45-8.73,12.28-14.51,19.68-16.6-2.69-14.12,4.68-38.86,5-39.95a1.66,1.66,0,0,1,2-1.12,148.55,148.55,0,0,0,34.39,4.63c15.15,0,26-3.36,32.2-10a63.52,63.52,0,0,1,13.33-21.39,1.7,1.7,0,0,1,.24-.22,2.49,2.49,0,0,1,1.41-.45,4,4,0,0,1,2.94,1.73c1.29,1.52,2.94,4.56,3,6.45,2.53,6.27,4.63,12.78,6.67,19.07,4.74,14.61,9.21,28.41,18.39,38.92A401,401,0,0,1,203.16,491.42Z"></path>
  <path fill="#fff" d="M146.9,400.62c8.34,20.56,11.91,43.26,25.51,58.8a404,404,0,0,1,29.79,33.44c-73-20.79-72.75-78.22-72.75-78.22-.13.15-.28.28-.41.43a61.77,61.77,0,0,1,13.09-21.14C143.8,392.74,147.14,399.19,146.9,400.62Z"></path>
  <path fill="#313131" d="M202.2,494.52a1.83,1.83,0,0,1-.46-.07c-38.24-10.9-56.31-32-64.73-47.71a76.66,76.66,0,0,1-9.16-30.52,1.64,1.64,0,0,1-.36-1.72,63.49,63.49,0,0,1,13.44-21.7,1.7,1.7,0,0,1,.24-.22,2.49,2.49,0,0,1,1.41-.45,4,4,0,0,1,2.94,1.73c1.29,1.52,2.94,4.56,3,6.45,2.53,6.27,4.63,12.78,6.67,19.07,4.74,14.61,9.21,28.41,18.39,38.92a400.27,400.27,0,0,1,29.88,33.54,1.66,1.66,0,0,1-1.3,2.68Zm-71.13-80.16a1.36,1.36,0,0,1,0,.29c0,.14.08,14.27,8.9,30.68,7.76,14.43,24,33.51,57.58,44.4-7.37-9.07-15.85-18.45-26.35-29.15l-.06-.07c-9.65-11-14.23-25.15-19.08-40.11-2.05-6.34-4.18-12.9-6.72-19.16a1.7,1.7,0,0,1-.11-.81,12.1,12.1,0,0,0-2.51-4.74A60.5,60.5,0,0,0,131.07,414.36Z"></path>
  <path fill="#7e4e3d" d="M127.21,254.39c37.9-7.67,71.15,24.65,101.24,60.86-22.47,6.72-53.6-16.82-72.38-4.45-29.4,17.17-59.52,29.81-91.28,17.11-1.48-.7-2.94-1.46-4.38-2.25C66,300.2,80,263.94,127.21,254.39Z"></path>
  <path fill="#313131" d="M91.43,334.73a73.25,73.25,0,0,1-27.26-5.28l-.09-.05c-1.36-.64-2.78-1.37-4.46-2.29l-1.09-.59.26-1.21c9.11-41.39,31.38-65.12,68.1-72.54a58.3,58.3,0,0,1,11.6-1.17c34.46,0,64.21,30.08,91.23,62.59l1.6,1.92-2.4.72a33.18,33.18,0,0,1-9.58,1.3c-8.31,0-17.26-2.45-25.91-4.82-8.49-2.32-16.5-4.52-23.76-4.52A22.35,22.35,0,0,0,157,312.18l-.08.05C137.85,323.35,115.18,334.73,91.43,334.73Zm-26-8.33a68.94,68.94,0,0,0,26,5c22.94,0,45.11-11.13,63.77-22a25.62,25.62,0,0,1,14.47-3.9c7.7,0,16.31,2.36,24.63,4.64s17.17,4.7,25,4.7a32.17,32.17,0,0,0,6.15-.56c-24.89-29.7-54.55-59.37-87-59.37a54.83,54.83,0,0,0-11,1.11c-34.93,7.06-56.29,29.57-65.25,68.79C63.44,325.41,64.46,325.93,65.45,326.4Z"></path>
  <path fill="#313131" d="M129.45,416.29a1.63,1.63,0,0,1-1-.3,1.65,1.65,0,0,1-.39-2.3c17.21-24.35,22.1-49.52,16.37-84.16a1.65,1.65,0,0,1,3.26-.53c5.89,35.57.83,61.47-16.93,86.6A1.66,1.66,0,0,1,129.45,416.29Z"></path>
  <path fill="#7e4e3d" d="M291.48,361.85s3.84-69.77,20.54-71.33,17.06,37.47,25.39,45.94,35.39,36.34,12.53,48.63S291.48,361.85,291.48,361.85Z"></path>
  <path fill="#313131" d="M339.15,389.33c-22.22,0-47.76-25.24-48.84-26.31l-.52-.52,0-.74a351.53,351.53,0,0,1,4-35.27c4.24-24.58,10.13-36.88,18-37.61a10.31,10.31,0,0,1,1.11-.05c11,0,15.15,15.24,18.78,28.68,2.07,7.69,4,14.94,6.83,17.79,5.93,6,24,24.37,21.79,38.85-.79,5.2-4,9.37-9.66,12.39A24.08,24.08,0,0,1,339.15,389.33Zm-46-28.14c3.75,3.58,26.79,24.83,46,24.83a20.85,20.85,0,0,0,10-2.39c4.72-2.53,7.32-5.8,7.95-10,1.94-12.85-15.23-30.31-20.88-36-3.4-3.47-5.38-10.78-7.66-19.25-3.32-12.3-7.09-26.24-15.59-26.24a7.44,7.44,0,0,0-.81,0C301.14,293.19,294.7,334.72,293.17,361.19Z"></path>
  <path fill="#f0c7c0" d="M296.54,361.88s3.38-51.39,16-52.65,12.6,27.46,18.82,33.64,26.43,26.5,9.11,35.71S296.54,361.88,296.54,361.88Z"></path>
  <path fill="#313131" d="M304.48,352.44h0a1.58,1.58,0,0,1-1.64-1.57c0-5.08,5.67-26.81,5.91-27.73a1.64,1.64,0,0,1,2-1.16,1.66,1.66,0,0,1,1.19,2c-1.61,6.18-5.78,23-5.81,26.87A1.58,1.58,0,0,1,304.48,352.44Z"></path>
  <path fill="#bd6d4a" d="M252.91,375.1s-45.92-52.66-60-43.62,9.58,40,8.21,51.84-5.56,50.42,20,46.06S252.91,375.1,252.91,375.1Z"></path>
  <path fill="#313131" d="M217.27,431.44h0a15.55,15.55,0,0,1-12.1-5.24c-9.48-10.64-6.66-35-5.74-43.05.46-4-2.46-10.91-5.54-18.24-5.61-13.31-12-28.39-1.92-34.82a8.8,8.8,0,0,1,4.8-1.3c17.74,0,55.78,43.38,57.39,45.23a1.63,1.63,0,0,1,.39,1.29c-.26,2.09-6.69,51.21-33.18,55.73A24.92,24.92,0,0,1,217.27,431.44Zm-20.5-99.35a5.49,5.49,0,0,0-3,.78c-7.69,4.92-1.91,18.64,3.18,30.75,3.4,8.08,6.34,15.06,5.79,19.89-.89,7.65-3.58,31.11,4.92,40.64a12.3,12.3,0,0,0,9.63,4.29h0a22.53,22.53,0,0,0,3.54-.51c22.45-3.82,29.46-46.12,30.36-52.21C246.61,370.58,212,332.09,196.77,332.09Z"></path>
  <path fill="#f0c7c0" d="M248.93,378.24s-34.26-38.45-45-31.69,6.94,29.41,5.83,38.1-4.55,37.15,14.77,33.76S248.93,378.24,248.93,378.24Z"></path>
  <path fill="#313131" d="M236,376.18a1.67,1.67,0,0,1-1.3-.63c-2.4-3.05-16.08-13.81-21.15-17.7a1.65,1.65,0,1,1,2-2.62c.75.58,18.59,14.28,21.74,18.27a1.65,1.65,0,0,1-.28,2.32A1.63,1.63,0,0,1,236,376.18Z"></path>
  <path fill="#bd6d4a" d="M373.68,414.77c7.25,21.07-4.1,44.51-25.73,55.57a56.51,56.51,0,0,1-23.83,6.26,48.78,48.78,0,0,0-27,9.29,56.59,56.59,0,0,1-14.77,7.64,55.29,55.29,0,0,1-8.61,2.21C250.11,500,227.15,488.46,220,467.6c-11.47-33.37,9.3-74.39,33-94.42a56.56,56.56,0,0,1,17.55-10.55,49.17,49.17,0,0,1,15.12-2.38c1,0,2,0,3,0h.08c27.13.76,62.84,16.93,79,42.42A56.54,56.54,0,0,1,373.68,414.77Z"></path>
  <path fill="#313131" d="M264,498.25c-21.09,0-39.41-12.1-45.6-30.11-11.33-33,8.15-74.81,33.53-96.23,6.13-5.17,12.22-8.82,18.08-10.84a50.39,50.39,0,0,1,15.64-2.47h.85l2.24,0H289c26.13.77,63.12,16.15,80.27,43.18a58.78,58.78,0,0,1,6,12.42c7.45,21.69-3.71,45.9-26.55,57.58a58.3,58.3,0,0,1-24.52,6.44,46.89,46.89,0,0,0-26.13,9,58.32,58.32,0,0,1-15.2,7.86A58.66,58.66,0,0,1,264,498.25Zm22.5-136.35h-.82a46.76,46.76,0,0,0-14.59,2.29,54.87,54.87,0,0,0-17,10.24c-24.54,20.7-43.42,61-32.55,92.62C227.36,484,244,495,264,495a53.13,53.13,0,0,0,9.39-.84,53.7,53.7,0,0,0,8.36-2.14,55,55,0,0,0,14.34-7.42,50.3,50.3,0,0,1,28-9.61,55,55,0,0,0,23.12-6.07C368.55,458,379,435.42,372.12,415.3a55.23,55.23,0,0,0-5.69-11.71c-16.56-26.11-52.37-40.95-77.67-41.66h-.16Z"></path>
  <path fill="#7e4e3d" d="M365.84,403.19c-6.2,9.81-20.49,25-48.12,21.35-40-5.33-37.87-51.88-37.87-51.88l6.4-10.6C312.84,361.63,349.56,377.54,365.84,403.19Z"></path>
  <path fill="#fff" d="M346.58,468.74a54.73,54.73,0,0,1-23.09,6.06,47.38,47.38,0,0,0-26.2,9,54.92,54.92,0,0,1-14.31,7.4,53.35,53.35,0,0,1-8.35,2.14c-45.88-20.36,1.61-66.1,3.24-68s-1.41-8.95-3.32-14.49-8.26-6-12.17-12.52c-2.64-4.4-5.93-16.38-7.79-23.72a54.62,54.62,0,0,1,17-10.22A46.08,46.08,0,0,1,286,362.14a8.72,8.72,0,0,0,2.72.1l0,0c2.33,7.1,8.23,18.63,8.88,23.84.92,7.55-3.72,11.68-1.82,17.23s3.85,13.05,6.4,13.61S370.53,424.33,346.58,468.74Z"></path>
  <path fill="#313131" d="M298.67,446.54c7.38-2.15,13.94-13.9,9.34-17.25s-26.16,5.55-27.38,9.17S289.27,449.28,298.67,446.54Z"></path>
  <path fill="#e296a7" d="M314.22,463.85s11.93,23.23-2.62,26.75-17.73-21.48-17.73-21.48l7.66-8.54Z"></path>
  <path fill="#313131" d="M308.87,492.59c-13.52,0-16.51-22.32-16.63-23.27a1.66,1.66,0,0,1,.4-1.31l7.66-8.54a1.65,1.65,0,0,1,1.64-.49l12.7,3.27a1.61,1.61,0,0,1,1.05.84c.31.6,7.53,14.85,3.62,23.39a10.24,10.24,0,0,1-7.32,5.73A13.64,13.64,0,0,1,308.87,492.59Zm-13.24-22.95c.6,3.64,3.78,19.65,13.24,19.65a10.19,10.19,0,0,0,2.34-.29,7,7,0,0,0,5.09-3.9c2.83-6.17-1.92-17.07-3.23-19.84l-11-2.83Z"></path>
  <path fill="#313131" d="M305.25,475.12a1.66,1.66,0,0,1-1.56-1.11L293.3,443.77a1.65,1.65,0,1,1,3.12-1.07l10.4,30.23a1.66,1.66,0,0,1-1,2.1A1.7,1.7,0,0,1,305.25,475.12Z"></path>
  <path fill="#313131" d="M286,472.72a27.78,27.78,0,0,1-11-2.54,1.65,1.65,0,0,1,1.45-3c.11.05,8.66,4.13,15,1.07,3.22-1.56,5.39-4.78,6.45-9.59a1.65,1.65,0,0,1,3.23.72c-1.29,5.84-4.07,9.83-8.25,11.85A15.88,15.88,0,0,1,286,472.72Z"></path>
  <path fill="#313131" d="M311.69 464.14c-3.64 0-7.34-1.53-11-4.57a1.65 1.65 0 0 1 2.11-2.55c3.79 3.14 7.49 4.35 11 3.59 6.9-1.49 11.11-10 11.15-10.05a1.65 1.65 0 0 1 3 1.45c-.2.41-5 10-13.42 11.83A13.07 13.07 0 0 1 311.69 464.14ZM280.1 430.69a1.65 1.65 0 0 1-.76-3.12c.48-.25 11.87-6.06 23.38-8a1.65 1.65 0 1 1 .56 3.26c-11 1.88-22.31 7.65-22.43 7.71A1.66 1.66 0 0 1 280.1 430.69Z"></path>
  <path fill="#fff" d="M234.9,433.66a15,15,0,0,1-4-7.38,19.07,19.07,0,0,1,1.22-10.43c2.84-7.6,8.46-14.05,17.11-13.32,6.85.58,13.44,4.56,18.46,9.06a12.15,12.15,0,0,1,3.14,3.89c1.59,3.51.19,7.65-1.7,11-3.9,6.95-11.28,12.35-19.33,13A19.28,19.28,0,0,1,234.9,433.66Z"></path>
  <path fill="#313131" d="M248.55,441.17a21,21,0,0,1-14.84-6.37,16.63,16.63,0,0,1-4.39-8.19,20.58,20.58,0,0,1,1.29-11.34c3.65-9.76,10.57-15.08,18.8-14.38,8.5.72,15.82,6.24,19.42,9.46a14,14,0,0,1,3.54,4.44c1.56,3.44,1,7.65-1.76,12.51-4.35,7.75-12.46,13.18-20.65,13.82C249.5,441.15,249,441.17,248.55,441.17Zm-.61-37c-8.38,0-12.52,7.7-14.24,12.3a17.39,17.39,0,0,0-1.14,9.52,13.37,13.37,0,0,0,3.54,6.57,17.66,17.66,0,0,0,13.61,5.3c7.12-.55,14.19-5.32,18-12.14,2.18-3.89,2.73-7.1,1.63-9.52a10.72,10.72,0,0,0-2.73-3.34c-3.3-3-10-8-17.5-8.64C248.73,404.15,248.33,404.13,247.94,404.13Z"></path>
  <circle cx="254.84" cy="426.51" r="11.35" fill="#313131" transform="rotate(-21.63 254.904 426.6)"></circle>
  <path fill="#fff" d="M344.21,398a15.11,15.11,0,0,0-1.42-8.28,19.28,19.28,0,0,0-7.4-7.51c-6.93-4.25-15.35-5.89-21.74,0-5.07,4.69-7.83,11.89-9,18.55a12.09,12.09,0,0,0-.08,5c.91,3.77,4.57,6.17,8.14,7.67,7.36,3.09,16.53,2.81,23.29-1.66A19.3,19.3,0,0,0,344.21,398Z"></path>
  <path fill="#313131" d="M323,417.44h0A28.65,28.65,0,0,1,312,415.09c-5.16-2.16-8.22-5.2-9.11-8.88a14,14,0,0,1,.07-5.74c.86-4.77,3.24-13.67,9.52-19.48a15.65,15.65,0,0,1,10.91-4.29,25,25,0,0,1,12.83,4.06,20.73,20.73,0,0,1,8,8.17,16.74,16.74,0,0,1,1.58,9.19,21.22,21.22,0,0,1-9,15.17A25.19,25.19,0,0,1,323,417.44Zm.44-37.45a12.4,12.4,0,0,0-8.66,3.41c-5.58,5.15-7.73,13.25-8.52,17.62a10.87,10.87,0,0,0-.11,4.33c.63,2.6,3,5.11,7.18,6.85a25.47,25.47,0,0,0,9.67,2.24h0a22,22,0,0,0,12.07-3.75,18.07,18.07,0,0,0,7.5-12.75,13.7,13.7,0,0,0-1.25-7.46,17.54,17.54,0,0,0-6.78-6.87A21.86,21.86,0,0,0,323.43,380Z"></path>
  <circle cx="321.29" cy="404.23" r="11.38" fill="#313131" transform="rotate(-3.03 321.14 404.075)"></circle>
  <path fill="#ce5044" d="M306.66,591c-14.76,2.61-27.17,12.53-36.74,24.15a36.38,36.38,0,0,0-7.33,22.51A33.45,33.45,0,0,0,306.66,591Z"></path>
  <path fill="#313131" d="M277.76,643a34.66,34.66,0,0,1-15.92-3.82,1.66,1.66,0,0,1-.9-1.46,38.2,38.2,0,0,1,7.66-23.51c11.43-13.89,24.48-22.44,37.77-24.78a1.66,1.66,0,0,1,1.72.79A35.1,35.1,0,0,1,277.76,643Zm-13.51-6.32a31.45,31.45,0,0,0,13.51,3,31.8,31.8,0,0,0,28-46.8c-12.12,2.49-24.06,10.54-34.61,23.35A34.36,34.36,0,0,0,264.25,636.63Z"></path>
  <path fill="#ce5044" d="M290.24,576.82A33.43,33.43,0,0,0,247.47,622C253.87,602.43,271.21,586.3,290.24,576.82Z"></path>
  <path fill="#313131" d="M247.47,623.66a1.67,1.67,0,0,1-1.5-.95,34.73,34.73,0,0,1-3.31-14.86,35.1,35.1,0,0,1,48.19-32.57,1.65,1.65,0,0,1,.12,3c-20.55,10.24-36.22,26.78-41.93,44.22a1.64,1.64,0,0,1-1.47,1.14Zm30.29-47.61a31.84,31.84,0,0,0-31.8,31.8,31.21,31.21,0,0,0,1.47,9.53C254,601.65,268,587,286,577.15A31.65,31.65,0,0,0,277.76,576.05Z"></path>
  <path fill="#eeb857" d="M290.24,576.82c-19,9.48-36.37,25.61-42.77,45.19a33.59,33.59,0,0,0,15.12,15.65,36.38,36.38,0,0,1,7.33-22.51c9.57-11.62,22-21.54,36.74-24.15A33.57,33.57,0,0,0,290.24,576.82Z"></path>
  <path fill="#313131" d="M262.59,639.31a1.69,1.69,0,0,1-.75-.18A35.37,35.37,0,0,1,246,622.71a1.63,1.63,0,0,1-.07-1.21c6-18.27,22.27-35.53,43.6-46.16a1.63,1.63,0,0,1,1.35-.05,35.33,35.33,0,0,1,17.24,14.88,1.65,1.65,0,0,1-1.14,2.46c-12.51,2.21-24.88,10.36-35.76,23.57a34.52,34.52,0,0,0-6.95,21.44,1.63,1.63,0,0,1-.78,1.42A1.6,1.6,0,0,1,262.59,639.31ZM249.25,621.9a32.13,32.13,0,0,0,11.76,13,38.12,38.12,0,0,1,7.59-20.71c10.74-13,22.92-21.39,35.38-24.29a32.12,32.12,0,0,0-13.68-11.24C270.33,588.78,255.06,604.87,249.25,621.9Z"></path>
  <path fill="#e296a7" d="M192.47,636.31c-4.15-1.39-21.38-3.87-36.18-3.87H133.34c-14.81,0-32,2.48-36.18,3.87-7.61,2.53-6.77,9.36-2.54,45.72,3.49,30,20.78,45.61,42.86,49.22h14.67C174.23,727.64,191.52,712,195,682,199.23,645.65,200.08,638.84,192.47,636.31Z"></path>
  <path fill="#313131" d="M137.48,732.44c-.09,0-.18.25-.27.24-11.74-1.92-21.89-7-29.34-15.06C99.7,708.83,94.69,697,93,682.28l-.1-.86c-2.07-17.75-3.31-28.45-3.08-35,.25-6.78,2.1-9.8,6.83-11.37,4.49-1.5,21.87-3.62,36.71-3.62h22.95c14.83,0,32.22,2.13,36.7,3.62,4.73,1.58,6.58,4.65,6.83,11.43.24,6.54-1,17.23-3.07,35l-.1.88c-1.71,14.7-6.72,26.6-14.89,35.39-7.45,8-17.6,13.25-29.35,15.17-.08,0-.17-.25-.26-.25l-14.67-.22Zm-4.14-98c-15.29,0-32,2.39-35.66,3.61-6.1,2-5.6,7.94-1.52,43l.1.91c3.12,26.87,17.81,43.81,41.35,47.71l14.4,0c23.55-3.9,38.23-20.82,41.35-47.66l.11-.9c4.07-35,4.58-41-1.52-43-3.65-1.22-20.38-3.61-35.66-3.61Z"></path>
  <path fill="#333" d="M98.77,640.85a3.48,3.48,0,0,1,2.1-2.53c5.49-2.94,12.16-.86,18.38-.81a71.3,71.3,0,0,0,8.85-.79c17.25-2.08,34.72-.65,52,.86a23,23,0,0,1,7.77,1.61c.83.39,1.72,1.06,1.67,2s-.93,1.45-1.73,1.83a48.93,48.93,0,0,1-13.31,3.8c-11.44,1.87-23.1,2-34.7,2-12.82.05-26,0-37.94-4.7C100.4,643.52,98.67,642.46,98.77,640.85Z"></path>
  <path fill="#a5a653" d="M159.38,599a11.26,11.26,0,0,1,5.47-1.46,161.51,161.51,0,0,1,18.27-.52c4.79.14,9.61.48,14.34-.24s9.46-2.66,12.55-6.31c4.43-5.25,4.51-13.4,1-19.28s-10.18-9.51-17-10.37-13.77.82-20,3.7a53.53,53.53,0,0,0-23.27,20.94c-6-4.85-4.93-14.57-.72-21s10.71-11,15.38-17.13c4.29-5.6,7-12.68,6.25-19.7s-5.17-13.81-11.79-16.25c-8.77-3.22-18.9,1.87-24.16,9.59s-6.64,17.39-7.22,26.7a199.85,199.85,0,0,0,2.77,47.92,35.07,35.07,0,0,0-22.33-23.73,35.58,35.58,0,0,0-32.19,5.27A19.28,19.28,0,0,0,70,585.33c-2.34,6.14.41,13.42,5.41,17.69s11.78,5.91,18.35,6.05,13.07-1.07,19.6-1.87c2.89-.36,5.9-.62,8.68.26,6.39,2,9.47,9.4,10,16.08s-.57,13.54,1.09,20l17.82-.14c-.59-13.83-1-28.42,5.45-40.65A10.06,10.06,0,0,1,159.38,599Z"></path>
  <path fill="#313131" d="M133.11,645.44a1.74,1.74,0,0,1-1.6-1.35c-1.09-4.26-1-8.69-1-12.92,0-2.46.06-5-.15-7.46-.48-5.87-3.07-12.81-8.87-14.66a12.46,12.46,0,0,0-3.8-.53,34.13,34.13,0,0,0-4.18.32q-2.28.28-4.56.6a95.47,95.47,0,0,1-15.28,1.28c-5.54-.12-13.4-1.33-19.39-6.45S66,591.19,68.41,584.74c1.22-3.21,3.67-6.21,7.28-8.94A37.18,37.18,0,0,1,98,568.45a35.66,35.66,0,0,1,11.41,1.84,36.48,36.48,0,0,1,18.45,14.08,201.23,201.23,0,0,1-1.07-36.81c.56-9,1.9-19.3,7.5-27.53,4.68-6.86,12.5-11.29,19.92-11.29a17.86,17.86,0,0,1,6.18,1.08c6.89,2.54,12.06,9.63,12.87,17.64.7,7-1.64,14.4-6.59,20.87a76.42,76.42,0,0,1-7.14,7.75,57.52,57.52,0,0,0-8.17,9.27c-3.5,5.37-4.59,12.95-1,17.48A55.35,55.35,0,0,1,173.27,563a40.68,40.68,0,0,1,17-4.07,30.77,30.77,0,0,1,3.86.24c7.77,1,14.58,5.14,18.21,11.15,4.06,6.71,3.59,15.63-1.11,21.19-3.84,4.56-9.49,6.26-13.56,6.88a45.36,45.36,0,0,1-7,.46c-1.77,0-3.56-.06-5.29-.12l-2.34-.08a163,163,0,0,0-18.09.51,9.87,9.87,0,0,0-4.68,1.19,8.54,8.54,0,0,0-2.47,3.19c-6.44,12.18-5.82,26.86-5.26,39.81a1.66,1.66,0,0,1-.46,1.21,1.75,1.75,0,0,1-1.18.61l-17.82.25ZM117.7,605.21a15.5,15.5,0,0,1,4.8.68c7.36,2.35,10.59,10.59,11.17,17.52.21,2.59.18,5.21.15,7.74a52.85,52.85,0,0,0,.6,10.77l14.78-.12c-.51-12.4-.84-27.39,5.72-39.78a11.69,11.69,0,0,1,3.52-4.38,12.72,12.72,0,0,1,6.27-1.75,164.81,164.81,0,0,1,18.46-.52l2.37.08c1.7.06,3.46.12,5.17.12a41.35,41.35,0,0,0,6.5-.43c3.51-.53,8.36-2,11.54-5.74,3.81-4.52,4.15-11.82.8-17.36-3.11-5.14-9-8.72-15.8-9.58-5.91-.75-12.43.47-19.09,3.56a52.06,52.06,0,0,0-22.56,20.29,1.64,1.64,0,0,1-2.45.43c-6.63-5.39-5.75-16-1.07-23.19a61.1,61.1,0,0,1,8.62-9.83,73.57,73.57,0,0,0,6.84-7.4c4.37-5.71,6.53-12.47,5.92-18.53-.68-6.78-5-12.76-10.72-14.87a14.68,14.68,0,0,0-5-.88c-6.36,0-13.11,3.87-17.19,9.85-5.15,7.57-6.4,17.33-6.93,25.88a198.13,198.13,0,0,0,2.75,47.52,1.65,1.65,0,0,1-3.22.72,33.6,33.6,0,0,0-21.26-22.59A32.31,32.31,0,0,0,98,571.75a33.88,33.88,0,0,0-20.31,6.69,17.6,17.6,0,0,0-6.18,7.48c-1.93,5.08.15,11.75,4.94,15.84,5.25,4.48,12.31,5.55,17.31,5.66a94.85,94.85,0,0,0,14.76-1.25c1.53-.21,3.07-.42,4.6-.61A37.78,37.78,0,0,1,117.7,605.21Z"></path>
  <path fill="#333" d="M155.08 594.33a1.65 1.65 0 0 1-1.29-2.69c17.75-21.85 46.74-16.91 47-16.86a1.65 1.65 0 1 1-.59 3.25c-.27 0-27.38-4.62-43.87 15.69A1.65 1.65 0 0 1 155.08 594.33ZM139 561.15h-.17a1.66 1.66 0 0 1-1.47-1.81c1.6-15.69 11.8-34.7 12.24-35.5a1.65 1.65 0 1 1 2.9 1.57c-.1.19-10.32 19.24-11.86 34.26A1.65 1.65 0 0 1 139 561.15ZM124.11 596.34a1.67 1.67 0 0 1-1-.31c-21.42-15.39-42.22-6.27-42.42-6.18a1.65 1.65 0 1 1-1.37-3c.91-.41 22.7-10 45.72 6.51a1.65 1.65 0 0 1-1 3Z"></path>
</svg>
